<?xml version="1.0" encoding="utf-8"?>
<!-- Generator: Adobe Illustrator 16.0.4, SVG Export Plug-In . SVG Version: 6.00 Build 0)  -->
<!DOCTYPE svg PUBLIC "-//W3C//DTD SVG 1.1//EN" "http://www.w3.org/Graphics/SVG/1.1/DTD/svg11.dtd">
<svg version="1.1" id="Layer_1" xmlns="http://www.w3.org/2000/svg" xmlns:xlink="http://www.w3.org/1999/xlink" x="0px" y="0px"
	 width="200px" height="75px" viewBox="0 0 200 75" enable-background="new 0 0 200 75" xml:space="preserve">
<g>
	<path fill="#FFFFFF" d="M20.762,15.245H8.177c0.065,1.436,0.434,2.554,1.109,3.351c0.674,0.8,1.785,1.197,3.327,1.197
		c0.77,0,1.664-0.109,2.676-0.326c1.011-0.219,2.177-0.578,3.493-1.076c1.062,1.095,1.721,2.581,1.978,4.451
		c-2.582,1.838-5.742,2.758-9.484,2.758c-2.032,0-3.737-0.322-5.106-0.967c-1.371-0.646-2.484-1.55-3.339-2.711
		c-0.854-1.16-1.46-2.533-1.815-4.113c-0.354-1.58-0.531-3.307-0.531-5.179c0-1.806,0.217-3.475,0.652-5.009
		C1.573,6.089,2.234,4.758,3.12,3.629c0.888-1.128,2.017-2.016,3.388-2.663C7.88,0.322,9.484,0,11.324,0
		c1.548,0,2.943,0.257,4.187,0.774c1.24,0.517,2.297,1.226,3.168,2.13c0.872,0.903,1.54,1.983,2.008,3.242
		c0.468,1.259,0.701,2.63,0.701,4.113C21.388,12.227,21.179,13.888,20.762,15.245z M8.129,10.019h6.34V9.485
		c0-1.193-0.266-2.178-0.792-2.952c-0.529-0.775-1.321-1.161-2.376-1.161c-1.026,0-1.785,0.363-2.282,1.087
		C8.522,7.186,8.226,8.373,8.129,10.019z"/>
	<path fill="#FFFFFF" d="M32.664,19.116l4.21-18.341c0.903-0.194,1.919-0.292,3.05-0.292c1.386,0,2.595,0.194,3.628,0.582
		l0.242,0.337c-3.291,12.002-5.534,19.827-6.725,23.472c-1.646,0.194-3.382,0.29-5.203,0.29c-1.824,0-3.121-0.25-3.897-0.75
		c-0.773-0.5-1.372-1.459-1.789-2.879l-5.807-20.23c1.58-0.677,2.983-1.015,4.208-1.015c1.226,0,2.179,0.265,2.857,0.798
		c0.677,0.534,1.177,1.445,1.5,2.734l2.178,9.051c0.16,0.612,0.515,2.564,1.063,5.855C32.212,18.986,32.374,19.116,32.664,19.116z"
		/>
	<path fill="#FFFFFF" d="M61.699,2.856c2.324,2.322,3.484,5.645,3.484,9.969c0,1.935-0.25,3.694-0.749,5.274
		c-0.501,1.583-1.228,2.927-2.179,4.042c-0.951,1.113-2.121,1.968-3.508,2.563c-1.386,0.598-2.985,0.896-4.791,0.896
		c-1.807,0-3.396-0.306-4.768-0.92c-1.371-0.612-2.533-1.476-3.483-2.588c-0.952-1.114-1.669-2.459-2.154-4.042
		c-0.484-1.58-0.725-3.321-0.725-5.225c0-1.935,0.241-3.686,0.725-5.252c0.485-1.564,1.193-2.91,2.129-4.041
		c0.934-1.128,2.097-2,3.484-2.614c1.388-0.611,2.984-0.917,4.792-0.917C57.151,0.001,59.732,0.952,61.699,2.856z M53.982,5.663
		c-0.715,0-1.293,0.17-1.73,0.509c-0.44,0.337-0.788,0.798-1.048,1.378c-0.261,0.58-0.439,1.251-0.537,2.009
		c-0.098,0.758-0.146,1.572-0.146,2.443c0,1.356,0.04,2.525,0.122,3.507c0.081,0.985,0.243,1.807,0.488,2.47
		c0.243,0.661,0.584,1.153,1.023,1.476c0.438,0.321,1.016,0.484,1.731,0.484c1.429,0,2.371-0.622,2.826-1.864
		c0.454-1.24,0.683-3.007,0.683-5.298c0-2.322-0.229-4.089-0.683-5.298C56.255,6.268,55.345,5.663,53.982,5.663z"/>
	<path fill="#FFFFFF" d="M80.09,14.857H66.443c-0.195-0.806-0.292-1.815-0.292-3.025c0-1.209,0.097-2.216,0.292-3.025h13.646
		c0.192,0.809,0.289,1.816,0.289,3.025C80.378,13.042,80.281,14.051,80.09,14.857z"/>
	<path fill="#FFFFFF" d="M0,61.6c0.03-0.838,0.25-1.758,0.652-2.758c0.404-1,0.879-1.791,1.429-2.371
		c2.58,1.354,4.822,2.031,6.727,2.031c0.902,0,1.596-0.152,2.081-0.459c0.482-0.309,0.726-0.719,0.726-1.234
		c0-0.967-0.744-1.694-2.227-2.176l-2.662-1.018c-4.034-1.484-6.049-3.905-6.049-7.26c0-2.451,0.846-4.396,2.541-5.832
		c1.694-1.435,3.975-2.15,6.849-2.15c1.418,0,2.982,0.2,4.692,0.604c1.71,0.401,3.114,0.879,4.21,1.43
		c0.065,0.904-0.113,1.896-0.531,2.977c-0.421,1.08-0.938,1.848-1.55,2.299c-2.709-1.227-4.968-1.84-6.775-1.84
		c-0.645,0-1.137,0.146-1.475,0.436c-0.338,0.291-0.509,0.662-0.509,1.115c0,0.772,0.612,1.387,1.84,1.836l3.001,1.065
		c4.289,1.517,6.435,4.112,6.435,7.792c0,2.418-0.887,4.34-2.66,5.758c-1.774,1.42-4.308,2.129-7.599,2.129
		C5.855,63.971,2.806,63.18,0,61.6z"/>
	<path fill="#FFFFFF" d="M41.81,39.871l-5.953,22.747c-0.936,3.481-2.179,6.161-3.726,8.03c-1.775,2.129-4.5,3.195-8.178,3.195
		c-1.97,0-3.921-0.324-5.855-0.969c-0.097-0.871,0-1.85,0.29-2.928c0.29-1.084,0.692-1.91,1.208-2.492
		c1.453,0.482,2.904,0.727,4.357,0.727c2.387,0,3.967-1.307,4.741-3.92l0.195-0.678c-2.807,0-4.484-1.018-5.034-3.051L18.24,39.677
		c1.485-0.678,2.871-1.016,4.162-1.016s2.235,0.239,2.833,0.728c0.596,0.483,1.041,1.321,1.33,2.516l2.227,9.291
		c0.225,0.873,0.597,3,1.113,6.392c0.032,0.226,0.163,0.338,0.389,0.338l4.208-18.776c0.776-0.227,1.823-0.338,3.146-0.338
		c1.483,0,2.774,0.176,3.872,0.529L41.81,39.871z"/>
	<path fill="#FFFFFF" d="M40.554,61.6c0.03-0.838,0.25-1.758,0.652-2.758c0.404-1,0.879-1.791,1.429-2.371
		c2.58,1.354,4.822,2.031,6.727,2.031c0.901,0,1.596-0.152,2.081-0.459c0.482-0.309,0.725-0.719,0.725-1.234
		c0-0.967-0.744-1.694-2.228-2.176l-2.66-1.018c-4.034-1.482-6.05-3.903-6.05-7.26c0-2.451,0.847-4.396,2.541-5.832
		c1.694-1.437,3.975-2.15,6.849-2.15c1.418,0,2.982,0.2,4.693,0.604c1.709,0.402,3.114,0.879,4.21,1.43
		c0.065,0.904-0.113,1.896-0.531,2.978c-0.422,1.08-0.938,1.847-1.55,2.298c-2.709-1.226-4.968-1.839-6.775-1.839
		c-0.645,0-1.137,0.146-1.475,0.435c-0.339,0.293-0.509,0.664-0.509,1.115c0,0.774,0.612,1.389,1.84,1.838l3,1.063
		c4.289,1.517,6.435,4.112,6.435,7.792c0,2.42-0.887,4.34-2.66,5.758c-1.774,1.422-4.308,2.131-7.599,2.131S43.36,63.18,40.554,61.6
		z"/>
	<path fill="#FFFFFF" d="M75.59,39.046c0.193,0.896,0.29,1.791,0.29,2.688c0,0.895-0.096,1.772-0.29,2.637l-5.759-0.098v11.133
		c0,1.516,0.709,2.273,2.13,2.273h2.709c0.419,1.17,0.63,2.243,0.63,3.221c0,0.977-0.065,1.676-0.195,2.1
		c-2.386,0.324-4.581,0.486-6.581,0.486c-4.064,0-6.097-2.248-6.097-6.742V44.323l-3.774,0.048
		c-0.225-0.798-0.338-1.668-0.338-2.613c0-0.939,0.113-1.846,0.338-2.709l3.774,0.1v-2.81c0-1.646,0.314-2.814,0.942-3.507
		c0.63-0.693,1.686-1.042,3.171-1.042h2.952l0.338,0.341v7.016L75.59,39.046z"/>
	<path fill="#FFFFFF" d="M95.964,53.615H83.38c0.065,1.436,0.434,2.555,1.108,3.352c0.675,0.801,1.785,1.197,3.327,1.197
		c0.77,0,1.664-0.109,2.676-0.326c1.012-0.219,2.176-0.578,3.494-1.076c1.062,1.096,1.721,2.58,1.978,4.451
		c-2.582,1.838-5.742,2.758-9.484,2.758c-2.032,0-3.736-0.322-5.106-0.967c-1.372-0.646-2.484-1.551-3.339-2.711
		c-0.857-1.162-1.462-2.533-1.817-4.113c-0.354-1.58-0.53-3.307-0.53-5.18c0-1.807,0.216-3.477,0.652-5.01
		c0.436-1.531,1.096-2.861,1.983-3.99c0.888-1.129,2.016-2.018,3.389-2.662c1.371-0.646,2.976-0.967,4.815-0.967
		c1.547,0,2.942,0.256,4.187,0.771c1.24,0.52,2.298,1.229,3.169,2.129c0.871,0.903,1.54,1.981,2.008,3.242
		c0.468,1.26,0.701,2.631,0.701,4.112C96.591,50.598,96.382,52.258,95.964,53.615z M83.331,48.389h6.34v-0.533
		c0-1.191-0.265-2.178-0.792-2.951c-0.529-0.773-1.32-1.16-2.376-1.16c-1.026,0-1.786,0.361-2.282,1.086
		C83.724,45.557,83.428,46.744,83.331,48.389z"/>
	<path fill="#FFFFFF" d="M111.641,48.678c0-2.162-0.726-3.242-2.178-3.242c-0.518,0-1.04,0.151-1.572,0.461
		c-0.531,0.307-1.07,0.701-1.621,1.186v16.165c-0.549,0.096-1.146,0.17-1.793,0.215c-0.643,0.049-1.307,0.074-1.982,0.074
		s-1.338-0.025-1.98-0.074c-0.646-0.045-1.244-0.119-1.792-0.215V39.098l0.338-0.34h2.811c2.062,0,3.418,1.018,4.062,3.049
		c2.291-2.096,4.519-3.146,6.68-3.146c2.613,0,4.5,1.113,5.66,3.341c2.519-2.228,4.904-3.341,7.164-3.341
		c2.258,0,3.943,0.701,5.058,2.105c1.112,1.4,1.67,3.266,1.67,5.588v10.84c0,2.101,0.403,3.695,1.211,4.791
		c-1.228,1.101-2.696,1.646-4.403,1.646c-1.681,0-2.824-0.387-3.437-1.16c-0.614-0.775-0.921-1.953-0.921-3.535V48.628
		c0-2.129-0.76-3.192-2.274-3.192c-0.937,0-1.967,0.563-3.096,1.694v16.114c-0.55,0.098-1.146,0.17-1.791,0.217
		c-0.646,0.049-1.31,0.07-1.984,0.07c-0.678,0-1.348-0.021-2.008-0.07c-0.663-0.047-1.267-0.121-1.815-0.217V48.678H111.641z"/>
</g>
</svg>
