<?xml version="1.0" encoding="utf-8"?>
<!-- Generator: Adobe Illustrator 16.0.4, SVG Export Plug-In . SVG Version: 6.00 Build 0)  -->
<!DOCTYPE svg PUBLIC "-//W3C//DTD SVG 1.1//EN" "http://www.w3.org/Graphics/SVG/1.1/DTD/svg11.dtd">
<svg version="1.1" id="Layer_1" xmlns="http://www.w3.org/2000/svg" xmlns:xlink="http://www.w3.org/1999/xlink" x="0px" y="0px"
	 width="200px" height="75px" viewBox="0 0 200 75" enable-background="new 0 0 200 75" xml:space="preserve">
<g>
	<path fill="#FFFFFF" d="M50.215,37.746H19.051c0.161,3.559,1.074,6.327,2.745,8.299c1.671,1.98,4.421,2.967,8.239,2.967
		c1.907,0,4.12-0.271,6.628-0.809c2.504-0.543,5.389-1.432,8.651-2.666c2.628,2.715,4.259,6.393,4.896,11.021
		c-6.392,4.553-14.219,6.83-23.485,6.83c-5.033,0-9.254-0.797-12.646-2.393c-3.396-1.604-6.151-3.838-8.268-6.713
		s-3.618-6.272-4.496-10.188C0.437,40.184,0,35.91,0,31.273c0-4.47,0.536-8.605,1.616-12.403c1.079-3.793,2.714-7.089,4.912-9.884
		c2.196-2.795,4.992-4.992,8.389-6.593C18.313,0.798,22.287,0,26.843,0c3.834,0,7.286,0.637,10.366,1.916
		c3.071,1.279,5.69,3.036,7.847,5.274c2.158,2.238,3.814,4.912,4.973,8.027c1.16,3.117,1.735,6.513,1.735,10.186
		C51.765,30.274,51.25,34.388,50.215,37.746z M18.931,24.805H34.63v-1.319c0-2.957-0.656-5.394-1.962-7.311
		c-1.309-1.917-3.271-2.875-5.885-2.875c-2.538,0-4.42,0.898-5.649,2.695C19.905,17.791,19.172,20.731,18.931,24.805z"/>
	<path fill="#FFFFFF" d="M79.688,47.333L90.113,1.915c2.238-0.482,4.753-0.722,7.552-0.722c3.433,0,6.428,0.481,8.985,1.44
		l0.599,0.837c-8.148,29.72-13.703,49.096-16.653,58.124c-4.075,0.479-8.375,0.717-12.886,0.717c-4.515,0-7.726-0.617-9.648-1.854
		c-1.916-1.24-3.396-3.61-4.43-7.129L49.252,3.23c3.913-1.675,7.384-2.513,10.42-2.513c3.037,0,5.394,0.657,7.075,1.977
		c1.677,1.319,2.915,3.578,3.714,6.769l5.393,22.413c0.396,1.514,1.274,6.353,2.634,14.5C78.569,47.014,78.97,47.333,79.688,47.333z
		"/>
	<path fill="#FFFFFF" d="M151.589,7.069c5.755,5.75,8.63,13.978,8.63,24.685c0,4.792-0.621,9.146-1.857,13.061
		c-1.236,3.92-3.037,7.25-5.394,10.012c-2.358,2.754-5.253,4.871-8.69,6.348c-3.432,1.479-7.391,2.217-11.859,2.217
		c-4.479,0-8.409-0.758-11.809-2.277c-3.396-1.516-6.271-3.651-8.625-6.405c-2.356-2.763-4.135-6.095-5.334-10.011
		c-1.195-3.915-1.795-8.224-1.795-12.941c0-4.791,0.6-9.126,1.795-13.004c1.201-3.874,2.957-7.206,5.274-10.005
		c2.313-2.795,5.193-4.952,8.625-6.472c3.437-1.516,7.39-2.273,11.866-2.273C140.324-0.001,146.717,2.352,151.589,7.069z
		 M132.479,14.018c-1.771,0-3.203,0.421-4.287,1.259c-1.088,0.838-1.949,1.977-2.594,3.417c-0.646,1.436-1.088,3.097-1.328,4.972
		c-0.242,1.876-0.359,3.895-0.359,6.051c0,3.354,0.101,6.252,0.302,8.688c0.199,2.438,0.603,4.475,1.208,6.115
		c0.604,1.635,1.443,2.854,2.534,3.651c1.084,0.8,2.514,1.199,4.284,1.199c3.535,0,5.871-1.539,6.998-4.615
		c1.125-3.069,1.69-7.446,1.69-13.12c0-5.75-0.565-10.125-1.69-13.121C138.107,15.518,135.854,14.018,132.479,14.018z"/>
	<path fill="#FFFFFF" d="M197.127,36.789h-33.792c-0.481-1.998-0.724-4.496-0.724-7.493c0-2.996,0.242-5.489,0.724-7.491h33.792
		c0.477,2.001,0.719,4.495,0.719,7.491S197.604,34.791,197.127,36.789z"/>
</g>
</svg>
