<?xml version="1.0" encoding="utf-8"?>
<!-- Generator: Adobe Illustrator 16.0.4, SVG Export Plug-In . SVG Version: 6.00 Build 0)  -->
<!DOCTYPE svg PUBLIC "-//W3C//DTD SVG 1.1//EN" "http://www.w3.org/Graphics/SVG/1.1/DTD/svg11.dtd">
<svg version="1.1" id="Layer_1" xmlns="http://www.w3.org/2000/svg" xmlns:xlink="http://www.w3.org/1999/xlink" x="0px" y="0px"
	 width="200px" height="75px" viewBox="0 0 200 75" enable-background="new 0 0 200 75" xml:space="preserve">
<g>
	<path fill="#FFFFFF" d="M20.278,15.244H7.693c0.064,1.437,0.434,2.555,1.108,3.351c0.674,0.802,1.786,1.199,3.327,1.199
		c0.77,0,1.664-0.109,2.677-0.326c1.01-0.221,2.176-0.579,3.492-1.077c1.062,1.097,1.721,2.582,1.979,4.452
		c-2.582,1.839-5.743,2.756-9.485,2.756c-2.032,0-3.737-0.321-5.106-0.966c-1.372-0.646-2.485-1.55-3.339-2.711
		s-1.46-2.532-1.814-4.112C0.176,16.229,0,14.503,0,12.63c0-1.805,0.217-3.475,0.653-5.009C1.089,6.089,1.749,4.758,2.637,3.63
		c0.887-1.128,2.016-2.017,3.387-2.663C7.396,0.323,9.001,0,10.841,0c1.548,0,2.941,0.258,4.186,0.774
		c1.24,0.517,2.297,1.226,3.169,2.13c0.871,0.903,1.54,1.983,2.008,3.241c0.468,1.259,0.7,2.63,0.7,4.114
		C20.903,12.227,20.695,13.888,20.278,15.244z M7.644,10.019h6.34V9.486c0-1.193-0.265-2.179-0.792-2.951
		c-0.529-0.776-1.321-1.162-2.377-1.162c-1.025,0-1.785,0.363-2.281,1.088C8.038,7.187,7.741,8.374,7.644,10.019z"/>
	<path fill="#FFFFFF" d="M32.18,19.116l4.21-18.34c0.904-0.194,1.918-0.292,3.049-0.292c1.386,0,2.596,0.193,3.629,0.582
		l0.241,0.337c-3.291,12.003-5.534,19.826-6.725,23.472c-1.645,0.195-3.382,0.291-5.203,0.291c-1.824,0-3.121-0.25-3.897-0.748
		c-0.773-0.501-1.371-1.46-1.789-2.881L19.888,1.308c1.58-0.677,2.982-1.016,4.208-1.016c1.226,0,2.178,0.266,2.857,0.798
		c0.677,0.532,1.178,1.445,1.5,2.734l2.178,9.051c0.16,0.612,0.515,2.564,1.064,5.854C31.727,18.987,31.89,19.116,32.18,19.116z"/>
	<path fill="#FFFFFF" d="M61.215,2.857c2.324,2.322,3.485,5.645,3.485,9.967c0,1.938-0.251,3.694-0.75,5.276
		c-0.501,1.583-1.228,2.927-2.179,4.042c-0.952,1.112-2.122,1.968-3.509,2.562c-1.386,0.598-2.984,0.895-4.79,0.895
		c-1.807,0-3.396-0.306-4.767-0.917c-1.371-0.611-2.533-1.476-3.483-2.589c-0.953-1.113-1.669-2.459-2.154-4.042
		c-0.484-1.58-0.726-3.321-0.726-5.227c0-1.934,0.241-3.685,0.726-5.25c0.485-1.565,1.194-2.909,2.129-4.041
		c0.934-1.129,2.097-2,3.483-2.613c1.388-0.613,2.985-0.918,4.792-0.918C56.666,0.001,59.247,0.952,61.215,2.857z M53.497,5.664
		c-0.716,0-1.293,0.169-1.731,0.508c-0.439,0.337-0.788,0.798-1.048,1.379c-0.261,0.58-0.439,1.25-0.537,2.008
		c-0.098,0.758-0.145,1.574-0.145,2.443c0,1.356,0.04,2.524,0.121,3.508c0.081,0.984,0.243,1.807,0.488,2.469
		c0.244,0.66,0.584,1.152,1.023,1.476c0.44,0.32,1.017,0.484,1.732,0.484c1.429,0,2.371-0.621,2.827-1.863
		c0.453-1.241,0.683-3.008,0.683-5.299c0-2.322-0.229-4.087-0.683-5.298C55.77,6.269,54.862,5.664,53.497,5.664z"/>
	<path fill="#FFFFFF" d="M79.605,14.857H65.958c-0.194-0.807-0.292-1.815-0.292-3.025c0-1.209,0.097-2.217,0.292-3.025h13.647
		c0.192,0.808,0.29,1.816,0.29,3.025C79.894,13.043,79.797,14.051,79.605,14.857z"/>
	<path fill="#FFFFFF" d="M20.278,53.615H7.693c0.064,1.436,0.434,2.553,1.108,3.352c0.674,0.801,1.786,1.197,3.327,1.197
		c0.77,0,1.664-0.107,2.677-0.326c1.01-0.219,2.176-0.578,3.492-1.074c1.062,1.096,1.721,2.58,1.979,4.449
		c-2.582,1.84-5.743,2.76-9.485,2.76c-2.032,0-3.737-0.322-5.106-0.969c-1.372-0.646-2.485-1.551-3.339-2.711
		c-0.854-1.162-1.46-2.533-1.814-4.111C0.176,54.6,0,52.875,0,51.002c0-1.807,0.217-3.477,0.653-5.01
		c0.436-1.531,1.096-2.863,1.984-3.99c0.887-1.129,2.016-2.018,3.387-2.664c1.372-0.645,2.977-0.965,4.817-0.965
		c1.548,0,2.941,0.256,4.186,0.771c1.24,0.518,2.297,1.227,3.169,2.129c0.871,0.902,1.54,1.98,2.008,3.244
		c0.468,1.258,0.7,2.629,0.7,4.109C20.903,50.598,20.695,52.26,20.278,53.615z M7.644,48.391h6.34v-0.535
		c0-1.19-0.265-2.176-0.792-2.951c-0.529-0.772-1.321-1.159-2.377-1.159c-1.025,0-1.785,0.362-2.281,1.088
		C8.038,45.557,7.741,46.744,7.644,48.391z"/>
	<path fill="#FFFFFF" d="M32.47,57.678h1.307c0.387,1.076,0.582,2.15,0.582,3.221c0,1.076-0.048,1.777-0.146,2.104
		c-1.935,0.322-3.661,0.484-5.177,0.484c-2.194,0-3.75-0.537-4.67-1.619c-0.92-1.078-1.38-2.781-1.38-5.104V27.966l0.29-0.34h2.953
		c1.517,0,2.581,0.34,3.195,1.016c0.611,0.676,0.919,1.852,0.919,3.528v23.242C30.342,56.924,31.051,57.678,32.47,57.678z"/>
	<path fill="#FFFFFF" d="M54.539,53.615H41.954c0.065,1.436,0.434,2.553,1.109,3.352c0.674,0.801,1.785,1.197,3.327,1.197
		c0.77,0,1.664-0.107,2.677-0.326c1.011-0.219,2.176-0.578,3.493-1.074c1.062,1.096,1.72,2.58,1.978,4.449
		c-2.582,1.84-5.743,2.76-9.485,2.76c-2.033,0-3.736-0.322-5.106-0.969c-1.372-0.646-2.484-1.551-3.339-2.711
		c-0.855-1.162-1.461-2.533-1.815-4.111c-0.354-1.58-0.531-3.307-0.531-5.18c0-1.807,0.217-3.477,0.653-5.01
		c0.436-1.531,1.096-2.863,1.984-3.99c0.888-1.129,2.016-2.018,3.387-2.664c1.372-0.645,2.976-0.965,4.816-0.965
		c1.549,0,2.942,0.256,4.187,0.771c1.24,0.518,2.297,1.227,3.168,2.129s1.541,1.98,2.008,3.244c0.468,1.258,0.702,2.629,0.702,4.109
		C55.165,50.598,54.956,52.26,54.539,53.615z M41.905,48.391h6.34v-0.535c0-1.19-0.265-2.176-0.792-2.951
		c-0.53-0.772-1.322-1.159-2.377-1.159c-1.025,0-1.785,0.362-2.281,1.088S42.003,46.744,41.905,48.391z"/>
	<path fill="#FFFFFF" d="M70.217,48.678c0-2.16-0.725-3.242-2.178-3.242c-0.516,0-1.04,0.151-1.572,0.461
		c-0.533,0.308-1.072,0.703-1.622,1.187v16.163c-0.548,0.1-1.145,0.172-1.791,0.217c-0.645,0.053-1.307,0.076-1.984,0.076
		c-0.677,0-1.339-0.023-1.984-0.076c-0.646-0.045-1.241-0.117-1.791-0.217V39.098l0.339-0.341h2.808c2.062,0,3.418,1.017,4.064,3.05
		c2.29-2.097,4.516-3.146,6.678-3.146c2.614,0,4.5,1.112,5.662,3.342c2.516-2.229,4.902-3.342,7.162-3.342
		c2.257,0,3.945,0.703,5.058,2.104c1.112,1.403,1.669,3.269,1.669,5.588v10.84c0,2.101,0.403,3.695,1.209,4.793
		c-1.226,1.099-2.695,1.646-4.403,1.646c-1.68,0-2.824-0.389-3.436-1.159c-0.614-0.772-0.92-1.951-0.92-3.531V48.63
		c0-2.131-0.757-3.194-2.275-3.194c-0.937,0-1.967,0.563-3.096,1.692v16.116c-0.549,0.1-1.147,0.172-1.791,0.217
		c-0.646,0.051-1.307,0.076-1.984,0.076c-0.677,0-1.348-0.025-2.008-0.076c-0.663-0.045-1.267-0.117-1.816-0.217V48.678H70.217z"/>
	<path fill="#FFFFFF" d="M112.758,53.615h-12.584c0.063,1.436,0.434,2.553,1.105,3.352c0.677,0.801,1.785,1.197,3.326,1.197
		c0.771,0,1.664-0.107,2.679-0.326c1.012-0.219,2.176-0.578,3.491-1.074c1.062,1.096,1.722,2.58,1.979,4.449
		c-2.58,1.84-5.738,2.76-9.48,2.76c-2.033,0-3.738-0.322-5.106-0.969c-1.372-0.646-2.484-1.551-3.339-2.711
		c-0.854-1.162-1.46-2.533-1.816-4.111c-0.354-1.582-0.53-3.307-0.53-5.18c0-1.807,0.216-3.477,0.652-5.01
		c0.436-1.531,1.097-2.863,1.983-3.99c0.888-1.129,2.017-2.018,3.388-2.664c1.373-0.645,2.978-0.965,4.815-0.965
		c1.549,0,2.943,0.256,4.188,0.771c1.238,0.518,2.299,1.227,3.168,2.129c0.873,0.902,1.541,1.98,2.01,3.244
		c0.469,1.258,0.701,2.629,0.701,4.109C113.385,50.598,113.176,52.26,112.758,53.615z M100.124,48.391h6.339v-0.535
		c0-1.19-0.266-2.176-0.793-2.951c-0.527-0.772-1.318-1.159-2.375-1.159c-1.025,0-1.785,0.362-2.281,1.088
		S100.221,46.744,100.124,48.391z"/>
	<path fill="#FFFFFF" d="M136.322,47.275v9.92c0,2.127,0.387,3.727,1.162,4.793c-1.229,1.098-2.693,1.645-4.404,1.645
		c-1.676,0-2.822-0.389-3.436-1.16s-0.92-1.953-0.92-3.533V48.63c0-1.099-0.146-1.903-0.438-2.42
		c-0.289-0.519-0.854-0.774-1.693-0.774c-0.481,0-1.03,0.129-1.645,0.39c-0.613,0.26-1.242,0.676-1.89,1.258v16.163
		c-0.55,0.1-1.146,0.172-1.791,0.217c-0.646,0.053-1.31,0.076-1.981,0.076c-0.679,0-1.341-0.023-1.984-0.076
		c-0.646-0.045-1.241-0.117-1.79-0.217V39.098l0.338-0.341h2.854c1.969,0,3.293,0.97,3.971,2.904c2.257-2,4.5-3.003,6.726-3.003
		c2.259,0,3.978,0.785,5.154,2.351C135.73,42.573,136.322,44.664,136.322,47.275z"/>
	<path fill="#FFFFFF" d="M153.646,39.046c0.191,0.896,0.289,1.791,0.289,2.688c0,0.895-0.096,1.771-0.289,2.637l-5.76-0.098v11.133
		c0,1.516,0.709,2.271,2.131,2.271h2.709c0.42,1.173,0.629,2.248,0.629,3.222c0,0.979-0.064,1.681-0.195,2.103
		c-2.387,0.322-4.582,0.485-6.582,0.485c-4.062,0-6.096-2.245-6.096-6.745V44.323l-3.773,0.048c-0.227-0.798-0.34-1.668-0.34-2.615
		c0-0.938,0.113-1.844,0.34-2.709l3.773,0.1v-2.809c0-1.645,0.312-2.814,0.941-3.507c0.631-0.694,1.688-1.041,3.172-1.041h2.951
		l0.338,0.34v7.017L153.646,39.046z"/>
	<path fill="#FFFFFF" d="M153.262,61.6c0.029-0.838,0.248-1.758,0.65-2.758s0.879-1.791,1.43-2.371
		c2.578,1.354,4.822,2.031,6.727,2.031c0.902,0,1.598-0.152,2.08-0.461c0.484-0.307,0.729-0.717,0.729-1.232
		c0-0.965-0.742-1.693-2.229-2.178l-2.66-1.016c-4.033-1.484-6.051-3.905-6.051-7.262c0-2.449,0.848-4.396,2.541-5.832
		c1.693-1.438,3.977-2.148,6.85-2.148c1.418,0,2.982,0.197,4.691,0.604c1.709,0.402,3.113,0.879,4.209,1.428
		c0.064,0.904-0.111,1.896-0.531,2.979c-0.42,1.08-0.938,1.848-1.549,2.301c-2.709-1.229-4.969-1.844-6.775-1.844
		c-0.646,0-1.139,0.146-1.477,0.438s-0.508,0.662-0.508,1.115c0,0.771,0.611,1.389,1.84,1.836l3,1.065
		c4.291,1.517,6.438,4.112,6.438,7.79c0,2.42-0.889,4.342-2.66,5.758c-1.771,1.424-4.311,2.133-7.598,2.133
		C159.115,63.973,156.066,63.18,153.262,61.6z"/>
</g>
</svg>
