<?xml version="1.0" encoding="utf-8"?>
<!-- Generator: Adobe Illustrator 16.0.4, SVG Export Plug-In . SVG Version: 6.00 Build 0)  -->
<!DOCTYPE svg PUBLIC "-//W3C//DTD SVG 1.1//EN" "http://www.w3.org/Graphics/SVG/1.1/DTD/svg11.dtd">
<svg version="1.1" id="Layer_1" xmlns="http://www.w3.org/2000/svg" xmlns:xlink="http://www.w3.org/1999/xlink" x="0px" y="0px"
	 width="200px" height="75px" viewBox="0 0 200 75" enable-background="new 0 0 200 75" xml:space="preserve">
<g>
	<path fill="#FFFFFF" d="M13.293,25.357c-1.479,0-2.959-0.338-4.438-1.017v6.437c0,1.678-0.306,2.854-0.917,3.532
		c-0.615,0.68-1.695,1.018-3.245,1.018H1.789l-0.338-0.338V0.725l0.338-0.337h1.984c1.839,0,3.211,0.79,4.115,2.371
		c1.831-1.84,4.066-2.758,6.705-2.758c1.352,0,2.541,0.297,3.57,0.894c1.028,0.597,1.905,1.444,2.628,2.541
		c0.723,1.098,1.271,2.421,1.642,3.969c0.369,1.548,0.553,3.291,0.553,5.226c0,1.938-0.25,3.696-0.748,5.276
		c-0.499,1.58-1.182,2.92-2.049,4.016c-0.867,1.098-1.889,1.945-3.062,2.541C15.953,25.058,14.674,25.357,13.293,25.357z
		 M12.388,6.049c-1.355,0-2.533,0.646-3.534,1.935v10.647c1.226,0.742,2.275,1.112,3.147,1.112c2.192,0,3.291-2.436,3.291-7.306
		C15.293,8.177,14.323,6.049,12.388,6.049z"/>
	<path fill="#FFFFFF" d="M24.872,16.695V6.773c0-2.095-0.387-3.708-1.162-4.838c1.194-1.064,2.646-1.597,4.357-1.597
		c1.71,0,2.872,0.386,3.483,1.162c0.614,0.773,0.92,1.954,0.92,3.533v10.259c0,1.13,0.13,1.953,0.387,2.467
		c0.26,0.517,0.937,0.774,2.032,0.774c1.066,0,2.146-0.548,3.244-1.646V0.725c1.063-0.193,2.306-0.289,3.727-0.289
		c1.418,0,2.691,0.095,3.822,0.289v17.23c0,1.74,0.451,2.919,1.354,3.531c-0.162,0.646-0.467,1.347-0.92,2.105
		c-0.452,0.758-0.917,1.315-1.401,1.67c-2.647-0.097-4.549-1.226-5.71-3.388c-2.549,2.291-4.954,3.437-7.211,3.437
		c-2.26,0-3.978-0.783-5.155-2.348C25.462,21.396,24.872,19.308,24.872,16.695z"/>
	<path fill="#FFFFFF" d="M47.669,4.21c0.16-0.646,0.466-1.363,0.917-2.154c0.452-0.79,0.904-1.363,1.356-1.718
		c2.968,0.225,5.033,1.694,6.194,4.403c1.225-2.904,3.242-4.354,6.049-4.354c0.84,0,1.903,0.128,3.194,0.387
		c0,1-0.17,2.187-0.509,3.556c-0.338,1.372-0.798,2.542-1.378,3.51c-0.549-0.194-1.372-0.354-2.467-0.484
		c-1.615,0-2.938,0.822-3.97,2.467v15.051c-1.063,0.194-2.315,0.29-3.75,0.29c-1.436,0-2.702-0.096-3.798-0.29V9.242
		C49.507,6.822,48.892,5.146,47.669,4.21z"/>
	<path fill="#FFFFFF" d="M84.689,15.244H72.105c0.065,1.436,0.434,2.554,1.108,3.352c0.675,0.8,1.786,1.197,3.327,1.197
		c0.771,0,1.664-0.109,2.677-0.326c1.011-0.22,2.176-0.578,3.493-1.077c1.062,1.096,1.72,2.582,1.978,4.451
		c-2.581,1.839-5.742,2.758-9.484,2.758c-2.033,0-3.737-0.322-5.106-0.967c-1.372-0.646-2.484-1.55-3.339-2.71
		c-0.855-1.161-1.461-2.533-1.815-4.114c-0.354-1.58-0.531-3.307-0.531-5.179c0-1.805,0.217-3.475,0.652-5.009
		c0.436-1.532,1.097-2.863,1.984-3.991c0.887-1.128,2.016-2.016,3.388-2.662C71.809,0.323,73.414,0,75.254,0
		c1.547,0,2.942,0.257,4.185,0.774c1.241,0.517,2.298,1.226,3.17,2.13c0.872,0.903,1.54,1.983,2.008,3.242
		c0.468,1.259,0.701,2.63,0.701,4.114C85.315,12.226,85.107,13.888,84.689,15.244z M72.055,10.018h6.34V9.484
		c0-1.192-0.265-2.178-0.792-2.951c-0.528-0.774-1.321-1.161-2.377-1.161c-1.024,0-1.785,0.363-2.281,1.087
		C72.449,7.185,72.153,8.373,72.055,10.018z"/>
	<path fill="#FFFFFF" d="M20.278,53.613H7.694c0.065,1.438,0.434,2.555,1.108,3.352c0.674,0.803,1.785,1.197,3.327,1.197
		c0.77,0,1.664-0.107,2.676-0.326c1.011-0.219,2.176-0.578,3.493-1.074c1.062,1.096,1.72,2.582,1.978,4.449
		c-2.581,1.838-5.742,2.76-9.484,2.76c-2.033,0-3.737-0.322-5.107-0.969c-1.372-0.645-2.484-1.549-3.338-2.711
		c-0.855-1.16-1.46-2.533-1.816-4.111C0.177,54.6,0,52.871,0,51c0-1.807,0.216-3.475,0.652-5.009
		c0.435-1.531,1.097-2.861,1.984-3.99c0.887-1.129,2.016-2.017,3.388-2.662c1.371-0.646,2.977-0.967,4.815-0.967
		c1.548,0,2.943,0.256,4.187,0.772c1.24,0.519,2.297,1.228,3.168,2.131c0.872,0.902,1.541,1.982,2.008,3.24
		c0.468,1.26,0.701,2.631,0.701,4.113C20.904,50.596,20.696,52.258,20.278,53.613z M7.646,48.389h6.34v-0.535
		c0-1.192-0.266-2.178-0.793-2.951c-0.529-0.774-1.32-1.161-2.376-1.161c-1.026,0-1.785,0.362-2.282,1.088
		S7.742,46.743,7.646,48.389z"/>
	<path fill="#FFFFFF" d="M32.181,57.484l4.21-18.34c0.903-0.194,1.919-0.293,3.049-0.293c1.386,0,2.596,0.193,3.628,0.582
		l0.241,0.34c-3.29,12-5.534,19.826-6.724,23.471c-1.646,0.193-3.382,0.289-5.204,0.289c-1.823,0-3.12-0.25-3.896-0.75
		c-0.773-0.5-1.372-1.457-1.789-2.879l-5.807-20.23c1.58-0.676,2.982-1.014,4.208-1.014s2.179,0.264,2.856,0.797
		c0.677,0.533,1.178,1.445,1.5,2.732l2.178,9.052c0.16,0.61,0.515,2.565,1.063,5.854C31.728,57.355,31.89,57.484,32.181,57.484z"/>
	<path fill="#FFFFFF" d="M61.215,41.225c2.324,2.322,3.485,5.646,3.485,9.969c0,1.934-0.251,3.692-0.75,5.274
		c-0.501,1.58-1.228,2.929-2.178,4.041c-0.953,1.111-2.122,1.968-3.509,2.562c-1.387,0.599-2.985,0.896-4.791,0.896
		c-1.807,0-3.397-0.309-4.768-0.922c-1.371-0.611-2.533-1.477-3.482-2.588c-0.953-1.113-1.67-2.459-2.155-4.043
		c-0.484-1.58-0.725-3.32-0.725-5.225c0-1.936,0.241-3.688,0.725-5.252c0.485-1.563,1.194-2.91,2.13-4.041
		c0.935-1.129,2.097-2,3.483-2.614c1.388-0.611,2.985-0.916,4.792-0.916C56.667,38.37,59.249,39.32,61.215,41.225z M53.498,44.031
		c-0.715,0-1.292,0.171-1.73,0.509c-0.439,0.338-0.788,0.799-1.047,1.379c-0.262,0.58-0.44,1.25-0.537,2.011
		c-0.097,0.758-0.146,1.569-0.146,2.442c0,1.354,0.04,2.524,0.122,3.505c0.081,0.986,0.243,1.811,0.488,2.473
		c0.243,0.658,0.584,1.152,1.024,1.476c0.438,0.321,1.015,0.483,1.73,0.483c1.429,0,2.371-0.621,2.827-1.863
		c0.454-1.239,0.683-3.008,0.683-5.299c0-2.322-0.229-4.088-0.683-5.297C55.772,44.637,54.861,44.031,53.498,44.031z"/>
	<path fill="#FFFFFF" d="M79.606,53.227H65.96c-0.195-0.807-0.293-1.815-0.293-3.024s0.098-2.218,0.293-3.024h13.646
		c0.192,0.809,0.289,1.815,0.289,3.024C79.895,51.41,79.798,52.42,79.606,53.227z"/>
</g>
</svg>
