<?xml version="1.0" standalone="no"?>
<!DOCTYPE svg PUBLIC "-//W3C//DTD SVG 1.1//EN" "http://www.w3.org/Graphics/SVG/1.1/DTD/svg11.dtd" >
<svg xmlns="http://www.w3.org/2000/svg" xmlns:xlink="http://www.w3.org/1999/xlink" version="1.1">
<metadata></metadata>
<defs>
<font id="didonesquedisplay" horiz-adv-x="1030" >
<font-face units-per-em="2048" ascent="1638" descent="-410" />
<missing-glyph horiz-adv-x="471" />
<glyph unicode="&#xfb01;" horiz-adv-x="1122" d="M940 16h154v-16h-504v16h153v992h-364v-992h153v-16h-503v16h153v992h-153v16h153v131q0 71 13.5 135t41 120t77 89t114.5 33q71 0 119.5 -37t48.5 -109q0 -50 -25.5 -85t-70.5 -35q-38 0 -62 25.5t-24 68.5q0 21 9.5 38.5t21 27t21 20.5t9.5 22q0 48 -67 48 q-55 0 -89 -39.5t-34 -114.5q0 -46 14.5 -84t32.5 -60t32.5 -59t14.5 -82v-53h463q65 0 98 16v-1024zM842 1266q-50 0 -83.5 36t-33.5 91t33.5 91t83.5 36t83 -36t33 -91t-33 -91t-83 -36z" />
<glyph unicode="&#xfb02;" horiz-adv-x="1122" d="M940 16h154v-16h-504v16h153v1368h-147q0 -50 -25.5 -84t-70.5 -34q-38 0 -62 25.5t-24 68.5q0 21 9.5 38.5t21 27t21 20.5t9.5 22q0 48 -67 48q-55 0 -89 -39.5t-34 -114.5q0 -46 14.5 -84t32.5 -60t32.5 -59t14.5 -82v-53h153v-16h-153v-992h153v-16h-503v16h153v992 h-153v16h153v131q0 71 13.5 135t41 120t77 89t114.5 33q67 0 114.5 -33t53.5 -98h147q148 0 197 115v-1500z" />
<glyph horiz-adv-x="0" />
<glyph horiz-adv-x="682" />
<glyph unicode=" "  horiz-adv-x="471" />
<glyph unicode="&#x09;" horiz-adv-x="471" />
<glyph unicode="&#xa0;" horiz-adv-x="471" />
<glyph unicode="!" horiz-adv-x="524" d="M262 1540q-60 0 -87.5 -58t-27.5 -184q0 -112 15 -208.5t34 -165t37 -217.5t23 -349h12q2 165 13.5 291.5t27.5 201t31.5 138t26 140t10.5 169.5q0 126 -27.5 184t-87.5 58zM262 -16q-52 0 -89.5 38.5t-37.5 94.5t37.5 94.5t89.5 38.5t89.5 -38.5t37.5 -94.5t-37.5 -94.5 t-89.5 -38.5z" />
<glyph unicode="&#x22;" horiz-adv-x="495" d="M133 1534q-63 0 -63 -100q0 -73 12 -123.5t25 -126t16 -205.5h20q3 130 16.5 205.5t25.5 126t12 123.5q0 100 -64 100zM362 1534q-63 0 -63 -100q0 -73 12 -123.5t25 -126t16 -205.5h21q3 130 16 205.5t25 126t12 123.5q0 100 -64 100z" />
<glyph unicode="#" horiz-adv-x="966" d="M862 1004h-151l-78 -555h151l-2 -21h-151l-60 -428h-18l59 428h-338l-59 -428h-18l59 428h-154l2 21h154l76 555h-152l2 20h154l55 410h21l-58 -410h338l58 410h18l-57 -410h151zM614 449l78 555h-338l-78 -555h338z" />
<glyph unicode="$" horiz-adv-x="1003" d="M930 416q0 -164 -94 -282t-265 -154v-99h-20v96q-58 -10 -115 -10h-2v-86h-20v86q-172 6 -256 81.5t-84 178.5q0 72 38.5 112t92.5 40q55 0 90 -42t35 -106q0 -31 -7.5 -54.5t-25.5 -42.5t-30.5 -29t-37.5 -27q-38 -25 13 -54q59 -33 172 -40v686q-143 69 -193 107 q-101 76 -121 197q-6 36 -6 79q0 163 82.5 268.5t237.5 134.5v96h20v-92q43 6 92 6h25v86h20v-88q153 -10 228 -83t75 -171q0 -69 -36 -107t-84 -38q-50 0 -82.5 39t-32.5 104q0 54 20 86t58 64q40 36 -23 64q-47 20 -123 26v-555q53 -26 93 -49.5t93.5 -67.5t88 -91 t59.5 -118t25 -151zM526 1450q-53 0 -92 -8v-481q56 -31 115 -58h2v547h-25zM244 1202q0 -82 37.5 -130.5t132.5 -100.5v465q-170 -47 -170 -234zM449 -16q50 0 102 10v606q-93 48 -117 59v-675h15zM571 -2q107 30 154 106.5t47 178.5q0 105 -48.5 174t-152.5 131v-590z" />
<glyph unicode="%" horiz-adv-x="1228" d="M893 1466h22l-571 -1499h-25l545 1422q-49 -45 -126.5 -61.5t-150 -7.5t-126.5 36q61 -94 61 -279q0 -108 -21 -185.5t-57 -117.5t-75 -57t-84 -17t-84 17t-75.5 57t-57.5 117.5t-21 185.5t21 185t57.5 116t75.5 55.5t84 16.5q91 0 149 -61q31 -28 96 -44.5t136.5 -14.5 t136.5 36.5t90 99.5zM285 711q59 0 73.5 71.5t14.5 294.5q0 222 -14.5 292.5t-73.5 70.5t-73.5 -70.5t-14.5 -292.5q0 -223 14.5 -294.5t73.5 -71.5zM944 733q45 0 84 -16.5t75.5 -55.5t57.5 -116t21 -185t-21 -185.5t-57.5 -117t-75.5 -56.5t-84 -17q-35 0 -66.5 9.5 t-63.5 36t-55 67t-37.5 108.5t-14.5 155t14.5 154.5t37.5 108t55 66t63.5 35t66.5 9.5zM944 -6q59 0 73.5 72t14.5 294t-14.5 292.5t-73.5 70.5t-73.5 -70.5t-14.5 -292.5t14.5 -294t73.5 -72z" />
<glyph unicode="&#x26;" horiz-adv-x="1361" d="M1247 430h13q0 -89 -13.5 -166t-41.5 -141.5t-77.5 -101.5t-115.5 -37q-126 0 -264 170q-35 -86 -98 -136.5t-171 -50.5q-104 0 -193.5 44t-146.5 131.5t-57 199.5q0 83 27.5 151t86 122t95.5 80.5t108 68.5q9 5 13 8q-72 191 -72 332q0 160 78.5 261t216.5 101 q52 0 97.5 -13.5t84.5 -41t61.5 -76.5t22.5 -114q0 -69 -34.5 -126.5t-96.5 -107t-178 -121.5q59 -134 84 -186q54 -116 115 -225q12 226 94.5 352.5t197.5 126.5q73 0 119.5 -49.5t46.5 -126.5q0 -63 -32 -107.5t-91 -44.5q-55 0 -92 35t-37 102q0 55 27.5 91.5t73.5 52.5 q30 9 30 19q0 12 -45 12q-121 0 -195.5 -140.5t-82.5 -349.5q155 -272 278 -272q84 0 124 77.5t40 196.5zM608 1450q-66 0 -94.5 -46.5t-28.5 -143.5q0 -137 101 -379q36 21 61.5 42.5t54 57.5t43.5 88t15 117q0 136 -38 200t-114 64zM518 -12q74 0 132 53t83 129 q-88 115 -203 344q-72 143 -112 246q-53 -43 -91.5 -136.5t-37.5 -217.5q1 -107 28 -201t80 -155.5t121 -61.5z" />
<glyph unicode="'" horiz-adv-x="266" d="M133 1534q-63 0 -63 -100q0 -73 12 -123.5t25 -126t16 -205.5h20q3 130 16.5 205.5t25.5 126t12 123.5q0 100 -64 100z" />
<glyph unicode="(" horiz-adv-x="577" d="M451 1788q-163 -217 -243.5 -505t-80.5 -568q0 -180 31.5 -362t106.5 -372t186 -337v26q-73 194 -108.5 486t-35.5 559t35.5 559.5t108.5 486.5v27z" />
<glyph unicode=")" horiz-adv-x="577" d="M127 -356q163 217 243.5 505t80.5 568q0 180 -31.5 362t-106.5 372t-186 337v-27q73 -194 108 -485t35 -559q0 -269 -35 -561t-108 -486v-26z" />
<glyph unicode="*" horiz-adv-x="741" d="M621 1192q29 -8 41.5 -35t5.5 -67q-8 -38 -28.5 -55.5t-51.5 -10.5q-21 5 -37.5 17t-30 28t-30 32.5t-45 33.5t-66.5 28q24 -48 50 -81.5t44 -47t36.5 -34t29.5 -46.5q28 -67 -35 -108q-30 -18 -55 -8.5t-39 41.5q-19 50 -15 75t1 81t-25 120q-28 -82 -25.5 -164 t-13.5 -112q-12 -31 -37.5 -40.5t-56.5 7.5t-40.5 46.5t5.5 61.5q10 21 24 37t29 29t31.5 28.5t36.5 44t38 68.5q-45 -15 -78.5 -37.5t-48 -40.5t-35.5 -35t-46 -24q-31 -8 -53.5 10t-26.5 56q-10 87 47 102q30 8 65 -2.5t67.5 -20t104.5 4.5q-47 41 -89.5 55.5t-75 21 t-56.5 29.5q-24 22 -25.5 53t21.5 64q45 63 96 18q20 -17 32.5 -43.5t19.5 -51.5t28.5 -62.5t57.5 -73.5v2q-4 69 -22 117.5t-33 81.5t-15 69q0 35 20 56.5t54 21.5t53.5 -21.5t19.5 -56.5q0 -29 -10 -56.5t-22 -49.5t-23 -64.5t-12 -97.5q44 47 65 91.5t33.5 79t36.5 58.5 q23 23 49.5 18t46.5 -36q22 -32 20.5 -63.5t-24.5 -53.5t-55.5 -28t-75 -20.5t-90.5 -57.5q72 -12 104.5 -3.5t68 18.5t65.5 3z" />
<glyph unicode="+" horiz-adv-x="522" d="M481 727v-20h-209v-242h-22v242h-209v20h209v242h22v-242h209z" />
<glyph unicode="," horiz-adv-x="366" d="M305 57q0 -201 -207 -245l-4 10q172 50 172 217h-10q-24 -53 -88 -53q-49 0 -78 35t-29 92t33 91t86 34q66 0 95.5 -51t29.5 -130z" />
<glyph unicode="-" horiz-adv-x="489" d="M70 543h350v-21h-350v21z" />
<glyph unicode="." horiz-adv-x="364" d="M182 -16q-48 0 -84.5 37t-36.5 90t36.5 90t84.5 37t84.5 -37t36.5 -90t-36.5 -90t-84.5 -37z" />
<glyph unicode="/" horiz-adv-x="552" d="M502 1546l20 -8l-471 -1612l-20 8z" />
<glyph unicode="0" horiz-adv-x="1009" d="M506 -33q-78 0 -143 24.5t-120 80.5t-93 142t-59 213t-21 290q0 202 32 349.5t91.5 233.5t136.5 126t176 40q98 0 175 -40t136 -126t91 -233.5t32 -349.5t-32 -349.5t-91 -233.5t-136 -126.5t-175 -40.5zM506 -20q125 0 168 164.5t43 572.5t-43 572.5t-168 164.5 q-126 0 -169.5 -164.5t-43.5 -572.5t43.5 -572.5t169.5 -164.5z" />
<glyph unicode="1" horiz-adv-x="684" d="M438 16h160v-16h-512v16h160v1104q0 73 -24 101t-83 28h-53v8q120 35 195 81t149 128h8v-1450z" />
<glyph unicode="2" horiz-adv-x="942" d="M866 393h13q0 -216 -62 -321t-221 -105q-62 0 -130 16.5t-115 36t-95 36t-76 16.5q-71 0 -90 -72h-16q-10 73 -10.5 134.5t8.5 110t23.5 87t37.5 71.5t47 57.5t56 49.5q27 22 80 57.5t88 60t79 70.5t70.5 95t45.5 126.5t19 172.5q0 181 -51 269.5t-145 88.5 q-113 0 -199 -69.5t-86 -182.5q0 -21 7 -20q4 0 31 23q39 31 71 32q60 0 93.5 -41.5t33.5 -106.5q0 -71 -33 -108t-88 -37q-67 0 -107.5 54t-40.5 145q0 155 92.5 241t247.5 86q77 0 142.5 -20.5t121 -65t87.5 -124t32 -187.5q0 -66 -15 -123.5t-38 -100.5t-60 -82.5 t-73 -66t-85.5 -55t-87 -46.5t-89 -42.5t-82.5 -40.5q-52 -28 -92 -64.5t-73.5 -92t-46 -136.5t0.5 -182h4q14 97 70.5 137t161.5 45q79 3 186.5 -26t179.5 -29q96 0 137 50t41 179z" />
<glyph unicode="3" horiz-adv-x="946" d="M414 -16q122 0 180.5 104t58.5 281q0 201 -75.5 309t-221.5 108v21q141 0 203 77.5t62 262.5q0 155 -43.5 229t-141.5 74q-99 0 -178.5 -63.5t-79.5 -165.5q0 -14 2.5 -17.5t6 -0.5t12.5 12q5 6 9 9.5t11 10t13.5 10.5t15 8.5t18 6.5t19.5 2q46 0 79 -39.5t33 -100.5 q0 -56 -31 -91.5t-83 -35.5q-64 0 -98.5 52t-34.5 129q0 138 85 214t236 76q157 0 250.5 -82t93.5 -237q0 -76 -23 -138t-61 -102.5t-82 -65t-92 -34.5v-4q151 -23 238.5 -137.5t87.5 -270.5q0 -193 -131.5 -310.5t-325.5 -117.5q-92 0 -163 28t-113 76.5t-63 109.5t-21 132 q0 90 36 144.5t99 54.5q55 0 93 -41t38 -109q0 -61 -32 -103t-87 -42q-49 0 -93 45q-13 14 -16 8q-2 -5 -2 -28q0 -44 21 -89t58.5 -83t98.5 -62t134 -24z" />
<glyph unicode="4" horiz-adv-x="968" d="M881 408h-172v-392h153v-16h-512v16h154v392h-473v10l461 1016h217v-1006h79q57 0 72.5 26.5t33.5 138.5q1 6 1 9h12zM59 428h445v987z" />
<glyph unicode="5" horiz-adv-x="940" d="M463 905q79 0 150.5 -25.5t129.5 -76t92.5 -135t34.5 -193.5q0 -100 -29.5 -190t-84.5 -162t-143.5 -114t-198.5 -42q-169 0 -258.5 97t-89.5 245q0 84 34.5 142.5t102.5 58.5q58 0 93.5 -44.5t35.5 -107.5q0 -58 -31.5 -100.5t-89.5 -42.5q-20 0 -39 7.5t-28.5 14 t-22.5 17.5q-13 13 -19 12t-6 -24q0 -41 19 -84.5t54.5 -83t96.5 -65t135 -25.5q68 0 115.5 33t74.5 99t38.5 152t11.5 203q0 64 -2.5 112t-9.5 98t-21 85t-35 64t-53 43t-74 14q-100 0 -180 -43.5t-123 -93.5l-22 10l90 674h551l4 49h12l-16 -170q-6 -53 -40.5 -68.5 t-129.5 -15.5h-389l-60 -445l7 -2q130 123 313 123z" />
<glyph unicode="6" horiz-adv-x="948" d="M522 905q171 0 264 -107.5t93 -324.5q0 -107 -24.5 -194.5t-64.5 -144.5t-93.5 -95.5t-110 -55t-115.5 -16.5q-64 0 -121 21.5t-109 72t-89.5 126.5t-59.5 192.5t-22 263.5q0 179 27 327t80.5 260t141 174t201.5 62q70 0 121 -22.5t76.5 -59t37 -71.5t11.5 -70 q0 -62 -34 -96.5t-81 -34.5q-50 0 -84.5 36t-34.5 91q0 39 19 69t49 44q14 7 34.5 12t30 10t9.5 15q0 23 -45.5 43t-96.5 20q-48 0 -85 -21.5t-61.5 -57t-41 -89t-25.5 -109t-13.5 -125t-5.5 -130t-1 -130.5v-47h8q31 86 77 124t138 38zM471 -20q67 0 107.5 40t62 142 t21.5 280q0 246 -39 344.5t-131 98.5q-98 0 -147.5 -100t-49.5 -316q0 -125 8 -211t27 -151t54 -96t87 -31z" />
<glyph unicode="7" horiz-adv-x="835" d="M797 1434q0 -93 -11.5 -165.5t-37 -132.5t-49 -101t-67 -109t-71.5 -119q-87 -158 -109 -340t7 -467h-219q-9 99 -9 186t8 160t24.5 139t38.5 121t54 109t66.5 100t79.5 96q16 18 57.5 64t55.5 63t44.5 54.5t43 58.5t30 53t25.5 61t12 60h-8q-6 -34 -20.5 -57.5t-30 -35 t-42 -18t-43.5 -7.5t-46 -1q-56 0 -185 28t-174 28q-79 0 -120 -47t-50 -158h-12l33 377h12l-6 -68q64 100 225 100q69 0 150 -26t148.5 -52t103.5 -26q73 0 79 72h13z" />
<glyph unicode="8" horiz-adv-x="946" d="M596 856q86 -49 145.5 -103.5t89 -111.5t41 -108.5t11.5 -110.5q0 -94 -25.5 -171.5t-67 -129t-97.5 -87t-115 -51.5t-121 -16q-69 0 -136 21t-126 62.5t-95.5 113.5t-36.5 164q0 62 19.5 115.5t61 103.5t88 90t118.5 94q-223 125 -223 348q0 93 30.5 168.5t82 122 t114.5 71.5t131 25q144 0 230 -82.5t86 -212.5q0 -45 -15 -88t-33.5 -72.5t-51 -62.5t-50 -47.5t-46.5 -37.5q-6 -5 -9 -7zM465 1454q-91 0 -134.5 -65.5t-43.5 -169.5q0 -107 62 -181.5t235 -175.5q59 64 59 277q0 172 -39.5 243.5t-138.5 71.5zM471 -20q112 0 178 73.5 t66 227.5q0 99 -36 171.5t-108 132t-209 138.5q-114 -87 -114 -363q0 -110 17.5 -187t49.5 -118t69.5 -58t86.5 -17z" />
<glyph unicode="9" horiz-adv-x="948" d="M442 528q-42 0 -89.5 14.5t-98.5 49.5t-91.5 85.5t-66.5 129.5t-26 174q0 120 35.5 215t94.5 152.5t130.5 87.5t148.5 30q65 0 121 -20.5t108 -71t89.5 -128.5t59.5 -200t22 -278q0 -371 -122.5 -586t-346.5 -215q-60 0 -109 16.5t-79 42t-50.5 58t-28.5 63t-8 58.5 q0 60 35 94.5t82 34.5q48 0 82.5 -35t34.5 -98q0 -84 -64 -111q-13 -5 -29.5 -8t-26.5 -4t-17 -5t-7 -12q0 -27 54 -53t124 -26q50 0 89 18t65.5 47.5t45 84t29.5 109t16.5 143t7 166t1.5 195.5h-6q-7 -39 -22 -75t-39.5 -69t-62.5 -53t-85 -20zM461 1454q-56 0 -92 -34.5 t-59 -132t-23 -263.5q0 -91 1.5 -150.5t7 -119t16 -94t27.5 -62.5t42.5 -39.5t60.5 -11.5q217 0 217 463q0 101 -9.5 177.5t-31 139t-61 95t-96.5 32.5z" />
<glyph unicode=":" horiz-adv-x="512" d="M256 621q-48 0 -84.5 37t-36.5 90t36.5 89.5t84.5 36.5t84.5 -36.5t36.5 -89.5t-36.5 -90t-84.5 -37zM256 -16q-48 0 -84.5 37t-36.5 90t36.5 90t84.5 37t84.5 -37t36.5 -90t-36.5 -90t-84.5 -37z" />
<glyph unicode=";" horiz-adv-x="514" d="M256 621q-48 0 -84.5 37t-36.5 90t36.5 89.5t84.5 36.5t84.5 -36.5t36.5 -89.5t-36.5 -90t-84.5 -37zM379 57q0 -201 -207 -245l-4 10q172 50 172 217h-10q-24 -53 -88 -53q-49 0 -78 35t-29 92t33 91t86 34q66 0 95.5 -51t29.5 -130z" />
<glyph unicode="&#x3c;" horiz-adv-x="434" d="M393 948v-24l-327 -207l327 -209v-25l-354 228v10z" />
<glyph unicode="=" horiz-adv-x="520" d="M41 825h438v-20h-438v20zM41 629h438v-21h-438v21z" />
<glyph unicode="&#x3e;" horiz-adv-x="436" d="M41 948l354 -227v-10l-354 -228v25l328 209l-328 207v24z" />
<glyph unicode="?" horiz-adv-x="825" d="M373 358h-21q-28 163 31 291q44 93 70 158t50.5 178t24.5 229q0 86 -11.5 145t-34.5 91t-52 45.5t-70 13.5q-100 0 -172.5 -64.5t-72.5 -154.5q0 -10 2 -10q1 0 8 9q41 57 98 57t94 -44.5t37 -119.5q0 -74 -41 -118t-104 -44q-65 0 -102 52.5t-37 141.5q0 62 18 117 t55.5 102t105 75t157.5 28q169 0 259.5 -97.5t90.5 -264.5q0 -81 -25 -150t-66 -121t-83.5 -95t-89.5 -92t-72 -91q-23 -38 -36 -76.5t-14.5 -78.5t-1 -58t4.5 -54zM375 -16q-52 0 -89.5 38.5t-37.5 94.5t37.5 94.5t89.5 38.5t89.5 -38.5t37.5 -94.5t-37.5 -94.5 t-89.5 -38.5z" />
<glyph unicode="@" horiz-adv-x="1753" d="M938 1466q154 0 290.5 -64t237 -178.5t159 -282.5t58.5 -366q0 -287 -115.5 -447.5t-299.5 -160.5q-114 0 -169.5 63t-64.5 183h-6q-14 -41 -34 -77t-54 -77.5t-87 -66.5t-118 -25q-81 0 -152 39t-121.5 114t-68.5 184.5t8 250.5q20 105 60.5 191t91 142.5t111 95.5 t119 56t116.5 17q55 0 98 -17t69.5 -46t42 -57t24.5 -60h4l26 147h70q52 0 129 16l-156 -866q-14 -94 5.5 -139t86.5 -45q46 0 93.5 18.5t96 63t86 109.5t61.5 167t24 227q0 196 -57.5 361.5t-155.5 276t-229.5 172t-278.5 61.5q-98 0 -196.5 -27t-193 -78.5t-177 -133.5 t-144.5 -185t-97.5 -240.5t-35.5 -292.5q0 -200 58.5 -369t160.5 -284.5t241 -180.5t298 -65q133 0 238.5 44t166.5 118l15 -16q-56 -71 -166 -118.5t-256 -47.5q-167 0 -311.5 68t-247.5 188t-162 291.5t-59 371.5q0 186 51.5 347t138 274.5t199 195.5t234.5 121t245 39z M743 -16q108 0 185.5 90.5t101.5 212.5l90 501q4 21 -0.5 51.5t-19.5 65.5t-38.5 65t-62.5 50t-86 20q-39 0 -72 -13.5t-66.5 -48.5t-61 -91.5t-52.5 -147t-43 -211.5q-32 -196 -21.5 -316.5t47 -174t99.5 -53.5z" />
<glyph unicode="A" horiz-adv-x="1146" d="M1006 16h131v-16h-492v16h135l-133 467h-373l-137 -467h172v-16h-299v16h103l422 1446h38zM279 504h362l-178 626z" />
<glyph unicode="B" horiz-adv-x="1112" d="M723 778q28 0 64.5 -9t84 -35.5t86 -66t65 -109t26.5 -157.5q0 -87 -26 -158.5t-80.5 -129t-147.5 -89.5t-217 -32q-38 0 -119.5 4t-130.5 4h-289v16h162v1401h-162v17h289q48 0 132 4t120 4q201 0 303 -87.5t102 -242.5q0 -71 -19.5 -129.5t-49.5 -94.5t-66.5 -61 t-68.5 -35t-58 -10v-4zM537 1425q-37 0 -131 -4v-643h155q58 0 97.5 13.5t69 48t43 96t13.5 154.5q0 184 -59.5 259.5t-187.5 75.5zM535 8q114 0 174.5 33.5t86 113t25.5 230.5q0 216 -57.5 294.5t-220.5 78.5h-137v-746q94 -4 129 -4z" />
<glyph unicode="C" horiz-adv-x="1155" d="M645 -33q-118 0 -223 53t-183 148t-123.5 235.5t-45.5 305.5t45.5 307.5t123 240.5t182.5 153.5t222 55.5q60 0 113 -15.5t83 -34.5t61.5 -34.5t53.5 -15.5q26 0 40 16t20 52h12v-410h-12q-12 195 -111.5 309.5t-245.5 114.5q-358 0 -358 -715q0 -741 373 -741 q165 0 272 137t107 383h20q0 -255 -114.5 -400t-311.5 -145z" />
<glyph unicode="D" horiz-adv-x="1290" d="M582 1442q313 0 476 -174t163 -543q0 -131 -21 -240t-69 -201.5t-121.5 -156.5t-182.5 -99.5t-249 -35.5q-37 0 -119.5 4t-130.5 4h-289v16h162v1401h-162v17h289q48 0 132 4t122 4zM547 8q68 0 118 6.5t98.5 24.5t82.5 50t63 83.5t46 124t26.5 172t9.5 227.5 q0 137 -11 244t-29.5 183.5t-49.5 131t-65 87.5t-82.5 51.5t-95 25t-109.5 6.5q-49 0 -143 -4v-1409q94 -4 141 -4z" />
<glyph unicode="E" horiz-adv-x="1107" d="M1026 492h12v-492h-999v16h162v1401h-162v17h952v-357h-12q-3 45 -5.5 73t-11 68t-21.5 65t-37 53t-56 44t-80 26.5t-109 10.5h-253v-669h186q26 0 47 10t35.5 24t26.5 41.5t19 48t14 59.5t10 61t8 65h12v-641h-12q-5 41 -7 57t-8 54t-11 54.5t-14 45.5t-19.5 42.5 t-25 29t-33.5 22t-42 6.5h-186v-711h299q59 0 107 15t80 39t56 63t38 76.5t22.5 90.5t12 94.5t5.5 97.5z" />
<glyph unicode="F" horiz-adv-x="1042" d="M973 1434v-357h-12q-1 39 -4 69t-11 67.5t-21 64.5t-35.5 54.5t-53.5 45t-76 28.5t-101 11h-253v-696h204q34 0 58 16t37.5 41t22.5 63.5t12.5 75t7.5 83.5q1 20 2 30h12v-641h-12q-12 149 -22 192q-27 113 -108 119h-10h-204v-684h212v-16h-579v16h162v1401h-162v17h934 z" />
<glyph unicode="G" horiz-adv-x="1284" d="M1243 594v-16h-94v-523h-21q-21 82 -69 82q-24 0 -65.5 -26.5t-84.5 -58.5t-114 -58.5t-146 -26.5q-114 0 -218.5 53.5t-184.5 148t-128 235.5t-48 305q0 165 48 307.5t130.5 240.5t194 153.5t235.5 55.5q65 0 120 -16t84.5 -35t59.5 -35t51 -16q48 0 62 70h16v-410h-12 q-17 199 -117 311.5t-256 112.5q-186 0 -286.5 -174.5t-100.5 -540.5q0 -378 95.5 -560.5t269.5 -182.5q150 0 236 141t87 447h-205v16h461z" />
<glyph unicode="H" horiz-adv-x="1368" d="M1329 1417h-162v-1401h162v-16h-510v16h144v707h-557v-707h143v-16h-510v16h162v1401h-162v17h510v-17h-143v-674h557v674h-144v17h510v-17z" />
<glyph unicode="I" horiz-adv-x="606" d="M39 1434h528v-17h-161v-1401h161v-16h-528v16h162v1401h-162v17z" />
<glyph unicode="J" horiz-adv-x="827" d="M260 1417v17h528v-17h-161v-897q0 -553 -326 -553q-111 0 -186.5 61.5t-75.5 170.5q0 71 32.5 108t78.5 37q43 0 73.5 -29.5t30.5 -78.5q0 -29 -13.5 -50t-29.5 -31.5t-29.5 -29t-13.5 -43.5q0 -39 33 -68.5t92 -29.5q75 0 106 39q23 26 23 92v1302h-162z" />
<glyph unicode="K" horiz-adv-x="1310" d="M1169 16h103v-16h-459v16h111l-422 732l-96 -117v-615h161v-16h-528v16h162v1401h-162v17h528v-17h-161v-749l614 749h-158v17h344v-17h-155l-416 -506z" />
<glyph unicode="L" horiz-adv-x="1105" d="M1024 512h12v-512h-997v16h162v1401h-162v17h528v-17h-161v-1401h305q72 0 128 32.5t89 82t54.5 119t30 131.5t11.5 131z" />
<glyph unicode="M" horiz-adv-x="1548" d="M1509 1417h-161v-1401h161v-16h-526v16h160v1323h-10l-433 -1345h-22l-436 1345h-11v-1323h170v-16h-362v16h168v1401h-168v17h403l346 -1088l353 1088h368v-17z" />
<glyph unicode="N" horiz-adv-x="1280" d="M887 1434h364v-17h-170v-1433h-28l-811 1241h-11v-1209h170v-16h-362v16h168v1401h-168v17h332l678 -1033h8v1016h-170v17z" />
<glyph unicode="O" horiz-adv-x="1343" d="M1274 717q0 -167 -49 -309.5t-131.5 -238t-191.5 -149t-230 -53.5q-95 0 -185 33.5t-165 99t-131.5 155.5t-88.5 209t-32 253q0 167 49 309t132 237.5t192 149t229 53.5q121 0 230 -53.5t191.5 -149t131.5 -237.5t49 -309zM672 -16q372 0 372 733t-372 733 q-373 0 -373 -735q0 -731 373 -731z" />
<glyph unicode="P" horiz-adv-x="1042" d="M629 1442q80 0 145.5 -21.5t118 -66t82 -121t29.5 -180.5q0 -214 -116 -340t-300 -131q-49 -2 -182 2v-568h161v-16h-528v16h162v1401h-162v17h276q48 0 168.5 4t145.5 4zM559 602q39 1 69.5 10t63 35.5t53.5 70t34.5 119.5t13.5 179q0 109 -11.5 187t-29 120.5t-46 66 t-53 29.5t-59.5 6q-82 0 -188 -4v-817q112 -4 153 -2z" />
<glyph unicode="Q" horiz-adv-x="1343" d="M1118 -184q39 0 60.5 43t21.5 106h12q0 -112 -70.5 -184t-176.5 -72q-62 0 -121.5 30.5t-132.5 98.5q-53 51 -97 81t-86 30q-50 0 -95.5 -45t-74.5 -123l-10 8q33 89 84.5 134t128.5 57q-102 21 -191 83t-156 155t-105.5 222.5t-38.5 276.5q0 167 49 309t132 237.5 t192 149t229 53.5q121 0 230 -53.5t191.5 -149t131.5 -237.5t49 -309q0 -155 -42.5 -289.5t-115 -229t-169.5 -153.5t-206 -74q50 -12 107 -37q23 -11 88 -45.5t110 -53.5t72 -19zM299 715q0 -731 373 -731q372 0 372 733t-372 733q-373 0 -373 -735z" />
<glyph unicode="R" horiz-adv-x="1204" d="M1182 41l12 -8q-35 -66 -135 -66q-53 0 -95.5 17.5t-71.5 47.5t-51 76.5t-35 98.5t-24 121q-8 50 -12 74t-12 66.5t-14.5 64t-17 53t-22 47.5t-26.5 32.5t-34 23.5t-42 7h-196v-680h161v-16h-528v16h162v1401h-162v17h289q49 0 170 4t145 4q78 0 143 -20t116.5 -62 t80.5 -114t29 -169q0 -165 -78.5 -254t-200.5 -110v-4q58 -4 93.5 -14t69.5 -37t55 -80t34 -138q3 -20 9 -67.5t11 -83t12.5 -83.5t17 -82.5t22 -66.5t28.5 -48.5t35 -16.5q18 0 35.5 14t26.5 35zM639 717q40 0 67 13t49.5 48.5t33 104.5t10.5 174q0 143 -22 225t-62 112.5 t-107 30.5q-108 0 -202 -4v-704h233z" />
<glyph unicode="S" horiz-adv-x="1021" d="M492 -33q-64 0 -123 15t-93 33t-66 33t-48 15q-20 0 -34 -16t-15 -47h-17l25 512h12q-8 -528 361 -528q149 0 217.5 81.5t68.5 219.5q0 39 -5 71t-17.5 60.5t-25.5 50.5t-38.5 45t-46 39t-59 38t-66.5 36.5t-78 40.5q-82 41 -139 79.5t-105.5 89t-73 114.5t-24.5 141 q0 166 102.5 271t276.5 105q63 0 115 -15.5t78 -33.5t52.5 -33.5t45.5 -15.5q42 0 45 66h17v-377h-13q-5 168 -90.5 280.5t-236.5 112.5q-107 0 -174.5 -67t-67.5 -181q0 -40 8 -73t27.5 -62.5t41.5 -52.5t61.5 -51t74 -49t92.5 -54q19 -11 56 -30.5t63 -33.5t62.5 -37.5 t62.5 -45.5t54 -54.5t45 -67.5t28.5 -81.5t11.5 -99.5q0 -187 -124 -315t-324 -128z" />
<glyph unicode="T" horiz-adv-x="1204" d="M1141 1434v-357h-13q-3 66 -10 112.5t-26 92.5t-51 73.5t-85 44.5t-127 17h-124v-1401h161v-16h-528v16h162v1401h-125q-74 0 -127 -17t-85 -44.5t-51 -73.5t-26 -92.5t-10 -112.5h-13v357h1078z" />
<glyph unicode="U" horiz-adv-x="1337" d="M938 1434h360v-17h-168v-966q0 -79 -10.5 -144.5t-40 -130.5t-77.5 -109.5t-128.5 -72t-187.5 -27.5q-71 0 -133 11.5t-127.5 44t-112 84.5t-76.5 141t-30 205v964h-168v17h541v-17h-168v-1007q0 -120 20 -202t60.5 -128.5t94.5 -66t130 -19.5q189 0 289 110t100 312 v1001h-168v17z" />
<glyph unicode="V" horiz-adv-x="1218" d="M1190 1434v-17h-105l-436 -1450h-49l-436 1450h-135v17h522v-17h-170l332 -1153l346 1153h-170v17h301z" />
<glyph unicode="W" horiz-adv-x="1769" d="M1741 1434v-17h-105l-407 -1450h-51l-277 979l-276 -979h-50l-411 1450h-135v17h479v-17h-135l313 -1134l203 710l-121 424h-135v17h514v-17h-170l311 -1136l322 1136h-170v17h301z" />
<glyph unicode="X" horiz-adv-x="1247" d="M1067 16h141v-16h-544v16h172l-291 607l-320 -607h156v-16h-342v16h160l333 633l-368 768h-125v17h528v-17h-172l275 -573l303 573h-191v17h363v-17h-146l-317 -600z" />
<glyph unicode="Y" horiz-adv-x="1161" d="M1040 1417l-317 -712v-689h162v-16h-527v16h160v668l-354 733h-135v17h489v-17h-135l326 -686l305 686h-170v17h289v-17h-93z" />
<glyph unicode="Z" horiz-adv-x="1048" d="M940 512h12l-39 -512h-817v20l637 1397h-368q-167 0 -211 -360h-13l25 377h774v-21l-637 -1397h350q50 0 91 20.5t70 59.5t50.5 84.5t36 105.5t23.5 111.5t16 114.5z" />
<glyph unicode="[" horiz-adv-x="473" d="M250 -319h153v-21h-276v2109h276v-20h-153v-2068z" />
<glyph unicode="\" horiz-adv-x="563" d="M51 1546l481 -1612l-20 -8l-481 1612z" />
<glyph unicode="]" horiz-adv-x="473" d="M223 -319v2068h-153v20h276v-2109h-276v21h153z" />
<glyph unicode="^" horiz-adv-x="479" d="M438 1057h-35l-163 409l-164 -409h-35l184 442h29z" />
<glyph unicode="_" horiz-adv-x="759" d="M41 -106h678v-21h-678v21z" />
<glyph unicode="`" horiz-adv-x="389" d="M141 1638h-59l215 -237l10 12z" />
<glyph unicode="a" d="M834 -25q-86 0 -131.5 46t-55.5 145h-6q-7 -42 -19 -72.5t-38.5 -62t-76 -48t-120.5 -16.5q-147 0 -235.5 79t-88.5 214q0 90 42 158.5t118 110t176.5 62.5t223.5 21v168q0 140 -39.5 200t-112.5 60q-88 0 -148.5 -20t-60.5 -51q0 -11 4 -20.5t12 -17t13.5 -11.5 t16 -10.5t11.5 -6.5q41 -27 41 -90q0 -55 -27.5 -87t-74.5 -32q-51 0 -83 37t-32 100q0 107 91.5 166.5t246.5 59.5q59 0 105 -7.5t91.5 -29.5t75 -58t48 -96.5t18.5 -142.5v-660q0 -63 60 -63q36 0 63 39.5t43 85.5l16 -6q-32 -86 -68.5 -115t-98.5 -29zM414 -12 q61 0 104 18.5t65 51t31 66.5t9 75v397q-103 0 -165.5 -13t-104 -48.5t-57 -93t-15.5 -150.5q0 -303 133 -303z" />
<glyph unicode="b" horiz-adv-x="1050" d="M598 1057q57 0 109 -15.5t103 -53.5t88 -96.5t60 -151.5t23 -210q0 -263 -104 -413t-271 -150q-55 0 -93.5 15.5t-63.5 51.5t-36 59.5t-28 75.5q-4 11 -6 17h-8l-19 -186h-323v16h153v1467h-153v16h252q63 0 98 17v-650h8q27 98 76 144.5t135 46.5zM586 -16 q97 0 138.5 115.5t41.5 398.5q0 127 -8.5 219.5t-29.5 169t-60 115t-97 38.5q-206 0 -206 -520q0 -536 221 -536z" />
<glyph unicode="c" horiz-adv-x="921" d="M825 201l19 -11q-17 -32 -31.5 -54t-46 -57t-65 -57t-86 -38.5t-113.5 -16.5q-93 0 -168.5 33.5t-123.5 87t-80.5 124.5t-46 142.5t-13.5 145.5q0 70 14 143t47.5 148.5t83 133.5t127 95t172.5 37q143 0 236.5 -74.5t93.5 -175.5q0 -58 -30.5 -103t-90.5 -45 q-55 0 -86 38.5t-31 88.5q0 30 12 52.5t27 34t27 29.5t12 40q0 49 -51.5 75.5t-120.5 26.5q-131 0 -178 -109t-47 -398q0 -213 23 -331.5t72 -168t136 -49.5q50 0 95.5 14.5t78 36.5t60 51t45 56.5t28.5 54.5z" />
<glyph unicode="d" horiz-adv-x="1050" d="M870 16h152v-16h-326l-18 166h-6q-9 -28 -13 -39.5t-15.5 -37.5t-21 -39t-26.5 -32t-36 -28t-46 -16t-59 -7q-172 0 -278.5 148t-106.5 395q0 137 35 246t92 172.5t123 96t135 32.5q83 0 131.5 -40t79.5 -134h6v600h-135v16h233q65 0 100 17v-1500zM477 -14 q37 0 66.5 13.5t56.5 49t45.5 93t29.5 149.5t11 213q0 131 -11.5 227t-30.5 154.5t-48.5 94t-61 48t-73.5 12.5q-33 0 -59 -12t-44.5 -31.5t-31.5 -54t-20.5 -71t-11.5 -91.5t-5.5 -106t-1.5 -123q0 -74 1 -127.5t5.5 -116.5t12.5 -106.5t22.5 -87t34 -69.5t48.5 -42t66 -16 z" />
<glyph unicode="e" horiz-adv-x="927" d="M526 -12q105 0 184.5 64t114.5 149l19 -11q-26 -48 -53.5 -84t-68.5 -69.5t-98.5 -51.5t-129.5 -18q-105 0 -187.5 44t-133.5 120t-77 173.5t-26 209.5q0 92 24.5 184t71 174t127 133.5t180.5 51.5q176 0 280.5 -134t104.5 -370h-90h-104h-377v-18q0 -299 54 -423 t185 -124zM477 1044q-101 0 -144 -106.5t-46 -368.5h377q-1 188 -20 290.5t-58 143.5t-109 41z" />
<glyph unicode="f" horiz-adv-x="624" d="M29 1008v16h153v131q0 71 13.5 135t41 120t77 89t114.5 33q71 0 119.5 -37t48.5 -109q0 -50 -25.5 -85t-70.5 -35q-38 0 -62 25.5t-24 68.5q0 21 9.5 38.5t21 27t21 20.5t9.5 22q0 48 -67 48q-55 0 -89 -39.5t-34 -114.5q0 -46 14.5 -84t32.5 -60t32.5 -59t14.5 -82v-53 h153v-16h-153v-992h153v-16h-503v16h153v992h-153z" />
<glyph unicode="g" horiz-adv-x="960" d="M776 1137q0 26 16 41t32 26t16 27q0 17 -14 26t-35 9q-47 0 -83 -42t-36 -112q0 -94 57 -154q100 -93 100 -243q0 -86 -33.5 -154t-87 -107.5t-115 -60t-124.5 -20.5q-153 0 -256 94q-57 -50 -57 -115q0 -69 68.5 -109.5t252.5 -70.5q54 -8 90.5 -15t84 -19.5t78.5 -26.5 t65 -36t53.5 -49t32 -64.5t12.5 -82.5q0 -159 -113 -250.5t-307 -91.5q-177 0 -279 72.5t-102 177.5q0 48 23.5 89t44.5 58t39 27l18 -4q-104 -63 -104 -170q0 -97 98 -165t260 -68q51 0 90.5 9.5t74 31.5t53 65t18.5 104q0 38 -7.5 68.5t-19 51.5t-32 38t-39 27.5 t-47.5 18.5t-51 12.5t-56 9.5q-60 9 -92.5 15t-80 17t-73 22.5t-56 31t-45.5 42.5t-25.5 56t-10.5 74q0 139 133 227q-96 93 -96 240q1 86 34.5 154t87 107.5t114.5 60t124 20.5q120 0 217 -66q-31 60 -31 119q0 73 39 121.5t103 48.5q50 0 92.5 -30.5t42.5 -92.5 q0 -41 -20 -70.5t-58 -29.5q-34 0 -56 23.5t-22 56.5zM469 389q90 0 124 79.5t34 246.5t-34 246t-124 79t-124 -79t-34 -246t34 -246.5t124 -79.5z" />
<glyph unicode="h" horiz-adv-x="1120" d="M940 16h152v-16h-482v16h133v715q0 176 -25.5 242.5t-105.5 66.5q-114 0 -170.5 -115t-62.5 -315v-594h135v-16h-485v16h153v1467h-153v16h252q63 0 98 17v-709h4q25 118 82.5 184t161.5 66q47 0 90 -10t84.5 -35t71.5 -62.5t48.5 -97.5t18.5 -135v-701z" />
<glyph unicode="i" horiz-adv-x="561" d="M281 1266q-50 0 -83.5 36t-33.5 91t33.5 91t83.5 36t83 -36t33 -91t-33 -91t-83 -36zM29 1008v16h252q65 0 98 16v-1024h153v-16h-503v16h153v992h-153z" />
<glyph unicode="j" horiz-adv-x="589" d="M330 1266q-50 0 -83.5 36t-33.5 91t33.5 91t83.5 36t83 -36t33 -91t-33 -91t-83 -36zM78 1008v16h252q65 0 98 16v-907q0 -129 -17 -236t-51.5 -188.5t-91 -126.5t-129.5 -45q-84 0 -144.5 54.5t-60.5 144.5q0 57 24 84.5t60 27.5q33 0 56.5 -22.5t23.5 -56.5 q0 -23 -12.5 -40.5t-27.5 -26.5t-27.5 -24.5t-12.5 -35.5q0 -36 33 -62t76 -26q104 0 104 145v268v1041h-153z" />
<glyph unicode="k" horiz-adv-x="1091" d="M946 16h117v-16h-434v16h108l-274 566l-84 -88v-478h108v-16h-458v16h153v1467h-153v16h252q63 0 98 17v-992l455 484h-136v16h289v-16h-125l-268 -287z" />
<glyph unicode="l" horiz-adv-x="561" d="M29 1483v16h252q63 0 98 17v-1500h153v-16h-503v16h153v1467h-153z" />
<glyph unicode="m" horiz-adv-x="1648" d="M1466 16h154v-16h-477v16h125v715q0 154 -31 231.5t-102 77.5q-186 0 -213 -303v-721h127v-16h-451v16h127v705q0 67 -2.5 112.5t-10.5 87.5t-22.5 66.5t-38.5 38.5t-59 14q-66 0 -113 -43.5t-70.5 -109.5t-29.5 -150v-721h127v-16h-477v16h153v992h-153v16h252 q65 0 98 16v-190h4q16 92 71 149.5t152 57.5q122 0 204.5 -56.5t104.5 -179.5q45 236 236 236q70 0 123.5 -15t98.5 -52t69 -107t24 -172v-695z" />
<glyph unicode="n" horiz-adv-x="1122" d="M940 16h154v-16h-484v16h133v713q0 171 -28 241t-99 70q-81 0 -134 -59t-76 -150.5t-27 -216.5v-598h135v-16h-485v16h153v992h-153v16h252q65 0 98 16v-233h4q26 123 85 186.5t161 63.5q44 0 85 -9t83.5 -34t73 -64t50 -103t19.5 -147v-684z" />
<glyph unicode="o" horiz-adv-x="995" d="M498 -33q-187 0 -307.5 146t-120.5 399t120.5 399t307.5 146q186 0 307 -146.5t121 -398.5t-121 -398.5t-307 -146.5zM498 -20q73 0 118 47.5t69 165.5t24 319t-24 319t-69 165.5t-118 47.5t-118 -47.5t-69 -165.5t-24 -319t24 -319t69 -165.5t118 -47.5z" />
<glyph unicode="p" horiz-adv-x="1034" d="M29 1024h233q65 0 98 16v-174h9q25 98 76.5 144.5t136.5 46.5q76 0 143.5 -32t121.5 -94.5t86 -165.5t32 -233q0 -250 -108 -407.5t-279 -157.5q-89 0 -132 41t-75 133h-11v-522h138v-16h-469v16h135v1389h-135v16zM348 520q0 -279 52 -407.5t153 -128.5q70 0 111.5 50 t62.5 171.5t21 331.5q0 119 -8 204t-28.5 156t-59.5 107t-97 36q-110 0 -158.5 -131.5t-48.5 -388.5z" />
<glyph unicode="q" horiz-adv-x="1034" d="M1006 1024v-16h-136v-1389h136v-16h-469v16h135v537h-8q-35 -101 -81 -145t-126 -44q-173 0 -280 145t-107 392q0 131 32 237.5t86 174.5t122 104.5t143 36.5q88 0 136 -43.5t75 -141.5h8l12 152h322zM686 520q0 257 -48.5 388.5t-158.5 131.5q-58 0 -97 -40t-59 -117.5 t-28 -166t-8 -208.5q0 -197 20.5 -311.5t62 -163.5t111.5 -49q91 0 148 132.5t57 403.5z" />
<glyph unicode="r" horiz-adv-x="892" d="M647 1057q85 0 140 -60.5t55 -156.5q0 -74 -34 -110t-89 -36q-54 0 -85.5 32t-31.5 77q0 24 9.5 43.5t23.5 33.5t28 27.5t23.5 31t9.5 38.5q0 26 -17 43.5t-50 17.5q-50 0 -91.5 -34.5t-69 -90.5t-47.5 -130t-29.5 -149t-12.5 -151v-467h205v-16h-555v16h153v992h-153v16 h252q65 0 98 16v-323h8q0 1 6 27t9 37.5t12 41t16 46.5t20.5 45t26 45t31.5 38t39 32.5t46 19.5t54 8z" />
<glyph unicode="s" horiz-adv-x="765" d="M354 -33q-64 0 -115 19t-82.5 38t-47.5 19q-28 0 -31 -43h-12l18 377h12q3 -188 66.5 -292.5t191.5 -104.5q103 0 154 55t51 149q0 67 -26 117t-71 86t-126 82q-101 57 -141 90q-108 93 -109 219q0 112 76 195.5t213 83.5q45 0 86 -16.5t70 -33t44 -16.5q16 0 24.5 15.5 t8.5 31.5h13l-3 -268h-12q-7 108 -66.5 191t-164.5 83q-33 0 -59 -11t-41.5 -28t-25.5 -39t-14 -42t-4 -39q0 -72 49.5 -126t133.5 -104q139 -83 171 -108q81 -61 101 -141q10 -38 10 -89q0 -150 -98.5 -250t-243.5 -100z" />
<glyph unicode="t" horiz-adv-x="702" d="M451 -33q-112 0 -183 65.5t-71 188.5v787h-127v16q308 0 311 377h12v-377h264v-16h-264v-858q0 -160 105 -160q57 0 100.5 41t60.5 94l15 -6q-57 -152 -223 -152z" />
<glyph unicode="u" horiz-adv-x="1173" d="M991 16h154v-16h-350v201h-7q-15 -43 -27 -70.5t-35 -61.5t-49.5 -54t-69 -34t-95.5 -14q-66 0 -121.5 17.5t-104 55t-76.5 107.5t-28 166v695h-153v16h350v-690q0 -161 42 -253.5t114 -92.5q49 0 88 17.5t64.5 43t47.5 67.5t34 78t26 87v727h-136v16h234q65 0 98 16 v-1024z" />
<glyph unicode="v" horiz-adv-x="1054" d="M764 1024h262v-16h-108q-27 -234 -113.5 -478.5t-229.5 -549.5h-36l-392 1028h-118v16h440v-16h-109l287 -811q205 474 244 811h-127v16z" />
<glyph unicode="w" horiz-adv-x="1470" d="M1182 1024h260v-16h-109q-1 -104 -19 -208t-57 -216.5t-71 -193t-90.5 -212.5t-85.5 -198h-37l-199 602q-39 -120 -135 -335t-117 -267h-37l-338 1028h-118v16h440v-16h-121l252 -791q116 257 160 406l-127 385h-109v16h430v-16h-118l249 -793q53 120 84 198t67 186 t53 208.5t18 200.5h-125v16z" />
<glyph unicode="x" horiz-adv-x="968" d="M819 16h121v-16h-455v16h113l-190 412l-236 -412h162v-16h-305v16h116l252 439l-256 553h-112v16h454v-16h-121l175 -379l219 379h-121v16h244v-16h-97l-233 -404z" />
<glyph unicode="y" d="M1001 1024v-16h-112q-51 -314 -114 -569t-144 -463.5t-183.5 -323.5t-218.5 -115q-86 0 -154.5 63t-68.5 142q0 53 28.5 84t67.5 31q44 0 67.5 -27t23.5 -72q0 -26 -13.5 -45t-30 -27t-30 -20.5t-13.5 -27.5q0 -30 39 -55t84 -25q181 0 332 317l-428 1133h-113v16h435 v-16h-109l320 -867q114 346 196 867h-131v16h270z" />
<glyph unicode="z" horiz-adv-x="817" d="M741 328h13l-31 -328h-660v16l474 992h-256q-68 0 -109.5 -75.5t-58.5 -193.5h-13l31 285h608v-16l-473 -992h262q53 0 91.5 26t62 74.5t36.5 97t23 114.5z" />
<glyph unicode="{" horiz-adv-x="532" d="M307 33q0 -71 9 -133.5t26.5 -114.5t48.5 -82.5t72 -30.5v-12q-29 0 -63.5 9t-79 37t-80 70.5t-60 119t-24.5 174.5q0 68 17 125t38 92t39.5 95t21.5 134q3 79 -42.5 123.5t-125.5 71.5v12q168 58 168 176q0 62 -12 113t-29 86.5t-34 70.5t-29 83.5t-12 107.5 q0 98 25 174.5t60.5 119t80 70t79 36.5t62.5 9v-12q-71 0 -113.5 -97.5t-42.5 -256.5q0 -99 25.5 -221.5t25.5 -204.5q0 -54 -10.5 -96.5t-30.5 -69.5t-41.5 -45.5t-49.5 -28t-47.5 -13.5t-43.5 -7q31 -3 54 -8t57.5 -21.5t56.5 -43t38.5 -76t16.5 -115.5 q0 -87 -25.5 -206.5t-25.5 -213.5z" />
<glyph unicode="|" horiz-adv-x="290" d="M131 1499h29v-1730h-29v1730z" />
<glyph unicode="}" horiz-adv-x="532" d="M225 33q0 94 -25.5 213.5t-25.5 206.5q0 66 16.5 115.5t38.5 76t56.5 43t57.5 21.5t54 8q-24 3 -43.5 7t-47.5 13.5t-49.5 28t-41.5 45.5t-30.5 69.5t-10.5 96.5q0 82 25.5 204.5t25.5 221.5q0 160 -42 257t-113 97v12q28 0 62.5 -9t79 -36.5t80 -70t60.5 -119t25 -174.5 q0 -72 -18.5 -131t-40 -95t-40 -97.5t-18.5 -137.5q0 -118 168 -176v-12q-80 -27 -125.5 -71.5t-42.5 -123.5q2 -61 15 -110.5t30 -84t33 -68.5t27.5 -80.5t11.5 -102.5q0 -98 -24.5 -174.5t-60 -119t-80 -70.5t-79 -37t-63.5 -9v12q54 0 90 54t50.5 132t14.5 175z" />
<glyph unicode="~" horiz-adv-x="524" d="M41 674q5 50 37 86.5t82 36.5q28 0 51.5 -15t40 -36l33 -42t38 -36t46.5 -15q42 0 67.5 31.5t30.5 75.5h16q-6 -54 -38 -88.5t-80 -34.5q-34 0 -62.5 22.5t-45.5 49t-43.5 49t-57.5 22.5q-43 0 -67.5 -31t-31.5 -75h-16z" />
<glyph unicode="&#xa1;" horiz-adv-x="483" d="M262 1094q52 0 89.5 -38.5t37.5 -94.5t-37.5 -95t-89.5 -39t-89.5 39t-37.5 95t37.5 94.5t89.5 38.5zM262 -463q60 0 87.5 58t27.5 184q0 93 -10.5 169.5t-26 140t-31.5 138t-27.5 201t-13.5 291.5h-12q-5 -200 -23 -349t-37 -217.5t-34 -165t-15 -208.5 q0 -126 27.5 -184t87.5 -58z" />
<glyph unicode="&#xa2;" horiz-adv-x="921" d="M518 -12q50 0 95.5 14.5t78 36.5t60 51t45 56.5t28.5 54.5l19 -11q-16 -30 -30.5 -52.5t-44 -56t-61.5 -55.5t-81.5 -39.5t-106.5 -19.5v-86h-20v86q-93 1 -168 34.5t-123 87t-80 124.5t-45.5 142t-13.5 145q0 69 13.5 140.5t46.5 146t80.5 133t122.5 96.5t167 41v102h20 v-102q139 -1 231.5 -75.5t92.5 -174.5q0 -58 -30.5 -103t-90.5 -45q-55 0 -86 38.5t-31 88.5q0 30 12 52.5t27 34t27 29.5t12 40q0 49 -51.5 75.5t-120.5 26.5q-131 0 -178 -109t-47 -398q0 -213 23 -331.5t72 -168t136 -49.5z" />
<glyph unicode="&#xa3;" horiz-adv-x="944" d="M868 393h13q0 -216 -62 -321t-221 -105q-62 0 -128.5 17.5t-112.5 39t-93.5 39t-75.5 17.5q-64 0 -90 -80h-24q-9 67 4 114t57 91q45 44 71.5 93t36 92.5t6.5 100.5t-11.5 99.5t-24.5 105.5h-107v21h101q-1 4 -7.5 29.5t-8 31.5t-7 29t-7 32t-6 29.5t-6 32t-4.5 30t-4 32 t-2 30t-1 31.5q0 188 113.5 315t275.5 127q48 0 91 -13.5t80 -42.5t59 -79.5t22 -118.5q0 -87 -34.5 -138.5t-98.5 -51.5q-54 0 -92 37t-38 106q0 63 31.5 106.5t89.5 43.5q22 0 41 -7t27 -12.5t19 -14.5q10 -9 13 -7.5t3 20.5q0 64 -63 112t-154 48q-96 0 -137.5 -109.5 t-41.5 -343.5q0 -24 1 -86.5t0.5 -108.5t-3.5 -89h277l-8 -21h-271q-8 -149 -53.5 -270.5t-148.5 -220.5q82 33 129 33q85 0 220 -43t204 -43q83 0 122 57t39 184z" />
<glyph unicode="&#xa4;" horiz-adv-x="1069" d="M983 512q0 -180 -123 -309l117 -117l-16 -16l-117 116q-129 -123 -309 -123q-181 0 -310 123l-116 -116l-17 16l117 117q-123 129 -123 309t123 309l-117 117l17 16l116 -116q129 123 310 123q180 0 309 -123l117 116l16 -16l-117 -117q123 -129 123 -309zM535 86 q175 0 298 124t123 302t-123 302t-298 124t-298.5 -124t-123.5 -302t123.5 -302t298.5 -124z" />
<glyph unicode="&#xa5;" horiz-adv-x="1161" d="M1133 1417h-93l-313 -702h158v-17h-162v-157h162v-17h-162v-508h162v-16h-527v16h160v508h-160v17h160v143l-6 14h-154v17h146l-340 702h-135v17h489v-17h-135l326 -686l305 686h-170v17h289v-17z" />
<glyph unicode="&#xa6;" horiz-adv-x="290" d="M131 856v643h29v-643h-29zM160 412v-643h-29v643h29z" />
<glyph unicode="&#xa7;" horiz-adv-x="772" d="M702 575q0 -176 -100 -305q100 -103 100 -290q0 -193 -96.5 -301.5t-253.5 -108.5q-71 0 -127 22t-88.5 58.5t-49.5 78.5t-17 85q0 67 37 110t92 43q53 0 90 -41t37 -104q0 -73 -50.5 -112.5t-123.5 -39.5q30 -40 86 -62t122 -22q127 0 188.5 74t61.5 182 q0 95 -51.5 145.5t-209.5 142.5l-15 9q-35 20 -55.5 33.5t-51 36t-49 42t-40 48.5t-33 60t-19.5 71.5t-8 87.5q0 204 125 295q-125 103 -125 289q0 164 84.5 264t222.5 100q132 0 211.5 -81.5t79.5 -184.5q0 -74 -37.5 -117t-91.5 -43q-57 0 -93 44.5t-36 103.5q0 69 51 110 t123 41q-20 48 -80.5 79.5t-126.5 31.5q-92 0 -156.5 -60.5t-64.5 -152.5q0 -109 115 -186q38 -26 139 -76q34 -17 54 -27.5t53.5 -32.5t55 -42t47 -51.5t40 -65.5t24.5 -81t10 -100zM154 659q0 -102 97 -173q42 -31 167 -93q118 -58 168 -104q39 64 39 143q0 25 -5.5 46.5 t-11.5 37.5t-24 35t-29.5 30.5t-42.5 31.5t-48.5 30.5t-61.5 36.5t-68 41q-76 46 -119 80q-61 -51 -61 -142z" />
<glyph unicode="&#xa8;" horiz-adv-x="446" d="M135 1468q-21 0 -37 17t-16 39t15.5 38.5t37.5 16.5q20 0 35.5 -16.5t15.5 -38.5t-15.5 -39t-35.5 -17zM311 1468q-20 0 -35.5 17t-15.5 39t15.5 38.5t35.5 16.5q22 0 38 -16.5t16 -38.5t-16 -39t-38 -17z" />
<glyph unicode="&#xa9;" horiz-adv-x="1409" d="M705 -33q-130 0 -247.5 59.5t-202.5 160t-135 239t-50 291.5t50 291.5t135 238.5t202.5 159.5t247.5 59.5t247.5 -59.5t202 -159.5t134.5 -238.5t50 -291.5q0 -204 -84.5 -376.5t-230.5 -273t-319 -100.5zM705 -12q128 0 242.5 60.5t194.5 161t126.5 233.5t46.5 274 t-46.5 274t-126.5 233.5t-194.5 161t-242.5 60.5q-129 0 -243.5 -60.5t-194.5 -161t-126.5 -233t-46.5 -274.5t46.5 -274.5t126.5 -233t194.5 -161t243.5 -60.5zM1038 408l19 -11q-17 -32 -31.5 -54t-46 -57t-65 -57t-86 -38.5t-113.5 -16.5q-93 0 -168.5 33.5t-123.5 87 t-80.5 124.5t-46 142.5t-13.5 145.5q0 70 14 143t47.5 148.5t83 133.5t127 95t172.5 37q143 0 236.5 -74.5t93.5 -175.5q0 -58 -30.5 -103t-90.5 -45q-55 0 -86 38.5t-31 88.5q0 30 12 52.5t27 34t27 29.5t12 40q0 49 -51.5 75.5t-120.5 26.5q-131 0 -178 -109.5t-47 -398.5 q0 -213 23 -331.5t72 -167.5t136 -49q50 0 95.5 14.5t78 36.5t60 51t45 56.5t28.5 54.5z" />
<glyph unicode="&#xaa;" horiz-adv-x="671" d="M512 870q-95 0 -117 88q-17 -44 -49 -68t-94 -24q-86 0 -137.5 45.5t-51.5 124.5q0 103 85.5 153t232.5 50v100q0 81 -20.5 114.5t-79.5 33.5q-46 0 -78.5 -16.5t-32.5 -45.5q0 -21 24.5 -42t24.5 -40q0 -26 -14 -43.5t-41 -17.5q-26 0 -43 18.5t-17 53.5q0 65 51 105 t152 40q40 0 71.5 -7.5t61.5 -27t47 -60t17 -99.5v-379q0 -39 31 -39q37 0 63 69l10 -4q-19 -50 -40 -66t-56 -16zM266 879q46 0 80.5 30t34.5 72v246q-112 0 -154.5 -38t-42.5 -142q0 -83 17.5 -125.5t64.5 -42.5z" />
<glyph unicode="&#xab;" horiz-adv-x="976" d="M86 526l406 -366l6 16l-275 352l275 353l-6 16l-406 -367v-4zM479 526l406 -366l6 16l-275 352l275 353l-6 16l-406 -367v-4z" />
<glyph unicode="&#xac;" horiz-adv-x="546" d="M41 727h465v-262h-23v242h-442v20z" />
<glyph unicode="&#xad;" horiz-adv-x="432" d="M41 563l350 123v-20l-350 -123v20z" />
<glyph unicode="&#xae;" horiz-adv-x="1046" d="M524 1647q130 0 241 -76.5t176 -207.5t65 -284t-65 -283.5t-176 -207t-241 -76.5q-131 0 -242 76.5t-176 207t-65 283.5t65 284t176 207.5t242 76.5zM524 532q125 0 231 75.5t166 201t60 270.5t-60 270.5t-166 201t-231 75.5q-126 0 -232 -75.5t-166 -201t-60 -270.5 t60 -270.5t166 -201t232 -75.5zM834 739l6 -6q-20 -33 -99 -33q-30 0 -52 10t-35.5 24.5t-23.5 40.5t-15 48t-11 58q-17 105 -33 135q-23 45 -71 45h-33v-328h80v-16h-291v16h80v684h-80v17h211h70q200 0 200 -177q0 -157 -153 -182v-2q75 -5 110.5 -31.5t46.5 -105.5 q2 -12 4 -43.5t5 -58t8 -54.5t15.5 -44.5t25.5 -16.5q19 0 35 20zM518 1077q40 0 60 33.5t20 128.5q0 108 -24 143t-72 35h-35v-340h51z" />
<glyph unicode="&#xaf;" horiz-adv-x="479" d="M82 1509h315v-20h-315v20z" />
<glyph unicode="&#xb0;" horiz-adv-x="325" d="M162 1200q-49 0 -85 45.5t-36 104.5t36 104t85 45q50 0 86.5 -45t36.5 -104t-36.5 -104.5t-86.5 -45.5zM162 1221q38 0 68 36t30 93t-30 93t-68 36q-36 0 -66 -36t-30 -93t30 -93t66 -36z" />
<glyph unicode="&#xb1;" horiz-adv-x="520" d="M479 727v-20h-207v-263h-22v263h-209v20h209v262h22v-262h207zM41 360h438v-20h-438v20z" />
<glyph unicode="&#xb2;" horiz-adv-x="526" d="M469 1016h10q0 -108 -31 -160.5t-110 -52.5q-52 0 -126.5 26.5t-92.5 26.5q-39 0 -47 -37h-21q-12 103 11 159.5t73 96.5q6 5 28.5 21.5t30.5 23t27 25t27 31t21 35.5t19 46t10.5 55t4.5 68q0 43 -2 67t-8.5 48t-21 34.5t-38.5 10.5q-52 0 -96.5 -34t-44.5 -95q5 9 23 19 t32 10q29 0 46.5 -23.5t17.5 -54.5q0 -35 -21 -55.5t-49 -20.5q-32 0 -52.5 28.5t-20.5 74.5q0 77 49.5 120t128.5 43q53 0 97.5 -18t77 -65.5t32.5 -118.5q0 -52 -17 -92t-50.5 -67.5t-62 -44t-73.5 -36.5t-64 -31q-47 -27 -70.5 -47.5t-39.5 -66t-13 -117.5h5 q9 108 129 108q27 0 107.5 -15t105.5 -15q59 0 59 90z" />
<glyph unicode="&#xb3;" horiz-adv-x="524" d="M223 815q48 0 76.5 48t28.5 143q0 206 -127 206v13q67 0 88.5 32t21.5 113q0 84 -16.5 127t-63.5 43q-23 0 -48.5 -8.5t-49.5 -35.5t-24 -66q18 28 49 28q63 0 63 -76q0 -33 -16 -53t-45 -20q-35 0 -55.5 29t-20.5 69q0 70 46 107.5t128 37.5q85 0 135.5 -40t50.5 -115 q0 -74 -43.5 -116.5t-101.5 -55.5v-6q88 -10 133 -71t45 -140q0 -100 -66.5 -152.5t-168.5 -52.5q-100 0 -147.5 47t-47.5 121q0 54 21.5 85t58.5 31q30 0 51 -24.5t21 -61.5q0 -33 -20.5 -58t-51.5 -25q-18 0 -34.5 8t-22.5 20q0 -60 46 -95.5t107 -35.5z" />
<glyph unicode="&#xb4;" horiz-adv-x="389" d="M248 1638l-166 -225l10 -12l215 237h-59z" />
<glyph unicode="&#xb5;" horiz-adv-x="1173" d="M991 16h154v-16h-350v201h-7q-2 -4 -9 -25.5t-11.5 -32t-14.5 -33t-20.5 -35.5t-26.5 -32t-35.5 -30.5t-43.5 -23t-55.5 -17t-67.5 -5.5q-63 0 -125 19v-383h-350v16h153v1389h-153v16h350v-690q0 -346 164 -346q47 0 86 18.5t64 45.5t46 69.5t32.5 77t23.5 80.5l-2 745 h100q32 0 98 16v-1024z" />
<glyph unicode="&#xb6;" horiz-adv-x="704" d="M664 1417h-117v-1831h117v-16h-140v1847h-172v-1847h-141v16h119v1131h-19q-107 0 -188.5 104.5t-81.5 253.5q0 150 81.5 254.5t188.5 104.5h353v-17z" />
<glyph unicode="&#xb7;" horiz-adv-x="512" d="M256 397q-48 0 -84.5 37t-36.5 90t36.5 90t84.5 37t84.5 -37t36.5 -90t-36.5 -90t-84.5 -37z" />
<glyph unicode="&#xb8;" horiz-adv-x="473" d="M231 -391q-73 0 -111 44.5t-38 117.5h16q0 -63 30 -102.5t83 -39.5q36 0 60 20t24 58q0 111 -182 111l106 166h23l-45 -70q31 0 61.5 -6.5t62 -21.5t51 -46.5t19.5 -75.5q0 -72 -44.5 -113.5t-115.5 -41.5z" />
<glyph unicode="&#xb9;" horiz-adv-x="403" d="M268 831h74v-12h-281v12h76v533q0 35 -10.5 49t-38.5 14h-27v7q134 33 201 118h6v-721z" />
<glyph unicode="&#xba;" horiz-adv-x="626" d="M313 866q-108 0 -179 85t-71 233q0 146 71 230.5t179 84.5t179 -84.5t71 -230.5q0 -148 -71 -233t-179 -85zM313 879q42 0 65.5 21t37.5 88.5t14 193.5q0 127 -14 194.5t-37.5 89t-65.5 21.5t-65.5 -21.5t-37 -88.5t-13.5 -193q0 -127 13.5 -194.5t37 -89t65.5 -21.5z " />
<glyph unicode="&#xbb;" horiz-adv-x="976" d="M498 526v4l-406 367l-6 -16l274 -353l-274 -352l6 -16zM891 526v4l-406 367l-6 -16l275 -353l-275 -352l6 -16z" />
<glyph unicode="&#xbc;" horiz-adv-x="958" d="M735 1466h23l-572 -1499h-24zM342 729v-12h-281v12h76v533q0 35 -10.5 49t-38.5 14h-27v6q134 33 201 119h6v-721h74zM885 199h-90v-187h75v-12h-284v12h78v187h-226v14l217 504h140v-502h45q26 0 33.5 16t15.5 72h8zM459 215h205v483z" />
<glyph unicode="&#xbd;" horiz-adv-x="1021" d="M735 1466h23l-572 -1499h-24zM268 729h74v-12h-281v12h76v533q0 35 -10.5 49t-38.5 14h-27v6q134 33 201 119h6v-721zM950 197h11q0 -108 -31.5 -160.5t-110.5 -52.5q-52 0 -126.5 26.5t-92.5 26.5q-39 0 -47 -37h-21q-12 103 11 159.5t73 96.5q6 5 28.5 21.5t30.5 23 t27 25t27 31t21 35.5t19 46t10.5 55t4.5 68q0 43 -1.5 66.5t-8 48t-21 35t-38.5 10.5q-53 0 -97.5 -34t-44.5 -95q5 9 23 19t33 10q29 0 46 -23.5t17 -54.5q0 -35 -20.5 -55.5t-48.5 -20.5q-32 0 -53 28.5t-21 73.5q0 77 49.5 120.5t128.5 43.5q84 0 145.5 -49.5 t61.5 -153.5q0 -52 -17 -92t-50 -67t-61.5 -43.5t-73.5 -36.5t-64 -31q-47 -27 -70.5 -47.5t-39.5 -66t-13 -117.5h4q9 108 129 108q27 0 107.5 -15.5t105.5 -15.5q59 0 59 91z" />
<glyph unicode="&#xbe;" horiz-adv-x="1075" d="M852 1466h22l-571 -1499h-24zM492 905q0 -100 -66.5 -152.5t-169.5 -52.5q-100 0 -147.5 47t-47.5 121q0 54 21.5 85.5t58.5 31.5q30 0 51 -24.5t21 -61.5q0 -34 -20.5 -59t-51.5 -25q-17 0 -34 8.5t-23 20.5q0 -60 46.5 -95.5t107.5 -35.5q48 0 76 47.5t28 142.5 q0 207 -127 207v12q67 0 89 32.5t22 113.5q0 84 -16.5 127t-63.5 43q-23 0 -49 -9t-50 -36t-24 -66q18 29 49 29q32 0 48 -21t16 -55q0 -33 -16.5 -53.5t-45.5 -20.5q-35 0 -55.5 29t-20.5 70q0 70 46 107.5t128 37.5q85 0 136 -40.5t51 -115.5q0 -74 -44 -116.5t-102 -55.5 v-6q88 -10 133.5 -71t45.5 -140zM1001 199h-90v-187h76v-12h-285v12h78v187h-225v14l217 504h139v-502h45q26 0 34 16.5t16 71.5h8zM575 215h205v483z" />
<glyph unicode="&#xbf;" horiz-adv-x="706" d="M391 1057q52 0 89.5 -38.5t37.5 -94.5t-37.5 -94.5t-89.5 -38.5t-89.5 38.5t-37.5 94.5t37.5 94.5t89.5 38.5zM393 682h21q28 -163 -31 -291q-44 -93 -70 -158t-50.5 -178t-24.5 -229q0 -86 11.5 -145t34.5 -91t52 -45.5t70 -13.5q100 0 172.5 64.5t72.5 154.5 q0 9 -1.5 10t-8.5 -9q-41 -56 -98 -56t-94 44.5t-37 119.5q0 73 41 117t104 44q65 0 102 -52.5t37 -141.5q0 -62 -18 -117t-55.5 -102t-105 -75t-157.5 -28q-169 0 -259.5 98t-90.5 265q0 81 25 150t66 121t83.5 95t89.5 92t72 91q23 38 36 76.5t14.5 78t1 57.5t-4.5 54z " />
<glyph unicode="&#xc0;" horiz-adv-x="1146" d="M723 1561v-19l-301 240h74zM1006 16h131v-16h-492v16h135l-133 467h-373l-137 -467h172v-16h-299v16h103l422 1446h38zM279 504h362l-178 626z" />
<glyph unicode="&#xc1;" horiz-adv-x="1146" d="M649 1782h74l-301 -240v19zM1006 16h131v-16h-492v16h135l-133 467h-373l-137 -467h172v-16h-299v16h103l422 1446h38zM279 504h362l-178 626z" />
<glyph unicode="&#xc2;" horiz-adv-x="1146" d="M573 1733l-145 -185h-22l157 234h23l157 -234h-22zM1006 16h131v-16h-492v16h135l-133 467h-373l-137 -467h172v-16h-299v16h103l422 1446h38zM279 504h362l-178 626z" />
<glyph unicode="&#xc3;" horiz-adv-x="1146" d="M481 1716q-29 0 -45 -21t-28 -63l-19 8q15 53 38.5 78t59.5 25q28 0 53.5 -18t41.5 -39.5t38 -39.5t44 -18q17 0 29 7t21 22.5t12.5 25t10.5 29.5l17 -8q-27 -102 -97 -102q-28 0 -54 18t-42 39t-37.5 39t-42.5 18zM1006 16h131v-16h-492v16h135l-133 467h-373l-137 -467 h172v-16h-299v16h103l422 1446h38zM279 504h362l-178 626z" />
<glyph unicode="&#xc4;" horiz-adv-x="1146" d="M485 1612q-22 0 -37.5 16.5t-15.5 38.5t15.5 38.5t37.5 16.5q20 0 36 -16.5t16 -38.5t-16 -38.5t-36 -16.5zM662 1612q-20 0 -36 16.5t-16 38.5t16 38.5t36 16.5q22 0 37.5 -16.5t15.5 -38.5t-15.5 -38.5t-37.5 -16.5zM1006 16h131v-16h-492v16h135l-133 467h-373 l-137 -467h172v-16h-299v16h103l422 1446h38zM279 504h362l-178 626z" />
<glyph unicode="&#xc5;" horiz-adv-x="1146" d="M571 1544q-43 0 -73.5 32.5t-30.5 90.5t30.5 91.5t73.5 33.5q42 0 73.5 -33.5t31.5 -91.5t-31.5 -90.5t-73.5 -32.5zM571 1772q-34 0 -56.5 -28t-22.5 -77t22.5 -75.5t56.5 -26.5t57 26.5t23 75.5t-23 77t-57 28zM1006 16h131v-16h-492v16h135l-133 467h-373l-137 -467 h172v-16h-299v16h103l422 1446h38zM279 504h362l-178 626z" />
<glyph unicode="&#xc6;" horiz-adv-x="1628" d="M1546 492h13v-492h-949v16h162v484h-416l-217 -484h162v-16h-301v16h117l626 1401h-133v17h901v-357h-12q-2 40 -4.5 69t-10.5 67t-20.5 64.5t-34.5 55t-52.5 45.5t-75.5 28t-101 11h-223v-669h170q35 0 62 18.5t43.5 46.5t28 71.5t17 82.5t9.5 90h12v-641h-12 q-4 52 -9.5 91t-17 82.5t-28 72t-43.5 47t-62 18.5h-170v-711h229q64 0 115.5 15.5t86 39t60 62.5t39.5 76.5t23 90.5t11.5 94t4.5 98zM365 520h407v897h-6z" />
<glyph unicode="&#xc7;" horiz-adv-x="1155" d="M645 -33h-10l-35 -53q31 0 61.5 -6.5t62.5 -21.5t51.5 -46.5t19.5 -75.5q0 -72 -44.5 -113.5t-115.5 -41.5q-74 0 -112 45t-38 117h17q0 -63 29.5 -102.5t82.5 -39.5q36 0 60 20t24 58q0 111 -182 111l96 151q-231 14 -386.5 218t-155.5 522q0 165 45.5 307.5t123 240.5 t182.5 153.5t222 55.5q60 0 113 -15.5t83 -34.5t61.5 -34.5t53.5 -15.5q26 0 40 16t20 52h12v-410h-12q-12 195 -111.5 309.5t-245.5 114.5q-358 0 -358 -715q0 -741 373 -741q165 0 272 137t107 383h20q0 -255 -114.5 -400t-311.5 -145z" />
<glyph unicode="&#xc8;" horiz-adv-x="1107" d="M700 1561v-19l-301 240h74zM1026 492h12v-492h-999v16h162v1401h-162v17h952v-357h-12q-3 45 -5.5 73t-11 68t-21.5 65t-37 53t-56 44t-80 26.5t-109 10.5h-253v-669h186q26 0 47 10t35.5 24t26.5 41.5t19 48t14 59.5t10 61t8 65h12v-641h-12q-5 41 -7 57t-8 54t-11 54.5 t-14 45.5t-19.5 42.5t-25 29t-33.5 22t-42 6.5h-186v-711h299q59 0 107 15t80 39t56 63t38 76.5t22.5 90.5t12 94.5t5.5 97.5z" />
<glyph unicode="&#xc9;" horiz-adv-x="1107" d="M627 1782h73l-301 -240v19zM1026 492h12v-492h-999v16h162v1401h-162v17h952v-357h-12q-3 45 -5.5 73t-11 68t-21.5 65t-37 53t-56 44t-80 26.5t-109 10.5h-253v-669h186q26 0 47 10t35.5 24t26.5 41.5t19 48t14 59.5t10 61t8 65h12v-641h-12q-5 41 -7 57t-8 54t-11 54.5 t-14 45.5t-19.5 42.5t-25 29t-33.5 22t-42 6.5h-186v-711h299q59 0 107 15t80 39t56 63t38 76.5t22.5 90.5t12 94.5t5.5 97.5z" />
<glyph unicode="&#xca;" horiz-adv-x="1107" d="M551 1733l-145 -185h-23l158 234h22l158 -234h-23zM1026 492h12v-492h-999v16h162v1401h-162v17h952v-357h-12q-3 45 -5.5 73t-11 68t-21.5 65t-37 53t-56 44t-80 26.5t-109 10.5h-253v-669h186q26 0 47 10t35.5 24t26.5 41.5t19 48t14 59.5t10 61t8 65h12v-641h-12 q-5 41 -7 57t-8 54t-11 54.5t-14 45.5t-19.5 42.5t-25 29t-33.5 22t-42 6.5h-186v-711h299q59 0 107 15t80 39t56 63t38 76.5t22.5 90.5t12 94.5t5.5 97.5z" />
<glyph unicode="&#xcb;" horiz-adv-x="1107" d="M463 1612q-22 0 -37.5 16.5t-15.5 38.5t15.5 38.5t37.5 16.5q20 0 35.5 -16.5t15.5 -38.5t-15.5 -38.5t-35.5 -16.5zM639 1612q-20 0 -35.5 16.5t-15.5 38.5t15.5 38.5t35.5 16.5q22 0 37.5 -16.5t15.5 -38.5t-15.5 -38.5t-37.5 -16.5zM1026 492h12v-492h-999v16h162 v1401h-162v17h952v-357h-12q-3 45 -5.5 73t-11 68t-21.5 65t-37 53t-56 44t-80 26.5t-109 10.5h-253v-669h186q26 0 47 10t35.5 24t26.5 41.5t19 48t14 59.5t10 61t8 65h12v-641h-12q-5 41 -7 57t-8 54t-11 54.5t-14 45.5t-19.5 42.5t-25 29t-33.5 22t-42 6.5h-186v-711h299 q59 0 107 15t80 39t56 63t38 76.5t22.5 90.5t12 94.5t5.5 97.5z" />
<glyph unicode="&#xcc;" horiz-adv-x="606" d="M225 1782h-73l301 -240v19zM39 1434h528v-17h-161v-1401h161v-16h-528v16h162v1401h-162v17z" />
<glyph unicode="&#xcd;" horiz-adv-x="606" d="M379 1782l-227 -221v-19l301 240h-74zM39 1434h528v-17h-161v-1401h161v-16h-528v16h162v1401h-162v17z" />
<glyph unicode="&#xce;" horiz-adv-x="606" d="M135 1548l158 234h22l158 -234h-22l-148 185l-145 -185h-23zM39 1434h528v-17h-161v-1401h161v-16h-528v16h162v1401h-162v17z" />
<glyph unicode="&#xcf;" horiz-adv-x="606" d="M215 1612q-22 0 -37.5 16.5t-15.5 38.5t15.5 38.5t37.5 16.5q20 0 35.5 -16.5t15.5 -38.5t-15.5 -38.5t-35.5 -16.5zM391 1612q-20 0 -35.5 16.5t-15.5 38.5t15.5 38.5t35.5 16.5q22 0 37.5 -16.5t15.5 -38.5t-15.5 -38.5t-37.5 -16.5zM39 1434h528v-17h-161v-1401h161 v-16h-528v16h162v1401h-162v17z" />
<glyph unicode="&#xd0;" horiz-adv-x="1290" d="M582 1442q313 0 476 -174t163 -543q0 -131 -21 -240t-69 -201.5t-121.5 -156.5t-182.5 -99.5t-249 -35.5q-37 0 -119.5 4t-130.5 4h-289v16h162v691h-109v20h109v690h-162v17h289q48 0 132 4t122 4zM547 8q68 0 118 6.5t98.5 24.5t82.5 50t63 83.5t46 124t26.5 172 t9.5 227.5q0 137 -11 244t-29.5 183.5t-49.5 131t-65 87.5t-82.5 51.5t-95 25t-109.5 6.5q-49 0 -143 -4v-694h206v-20h-206v-695q94 -4 141 -4z" />
<glyph unicode="&#xd1;" horiz-adv-x="1280" d="M549 1716q-30 0 -46 -21.5t-28 -62.5l-18 8q15 53 38.5 78t59.5 25q28 0 53.5 -18t41.5 -39.5t37.5 -39.5t43.5 -18t38 15t22 29t14 40l16 -8q-27 -102 -96 -102q-28 0 -54 18t-42 39t-37.5 39t-42.5 18zM887 1434h364v-17h-170v-1433h-28l-811 1241h-11v-1209h170v-16 h-362v16h168v1401h-168v17h332l678 -1033h8v1016h-170v17z" />
<glyph unicode="&#xd2;" horiz-adv-x="1343" d="M594 1782h-74l301 -240v19zM1274 717q0 -167 -49 -309.5t-131.5 -238t-191.5 -149t-230 -53.5q-95 0 -185 33.5t-165 99t-131.5 155.5t-88.5 209t-32 253q0 167 49 309t132 237.5t192 149t229 53.5q121 0 230 -53.5t191.5 -149t131.5 -237.5t49 -309zM672 -16 q372 0 372 733t-372 733q-373 0 -373 -735q0 -731 373 -731z" />
<glyph unicode="&#xd3;" horiz-adv-x="1343" d="M748 1782l-228 -221v-19l301 240h-73zM1274 717q0 -167 -49 -309.5t-131.5 -238t-191.5 -149t-230 -53.5q-95 0 -185 33.5t-165 99t-131.5 155.5t-88.5 209t-32 253q0 167 49 309t132 237.5t192 149t229 53.5q121 0 230 -53.5t191.5 -149t131.5 -237.5t49 -309zM672 -16 q372 0 372 733t-372 733q-373 0 -373 -735q0 -731 373 -731z" />
<glyph unicode="&#xd4;" horiz-adv-x="1343" d="M504 1548l158 234h22l158 -234h-23l-147 185l-146 -185h-22zM1274 717q0 -167 -49 -309.5t-131.5 -238t-191.5 -149t-230 -53.5q-95 0 -185 33.5t-165 99t-131.5 155.5t-88.5 209t-32 253q0 167 49 309t132 237.5t192 149t229 53.5q121 0 230 -53.5t191.5 -149 t131.5 -237.5t49 -309zM672 -16q372 0 372 733t-372 733q-373 0 -373 -735q0 -731 373 -731z" />
<glyph unicode="&#xd5;" horiz-adv-x="1343" d="M487 1640q29 103 99 103q28 0 53.5 -18t41.5 -39.5t37.5 -39.5t43.5 -18t38 15t22 29t14 40l16 -8q-27 -102 -96 -102q-28 0 -54 18t-42 39t-37.5 39t-42.5 18q-30 0 -46 -21.5t-28 -62.5zM1274 717q0 -167 -49 -309.5t-131.5 -238t-191.5 -149t-230 -53.5 q-95 0 -185 33.5t-165 99t-131.5 155.5t-88.5 209t-32 253q0 167 49 309t132 237.5t192 149t229 53.5q121 0 230 -53.5t191.5 -149t131.5 -237.5t49 -309zM672 -16q372 0 372 733t-372 733q-373 0 -373 -735q0 -731 373 -731z" />
<glyph unicode="&#xd6;" horiz-adv-x="1343" d="M584 1612q-22 0 -38 16.5t-16 38.5t16 38.5t38 16.5q20 0 35.5 -16.5t15.5 -38.5t-15.5 -38.5t-35.5 -16.5zM760 1612q-20 0 -35.5 16.5t-15.5 38.5t15.5 38.5t35.5 16.5q22 0 37.5 -16.5t15.5 -38.5t-15.5 -38.5t-37.5 -16.5zM1274 717q0 -167 -49 -309.5t-131.5 -238 t-191.5 -149t-230 -53.5q-95 0 -185 33.5t-165 99t-131.5 155.5t-88.5 209t-32 253q0 167 49 309t132 237.5t192 149t229 53.5q121 0 230 -53.5t191.5 -149t131.5 -237.5t49 -309zM672 -16q372 0 372 733t-372 733q-373 0 -373 -735q0 -731 373 -731z" />
<glyph unicode="&#xd7;" horiz-adv-x="393" d="M352 881l-141 -164l141 -166l-14 -14l-141 163l-140 -163l-16 14l141 166l-141 164l16 16l140 -164l141 164z" />
<glyph unicode="&#xd8;" horiz-adv-x="1343" d="M1034 1323q111 -100 175.5 -256.5t64.5 -349.5q0 -167 -49 -309.5t-131.5 -238t-191.5 -149t-230 -53.5q-192 0 -344 127l-74 -127h-25l82 142q-112 100 -176.5 256.5t-64.5 351.5q0 167 49 309t132 237.5t192 149t229 53.5q196 0 346 -129l74 129h24zM299 715 q0 -321 72 -500l592 1026q-92 209 -291 209q-373 0 -373 -735zM672 -16q372 0 372 733q0 320 -71 500l-592 -1027q96 -206 291 -206z" />
<glyph unicode="&#xd9;" horiz-adv-x="1337" d="M907 1561v-19l-301 240h74zM938 1434h360v-17h-168v-966q0 -79 -10.5 -144.5t-40 -130.5t-77.5 -109.5t-128.5 -72t-187.5 -27.5q-71 0 -133 11.5t-127.5 44t-112 84.5t-76.5 141t-30 205v964h-168v17h541v-17h-168v-1007q0 -120 20 -202t60.5 -128.5t94.5 -66t130 -19.5 q189 0 289 110t100 312v1001h-168v17z" />
<glyph unicode="&#xda;" horiz-adv-x="1337" d="M834 1782h73l-301 -240v19zM938 1434h360v-17h-168v-966q0 -79 -10.5 -144.5t-40 -130.5t-77.5 -109.5t-128.5 -72t-187.5 -27.5q-71 0 -133 11.5t-127.5 44t-112 84.5t-76.5 141t-30 205v964h-168v17h541v-17h-168v-1007q0 -120 20 -202t60.5 -128.5t94.5 -66t130 -19.5 q189 0 289 110t100 312v1001h-168v17z" />
<glyph unicode="&#xdb;" horiz-adv-x="1337" d="M758 1733l-146 -185h-22l158 234h22l158 -234h-23zM938 1434h360v-17h-168v-966q0 -79 -10.5 -144.5t-40 -130.5t-77.5 -109.5t-128.5 -72t-187.5 -27.5q-71 0 -133 11.5t-127.5 44t-112 84.5t-76.5 141t-30 205v964h-168v17h541v-17h-168v-1007q0 -120 20 -202 t60.5 -128.5t94.5 -66t130 -19.5q189 0 289 110t100 312v1001h-168v17z" />
<glyph unicode="&#xdc;" horiz-adv-x="1337" d="M670 1612q-22 0 -38 16.5t-16 38.5t16 38.5t38 16.5q20 0 35.5 -16.5t15.5 -38.5t-15.5 -38.5t-35.5 -16.5zM846 1612q-20 0 -35.5 16.5t-15.5 38.5t15.5 38.5t35.5 16.5q22 0 37.5 -16.5t15.5 -38.5t-15.5 -38.5t-37.5 -16.5zM938 1434h360v-17h-168v-966 q0 -79 -10.5 -144.5t-40 -130.5t-77.5 -109.5t-128.5 -72t-187.5 -27.5q-71 0 -133 11.5t-127.5 44t-112 84.5t-76.5 141t-30 205v964h-168v17h541v-17h-168v-1007q0 -120 20 -202t60.5 -128.5t94.5 -66t130 -19.5q189 0 289 110t100 312v1001h-168v17z" />
<glyph unicode="&#xdd;" horiz-adv-x="1161" d="M657 1782h74l-301 -240v19zM1040 1417l-317 -712v-689h162v-16h-527v16h160v668l-354 733h-135v17h489v-17h-135l326 -686l305 686h-170v17h289v-17h-93z" />
<glyph unicode="&#xde;" horiz-adv-x="1007" d="M543 328h-137v-312h161v-16h-528v16h162v1401h-162v17h528v-17h-161v-250h155q81 0 146 -21.5t118.5 -68t83 -129t29.5 -196.5q0 -206 -98 -315t-297 -109zM524 1147h-118v-799h108q76 0 119.5 29t67.5 113.5t24 240.5q0 110 -11.5 188.5t-29 122t-46 68t-54 31 t-60.5 6.5z" />
<glyph unicode="&#xdf;" horiz-adv-x="1107" d="M846 662q86 -71 116 -105q93 -105 93 -250q0 -154 -87.5 -247t-219.5 -93q-109 0 -178.5 62.5t-69.5 148.5q0 52 26.5 80.5t65.5 28.5q41 0 67.5 -31t26.5 -72q0 -28 -14 -48.5t-30 -29t-30 -20.5t-14 -27q0 -29 42.5 -52t111.5 -23q82 0 121.5 41.5t39.5 136.5 q0 40 -8 72.5t-19 57t-39.5 56.5t-51.5 54t-72 67q-51 45 -79 73.5t-53 62.5t-34.5 68.5t-9.5 76.5q0 50 14 92.5t42 78t52.5 59t61.5 52.5q5 4 33.5 26t39 31t32.5 32.5t31 42.5t17.5 48.5t8.5 61.5q0 57 -22.5 99.5t-59.5 65.5t-77.5 33.5t-84.5 10.5q-52 0 -94.5 -15.5 t-78 -49t-55.5 -95t-20 -145.5v-1162h117v-16h-475v16h161v992h-161v16h161v31q0 57 14 115.5t47 118.5t80.5 106t121.5 75t163 29q128 0 205.5 -58t77.5 -184q0 -47 -10.5 -86.5t-31 -70t-35.5 -47t-38 -37.5q-88 -78 -88 -150q0 -50 37 -95t113 -109z" />
<glyph unicode="&#xe0;" d="M465 1372h-59l215 -237l10 12zM834 -25q-86 0 -131.5 46t-55.5 145h-6q-7 -42 -19 -72.5t-38.5 -62t-76 -48t-120.5 -16.5q-147 0 -235.5 79t-88.5 214q0 90 42 158.5t118 110t176.5 62.5t223.5 21v168q0 140 -39.5 200t-112.5 60q-88 0 -148.5 -20t-60.5 -51 q0 -11 4 -20.5t12 -17t13.5 -11.5t16 -10.5t11.5 -6.5q41 -27 41 -90q0 -55 -27.5 -87t-74.5 -32q-51 0 -83 37t-32 100q0 107 91.5 166.5t246.5 59.5q59 0 105 -7.5t91.5 -29.5t75 -58t48 -96.5t18.5 -142.5v-660q0 -63 60 -63q36 0 63 39.5t43 85.5l16 -6 q-32 -86 -68.5 -115t-98.5 -29zM414 -12q61 0 104 18.5t65 51t31 66.5t9 75v397q-103 0 -165.5 -13t-104 -48.5t-57 -93t-15.5 -150.5q0 -303 133 -303z" />
<glyph unicode="&#xe1;" d="M571 1372l-165 -225l10 -12l215 237h-60zM834 -25q-86 0 -131.5 46t-55.5 145h-6q-7 -42 -19 -72.5t-38.5 -62t-76 -48t-120.5 -16.5q-147 0 -235.5 79t-88.5 214q0 90 42 158.5t118 110t176.5 62.5t223.5 21v168q0 140 -39.5 200t-112.5 60q-88 0 -148.5 -20t-60.5 -51 q0 -11 4 -20.5t12 -17t13.5 -11.5t16 -10.5t11.5 -6.5q41 -27 41 -90q0 -55 -27.5 -87t-74.5 -32q-51 0 -83 37t-32 100q0 107 91.5 166.5t246.5 59.5q59 0 105 -7.5t91.5 -29.5t75 -58t48 -96.5t18.5 -142.5v-660q0 -63 60 -63q36 0 63 39.5t43 85.5l16 -6 q-32 -86 -68.5 -115t-98.5 -29zM414 -12q61 0 104 18.5t65 51t31 66.5t9 75v397q-103 0 -165.5 -13t-104 -48.5t-57 -93t-15.5 -150.5q0 -303 133 -303z" />
<glyph unicode="&#xe2;" d="M348 1139l158 233h22l158 -233h-22l-148 184l-145 -184h-23zM834 -25q-86 0 -131.5 46t-55.5 145h-6q-7 -42 -19 -72.5t-38.5 -62t-76 -48t-120.5 -16.5q-147 0 -235.5 79t-88.5 214q0 90 42 158.5t118 110t176.5 62.5t223.5 21v168q0 140 -39.5 200t-112.5 60 q-88 0 -148.5 -20t-60.5 -51q0 -11 4 -20.5t12 -17t13.5 -11.5t16 -10.5t11.5 -6.5q41 -27 41 -90q0 -55 -27.5 -87t-74.5 -32q-51 0 -83 37t-32 100q0 107 91.5 166.5t246.5 59.5q59 0 105 -7.5t91.5 -29.5t75 -58t48 -96.5t18.5 -142.5v-660q0 -63 60 -63q36 0 63 39.5 t43 85.5l16 -6q-32 -86 -68.5 -115t-98.5 -29zM414 -12q61 0 104 18.5t65 51t31 66.5t9 75v397q-103 0 -165.5 -13t-104 -48.5t-57 -93t-15.5 -150.5q0 -303 133 -303z" />
<glyph unicode="&#xe3;" d="M332 1231q15 53 38.5 77.5t59.5 24.5q28 0 53.5 -18t41.5 -39t37.5 -39t43.5 -18t38 15t22 29t14 40l16 -9q-27 -102 -96 -102q-28 0 -54 18t-42 39.5t-37.5 39.5t-42.5 18q-30 0 -46 -21.5t-28 -62.5zM834 -25q-86 0 -131.5 46t-55.5 145h-6q-7 -42 -19 -72.5t-38.5 -62 t-76 -48t-120.5 -16.5q-147 0 -235.5 79t-88.5 214q0 90 42 158.5t118 110t176.5 62.5t223.5 21v168q0 140 -39.5 200t-112.5 60q-88 0 -148.5 -20t-60.5 -51q0 -11 4 -20.5t12 -17t13.5 -11.5t16 -10.5t11.5 -6.5q41 -27 41 -90q0 -55 -27.5 -87t-74.5 -32q-51 0 -83 37 t-32 100q0 107 91.5 166.5t246.5 59.5q59 0 105 -7.5t91.5 -29.5t75 -58t48 -96.5t18.5 -142.5v-660q0 -63 60 -63q36 0 63 39.5t43 85.5l16 -6q-32 -86 -68.5 -115t-98.5 -29zM414 -12q61 0 104 18.5t65 51t31 66.5t9 75v397q-103 0 -165.5 -13t-104 -48.5t-57 -93 t-15.5 -150.5q0 -303 133 -303z" />
<glyph unicode="&#xe4;" d="M428 1202q-22 0 -37.5 16.5t-15.5 38.5t16 39t37 17q20 0 35.5 -17t15.5 -39t-15.5 -38.5t-35.5 -16.5zM604 1202q-20 0 -35.5 16.5t-15.5 38.5t15.5 39t35.5 17q21 0 37 -17t16 -39t-15.5 -38.5t-37.5 -16.5zM834 -25q-86 0 -131.5 46t-55.5 145h-6q-7 -42 -19 -72.5 t-38.5 -62t-76 -48t-120.5 -16.5q-147 0 -235.5 79t-88.5 214q0 90 42 158.5t118 110t176.5 62.5t223.5 21v168q0 140 -39.5 200t-112.5 60q-88 0 -148.5 -20t-60.5 -51q0 -11 4 -20.5t12 -17t13.5 -11.5t16 -10.5t11.5 -6.5q41 -27 41 -90q0 -55 -27.5 -87t-74.5 -32 q-51 0 -83 37t-32 100q0 107 91.5 166.5t246.5 59.5q59 0 105 -7.5t91.5 -29.5t75 -58t48 -96.5t18.5 -142.5v-660q0 -63 60 -63q36 0 63 39.5t43 85.5l16 -6q-32 -86 -68.5 -115t-98.5 -29zM414 -12q61 0 104 18.5t65 51t31 66.5t9 75v397q-103 0 -165.5 -13t-104 -48.5 t-57 -93t-15.5 -150.5q0 -303 133 -303z" />
<glyph unicode="&#xe5;" d="M514 1135q-43 0 -73.5 32t-30.5 90t30.5 91.5t73.5 33.5q41 0 72.5 -33.5t31.5 -91.5t-31 -90t-73 -32zM514 1155q34 0 57 26.5t23 75.5t-23 77t-57 28t-57 -28t-23 -77t23 -75.5t57 -26.5zM834 -25q-86 0 -131.5 46t-55.5 145h-6q-7 -42 -19 -72.5t-38.5 -62t-76 -48 t-120.5 -16.5q-147 0 -235.5 79t-88.5 214q0 90 42 158.5t118 110t176.5 62.5t223.5 21v168q0 140 -39.5 200t-112.5 60q-88 0 -148.5 -20t-60.5 -51q0 -11 4 -20.5t12 -17t13.5 -11.5t16 -10.5t11.5 -6.5q41 -27 41 -90q0 -55 -27.5 -87t-74.5 -32q-51 0 -83 37t-32 100 q0 107 91.5 166.5t246.5 59.5q59 0 105 -7.5t91.5 -29.5t75 -58t48 -96.5t18.5 -142.5v-660q0 -63 60 -63q36 0 63 39.5t43 85.5l16 -6q-32 -86 -68.5 -115t-98.5 -29zM414 -12q61 0 104 18.5t65 51t31 66.5t9 75v397q-103 0 -165.5 -13t-104 -48.5t-57 -93t-15.5 -150.5 q0 -303 133 -303z" />
<glyph unicode="&#xe6;" horiz-adv-x="1478" d="M1077 -12q105 0 184.5 64t114.5 149l19 -11q-20 -38 -41 -68t-52 -60t-66.5 -50t-84.5 -32.5t-107 -12.5q-217 0 -331 180q-108 -180 -326 -180q-147 0 -235.5 79t-88.5 214q0 72 28 127t76.5 90.5t121 57.5t153.5 31t181 9v205q0 58 -7 101t-24.5 81t-52 58t-84.5 20 q-86 0 -139.5 -28.5t-53.5 -61.5q0 -31 10.5 -52.5t23.5 -31.5t23.5 -30t10.5 -48q0 -45 -24 -74.5t-68 -29.5t-71.5 31t-27.5 92q0 110 87.5 180t256.5 70q97 0 164.5 -29.5t102.5 -107.5q110 137 274 137q176 0 280.5 -134t104.5 -370h-90h-105h-376v-18q0 -299 54 -423 t185 -124zM1028 1044q-101 0 -144 -106.5t-46 -368.5h376q-1 188 -20 290.5t-57.5 143.5t-108.5 41zM420 -12q98 0 170 52t112 124q-81 141 -81 350q0 27 2 41q-75 0 -124 -3.5t-93.5 -14t-69.5 -29t-43.5 -50t-25.5 -74.5t-7 -105q0 -136 40 -213.5t120 -77.5z" />
<glyph unicode="&#xe7;" horiz-adv-x="921" d="M518 -12q50 0 95.5 14.5t78 36.5t60 51t45 56.5t28.5 54.5l19 -11q-17 -32 -31.5 -54t-46 -57t-65 -57t-86 -38.5t-113.5 -16.5h-21l-35 -53q31 0 61.5 -6.5t62.5 -21.5t51.5 -46.5t19.5 -75.5q0 -72 -44.5 -113.5t-115.5 -41.5q-73 0 -111 44.5t-38 117.5h16 q0 -63 30 -102.5t83 -39.5q36 0 60 20t24 58q0 111 -183 111l97 151q-84 7 -152 43.5t-111 89.5t-72.5 122t-41.5 137.5t-12 138.5t14 143t47.5 148.5t83 133.5t127 95t172.5 37q143 0 236.5 -74.5t93.5 -175.5q0 -58 -30.5 -103t-90.5 -45q-55 0 -86 38.5t-31 88.5 q0 30 12 52.5t27 34t27 29.5t12 40q0 49 -51.5 75.5t-120.5 26.5q-131 0 -178 -109t-47 -398q0 -213 23 -331.5t72 -168t136 -49.5z" />
<glyph unicode="&#xe8;" horiz-adv-x="927" d="M588 1147l-10 -12l-216 237h60zM526 -12q105 0 184.5 64t114.5 149l19 -11q-26 -48 -53.5 -84t-68.5 -69.5t-98.5 -51.5t-129.5 -18q-105 0 -187.5 44t-133.5 120t-77 173.5t-26 209.5q0 92 24.5 184t71 174t127 133.5t180.5 51.5q176 0 280.5 -134t104.5 -370h-90h-104 h-377v-18q0 -299 54 -423t185 -124zM477 1044q-101 0 -144 -106.5t-46 -368.5h377q-1 188 -20 290.5t-58 143.5t-109 41z" />
<glyph unicode="&#xe9;" horiz-adv-x="927" d="M588 1372l-215 -237l-11 12l166 225h60zM526 -12q105 0 184.5 64t114.5 149l19 -11q-26 -48 -53.5 -84t-68.5 -69.5t-98.5 -51.5t-129.5 -18q-105 0 -187.5 44t-133.5 120t-77 173.5t-26 209.5q0 92 24.5 184t71 174t127 133.5t180.5 51.5q176 0 280.5 -134t104.5 -370 h-90h-104h-377v-18q0 -299 54 -423t185 -124zM477 1044q-101 0 -144 -106.5t-46 -368.5h377q-1 188 -20 290.5t-58 143.5t-109 41z" />
<glyph unicode="&#xea;" horiz-adv-x="927" d="M473 1323l-145 -184h-23l158 233h22l158 -233h-22zM526 -12q105 0 184.5 64t114.5 149l19 -11q-26 -48 -53.5 -84t-68.5 -69.5t-98.5 -51.5t-129.5 -18q-105 0 -187.5 44t-133.5 120t-77 173.5t-26 209.5q0 92 24.5 184t71 174t127 133.5t180.5 51.5q176 0 280.5 -134 t104.5 -370h-90h-104h-377v-18q0 -299 54 -423t185 -124zM477 1044q-101 0 -144 -106.5t-46 -368.5h377q-1 188 -20 290.5t-58 143.5t-109 41z" />
<glyph unicode="&#xeb;" horiz-adv-x="927" d="M385 1202q-22 0 -37.5 16.5t-15.5 38.5t16 39t37 17q20 0 35.5 -17t15.5 -39t-15.5 -38.5t-35.5 -16.5zM561 1202q-20 0 -35.5 16.5t-15.5 38.5t15.5 39t35.5 17q21 0 37 -17t16 -39t-15.5 -38.5t-37.5 -16.5zM526 -12q105 0 184.5 64t114.5 149l19 -11 q-26 -48 -53.5 -84t-68.5 -69.5t-98.5 -51.5t-129.5 -18q-105 0 -187.5 44t-133.5 120t-77 173.5t-26 209.5q0 92 24.5 184t71 174t127 133.5t180.5 51.5q176 0 280.5 -134t104.5 -370h-90h-104h-377v-18q0 -299 54 -423t185 -124zM477 1044q-101 0 -144 -106.5t-46 -368.5 h377q-1 188 -20 290.5t-58 143.5t-109 41z" />
<glyph unicode="&#xec;" horiz-adv-x="561" d="M233 1458h-59l215 -237l10 12zM29 1008v16h252q65 0 98 16v-1024h153v-16h-503v16h153v992h-153z" />
<glyph unicode="&#xed;" horiz-adv-x="561" d="M336 1460l-166 -225l10 -12l215 237h-59zM29 1008v16h252q65 0 98 16v-1024h153v-16h-503v16h153v992h-153z" />
<glyph unicode="&#xee;" horiz-adv-x="561" d="M113 1225l157 233h23l158 -233h-23l-147 184l-146 -184h-22zM29 1008v16h252q65 0 98 16v-1024h153v-16h-503v16h153v992h-153z" />
<glyph unicode="&#xef;" horiz-adv-x="561" d="M193 1286q-22 0 -38 16.5t-16 38.5t16 39t38 17q20 0 35.5 -17t15.5 -39t-15.5 -38.5t-35.5 -16.5zM369 1286q-20 0 -36 16.5t-16 38.5t16 39t36 17q21 0 37 -17t16 -39t-15.5 -38.5t-37.5 -16.5zM29 1008v16h252q65 0 98 16v-1024h153v-16h-503v16h153v992h-153z" />
<glyph unicode="&#xf0;" horiz-adv-x="976" d="M664 1372q243 -222 243 -778q0 -293 -112 -460t-297 -167q-187 0 -307.5 145.5t-120.5 399.5t116.5 399.5t302.5 145.5q71 0 115.5 -43.5t79.5 -124.5h8q0 248 -100 416l-109 -99l-10 13l109 100q-48 78 -113.5 121t-140.5 43l2 16q188 0 321 -115l103 95l12 -13z M498 -20q105 0 161 154t56 458q0 119 -25 220t-77.5 166.5t-123.5 65.5q-73 0 -116 -47t-64.5 -163.5t-21.5 -319.5q0 -202 24 -320.5t69 -166t118 -47.5z" />
<glyph unicode="&#xf1;" horiz-adv-x="1122" d="M469 1307q-30 0 -46 -21.5t-28 -62.5l-18 8q15 53 38.5 77.5t59.5 24.5q28 0 53.5 -18t41.5 -39t37.5 -39t43.5 -18t38 15t22 29t14 40l16 -9q-27 -102 -96 -102q-28 0 -54 18t-42 39.5t-37.5 39.5t-42.5 18zM940 16h154v-16h-484v16h133v713q0 171 -28 241t-99 70 q-81 0 -134 -59t-76 -150.5t-27 -216.5v-598h135v-16h-485v16h153v992h-153v16h252q65 0 98 16v-233h4q26 123 85 186.5t161 63.5q44 0 85 -9t83.5 -34t73 -64t50 -103t19.5 -147v-684z" />
<glyph unicode="&#xf2;" horiz-adv-x="995" d="M446 1372h-59l215 -237l10 12zM498 -33q-187 0 -307.5 146t-120.5 399t120.5 399t307.5 146q186 0 307 -146.5t121 -398.5t-121 -398.5t-307 -146.5zM498 -20q73 0 118 47.5t69 165.5t24 319t-24 319t-69 165.5t-118 47.5t-118 -47.5t-69 -165.5t-24 -319t24 -319 t69 -165.5t118 -47.5z" />
<glyph unicode="&#xf3;" horiz-adv-x="995" d="M553 1372l-166 -225l10 -12l215 237h-59zM498 -33q-187 0 -307.5 146t-120.5 399t120.5 399t307.5 146q186 0 307 -146.5t121 -398.5t-121 -398.5t-307 -146.5zM498 -20q73 0 118 47.5t69 165.5t24 319t-24 319t-69 165.5t-118 47.5t-118 -47.5t-69 -165.5t-24 -319 t24 -319t69 -165.5t118 -47.5z" />
<glyph unicode="&#xf4;" horiz-adv-x="995" d="M330 1139l157 233h23l158 -233h-23l-147 184l-146 -184h-22zM498 -33q-187 0 -307.5 146t-120.5 399t120.5 399t307.5 146q186 0 307 -146.5t121 -398.5t-121 -398.5t-307 -146.5zM498 -20q73 0 118 47.5t69 165.5t24 319t-24 319t-69 165.5t-118 47.5t-118 -47.5 t-69 -165.5t-24 -319t24 -319t69 -165.5t118 -47.5z" />
<glyph unicode="&#xf5;" horiz-adv-x="995" d="M313 1231q15 53 38.5 77.5t60.5 24.5q28 0 53.5 -18t41.5 -39t37.5 -39t43.5 -18t38 15t22 29t14 40l16 -9q-27 -102 -96 -102q-28 0 -54 18t-42 39.5t-37.5 39.5t-42.5 18q-30 0 -46 -21.5t-28 -62.5zM498 -33q-187 0 -307.5 146t-120.5 399t120.5 399t307.5 146 q186 0 307 -146.5t121 -398.5t-121 -398.5t-307 -146.5zM498 -20q73 0 118 47.5t69 165.5t24 319t-24 319t-69 165.5t-118 47.5t-118 -47.5t-69 -165.5t-24 -319t24 -319t69 -165.5t118 -47.5z" />
<glyph unicode="&#xf6;" horiz-adv-x="995" d="M410 1202q-22 0 -38 16.5t-16 38.5t16 39t38 17q20 0 35.5 -17t15.5 -39t-15.5 -38.5t-35.5 -16.5zM586 1202q-20 0 -35.5 16.5t-15.5 38.5t15.5 39t35.5 17q21 0 37 -17t16 -39t-15.5 -38.5t-37.5 -16.5zM498 -33q-187 0 -307.5 146t-120.5 399t120.5 399t307.5 146 q186 0 307 -146.5t121 -398.5t-121 -398.5t-307 -146.5zM498 -20q73 0 118 47.5t69 165.5t24 319t-24 319t-69 165.5t-118 47.5t-118 -47.5t-69 -165.5t-24 -319t24 -319t69 -165.5t118 -47.5z" />
<glyph unicode="&#xf7;" horiz-adv-x="520" d="M262 870q-15 0 -26 11t-11 28t10.5 27t26.5 10q14 0 24.5 -10t10.5 -27t-10.5 -28t-24.5 -11zM41 727h438v-20h-438v20zM262 487q-16 0 -26.5 10.5t-10.5 28.5q0 15 11 26t26 11q14 0 24.5 -11t10.5 -26q0 -18 -10.5 -28.5t-24.5 -10.5z" />
<glyph unicode="&#xf8;" horiz-adv-x="995" d="M758 958q79 -70 123.5 -184t44.5 -262q0 -252 -121 -398.5t-307 -146.5q-140 0 -244 84l-47 -84h-25l56 99q-79 70 -123.5 184t-44.5 262q0 253 120.5 399t307.5 146q138 0 245 -84l48 84h22zM287 512q0 -191 22 -317l371 663q-24 99 -68.5 142.5t-113.5 43.5 q-73 0 -118 -47.5t-69 -165.5t-24 -319zM498 -20q73 0 118 47.5t69 165.5t24 319q0 187 -23 315l-371 -663q24 -98 69 -141t114 -43z" />
<glyph unicode="&#xf9;" horiz-adv-x="1173" d="M702 1147l-10 -12l-215 237h60zM991 16h154v-16h-350v201h-7q-15 -43 -27 -70.5t-35 -61.5t-49.5 -54t-69 -34t-95.5 -14q-66 0 -121.5 17.5t-104 55t-76.5 107.5t-28 166v695h-153v16h350v-690q0 -161 42 -253.5t114 -92.5q49 0 88 17.5t64.5 43t47.5 67.5t34 78t26 87 v727h-136v16h234q65 0 98 16v-1024z" />
<glyph unicode="&#xfa;" horiz-adv-x="1173" d="M702 1372l-215 -237l-10 12l166 225h59zM991 16h154v-16h-350v201h-7q-15 -43 -27 -70.5t-35 -61.5t-49.5 -54t-69 -34t-95.5 -14q-66 0 -121.5 17.5t-104 55t-76.5 107.5t-28 166v695h-153v16h350v-690q0 -161 42 -253.5t114 -92.5q49 0 88 17.5t64.5 43t47.5 67.5 t34 78t26 87v727h-136v16h234q65 0 98 16v-1024z" />
<glyph unicode="&#xfb;" horiz-adv-x="1173" d="M588 1323l-146 -184h-22l158 233h22l158 -233h-23zM991 16h154v-16h-350v201h-7q-15 -43 -27 -70.5t-35 -61.5t-49.5 -54t-69 -34t-95.5 -14q-66 0 -121.5 17.5t-104 55t-76.5 107.5t-28 166v695h-153v16h350v-690q0 -161 42 -253.5t114 -92.5q49 0 88 17.5t64.5 43 t47.5 67.5t34 78t26 87v727h-136v16h234q65 0 98 16v-1024z" />
<glyph unicode="&#xfc;" horiz-adv-x="1173" d="M500 1202q-22 0 -38 16.5t-16 38.5t16 39t38 17q20 0 35.5 -17t15.5 -39t-15.5 -38.5t-35.5 -16.5zM676 1202q-20 0 -35.5 16.5t-15.5 38.5t15.5 39t35.5 17q21 0 37 -17t16 -39t-15.5 -38.5t-37.5 -16.5zM991 16h154v-16h-350v201h-7q-15 -43 -27 -70.5t-35 -61.5 t-49.5 -54t-69 -34t-95.5 -14q-66 0 -121.5 17.5t-104 55t-76.5 107.5t-28 166v695h-153v16h350v-690q0 -161 42 -253.5t114 -92.5q49 0 88 17.5t64.5 43t47.5 67.5t34 78t26 87v727h-136v16h234q65 0 98 16v-1024z" />
<glyph unicode="&#xfd;" d="M631 1372l-215 -237l-10 12l165 225h60zM1001 1024v-16h-112q-51 -314 -114 -569t-144 -463.5t-183.5 -323.5t-218.5 -115q-86 0 -154.5 63t-68.5 142q0 53 28.5 84t67.5 31q44 0 67.5 -27t23.5 -72q0 -26 -13.5 -45t-30 -27t-30 -20.5t-13.5 -27.5q0 -30 39 -55t84 -25 q181 0 332 317l-428 1133h-113v16h435v-16h-109l320 -867q114 346 196 867h-131v16h270z" />
<glyph unicode="&#xfe;" horiz-adv-x="1034" d="M29 1499h233q63 0 98 17v-650h7q27 98 78 144.5t137 46.5q76 0 143.5 -32t121.5 -94.5t86 -165.5t32 -233q0 -251 -107.5 -408t-279.5 -157q-89 0 -132.5 41.5t-74.5 132.5h-11v-522h138v-16h-469v16h135v1864h-135v16zM348 520q0 -279 52 -407.5t153 -128.5 q102 0 148.5 130t46.5 423q0 119 -8 204t-28.5 156t-59.5 107t-97 36q-56 0 -96.5 -35.5t-64.5 -104.5t-35 -162.5t-11 -217.5z" />
<glyph unicode="&#xff;" d="M428 1202q-22 0 -37.5 16.5t-15.5 38.5t16 39t37 17q20 0 35.5 -17t15.5 -39t-15.5 -38.5t-35.5 -16.5zM604 1202q-20 0 -35.5 16.5t-15.5 38.5t15.5 39t35.5 17q21 0 37 -17t16 -39t-15.5 -38.5t-37.5 -16.5zM1001 1024v-16h-112q-51 -314 -114 -569t-144 -463.5 t-183.5 -323.5t-218.5 -115q-86 0 -154.5 63t-68.5 142q0 53 28.5 84t67.5 31q44 0 67.5 -27t23.5 -72q0 -26 -13.5 -45t-30 -27t-30 -20.5t-13.5 -27.5q0 -30 39 -55t84 -25q181 0 332 317l-428 1133h-113v16h435v-16h-109l320 -867q114 346 196 867h-131v16h270z" />
<glyph unicode="&#x152;" horiz-adv-x="1718" d="M1636 492h13v-492h-785q-90 -33 -196 -33q-266 0 -432 205t-166 537q0 341 168.5 549t439.5 208q96 0 190 -32h734v-357h-13q-2 39 -4.5 62.5t-10 64t-19.5 66t-34 56t-52 48.5t-76 30.5t-103 12.5h-223v-669h170q26 0 47 10t35.5 24.5t26.5 41t19 48.5t13.5 59t9.5 61 t7 65h14v-641h-14q-4 41 -7 65t-9.5 61.5t-13.5 59.5t-19 49t-26.5 41.5t-35.5 24.5t-47 10h-170v-711h248q48 0 88 9.5t69 25t53 41t40 49t28 59.5t18.5 63t11.5 67.5t7 65t4 63.5q1 22 2 33zM672 -16q77 0 133.5 36.5t56.5 92.5v1208q0 55 -56 92t-134 37 q-373 0 -373 -735q0 -370 96 -550.5t277 -180.5z" />
<glyph unicode="&#x153;" horiz-adv-x="1568" d="M1167 -12q105 0 184.5 64t114.5 149l19 -11q-26 -48 -53.5 -84t-68.5 -69.5t-98.5 -51.5t-129.5 -18q-203 0 -320 162q-119 -162 -317 -162q-187 0 -307.5 146t-120.5 399t120.5 399t307.5 146q202 0 321 -166q112 166 295 166q176 0 280.5 -134t104.5 -370h-90h-104 h-377v-18q0 -299 54 -423t185 -124zM498 -20q73 0 118 47.5t69 165.5t24 319t-24 319t-69 165.5t-118 47.5t-118 -47.5t-69 -165.5t-24 -319t24 -319t69 -165.5t118 -47.5zM1118 1044q-101 0 -144 -106.5t-46 -368.5h377q-1 188 -20 290.5t-58 143.5t-109 41z" />
<glyph unicode="&#x178;" horiz-adv-x="1161" d="M494 1612q-22 0 -38 16.5t-16 38.5t16 38.5t38 16.5q20 0 35.5 -16.5t15.5 -38.5t-15.5 -38.5t-35.5 -16.5zM670 1612q-20 0 -36 16.5t-16 38.5t16 38.5t36 16.5q22 0 37.5 -16.5t15.5 -38.5t-15.5 -38.5t-37.5 -16.5zM1040 1417l-317 -712v-689h162v-16h-527v16h160v668 l-354 733h-135v17h489v-17h-135l326 -686l305 686h-170v17h289v-17h-93z" />
<glyph unicode="&#x2c6;" horiz-adv-x="501" d="M82 1405l158 233h22l158 -233h-23l-147 184l-146 -184h-22z" />
<glyph unicode="&#x2dc;" horiz-adv-x="528" d="M82 1497q15 53 38.5 77.5t59.5 24.5q28 0 53.5 -18t41.5 -39t37.5 -39t43.5 -18t38 15t22 29t14 40l16 -8q-27 -103 -96 -103q-28 0 -54 18t-42 39.5t-37.5 39.5t-42.5 18q-30 0 -46 -21.5t-28 -62.5z" />
<glyph unicode="&#x2000;" horiz-adv-x="896" />
<glyph unicode="&#x2001;" horiz-adv-x="1792" />
<glyph unicode="&#x2002;" horiz-adv-x="896" />
<glyph unicode="&#x2003;" horiz-adv-x="1792" />
<glyph unicode="&#x2004;" horiz-adv-x="597" />
<glyph unicode="&#x2005;" horiz-adv-x="448" />
<glyph unicode="&#x2006;" horiz-adv-x="298" />
<glyph unicode="&#x2007;" horiz-adv-x="298" />
<glyph unicode="&#x2008;" horiz-adv-x="224" />
<glyph unicode="&#x2009;" horiz-adv-x="358" />
<glyph unicode="&#x200a;" horiz-adv-x="99" />
<glyph unicode="&#x2010;" horiz-adv-x="489" d="M70 543h350v-21h-350v21z" />
<glyph unicode="&#x2011;" horiz-adv-x="489" d="M70 543h350v-21h-350v21z" />
<glyph unicode="&#x2012;" horiz-adv-x="489" d="M70 543h350v-21h-350v21z" />
<glyph unicode="&#x2013;" horiz-adv-x="843" d="M41 543h762v-21h-762v21z" />
<glyph unicode="&#x2014;" horiz-adv-x="1368" d="M41 543h1286v-21h-1286v21z" />
<glyph unicode="&#x2018;" horiz-adv-x="423" d="M70 1219q0 50 14.5 97.5t45.5 95.5t87 90t133 71v-14q-52 -22 -99.5 -56.5t-86 -80t-54.5 -102.5t-1 -114h8q17 28 47.5 44t64.5 16q61 0 93 -39t32 -97q0 -60 -37 -95.5t-86 -35.5q-74 0 -117.5 63.5t-43.5 156.5z" />
<glyph unicode="&#x2019;" horiz-adv-x="423" d="M354 1313q0 -50 -14.5 -98t-45.5 -96t-87 -90t-133 -71v15q52 22 99.5 56.5t86 79.5t54.5 102t1 114h-8q-17 -28 -47.5 -43.5t-64.5 -15.5q-61 0 -93 38.5t-32 96.5q0 60 37 95.5t86 35.5q74 0 117.5 -63t43.5 -156z" />
<glyph unicode="&#x201a;" horiz-adv-x="423" d="M354 43q0 -50 -14.5 -97.5t-45.5 -95.5t-87 -90t-133 -71v14q52 22 99.5 56.5t86 79.5t54.5 102t1 114h-8q-17 -28 -47.5 -43.5t-64.5 -15.5q-61 0 -93 38.5t-32 96.5q0 60 37 95.5t86 35.5q74 0 117.5 -63t43.5 -156z" />
<glyph unicode="&#x201c;" horiz-adv-x="813" d="M70 1219q0 50 14.5 97.5t45.5 95.5t87 90t133 71v-14q-52 -22 -99.5 -56.5t-86 -80t-54.5 -102.5t-1 -114h8q17 28 47.5 44t64.5 16q61 0 93 -39t32 -97q0 -60 -37 -95.5t-86 -35.5q-74 0 -117.5 63.5t-43.5 156.5zM459 1219q0 50 14.5 97.5t45.5 95.5t87 90t133 71v-14 q-52 -22 -99.5 -56.5t-86 -80t-54.5 -102.5t-1 -114h8q17 28 47.5 44t64.5 16q61 0 93 -39t32 -97q0 -60 -36.5 -95.5t-85.5 -35.5q-74 0 -118 63.5t-44 156.5z" />
<glyph unicode="&#x201d;" horiz-adv-x="813" d="M354 1313q0 -50 -14.5 -98t-45.5 -96t-87 -90t-133 -71v15q52 22 99.5 56.5t86 79.5t54.5 102t1 114h-8q-17 -28 -47.5 -43.5t-64.5 -15.5q-61 0 -93 38.5t-32 96.5q0 60 37 95.5t86 35.5q74 0 117.5 -63t43.5 -156zM743 1313q0 -50 -14.5 -98t-45.5 -96t-87 -90 t-133 -71v15q52 22 99.5 56.5t86.5 79.5t55 102t1 114h-9q-17 -28 -47.5 -43.5t-64.5 -15.5q-61 0 -93 38.5t-32 96.5q0 60 37 95.5t86 35.5q74 0 117.5 -63t43.5 -156z" />
<glyph unicode="&#x201e;" horiz-adv-x="813" d="M354 43q0 -50 -14.5 -97.5t-45.5 -95.5t-87 -90t-133 -71v14q52 22 99.5 56.5t86 79.5t54.5 102t1 114h-8q-17 -28 -47.5 -43.5t-64.5 -15.5q-61 0 -93 38.5t-32 96.5q0 60 37 95.5t86 35.5q74 0 117.5 -63t43.5 -156zM743 43q0 -50 -14.5 -97.5t-45.5 -95.5t-87 -90 t-133 -71v14q52 22 99.5 56.5t86.5 79.5t55 102t1 114h-9q-17 -28 -47.5 -43.5t-64.5 -15.5q-61 0 -93 38.5t-32 96.5q0 60 37 95.5t86 35.5q74 0 117.5 -63t43.5 -156z" />
<glyph unicode="&#x2022;" horiz-adv-x="540" d="M270 307q-81 0 -137.5 58.5t-56.5 146.5t56.5 146.5t137.5 58.5t138 -58.5t57 -146.5t-57 -146.5t-138 -58.5z" />
<glyph unicode="&#x2026;" horiz-adv-x="1093" d="M182 -16q-48 0 -84.5 37t-36.5 90t36.5 90t84.5 37t84.5 -37t36.5 -90t-36.5 -90t-84.5 -37zM547 -16q-48 0 -84.5 37t-36.5 90t36.5 90t84.5 37t84.5 -37t36.5 -90t-36.5 -90t-84.5 -37zM911 -16q-48 0 -84 37t-36 90t36 90t84 37t84.5 -37t36.5 -90t-36.5 -90 t-84.5 -37z" />
<glyph unicode="&#x202f;" horiz-adv-x="358" />
<glyph unicode="&#x2039;" horiz-adv-x="583" d="M86 526l406 -366l6 16l-275 352l275 353l-6 16l-406 -367v-4z" />
<glyph unicode="&#x203a;" horiz-adv-x="583" d="M498 526v4l-406 367l-6 -16l274 -353l-274 -352l6 -16z" />
<glyph unicode="&#x205f;" horiz-adv-x="448" />
<glyph unicode="&#x20ac;" horiz-adv-x="1079" d="M991 166l15 -8q-54 -93 -140 -142t-194 -49q-223 0 -365 173.5t-164 469.5h-102v21h100q-2 25 -2 78q0 32 4 94h-102v20h102q25 293 167 468t364 175q48 0 91 -13t68 -28t49.5 -28t39.5 -13q20 0 33.5 11.5t27.5 38.5h14l-129 -355l-8 6q45 169 -9.5 267t-176.5 98 q-157 0 -228 -148t-79 -479h409l-8 -20h-401v-70q0 -69 2 -102h338l-9 -21h-329q11 -325 85 -475.5t224 -150.5q208 0 313 182z" />
<glyph unicode="&#x2122;" horiz-adv-x="1388" d="M575 1434v-174h-8q-4 71 -39.5 114t-128.5 43h-22v-684h80v-16h-295v16h82v684h-27q-162 0 -166 -157h-10v174h534zM1348 1417h-80v-684h80v-16h-293v16h80v653l-197 -669h-8l-197 669h-8v-653h86v-16h-190v16h81v684h-79v17h241l131 -461l135 461h218v-17z" />
<glyph unicode="&#x25fc;" horiz-adv-x="1024" d="M0 1024h1024v-1024h-1024v1024z" />
</font>
</defs>
</svg>
