<?xml version="1.0" standalone="no"?>
<!DOCTYPE svg PUBLIC "-//W3C//DTD SVG 1.1//EN" "http://www.w3.org/Graphics/SVG/1.1/DTD/svg11.dtd" >
<svg xmlns="http://www.w3.org/2000/svg">
<metadata></metadata>
<defs>
<font id="fnordtwenty-three_italic" horiz-adv-x="913" >
<font-face units-per-em="2048" ascent="1638" descent="-410" />
<missing-glyph horiz-adv-x="479" />
<glyph unicode="&#xfb01;" horiz-adv-x="987" d="M793 90q-3 -30 41 -34.5t79 14.5l-4 -25q-97 -61 -172 -61q-42 0 -63.5 29.5t-16.5 74.5l56 633q6 76 -60 76h-282l-70 -791q-5 -52 -14 -97t-27.5 -90t-44.5 -77t-65.5 -52t-88.5 -20q-83 0 -120 43t-31 92q2 27 16.5 43.5t40.5 16.5q29 0 49 -15t17 -47 q-1 -18 -13 -35.5t-12 -23.5q0 -7 3.5 -13.5t16 -13t33.5 -6.5q45 0 65.5 32.5t27.5 119.5l84 934h-105l17 51h92l10 129q15 169 109 270t229 101q63 0 114 -25t78.5 -61.5t41.5 -72.5t12 -63q-3 -31 -25 -52t-53 -21q-33 0 -53.5 21.5t-16.5 55.5q1 23 12 44.5t13 31.5 q0 12 -3.5 24t-15 30t-40 29t-70.5 11q-75 0 -125.5 -40t-57.5 -119l-26 -293h413q70 0 64 -76z" />
<glyph unicode="&#xfb02;" horiz-adv-x="978" d="M793 90q-3 -30 41 -34.5t79 14.5l-4 -25q-97 -61 -172 -61q-42 0 -63.5 29.5t-16.5 74.5l95 1075q4 50 -31.5 92.5t-118.5 42.5t-139.5 -51t-63.5 -139l-22 -260h188l-4 -51h-188l-72 -791q-5 -52 -14 -97t-27.5 -90t-44.5 -77t-65.5 -52t-88.5 -20q-83 0 -120 43t-31 92 q2 27 16.5 43.5t40.5 16.5q29 0 49 -15t17 -47q-1 -18 -13 -35.5t-12 -23.5q0 -7 3.5 -13.5t16 -13t33.5 -6.5q45 0 65.5 32.5t27.5 119.5l84 934h-105l17 51h92l8 104q15 171 113.5 283.5t244.5 112.5q101 0 162 -58q43 15 72 15q26 0 39.5 -17.5t11.5 -46.5z" />
<glyph horiz-adv-x="0" />
<glyph horiz-adv-x="682" />
<glyph unicode=" "  horiz-adv-x="479" />
<glyph unicode="&#x09;" horiz-adv-x="479" />
<glyph unicode="&#xa0;" horiz-adv-x="479" />
<glyph unicode="!" horiz-adv-x="432" d="M170 289l66 4l147 1096l-154 -64zM188 154q36 0 57.5 -26.5t18.5 -59.5q-4 -36 -29 -57t-57 -21q-38 0 -58.5 26.5t-17.5 59.5q3 36 27.5 57t58.5 21z" />
<glyph unicode="&#x22;" horiz-adv-x="489" d="M213 1382q4 13 17.5 21t25.5 8q30 0 45 -18.5t6 -38.5l-131 -318q-6 -12 -16 -12q-8 0 -12 5.5t-1 12.5zM403 1382q4 13 17.5 21t25.5 8q30 0 45.5 -19t6.5 -38l-131 -318q-6 -12 -17 -12q-8 0 -11.5 5.5t-0.5 12.5z" />
<glyph unicode="#" horiz-adv-x="993" d="M918 752h-144l-115 -363h144l-15 -51h-145l-106 -338h-68l106 338h-303l-106 -338h-68l107 338h-142l15 51h143l115 363h-143l14 51h145l107 338h67l-106 -338h303l106 338h68l-106 -338h143zM592 389l115 363h-304l-114 -363h303z" />
<glyph unicode="$" horiz-adv-x="929" d="M588 743q39 -23 60 -35.5t55.5 -36.5t53.5 -43t42.5 -48t34.5 -57t17.5 -65.5t2.5 -78.5q-11 -129 -100.5 -236t-231.5 -143l-8 -102h-57l8 90q-46 -4 -68 -4h-18l-8 -86h-58l9 92q-125 18 -200 87t-69 146q4 42 29 69t59 27q30 0 50.5 -23.5t17.5 -57.5 q-2 -24 -20 -38.5t-19 -29.5q-3 -35 40 -70t118 -49l55 643l-21 13q-113 70 -162 142.5t-42 176.5q6 118 81.5 201.5t200.5 109.5l9 97h57l-8 -88q14 2 43 2t43 -2l8 88h57l-8 -97q100 -22 155 -80t50 -124q-5 -43 -27.5 -71t-56.5 -28q-32 0 -52 21.5t-18 54.5 q3 23 21 41.5t20 32.5q3 28 -23.5 51t-74.5 37zM520 1286h-26l-41 -461q57 -37 82 -51l45 508q-40 4 -60 4zM285 1075q-5 -67 18.5 -113t93.5 -100l37 414q-133 -31 -149 -201zM408 45q23 0 63 4l49 567q-12 6 -39 22t-43 24l-55 -617h25zM723 324q7 90 -32 149.5 t-118 110.5l-45 -521q50 15 87.5 45t59.5 67t33.5 74t14.5 75z" />
<glyph unicode="%" horiz-adv-x="1241" d="M344 674q-101 0 -154 82.5t-40 242.5q7 91 35 160.5t67.5 106.5t79.5 55t80 18q101 0 153.5 -82t40.5 -241q-6 -91 -33.5 -160.5t-66.5 -107.5t-80 -56t-82 -18zM891 1331h63l-567 -1331h-63zM362 713q66 0 98.5 60t47.5 220q27 307 -115 307q-64 0 -98.5 -58t-46.5 -202 q-13 -163 12.5 -245t101.5 -82zM872 -8q-101 0 -154 82.5t-40 242.5q7 91 35 160.5t67.5 106.5t79.5 55t80 18q101 0 154 -82t41 -241q-6 -91 -33.5 -160.5t-67 -107.5t-80.5 -56t-82 -18zM891 31q66 0 98 60t47 220q27 307 -114 307q-64 0 -99 -58t-47 -202 q-13 -162 13 -244.5t102 -82.5z" />
<glyph unicode="&#x26;" horiz-adv-x="1120" d="M963 944q74 0 119 -43.5t38 -118.5q-14 -160 -268 -194q69 -31 104.5 -93.5t28.5 -146.5q-12 -154 -148 -259t-331 -105q-124 0 -223 45t-153.5 134.5t-43.5 207.5q13 140 105 238.5t215 135.5q-89 31 -132.5 110.5t-35.5 180.5q7 78 42 140t86 98t108.5 55t115.5 19 q107 0 165 -59.5t50 -149.5q-5 -56 -31 -92.5t-69 -36.5q-29 0 -45.5 16t-12.5 49q3 28 20.5 45.5t33.5 32t18 35.5q2 36 -31 69t-104 33q-84 0 -140 -58.5t-69 -187.5q-10 -116 25 -188.5t128 -75.5l-12 -51q-103 -8 -182.5 -92.5t-93.5 -237.5q-14 -158 57 -257t227 -99 q136 0 222 79t98 220q6 58 -2.5 105t-42 82.5t-90.5 35.5q-59 0 -90 -32t-35 -68q-2 -21 13 -49t13 -49q-2 -28 -21.5 -49t-53.5 -21q-32 0 -48.5 26t-13.5 70q9 93 76.5 156t173.5 63q159 0 227 41.5t74 128.5q7 115 -80 115q-42 0 -68.5 -21.5t-29.5 -50.5 q-1 -15 11.5 -35t10.5 -38q-2 -23 -16 -38.5t-43 -15.5q-57 0 -51 74q6 70 64.5 121t140.5 51z" />
<glyph unicode="'" horiz-adv-x="299" d="M213 1382q4 13 17.5 21t25.5 8q30 0 45 -18.5t6 -38.5l-131 -318q-6 -12 -16 -12q-8 0 -12 5.5t-1 12.5z" />
<glyph unicode="(" horiz-adv-x="548" d="M561 1350q-168 -148 -272.5 -365t-124.5 -453q-22 -252 43.5 -480t206.5 -376l20 43q-69 104 -113.5 363.5t-27.5 458.5q12 134 35.5 247.5t49 187.5t64 143t65 105.5t66.5 84.5z" />
<glyph unicode=")" horiz-adv-x="548" d="M2 -328q168 148 272.5 364.5t124.5 452.5q22 252 -43 481t-206 376l-21 -43q69 -104 113.5 -363.5t27.5 -458.5q-12 -134 -35.5 -247.5t-49 -187.5t-64 -143t-65 -105.5t-66.5 -84.5z" />
<glyph unicode="*" horiz-adv-x="569" d="M543 1260l20 -82l-14 -9q-24 12 -44.5 6t-90.5 -47q23 -68 34 -83t41 -21l5 -14l-76 -52l-10 11q6 31 -3.5 47t-64.5 63q-62 -46 -74 -62t-12 -48l-14 -11l-64 52l6 14q33 6 47 21.5t47 84.5q-60 42 -79.5 47.5t-49.5 -8.5l-10 9l33 82h16q11 -30 28.5 -38t92.5 -12 q20 60 24 77.5t2 32t-16 30.5l7 14h86l2 -14q-22 -23 -24 -43.5t7 -96.5q53 4 77 9.5t34 13.5t20 27h17zM362 1169h-26l-10 -22l20 -14l23 14z" />
<glyph unicode="+" horiz-adv-x="665" d="M598 539l-6 -60h-227l-23 -254h-66l23 254h-229l6 60h227l23 254h65l-22 -254h229z" />
<glyph unicode="," horiz-adv-x="307" d="M197 70q6 -51 -5.5 -100t-48.5 -89.5t-94 -52.5l-2 20q48 16 72.5 55t19.5 68q-4 19 -28 19q-33 0 -52.5 25t-17.5 57q3 36 27.5 55.5t56.5 19.5q34 0 52 -22.5t20 -54.5z" />
<glyph unicode="-" horiz-adv-x="608" d="M78 514h487l-24 -51h-486z" />
<glyph unicode="." horiz-adv-x="299" d="M125 147q36 0 55.5 -24.5t16.5 -54.5q-3 -38 -26.5 -58t-55.5 -20q-36 0 -56 25t-18 57q3 36 27.5 55.5t56.5 19.5z" />
<glyph unicode="/" horiz-adv-x="684" d="M662 1458h75l-674 -1585h-75z" />
<glyph unicode="0" horiz-adv-x="1032" d="M479 -16q-214 0 -315.5 180t-71.5 524q12 142 47.5 256t84 188t110.5 124t126 71t132 21q215 0 317 -180t72 -525q-12 -142 -47.5 -256t-84 -188t-111 -123.5t-126.5 -70.5t-133 -21zM516 47q41 0 77 13.5t75 51.5t69 98.5t54.5 160.5t35.5 231q31 353 -33.5 517.5 t-236.5 164.5q-41 0 -77 -13.5t-75 -51.5t-69 -98.5t-54.5 -160.5t-35.5 -231q-31 -353 33.5 -517.5t236.5 -164.5z" />
<glyph unicode="1" horiz-adv-x="567" d="M469 0h-442l2 23q67 0 115 14t51 43l90 1032q1 14 -6.5 20t-18.5 1q-7 -2 -24 -11t-48.5 -25t-60.5 -30l-8 29q67 34 133 99t110 136h87q-18 -87 -23 -151l-96 -1096q-3 -31 36 -46t105 -15z" />
<glyph unicode="2" horiz-adv-x="874" d="M752 291q37 0 54.5 -28.5t14.5 -61.5q-2 -19 -10.5 -42.5t-29 -55.5t-49 -57.5t-76.5 -43.5t-107 -18q-52 0 -104.5 14.5t-92.5 29t-87.5 23.5t-110 -3t-138.5 -50l-16 49q341 396 425 502q148 188 193 310q25 69 33 149q24 280 -190 280q-71 0 -127 -25.5t-60 -72.5 q-2 -21 13 -43.5t14 -42.5q-3 -32 -26.5 -53t-55.5 -21q-37 0 -57 26.5t-15 65.5q7 85 102 155.5t243 70.5q65 0 120 -16t102 -51.5t70 -102t15 -156.5q-4 -42 -13 -80.5t-28 -81t-37.5 -78t-55 -86t-66 -89.5t-84.5 -105t-97 -115l-117 -136.5t-131 -154.5q63 20 121 13 t92.5 -23.5t83 -33.5t92.5 -17q63 0 97 28t38 64q2 19 -11 44t-11 48q3 35 26.5 53.5t53.5 18.5z" />
<glyph unicode="3" horiz-adv-x="827" d="M334 43q128 0 202.5 79t86.5 214q5 63 -7 113.5t-37 86.5t-68 65t-90.5 49t-113.5 40l2 23q67 19 111 35t85 40t64.5 53.5t39 71.5t20.5 99q20 276 -199 276q-79 0 -125 -29.5t-49 -70.5q-1 -18 14 -39.5t13 -44.5q-2 -31 -24.5 -52.5t-55.5 -21.5q-38 0 -57.5 27 t-16.5 65q8 82 103.5 154t228.5 72q61 0 116.5 -16.5t103 -50t72.5 -92.5t19 -136q-6 -66 -33.5 -122t-69.5 -96t-84.5 -67t-90.5 -47q128 -40 208.5 -133.5t69.5 -225.5q-6 -70 -40 -137t-89 -121t-135.5 -87t-171.5 -33q-136 0 -224.5 64t-80.5 153q5 42 28 71t58 29 q30 0 51 -21t18 -57q-2 -27 -21.5 -49t-19.5 -35q-3 -34 51 -65t138 -31z" />
<glyph unicode="4" horiz-adv-x="888" d="M819 457l-14 -178h-23q3 59 -43 59h-94l-22 -254q-3 -31 27.5 -46t84.5 -15l-4 -23h-360l2 23q110 0 116 53l25 262h-494l3 24l583 969h125l-82 -934h94q23 0 37 16.5t17 43.5h22zM123 397h395l72 787z" />
<glyph unicode="5" horiz-adv-x="897" d="M494 864q163 0 257 -114t80 -285q-9 -96 -45.5 -181.5t-96.5 -153t-150 -107t-197 -39.5q-146 0 -230 71.5t-61 159.5q10 38 34 57t52 17q29 -2 48.5 -25t15.5 -57q-4 -22 -19 -40.5t-16 -21.5q-13 -21 9 -45.5t73 -41.5t114 -17q130 0 216.5 96.5t103.5 276.5 q14 172 -47 281.5t-174 109.5q-88 0 -152.5 -47.5t-99.5 -112.5l-86 27l143 659h578l-15 -33q-67 -25 -171.5 -35t-307.5 -10l-106 -489q90 100 250 100z" />
<glyph unicode="6" horiz-adv-x="929" d="M516 864q70 0 135 -27.5t116 -78.5t77.5 -132.5t17.5 -181.5q-12 -131 -77 -237t-163 -164.5t-208 -58.5q-93 0 -163.5 43.5t-110.5 118.5t-56.5 170.5t-7.5 203.5q13 159 75 301.5t156 246.5t210 176t243 104l14 -39q-79 -27 -150.5 -70t-143.5 -107.5t-130.5 -160.5 t-93.5 -213q115 106 260 106zM713 397q18 199 -50 303.5t-184 104.5q-137 0 -243 -137q-13 -63 -23 -148q-11 -94 -1.5 -180.5t34 -152.5t76 -105t124.5 -39q110 0 181 89t86 265z" />
<glyph unicode="7" horiz-adv-x="788" d="M821 1331l8 -22q-81 -114 -150 -222t-119.5 -194.5t-92 -175t-68.5 -150.5t-48.5 -134.5t-32.5 -113.5t-20 -101t-11.5 -83t-6 -74t-4.5 -61h-137q13 155 26 222q79 429 503 1044h-373q-69 -4 -110 -17t-81 -41l46 123h671z" />
<glyph unicode="8" horiz-adv-x="929" d="M602 758q53 -32 89 -57t72.5 -59.5t56.5 -70t30.5 -82.5t5.5 -102q-15 -173 -144 -288t-304 -115q-161 0 -260.5 99t-86.5 259q10 134 99.5 247t216.5 169q-89 60 -134.5 127.5t-37.5 161.5q12 134 117 217.5t241 83.5q130 0 206 -79.5t65 -191.5q-9 -94 -72.5 -178 t-159.5 -141zM332 1085q-9 -89 36.5 -152t157.5 -132l37 -21q67 49 103 123.5t43 147.5q5 56 -10 108t-60.5 90.5t-114.5 38.5q-87 0 -135.5 -56.5t-56.5 -146.5zM713 338q7 79 -6.5 134.5t-58 102t-89.5 76.5t-137 82q-201 -125 -217 -342q-14 -154 55 -251t193 -97 q43 0 83 14t78.5 45.5t65 92t33.5 143.5z" />
<glyph unicode="9" horiz-adv-x="929" d="M549 1348q79 0 141.5 -29t103.5 -79.5t66.5 -119t33.5 -146.5t1 -163q-13 -158 -78.5 -300.5t-165.5 -246.5t-222 -176.5t-253 -103.5l-14 39q68 22 130 53t128.5 80.5t121 110t102 145.5t75.5 184q-105 -90 -240 -90q-76 0 -145 28t-122 79t-80.5 133t-18.5 182 q17 190 145 305t291 115zM508 565q128 0 229 105q15 63 21 141q5 76 4.5 146t-17 130.5t-44 105t-75.5 70t-112 25.5q-224 0 -250 -317q-18 -198 53.5 -302t190.5 -104z" />
<glyph unicode=":" horiz-adv-x="333" d="M195 754q36 0 55 -25t16 -55q-3 -38 -26.5 -58t-55.5 -20q-36 0 -55.5 25t-17.5 57q3 36 27.5 56t56.5 20zM141 147q36 0 55.5 -24.5t16.5 -54.5q-3 -38 -26.5 -58t-55.5 -20q-36 0 -56 25t-18 57q3 36 27.5 55.5t56.5 19.5z" />
<glyph unicode=";" horiz-adv-x="342" d="M197 756q36 0 55 -25t16 -55q-3 -38 -26.5 -58t-55.5 -20q-36 0 -55.5 25t-17.5 57q3 36 27.5 56t56.5 20zM215 70q6 -51 -5.5 -100t-48 -89.5t-93.5 -52.5l-2 20q48 16 72.5 55t19.5 68q-4 19 -29 19q-33 0 -52.5 25t-17.5 57q3 36 27.5 55.5t56.5 19.5q34 0 52 -22.5 t20 -54.5z" />
<glyph unicode="&#x3c;" horiz-adv-x="634" d="M584 760l-4 -74l-449 -180l416 -182l-8 -74l-492 221l6 68z" />
<glyph unicode="=" horiz-adv-x="665" d="M86 641h522l-6 -59h-522zM68 436h522l-6 -59h-523z" />
<glyph unicode="&#x3e;" horiz-adv-x="634" d="M96 760l492 -221l-6 -68l-531 -221l6 74l447 180l-416 182z" />
<glyph unicode="?" horiz-adv-x="772" d="M395 362l-37 -67q-58 0 -94 20.5t-44.5 56.5t19.5 91t93 119q30 30 76.5 70t71.5 65t54 63t44 87t20 114q14 158 -44 235t-157 80q-70 3 -117.5 -26.5t-50.5 -61.5q-1 -16 21 -39t20 -55q-3 -35 -25.5 -56.5t-56.5 -21.5q-36 0 -57 30t-16 71q2 26 17.5 58t47 68 t92.5 60.5t140 24.5q163 0 258 -90.5t82 -251.5q-7 -68 -31 -126t-65.5 -104t-75.5 -75.5t-88.5 -69.5t-75.5 -58q-84 -70 -89.5 -124.5t68.5 -86.5zM293 154q38 0 58.5 -26.5t17.5 -59.5q-3 -35 -28.5 -56.5t-57.5 -21.5q-38 0 -58.5 26.5t-17.5 59.5q3 36 27.5 57t58.5 21 z" />
<glyph unicode="@" horiz-adv-x="1779" d="M1042 1219q92 0 174.5 -18.5t147 -52t120.5 -79.5t94.5 -101t68 -117t41.5 -127.5t16 -132t-10 -130.5q-16 -88 -55.5 -170t-99.5 -151t-147.5 -110.5t-187.5 -41.5q-134 0 -157 82q-86 -86 -222 -86q-170 0 -259.5 124t-57.5 316q22 133 93.5 235t167 153.5t198.5 51.5 q58 0 115 -20.5t89 -59.5l72 27h43l-104 -651q-11 -69 3 -91t50 -22q119 0 205.5 85t122.5 247q14 63 17 132.5t-8.5 145.5t-37 147.5t-72 136.5t-109.5 113t-154.5 76.5t-201.5 28.5q-193 0 -359.5 -87t-276 -241t-144.5 -348q-30 -165 4 -313.5t116 -252.5t207.5 -165 t272.5 -61q186 0 357 82l22 -52q-86 -46 -197.5 -68t-214.5 -22q-165 0 -305.5 55.5t-238 155.5t-140 251.5t-12.5 330.5q24 147 90.5 275.5t160.5 222.5t210 162t241.5 101.5t251.5 33.5zM866 41q103 0 176 92q0 2 1 6t1 6l91 562q-10 44 -56.5 76t-117.5 32 q-110 0 -193.5 -93t-112.5 -247q-17 -81 -9 -159t31.5 -139t73 -98.5t115.5 -37.5z" />
<glyph unicode="A" horiz-adv-x="1189" d="M1036 68q19 -45 92 -45l-2 -23h-325l2 23q36 0 61 12t21 33l-99 387h-448l-158 -385q-10 -23 26.5 -35t92.5 -12l-2 -23h-307l4 23q89 0 106 38l541 1287l45 14zM362 514h408l-158 600z" />
<glyph unicode="B" horiz-adv-x="1007" d="M723 709q32 -9 60.5 -22.5t60.5 -39t53.5 -58t33.5 -81.5t7 -107q-14 -175 -126.5 -288t-297.5 -113h-467l2 23q41 0 76.5 14t38.5 43l102 1167q3 28 -30 45t-72 17l2 22h463q37 0 74 -6t80.5 -24.5t75 -48t50 -82.5t11.5 -121q-4 -48 -16 -95t-34.5 -95t-60 -87.5 t-86.5 -62.5zM569 1280q-116 0 -159 -14l-48 -543h211q186 0 207 313q10 127 -42.5 185.5t-168.5 58.5zM498 51q265 0 290 334q6 77 -11 134.5t-49.5 87t-68.5 43.5t-75 14h-228l-51 -594q78 -19 193 -19z" />
<glyph unicode="C" horiz-adv-x="1214" d="M1090 219l20 -39q-71 -101 -190 -148.5t-244 -47.5t-236.5 49t-192 134.5t-122 210t-29.5 267.5q11 131 57 245.5t115 197t155.5 142t182 89t191.5 29.5q127 0 235 -45q26 -11 42 -15.5t36 0t29 25.5l22 -10l-84 -279l-22 8q18 90 10 132.5t-47 66.5q-81 51 -238 51 q-148 0 -263 -78t-181.5 -212.5t-85.5 -311.5q-14 -134 17.5 -253t96 -201t157.5 -129.5t198 -47.5q106 0 208 45t163 125z" />
<glyph unicode="D" horiz-adv-x="1277" d="M698 1331q82 0 162 -26t151 -80.5t122.5 -129.5t77 -181t14.5 -228q-10 -106 -40.5 -205t-83.5 -187t-123.5 -153t-167 -103t-206.5 -38h-557l2 23q39 0 75.5 16.5t39.5 44.5l102 1163q3 28 -30 45t-72 17l2 22h532zM545 51q115 0 204 34.5t145 89.5t94 135.5t55.5 160 t25.5 176.5q17 187 -29.5 328.5t-157.5 223t-274 81.5q-117 0 -198 -16l-105 -1194q125 -19 240 -19z" />
<glyph unicode="E" horiz-adv-x="970" d="M862 190l25 -8l-58 -182h-780l2 23q38 0 76 16.5t41 44.5l100 1163q3 28 -32 45t-74 17l2 22h737l57 -184l-24 -6q-25 67 -59.5 99t-86.5 32h-376l-47 -553h325q29 0 48 38.5t24 98.5h22l-28 -332h-23q10 135 -47 135h-326l-53 -600h420q51 0 78.5 29.5t56.5 101.5z" />
<glyph unicode="F" horiz-adv-x="925" d="M879 1331l55 -184l-25 -6q-25 68 -58.5 99.5t-84.5 31.5h-354l-50 -588h265q29 0 49.5 39t25.5 98h23l-29 -332h-22q6 59 -8.5 97.5t-44.5 38.5h-265l-47 -541q-3 -28 42.5 -44.5t99.5 -16.5l-2 -23h-402l2 23q40 0 78 16.5t41 44.5l100 1163q3 28 -31 45t-73 17l2 22 h713z" />
<glyph unicode="G" horiz-adv-x="1306" d="M1264 606q-74 -3 -80 -61l-27 -295q-2 -57 12 -92q-101 -83 -232 -128.5t-265 -45.5q-132 0 -242.5 46t-188.5 129.5t-117.5 208t-29.5 275.5q13 209 111.5 370.5t257.5 248t354 86.5q63 0 119.5 -10.5t87 -22t76.5 -31.5q41 -20 63 25h25l-25 -269l-20 11q1 61 -28 107 t-78.5 72t-109 39t-126.5 13q-237 0 -386 -155t-169 -463q-9 -152 24 -271.5t98.5 -193.5t151.5 -112t187 -38q77 0 162 22t145 60l33 369q4 51 -40.5 77.5t-117.5 28.5l2 23h375z" />
<glyph unicode="H" horiz-adv-x="1343" d="M1335 1309q-40 0 -77.5 -16.5t-40.5 -45.5l-103 -1163q-3 -29 32 -45t75 -16l-2 -23h-347l2 23q39 0 67.5 15.5t31.5 45.5l53 590h-664l-53 -590q-3 -30 22.5 -45.5t63.5 -15.5l-2 -23h-346l2 23q42 0 79 16t40 45l102 1163q3 29 -32.5 45.5t-75.5 16.5l2 22h346l-2 -22 q-37 0 -65 -16t-31 -46l-45 -514h663l45 514q3 30 -23 46t-63 16l2 22h346z" />
<glyph unicode="I" horiz-adv-x="501" d="M494 1309q-33 0 -65.5 -16.5t-35.5 -45.5l-102 -1163q-3 -29 25 -45t61 -16l-4 -23h-326l2 23q35 0 66.5 16t34.5 45l102 1163q3 29 -25 45.5t-61 16.5l2 22h328z" />
<glyph unicode="J" horiz-adv-x="514" d="M512 1331l-2 -22q-35 0 -67 -16.5t-35 -45.5l-97 -1095q-7 -79 -31 -141.5t-71 -116.5t-100.5 -96.5t-137.5 -96.5l-6 25q98 78 143.5 161.5t53.5 196.5l102 1159q3 30 -26 48t-62 18l2 22h334z" />
<glyph unicode="K" horiz-adv-x="1284" d="M1014 125q48 -59 99.5 -80.5t119.5 -21.5l-2 -23h-340q21 37 2 68l-469 585l-70 -63l-45 -506q-3 -30 37.5 -45.5t93.5 -15.5l-4 -23h-389l2 23q40 0 78 16t41 45l102 1163q3 29 -32.5 45.5t-75.5 16.5l2 22h346l-2 -22q-37 0 -65 -16t-31 -46l-50 -563l596 559 q20 25 9 45.5t-39 20.5l2 22h307l-2 -22q-102 0 -180 -64l-531 -502z" />
<glyph unicode="L" horiz-adv-x="946" d="M842 190l22 -8l-57 -182h-760l2 23q40 0 78 16t41 45l100 1163q3 29 -30.5 45.5t-73.5 16.5l2 22h387l-4 -22q-51 0 -93.5 -16t-45.5 -46l-103 -1188h398q50 0 79.5 30.5t57.5 100.5z" />
<glyph unicode="M" horiz-adv-x="1583" d="M1380 74q0 -21 37 -36t76 -15l-2 -23h-361l5 23q38 0 73.5 13t36.5 36l23 1032l-531 -1110h-26l-342 1071l-154 -973q-6 -33 31.5 -51t91.5 -18l-2 -23h-318l2 23q42 0 79 17t44 48l189 1159q4 29 -36.5 45.5t-94.5 16.5l2 22h227l350 -1100l525 1100h243l-2 -22 q-53 0 -95.5 -17.5t-43.5 -50.5z" />
<glyph unicode="N" horiz-adv-x="1370" d="M1374 1331l-2 -22q-38 0 -73.5 -16.5t-38.5 -45.5l-111 -1255h-29l-792 1106l-90 -1014q-3 -31 37 -46t108 -15l-2 -23h-334l2 23q40 0 77 16t40 45l102 1163q3 29 -31.5 45.5t-74.5 16.5l4 22h172l762 -1063l86 979q3 31 -37 46.5t-107 15.5l2 22h330z" />
<glyph unicode="O" horiz-adv-x="1394" d="M645 -16q-125 0 -231.5 47.5t-181.5 132.5t-112.5 210t-25.5 271q11 132 55 246t111.5 197t153.5 142t182.5 88.5t196.5 29.5q258 0 415 -185t133 -475q-13 -165 -77.5 -301t-161 -222.5t-214.5 -133.5t-243 -47zM680 49q99 0 184.5 36t155 109t114.5 193.5t58 278.5 q14 181 -32 320t-150 217.5t-252 78.5q-75 0 -143 -20.5t-131.5 -67t-112.5 -116t-82.5 -174.5t-44.5 -236q-23 -279 95 -449t341 -170z" />
<glyph unicode="P" horiz-adv-x="995" d="M586 1331q72 0 140 -23.5t123 -67t85 -112.5t24 -151q-6 -72 -36 -143.5t-84.5 -136t-126 -114t-168 -79t-203.5 -29.5l-35 -391q-3 -30 34.5 -45.5t90.5 -15.5l-4 -23h-379l4 23q40 0 75 16t38 45l102 1163q3 30 -30 46t-72 16l2 22h420zM805 950q5 54 -8.5 109.5 t-44 106t-89.5 82.5t-137 32q-58 0 -116 -14l-66 -736q99 0 179 27t129.5 69t83.5 99.5t49 112t20 112.5z" />
<glyph unicode="Q" horiz-adv-x="1427" d="M1452 -117q246 -136 514.5 -165t487.5 67l-3 -23q-228 -119 -524 -106.5t-543 139.5q-55 27 -115.5 67.5t-95.5 66.5t-102.5 80.5t-85.5 68.5q-160 -94 -340 -94q-125 0 -231.5 47.5t-181.5 132.5t-112.5 210t-25.5 271q11 132 55 246t111.5 197t153.5 142t182.5 88.5 t196.5 29.5q258 0 415 -185t133 -475q-14 -181 -87.5 -322.5t-188.5 -234.5q35 -22 174 -114.5t213 -133.5zM680 49q140 0 250 70q-45 34 -82.5 55.5t-76 35t-74.5 12t-70 -18.5l4 24q43 36 103.5 37.5t122.5 -22t140 -70.5q169 159 195 494q14 181 -32 320t-150 217.5 t-252 78.5q-75 0 -143 -20.5t-131.5 -67t-112.5 -116t-82.5 -174.5t-44.5 -236q-23 -279 95 -449t341 -170z" />
<glyph unicode="R" horiz-adv-x="1196" d="M958 125q42 -59 87 -80.5t100 -21.5l-2 -23h-309q28 36 4 74l-299 463q-90 -18 -193 -21l-41 -432q-3 -30 33.5 -45.5t89.5 -15.5l-2 -23h-379l2 23q40 0 76 16t39 45l102 1163q3 29 -30.5 45.5t-73.5 16.5l2 22h424q112 0 200.5 -38t137.5 -112.5t41 -172.5 q-12 -142 -95 -254.5t-208 -175.5zM410 1266l-60 -691q218 5 331 106.5t132 313.5q11 131 -59 208t-224 77q-66 0 -120 -14z" />
<glyph unicode="S" horiz-adv-x="942" d="M412 -16q-61 0 -112.5 14t-80 31t-52.5 30t-42.5 11t-38.5 -25l-20 10l88 287l22 -10q-23 -131 38 -208t204 -77q67 0 118.5 18t81 44.5t49.5 64t27.5 69t10.5 66.5q5 54 -9 102.5t-35.5 81.5t-62 68.5t-70 54.5t-79.5 49.5t-72 45.5q-48 32 -81 60.5t-62 67t-41 86.5 t-7 105q13 148 116.5 233t250.5 85q60 0 114.5 -15.5t81.5 -29.5t50 -13t39 29l20 -8l-76 -248l-18 8q18 102 -46 157.5t-179 55.5q-106 0 -160.5 -51t-63.5 -158q-4 -42 3 -73.5t23 -58t48 -53.5t72 -55.5t102 -68.5q13 -8 19 -12q64 -43 104.5 -75.5t83.5 -81t61.5 -106 t12.5 -124.5q-14 -161 -133 -272t-299 -111z" />
<glyph unicode="T" horiz-adv-x="1136" d="M1157 1147l-24 -6q-46 131 -146 131h-272l-111 -1188q-2 -20 22.5 -34.5t58 -20.5t69.5 -6l-4 -23h-445l2 23q57 0 105 15.5t51 45.5l110 1188h-294q-96 0 -148 -131l-25 6l62 199q12 -12 43 -15h838q32 3 47 15z" />
<glyph unicode="U" horiz-adv-x="1282" d="M1288 1331l-2 -22q-40 0 -76 -16t-39 -46l-75 -874q-9 -98 -54 -174t-114.5 -122t-152 -69.5t-173.5 -23.5q-94 0 -173 25.5t-137.5 75t-87.5 129t-20 181.5l76 852q3 29 -31.5 45.5t-74.5 16.5l2 22h362l-2 -22q-40 0 -76 -16t-39 -46l-73 -833q-9 -96 11 -168.5 t63.5 -114.5t100.5 -62t126 -20q152 0 262.5 85t120.5 214l80 899q3 29 -31 45.5t-74 16.5l4 22h297z" />
<glyph unicode="V" horiz-adv-x="1173" d="M1198 1331l-4 -22q-35 0 -68 -22.5t-55 -67.5l-518 -1233h-29l-295 1243q-11 34 -37.5 57t-58.5 23l2 22h215l248 -1089l408 997q12 30 -25 50t-102 20l2 22h317z" />
<glyph unicode="W" horiz-adv-x="1748" d="M1774 1331l-2 -22q-79 0 -107 -62l-494 -1261h-30l-221 921l-361 -921h-31l-305 1265q-19 58 -90 58l2 22h209l252 -1079l293 776l-53 223q-7 27 -42.5 42.5t-84.5 15.5l2 22h245l250 -1079l377 993q10 29 -27.5 46.5t-103.5 17.5l2 22h320z" />
<glyph unicode="X" horiz-adv-x="1204" d="M969 82q29 -59 135 -59l-2 -23h-342l2 23q35 0 52 15.5t5 43.5l-241 522l-338 -516q-19 -29 0.5 -47t56.5 -18l-4 -23h-264l2 23q82 0 123 55l391 590l-269 575q-37 66 -129 66l3 22h337l-2 -22q-38 0 -56 -19.5t-7 -40.5l225 -487l314 481q19 29 0 47.5t-56 18.5l2 22 h297l-2 -22q-113 0 -160 -64l-364 -549z" />
<glyph unicode="Y" horiz-adv-x="1118" d="M1143 1331l-4 -22q-58 0 -103 -66l-391 -608l-47 -551q-2 -20 21 -34.5t54.5 -20.5t67.5 -6l-2 -23h-438v23q57 0 105 15.5t51 45.5l47 534l-295 646q-23 45 -76 45l2 22h193l288 -639l355 555q14 25 -13 43.5t-65 18.5l2 22h248z" />
<glyph unicode="Z" horiz-adv-x="976" d="M963 1331v-12l-760 -1260h518q50 0 83 31.5t62 99.5l23 -6l-70 -184h-790l2 12l760 1260h-443q-50 0 -84 -31.5t-61 -99.5l-25 6l70 184h715z" />
<glyph unicode="[" horiz-adv-x="505" d="M492 1309h-168l-129 -1475h170l12 -57h-225q-32 0 -54 -15l140 1616q21 -14 53 -14h225z" />
<glyph unicode="\" horiz-adv-x="962" d="M203 1458l674 -1585h-76l-674 1585h76z" />
<glyph unicode="]" horiz-adv-x="505" d="M170 1309l-14 55h225q31 0 55 14l-143 -1616q-23 15 -51 15h-226l23 57h170l129 1475h-168z" />
<glyph unicode="^" horiz-adv-x="657" d="M641 932h-96l-139 360l-203 -360h-97l269 434h71z" />
<glyph unicode="_" horiz-adv-x="1075" d="M27 -80h931l-4 -49h-931z" />
<glyph unicode="`" horiz-adv-x="366" d="M281 1602h-113l194 -203l25 39z" />
<glyph unicode="a" horiz-adv-x="892" d="M821 68l4 -25q-50 -24 -103.5 -41.5t-76.5 -17.5q-21 0 -37 18.5t-22 52.5q-83 -71 -209 -71q-166 0 -258 126.5t-70 321.5q21 188 133.5 310t284.5 122q111 0 186 -57l49 41h80l-65 -735q-2 -31 6.5 -44.5t36.5 -13.5t61 13zM586 117l55 628q-63 70 -162 70 q-130 0 -207 -114t-86 -291q-10 -169 55.5 -273t172.5 -104q51 0 97 23.5t75 60.5z" />
<glyph unicode="b" horiz-adv-x="888" d="M500 864q157 0 248.5 -111t74.5 -298q-9 -96 -39.5 -179t-81.5 -149t-130.5 -104.5t-178.5 -38.5q-141 0 -212 74t-62 188l86 989q3 33 -21.5 44t-64.5 -1l-6 25l108 32q47 13 66 13q61 0 57 -64l-43 -487q76 67 199 67zM397 35q74 0 127 28.5t84.5 83.5t48.5 120.5 t25 154.5q15 181 -43 287t-168 106q-105 0 -176 -94l-53 -588q11 -41 55.5 -69.5t99.5 -28.5z" />
<glyph unicode="c" horiz-adv-x="786" d="M684 172l10 -35q-44 -72 -121 -112.5t-172 -40.5q-117 0 -198 60.5t-114 152.5t-26 200q12 198 132.5 332.5t298.5 134.5q113 0 180 -55.5t67 -130.5q0 -45 -23 -66.5t-54 -21.5q-29 0 -48.5 19.5t-19.5 54.5q0 25 16 49q13 27 2 47q-7 21 -38.5 38t-88.5 17 q-256 0 -282 -397q-11 -167 52 -275t185 -108q75 0 136.5 38t105.5 99z" />
<glyph unicode="d" d="M842 68l4 -25q-41 -20 -98.5 -39.5t-81.5 -19.5q-47 0 -60 71q-78 -71 -207 -71q-153 0 -244 113t-89 292q1 105 35 195t90.5 150.5t131.5 95t158 34.5q118 0 185 -67l36 436q3 35 -20 46.5t-66 -1.5l-6 22l103 33q51 15 78 15q56 0 53 -66l-103 -1169q-3 -31 5 -44.5 t38 -13.5q23 0 58 13zM207 422q-2 -106 22.5 -193t78.5 -141.5t128 -54.5q50 0 94 23t74 59l53 598q-16 43 -60.5 72.5t-104.5 29.5q-127 0 -204.5 -106t-80.5 -287z" />
<glyph unicode="e" horiz-adv-x="808" d="M442 35q122 0 220 90l14 -35q-116 -106 -273 -106q-158 0 -256.5 124.5t-83.5 303.5q10 125 62.5 227t144 163.5t203.5 61.5q148 0 217 -112t53 -293h-534q-10 -122 10.5 -216t77.5 -151t145 -57zM446 815q-94 0 -157.5 -93t-73.5 -214h395q16 123 -27 215t-137 92z" />
<glyph unicode="f" horiz-adv-x="659" d="M522 1348q60 0 100.5 -27t55 -59.5t14.5 -65.5q-2 -37 -22.5 -59.5t-53.5 -22.5q-29 0 -49 18.5t-20 53.5q1 26 15.5 50.5t15.5 33.5q0 37 -54 37q-57 0 -86.5 -46.5t-40.5 -152.5l-22 -260h168l-17 -51h-155l-70 -791q-5 -52 -14 -97t-27.5 -90t-44.5 -77t-65.5 -52 t-88.5 -20q-83 0 -120 43t-31 92q2 27 16.5 43.5t40.5 16.5q29 0 49 -15t17 -47q-1 -18 -13 -35.5t-12 -23.5q0 -7 3.5 -13.5t16 -13t33.5 -6.5q45 0 65.5 32.5t27.5 119.5l82 934h-103l17 51h90l10 92q33 408 272 408z" />
<glyph unicode="g" horiz-adv-x="808" d="M702 567q-8 -123 -98.5 -209t-232.5 -86q-67 0 -129 27l-54 -53q-12 -16 -7.5 -28t16.5 -17q35 -11 91 -26t98.5 -27t93.5 -28.5t86.5 -36t66.5 -45.5t45.5 -61t11.5 -77q-9 -121 -116 -195t-275 -74q-133 0 -217.5 54.5t-77.5 144.5q6 72 60 126t131 73l6 -23 q-96 -58 -101 -160q-6 -73 59 -119t171 -46q104 0 159 52t60 122q4 51 -32 94t-97 72.5t-118 49.5t-116.5 36.5t-72.5 21.5q-29 12 -37.5 31.5t0 39t28.5 36.5l97 86q-116 93 -103 239q11 132 103 217.5t231 85.5q99 0 162 -53q51 98 141 98q31 0 52.5 -22t19.5 -51 q-5 -70 -70 -70q-27 0 -42.5 16t-14.5 45q0 27 18 45q-47 -13 -65 -94q81 -81 69 -211zM399 815q-148 0 -168 -225q-13 -124 32.5 -195t135.5 -71q83 0 122.5 58t49.5 163q9 122 -34 196t-138 74z" />
<glyph unicode="h" horiz-adv-x="972" d="M98 0l109 1233q3 33 -22.5 45.5t-65.5 -0.5l-6 22l96 31q55 17 80 17q60 0 57 -68l-53 -586q158 170 323 170q111 0 164.5 -68t42.5 -188l-47 -518q-3 -30 41.5 -34.5t79.5 14.5l-2 -25q-36 -24 -84.5 -42.5t-87.5 -18.5q-51 0 -68.5 31.5t-11.5 74.5l41 475 q11 104 -22.5 165t-108.5 61q-69 0 -138.5 -48.5t-127.5 -121.5l-54 -621h-135z" />
<glyph unicode="i" horiz-adv-x="448" d="M262 1012q-33 0 -50 21.5t-17 53.5q0 41 24 64t60 23q33 0 50 -22t17 -54q0 -41 -24 -63.5t-60 -22.5zM252 90q-3 -30 42 -34.5t79 14.5l-2 -25q-30 -21 -83 -41t-91 -20q-47 0 -65.5 32t-14.5 72l55 604q6 54 -26 69t-78 -9l-11 24l136 60q27 12 61 12q40 0 51.5 -19.5 t7.5 -56.5z" />
<glyph unicode="j" horiz-adv-x="393" d="M252 1012q-68 0 -68 78q0 38 23 61t57 23q36 0 53 -22t17 -56q0 -38 -24 -61t-58 -23zM242 848q40 0 52.5 -20t8.5 -56l-67 -770q-11 -131 -77 -215t-192 -156l-8 23q67 55 96.5 123.5t40.5 171.5l64 743q9 96 -86 66l-11 24l121 54q32 12 58 12z" />
<glyph unicode="k" horiz-adv-x="858" d="M739 39q40 0 80 31l-2 -25q-22 -28 -61 -44.5t-76 -16.5q-23 0 -45.5 6.5t-45 23.5t-40 31.5t-41 46.5t-38 52t-40.5 65t-38.5 67t-42 76.5t-42.5 77.5l4 45q152 0 230 50.5t88 133.5q7 62 -21.5 106t-72.5 44q-51 0 -120.5 -54t-125.5 -126l-56 -629h-135l109 1233 q3 32 -22.5 44.5t-65.5 0.5l-6 22l110 35q44 13 68 13q61 0 55 -80l-49 -563q54 65 129 112t152 47q85 0 140 -52t48 -138q-8 -70 -60 -124t-121 -80t-139 -26q22 -39 55.5 -98.5t51 -90.5t42.5 -72.5t41 -62.5t35 -42.5t35.5 -30t32.5 -8.5z" />
<glyph unicode="l" horiz-adv-x="430" d="M242 92q-3 -30 40 -35.5t80 13.5l-2 -25q-98 -61 -174 -61q-43 0 -63 27t-14 77l98 1145q3 34 -22 46.5t-66 -1.5l-6 22l98 31q53 17 84 17q24 0 38.5 -18t12.5 -46z" />
<glyph unicode="m" horiz-adv-x="1449" d="M616 0l52 584q8 89 -26 148t-110 59q-115 0 -217 -146l-57 -645h-133l61 692q4 55 -26 69t-74 -9l-10 24l127 58q40 14 63 14q31 0 44.5 -14.5t15.5 -45.5l-7 -77q129 153 279 153q80 0 133.5 -43t73.5 -112q137 157 291 157q105 0 160 -65.5t47 -169.5l-50 -541 q-3 -30 43 -34.5t78 14.5l-2 -25q-35 -22 -84.5 -41.5t-87.5 -19.5q-90 0 -82 106l45 496q4 55 -7 100t-44 76t-86 31q-109 0 -217 -148l-57 -645h-136z" />
<glyph unicode="n" horiz-adv-x="980" d="M125 0l61 692q3 37 -10.5 56t-37 17.5t-52.5 -13.5l-10 24l129 58q40 14 65 14q58 0 58 -66l-9 -75q76 70 165.5 113.5t170.5 43.5q99 0 143.5 -65.5t35.5 -173.5l-48 -533q-2 -21 18.5 -30.5t49 -6.5t53.5 15l-4 -25q-32 -21 -82.5 -41t-89.5 -20q-90 0 -80 106l45 494 q5 60 -2 104t-34 73.5t-74 29.5q-61 0 -137.5 -43.5t-133.5 -106.5l-57 -641h-133z" />
<glyph unicode="o" d="M412 -16q-166 0 -264 115t-85 300q14 195 138.5 330t300.5 135q77 0 143.5 -28t115.5 -80t73.5 -133t15.5 -179q-6 -82 -37.5 -161.5t-84 -147t-135.5 -109.5t-181 -42zM442 33q65 0 115 31.5t80.5 87.5t48 122t23.5 146q17 187 -52.5 291t-187.5 104q-66 0 -116.5 -34 t-79.5 -92t-45 -123.5t-21 -141.5q-14 -176 50 -283.5t185 -107.5z" />
<glyph unicode="p" horiz-adv-x="890" d="M547 864q118 0 207 -106.5t75 -274.5q-8 -90 -38 -176t-79.5 -159.5t-126.5 -118.5t-169 -45q-82 0 -150 49l-26 -307q-3 -37 32 -54.5t88 -17.5l-2 -23h-354l2 23q37 0 66 15.5t32 45.5l84 975q4 55 -27 70t-75 -8l-10 24l127 55q39 17 65 17q60 0 60 -68v-22 q109 106 219 106zM424 33q112 0 178.5 112t85.5 318q13 161 -36 256.5t-136 95.5q-49 0 -107.5 -42.5t-84.5 -82.5l-52 -592q71 -65 152 -65z" />
<glyph unicode="q" horiz-adv-x="868" d="M676 -285q-3 -30 32 -45.5t87 -15.5l-2 -23h-336l2 23q76 0 82 61l28 322q-80 -53 -180 -53q-146 0 -241 119t-82 294q17 211 132 339t267 128q63 0 107.5 -26.5t66.5 -63.5q17 33 48 56.5t58 23.5h31zM416 33q38 0 83 18.5t74 44.5l56 602q-22 57 -57.5 87t-94.5 30 q-230 0 -266 -399q-9 -98 13 -185.5t73 -142.5t119 -55z" />
<glyph unicode="r" horiz-adv-x="708" d="M127 0l59 684q5 59 -18.5 75t-83.5 -9l-8 26l127 58q40 14 65 14q34 0 47.5 -18.5t10.5 -57.5l-11 -127q16 41 37.5 77t51 69.5t69 53t84.5 19.5q61 0 96 -42t33 -97q-1 -41 -24 -67.5t-54 -26.5q-29 0 -50 18.5t-21 50.5q1 30 19.5 53t18.5 40q0 26 -43 26 q-58 0 -113 -72.5t-85.5 -156t-36.5 -141.5l-39 -449h-131z" />
<glyph unicode="s" horiz-adv-x="690" d="M283 -16q-144 0 -246 98l49 158l23 -9q-21 -90 36.5 -144t147.5 -54t134.5 50t49.5 122q3 30 -6 56t-22.5 43.5t-41 37t-46.5 30t-54 28t-51 26.5q-154 90 -145 209q8 93 80 161t202 68q68 0 118 -20.5t101 -59.5l-67 -161l-21 10q14 51 7 85.5t-32.5 56t-54.5 31 t-61 9.5q-63 0 -107.5 -35t-48.5 -100q-1 -20 2 -36.5t17.5 -33.5t24.5 -27.5t39.5 -28.5t44.5 -26.5t57 -31.5q48 -24 77.5 -43t61.5 -49t45.5 -68t9.5 -86q-10 -125 -99 -195.5t-224 -70.5z" />
<glyph unicode="t" horiz-adv-x="563" d="M473 121l10 -29q-34 -54 -87.5 -81t-114.5 -27q-77 0 -120.5 45.5t-35.5 150.5l55 619h-94l2 24q85 17 135 80.5t86 165.5h29l-21 -221h218l-15 -49h-207l-49 -572q-8 -95 7 -143.5t65 -48.5q72 0 137 86z" />
<glyph unicode="u" horiz-adv-x="946" d="M872 68l5 -25q-134 -59 -177 -59q-28 0 -45 37.5t-16 97.5q-114 -135 -272 -135q-122 0 -180.5 65.5t-49.5 169.5l41 479q6 55 -25.5 66.5t-76.5 -12.5l-8 22l131 60q32 14 63 14q36 0 49 -19t8 -59l-45 -514q-9 -104 24.5 -163.5t109.5 -59.5q105 0 233 151l49 549 q3 34 -20.5 45.5t-67.5 -0.5l-6 23l104 33q43 14 78 14q27 0 40 -18.5t11 -47.5l-59 -669q-3 -30 6 -44t37 -14q20 0 59 13z" />
<glyph unicode="v" horiz-adv-x="800" d="M653 864q38 0 61 -34.5t19 -98.5q-7 -65 -24 -121t-58 -125l-280 -485h-54l-155 705q-8 28 -13.5 42t-16 24.5t-26 9t-40.5 -12.5l-7 25l93 41q28 14 61 14q60 0 76 -64l125 -626l186 331q59 102 59 173q0 27 -14 41t-30.5 17.5t-29 18t-10.5 41.5q7 84 78 84z" />
<glyph unicode="w" horiz-adv-x="1220" d="M1073 864q39 0 61.5 -34t18.5 -99q-13 -113 -84 -246l-258 -485h-57l-113 489l-254 -489h-61l-162 702q-8 30 -13.5 44t-16 24.5t-26.5 9t-42 -11.5l-7 25l97 41q28 14 63 14q52 0 66 -64l133 -622l205 401l-31 139q-9 30 -14.5 44t-16 25t-25.5 10t-38 -11l-6 25l92 39 q25 14 63 14q49 0 66 -64l131 -622l170 327q57 98 61 175q2 22 -7 34.5t-22 17t-26 10t-21 18.5t-6 36q2 34 21.5 59t58.5 25z" />
<glyph unicode="x" horiz-adv-x="854" d="M94 795l84 39q28 14 68 14q59 0 84 -60l127 -268l155 242q63 96 148 96q35 0 55.5 -20.5t20.5 -51.5q0 -29 -17 -50t-47 -21q-28 0 -43.5 17t-15.5 44q0 13 15 33q4 4 -1 4q-18 0 -61 -63l-183 -285l183 -383q32 -60 106 -12l-2 -25q-48 -61 -129 -61q-42 0 -67 19 t-42 54l-131 277l-157 -248q-32 -49 -65 -75.5t-83 -26.5q-33 0 -55.5 19t-22.5 48q0 34 17.5 55t46.5 21t44 -16.5t15 -42.5q0 -13 -15 -34q-4 -5 1 -5q18 0 61 69l185 293l-158 334q-39 80 -115 45z" />
<glyph unicode="y" horiz-adv-x="786" d="M643 864q37 0 58.5 -34.5t17.5 -96.5q-3 -53 -18.5 -103.5t-65.5 -146.5l-311 -604q-113 -217 -248 -217q-50 0 -76.5 21t-24.5 53q3 34 19.5 51.5t42.5 17.5q28 0 54.5 -23.5t31.5 -25.5q17 -8 38 -1.5t53.5 48t70.5 115.5l63 123l-188 661l-9 27t-8 21t-10.5 18t-13 8 t-19 3.5t-24.5 -7.5l-10 -4l-7 25l88 41q38 14 66 14q27 0 44.5 -14t27.5 -50l151 -585l150 290q52 111 57 166q3 24 -5 38t-21 20t-26.5 12t-22.5 18t-7 33q7 88 82 88z" />
<glyph unicode="z" horiz-adv-x="663" d="M569 129l23 -6l-39 -123h-539l2 6l455 793h-258q-25 0 -41 -19.5t-33 -60.5l-22 6l37 123h483v-6l-457 -793h316q24 0 40 19.5t33 60.5z" />
<glyph unicode="{" horiz-adv-x="600" d="M532 1313q-78 0 -117.5 -50.5t-49.5 -175.5q-5 -62 13.5 -163t12.5 -160q-15 -184 -215 -213q196 -26 178 -211q-5 -57 -42 -159.5t-42 -166.5q-10 -126 20 -175.5t107 -49.5q43 0 76 16l-35 -67q-46 0 -83 5t-79 22.5t-68.5 46.5t-42 82t-9.5 124t31.5 131t50 111 t28.5 102q8 89 -39.5 128t-142.5 49v24q98 10 152.5 49t62.5 129q6 57 -25 155.5t-24 186.5q6 71 30 124t56.5 82.5t77.5 47t83.5 22.5t84.5 5l20 -66q-30 15 -70 15z" />
<glyph unicode="|" horiz-adv-x="296" d="M203 1464h71l-147 -1695h-72z" />
<glyph unicode="}" horiz-adv-x="598" d="M221 1313q-37 0 -71 -15l32 66q46 0 83.5 -5t79.5 -22.5t69 -47t42.5 -82.5t8.5 -124q-5 -56 -22.5 -106t-35.5 -81t-34 -72.5t-19 -82.5q-7 -90 41 -129t144 -49l-4 -24q-96 -10 -151 -49t-62 -128q-6 -58 26 -156.5t25 -187.5q-7 -71 -32 -124t-57 -82t-76.5 -46.5 t-82.5 -22.5t-84 -5l-25 67q31 -16 74 -16q78 0 117 50t49 175q6 64 -13 166.5t-14 159.5q7 99 65.5 149t149.5 62q-193 29 -178 213q4 59 41 160t43 163q12 125 -19.5 175.5t-109.5 50.5z" />
<glyph unicode="~" horiz-adv-x="755" d="M63 442q16 65 66.5 109.5t120.5 44.5q45 0 87 -19.5t68.5 -43t62 -43t69.5 -19.5q76 0 118 86h37q-14 -65 -64 -109.5t-120 -44.5q-45 0 -87 19.5t-69 43t-62 43t-69 19.5q-41 0 -71.5 -25t-47.5 -61h-39z" />
<glyph unicode="&#xa1;" horiz-adv-x="432" d="M248 842q-34 0 -55 21.5t-17 56.5q2 33 27 59.5t63 26.5q32 0 52.5 -21t19.5 -57q-2 -33 -27.5 -59.5t-62.5 -26.5zM205 707l-121 -1037l141 -63l45 1095z" />
<glyph unicode="&#xa2;" horiz-adv-x="811" d="M537 864q113 0 175 -55.5t56 -130.5q-4 -45 -29.5 -66.5t-56.5 -21.5q-29 0 -46.5 19.5t-14.5 54.5q2 22 20 49q17 27 6 47q-6 21 -35 38t-86 17h-18l-66 -778q66 7 124 44t100 91l8 -35q-86 -122 -236 -147l-8 -92h-47l8 86h-24q-117 0 -192.5 60.5t-100.5 152.5t-8 200 q27 176 136.5 305t262.5 156l8 92h47l-8 -86h25zM395 35l66 772q-200 -46 -252 -389q-24 -161 24 -267.5t162 -115.5z" />
<glyph unicode="&#xa3;" horiz-adv-x="872" d="M666 1112q2 21 23.5 48t23.5 46q5 36 -30 61t-91 25q-78 0 -114.5 -62.5t-51.5 -230.5l-25 -292h279l-27 -60h-258q-9 -93 -21 -163t-32 -124.5t-38 -90.5t-51.5 -72.5t-60.5 -59.5t-77 -61q71 27 136 23.5t102 -18t90.5 -31.5t101.5 -17q66 0 99.5 26.5t35.5 55.5 q1 15 -15 43t-14 51q3 29 26.5 49.5t53.5 20.5q35 0 55 -28.5t17 -62.5q-1 -18 -8.5 -40.5t-27.5 -53t-48.5 -54.5t-77.5 -41t-109 -17q-58 0 -124 17t-111.5 30.5t-124.5 5.5t-176 -51l-16 53q121 103 141 123q64 64 89 146q27 86 50 341h-154l27 60h133l19 219 q7 88 27.5 161t56 133t93 94t130.5 34q108 0 170 -66.5t55 -144.5q-4 -45 -28 -69t-54 -24q-27 0 -49.5 19.5t-19.5 48.5z" />
<glyph unicode="&#xa4;" horiz-adv-x="1026" d="M872 713q97 -128 82 -289q-15 -167 -131 -289l56 -59l-52 -47l-53 61q-131 -106 -299 -106t-280 106l-64 -61l-43 47l66 59q-97 125 -82 289q15 167 131 289l-53 59l51 47l53 -59q132 104 299 104q166 0 278 -106l66 61l41 -47zM862 424q13 156 -82 259t-235 103 q-152 0 -260 -101.5t-121 -260.5q-13 -155 83.5 -259t235.5 -104q152 0 258.5 102.5t120.5 260.5z" />
<glyph unicode="&#xa5;" horiz-adv-x="1118" d="M895 1331h248l-4 -22q-58 0 -103 -66l-362 -563h186l-24 -57h-193l-8 -115h209l-23 -59h-192l-31 -365q-2 -20 21 -34.5t54.5 -20.5t67.5 -6l-2 -23h-438v23q57 0 105 15.5t51 45.5l32 365h-243l22 59h226l10 110l-2 5h-242l25 57h190l-266 584q-23 45 -76 45l2 22h193 l288 -639l355 555q14 25 -13 43.5t-65 18.5z" />
<glyph unicode="&#xa6;" horiz-adv-x="296" d="M147 821l56 643h71l-55 -643h-72zM182 412l-55 -643h-72l56 643h71z" />
<glyph unicode="&#xa7;" horiz-adv-x="808" d="M532 743q95 -103 143.5 -178t57.5 -115t4 -88q-14 -164 -126.5 -271t-282.5 -107q-136 0 -204.5 65.5t-60.5 149.5q3 43 27 72.5t62 29.5q26 0 41 -15.5t14 -43.5q-2 -21 -19.5 -41.5t-19.5 -44.5q-4 -58 43 -90.5t123 -32.5q97 0 154 50.5t63 127.5q6 60 -37 135 t-180 227q-127 142 -142 161q-67 83 -78 156q-5 37 -1 85q10 95 50 169t97 117t119.5 65t124.5 22q113 0 180 -66t61 -149q-3 -42 -25 -71.5t-56 -29.5q-26 0 -44.5 17t-17.5 45q2 21 21 43t22 41q2 40 -34 80t-115 40q-89 0 -143 -53.5t-60 -136.5q-3 -32 3.5 -61.5t17 -52 t36 -54t46.5 -54t63.5 -66.5t72.5 -77zM643 258q21 49 24 95.5t-6.5 84.5t-39 84t-60 82.5t-82.5 91.5q-170 181 -213.5 242.5t-46.5 134.5h-14q-13 -34 -20 -63.5t-5.5 -58t3.5 -49t16 -47.5t22 -42.5t32.5 -44.5t37 -42.5t46 -48.5t48.5 -52q120 -130 180.5 -224.5 t63.5 -142.5h14z" />
<glyph unicode="&#xa8;" horiz-adv-x="425" d="M219 1520q22 0 35 -16t10 -40q-5 -22 -21.5 -35.5t-39.5 -13.5q-22 0 -34.5 15.5t-8.5 39.5q3 22 19.5 36t39.5 14zM406 1520q22 0 35 -16t10 -40q-5 -22 -22 -35.5t-40 -13.5q-22 0 -34.5 15.5t-8.5 39.5q3 22 20 36t40 14z" />
<glyph unicode="&#xa9;" horiz-adv-x="1454" d="M688 -16q-133 0 -250 54t-196.5 145t-120.5 217.5t-29 265.5t75 265.5t158.5 217.5t222 145t259.5 54t250 -54t196.5 -145t120.5 -217.5t29 -265.5t-75 -265.5t-158.5 -217.5t-222 -145t-259.5 -54zM694 53q116 0 226 48.5t193 131t138 195.5t66 238q14 166 -49.5 307 t-187.5 223t-279 82t-293.5 -82t-227 -223t-102.5 -307q-11 -125 24.5 -238t104.5 -195.5t170 -131t217 -48.5zM1022 414l10 -35q-45 -72 -121.5 -113t-171.5 -41q-117 0 -198 61t-114 153t-26 200q12 198 132 332.5t298 134.5q113 0 180.5 -55.5t67.5 -130.5 q0 -45 -23.5 -67t-54.5 -22q-29 0 -48 19.5t-19 54.5q0 25 16 49q13 27 2 47q-7 22 -38.5 39t-88.5 17q-256 0 -282 -398q-11 -167 52 -275t185 -108q143 0 242 138z" />
<glyph unicode="&#xaa;" horiz-adv-x="548" d="M559 858l6 -18q-74 -39 -125 -39q-18 0 -26.5 12t-14.5 47q-74 -59 -161 -59q-29 0 -57 6.5t-56 22t-44.5 47t-14.5 75.5q4 53 34 90.5t82 57.5t108 30t128 13l4 61q9 109 -105 109q-43 0 -71 -11.5t-29 -31.5q-1 -7 11 -21t10 -35q-5 -51 -56 -51q-26 0 -40 19t-11 49 q5 47 56 84t145 37q97 0 145 -46.5t39 -150.5l-22 -252q0 -5 -1.5 -17.5t-1 -16t2 -9.5t7 -8t15.5 -2q19 0 43 8zM174 969q-5 -55 19 -87t73 -32q60 0 129 43l19 217q-49 -6 -78 -11.5t-62.5 -15.5t-51.5 -24t-31.5 -36.5t-16.5 -53.5zM109 629l14 49h350l-14 -49h-350z" />
<glyph unicode="&#xab;" horiz-adv-x="940" d="M76 457l325 -367l31 57l-227 320l284 319l-20 58l-393 -367v-20zM422 457l326 -367l30 57l-227 320l285 319l-21 58l-393 -367v-20z" />
<glyph unicode="&#xac;" horiz-adv-x="751" d="M692 539l-24 -293h-64l21 233h-545l4 60h608z" />
<glyph unicode="&#xad;" horiz-adv-x="464" d="M61 446l388 142l-37 -72l-385 -141z" />
<glyph unicode="&#xae;" horiz-adv-x="1081" d="M641 1575q128 0 230.5 -65.5t155 -178.5t40.5 -246q-19 -202 -168.5 -344.5t-343.5 -142.5q-128 0 -230.5 65.5t-155 177.5t-40.5 244q12 133 84.5 245.5t186 178.5t241.5 66zM989 1083q9 112 -33.5 209t-127.5 156t-193 59q-161 0 -286 -124t-140 -298 q-15 -172 88 -295.5t264 -123.5q162 0 287.5 122.5t140.5 294.5zM762 926q43 -64 94 -64v-14h-162q19 22 2 51l-96 158q-48 -11 -82 -13l-12 -133q-3 -24 17.5 -36.5t58.5 -12.5l-2 -14h-209v14q57 0 63 39l35 404q3 24 -15 37.5t-46 13.5v16h213q76 0 122 -33.5t39 -103.5 q-6 -104 -116 -156zM543 1335l-21 -252q93 7 134.5 50t45.5 96q5 46 -19 78t-89 32q-15 0 -51 -4z" />
<glyph unicode="&#xaf;" horiz-adv-x="483" d="M178 1493h332l-23 -57h-331z" />
<glyph unicode="&#xb0;" horiz-adv-x="432" d="M276 1130q-61 0 -98.5 42t-32.5 104q5 63 51 107t107 44t98.5 -43.5t32.5 -107.5q-6 -62 -51 -104t-107 -42zM283 1186q35 0 61 27t29 63q3 38 -18 66t-56 28q-36 0 -62.5 -28t-29.5 -66q-3 -36 18.5 -63t57.5 -27z" />
<glyph unicode="&#xb1;" horiz-adv-x="669" d="M377 539h229l-4 -60h-229l-21 -233h-67l20 233h-229l4 60h229l21 233h67zM43 111l4 59h526l-4 -59h-526z" />
<glyph unicode="&#xb2;" horiz-adv-x="475" d="M438 948q20 0 35 -17t12 -42q-5 -47 -42.5 -80t-102.5 -33q-35 0 -82 16.5t-74 16.5q-63 0 -108 -23l-15 23q38 46 89.5 107t74.5 88.5t54.5 67t44 60t27 49.5t20 53t8.5 54q10 117 -86 117q-27 0 -49.5 -11.5t-24.5 -25.5q-1 -8 8.5 -23.5t8.5 -25.5q-3 -21 -18.5 -33 t-35.5 -12q-22 0 -33 16t-8 41q3 46 47.5 78.5t120.5 32.5q75 0 123 -37.5t41 -120.5q-2 -21 -7.5 -41.5t-17 -43.5t-22 -42t-31 -46.5t-34 -45.5t-42 -51t-44.5 -51.5t-50.5 -57.5t-52.5 -59q10 2 35 2q28 -2 74 -17.5t65 -15.5q50 0 55 33q1 6 -9 20.5t-9 32.5 q1 23 17.5 35t37.5 12z" />
<glyph unicode="&#xb3;" horiz-adv-x="448" d="M229 813q127 0 138 129q6 72 -29 113t-119 63l2 19q138 31 150 151q6 63 -18 90t-77 27q-28 0 -50 -9.5t-23 -25.5q-1 -13 9 -26.5t9 -30.5q-2 -19 -16.5 -31t-36.5 -12t-37 16t-12 39q6 47 53 82t117 35q47 0 85.5 -13t64.5 -45.5t22 -80.5q-3 -47 -36 -90.5t-87 -71.5 q137 -54 127 -174q-7 -80 -65.5 -135.5t-166.5 -55.5q-82 0 -125 33t-40 80q3 29 19 46t36 17q22 0 35.5 -16t11.5 -39q-1 -15 -13.5 -28.5t-13.5 -18.5q-2 -8 7 -16.5t30 -14.5t49 -6z" />
<glyph unicode="&#xb4;" horiz-adv-x="352" d="M276 1602l-120 -164l22 -39l211 203h-113z" />
<glyph unicode="&#xb5;" horiz-adv-x="980" d="M922 68l8 -25q-55 -25 -110.5 -42t-74.5 -17q-28 0 -42 41.5t-11 113.5q-55 -70 -137 -112.5t-164 -42.5q-74 0 -127 32l-33 -385h-225l2 23q39 0 68.5 15.5t32.5 45.5l88 996q3 38 -7.5 55.5t-39.5 17.5q-27 0 -68 -16l-6 25l135 55q32 16 63 16q29 0 45 -18.5t13 -52.5 l-47 -557q-6 -84 39.5 -137.5t126.5 -53.5q125 0 243 158l58 645h127l-64 -739q-3 -28 7.5 -42t41.5 -14q22 0 58 15z" />
<glyph unicode="&#xb6;" horiz-adv-x="806" d="M383 1331h471v-22q-50 0 -100.5 -23.5t-53.5 -54.5l-104 -1231h-96l110 1280h-139l-111 -1280h-92l68 795h-4q-98 0 -156.5 75t-48.5 187q10 118 83 196t173 78z" />
<glyph unicode="&#xb7;" horiz-adv-x="464" d="M215 592q36 0 55.5 -25t16.5 -55q-3 -38 -26.5 -58t-55.5 -20q-36 0 -56 25t-18 57q3 36 27.5 56t56.5 20z" />
<glyph unicode="&#xb8;" horiz-adv-x="327" d="M145 -63q32 0 54 -16.5t14 -51.5q-7 -48 -53.5 -79.5t-98.5 -31.5q-20 0 -28 2l16 27q70 0 84 70q7 49 -27 49q-33 0 -71 -33l-10 23l67 112h58q-1 -1 -26 -42t-26 -42q26 13 47 13z" />
<glyph unicode="&#xb9;" horiz-adv-x="317" d="M244 850q-1 -23 18 -34t60 -11l-3 -19h-258l2 19q91 0 97 39l39 444q1 20 -1 26.5t-10 6.5q-4 1 -16.5 -4t-30.5 -12.5t-30 -10.5l-5 15q88 49 134 125h61q-11 -53 -12 -74z" />
<glyph unicode="&#xba;" horiz-adv-x="565" d="M313 801q-106 0 -169 72t-56 194q9 132 89.5 208.5t191.5 76.5q106 0 168 -70.5t55 -191.5q-7 -131 -87 -210t-192 -79zM336 844q123 0 143 207q11 113 -22 185.5t-109 72.5q-64 0 -101 -53t-46 -150q-11 -114 25 -188t110 -74zM119 678h381l-17 -49h-379z" />
<glyph unicode="&#xbb;" horiz-adv-x="917" d="M500 457l4 20l-330 367l-31 -58l230 -319l-283 -320l21 -57zM846 457l4 20l-330 367l-31 -58l230 -319l-283 -320l21 -57z" />
<glyph unicode="&#xbc;" horiz-adv-x="890" d="M236 748q-2 -23 17 -34.5t60 -11.5l-2 -18h-258l2 18q91 0 97 39l38 445q1 20 -0.5 26.5t-9.5 6.5q-4 1 -17 -4t-31 -12.5t-30 -10.5l-4 14q86 48 133 125h62q-11 -53 -12 -74zM680 1331h63l-567 -1331h-63zM813 248l-12 -133h-19q3 45 -34 45h-48l-6 -97q-3 -45 66 -45 l-2 -18h-226l3 18q72 0 75 52l8 90h-239l2 14l299 473h63l-38 -446h47q37 0 43 47h18zM459 201h164l26 319z" />
<glyph unicode="&#xbd;" horiz-adv-x="954" d="M236 748q-2 -23 17 -34.5t60 -11.5l-2 -18h-258l2 18q91 0 97 39l38 445q1 20 -0.5 26.5t-9.5 6.5q-4 1 -17 -4t-31 -12.5t-30 -10.5l-4 14q86 48 133 125h62q-11 -53 -12 -74zM680 1331h63l-567 -1331h-63zM817 162q20 0 35 -17.5t12 -42.5q-5 -47 -42.5 -79.5 t-102.5 -32.5q-35 0 -82 16.5t-74 16.5q-63 0 -108 -23l-15 23q38 46 89.5 107t74.5 88.5t54.5 67t44 60t27 49.5t20 53t8.5 54q10 116 -86 116q-27 0 -49.5 -11t-24.5 -25q-1 -8 8 -24t8 -26q-3 -21 -18 -33t-35 -12q-21 0 -32.5 16.5t-8.5 41.5q3 46 47.5 78t120.5 32 q75 0 123 -37.5t41 -119.5q-2 -21 -7.5 -41.5t-17 -44t-21.5 -42t-31 -46.5t-34 -45.5t-42.5 -51.5t-44.5 -51t-51 -57.5t-52 -59.5q10 2 35 2q28 -2 74 -17t65 -15q50 0 55 32q1 6 -9 21t-9 33q1 23 17.5 35t37.5 12z" />
<glyph unicode="&#xbe;" horiz-adv-x="1011" d="M231 711q127 0 138 129q6 72 -29 113t-119 63l2 18q138 31 150 152q6 63 -17.5 90t-76.5 27q-28 0 -50.5 -9.5t-23.5 -25.5q-1 -13 9 -27t9 -31q-2 -19 -16.5 -31t-36.5 -12t-37 16.5t-12 39.5q6 47 53 81.5t117 34.5q47 0 85.5 -13t64.5 -45.5t22 -80.5 q-3 -47 -36 -90.5t-87 -71.5q137 -54 127 -174q-7 -80 -65 -135t-166 -55q-82 0 -125.5 32.5t-40.5 79.5q3 29 19 46.5t36 17.5q22 0 35.5 -16t11.5 -39q-1 -15 -13.5 -28.5t-13.5 -18.5q-2 -8 7 -16.5t30 -14.5t49 -6zM791 1331h63l-567 -1331h-64zM932 248l-12 -133h-19 q3 45 -35 45h-47l-6 -97q-3 -45 66 -45l-2 -18h-226l2 18q73 0 76 52l8 90h-239l2 14l299 473h63l-39 -446h47q37 0 43 47h19zM578 201h163l27 319z" />
<glyph unicode="&#xbf;" horiz-adv-x="700" d="M485 809q-38 0 -58 26.5t-17 59.5q3 35 28.5 56.5t57.5 21.5q38 0 58 -26.5t17 -59.5q-3 -36 -27.5 -57t-58.5 -21zM383 600l37 68q58 0 94 -20.5t44.5 -56.5t-19.5 -91t-93 -119q-30 -30 -76.5 -70t-71.5 -65t-54 -63t-44 -87t-20 -114q-14 -158 44 -235.5t157 -80.5 q70 -3 117.5 26.5t50.5 61.5q1 16 -21 39t-20 55q3 35 25.5 56.5t56.5 21.5q36 0 57.5 -29.5t16.5 -70.5q-2 -26 -17.5 -58t-47 -68t-92.5 -60.5t-140 -24.5q-163 0 -258 90.5t-82 251.5q6 57 25.5 108.5t44.5 88t63 73.5t67.5 59.5t71.5 53.5t63 49q84 70 89.5 124.5 t-68.5 86.5z" />
<glyph unicode="&#xc0;" horiz-adv-x="1189" d="M545 1602l-33 -84l276 -119l17 39zM1036 68q19 -45 92 -45l-2 -23h-325l2 23q36 0 61 12t21 33l-99 387h-448l-158 -385q-10 -23 26.5 -35t92.5 -12l-2 -23h-307l4 23q89 0 106 38l541 1287l45 14zM362 514h408l-158 600z" />
<glyph unicode="&#xc1;" horiz-adv-x="1189" d="M795 1602l-275 -164l15 -39l286 119zM1036 68q19 -45 92 -45l-2 -23h-325l2 23q36 0 61 12t21 33l-99 387h-448l-158 -385q-10 -23 26.5 -35t92.5 -12l-2 -23h-307l4 23q89 0 106 38l541 1287l45 14zM362 514h408l-158 600z" />
<glyph unicode="&#xc2;" horiz-adv-x="1189" d="M494 1413l149 184h78l119 -184h-54l-108 131l-131 -131h-53zM1036 68q19 -45 92 -45l-2 -23h-325l2 23q36 0 61 12t21 33l-99 387h-448l-158 -385q-10 -23 26.5 -35t92.5 -12l-2 -23h-307l4 23q89 0 106 38l541 1287l45 14zM362 514h408l-158 600z" />
<glyph unicode="&#xc3;" horiz-adv-x="1189" d="M461 1458q40 109 125 109q34 0 63 -14.5t45.5 -32.5t40 -32.5t47.5 -14.5q19 0 34.5 11t22 20.5t19.5 31.5l25 -10q-38 -109 -125 -109q-28 0 -52 9.5t-40.5 23.5t-31.5 28t-33 23.5t-38 9.5q-23 0 -40 -14t-36 -49zM1036 68q19 -45 92 -45l-2 -23h-325l2 23q36 0 61 12 t21 33l-99 387h-448l-158 -385q-10 -23 26.5 -35t92.5 -12l-2 -23h-307l4 23q89 0 106 38l541 1287l45 14zM362 514h408l-158 600z" />
<glyph unicode="&#xc4;" horiz-adv-x="1189" d="M580 1520q22 0 36 -16t13 -40q-1 -22 -17 -35.5t-39 -13.5q-22 0 -36 15.5t-13 39.5q2 22 17.5 36t38.5 14zM766 1520q22 0 36 -16t13 -40q-2 -22 -17 -35.5t-38 -13.5q-22 0 -36 15.5t-13 39.5q2 22 17 36t38 14zM1036 68q19 -45 92 -45l-2 -23h-325l2 23q36 0 61 12 t21 33l-99 387h-448l-158 -385q-10 -23 26.5 -35t92.5 -12l-2 -23h-307l4 23q89 0 106 38l541 1287l45 14zM362 514h408l-158 600z" />
<glyph unicode="&#xc5;" horiz-adv-x="1189" d="M666 1399q-41 0 -68.5 30.5t-24.5 71.5t36 71t73 30q41 0 68.5 -30t23.5 -71q-3 -41 -35 -71.5t-73 -30.5zM670 1450q22 0 38 14.5t17 36.5q2 21 -12 36t-35 15q-20 0 -36 -15t-19 -36q-2 -22 11.5 -36.5t35.5 -14.5zM1036 68q19 -45 92 -45l-2 -23h-325l2 23q36 0 61 12 t21 33l-99 387h-448l-158 -385q-10 -23 26.5 -35t92.5 -12l-2 -23h-307l4 23q89 0 106 38l541 1287l45 14zM362 514h408l-158 600z" />
<glyph unicode="&#xc6;" horiz-adv-x="1626" d="M1518 190l24 -8l-57 -182h-670l33 385h-440l-199 -301q-20 -29 19.5 -45t97.5 -16l-2 -23h-344l4 23q38 0 79 14.5t60 40.5l827 1253h606l58 -184l-25 -6q-25 68 -59.5 99.5t-87.5 31.5h-375l-47 -553h323q60 0 74 137h23l-29 -332h-25q6 61 -5.5 98t-41.5 37h-325 l-51 -600h419q50 0 78 29.5t58 101.5zM444 442h410l61 721z" />
<glyph unicode="&#xc7;" horiz-adv-x="1214" d="M719 49q106 0 208 45t163 125l20 -39q-71 -101 -190 -148.5t-244 -47.5h-6q-27 -56 -31 -60q26 13 47 13q32 0 55 -16.5t19 -51.5q-4 -48 -48 -79.5t-96 -31.5q-20 0 -28 2l14 27q30 0 52 17t26 53q4 49 -31 49q-31 0 -69 -33l-13 23l47 90q-115 12 -215 65t-171 137.5 t-107 203.5t-25 253q11 131 57 245.5t115 197t155.5 142t182 89t191.5 29.5q127 0 235 -45q26 -11 42 -15.5t36 0t29 25.5l22 -10l-84 -279l-22 8q18 90 10 132.5t-47 66.5q-81 51 -238 51q-148 0 -263 -78t-181.5 -212.5t-85.5 -311.5q-14 -134 17.5 -253t96 -201 t157.5 -129.5t198 -47.5z" />
<glyph unicode="&#xc8;" horiz-adv-x="970" d="M485 1602l-32 -84l276 -119l16 39zM862 190l25 -8l-58 -182h-780l2 23q38 0 76 16.5t41 44.5l100 1163q3 28 -32 45t-74 17l2 22h737l57 -184l-24 -6q-25 67 -59.5 99t-86.5 32h-376l-47 -553h325q29 0 48 38.5t24 98.5h22l-28 -332h-23q10 135 -47 135h-326l-53 -600 h420q51 0 78.5 29.5t56.5 101.5z" />
<glyph unicode="&#xc9;" horiz-adv-x="970" d="M735 1602l-274 -164l14 -39l287 119zM862 190l25 -8l-58 -182h-780l2 23q38 0 76 16.5t41 44.5l100 1163q3 28 -32 45t-74 17l2 22h737l57 -184l-24 -6q-25 67 -59.5 99t-86.5 32h-376l-47 -553h325q29 0 48 38.5t24 98.5h22l-28 -332h-23q10 135 -47 135h-326l-53 -600 h420q51 0 78.5 29.5t56.5 101.5z" />
<glyph unicode="&#xca;" horiz-adv-x="970" d="M434 1413l150 184h78l118 -184h-53l-109 131l-131 -131h-53zM862 190l25 -8l-58 -182h-780l2 23q38 0 76 16.5t41 44.5l100 1163q3 28 -32 45t-74 17l2 22h737l57 -184l-24 -6q-25 67 -59.5 99t-86.5 32h-376l-47 -553h325q29 0 48 38.5t24 98.5h22l-28 -332h-23 q10 135 -47 135h-326l-53 -600h420q51 0 78.5 29.5t56.5 101.5z" />
<glyph unicode="&#xcb;" horiz-adv-x="970" d="M520 1520q22 0 36 -16t13 -40q-2 -22 -17 -35.5t-38 -13.5q-22 0 -36 15.5t-13 39.5q2 22 17 36t38 14zM707 1520q22 0 36 -16t13 -40q-1 -22 -17 -35.5t-39 -13.5q-22 0 -36 15.5t-13 39.5q2 22 17.5 36t38.5 14zM862 190l25 -8l-58 -182h-780l2 23q38 0 76 16.5 t41 44.5l100 1163q3 28 -32 45t-74 17l2 22h737l57 -184l-24 -6q-25 67 -59.5 99t-86.5 32h-376l-47 -553h325q29 0 48 38.5t24 98.5h22l-28 -332h-23q10 135 -47 135h-326l-53 -600h420q51 0 78.5 29.5t56.5 101.5z" />
<glyph unicode="&#xcc;" horiz-adv-x="501" d="M217 1602l-33 -84l277 -119l16 39zM494 1309q-33 0 -65.5 -16.5t-35.5 -45.5l-102 -1163q-3 -29 25 -45t61 -16l-4 -23h-326l2 23q35 0 66.5 16t34.5 45l102 1163q3 29 -25 45.5t-61 16.5l2 22h328z" />
<glyph unicode="&#xcd;" horiz-adv-x="501" d="M467 1602l-274 -164l14 -39l287 119zM494 1309q-33 0 -65.5 -16.5t-35.5 -45.5l-102 -1163q-3 -29 25 -45t61 -16l-4 -23h-326l2 23q35 0 66.5 16t34.5 45l102 1163q3 29 -25 45.5t-61 16.5l2 22h328z" />
<glyph unicode="&#xce;" horiz-adv-x="501" d="M166 1413l149 184h78l119 -184h-53l-109 131l-131 -131h-53zM494 1309q-33 0 -65.5 -16.5t-35.5 -45.5l-102 -1163q-3 -29 25 -45t61 -16l-4 -23h-326l2 23q35 0 66.5 16t34.5 45l102 1163q3 29 -25 45.5t-61 16.5l2 22h328z" />
<glyph unicode="&#xcf;" horiz-adv-x="501" d="M252 1520q22 0 36 -16t13 -40q-2 -22 -17 -35.5t-38 -13.5q-22 0 -36 15.5t-13 39.5q2 22 17 36t38 14zM438 1520q22 0 36 -16t13 -40q-2 -22 -17 -35.5t-38 -13.5q-22 0 -36 15.5t-13 39.5q2 22 17 36t38 14zM494 1309q-33 0 -65.5 -16.5t-35.5 -45.5l-102 -1163 q-3 -29 25 -45t61 -16l-4 -23h-326l2 23q35 0 66.5 16t34.5 45l102 1163q3 29 -25 45.5t-61 16.5l2 22h328z" />
<glyph unicode="&#xd0;" horiz-adv-x="1277" d="M698 1331q82 0 162 -26t151 -80.5t122.5 -129.5t77 -181t14.5 -228q-10 -106 -40.5 -205t-83.5 -187t-123.5 -153t-167 -103t-206.5 -38h-557l2 23q39 0 75.5 16.5t39.5 44.5l51 592h-94l29 59h71l45 512q3 28 -30 45t-72 17l2 22h532zM1069 647q17 187 -29.5 328.5 t-157.5 223t-274 81.5q-117 0 -198 -16l-48 -529h406l-29 -59h-381l-53 -606q125 -19 240 -19t204 34.5t145 89.5t94 135.5t55.5 160t25.5 176.5z" />
<glyph unicode="&#xd1;" horiz-adv-x="1370" d="M571 1458q40 109 125 109q34 0 63 -14.5t46 -32.5t40.5 -32.5t47.5 -14.5q19 0 34.5 11t22 20.5t19.5 31.5l24 -10q-38 -109 -125 -109q-34 0 -63 14.5t-45.5 32.5t-39 32.5t-46.5 14.5q-23 0 -40 -14t-36 -49zM1374 1331l-2 -22q-38 0 -73.5 -16.5t-38.5 -45.5 l-111 -1255h-29l-792 1106l-90 -1014q-3 -31 37 -46t108 -15l-2 -23h-334l2 23q40 0 77 16t40 45l102 1163q3 29 -31.5 45.5t-74.5 16.5l4 22h172l762 -1063l86 979q3 31 -37 46.5t-107 15.5l2 22h330z" />
<glyph unicode="&#xd2;" horiz-adv-x="1394" d="M666 1602l-33 -84l276 -119l17 39zM645 -16q-125 0 -231.5 47.5t-181.5 132.5t-112.5 210t-25.5 271q11 132 55 246t111.5 197t153.5 142t182.5 88.5t196.5 29.5q258 0 415 -185t133 -475q-13 -165 -77.5 -301t-161 -222.5t-214.5 -133.5t-243 -47zM680 49q99 0 184.5 36 t155 109t114.5 193.5t58 278.5q14 181 -32 320t-150 217.5t-252 78.5q-75 0 -143 -20.5t-131.5 -67t-112.5 -116t-82.5 -174.5t-44.5 -236q-23 -279 95 -449t341 -170z" />
<glyph unicode="&#xd3;" horiz-adv-x="1394" d="M915 1602l-274 -164l14 -39l287 119zM645 -16q-125 0 -231.5 47.5t-181.5 132.5t-112.5 210t-25.5 271q11 132 55 246t111.5 197t153.5 142t182.5 88.5t196.5 29.5q258 0 415 -185t133 -475q-13 -165 -77.5 -301t-161 -222.5t-214.5 -133.5t-243 -47zM680 49 q99 0 184.5 36t155 109t114.5 193.5t58 278.5q14 181 -32 320t-150 217.5t-252 78.5q-75 0 -143 -20.5t-131.5 -67t-112.5 -116t-82.5 -174.5t-44.5 -236q-23 -279 95 -449t341 -170z" />
<glyph unicode="&#xd4;" horiz-adv-x="1394" d="M614 1413l150 184h78l119 -184h-54l-108 131l-131 -131h-54zM645 -16q-125 0 -231.5 47.5t-181.5 132.5t-112.5 210t-25.5 271q11 132 55 246t111.5 197t153.5 142t182.5 88.5t196.5 29.5q258 0 415 -185t133 -475q-13 -165 -77.5 -301t-161 -222.5t-214.5 -133.5 t-243 -47zM680 49q99 0 184.5 36t155 109t114.5 193.5t58 278.5q14 181 -32 320t-150 217.5t-252 78.5q-75 0 -143 -20.5t-131.5 -67t-112.5 -116t-82.5 -174.5t-44.5 -236q-23 -279 95 -449t341 -170z" />
<glyph unicode="&#xd5;" horiz-adv-x="1394" d="M582 1458q40 109 125 109q34 0 63 -14.5t45.5 -32.5t40 -32.5t47.5 -14.5q19 0 34.5 11t22 20.5t19.5 31.5l25 -10q-38 -109 -125 -109q-28 0 -52 9.5t-40.5 23.5t-31.5 28t-33 23.5t-38 9.5q-23 0 -40 -14t-36 -49zM645 -16q-125 0 -231.5 47.5t-181.5 132.5t-112.5 210 t-25.5 271q11 132 55 246t111.5 197t153.5 142t182.5 88.5t196.5 29.5q258 0 415 -185t133 -475q-13 -165 -77.5 -301t-161 -222.5t-214.5 -133.5t-243 -47zM680 49q99 0 184.5 36t155 109t114.5 193.5t58 278.5q14 181 -32 320t-150 217.5t-252 78.5q-75 0 -143 -20.5 t-131.5 -67t-112.5 -116t-82.5 -174.5t-44.5 -236q-23 -279 95 -449t341 -170z" />
<glyph unicode="&#xd6;" horiz-adv-x="1394" d="M700 1520q22 0 36.5 -16t13.5 -40q-1 -22 -17 -35.5t-39 -13.5q-22 0 -36 15.5t-13 39.5q2 22 17 36t38 14zM887 1520q22 0 36 -16t13 -40q-2 -22 -17 -35.5t-38 -13.5q-22 0 -36.5 15.5t-13.5 39.5q2 22 17.5 36t38.5 14zM645 -16q-125 0 -231.5 47.5t-181.5 132.5 t-112.5 210t-25.5 271q11 132 55 246t111.5 197t153.5 142t182.5 88.5t196.5 29.5q258 0 415 -185t133 -475q-13 -165 -77.5 -301t-161 -222.5t-214.5 -133.5t-243 -47zM680 49q99 0 184.5 36t155 109t114.5 193.5t58 278.5q14 181 -32 320t-150 217.5t-252 78.5 q-75 0 -143 -20.5t-131.5 -67t-112.5 -116t-82.5 -174.5t-44.5 -236q-23 -279 95 -449t341 -170z" />
<glyph unicode="&#xd7;" horiz-adv-x="546" d="M494 690l-181 -182l148 -180l-43 -41l-146 178l-176 -178l-39 41l181 182l-148 180l43 41l146 -178l176 178z" />
<glyph unicode="&#xd8;" horiz-adv-x="1394" d="M1192 1182q83 -89 122 -215.5t27 -278.5q-13 -165 -77.5 -301t-161 -222.5t-214.5 -133.5t-243 -47q-234 0 -385 151l-123 -139h-80l164 182q-150 184 -127 467q11 132 55 246t111.5 197t153.5 142t182.5 88.5t196.5 29.5q209 0 356 -125l96 108h80zM244 668 q-18 -233 61 -394l770 867q-116 141 -317 141q-75 0 -143 -20.5t-131.5 -67t-112.5 -116t-82.5 -174.5t-44.5 -236zM1192 666q22 262 -82 424l-772 -869q120 -172 342 -172q99 0 184.5 36t155 109t114.5 193.5t58 278.5z" />
<glyph unicode="&#xd9;" horiz-adv-x="1282" d="M627 1602l-33 -84l276 -119l17 39zM1288 1331l-2 -22q-40 0 -76 -16t-39 -46l-75 -874q-9 -98 -54 -174t-114.5 -122t-152 -69.5t-173.5 -23.5q-94 0 -173 25.5t-137.5 75t-87.5 129t-20 181.5l76 852q3 29 -31.5 45.5t-74.5 16.5l2 22h362l-2 -22q-40 0 -76 -16t-39 -46 l-73 -833q-9 -96 11 -168.5t63.5 -114.5t100.5 -62t126 -20q152 0 262.5 85t120.5 214l80 899q3 29 -31 45.5t-74 16.5l4 22h297z" />
<glyph unicode="&#xda;" horiz-adv-x="1282" d="M877 1602l-275 -164l14 -39l287 119zM1288 1331l-2 -22q-40 0 -76 -16t-39 -46l-75 -874q-9 -98 -54 -174t-114.5 -122t-152 -69.5t-173.5 -23.5q-94 0 -173 25.5t-137.5 75t-87.5 129t-20 181.5l76 852q3 29 -31.5 45.5t-74.5 16.5l2 22h362l-2 -22q-40 0 -76 -16 t-39 -46l-73 -833q-9 -96 11 -168.5t63.5 -114.5t100.5 -62t126 -20q152 0 262.5 85t120.5 214l80 899q3 29 -31 45.5t-74 16.5l4 22h297z" />
<glyph unicode="&#xdb;" horiz-adv-x="1282" d="M575 1413l150 184h78l119 -184h-54l-108 131l-131 -131h-54zM1288 1331l-2 -22q-40 0 -76 -16t-39 -46l-75 -874q-9 -98 -54 -174t-114.5 -122t-152 -69.5t-173.5 -23.5q-94 0 -173 25.5t-137.5 75t-87.5 129t-20 181.5l76 852q3 29 -31.5 45.5t-74.5 16.5l2 22h362 l-2 -22q-40 0 -76 -16t-39 -46l-73 -833q-9 -96 11 -168.5t63.5 -114.5t100.5 -62t126 -20q152 0 262.5 85t120.5 214l80 899q3 29 -31 45.5t-74 16.5l4 22h297z" />
<glyph unicode="&#xdc;" horiz-adv-x="1282" d="M662 1520q22 0 36 -16t13 -40q-1 -22 -17 -35.5t-39 -13.5q-22 0 -36 15.5t-13 39.5q2 22 17.5 36t38.5 14zM848 1520q22 0 36 -16t13 -40q-2 -22 -17 -35.5t-38 -13.5q-22 0 -36 15.5t-13 39.5q2 22 17 36t38 14zM1288 1331l-2 -22q-40 0 -76 -16t-39 -46l-75 -874 q-9 -98 -54 -174t-114.5 -122t-152 -69.5t-173.5 -23.5q-94 0 -173 25.5t-137.5 75t-87.5 129t-20 181.5l76 852q3 29 -31.5 45.5t-74.5 16.5l2 22h362l-2 -22q-40 0 -76 -16t-39 -46l-73 -833q-9 -96 11 -168.5t63.5 -114.5t100.5 -62t126 -20q152 0 262.5 85t120.5 214 l80 899q3 29 -31 45.5t-74 16.5l4 22h297z" />
<glyph unicode="&#xdd;" horiz-adv-x="1118" d="M786 1602l-274 -164l14 -39l287 119zM1143 1331l-4 -22q-58 0 -103 -66l-391 -608l-47 -551q-2 -20 21 -34.5t54.5 -20.5t67.5 -6l-2 -23h-438v23q57 0 105 15.5t51 45.5l47 534l-295 646q-23 45 -76 45l2 22h193l288 -639l355 555q14 25 -13 43.5t-65 18.5l2 22h248z " />
<glyph unicode="&#xde;" horiz-adv-x="1015" d="M557 1126q60 0 117.5 -11.5t113.5 -39t96 -69t62 -106.5t15 -146q-8 -103 -53 -186t-109.5 -136.5t-148 -90.5t-165 -53t-163.5 -18l-17 -186q-3 -30 25 -45.5t69 -15.5l-2 -23h-350l2 23q41 0 76.5 15.5t38.5 45.5l102 1163q3 30 -29 46t-73 16l2 22h342l-2 -22 q-38 0 -66.5 -16t-31.5 -46l-11 -121h160zM809 762q12 134 -69.5 223.5t-227.5 89.5q-70 0 -121 -22l-63 -725q72 1 134.5 13t124 43t106.5 78.5t76.5 124t39.5 175.5z" />
<glyph unicode="&#xdf;" horiz-adv-x="946" d="M575 702q142 -55 224 -153t71 -230q-5 -61 -27 -119t-60 -107t-98 -79t-132 -30q-85 0 -143 42t-52 109q4 40 25.5 58t46.5 18q27 0 49 -20t19 -56q-1 -17 -11.5 -31t-11.5 -22q-2 -21 16.5 -35t59.5 -14q83 0 125.5 64.5t50.5 172.5q13 153 -55 246t-244 164v20 q69 18 119.5 43t80 51.5t48 62.5t25.5 67.5t10 74.5q14 156 -33 227.5t-162 71.5q-161 0 -174 -159l-92 -1055q-2 -25 16.5 -43t52.5 -18l-2 -23h-305l2 23q37 0 67.5 15.5t33.5 45.5l86 973q12 135 110.5 213t237.5 78q60 0 112.5 -16t97 -50t67.5 -96t16 -146 q-5 -57 -23 -106.5t-43 -83.5t-60.5 -63.5t-68 -48t-72.5 -36.5z" />
<glyph unicode="&#xe0;" horiz-adv-x="892" d="M600 995l-27 -39l-178 203h113zM821 68l4 -25q-50 -24 -103.5 -41.5t-76.5 -17.5q-21 0 -37 18.5t-22 52.5q-83 -71 -209 -71q-166 0 -258 126.5t-70 321.5q21 188 133.5 310t284.5 122q111 0 186 -57l49 41h80l-65 -735q-2 -31 6.5 -44.5t36.5 -13.5t61 13zM586 117 l55 628q-63 70 -162 70q-130 0 -207 -114t-86 -291q-10 -169 55.5 -273t172.5 -104q51 0 97 23.5t75 60.5z" />
<glyph unicode="&#xe1;" horiz-adv-x="892" d="M623 1159l-195 -203l-25 39l107 164h113zM821 68l4 -25q-50 -24 -103.5 -41.5t-76.5 -17.5q-21 0 -37 18.5t-22 52.5q-83 -71 -209 -71q-166 0 -258 126.5t-70 321.5q21 188 133.5 310t284.5 122q111 0 186 -57l49 41h80l-65 -735q-2 -31 6.5 -44.5t36.5 -13.5t61 13z M586 117l55 628q-63 70 -162 70q-130 0 -207 -114t-86 -291q-10 -169 55.5 -273t172.5 -104q51 0 97 23.5t75 60.5z" />
<glyph unicode="&#xe2;" horiz-adv-x="892" d="M514 1102l-131 -131h-53l149 184h78l119 -184h-53zM821 68l4 -25q-50 -24 -103.5 -41.5t-76.5 -17.5q-21 0 -37 18.5t-22 52.5q-83 -71 -209 -71q-166 0 -258 126.5t-70 321.5q21 188 133.5 310t284.5 122q111 0 186 -57l49 41h80l-65 -735q-2 -31 6.5 -44.5t36.5 -13.5 t61 13zM586 117l55 628q-63 70 -162 70q-130 0 -207 -114t-86 -291q-10 -169 55.5 -273t172.5 -104q51 0 97 23.5t75 60.5z" />
<glyph unicode="&#xe3;" horiz-adv-x="892" d="M399 1069q-23 0 -39.5 -14t-35.5 -49l-27 10q39 108 125 108q34 0 63 -14.5t45.5 -32.5t40 -32.5t47.5 -14.5q15 0 26 4.5t21.5 17t14.5 18.5t14 24l25 -11q-38 -108 -125 -108q-28 0 -52 9.5t-40.5 23.5t-31.5 28t-33 23.5t-38 9.5zM821 68l4 -25q-50 -24 -103.5 -41.5 t-76.5 -17.5q-21 0 -37 18.5t-22 52.5q-83 -71 -209 -71q-166 0 -258 126.5t-70 321.5q21 188 133.5 310t284.5 122q111 0 186 -57l49 41h80l-65 -735q-2 -31 6.5 -44.5t36.5 -13.5t61 13zM586 117l55 628q-63 70 -162 70q-130 0 -207 -114t-86 -291q-10 -169 55.5 -273 t172.5 -104q51 0 97 23.5t75 60.5z" />
<glyph unicode="&#xe4;" horiz-adv-x="892" d="M410 973q-22 0 -36.5 15.5t-13.5 39.5q1 22 17 35.5t39 13.5q22 0 36 -15.5t13 -39.5q-2 -22 -17 -35.5t-38 -13.5zM596 973q-22 0 -36 15.5t-13 39.5q2 22 17 35.5t38 13.5q22 0 36 -15.5t13 -39.5q-2 -22 -17 -35.5t-38 -13.5zM821 68l4 -25q-50 -24 -103.5 -41.5 t-76.5 -17.5q-21 0 -37 18.5t-22 52.5q-83 -71 -209 -71q-166 0 -258 126.5t-70 321.5q21 188 133.5 310t284.5 122q111 0 186 -57l49 41h80l-65 -735q-2 -31 6.5 -44.5t36.5 -13.5t61 13zM586 117l55 628q-63 70 -162 70q-130 0 -207 -114t-86 -291q-10 -169 55.5 -273 t172.5 -104q51 0 97 23.5t75 60.5z" />
<glyph unicode="&#xe5;" horiz-adv-x="892" d="M502 956q-41 0 -68 30.5t-24 72.5q3 41 35.5 70.5t72.5 29.5q42 0 69 -29.5t23 -70.5q-3 -41 -35 -72t-73 -31zM459 1059q-2 -22 11.5 -36.5t35.5 -14.5t38 14.5t17 36.5q2 21 -12 36t-35 15q-20 0 -36 -15t-19 -36zM821 68l4 -25q-50 -24 -103.5 -41.5t-76.5 -17.5 q-21 0 -37 18.5t-22 52.5q-83 -71 -209 -71q-166 0 -258 126.5t-70 321.5q21 188 133.5 310t284.5 122q111 0 186 -57l49 41h80l-65 -735q-2 -31 6.5 -44.5t36.5 -13.5t61 13zM586 117l55 628q-63 70 -162 70q-130 0 -207 -114t-86 -291q-10 -169 55.5 -273t172.5 -104 q51 0 97 23.5t75 60.5z" />
<glyph unicode="&#xe6;" horiz-adv-x="1349" d="M1286 459h-534q-10 -122 10.5 -216t77.5 -151t145 -57q121 0 219 90l15 -35q-116 -106 -273 -106q-85 0 -156 39t-116 108q-108 -147 -283 -147q-116 0 -198.5 61.5t-118 159t-27.5 215.5q7 88 39.5 167t87 141.5t134 99t173.5 36.5q107 0 181 -47l34 31h82l-6 -78 q105 94 244 94q148 0 217 -112t53 -293zM190 444q-14 -204 53.5 -307.5t178.5 -103.5q77 0 156 53l59 676q-66 53 -166 53q-126 0 -197.5 -94.5t-83.5 -276.5zM989 815q-94 0 -157.5 -93t-73.5 -214h395q16 123 -27 215t-137 92z" />
<glyph unicode="&#xe7;" horiz-adv-x="786" d="M596 664q0 25 16 49q13 27 2 47q-7 21 -38.5 38t-88.5 17q-256 0 -282 -397q-11 -167 52 -275t185 -108q75 0 136.5 38t105.5 99l10 -35q-43 -71 -117 -111.5t-167 -41.5q-27 -56 -31 -60q26 13 47 13q32 0 55 -16.5t19 -51.5q-4 -48 -48 -79.5t-96 -31.5q-20 0 -28 2 l14 27q30 0 52 17t26 53q4 49 -31 49q-32 0 -70 -33l-12 23l47 90q-101 12 -171 74t-98.5 149.5t-21.5 187.5q12 198 132.5 332.5t298.5 134.5q113 0 180 -55.5t67 -130.5q0 -45 -23 -66.5t-54 -21.5q-29 0 -48.5 19.5t-19.5 54.5z" />
<glyph unicode="&#xe8;" horiz-adv-x="808" d="M483 1159h-112l178 -203l26 39zM442 35q122 0 220 90l14 -35q-116 -106 -273 -106q-158 0 -256.5 124.5t-83.5 303.5q10 125 62.5 227t144 163.5t203.5 61.5q148 0 217 -112t53 -293h-534q-10 -122 10.5 -216t77.5 -151t145 -57zM446 815q-94 0 -157.5 -93t-73.5 -214 h395q16 123 -27 215t-137 92z" />
<glyph unicode="&#xe9;" horiz-adv-x="808" d="M485 1159l-106 -164l24 -39l195 203h-113zM442 35q122 0 220 90l14 -35q-116 -106 -273 -106q-158 0 -256.5 124.5t-83.5 303.5q10 125 62.5 227t144 163.5t203.5 61.5q148 0 217 -112t53 -293h-534q-10 -122 10.5 -216t77.5 -151t145 -57zM446 815q-94 0 -157.5 -93 t-73.5 -214h395q16 123 -27 215t-137 92z" />
<glyph unicode="&#xea;" horiz-adv-x="808" d="M305 971l150 184h77l119 -184h-53l-109 131l-131 -131h-53zM442 35q122 0 220 90l14 -35q-116 -106 -273 -106q-158 0 -256.5 124.5t-83.5 303.5q10 125 62.5 227t144 163.5t203.5 61.5q148 0 217 -112t53 -293h-534q-10 -122 10.5 -216t77.5 -151t145 -57zM446 815 q-94 0 -157.5 -93t-73.5 -214h395q16 123 -27 215t-137 92z" />
<glyph unicode="&#xeb;" horiz-adv-x="808" d="M391 1077q22 0 36 -15.5t13 -39.5q-2 -22 -17 -35.5t-38 -13.5q-22 0 -36 15.5t-13 39.5q2 22 17 35.5t38 13.5zM578 1077q22 0 36 -15.5t13 -39.5q-1 -22 -17 -35.5t-39 -13.5q-22 0 -36 15.5t-13 39.5q1 22 17 35.5t39 13.5zM442 35q122 0 220 90l14 -35 q-116 -106 -273 -106q-158 0 -256.5 124.5t-83.5 303.5q10 125 62.5 227t144 163.5t203.5 61.5q148 0 217 -112t53 -293h-534q-10 -122 10.5 -216t77.5 -151t145 -57zM446 815q-94 0 -157.5 -93t-73.5 -214h395q16 123 -27 215t-137 92z" />
<glyph unicode="&#xec;" horiz-adv-x="456" d="M268 1182h-112l178 -203l26 39zM260 90q-3 -30 42 -34.5t79 14.5l-2 -25q-30 -21 -82.5 -41t-91.5 -20q-47 0 -65.5 32t-14.5 72l55 604q4 35 -8.5 53.5t-36.5 18.5q-21 3 -59 -12l-8 24l135 60q24 12 59 12q40 0 52 -20t8 -56z" />
<glyph unicode="&#xed;" horiz-adv-x="448" d="M260 1184l-106 -164l24 -39l195 203h-113zM260 90q-3 -30 42 -34.5t79 14.5l-2 -25q-30 -21 -82.5 -41t-91.5 -20q-47 0 -65.5 32t-14.5 72l55 604q4 35 -8.5 53.5t-36.5 18.5q-21 3 -59 -12l-8 24l135 60q24 12 59 12q40 0 52 -20t8 -56z" />
<glyph unicode="&#xee;" horiz-adv-x="456" d="M86 993l150 185h77l119 -185h-53l-109 131l-131 -131h-53zM260 90q-3 -30 42 -34.5t79 14.5l-2 -25q-30 -21 -82.5 -41t-91.5 -20q-47 0 -65.5 32t-14.5 72l55 604q4 35 -8.5 53.5t-36.5 18.5q-21 3 -59 -12l-8 24l135 60q24 12 59 12q40 0 52 -20t8 -56z" />
<glyph unicode="&#xef;" horiz-adv-x="456" d="M190 1118q22 0 36.5 -15.5t13.5 -39.5q-1 -22 -17 -35.5t-39 -13.5q-22 0 -36 15.5t-13 39.5q2 22 17 35.5t38 13.5zM377 1118q22 0 36 -15.5t13 -39.5q-2 -22 -17 -35.5t-38 -13.5q-22 0 -36 15.5t-13 39.5q2 22 17 35.5t38 13.5zM260 90q-3 -30 42 -34.5t79 14.5 l-2 -25q-30 -21 -82.5 -41t-91.5 -20q-47 0 -65.5 32t-14.5 72l55 604q4 35 -8.5 53.5t-36.5 18.5q-21 3 -59 -12l-8 24l135 60q24 12 59 12q40 0 52 -20t8 -56z" />
<glyph unicode="&#xf0;" horiz-adv-x="964" d="M713 1202q226 -220 182 -725q-20 -226 -147 -359.5t-312 -133.5q-177 0 -283.5 123t-89.5 305q17 193 154.5 322.5t312.5 129.5q147 0 234 -112q-12 259 -117 391l-74 -72l-38 39l75 72q-58 58 -153 94l28 57q107 -30 185 -94l80 76l38 -39zM754 414q5 38 2 81.5t-9 87.5 t-25 85t-44.5 72t-68.5 50t-97 19q-89 0 -156.5 -51t-103 -128.5t-43.5 -172.5q-8 -106 17.5 -200t88.5 -156t152 -62q82 0 146 54t98 137t43 184z" />
<glyph unicode="&#xf1;" horiz-adv-x="980" d="M344 1016q39 108 125 108q34 0 63 -14.5t46 -32.5t40.5 -32.5t47.5 -14.5q18 0 33 10.5t20 17.5t18 30q3 4 4 6l25 -11q-38 -108 -125 -108q-28 0 -52 9.5t-40.5 23.5t-31.5 28t-33 23.5t-38 9.5q-23 0 -39.5 -14t-35.5 -49zM125 0l61 692q3 37 -10.5 56t-37 17.5 t-52.5 -13.5l-10 24l129 58q40 14 65 14q58 0 58 -66l-9 -75q76 70 165.5 113.5t170.5 43.5q99 0 143.5 -65.5t35.5 -173.5l-48 -533q-2 -21 18.5 -30.5t49 -6.5t53.5 15l-4 -25q-32 -21 -82.5 -41t-89.5 -20q-90 0 -80 106l45 494q5 60 -2 104t-34 73.5t-74 29.5 q-61 0 -137.5 -43.5t-133.5 -106.5l-57 -641h-133z" />
<glyph unicode="&#xf2;" d="M516 1159h-113l179 -203l26 39zM412 -16q-166 0 -264 115t-85 300q14 195 138.5 330t300.5 135q77 0 143.5 -28t115.5 -80t73.5 -133t15.5 -179q-6 -82 -37.5 -161.5t-84 -147t-135.5 -109.5t-181 -42zM442 33q65 0 115 31.5t80.5 87.5t48 122t23.5 146q17 187 -52.5 291 t-187.5 104q-66 0 -116.5 -34t-79.5 -92t-45 -123.5t-21 -141.5q-14 -176 50 -283.5t185 -107.5z" />
<glyph unicode="&#xf3;" d="M518 1159l-106 -164l24 -39l195 203h-113zM412 -16q-166 0 -264 115t-85 300q14 195 138.5 330t300.5 135q77 0 143.5 -28t115.5 -80t73.5 -133t15.5 -179q-6 -82 -37.5 -161.5t-84 -147t-135.5 -109.5t-181 -42zM442 33q65 0 115 31.5t80.5 87.5t48 122t23.5 146 q17 187 -52.5 291t-187.5 104q-66 0 -116.5 -34t-79.5 -92t-45 -123.5t-21 -141.5q-14 -176 50 -283.5t185 -107.5z" />
<glyph unicode="&#xf4;" d="M338 971l149 184h78l119 -184h-53l-109 131l-131 -131h-53zM412 -16q-166 0 -264 115t-85 300q14 195 138.5 330t300.5 135q77 0 143.5 -28t115.5 -80t73.5 -133t15.5 -179q-6 -82 -37.5 -161.5t-84 -147t-135.5 -109.5t-181 -42zM442 33q65 0 115 31.5t80.5 87.5t48 122 t23.5 146q17 187 -52.5 291t-187.5 104q-66 0 -116.5 -34t-79.5 -92t-45 -123.5t-21 -141.5q-14 -176 50 -283.5t185 -107.5z" />
<glyph unicode="&#xf5;" d="M305 1016q39 108 125 108q34 0 63 -14.5t46 -32.5t40.5 -32.5t47.5 -14.5q18 0 33 10.5t20 17.5t18 30q3 4 4 6l25 -11q-37 -108 -125 -108q-34 0 -63 14.5t-45.5 32.5t-39 32.5t-46.5 14.5q-23 0 -40 -14t-36 -49zM412 -16q-166 0 -264 115t-85 300q14 195 138.5 330 t300.5 135q77 0 143.5 -28t115.5 -80t73.5 -133t15.5 -179q-6 -82 -37.5 -161.5t-84 -147t-135.5 -109.5t-181 -42zM442 33q65 0 115 31.5t80.5 87.5t48 122t23.5 146q17 187 -52.5 291t-187.5 104q-66 0 -116.5 -34t-79.5 -92t-45 -123.5t-21 -141.5q-14 -176 50 -283.5 t185 -107.5z" />
<glyph unicode="&#xf6;" d="M424 1077q22 0 36 -15.5t13 -39.5q-2 -22 -17 -35.5t-38 -13.5q-22 0 -36 15.5t-13 39.5q2 22 17 35.5t38 13.5zM610 1077q22 0 36 -15.5t13 -39.5q-2 -22 -17 -35.5t-38 -13.5q-22 0 -36 15.5t-13 39.5q2 22 17 35.5t38 13.5zM412 -16q-166 0 -264 115t-85 300 q14 195 138.5 330t300.5 135q77 0 143.5 -28t115.5 -80t73.5 -133t15.5 -179q-6 -82 -37.5 -161.5t-84 -147t-135.5 -109.5t-181 -42zM442 33q65 0 115 31.5t80.5 87.5t48 122t23.5 146q17 187 -52.5 291t-187.5 104q-66 0 -116.5 -34t-79.5 -92t-45 -123.5t-21 -141.5 q-14 -176 50 -283.5t185 -107.5z" />
<glyph unicode="&#xf7;" horiz-adv-x="552" d="M289 629q-18 0 -29.5 12.5t-9.5 30.5t15.5 30.5t31.5 12.5q17 0 28 -13t9 -30t-15 -30t-30 -13zM76 539h409l-6 -60h-409zM260 303q-18 0 -29.5 12.5t-9.5 30.5t15.5 30.5t31.5 12.5q17 0 28 -13t9 -30t-15 -30t-30 -13z" />
<glyph unicode="&#xf8;" d="M762 754q106 -115 88 -310q-6 -82 -37.5 -161.5t-84 -147t-135.5 -109.5t-181 -42q-144 0 -238 88l-61 -72h-74l98 113q-86 112 -74 286q14 195 138.5 330t300.5 135q130 0 219 -71l49 55h74zM207 424q-9 -120 18 -209l428 498q-64 102 -184 102q-66 0 -116.5 -34 t-79.5 -92t-45 -123.5t-21 -141.5zM709 420q12 144 -27 239l-434 -501q64 -125 194 -125q65 0 115 31.5t80.5 87.5t48 122t23.5 146z" />
<glyph unicode="&#xf9;" horiz-adv-x="946" d="M530 1159h-112l178 -203l27 39zM872 68l5 -25q-134 -59 -177 -59q-28 0 -45 37.5t-16 97.5q-114 -135 -272 -135q-122 0 -180.5 65.5t-49.5 169.5l41 479q6 55 -25.5 66.5t-76.5 -12.5l-8 22l131 60q32 14 63 14q36 0 49 -19t8 -59l-45 -514q-9 -104 24.5 -163.5 t109.5 -59.5q105 0 233 151l49 549q3 34 -20.5 45.5t-67.5 -0.5l-6 23l104 33q43 14 78 14q27 0 40 -18.5t11 -47.5l-59 -669q-3 -30 6 -44t37 -14q20 0 59 13z" />
<glyph unicode="&#xfa;" horiz-adv-x="946" d="M532 1159l-106 -164l25 -39l194 203h-113zM872 68l5 -25q-134 -59 -177 -59q-28 0 -45 37.5t-16 97.5q-114 -135 -272 -135q-122 0 -180.5 65.5t-49.5 169.5l41 479q6 55 -25.5 66.5t-76.5 -12.5l-8 22l131 60q32 14 63 14q36 0 49 -19t8 -59l-45 -514 q-9 -104 24.5 -163.5t109.5 -59.5q105 0 233 151l49 549q3 34 -20.5 45.5t-67.5 -0.5l-6 23l104 33q43 14 78 14q27 0 40 -18.5t11 -47.5l-59 -669q-3 -30 6 -44t37 -14q20 0 59 13z" />
<glyph unicode="&#xfb;" horiz-adv-x="946" d="M352 971l150 184h78l118 -184h-53l-108 131l-131 -131h-54zM872 68l5 -25q-134 -59 -177 -59q-28 0 -45 37.5t-16 97.5q-114 -135 -272 -135q-122 0 -180.5 65.5t-49.5 169.5l41 479q6 55 -25.5 66.5t-76.5 -12.5l-8 22l131 60q32 14 63 14q36 0 49 -19t8 -59l-45 -514 q-9 -104 24.5 -163.5t109.5 -59.5q105 0 233 151l49 549q3 34 -20.5 45.5t-67.5 -0.5l-6 23l104 33q43 14 78 14q27 0 40 -18.5t11 -47.5l-59 -669q-3 -30 6 -44t37 -14q20 0 59 13z" />
<glyph unicode="&#xfc;" horiz-adv-x="946" d="M438 1077q22 0 36 -15.5t13 -39.5q-2 -22 -17 -35.5t-38 -13.5q-22 0 -36 15.5t-13 39.5q2 22 17 35.5t38 13.5zM625 1077q22 0 36 -15.5t13 -39.5q-1 -22 -17 -35.5t-39 -13.5q-22 0 -36 15.5t-13 39.5q1 22 17 35.5t39 13.5zM872 68l5 -25q-134 -59 -177 -59 q-28 0 -45 37.5t-16 97.5q-114 -135 -272 -135q-122 0 -180.5 65.5t-49.5 169.5l41 479q6 55 -25.5 66.5t-76.5 -12.5l-8 22l131 60q32 14 63 14q36 0 49 -19t8 -59l-45 -514q-9 -104 24.5 -163.5t109.5 -59.5q105 0 233 151l49 549q3 34 -20.5 45.5t-67.5 -0.5l-6 23 l104 33q43 14 78 14q27 0 40 -18.5t11 -47.5l-59 -669q-3 -30 6 -44t37 -14q20 0 59 13z" />
<glyph unicode="&#xfd;" horiz-adv-x="786" d="M451 1159l-107 -164l25 -39l194 203h-112zM643 864q37 0 58.5 -34.5t17.5 -96.5q-3 -53 -18.5 -103.5t-65.5 -146.5l-311 -604q-113 -217 -248 -217q-50 0 -76.5 21t-24.5 53q3 34 19.5 51.5t42.5 17.5q28 0 54.5 -23.5t31.5 -25.5q17 -8 38 -1.5t53.5 48t70.5 115.5 l63 123l-188 661l-9 27t-8 21t-10.5 18t-13 8t-19 3.5t-24.5 -7.5l-10 -4l-7 25l88 41q38 14 66 14q27 0 44.5 -14t27.5 -50l151 -585l150 290q52 111 57 166q3 24 -5 38t-21 20t-26.5 12t-22.5 18t-7 33q7 88 82 88z" />
<glyph unicode="&#xfe;" horiz-adv-x="860" d="M512 864q63 0 118.5 -31t95 -85.5t58.5 -137t11 -178.5q-19 -194 -131 -321t-261 -127q-105 0 -170 53l-28 -322q-3 -30 33 -45.5t88 -15.5l-2 -23h-353l2 23q34 0 61.5 13.5t33.5 39.5l122 1389q3 34 -22 45q-18 12 -43 6l-16 -6l-9 24l107 33q50 12 72 12q28 0 41 -18 t8 -45l-33 -391q59 56 109.5 82t107.5 26zM647 397q15 187 -30.5 302.5t-139.5 115.5q-35 0 -86.5 -36.5t-101.5 -90.5l-51 -590q68 -65 149 -65q106 0 176 99t84 265z" />
<glyph unicode="&#xff;" horiz-adv-x="786" d="M356 1077q22 0 36.5 -15.5t13.5 -39.5q-1 -22 -17 -35.5t-39 -13.5q-22 0 -36 15.5t-13 39.5q2 22 17 35.5t38 13.5zM543 1077q22 0 36 -15.5t13 -39.5q-2 -22 -17 -35.5t-38 -13.5q-22 0 -36.5 15.5t-13.5 39.5q1 22 17 35.5t39 13.5zM643 864q37 0 58.5 -34.5 t17.5 -96.5q-3 -53 -18.5 -103.5t-65.5 -146.5l-311 -604q-113 -217 -248 -217q-50 0 -76.5 21t-24.5 53q3 34 19.5 51.5t42.5 17.5q28 0 54.5 -23.5t31.5 -25.5q17 -8 38 -1.5t53.5 48t70.5 115.5l63 123l-188 661l-9 27t-8 21t-10.5 18t-13 8t-19 3.5t-24.5 -7.5l-10 -4 l-7 25l88 41q38 14 66 14q27 0 44.5 -14t27.5 -50l151 -585l150 290q52 111 57 166q3 24 -5 38t-21 20t-26.5 12t-22.5 18t-7 33q7 88 82 88z" />
<glyph unicode="&#x152;" horiz-adv-x="1622" d="M1438 1272h-377l-47 -553h325q29 0 48 38.5t24 98.5h23l-29 -332h-23q10 135 -47 135h-325l-54 -600h420q51 0 78.5 29.5t56.5 101.5l25 -8l-57 -182h-693q-75 -16 -143 -16q-125 0 -231.5 47.5t-181.5 131.5t-112 208t-24 270q12 133 56.5 248t112 198t153 142.5 t181.5 89t196 29.5q67 0 143 -17h614l58 -184l-25 -6q-25 68 -59.5 99.5t-85.5 31.5zM918 1247v4q-73 31 -162 31q-76 0 -144 -20.5t-130.5 -67t-110.5 -117t-81.5 -176t-45.5 -237.5q-25 -275 95 -445t343 -170q70 0 131 21q4 8 4 14z" />
<glyph unicode="&#x153;" horiz-adv-x="1458" d="M1393 459h-535q-10 -122 11 -216t78 -151t145 -57q121 0 219 90l14 -35q-116 -106 -272 -106q-97 0 -175.5 50.5t-121.5 137.5q-128 -188 -344 -188q-166 0 -264 115t-85 300q14 195 138.5 330t300.5 135q98 0 179 -45t126 -129q55 82 136.5 128t178.5 46 q148 0 217.5 -112t53.5 -293zM442 33q65 0 115 31.5t80.5 87.5t48 122t23.5 146q17 187 -52.5 291t-187.5 104q-66 0 -116.5 -34t-79.5 -92t-45 -123.5t-21 -141.5q-14 -176 50 -283.5t185 -107.5zM1096 815q-64 0 -116 -46t-81 -115t-35 -146h396q16 123 -27 215t-137 92z " />
<glyph unicode="&#x178;" horiz-adv-x="1118" d="M571 1520q22 0 36.5 -16t13.5 -40q-1 -22 -17 -35.5t-39 -13.5q-22 0 -36 15.5t-13 39.5q2 22 17 36t38 14zM758 1520q22 0 36 -16t13 -40q-2 -22 -17 -35.5t-38 -13.5q-22 0 -36.5 15.5t-13.5 39.5q2 22 17.5 36t38.5 14zM1143 1331l-4 -22q-58 0 -103 -66l-391 -608 l-47 -551q-2 -20 21 -34.5t54.5 -20.5t67.5 -6l-2 -23h-438v23q57 0 105 15.5t51 45.5l47 534l-295 646q-23 45 -76 45l2 22h193l288 -639l355 555q14 25 -13 43.5t-65 18.5l2 22h248z" />
<glyph unicode="&#x2c6;" horiz-adv-x="481" d="M154 1413l165 184h78l103 -184h-54l-96 131l-143 -131h-53z" />
<glyph unicode="&#x2dc;" horiz-adv-x="557" d="M158 1458q49 109 135 109q28 0 51 -9.5t38.5 -23.5t29.5 -28t31.5 -23.5t37.5 -9.5q9 0 16 1.5t14 6t11.5 7.5t11.5 10.5t9.5 11t10 13.5t9.5 13l23 -10q-47 -109 -133 -109q-34 0 -62 14.5t-43 32.5t-36.5 32.5t-45.5 14.5q-23 0 -41.5 -14t-40.5 -49z" />
<glyph unicode="&#x2000;" horiz-adv-x="801" />
<glyph unicode="&#x2001;" horiz-adv-x="1602" />
<glyph unicode="&#x2002;" horiz-adv-x="801" />
<glyph unicode="&#x2003;" horiz-adv-x="1602" />
<glyph unicode="&#x2004;" horiz-adv-x="534" />
<glyph unicode="&#x2005;" horiz-adv-x="400" />
<glyph unicode="&#x2006;" horiz-adv-x="267" />
<glyph unicode="&#x2007;" horiz-adv-x="267" />
<glyph unicode="&#x2008;" horiz-adv-x="200" />
<glyph unicode="&#x2009;" horiz-adv-x="320" />
<glyph unicode="&#x200a;" horiz-adv-x="89" />
<glyph unicode="&#x2010;" horiz-adv-x="608" d="M78 514h487l-24 -51h-486z" />
<glyph unicode="&#x2011;" horiz-adv-x="608" d="M78 514h487l-24 -51h-486z" />
<glyph unicode="&#x2012;" horiz-adv-x="608" d="M78 514h487l-24 -51h-486z" />
<glyph unicode="&#x2013;" horiz-adv-x="970" d="M78 514h850l-25 -51h-848z" />
<glyph unicode="&#x2014;" horiz-adv-x="1589" d="M145 514h1334l-25 -51h-1331z" />
<glyph unicode="&#x2018;" horiz-adv-x="335" d="M135 1120q13 78 60.5 145.5t144.5 102.5l4 -29q-42 -20 -75.5 -55.5t-43.5 -77.5q-7 -27 2.5 -40t28.5 -21q36 -19 51.5 -43t7.5 -62q-10 -44 -39.5 -64t-64.5 -20q-46 0 -69 38t-7 126z" />
<glyph unicode="&#x2019;" horiz-adv-x="339" d="M336 1204q-18 -187 -184 -248l-7 29q41 20 71 55.5t36 77.5q7 45 -35 62q-38 20 -56 43t-14 61q6 43 34.5 63.5t64.5 20.5q45 0 71 -38t19 -126z" />
<glyph unicode="&#x201a;" horiz-adv-x="329" d="M221 -66q-31 -186 -203 -247l-4 28q42 20 74.5 55.5t42.5 77.5q9 46 -31 62q-36 19 -52 42.5t-9 61.5q8 43 38 63.5t66 20.5q101 0 78 -164z" />
<glyph unicode="&#x201c;" horiz-adv-x="620" d="M133 1120q13 78 60.5 145.5t144.5 102.5l4 -29q-42 -20 -75.5 -55.5t-43.5 -77.5q-7 -27 2.5 -40t28.5 -21q36 -19 51.5 -43t7.5 -62q-10 -44 -39.5 -64t-64.5 -20q-46 0 -69 38t-7 126zM422 1120q13 78 60.5 145.5t144.5 102.5l4 -29q-42 -20 -75.5 -55.5t-43.5 -77.5 q-7 -27 2.5 -40t28.5 -21q36 -19 51.5 -43t7.5 -62q-10 -44 -39.5 -64t-64.5 -20q-46 0 -69 38t-7 126z" />
<glyph unicode="&#x201d;" horiz-adv-x="616" d="M332 1204q-31 -187 -203 -248l-4 29q42 20 74.5 55.5t42.5 77.5q9 46 -31 62q-36 19 -52 42.5t-9 61.5q8 43 38 63.5t66 20.5q101 0 78 -164zM621 1204q-31 -187 -203 -248l-4 29q42 20 74 55t42 78q9 46 -30 62q-37 20 -53 43t-9 61q8 43 38.5 63.5t66.5 20.5 q101 0 78 -164z" />
<glyph unicode="&#x201e;" horiz-adv-x="618" d="M221 -66q-31 -186 -203 -247l-4 28q42 20 74.5 55.5t42.5 77.5q9 46 -31 62q-36 19 -52 42.5t-9 61.5q8 43 38 63.5t66 20.5q101 0 78 -164zM510 -66q-31 -186 -203 -247l-4 28q42 20 74.5 55.5t42.5 77.5q9 46 -31 62q-36 19 -52 42.5t-9 61.5q8 43 38 63.5t66 20.5 q101 0 78 -164z" />
<glyph unicode="&#x2022;" horiz-adv-x="507" d="M270 649q65 0 100.5 -44.5t30.5 -100.5q-6 -66 -49.5 -101.5t-99.5 -35.5q-65 0 -100.5 44.5t-30.5 100.5q6 66 49.5 101.5t99.5 35.5z" />
<glyph unicode="&#x2026;" horiz-adv-x="897" d="M125 147q36 0 55.5 -24.5t16.5 -54.5q-3 -38 -26.5 -58t-55.5 -20q-36 0 -56 25t-18 57q3 36 27.5 55.5t56.5 19.5zM424 147q36 0 55.5 -24.5t16.5 -54.5q-3 -38 -26.5 -58t-55.5 -20q-36 0 -56 25t-18 57q3 36 27.5 55.5t56.5 19.5zM723 147q36 0 55.5 -24.5t16.5 -54.5 q-3 -38 -26.5 -58t-55.5 -20q-36 0 -56 25t-18 57q3 36 27.5 55.5t56.5 19.5z" />
<glyph unicode="&#x202f;" horiz-adv-x="320" />
<glyph unicode="&#x2039;" horiz-adv-x="571" d="M76 457l325 -367l31 57l-227 320l284 319l-20 58l-393 -367v-20z" />
<glyph unicode="&#x203a;" horiz-adv-x="569" d="M500 457l4 20l-330 367l-31 -58l230 -319l-283 -320l21 -57z" />
<glyph unicode="&#x205f;" horiz-adv-x="400" />
<glyph unicode="&#x20ac;" horiz-adv-x="997" d="M604 49q100 0 178.5 51t122.5 119l23 -37q-58 -92 -151.5 -145t-205.5 -53q-188 0 -304.5 150t-112.5 437h-107l25 60h86q0 23 2 35q1 14 4 40t4 39h-107l27 60h90q27 141 82 249.5t126 170.5t146.5 92.5t153.5 30.5q49 0 148 -29q45 -15 74 -13t42 29l19 -8l-76 -276 l-21 8q16 93 3.5 129t-64.5 65q-64 35 -143 35q-276 0 -344 -483h428l-27 -60h-408l-4 -40q-1 -12 -3 -37t-3 -37h355l-27 -60h-330q-4 -258 72.5 -390t226.5 -132z" />
<glyph unicode="&#x2122;" horiz-adv-x="1114" d="M541 1264l-15 -4q-13 44 -30.5 57.5t-57.5 13.5h-69l-39 -430q0 -17 20 -27t51 -10l-2 -16h-227l2 16q74 0 80 47l37 420h-74q-40 0 -60 -13t-38 -54l-15 4l48 114q7 -10 32 -10h295q20 0 37 10zM1057 901q0 -17 19 -27t46 -10l-2 -16h-202l2 16q58 0 61 31l6 332 l-182 -383h-10l-123 364l-49 -309q-3 -35 55 -35l-2 -16h-170l2 16q56 0 65 21l66 420q3 26 -11.5 39.5t-41.5 13.5l2 14h98l141 -385l181 385h120l-2 -14q-26 0 -43.5 -17.5t-17.5 -42.5z" />
<glyph unicode="&#x25fc;" horiz-adv-x="860" d="M0 860h860v-860h-860v860z" />
<glyph unicode="&#xfb03;" horiz-adv-x="1470" d="M133 797l17 51h90l6 63q15 171 113.5 283.5t244.5 112.5q136 0 201 -105q100 146 266 146q51 0 95 -17t71.5 -42.5t47 -56t27.5 -58t7 -48.5q-5 -31 -27 -52t-51 -21q-34 0 -54.5 21t-17.5 56q2 23 13.5 44t13.5 32q0 11 -4 23.5t-15.5 30t-40 29t-69.5 11.5 q-75 0 -126 -40t-58 -119l-25 -293h414q70 0 61 -76l-59 -682q-3 -30 42 -34.5t79 14.5l-2 -25q-97 -61 -174 -61q-41 0 -62 29t-18 75l55 635q6 74 -59 74h-281l-70 -791q-6 -66 -20.5 -121t-41 -106t-72.5 -80t-107 -29q-82 0 -119 43t-33 92q7 60 60 60q29 0 48 -15 t15 -47q-1 -18 -13 -35.5t-12 -23.5q0 -11 13 -22t43 -11q44 0 64.5 33t27.5 119l82 934h-346l-72 -791q-5 -52 -14 -97t-27.5 -90t-44.5 -77t-65.5 -52t-88.5 -20q-83 0 -120 43t-31 92q2 27 16.5 43.5t40.5 16.5q29 0 49 -15t17 -47q-1 -18 -13 -35.5t-12 -23.5 q0 -7 3.5 -13.5t16 -13t33.5 -6.5q45 0 65.5 32.5t27.5 119.5l82 934h-103zM377 848h346l20 233q3 23 -0.5 49t-15.5 56.5t-45.5 50.5t-83.5 20q-83 0 -139.5 -51t-63.5 -139z" />
<glyph unicode="&#xfb04;" horiz-adv-x="1462" d="M1276 90q-3 -30 41 -34.5t78 14.5l-2 -25q-97 -61 -174 -61q-42 0 -62.5 28.5t-15.5 75.5l92 1075q4 50 -30.5 92.5t-117.5 42.5t-139 -51t-63 -139l-25 -260h191l-7 -51h-188l-70 -791q-6 -66 -20.5 -121t-41 -106t-72.5 -80t-107 -29q-82 0 -119 43t-33 92q7 60 60 60 q29 0 48 -15t15 -47q-1 -18 -13 -35.5t-12 -23.5q0 -11 13 -22t43 -11q44 0 64.5 33t27.5 119l82 934h-346l-72 -791q-5 -52 -14 -97t-27.5 -90t-44.5 -77t-65.5 -52t-88.5 -20q-83 0 -120 43t-31 92q2 27 16.5 43.5t40.5 16.5q29 0 49 -15t17 -47q-1 -18 -13 -35.5 t-12 -23.5q0 -7 3.5 -13.5t16 -13t33.5 -6.5q45 0 65.5 32.5t27.5 119.5l82 934h-103l17 51h90l6 63q15 171 113.5 283.5t244.5 112.5q144 0 207 -119q110 160 281 160q100 0 161 -58q41 15 72 15q26 0 39.5 -17.5t11.5 -46.5zM377 848h346l22 250q0 15 0.5 35t-8.5 42 t-23.5 40t-44.5 30t-71 12q-83 0 -139.5 -51t-63.5 -139z" />
</font>
</defs>
</svg>
