<?xml version="1.0" encoding="utf-8"?>
<!-- Generator: Adobe Illustrator 16.0.4, SVG Export Plug-In . SVG Version: 6.00 Build 0)  -->
<!DOCTYPE svg PUBLIC "-//W3C//DTD SVG 1.1//EN" "http://www.w3.org/Graphics/SVG/1.1/DTD/svg11.dtd">
<svg version="1.1" id="Layer_1" xmlns="http://www.w3.org/2000/svg" xmlns:xlink="http://www.w3.org/1999/xlink" x="0px" y="0px"
	 width="64px" height="64px" viewBox="0 0 64 64" enable-background="new 0 0 64 64" xml:space="preserve">
<path d="M46.714,5.425c-0.073-0.445-0.382-0.818-0.805-0.973c-2.578-0.941-5.985-1.874-9.643-1.876
	c-2.868,0-5.908,0.584-8.733,2.232l0,0c-1.422,0.827-2.543,1.873-3.397,3.05c-1.285,1.768-1.969,3.803-2.354,5.868
	c-0.311,1.67-0.428,3.372-0.491,5.022c-0.736,0.017-1.571,0.022-2.332,0.022c-0.665,0-1.273-0.004-1.716-0.008
	c-0.221-0.003-0.399-0.004-0.524-0.006c-0.124-0.002-0.19-0.003-0.192-0.003c-0.333-0.004-0.661,0.127-0.899,0.361
	c-0.238,0.235-0.374,0.562-0.371,0.896l0.049,8.308c0.005,0.692,0.564,1.302,1.255,1.302c0.001,0,0.333,0,0.873,0
	c1.224,0,3.507-0.053,5.262-0.019c0.26,5.708,0.321,14.26,0.321,20.897c0,2.798-0.012,5.236-0.022,6.993
	c-0.005,0.875-0.011,1.571-0.015,2.054c-0.004,0.483-0.006,0.74-0.006,0.743c-0.003,0.333,0.127,0.655,0.364,0.893
	c0.236,0.235,0.558,0.367,0.893,0.366l11.121-0.055c0.334-0.003,0.648-0.136,0.884-0.374s0.363-0.556,0.359-0.891
	c0,0-0.058-6.838-0.127-14.214c-0.058-6.343-0.122-13.075-0.158-16.21c0.685-0.011,1.485-0.017,2.262-0.015
	c0.909,0,1.794,0.005,2.449,0.011c0.328,0.002,0.599,0.005,0.788,0.008s0.294,0.003,0.294,0.003c0.334,0.005,0.656-0.125,0.895-0.36
	c0.237-0.234,0.373-0.554,0.373-0.888l0.016-7.696c0-0.334-0.131-0.763-0.368-0.998c-0.236-0.236-0.554-0.477-0.89-0.477
	c0,0-0.148,0-0.414,0c-0.267,0-0.646,0.113-1.1,0.113c-1.395,0-3.505,0.05-5.175,0.022c0.03-0.854,0.108-1.58,0.233-2.224
	c0.122-0.626,0.288-1.134,0.485-1.552c0.147-0.313,0.312-0.56,0.488-0.767c0.268-0.31,0.557-0.519,0.931-0.675
	c0.371-0.154,0.84-0.246,1.439-0.247c1.064-0.003,2.525,0.311,4.356,1.019c0.013,0.005,0.028,0.007,0.044,0.013
	c0.014,0.004,0.025,0.013,0.041,0.017c0.026,0.008,0.054,0.009,0.079,0.016c0.043,0.01,0.084,0.02,0.127,0.025
	c0.041,0.005,0.08,0.006,0.12,0.008c0.042,0,0.082,0.001,0.124-0.001c0.041-0.003,0.079-0.009,0.118-0.016
	c0.041-0.006,0.08-0.014,0.119-0.024c0.037-0.01,0.075-0.024,0.111-0.038c0.038-0.013,0.077-0.028,0.112-0.046
	c0.036-0.018,0.069-0.037,0.103-0.057c0.035-0.022,0.069-0.044,0.103-0.068c0.031-0.023,0.059-0.049,0.087-0.076
	c0.032-0.028,0.062-0.057,0.09-0.088c0.025-0.029,0.049-0.062,0.074-0.093c0.024-0.033,0.049-0.066,0.069-0.103
	c0.021-0.035,0.038-0.073,0.057-0.111c0.013-0.026,0.027-0.048,0.038-0.075c0.005-0.014,0.008-0.029,0.013-0.045
	c0.004-0.013,0.013-0.025,0.017-0.04c0.252-0.833,0.686-2.227,1.06-3.699c0.184-0.738,0.356-1.497,0.483-2.228
	c0.128-0.732,0.213-1.431,0.214-2.083C46.776,5.983,46.759,5.704,46.714,5.425z M36.225,12.186c-0.62,0.32-1.159,0.772-1.591,1.315
	c-0.65,0.818-1.07,1.822-1.332,2.963c-0.264,1.144-0.376,2.44-0.376,3.902c0,0.149,0.002,0.301,0.004,0.455
	c0.012,0.668,0.544,1.026,1.211,1.048c1.779,0.056,4.693-0.117,6.476-0.117c0.093,0,0.18,0,0.267,0l-0.009,5.36
	c-0.639-0.005-1.457,0.082-2.301,0.082c-1.332,0-2.71,0.058-3.591,0.101c-0.675,0.034-1.199,0.617-1.188,1.292
	c0.033,2.137,0.108,10.066,0.177,17.44c0.033,3.688,0.063,7.246,0.088,9.878c0.012,1.275,0.021,2.336,0.027,3.089l-8.598,0.045
	c0.013-1.658,0.032-4.803,0.032-8.571c0-7.122-0.068-16.447-0.381-22.21c-0.034-0.648-0.556-1.159-1.204-1.182
	c-1.694-0.06-4.509-0.07-6.132-0.071l-0.035-5.736c0.354,0.002,0.761,0.004,1.193,0.004c1.222,0,2.625-0.013,3.615-0.071
	c0.648-0.037,1.161-0.566,1.177-1.215c0.068-2.631,0.217-5.303,0.917-7.576c0.348-1.138,0.828-2.173,1.489-3.084
	c0.663-0.909,1.506-1.7,2.634-2.358l0,0c2.37-1.38,4.938-1.89,7.474-1.892c2.89-0.002,5.714,0.675,8,1.45
	C44.25,6.918,44.192,7.4,44.1,7.923c-0.169,0.966-0.44,2.066-0.72,3.073c-0.127,0.461-0.253,0.899-0.374,1.304
	c-1.475-0.478-2.789-0.735-3.987-0.737C37.999,11.562,37.052,11.755,36.225,12.186z"/>
</svg>
