<?xml version="1.0" encoding="utf-8"?>
<!-- Generator: Adobe Illustrator 16.0.4, SVG Export Plug-In . SVG Version: 6.00 Build 0)  -->
<!DOCTYPE svg PUBLIC "-//W3C//DTD SVG 1.1//EN" "http://www.w3.org/Graphics/SVG/1.1/DTD/svg11.dtd">
<svg version="1.1" id="Layer_1" xmlns="http://www.w3.org/2000/svg" xmlns:xlink="http://www.w3.org/1999/xlink" x="0px" y="0px"
	 width="64px" height="64px" viewBox="0 0 64 64" enable-background="new 0 0 64 64" xml:space="preserve">
<path fill-rule="evenodd" clip-rule="evenodd" d="M2.321,22.168c2.717,2.922,5.997,4.831,9.017,7.111
	c4.481,3.388,8.979,6.754,13.497,10.084c1.828,1.347,3.83,2.333,6.052,2.722c1.759,0.308,3.399-0.165,5.009-0.858
	c1.854-0.795,3.473-1.996,5.098-3.206c5.66-4.216,11.353-8.388,17.011-12.609c1.268-0.949,2.439-2.04,3.667-3.075
	c0.006,0.066,0.031,0.22,0.031,0.371c0.003,9.052,0.012,18.102,0,27.15c-0.005,3.49-2.277,5.864-5.559,5.864
	c-16.131,0-32.264,0-48.397,0c-2.703,0-4.814-1.799-5.354-4.573c-0.081-0.417-0.099-0.858-0.099-1.288
	C2.289,40.83,2.29,31.798,2.292,22.766C2.292,22.604,2.306,22.441,2.321,22.168"/>
<path fill-rule="evenodd" clip-rule="evenodd" d="M31.981,8.306c8.043,0,16.089,0.055,24.134-0.029
	c2.978-0.032,6.235,2.519,5.484,6.734c-0.441,2.487-1.718,4.506-3.522,6.11c-1.747,1.555-3.673,2.907-5.576,4.271
	c-4.881,3.499-9.778,6.969-14.692,10.413c-1.144,0.798-2.368,1.497-3.609,2.133c-1.677,0.864-3.385,0.649-4.978-0.253
	c-1.309-0.739-2.576-1.563-3.808-2.431c-5.749-4.051-11.477-8.133-17.217-12.198c-2.09-1.482-3.789-3.331-5.05-5.582
	c-0.983-1.755-1.086-3.612-0.483-5.513c0.754-2.376,2.46-3.641,4.917-3.653c2.793-0.014,5.587-0.002,8.381-0.002
	C21.303,8.306,26.641,8.306,31.981,8.306"/>
</svg>
