<?xml version="1.0" encoding="utf-8"?>
<!-- Generator: Adobe Illustrator 16.0.4, SVG Export Plug-In . SVG Version: 6.00 Build 0)  -->
<!DOCTYPE svg PUBLIC "-//W3C//DTD SVG 1.1//EN" "http://www.w3.org/Graphics/SVG/1.1/DTD/svg11.dtd">
<svg version="1.1" id="Layer_2" xmlns="http://www.w3.org/2000/svg" xmlns:xlink="http://www.w3.org/1999/xlink" x="0px" y="0px"
	 width="64px" height="64px" viewBox="0 0 64 64" enable-background="new 0 0 64 64" xml:space="preserve">
<path fill-rule="evenodd" clip-rule="evenodd" d="M2.015,49.399c6.777,0.564,12.737-0.959,18.114-5.096
	c-5.626-0.487-9.375-3.295-11.507-8.598h5.308c0.006-0.076,0.014-0.15,0.02-0.227c-5.989-1.82-9.238-5.796-9.675-12.221
	c1.807,0.854,3.53,1.477,5.458,1.511c-5.444-4.514-6.652-9.938-3.729-16.48c6.78,7.905,15.187,12.261,25.404,12.942
	c0-1.648-0.131-3.196,0.022-4.716c0.499-5.033,5.212-9.672,10.247-10.287c4.066-0.496,7.611,0.505,10.588,3.377
	c0.205,0.196,0.65,0.284,0.941,0.224c2.229-0.465,4.348-1.245,6.348-2.336c0.221-0.122,0.447-0.224,0.824-0.411
	c-0.916,2.884-2.656,4.937-4.982,6.669c0.721-0.127,1.451-0.232,2.166-0.391c0.721-0.165,1.434-0.36,2.137-0.581
	c0.723-0.224,1.432-0.497,2.287-0.602c-0.943,1.098-1.848,2.235-2.842,3.284c-0.73,0.771-1.547,1.48-2.398,2.121
	c-0.59,0.439-0.781,0.885-0.777,1.633c0.041,4.88-0.805,9.606-2.744,14.102c-2.963,6.873-7.414,12.547-13.826,16.528
	c-4.73,2.932-9.936,4.503-15.493,4.92c-5.07,0.383-10.015-0.174-14.813-1.872C6.67,52.033,4.374,50.928,2.015,49.399"/>
</svg>
