<?xml version="1.0" encoding="utf-8"?>
<!-- Generator: Adobe Illustrator 16.0.4, SVG Export Plug-In . SVG Version: 6.00 Build 0)  -->
<!DOCTYPE svg PUBLIC "-//W3C//DTD SVG 1.1//EN" "http://www.w3.org/Graphics/SVG/1.1/DTD/svg11.dtd">
<svg version="1.1" id="Layer_3" xmlns="http://www.w3.org/2000/svg" xmlns:xlink="http://www.w3.org/1999/xlink" x="0px" y="0px"
	 width="64px" height="64px" viewBox="0 0 64 64" enable-background="new 0 0 64 64" xml:space="preserve">
<path fill-rule="evenodd" clip-rule="evenodd" d="M36.536,24.091h10.393c-0.464,3.521-0.918,6.976-1.379,10.455h-8.996v26.939
	H25.681V34.562h-9v-10.45h8.991v-0.605c0-2.35-0.017-4.699,0.006-7.049c0.018-1.864,0.187-3.711,0.775-5.5
	c1.317-3.991,4.007-6.617,8.012-7.813c1.325-0.396,2.754-0.631,4.136-0.631c2.769-0.003,5.539,0.209,8.311,0.327
	c0.293,0.011,0.407,0.111,0.407,0.424c-0.012,2.886-0.009,5.771-0.012,8.659c0,0.075-0.011,0.153-0.021,0.282
	c-0.19,0.014-0.369,0.037-0.55,0.037c-1.923,0.017-3.849,0.02-5.771,0.047c-0.421,0.005-0.851,0.062-1.264,0.15
	c-1.875,0.408-2.821,1.485-3.062,3.469c-0.064,0.53-0.095,1.069-0.098,1.604c-0.011,2.001-0.006,4.004-0.006,6.008V24.091z"/>
</svg>
