<?xml version="1.0" encoding="utf-8"?>
<!-- Generator: Adobe Illustrator 16.0.4, SVG Export Plug-In . SVG Version: 6.00 Build 0)  -->
<!DOCTYPE svg PUBLIC "-//W3C//DTD SVG 1.1//EN" "http://www.w3.org/Graphics/SVG/1.1/DTD/svg11.dtd">
<svg version="1.1" id="Layer_1" xmlns="http://www.w3.org/2000/svg" xmlns:xlink="http://www.w3.org/1999/xlink" x="0px" y="0px"
	 width="64px" height="64px" viewBox="0 0 64 64" enable-background="new 0 0 64 64" xml:space="preserve">
<g>
	<path d="M60.305,14.181c0.443-1.5-0.063-3.12-1.292-4.096c-0.696-0.557-1.539-0.837-2.395-0.837c-0.675,0-1.35,0.176-1.955,0.538
		c-1.203,0.706-2.464,1.272-3.778,1.672c-2.512-1.922-5.628-2.991-8.831-2.991c-7.34,0-13.421,5.476-14.379,12.556
		c-5.853-1.252-11.184-4.476-15.025-9.188c-0.732-0.903-1.83-1.417-2.977-1.417c-0.096,0-0.198,0.006-0.301,0.014
		c-1.258,0.099-2.381,0.808-3.017,1.894c-1.29,2.211-1.969,4.732-1.969,7.3c0,1.735,0.308,3.422,0.877,4.999
		c-0.612,0.697-0.968,1.6-0.968,2.553c0,3.806,1.437,7.305,3.83,9.934C7.977,37.767,8,38.461,8.216,39.125
		c0.828,2.594,2.344,4.826,4.303,6.53c-1.273,0.288-2.59,0.436-3.926,0.436c-0.693,0-1.394-0.044-2.099-0.124
		c-0.149-0.019-0.298-0.029-0.45-0.029c-1.608,0-3.063,1.006-3.609,2.556c-0.605,1.68,0.035,3.561,1.537,4.526
		c5.518,3.533,11.893,5.402,18.435,5.402c21.217,0,33.969-17.077,34.197-33.746c1.727-1.471,3.244-3.163,4.531-5.053
		c0.486-0.643,0.776-1.44,0.776-2.315C61.911,16.022,61.276,14.881,60.305,14.181z M52.73,22.834
		c0.025,0.457,0.034,0.917,0.034,1.379c0,14.101-10.731,30.358-30.358,30.358c-6.024,0-11.634-1.766-16.359-4.793
		c0.831,0.092,1.685,0.15,2.545,0.15c5,0,9.6-1.708,13.253-4.571c-4.674-0.082-8.611-3.172-9.971-7.409
		c0.651,0.124,1.321,0.193,2.003,0.193c0.976,0,1.919-0.133,2.812-0.376c-4.882-0.984-8.561-5.292-8.561-10.467
		c0-0.046,0-0.088,0-0.133c1.439,0.797,3.086,1.277,4.834,1.331c-2.862-1.914-4.744-5.183-4.744-8.883
		c0-1.954,0.526-3.785,1.445-5.361c5.259,6.455,13.124,10.701,21.993,11.146c-0.184-0.778-0.273-1.597-0.273-2.433
		c0-5.888,4.776-10.666,10.667-10.666c3.07,0,5.845,1.296,7.791,3.366c2.428-0.476,4.714-1.363,6.774-2.587
		c-0.797,2.49-2.49,4.581-4.69,5.901c2.156-0.255,4.21-0.828,6.126-1.68C56.625,19.451,54.818,21.33,52.73,22.834z"/>
</g>
</svg>
