
<svg width="657px" height="206px" viewBox="392 505 657 206" version="1.1" xmlns="http://www.w3.org/2000/svg" xmlns:xlink="http://www.w3.org/1999/xlink">
    <!-- Generator: Sketch 42 (36781) - http://www.bohemiancoding.com/sketch -->
    <desc>Created with Sketch.</desc>
    <defs></defs>
    <rect id="Rectangle-203" stroke="none" fill="#D8D8D8" fill-rule="evenodd" opacity="0.800000012" x="422" y="628" width="582" height="2"></rect>
    <text id="SEDIMENT-DEPTH-PROFI" stroke="none" fill="none" font-family="Montserrat-Regular, Montserrat" font-size="12" font-weight="normal" line-spacing="18" letter-spacing="-0.620689631">
        <tspan x="757.475586" y="623" fill="#58585B">SEDIMENT DEPTH PROFILE</tspan>
        <tspan x="786.005172" y="641" fill="#58585B">INDIAN LAKE, NY</tspan>
    </text>
    <text id="TODAY" stroke="none" fill="none" font-family="Montserrat-Regular, Montserrat" font-size="12" font-weight="normal" letter-spacing="-0.620689631">
        <tspan x="1009" y="633" fill="#58585B">TODAY</tspan>
    </text>
    <text id="1930" stroke="none" fill="none" font-family="Montserrat-Regular, Montserrat" font-size="12" font-weight="normal" letter-spacing="-0.620689631">
        <tspan x="392" y="633" fill="#58585B">1930</tspan>
    </text>
    <path d="M424,586.950195 L434.248364,606.966797 L451.480056,610.488281 L456.098499,639.223633 L473.513083,618.746094 L481.76871,644.266602 L487.110773,624.167969 L502.01893,641.477539 L505.94238,677.756836 L517.124293,640.486328 L532.321897,667.804688 L551.86281,651.420898 L556.088432,686.152344 L568.976815,705.168945 L583.870658,654.18457 L590.919191,669.149414 L598.478234,667.583984 L605.013077,680.1875 L610.747962,652.313477 L619.999162,669.428711 L623.410512,642.016602 L630.773939,646.305664 L634.002397,629.503906 L642.060817,639.021484 L653.306344,605.78125 L657.229795,577.712891 L666.824515,591.600586 L673.675842,584.734375 L682.745739,601.923828 L689.083376,608.104492 L694.923226,584.048828 L711.432888,600.052734 L724.124065,582.501953 L741.735856,592.083008 L756.946183,579.898438 L761.171804,565.12793 L775.765067,549.615234 L780.383511,577.183594 L803.752452,511 L815.405115,547.770508 L822.949845,535.834961 L830.193994,569.212891 L837.438143,551.041992 L846.703656,561.114258 L862.504012,529.525391 L877.50441,572.652344 L884.249182,540.636719 L898.43531,562.200195 L911.912131,546.994141 L930.218915,561.080078 L954.484826,542.110352 L969.878047,555.705078 L976.532168,570.243164 L983.474146,557.114258 C983.474146,557.114258 997.158049,563.436477 1004,566.597586" id="Path-883" stroke="#009777" stroke-width="10" stroke-linecap="round" stroke-linejoin="round" fill="none"></path>
</svg>