<?xml version="1.0" encoding="utf-8"?>
<!-- Generator: Adobe Illustrator 16.0.4, SVG Export Plug-In . SVG Version: 6.00 Build 0)  -->
<!DOCTYPE svg PUBLIC "-//W3C//DTD SVG 1.1//EN" "http://www.w3.org/Graphics/SVG/1.1/DTD/svg11.dtd">
<svg version="1.1" id="Layer_1" xmlns="http://www.w3.org/2000/svg" xmlns:xlink="http://www.w3.org/1999/xlink" x="0px" y="0px"
	 width="64px" height="64px" viewBox="0 0 64 64" enable-background="new 0 0 64 64" xml:space="preserve">
<title>chevron-book</title>
<desc>Created with Sketch.</desc>
<path fill="#939597" d="M2.6,11.109h7.91v-7.91H2.6V11.109z M19.025,11.109h7.91v-7.91h-7.91V11.109z M35.893,11.109h7.909v-7.91
	h-7.909V11.109z M52.756,3.199v7.91h7.911v-7.91H52.756z M2.6,27.535h7.91v-7.91H2.6V27.535z M19.025,27.535h7.91v-7.91h-7.91
	V27.535z M35.893,27.535h7.909v-7.91h-7.909V27.535z M52.756,27.535h7.911v-7.91h-7.911V27.535z M2.6,44.4h7.91v-7.91H2.6V44.4z
	 M19.025,44.4h7.91v-7.91h-7.91V44.4z M35.893,44.4h7.909v-7.91h-7.909V44.4z M52.756,44.4h7.911v-7.91h-7.911V44.4z M2.6,61.268
	h7.91v-7.912H2.6V61.268z M19.025,61.268h7.91v-7.912h-7.91V61.268z M35.893,61.268h7.909v-7.912h-7.909V61.268z M52.756,61.268
	h7.911v-7.912h-7.911V61.268z"/>
</svg>
