<?xml version="1.0" encoding="utf-8"?>
<!-- Generator: Adobe Illustrator 16.0.4, SVG Export Plug-In . SVG Version: 6.00 Build 0)  -->
<!DOCTYPE svg PUBLIC "-//W3C//DTD SVG 1.1//EN" "http://www.w3.org/Graphics/SVG/1.1/DTD/svg11.dtd">
<svg version="1.1" id="Layer_1" xmlns="http://www.w3.org/2000/svg" xmlns:xlink="http://www.w3.org/1999/xlink" x="0px" y="0px"
	 width="64px" height="64px" viewBox="0 0 64 64" enable-background="new 0 0 64 64" xml:space="preserve">
<path fill="#FFFFFF" d="M2.321,22.168c2.717,2.922,5.997,4.831,9.017,7.111c4.481,3.388,8.979,6.754,13.497,10.084
	c1.828,1.347,3.83,2.332,6.052,2.722c1.759,0.308,3.399-0.165,5.009-0.858c1.854-0.795,3.473-1.996,5.098-3.205
	c5.66-4.217,11.354-8.389,17.011-12.609c1.269-0.949,2.438-2.04,3.667-3.075c0.006,0.066,0.031,0.22,0.031,0.371
	c0.003,9.052,0.012,18.103,0,27.149c-0.005,3.49-2.277,5.865-5.559,5.865c-16.131,0-32.265,0-48.397,0
	c-2.703,0-4.814-1.8-5.354-4.574c-0.081-0.416-0.099-0.857-0.099-1.287C2.289,40.83,2.29,31.798,2.292,22.766
	C2.292,22.604,2.306,22.441,2.321,22.168"/>
<path fill="#FFFFFF" d="M31.981,8.306c8.042,0,16.089,0.055,24.134-0.029c2.978-0.032,6.234,2.519,5.484,6.734
	c-0.441,2.487-1.719,4.506-3.522,6.11c-1.747,1.555-3.673,2.907-5.576,4.271c-4.881,3.499-9.778,6.969-14.692,10.413
	c-1.144,0.799-2.367,1.497-3.608,2.133c-1.677,0.864-3.385,0.649-4.978-0.252c-1.309-0.74-2.576-1.563-3.808-2.432
	c-5.749-4.051-11.477-8.133-17.217-12.198c-2.09-1.482-3.789-3.331-5.05-5.582c-0.983-1.755-1.086-3.612-0.483-5.513
	c0.754-2.376,2.46-3.641,4.917-3.653c2.793-0.014,5.587-0.002,8.381-0.002C21.303,8.306,26.641,8.306,31.981,8.306"/>
</svg>
