<?xml version="1.0" encoding="utf-8"?>
<!-- Generator: Adobe Illustrator 16.0.4, SVG Export Plug-In . SVG Version: 6.00 Build 0)  -->
<!DOCTYPE svg PUBLIC "-//W3C//DTD SVG 1.1//EN" "http://www.w3.org/Graphics/SVG/1.1/DTD/svg11.dtd">
<svg version="1.1" id="Layer_1" xmlns="http://www.w3.org/2000/svg" xmlns:xlink="http://www.w3.org/1999/xlink" x="0px" y="0px"
	 width="100px" height="41.25px" viewBox="0 0 100 41.25" enable-background="new 0 0 100 41.25" xml:space="preserve">
<g>
	<defs>
		<path id="SVGID_1_" d="M26.869,27.136c0.041-0.005,0.098,0.019,0.133,0.048c0.042,0.035,0.069,0.025,0.097-0.008
			c0.085,0.102,0.209,0.145,0.297,0.102c0.06,0.084,0.11,0.103,0.206,0.077c0.055,0.086,0.127,0.128,0.23,0.1
			c0.05,0.072,0.094,0.144,0.146,0.211c0.013,0.019,0.045,0.029,0.071,0.035c0.074,0.019,0.11,0.068,0.096,0.142
			c-0.009,0.044,0.005,0.098-0.054,0.122c-0.007,0.002,0,0.036,0,0.054s0.005,0.04-0.004,0.049
			c-0.062,0.013-0.087,0.003-0.092,0.009c-0.055,0.072-0.153,0.062-0.221,0.107c-0.045,0.034-0.092,0.069-0.129,0.11
			c-0.044,0.051-0.106,0.056-0.152,0.037c-0.093-0.036-0.167-0.004-0.25,0.021c-0.031,0.009-0.08,0.003-0.106-0.018
			c-0.058-0.041-0.104-0.07-0.189-0.072c-0.438-0.009-0.868,0.058-1.298,0.123c-0.721,0.113-1.438,0.254-2.159,0.357
			c-0.38,0.056-0.767,0.064-1.15,0.086c-0.149,0.01-0.298,0.008-0.447,0c-0.102-0.004-0.168,0.044-0.229,0.111
			c-0.055,0.062-0.112,0.122-0.164,0.188c-0.042,0.055-0.085,0.105-0.059,0.188c0.021,0.066-0.114,0.226-0.187,0.22
			c-0.108-0.013-0.18,0.045-0.249,0.103c-0.098,0.084-0.181,0.182-0.276,0.265c-0.087,0.078-0.18,0.143-0.267,0.22
			c-0.054,0.048-0.098,0.105-0.147,0.155c-0.02,0.021-0.042,0.044-0.069,0.053c-0.064,0.023-0.087,0.066-0.091,0.132
			c-0.008,0.139-0.034,0.154-0.172,0.136c-0.039-0.004-0.09,0.012-0.12,0.037c-0.131,0.107-0.253,0.223-0.382,0.332
			c-0.048,0.04-0.099,0.071-0.151,0.106c-0.082,0.055-0.161,0.118-0.249,0.164c-0.082,0.042-0.17,0.069-0.257,0.103
			c-0.066,0.024-0.134,0.058-0.203,0.069c-0.135,0.021-0.273,0.036-0.41,0.038c-0.04,0.003-0.092-0.041-0.116-0.078
			c-0.012-0.021,0.012-0.08,0.037-0.107c0.051-0.054,0.114-0.1,0.173-0.149c0.503-0.432,0.936-0.933,1.375-1.425
			c0.236-0.264,0.454-0.538,0.681-0.809c0.051-0.062,0.03-0.122-0.053-0.136c-0.144-0.022-0.289-0.046-0.436-0.059
			c-0.203-0.018-0.395,0.05-0.592,0.087c-0.144,0.027-0.268,0.098-0.405,0.146c-0.042,0.015-0.092,0.015-0.138,0.026
			c-0.143,0.044-0.282,0.103-0.426,0.132c-0.208,0.043-0.421,0.039-0.632,0.021c-0.025-0.003-0.05-0.009-0.078-0.023
			c0.485-0.134,0.96-0.289,1.405-0.521c-0.02-0.026-0.04-0.035-0.06-0.04c-0.417-0.093-0.836-0.174-1.249-0.28
			c-0.687-0.176-1.364-0.376-2.026-0.634c-0.222-0.087-0.464-0.123-0.694-0.187c-0.151-0.042-0.296-0.094-0.447-0.138
			c-0.055-0.017-0.112-0.022-0.17-0.023s-0.115,0.009-0.174,0.011c-0.086,0.004-0.165,0.028-0.248,0.062
			c-0.071,0.028-0.16,0.035-0.24,0.029c-0.209-0.012-0.417-0.041-0.626-0.012c-0.222,0.033-0.443,0.064-0.663,0.108
			c-0.301,0.062-0.604,0.087-0.91,0.075c-0.106-0.006-0.213-0.021-0.319-0.028c-0.049-0.004-0.099-0.004-0.144,0.01
			c-0.347,0.095-0.693,0.199-1.054,0.21c-0.26,0.006-0.521-0.018-0.781-0.037c-0.234-0.02-0.447-0.104-0.642-0.239
			c-0.089-0.062-0.159-0.138-0.21-0.257c0.051,0.029,0.085,0.049,0.122,0.064c0.118,0.053,0.229,0.088,0.363,0.015
			c0.121-0.063,0.262-0.091,0.392-0.137c0.189-0.065,0.38-0.129,0.562-0.207c0.132-0.056,0.26-0.083,0.4-0.051
			c0.006-0.065-0.02-0.117-0.041-0.173c-0.013-0.034-0.03-0.074-0.021-0.105c0.021-0.072,0.013-0.13-0.069-0.184
			c0.1-0.019,0.181-0.003,0.253,0.022c0.261,0.085,0.51,0.192,0.725,0.366c0.054,0.043,0.103,0.042,0.161,0.008
			c0.36-0.214,0.724-0.427,1.087-0.639c0.06-0.035,0.128-0.058,0.188-0.091c0.084-0.047,0.167-0.102,0.25-0.148
			c0.05-0.028,0.104-0.048,0.155-0.073c0.071-0.034,0.141-0.068,0.212-0.101c0.042-0.021,0.086-0.04,0.131-0.06
			c0.024-0.01,0.053-0.015,0.078-0.027c0.155-0.08,0.308-0.162,0.462-0.242c0.032-0.016,0.066-0.026,0.093-0.049
			c0.133-0.106,0.291-0.149,0.454-0.185c0.035-0.009,0.075-0.018,0.104-0.038c0.098-0.068,0.209-0.093,0.322-0.122
			c0.397-0.103,0.792-0.212,1.188-0.315c0.069-0.018,0.141-0.021,0.207-0.04c0.085-0.027,0.169-0.062,0.248-0.104
			c0.067-0.036,0.063-0.113,0.067-0.18c0.005-0.048-0.003-0.097,0-0.144c0.004-0.05,0.039-0.061,0.085-0.043
			c0.169,0.062,0.336,0.139,0.511,0.178c0.241,0.053,0.474,0.108,0.686,0.242c0.204,0.13,0.444,0.177,0.679,0.229
			c0.833,0.188,1.667,0.363,2.495,0.567c0.819,0.201,1.627,0.442,2.428,0.706c0.498,0.166,0.998,0.323,1.499,0.476
			c0.137,0.041,0.284,0.041,0.427,0.062c0.041,0.006,0.084,0.013,0.123,0.024c0.2,0.069,0.399,0.141,0.6,0.208
			c0.03,0.011,0.062,0.005,0.094,0.01c0.021,0.002,0.042,0.005,0.06,0.012c0.078,0.033,0.153,0.069,0.23,0.1
			c0.017,0.007,0.04-0.006,0.061-0.006c0.02,0.003,0.045,0.004,0.06,0.016c0.078,0.062,0.162,0.081,0.265,0.046
			C26.773,27.117,26.802,27.145,26.869,27.136z"/>
	</defs>
	<clipPath id="SVGID_2_">
		<use xlink:href="#SVGID_1_"  overflow="visible"/>
	</clipPath>
	<g clip-path="url(#SVGID_2_)">
		<defs>
			<rect id="SVGID_3_" x="-38.626" y="-56.724" width="177.078" height="110.674"/>
		</defs>
		<clipPath id="SVGID_4_">
			<use xlink:href="#SVGID_3_"  overflow="visible"/>
		</clipPath>
		<rect x="7.733" y="23.576" clip-path="url(#SVGID_4_)" fill="#52CCB2" width="21.028" height="8.485"/>
	</g>
</g>
<g>
	<defs>
		<path id="SVGID_5_" d="M92.962,15.576c0.208-0.033,0.491,0.096,0.664,0.241c0.213,0.178,0.341,0.128,0.483-0.045
			c0.422,0.525,1.046,0.734,1.484,0.522c0.295,0.422,0.549,0.516,1.022,0.384c0.273,0.431,0.639,0.65,1.154,0.512
			c0.244,0.361,0.468,0.721,0.723,1.058c0.073,0.097,0.23,0.148,0.357,0.182c0.372,0.091,0.553,0.336,0.481,0.712
			c-0.042,0.222,0.026,0.492-0.271,0.615c-0.033,0.014,0.003,0.183,0.003,0.279c-0.003,0.085,0.02,0.191-0.022,0.243
			c-0.311,0.058-0.431,0.012-0.459,0.045c-0.28,0.362-0.764,0.306-1.097,0.544c-0.231,0.164-0.462,0.34-0.647,0.552
			c-0.223,0.255-0.531,0.277-0.764,0.186c-0.457-0.179-0.83-0.017-1.241,0.106c-0.16,0.046-0.404,0.013-0.533-0.086
			c-0.289-0.214-0.52-0.356-0.942-0.367c-2.191-0.05-4.339,0.283-6.484,0.623c-3.601,0.569-7.178,1.276-10.783,1.805
			c-1.896,0.28-3.828,0.319-5.745,0.438c-0.741,0.045-1.491,0.033-2.236-0.002c-0.506-0.025-0.836,0.218-1.14,0.559
			c-0.275,0.312-0.56,0.622-0.816,0.948c-0.216,0.271-0.432,0.529-0.302,0.942c0.108,0.339-0.563,1.15-0.935,1.111
			c-0.534-0.059-0.896,0.233-1.242,0.526c-0.487,0.412-0.902,0.904-1.377,1.334c-0.429,0.389-0.901,0.723-1.333,1.106
			c-0.265,0.237-0.483,0.528-0.732,0.786c-0.1,0.104-0.213,0.221-0.345,0.267c-0.321,0.115-0.437,0.328-0.454,0.66
			c-0.037,0.706-0.171,0.78-0.86,0.691c-0.189-0.025-0.445,0.058-0.596,0.182c-0.651,0.543-1.268,1.125-1.912,1.678
			c-0.23,0.2-0.496,0.363-0.752,0.537c-0.411,0.283-0.807,0.597-1.246,0.832c-0.403,0.218-0.849,0.352-1.28,0.516
			c-0.336,0.127-0.667,0.295-1.015,0.351c-0.677,0.109-1.364,0.187-2.048,0.201c-0.198,0.005-0.461-0.213-0.582-0.401
			c-0.065-0.104,0.058-0.402,0.181-0.536c0.258-0.28,0.574-0.51,0.862-0.762c2.524-2.179,4.677-4.711,6.872-7.198
			c1.171-1.327,2.266-2.718,3.394-4.082c0.258-0.314,0.151-0.618-0.259-0.684c-0.724-0.115-1.448-0.235-2.18-0.299
			c-1.015-0.089-1.973,0.259-2.955,0.438c-0.717,0.133-1.341,0.502-2.015,0.733c-0.223,0.076-0.472,0.071-0.694,0.14
			c-0.712,0.216-1.406,0.511-2.13,0.661c-1.036,0.217-2.095,0.2-3.151,0.104c-0.125-0.011-0.248-0.045-0.388-0.119
			c2.421-0.672,4.794-1.458,7.018-2.628c-0.103-0.135-0.203-0.177-0.304-0.199c-2.077-0.47-4.173-0.882-6.233-1.419
			c-3.426-0.891-6.815-1.902-10.118-3.201c-1.108-0.435-2.313-0.617-3.467-0.939c-0.748-0.21-1.479-0.479-2.227-0.697
			c-0.271-0.078-0.563-0.11-0.848-0.118c-0.29-0.01-0.579,0.045-0.871,0.058c-0.435,0.018-0.831,0.14-1.238,0.305
			c-0.361,0.147-0.797,0.177-1.194,0.153c-1.045-0.062-2.089-0.216-3.137-0.061c-1.104,0.166-2.211,0.32-3.304,0.546
			c-1.504,0.314-3.017,0.438-4.546,0.377c-0.534-0.021-1.063-0.108-1.596-0.142c-0.238-0.015-0.491-0.014-0.72,0.049
			c-1.729,0.479-3.456,1.016-5.259,1.062c-1.298,0.033-2.603-0.085-3.901-0.189c-1.172-0.094-2.237-0.524-3.201-1.198
			c-0.445-0.312-0.794-0.701-1.054-1.298c0.254,0.135,0.425,0.237,0.604,0.317c0.593,0.265,1.147,0.446,1.817,0.081
			c0.602-0.327,1.307-0.461,1.961-0.694c0.941-0.337,1.893-0.648,2.811-1.042c0.655-0.284,1.294-0.425,1.992-0.265
			c0.03-0.321-0.099-0.592-0.2-0.871c-0.062-0.168-0.152-0.372-0.106-0.526c0.106-0.368,0.063-0.662-0.344-0.937
			c0.504-0.093,0.901-0.009,1.27,0.114c1.296,0.436,2.545,0.975,3.614,1.854c0.264,0.218,0.506,0.212,0.794,0.039
			c1.809-1.082,3.623-2.156,5.439-3.226c0.298-0.177,0.632-0.296,0.936-0.465c0.422-0.235,0.828-0.503,1.251-0.741
			c0.25-0.14,0.52-0.245,0.779-0.371c0.351-0.17,0.698-0.347,1.051-0.515c0.215-0.103,0.433-0.198,0.653-0.293
			c0.126-0.053,0.27-0.077,0.39-0.14c0.772-0.405,1.54-0.818,2.309-1.229c0.154-0.08,0.332-0.132,0.464-0.241
			c0.661-0.541,1.448-0.762,2.26-0.937c0.181-0.039,0.376-0.086,0.522-0.188c0.489-0.343,1.045-0.47,1.609-0.618
			c1.983-0.514,3.956-1.067,5.935-1.596c0.336-0.091,0.698-0.095,1.028-0.202c0.425-0.137,0.845-0.306,1.239-0.519
			c0.341-0.184,0.312-0.576,0.344-0.906c0.022-0.241-0.02-0.489-0.005-0.732c0.017-0.245,0.197-0.302,0.425-0.215
			c0.846,0.318,1.679,0.707,2.556,0.899c1.2,0.265,2.363,0.544,3.423,1.225c1.021,0.654,2.216,0.892,3.389,1.159
			c4.155,0.947,8.325,1.831,12.462,2.859c4.089,1.02,8.13,2.229,12.127,3.57c2.483,0.832,4.979,1.634,7.485,2.395
			c0.683,0.207,1.422,0.213,2.134,0.318c0.204,0.031,0.415,0.064,0.61,0.131c1,0.344,1.998,0.704,3.001,1.047
			c0.145,0.05,0.315,0.026,0.471,0.047c0.1,0.012,0.206,0.022,0.295,0.061c0.39,0.166,0.768,0.35,1.156,0.505
			c0.083,0.034,0.201-0.033,0.301-0.026c0.103,0.005,0.23,0.013,0.306,0.072c0.389,0.311,0.804,0.41,1.32,0.229
			C92.488,15.482,92.628,15.629,92.962,15.576z"/>
	</defs>
	<clipPath id="SVGID_6_">
		<use xlink:href="#SVGID_5_"  overflow="visible"/>
	</clipPath>
	<g clip-path="url(#SVGID_6_)">
		<defs>
			<rect id="SVGID_7_" x="-38.626" y="-56.724" width="177.078" height="110.674"/>
		</defs>
		<clipPath id="SVGID_8_">
			<use xlink:href="#SVGID_7_"  overflow="visible"/>
		</clipPath>
		<rect x="-0.136" y="0.088" clip-path="url(#SVGID_8_)" fill="#009777" width="100.098" height="37.876"/>
	</g>
</g>
<g>
	<g>
		<path fill="#6B6B6E" d="M5.463,34.639v0.128H4.716v-0.109l0.399-0.414c0.043-0.043,0.078-0.087,0.103-0.13
			c0.025-0.042,0.039-0.08,0.039-0.111c0-0.046-0.019-0.083-0.054-0.108c-0.036-0.027-0.085-0.04-0.148-0.04
			c-0.049,0-0.099,0.011-0.151,0.033c-0.051,0.023-0.099,0.053-0.142,0.092l-0.061-0.107c0.057-0.046,0.115-0.081,0.18-0.105
			c0.064-0.025,0.126-0.038,0.191-0.038c0.1,0,0.18,0.023,0.241,0.069c0.062,0.047,0.091,0.108,0.091,0.186
			c0,0.092-0.065,0.204-0.193,0.337l-0.311,0.319H5.463z"/>
		<path fill="#6B6B6E" d="M6.368,33.863c0.074,0.09,0.111,0.22,0.111,0.387c0,0.169-0.037,0.299-0.111,0.389
			c-0.075,0.09-0.182,0.135-0.32,0.135c-0.141,0-0.247-0.045-0.321-0.135c-0.075-0.09-0.111-0.22-0.111-0.389
			c0-0.167,0.037-0.297,0.111-0.387c0.074-0.09,0.181-0.136,0.321-0.136C6.186,33.728,6.292,33.773,6.368,33.863z M5.76,34.25
			c0,0.136,0.023,0.238,0.072,0.307c0.049,0.069,0.119,0.103,0.215,0.103c0.093,0,0.165-0.033,0.214-0.103
			c0.048-0.068,0.071-0.171,0.071-0.307c0-0.273-0.095-0.411-0.285-0.411C5.855,33.839,5.76,33.977,5.76,34.25z"/>
		<path fill="#6B6B6E" d="M6.571,33.733h0.376v1.033H6.805v-0.905H6.571V33.733z"/>
		<path fill="#6B6B6E" d="M7.115,33.733h0.377v1.033H7.349v-0.905H7.115V33.733z"/>
		<path fill="#6B6B6E" d="M8.185,33.733h0.142v0.46h0.59v-0.46H9.06v1.033H8.917v-0.443h-0.59v0.443H8.185V33.733z"/>
		<path fill="#6B6B6E" d="M9.553,34.568c0.053,0.053,0.125,0.08,0.218,0.08c0.092,0,0.163-0.027,0.216-0.08
			c0.053-0.054,0.079-0.129,0.079-0.225v-0.61h0.142v0.61c0,0.136-0.039,0.241-0.117,0.319c-0.078,0.076-0.184,0.113-0.319,0.113
			c-0.136,0-0.244-0.037-0.322-0.113c-0.078-0.078-0.115-0.184-0.115-0.319v-0.61h0.142v0.61C9.476,34.439,9.5,34.515,9.553,34.568z
			"/>
		<path fill="#6B6B6E" d="M10.479,33.733h0.167l0.378,0.726l0.375-0.726h0.169v1.033h-0.133l-0.001-0.825l-0.367,0.716h-0.086
			l-0.371-0.716v0.825h-0.131V33.733z"/>
		<path fill="#6B6B6E" d="M12.563,33.825c0.07,0.062,0.105,0.147,0.105,0.258c0,0.115-0.035,0.203-0.107,0.267
			c-0.071,0.063-0.17,0.096-0.297,0.096h-0.257v0.321h-0.142v-1.033h0.399C12.393,33.733,12.492,33.764,12.563,33.825z
			 M12.461,34.258c0.048-0.037,0.07-0.095,0.07-0.172c0-0.072-0.022-0.129-0.07-0.167c-0.047-0.038-0.115-0.058-0.204-0.058
			l-0.25,0.002v0.454h0.25C12.346,34.317,12.414,34.298,12.461,34.258z"/>
		<path fill="#6B6B6E" d="M13.544,33.803c0.062,0.045,0.092,0.108,0.092,0.189c0,0.059-0.017,0.108-0.051,0.149
			c-0.034,0.041-0.079,0.068-0.136,0.082c0.071,0.011,0.128,0.04,0.169,0.086c0.04,0.048,0.062,0.106,0.062,0.175
			c0,0.089-0.034,0.158-0.1,0.207c-0.066,0.052-0.16,0.075-0.276,0.075h-0.448v-1.033h0.442
			C13.401,33.733,13.485,33.757,13.544,33.803z M13.438,34.131c0.035-0.025,0.053-0.064,0.053-0.115
			c0-0.048-0.018-0.087-0.053-0.114c-0.036-0.025-0.085-0.038-0.149-0.038h-0.292v0.309h0.292
			C13.353,34.172,13.402,34.158,13.438,34.131z M13.469,34.594c0.044-0.03,0.065-0.073,0.065-0.127c0-0.051-0.021-0.092-0.065-0.123
			c-0.042-0.028-0.102-0.043-0.18-0.043h-0.292v0.336h0.292C13.367,34.637,13.427,34.624,13.469,34.594z"/>
		<path fill="#6B6B6E" d="M14.662,34.767l-0.109-0.251h-0.545L13.9,34.767h-0.149l0.458-1.033h0.147l0.458,1.033H14.662z
			 M14.063,34.388h0.435l-0.218-0.501L14.063,34.388z"/>
		<path fill="#6B6B6E" d="M15.577,33.884c-0.053-0.022-0.106-0.034-0.162-0.034c-0.073,0-0.139,0.018-0.2,0.054
			c-0.062,0.035-0.109,0.084-0.145,0.145c-0.036,0.061-0.052,0.127-0.052,0.2c0,0.071,0.016,0.138,0.052,0.198
			c0.036,0.062,0.083,0.109,0.145,0.145c0.062,0.037,0.127,0.055,0.2,0.055c0.056,0,0.108-0.012,0.159-0.034
			c0.053-0.022,0.099-0.053,0.139-0.091l0.087,0.092c-0.053,0.052-0.114,0.093-0.182,0.121c-0.069,0.029-0.139,0.043-0.209,0.043
			c-0.099,0-0.189-0.022-0.271-0.068c-0.081-0.049-0.146-0.111-0.193-0.192c-0.048-0.081-0.071-0.17-0.071-0.267
			s0.023-0.184,0.071-0.265c0.047-0.081,0.114-0.144,0.197-0.189c0.082-0.048,0.173-0.069,0.272-0.069
			c0.071,0,0.141,0.014,0.209,0.04c0.066,0.027,0.125,0.064,0.176,0.115l-0.085,0.101C15.675,33.94,15.628,33.907,15.577,33.884z"/>
		<path fill="#6B6B6E" d="M16.864,34.767h-0.172l-0.363-0.477l-0.191,0.206v0.271h-0.141v-1.033h0.141v0.581l0.529-0.581h0.169
			l-0.409,0.447L16.864,34.767z"/>
		<path fill="#6B6B6E" d="M18.669,33.733h0.146l-0.348,1.033H18.32l-0.267-0.853l-0.271,0.853h-0.146l-0.349-1.033h0.153
			l0.273,0.882l0.271-0.882h0.142l0.273,0.882L18.669,33.733z"/>
		<path fill="#6B6B6E" d="M18.97,33.733h0.142v0.46h0.59v-0.46h0.143v1.033h-0.143v-0.443h-0.59v0.443H18.97V33.733z"/>
		<path fill="#6B6B6E" d="M20.908,34.767l-0.109-0.251h-0.543l-0.108,0.251h-0.149l0.458-1.033h0.146l0.459,1.033H20.908z
			 M20.31,34.388h0.435l-0.219-0.501L20.31,34.388z"/>
		<path fill="#6B6B6E" d="M21.212,33.733h0.142v0.905h0.452v0.128h-0.593V33.733z"/>
		<path fill="#6B6B6E" d="M21.985,33.733h0.717v0.128h-0.575v0.32h0.515v0.127h-0.515v0.33h0.594v0.128h-0.736V33.733z"/>
		<path fill="#6B6B6E" d="M23.79,33.881c-0.052-0.016-0.099-0.022-0.143-0.022c-0.06,0-0.107,0.012-0.144,0.034
			c-0.037,0.023-0.054,0.055-0.054,0.095c0,0.038,0.011,0.066,0.033,0.09c0.021,0.022,0.047,0.041,0.079,0.054
			c0.031,0.015,0.076,0.029,0.131,0.046c0.07,0.023,0.128,0.044,0.17,0.063c0.042,0.021,0.08,0.049,0.11,0.088
			c0.03,0.038,0.046,0.09,0.046,0.153c0,0.06-0.017,0.111-0.048,0.155c-0.032,0.045-0.078,0.078-0.134,0.104
			c-0.059,0.022-0.125,0.034-0.199,0.034c-0.075,0-0.149-0.013-0.222-0.043c-0.072-0.028-0.133-0.068-0.186-0.119l0.063-0.121
			c0.05,0.048,0.105,0.085,0.167,0.11c0.062,0.027,0.122,0.039,0.18,0.039c0.069,0,0.122-0.013,0.163-0.04
			c0.04-0.027,0.06-0.063,0.06-0.109c0-0.036-0.011-0.067-0.033-0.09c-0.021-0.024-0.049-0.043-0.081-0.058
			c-0.034-0.013-0.078-0.028-0.134-0.045c-0.069-0.02-0.125-0.041-0.169-0.06c-0.043-0.02-0.079-0.05-0.109-0.088
			c-0.03-0.038-0.045-0.09-0.045-0.152c0-0.055,0.015-0.104,0.046-0.146c0.031-0.041,0.073-0.075,0.128-0.097
			c0.055-0.024,0.119-0.034,0.192-0.034c0.062,0,0.123,0.009,0.183,0.026c0.059,0.019,0.112,0.042,0.158,0.072l-0.059,0.129
			C23.891,33.918,23.84,33.896,23.79,33.881z"/>
		<path fill="#6B6B6E" d="M24.245,33.733h0.142v1.033h-0.142V33.733z"/>
		<path fill="#6B6B6E" d="M25.395,34.262h0.125v0.379c-0.052,0.042-0.113,0.074-0.183,0.1c-0.069,0.025-0.138,0.036-0.208,0.036
			c-0.099,0-0.191-0.022-0.272-0.068c-0.083-0.049-0.149-0.111-0.196-0.193c-0.047-0.08-0.072-0.169-0.072-0.266
			s0.025-0.184,0.073-0.265c0.049-0.081,0.114-0.144,0.198-0.189c0.084-0.048,0.175-0.069,0.277-0.069
			c0.073,0,0.143,0.013,0.211,0.038c0.069,0.023,0.127,0.06,0.178,0.104l-0.082,0.105c-0.042-0.039-0.089-0.069-0.142-0.091
			c-0.054-0.021-0.109-0.032-0.166-0.032c-0.074,0-0.142,0.018-0.203,0.054c-0.063,0.035-0.112,0.084-0.146,0.146
			c-0.037,0.062-0.054,0.127-0.054,0.2c0,0.072,0.018,0.139,0.054,0.202c0.036,0.062,0.084,0.109,0.147,0.146
			c0.062,0.036,0.129,0.054,0.203,0.054c0.043,0,0.087-0.006,0.133-0.021c0.045-0.014,0.086-0.034,0.124-0.059V34.262z"/>
		<path fill="#6B6B6E" d="M25.79,33.733h0.142v0.46h0.59v-0.46h0.143v1.033h-0.143v-0.443h-0.59v0.443H25.79V33.733z"/>
		<path fill="#6B6B6E" d="M26.827,33.733h0.807v0.13h-0.333v0.903h-0.142v-0.903h-0.332V33.733z"/>
		<path fill="#6B6B6E" d="M27.797,33.733h0.142v1.033h-0.142V33.733z"/>
		<path fill="#6B6B6E" d="M28.968,33.733h0.141v1.033h-0.144l-0.59-0.799v0.799h-0.142v-1.033h0.143l0.592,0.803V33.733z"/>
		<path fill="#6B6B6E" d="M30.119,34.262h0.125v0.379c-0.053,0.042-0.113,0.074-0.183,0.1c-0.07,0.025-0.139,0.036-0.208,0.036
			c-0.099,0-0.19-0.022-0.273-0.068c-0.083-0.049-0.147-0.111-0.195-0.193c-0.047-0.08-0.071-0.169-0.071-0.266
			s0.024-0.184,0.073-0.265c0.047-0.081,0.114-0.144,0.198-0.189c0.083-0.048,0.176-0.069,0.277-0.069
			c0.072,0,0.142,0.013,0.211,0.038c0.067,0.023,0.126,0.06,0.178,0.104l-0.083,0.105c-0.04-0.039-0.088-0.069-0.142-0.091
			c-0.053-0.021-0.107-0.032-0.164-0.032c-0.074,0-0.142,0.018-0.204,0.054c-0.061,0.035-0.11,0.084-0.146,0.146
			s-0.054,0.127-0.054,0.2c0,0.072,0.019,0.139,0.055,0.202c0.036,0.062,0.085,0.109,0.148,0.146
			c0.062,0.036,0.129,0.054,0.203,0.054c0.043,0,0.087-0.006,0.132-0.021c0.045-0.014,0.086-0.034,0.125-0.059V34.262z"/>
		<path fill="#6B6B6E" d="M30.968,33.881c-0.053-0.016-0.101-0.022-0.144-0.022c-0.059,0-0.108,0.012-0.143,0.034
			c-0.037,0.023-0.054,0.055-0.054,0.095c0,0.038,0.01,0.066,0.033,0.09c0.021,0.022,0.048,0.041,0.079,0.054
			c0.031,0.015,0.075,0.029,0.132,0.046c0.07,0.023,0.126,0.044,0.17,0.063c0.043,0.021,0.081,0.049,0.111,0.088
			c0.03,0.038,0.044,0.09,0.044,0.153c0,0.06-0.015,0.111-0.047,0.155c-0.033,0.045-0.077,0.078-0.134,0.104
			c-0.058,0.022-0.124,0.034-0.199,0.034c-0.076,0-0.149-0.013-0.221-0.043c-0.071-0.028-0.134-0.068-0.186-0.119l0.062-0.121
			c0.049,0.048,0.104,0.085,0.167,0.11c0.061,0.027,0.121,0.039,0.179,0.039c0.069,0,0.123-0.013,0.163-0.04
			c0.039-0.027,0.06-0.063,0.06-0.109c0-0.036-0.011-0.067-0.032-0.09c-0.021-0.024-0.049-0.043-0.083-0.058
			c-0.032-0.013-0.077-0.028-0.132-0.045c-0.069-0.02-0.125-0.041-0.169-0.06c-0.042-0.02-0.079-0.05-0.109-0.088
			c-0.03-0.038-0.045-0.09-0.045-0.152c0-0.055,0.015-0.104,0.046-0.146c0.03-0.041,0.073-0.075,0.128-0.097
			c0.055-0.024,0.119-0.034,0.192-0.034c0.062,0,0.123,0.009,0.182,0.026c0.06,0.019,0.112,0.042,0.159,0.072l-0.059,0.129
			C31.069,33.918,31.018,33.896,30.968,33.881z"/>
	</g>
	<g>
		<path fill="#6B6B6E" d="M49.855,40.541v0.128h-0.747v-0.108l0.401-0.416c0.042-0.043,0.078-0.085,0.103-0.127
			c0.025-0.044,0.038-0.08,0.038-0.112c0-0.046-0.018-0.082-0.053-0.11c-0.038-0.026-0.085-0.04-0.15-0.04
			c-0.048,0-0.098,0.013-0.148,0.034c-0.052,0.022-0.1,0.053-0.143,0.093l-0.06-0.108c0.056-0.045,0.116-0.081,0.178-0.105
			c0.065-0.025,0.128-0.038,0.19-0.038c0.103,0,0.183,0.023,0.243,0.069c0.06,0.047,0.09,0.108,0.09,0.187
			c0,0.092-0.063,0.204-0.19,0.336l-0.313,0.319H49.855z"/>
		<path fill="#6B6B6E" d="M50.76,39.767c0.075,0.088,0.113,0.218,0.113,0.386c0,0.17-0.038,0.298-0.113,0.389
			c-0.075,0.09-0.183,0.135-0.321,0.135c-0.138,0-0.245-0.045-0.32-0.135c-0.073-0.091-0.11-0.219-0.11-0.389
			c0-0.168,0.038-0.298,0.11-0.386c0.075-0.092,0.183-0.137,0.32-0.137C50.577,39.63,50.685,39.675,50.76,39.767z M50.153,40.152
			c0,0.136,0.025,0.239,0.072,0.308c0.048,0.069,0.121,0.104,0.213,0.104c0.096,0,0.166-0.034,0.214-0.104
			c0.05-0.068,0.075-0.172,0.075-0.308c0-0.272-0.098-0.409-0.289-0.409C50.249,39.743,50.153,39.88,50.153,40.152z"/>
		<path fill="#6B6B6E" d="M50.963,39.636h0.376v1.033h-0.141v-0.905h-0.235V39.636z"/>
		<path fill="#6B6B6E" d="M52.301,40.541v0.128h-0.747v-0.108l0.401-0.416c0.043-0.043,0.078-0.085,0.103-0.127
			c0.025-0.044,0.038-0.08,0.038-0.112c0-0.046-0.018-0.082-0.053-0.11c-0.035-0.026-0.085-0.04-0.147-0.04
			c-0.051,0-0.101,0.013-0.151,0.034c-0.052,0.022-0.1,0.053-0.143,0.093l-0.06-0.108c0.055-0.045,0.115-0.081,0.181-0.105
			c0.062-0.025,0.125-0.038,0.19-0.038c0.1,0,0.18,0.023,0.24,0.069c0.061,0.047,0.09,0.108,0.09,0.187
			c0,0.092-0.062,0.204-0.19,0.336l-0.311,0.319H52.301z"/>
		<path fill="#6B6B6E" d="M52.885,39.636h0.143v0.462h0.59v-0.462h0.145v1.033h-0.145v-0.443h-0.59v0.443h-0.143V39.636z"/>
		<path fill="#6B6B6E" d="M54.256,40.471c0.05,0.054,0.125,0.081,0.216,0.081c0.093,0,0.162-0.027,0.215-0.081
			s0.08-0.128,0.08-0.223v-0.612h0.142v0.612c0,0.135-0.038,0.24-0.115,0.316c-0.078,0.076-0.187,0.115-0.321,0.115
			c-0.136,0-0.244-0.039-0.321-0.115c-0.078-0.076-0.115-0.182-0.115-0.316v-0.612h0.141v0.612
			C54.176,40.343,54.203,40.417,54.256,40.471z"/>
		<path fill="#6B6B6E" d="M55.181,39.636h0.167l0.379,0.728l0.373-0.728h0.171v1.033h-0.133v-0.825l-0.368,0.717h-0.087
			l-0.371-0.717v0.825h-0.131V39.636z"/>
		<path fill="#6B6B6E" d="M57.264,39.728c0.069,0.062,0.104,0.146,0.104,0.257c0,0.115-0.035,0.204-0.104,0.269
			c-0.07,0.063-0.171,0.095-0.299,0.095h-0.258v0.321h-0.14v-1.033h0.397C57.093,39.636,57.193,39.666,57.264,39.728z
			 M57.163,40.161c0.048-0.039,0.07-0.097,0.07-0.172c0-0.073-0.022-0.13-0.07-0.168s-0.116-0.058-0.205-0.058l-0.251,0.003v0.453
			h0.251C57.047,40.22,57.115,40.199,57.163,40.161z"/>
		<path fill="#6B6B6E" d="M58.245,39.705c0.063,0.046,0.091,0.108,0.091,0.188c0,0.062-0.016,0.109-0.05,0.15
			c-0.033,0.042-0.077,0.068-0.135,0.083c0.069,0.01,0.127,0.039,0.167,0.086c0.04,0.046,0.063,0.104,0.063,0.175
			c0,0.09-0.035,0.156-0.102,0.207c-0.067,0.05-0.157,0.074-0.275,0.074h-0.448v-1.033h0.441
			C58.103,39.636,58.186,39.659,58.245,39.705z M58.138,40.035c0.035-0.028,0.054-0.067,0.054-0.117
			c0-0.049-0.019-0.087-0.054-0.114c-0.035-0.026-0.084-0.037-0.147-0.037h-0.293v0.309h0.293
			C58.054,40.075,58.103,40.061,58.138,40.035z M58.171,40.496c0.042-0.029,0.064-0.072,0.064-0.126
			c0-0.053-0.022-0.094-0.064-0.122c-0.043-0.029-0.104-0.044-0.181-0.044h-0.293v0.336h0.293
			C58.067,40.541,58.128,40.525,58.171,40.496z"/>
		<path fill="#6B6B6E" d="M59.363,40.669l-0.109-0.251H58.71l-0.108,0.251h-0.15l0.461-1.033h0.146l0.457,1.033H59.363z
			 M58.765,40.29h0.434l-0.218-0.501L58.765,40.29z"/>
		<path fill="#6B6B6E" d="M60.278,39.788c-0.053-0.024-0.105-0.036-0.161-0.036c-0.074,0-0.14,0.02-0.202,0.055
			c-0.061,0.035-0.108,0.083-0.143,0.143c-0.035,0.062-0.053,0.128-0.053,0.201c0,0.07,0.018,0.138,0.053,0.198
			c0.034,0.062,0.082,0.109,0.143,0.146c0.062,0.034,0.128,0.052,0.202,0.052c0.053,0,0.106-0.011,0.159-0.033
			c0.052-0.023,0.098-0.053,0.14-0.091l0.085,0.093c-0.052,0.051-0.113,0.091-0.183,0.12c-0.068,0.028-0.138,0.044-0.208,0.044
			c-0.101,0-0.188-0.023-0.271-0.069c-0.083-0.049-0.146-0.11-0.193-0.192c-0.047-0.081-0.07-0.169-0.07-0.267
			c0-0.097,0.023-0.185,0.07-0.265s0.113-0.144,0.195-0.189c0.083-0.046,0.173-0.069,0.273-0.069c0.07,0,0.141,0.013,0.208,0.04
			c0.068,0.028,0.126,0.065,0.176,0.115l-0.083,0.101C60.376,39.843,60.33,39.812,60.278,39.788z"/>
		<path fill="#6B6B6E" d="M61.563,40.669h-0.171l-0.362-0.477l-0.19,0.207v0.27H60.7v-1.033h0.14v0.58l0.528-0.58h0.171
			l-0.411,0.446L61.563,40.669z"/>
		<path fill="#6B6B6E" d="M63.371,39.636h0.148l-0.352,1.033h-0.147l-0.266-0.853l-0.273,0.853h-0.146l-0.349-1.033h0.153
			l0.272,0.882l0.271-0.882h0.144l0.271,0.882L63.371,39.636z"/>
		<path fill="#6B6B6E" d="M63.671,39.636h0.142v0.462h0.591v-0.462h0.144v1.033h-0.144v-0.443h-0.591v0.443h-0.142V39.636z"/>
		<path fill="#6B6B6E" d="M65.609,40.669l-0.108-0.251h-0.546l-0.108,0.251h-0.147l0.458-1.033h0.148l0.456,1.033H65.609z
			 M65.01,40.29h0.436l-0.218-0.501L65.01,40.29z"/>
		<path fill="#6B6B6E" d="M65.913,39.636h0.142v0.905h0.451v0.128h-0.593V39.636z"/>
		<path fill="#6B6B6E" d="M66.688,39.636h0.716v0.128h-0.576v0.319h0.517v0.13h-0.517v0.328h0.594v0.128h-0.733V39.636z"/>
		<path fill="#6B6B6E" d="M68.491,39.783c-0.053-0.016-0.101-0.022-0.143-0.022c-0.061,0-0.108,0.011-0.144,0.034
			c-0.037,0.023-0.056,0.055-0.056,0.095c0,0.037,0.011,0.067,0.033,0.09s0.048,0.041,0.08,0.056
			c0.03,0.012,0.075,0.028,0.131,0.046c0.07,0.021,0.128,0.042,0.171,0.061c0.042,0.021,0.079,0.051,0.11,0.089
			c0.029,0.038,0.045,0.09,0.045,0.153c0,0.06-0.016,0.112-0.049,0.156c-0.031,0.043-0.074,0.078-0.132,0.102
			c-0.058,0.024-0.126,0.036-0.201,0.036s-0.148-0.015-0.22-0.044c-0.073-0.029-0.133-0.068-0.187-0.118l0.062-0.123
			c0.051,0.05,0.106,0.086,0.166,0.111c0.062,0.026,0.123,0.039,0.181,0.039c0.067,0,0.123-0.013,0.163-0.04
			c0.04-0.025,0.061-0.062,0.061-0.11c0-0.036-0.014-0.066-0.033-0.088c-0.022-0.026-0.05-0.043-0.083-0.057
			c-0.032-0.015-0.077-0.029-0.133-0.046c-0.07-0.021-0.126-0.041-0.168-0.062c-0.042-0.019-0.08-0.048-0.109-0.086
			c-0.03-0.039-0.046-0.091-0.046-0.153c0-0.054,0.016-0.104,0.046-0.146c0.029-0.041,0.074-0.074,0.127-0.097
			c0.058-0.022,0.12-0.033,0.193-0.033c0.062,0,0.123,0.009,0.184,0.027c0.058,0.018,0.111,0.041,0.157,0.073l-0.06,0.126
			C68.591,39.821,68.542,39.8,68.491,39.783z"/>
		<path fill="#6B6B6E" d="M68.945,39.636h0.143v1.033h-0.143V39.636z"/>
		<path fill="#6B6B6E" d="M70.095,40.164h0.129v0.379c-0.054,0.041-0.116,0.075-0.187,0.099c-0.067,0.026-0.138,0.038-0.208,0.038
			c-0.098,0-0.189-0.023-0.271-0.069c-0.083-0.049-0.147-0.11-0.195-0.192s-0.073-0.17-0.073-0.267s0.025-0.185,0.073-0.265
			s0.115-0.144,0.197-0.189c0.084-0.046,0.177-0.069,0.279-0.069c0.07,0,0.14,0.012,0.21,0.038c0.067,0.025,0.125,0.061,0.176,0.105
			l-0.08,0.103c-0.04-0.039-0.091-0.067-0.144-0.089c-0.052-0.021-0.107-0.033-0.162-0.033c-0.075,0-0.143,0.02-0.206,0.055
			c-0.062,0.035-0.109,0.083-0.145,0.144c-0.038,0.062-0.056,0.128-0.056,0.201s0.018,0.14,0.056,0.201
			c0.035,0.062,0.084,0.11,0.146,0.147c0.062,0.035,0.131,0.053,0.204,0.053c0.042,0,0.087-0.007,0.133-0.021
			c0.045-0.015,0.085-0.035,0.122-0.061V40.164z"/>
		<path fill="#6B6B6E" d="M70.491,39.636h0.141v0.462h0.592v-0.462h0.143v1.033h-0.143v-0.443h-0.592v0.443h-0.141V39.636z"/>
		<path fill="#6B6B6E" d="M71.528,39.636h0.808v0.131h-0.334v0.902H71.86v-0.902h-0.332V39.636z"/>
		<path fill="#6B6B6E" d="M72.499,39.636h0.14v1.033h-0.14V39.636z"/>
		<path fill="#6B6B6E" d="M73.669,39.636h0.14v1.033h-0.143l-0.592-0.8v0.8h-0.14v-1.033h0.144l0.591,0.803V39.636z"/>
		<path fill="#6B6B6E" d="M74.819,40.164h0.125v0.379c-0.052,0.041-0.113,0.075-0.183,0.099c-0.07,0.026-0.138,0.038-0.208,0.038
			c-0.098,0-0.19-0.023-0.273-0.069c-0.08-0.049-0.147-0.11-0.195-0.192s-0.07-0.17-0.07-0.267s0.022-0.185,0.073-0.265
			c0.047-0.08,0.112-0.144,0.197-0.189c0.083-0.046,0.176-0.069,0.275-0.069c0.073,0,0.144,0.012,0.211,0.038
			c0.068,0.025,0.128,0.061,0.179,0.105l-0.081,0.103c-0.043-0.039-0.09-0.067-0.143-0.089c-0.056-0.021-0.108-0.033-0.166-0.033
			c-0.071,0-0.14,0.02-0.202,0.055s-0.11,0.083-0.148,0.144c-0.035,0.062-0.052,0.128-0.052,0.201s0.017,0.14,0.055,0.201
			c0.035,0.062,0.085,0.11,0.147,0.147c0.061,0.035,0.129,0.053,0.204,0.053c0.042,0,0.087-0.007,0.129-0.021
			c0.046-0.015,0.089-0.035,0.126-0.061V40.164z"/>
		<path fill="#6B6B6E" d="M75.669,39.783c-0.053-0.016-0.1-0.022-0.144-0.022c-0.06,0-0.106,0.011-0.145,0.034
			c-0.035,0.023-0.053,0.055-0.053,0.095c0,0.037,0.011,0.067,0.032,0.09c0.021,0.022,0.048,0.041,0.078,0.056
			c0.033,0.012,0.078,0.028,0.133,0.046c0.069,0.021,0.127,0.042,0.171,0.061c0.042,0.021,0.08,0.051,0.109,0.089
			c0.03,0.038,0.046,0.09,0.046,0.153c0,0.06-0.016,0.112-0.048,0.156c-0.033,0.043-0.078,0.078-0.134,0.102
			c-0.058,0.024-0.124,0.036-0.199,0.036c-0.076,0-0.148-0.015-0.222-0.044c-0.072-0.029-0.132-0.068-0.185-0.118l0.062-0.123
			c0.05,0.05,0.105,0.086,0.166,0.111c0.062,0.026,0.122,0.039,0.18,0.039c0.067,0,0.122-0.013,0.162-0.04
			c0.04-0.025,0.062-0.062,0.062-0.11c0-0.036-0.013-0.066-0.033-0.088c-0.022-0.026-0.051-0.043-0.082-0.057
			c-0.033-0.015-0.078-0.029-0.133-0.046c-0.071-0.021-0.126-0.041-0.169-0.062c-0.044-0.019-0.08-0.048-0.11-0.086
			c-0.029-0.039-0.045-0.091-0.045-0.153c0-0.054,0.016-0.104,0.045-0.146c0.03-0.041,0.073-0.074,0.128-0.097
			c0.056-0.022,0.12-0.033,0.193-0.033c0.062,0,0.122,0.009,0.183,0.027c0.058,0.018,0.113,0.041,0.158,0.073l-0.061,0.126
			C75.77,39.821,75.719,39.8,75.669,39.783z"/>
	</g>
	<g>
		<path fill="#FFFFFF" d="M48.469,11.303h1.381v3.789h-0.518v-3.316h-0.863V11.303z"/>
		<path fill="#FFFFFF" d="M52.606,12.862c0.211,0.098,0.374,0.232,0.486,0.405c0.112,0.174,0.17,0.369,0.17,0.585
			c0,0.253-0.058,0.474-0.175,0.666c-0.118,0.19-0.283,0.339-0.501,0.443c-0.216,0.104-0.467,0.155-0.752,0.155
			c-0.224,0-0.459-0.037-0.704-0.115c-0.249-0.077-0.469-0.182-0.665-0.311l0.21-0.417c0.163,0.123,0.341,0.216,0.536,0.281
			s0.387,0.097,0.574,0.097c0.283,0,0.509-0.067,0.677-0.205c0.166-0.136,0.248-0.323,0.248-0.557c0-0.221-0.082-0.393-0.248-0.518
			c-0.168-0.124-0.403-0.187-0.709-0.187c-0.112,0-0.275,0.008-0.486,0.022c-0.213,0.013-0.386,0.032-0.516,0.053v-1.959h2.355
			v0.473h-1.866v0.963c0.167-0.016,0.381-0.022,0.631-0.022C52.15,12.716,52.396,12.765,52.606,12.862z"/>
	</g>
	<g>
		<path fill="#FFFFFF" d="M18.979,26.655c0.102,0.08,0.152,0.189,0.152,0.324c0,0.107-0.028,0.2-0.082,0.283
			c-0.057,0.082-0.133,0.146-0.234,0.191c-0.101,0.046-0.218,0.069-0.354,0.069c-0.108,0-0.215-0.017-0.326-0.049
			c-0.109-0.032-0.203-0.077-0.282-0.13l0.102-0.191c0.069,0.053,0.147,0.096,0.231,0.124c0.085,0.031,0.173,0.044,0.262,0.044
			c0.141,0,0.252-0.029,0.332-0.09c0.081-0.061,0.121-0.144,0.121-0.243c0-0.103-0.04-0.18-0.121-0.233
			c-0.08-0.054-0.194-0.08-0.34-0.08h-0.236v-0.15l0.528-0.521h-0.794l-0.001-0.213h1.105v0.151l-0.578,0.572l0.104,0.006
			C18.74,26.529,18.876,26.575,18.979,26.655z"/>
	</g>
</g>
</svg>
