<?xml version="1.0" encoding="utf-8"?>
<!-- Generator: Adobe Illustrator 16.0.4, SVG Export Plug-In . SVG Version: 6.00 Build 0)  -->
<!DOCTYPE svg PUBLIC "-//W3C//DTD SVG 1.1//EN" "http://www.w3.org/Graphics/SVG/1.1/DTD/svg11.dtd">
<svg version="1.1" id="Layer_1" xmlns="http://www.w3.org/2000/svg" xmlns:xlink="http://www.w3.org/1999/xlink" x="0px" y="0px"
	 width="134px" height="60.333px" viewBox="0 0 134 60.333" enable-background="new 0 0 134 60.333" xml:space="preserve">
<g>
	<path d="M24.461,3.123c0.145-0.324,0.469-0.539,0.828-0.539c0.36,0,0.684,0.215,0.828,0.576l8.747,24.296
		c0.108,0.288-0.108,0.612-0.433,0.612h-4.822c-0.396,0-0.721-0.252-0.865-0.612L24.605,14.93l-5.832,12.887
		c-0.144,0.324-0.467,0.54-0.827,0.54s-0.685-0.216-0.828-0.54L11.287,14.93l-4.14,12.526c-0.144,0.36-0.468,0.612-0.864,0.612H1.46
		c-0.323,0-0.54-0.324-0.432-0.612L9.775,3.16c0.144-0.361,0.468-0.576,0.791-0.576c0.361,0,0.721,0.215,0.865,0.539l6.515,14.111
		L24.461,3.123z"/>
	<path d="M50.166,17.486v9.935c0,0.359-0.288,0.647-0.648,0.647h-2.339c-0.396,0-0.756-0.216-0.899-0.576l-0.289-0.647
		c-1.08,1.008-2.807,1.584-4.391,1.584c-5.291,0-6.264-3.708-6.264-5.832c0-4.606,3.492-6.083,6.983-6.083
		c0.72,0,1.439,0.072,2.339,0.252c0-1.619-0.899-2.16-2.051-2.16c-1.26,0-2.809,0.576-4.031,1.08c-0.36,0.145-0.721,0-0.864-0.324
		l-1.332-2.986c-0.144-0.361,0-0.756,0.323-0.9c2.16-1.044,4.104-1.62,6.695-1.729C49.662,9.746,50.166,13.778,50.166,17.486z
		 M44.658,21.085c-0.504-0.144-1.151-0.288-1.691-0.288c-1.188,0-2.375,0.288-2.375,1.584c0,0.756,0.756,1.152,1.619,1.152
		c1.08,0,2.052-0.504,2.447-1.08V21.085z"/>
	<path d="M66.581,22.669c0,3.384-2.915,5.688-6.875,5.688c-2.483,0-4.499-0.576-6.911-1.944c-0.323-0.18-0.432-0.575-0.288-0.899
		l1.656-3.168c0.144-0.323,0.54-0.432,0.864-0.288c1.691,0.792,3.275,1.296,4.499,1.296c0.72,0,1.476-0.216,1.476-0.72
		c0-0.684-0.828-0.756-2.411-1.224c-2.412-0.72-5.76-1.944-5.76-5.867c0-3.6,2.556-5.759,6.264-5.759
		c0.899,0,3.348,0.107,6.623,1.583c0.324,0.144,0.468,0.54,0.324,0.899l-1.44,3.204c-0.144,0.324-0.504,0.468-0.863,0.324
		c-1.116-0.433-3.204-1.151-4.464-1.151c-0.756,0-1.008,0.323-1.008,0.647c0,0.792,1.872,1.188,3.852,1.944
		C64.277,18.062,66.581,19.321,66.581,22.669z"/>
	<path d="M82.277,22.669c0,3.384-2.915,5.688-6.875,5.688c-2.483,0-4.499-0.576-6.911-1.944c-0.323-0.18-0.432-0.575-0.288-0.899
		l1.656-3.168c0.144-0.323,0.54-0.432,0.864-0.288c1.691,0.792,3.275,1.296,4.499,1.296c0.72,0,1.476-0.216,1.476-0.72
		c0-0.684-0.828-0.756-2.411-1.224c-2.412-0.72-5.76-1.944-5.76-5.867c0-3.6,2.556-5.759,6.264-5.759
		c0.899,0,3.348,0.107,6.623,1.583c0.324,0.144,0.468,0.54,0.324,0.899l-1.44,3.204c-0.144,0.324-0.504,0.468-0.863,0.324
		c-1.116-0.433-3.204-1.151-4.464-1.151c-0.756,0-1.008,0.323-1.008,0.647c0,0.792,1.872,1.188,3.852,1.944
		C79.974,18.062,82.277,19.321,82.277,22.669z"/>
	<path d="M87.246,1c1.62,0,2.88,1.295,2.88,2.916c0,1.655-1.26,2.879-2.88,2.879c-1.655,0-2.915-1.224-2.915-2.879
		C84.331,2.295,85.591,1,87.246,1z M89.946,27.421c0,0.359-0.288,0.647-0.648,0.647h-4.175c-0.36,0-0.648-0.288-0.648-0.647V10.719
		c0-0.36,0.288-0.648,0.648-0.648h4.175c0.36,0,0.648,0.288,0.648,0.648V27.421z"/>
	<path d="M103.59,10.683c0.144-0.36,0.504-0.612,0.899-0.612h4.788c0.288,0,0.504,0.324,0.359,0.576l-8.53,17.313
		c-0.145,0.288-0.396,0.433-0.685,0.433s-0.54-0.181-0.684-0.433l-8.351-17.313c-0.145-0.252,0.071-0.576,0.359-0.576h4.716
		c0.396,0,0.756,0.252,0.899,0.612l3.132,7.451L103.59,10.683z"/>
	<path d="M114.678,20.258c0.36,1.547,1.368,2.951,3.24,2.951c1.151,0,2.483-0.288,3.779-1.08c0.288-0.18,0.72-0.107,0.899,0.18
		l1.872,2.736c0.216,0.324,0.144,0.72-0.145,0.936c-2.123,1.656-3.959,2.304-6.406,2.304c-6.876,0-8.999-5.363-8.999-9.251
		c0-3.779,2.123-9.215,8.999-9.215c4.823,0,7.522,3.096,7.522,7.812c0,0.575-0.072,1.296-0.144,1.979
		c-0.072,0.396-0.396,0.648-0.756,0.648H114.678z M114.822,17.126h5.146c-0.107-1.152-0.611-2.269-2.051-2.304
		C116.046,14.822,115.182,15.83,114.822,17.126z"/>
	<path d="M130.122,21.985c1.729,0,3.132,1.403,3.132,3.167c0,1.729-1.403,3.132-3.132,3.132c-1.691,0-3.167-1.403-3.167-3.132
		C126.955,23.389,128.431,21.985,130.122,21.985z"/>
</g>
<g>
	<path d="M13.879,49.537c-0.36,0-0.648-0.287-0.648-0.647v-3.995c0-0.36,0.288-0.648,0.648-0.648h9.287
		c0.359,0,0.647,0.288,0.647,0.648v8.963c0,0.432-0.181,0.827-0.468,1.115c-2.376,2.195-5.22,3.42-8.928,3.42
		c-9.574,0-12.525-7.559-12.525-12.959c0-5.255,2.951-12.922,12.525-12.922c3.852,0,6.695,1.512,9.144,3.924
		c0.252,0.252,0.252,0.684,0,0.936l-2.7,2.951c-0.252,0.252-0.647,0.252-0.899,0.036c-1.512-1.331-3.78-2.411-5.544-2.411
		c-5.83,0-6.658,5.543-6.658,7.414c0,1.873,0.828,7.703,6.658,7.703c1.225,0,2.772-0.432,3.6-1.043v-2.484H13.879z"/>
	<path d="M35.946,40.719c0-0.36,0.288-0.648,0.647-0.648h4.176c0.36,0,0.648,0.288,0.648,0.648V57.42
		c0,0.36-0.288,0.648-0.648,0.648h-2.268c-0.396,0-0.756-0.216-0.972-0.576l-0.288-0.539c-1.115,0.899-2.771,1.403-4.14,1.403
		c-6.911,0-7.774-4.788-7.774-8.999v-8.639c0-0.36,0.287-0.648,0.647-0.648h4.247c0.36,0,0.648,0.288,0.648,0.648v8.639
		c0,1.656,0.072,3.996,2.412,3.996c1.223,0,2.195-0.541,2.663-1.188V40.719z"/>
	<path d="M47.107,31c1.619,0,2.88,1.295,2.88,2.916c0,1.655-1.261,2.879-2.88,2.879c-1.656,0-2.916-1.224-2.916-2.879
		C44.191,32.295,45.451,31,47.107,31z M49.807,57.42c0,0.36-0.287,0.648-0.647,0.648h-4.176c-0.36,0-0.647-0.288-0.647-0.648V40.719
		c0-0.36,0.287-0.648,0.647-0.648h4.176c0.36,0,0.647,0.288,0.647,0.648V57.42z"/>
	<path d="M63.307,33.52c0-0.359,0.288-0.648,0.647-0.648h4.176c0.359,0,0.647,0.289,0.647,0.648v23.9
		c0,0.36-0.288,0.648-0.647,0.648h-2.376c-0.396,0-0.756-0.216-0.899-0.611l-0.252-0.576c-1.692,1.295-3.636,1.619-5.508,1.439
		c-5.759-0.611-7.415-5.651-7.415-9.251c0-3.563,1.296-8.243,6.803-9.143c1.548-0.181,3.528-0.108,4.824,0.756V33.52z
		 M63.307,52.309v-6.91c-0.648-0.396-1.729-0.648-2.376-0.648c-3.384,0-3.815,2.771-3.815,4.319c0,1.224,0.359,4.284,3.527,4.284
		C61.83,53.354,62.874,52.85,63.307,52.309z"/>
	<path d="M76.051,50.258c0.36,1.547,1.368,2.951,3.24,2.951c1.151,0,2.483-0.288,3.779-1.08c0.288-0.18,0.72-0.107,0.899,0.18
		l1.872,2.736c0.216,0.324,0.144,0.72-0.145,0.936c-2.123,1.656-3.959,2.304-6.406,2.304c-6.876,0-8.999-5.363-8.999-9.251
		c0-3.779,2.123-9.215,8.999-9.215c4.823,0,7.522,3.096,7.522,7.812c0,0.575-0.072,1.296-0.144,1.979
		c-0.072,0.396-0.396,0.648-0.756,0.648H76.051z M76.195,47.126h5.146c-0.107-1.152-0.611-2.269-2.051-2.304
		C77.419,44.822,76.555,45.83,76.195,47.126z"/>
</g>
</svg>
