<?xml version="1.0" encoding="utf-8"?>
<!-- Generator: Adobe Illustrator 16.0.4, SVG Export Plug-In . SVG Version: 6.00 Build 0)  -->
<!DOCTYPE svg PUBLIC "-//W3C//DTD SVG 1.1//EN" "http://www.w3.org/Graphics/SVG/1.1/DTD/svg11.dtd">
<svg version="1.1" id="HRF-WHITE" xmlns="http://www.w3.org/2000/svg" xmlns:xlink="http://www.w3.org/1999/xlink" x="0px" y="0px"
	 width="95.812px" height="44.667px" viewBox="0 0 95.812 44.667" enable-background="new 0 0 95.812 44.667" xml:space="preserve">
<g>
	<g>
		<path fill="#FFFFFF" d="M9.423,13.769H7.436c-0.148,0-0.211-0.064-0.211-0.211V8.335c0-0.148-0.063-0.211-0.211-0.211H3.081
			c-0.148,0-0.211,0.063-0.211,0.211v5.222c0,0.147-0.063,0.211-0.212,0.211H0.648c-0.147,0-0.211-0.064-0.211-0.211V0.66
			c0-0.147,0.063-0.211,0.211-0.211h2.009c0.127,0,0.212,0.063,0.212,0.211v5.032c0,0.148,0.063,0.211,0.211,0.211h3.933
			c0.148,0,0.211-0.062,0.211-0.211V0.66c0-0.147,0.063-0.211,0.211-0.211h1.988c0.147,0,0.211,0.063,0.211,0.211v12.897
			C9.635,13.705,9.571,13.769,9.423,13.769z"/>
	</g>
	<g>
		<path fill="#FFFFFF" d="M16.107,13.981h-1.036c-2.389,0-3.932-1.501-3.932-3.743V0.66c0-0.147,0.064-0.211,0.211-0.211h1.987
			c0.126,0,0.211,0.063,0.211,0.211v9.578c0,0.845,0.676,1.522,1.522,1.522h1.036c0.846,0,1.501-0.655,1.501-1.522V0.66
			c0-0.147,0.063-0.211,0.211-0.211h2.009c0.148,0,0.211,0.063,0.211,0.211v9.578C20.04,12.479,18.476,13.981,16.107,13.981z"/>
	</g>
	<g>
		<path fill="#FFFFFF" d="M26.903,13.769h-4.757c-0.148,0-0.211-0.064-0.211-0.211V0.66c0-0.147,0.063-0.211,0.211-0.211h4.757
			c2.411,0,3.932,1.521,3.932,3.933v5.455C30.835,12.247,29.314,13.769,26.903,13.769z M28.426,4.191
			c0-0.824-0.698-1.521-1.522-1.521h-2.326c-0.147,0-0.211,0.063-0.211,0.211v8.457c0,0.147,0.064,0.211,0.211,0.211h2.326
			c0.846,0,1.522-0.677,1.522-1.522V4.191z"/>
	</g>
	<g>
		<path fill="#FFFFFF" d="M34.568,3.98c0,0.994,0.972,1.29,2.453,1.967c2.262,1.035,3.319,2.198,3.319,4.292
			c0,2.241-1.542,3.743-3.932,3.743h-0.846c-1.205,0-2.115-0.338-2.749-0.994c-0.698-0.719-0.973-1.332-0.973-1.543
			c0-0.042,0.042-0.105,0.126-0.148l1.839-0.909c0.043-0.021,0.064-0.021,0.106-0.021c0.148,0,0.19,0.211,0.402,0.634
			c0.232,0.444,0.76,0.761,1.248,0.761h0.846c0.824,0,1.521-0.677,1.521-1.522c0-1.057-0.888-1.438-2.262-2.093
			c-2.325-1.121-3.509-2.072-3.509-4.165c0-2.241,1.564-3.742,3.933-3.742h0.317c0.973,0,1.733,0.211,2.41,0.698
			c0.824,0.592,1.353,1.543,1.353,1.797c0,0.084-0.042,0.126-0.126,0.169l-1.839,0.909c-0.042,0.021-0.084,0.021-0.105,0.021
			c-0.106,0-0.148-0.126-0.275-0.317c-0.401-0.677-0.761-1.058-1.416-1.058H36.09C35.266,2.458,34.568,3.113,34.568,3.98z"/>
	</g>
	<g>
		<path fill="#FFFFFF" d="M46.769,13.981h-1.036c-2.39,0-3.933-1.501-3.933-3.743V3.98c0-2.241,1.564-3.742,3.933-3.742h1.036
			c2.367,0,3.932,1.501,3.932,3.742v6.258C50.7,12.479,49.136,13.981,46.769,13.981z M48.27,3.98c0-0.867-0.655-1.522-1.501-1.522
			h-1.036c-0.846,0-1.522,0.677-1.522,1.522v6.258c0,0.845,0.676,1.522,1.522,1.522h1.036c0.846,0,1.501-0.655,1.501-1.522V3.98z"/>
	</g>
	<g>
		<path fill="#FFFFFF" d="M61.158,13.769h-1.755l-0.189-0.105l-4.336-8.5l0.107,8.394c0,0.147-0.064,0.211-0.211,0.211h-1.967
			c-0.148,0-0.212-0.064-0.212-0.211V0.66c0-0.147,0.063-0.211,0.212-0.211h1.774l0.192,0.105l4.312,8.583L59.001,0.66
			c0-0.147,0.064-0.211,0.213-0.211h1.944c0.127,0,0.212,0.063,0.212,0.211v12.897C61.37,13.705,61.305,13.769,61.158,13.769z"/>
	</g>
	<g opacity="0.7">
		<path fill="#FFFFFF" d="M17.629,28.721c0,0.105-0.063,0.169-0.211,0.169h-2.179c-0.063,0-0.126-0.042-0.19-0.148l-1.861-5.37
			l-0.168-0.127h-1.881c-0.148,0-0.212,0.063-0.212,0.211v5.223c0,0.148-0.064,0.212-0.211,0.212H8.707
			c-0.148,0-0.211-0.064-0.211-0.212V15.781c0-0.148,0.063-0.212,0.211-0.212h4.757c2.41,0,3.932,1.522,3.932,3.933v0.211
			c0,0.994-0.507,1.797-0.93,2.263c-0.38,0.358-0.867,0.613-0.867,0.803V22.8l2.008,5.814
			C17.629,28.657,17.629,28.699,17.629,28.721z M14.986,19.312c0-0.825-0.698-1.522-1.522-1.522h-2.325
			c-0.148,0-0.212,0.063-0.212,0.211v2.812c0,0.148,0.063,0.212,0.212,0.212h2.325c0.825,0,1.522-0.677,1.522-1.522V19.312z"/>
	</g>
	<g opacity="0.7">
		<path fill="#FFFFFF" d="M21.215,28.89h-2.008c-0.147,0-0.212-0.064-0.212-0.212V15.781c0-0.148,0.065-0.212,0.212-0.212h2.008
			c0.128,0,0.212,0.064,0.212,0.212v12.896C21.427,28.826,21.363,28.89,21.215,28.89z"/>
	</g>
	<g opacity="0.7">
		<path fill="#FFFFFF" d="M28.348,28.741c-0.021,0.106-0.105,0.148-0.211,0.148h-1.522c-0.105,0-0.169-0.042-0.211-0.148
			L22.47,15.844c0-0.021-0.021-0.063-0.021-0.084c0-0.126,0.085-0.19,0.233-0.19h2.114c0.127,0,0.19,0.042,0.212,0.148l2.41,8.584
			l2.305-8.584c0.021-0.106,0.085-0.148,0.211-0.148h2.136c0.147,0,0.232,0.064,0.232,0.19c0,0.021-0.022,0.063-0.022,0.084
			L28.348,28.741z"/>
	</g>
	<g opacity="0.7">
		<path fill="#FFFFFF" d="M40.836,28.89h-7.463c-0.148,0-0.212-0.064-0.212-0.212V15.781c0-0.148,0.064-0.212,0.212-0.212h7.463
			c0.127,0,0.211,0.064,0.211,0.212v1.797c0,0.147-0.063,0.211-0.211,0.211h-5.032c-0.148,0-0.212,0.063-0.212,0.211v2.812
			c0,0.148,0.064,0.212,0.212,0.212h4.123c0.148,0,0.211,0.063,0.211,0.211v1.798c0,0.148-0.063,0.211-0.211,0.211h-4.123
			c-0.148,0-0.212,0.063-0.212,0.211v3.002c0,0.148,0.064,0.211,0.212,0.211h5.032c0.127,0,0.211,0.064,0.211,0.213v1.796
			C41.048,28.826,40.985,28.89,40.836,28.89z"/>
	</g>
	<g opacity="0.7">
		<path fill="#FFFFFF" d="M51.762,28.721c0,0.105-0.064,0.169-0.212,0.169h-2.177c-0.064,0-0.127-0.042-0.19-0.148l-1.861-5.37
			l-0.168-0.127h-1.882c-0.148,0-0.212,0.063-0.212,0.211v5.223c0,0.148-0.063,0.212-0.212,0.212h-2.008
			c-0.147,0-0.211-0.064-0.211-0.212V15.781c0-0.148,0.063-0.212,0.211-0.212h4.758c2.41,0,3.933,1.522,3.933,3.933v0.211
			c0,0.994-0.509,1.797-0.932,2.263c-0.38,0.358-0.866,0.613-0.866,0.803V22.8l2.007,5.814
			C51.762,28.657,51.762,28.699,51.762,28.721z M49.119,19.312c0-0.825-0.698-1.522-1.521-1.522h-2.326
			c-0.148,0-0.212,0.063-0.212,0.211v2.812c0,0.148,0.063,0.212,0.212,0.212h2.326c0.823,0,1.521-0.677,1.521-1.522V19.312z"/>
	</g>
	<g opacity="0.3">
		<path fill="#FFFFFF" d="M11.435,32.91H6.402c-0.148,0-0.211,0.062-0.211,0.212v2.812c0,0.147,0.063,0.211,0.211,0.211h4.123
			c0.147,0,0.211,0.063,0.211,0.211v1.797c0,0.148-0.064,0.211-0.211,0.211H6.402c-0.148,0-0.211,0.064-0.211,0.211v5.225
			c0,0.146-0.064,0.211-0.212,0.211H3.97c-0.147,0-0.211-0.064-0.211-0.211V30.901c0-0.148,0.064-0.211,0.211-0.211h7.464
			c0.126,0,0.211,0.062,0.211,0.211v1.797C11.646,32.846,11.582,32.91,11.435,32.91z"/>
	</g>
	<g opacity="0.3">
		<path fill="#FFFFFF" d="M16.947,44.223h-1.036c-2.389,0-3.933-1.502-3.933-3.742v-6.26c0-2.241,1.564-3.742,3.933-3.742h1.036
			c2.368,0,3.932,1.501,3.932,3.742v6.26C20.879,42.721,19.315,44.223,16.947,44.223z M18.449,34.221
			c0-0.867-0.656-1.522-1.502-1.522h-1.036c-0.846,0-1.522,0.676-1.522,1.522v6.26c0,0.846,0.677,1.52,1.522,1.52h1.036
			c0.846,0,1.502-0.654,1.502-1.52V34.221z"/>
		<path fill="#FFFFFF" d="M27.454,44.223h-1.037c-2.388,0-3.932-1.502-3.932-3.742v-9.579c0-0.148,0.062-0.211,0.21-0.211h1.989
			c0.126,0,0.211,0.062,0.211,0.211v9.579c0,0.846,0.677,1.52,1.521,1.52h1.037c0.845,0,1.501-0.654,1.501-1.52v-9.579
			c0-0.148,0.063-0.211,0.211-0.211h2.008c0.148,0,0.211,0.062,0.211,0.211v9.579C31.386,42.721,29.821,44.223,27.454,44.223z"/>
		<path fill="#FFFFFF" d="M41.851,44.01h-1.755l-0.19-0.105l-4.334-8.5l0.105,8.395c0,0.146-0.063,0.211-0.211,0.211H33.5
			c-0.148,0-0.211-0.064-0.211-0.211V30.901c0-0.148,0.063-0.211,0.211-0.211h1.776l0.19,0.105l4.313,8.585l-0.085-8.479
			c0-0.148,0.063-0.211,0.211-0.211h1.945c0.127,0,0.212,0.062,0.212,0.211v12.897C42.062,43.945,41.999,44.01,41.851,44.01z"/>
		<path fill="#FFFFFF" d="M49.249,44.01h-4.757c-0.148,0-0.211-0.064-0.211-0.211V30.901c0-0.148,0.063-0.211,0.211-0.211h4.757
			c2.41,0,3.933,1.522,3.933,3.932v5.456C53.182,42.486,51.659,44.01,49.249,44.01z M50.772,34.432c0-0.825-0.699-1.522-1.523-1.522
			h-2.326c-0.147,0-0.212,0.062-0.212,0.212v8.457c0,0.148,0.064,0.211,0.212,0.211h2.326c0.844,0,1.523-0.676,1.523-1.521V34.432z"
			/>
	</g>
	<g opacity="0.3">
		<path fill="#FFFFFF" d="M63.333,43.82c0,0.125-0.085,0.189-0.231,0.189h-2.136c-0.126,0-0.192-0.043-0.212-0.146l-0.636-2.223
			c-0.021-0.105-0.082-0.125-0.21-0.125h-3.023c-0.127,0-0.189,0.02-0.211,0.125l-0.634,2.223c-0.022,0.104-0.106,0.146-0.213,0.146
			h-2.113c-0.146,0-0.233-0.064-0.233-0.189c0-0.021,0.021-0.045,0.021-0.086l3.933-12.897c0.042-0.106,0.084-0.147,0.212-0.147
			h1.521c0.107,0,0.17,0.041,0.214,0.147l3.932,12.897C63.312,43.775,63.333,43.799,63.333,43.82z M58.682,36.229
			c-0.021-0.127-0.105-0.507-0.231-1.163h-0.063c-0.148,0.656-0.234,1.036-0.255,1.163l-0.718,2.79c0,0.021-0.021,0.064-0.021,0.084
			c0,0.127,0.083,0.191,0.231,0.191h1.542c0.15,0,0.233-0.064,0.233-0.191c0-0.02-0.02-0.062-0.02-0.084L58.682,36.229z"/>
	</g>
	<g opacity="0.3">
		<path fill="#FFFFFF" d="M70.069,32.91h-2.305c-0.146,0-0.21,0.062-0.21,0.212v10.677c0,0.146-0.064,0.211-0.212,0.211h-1.988
			c-0.146,0-0.21-0.064-0.21-0.211V33.122c0-0.149-0.064-0.212-0.213-0.212h-2.303c-0.149,0-0.212-0.063-0.212-0.211v-1.797
			c0-0.148,0.062-0.211,0.212-0.211h7.44c0.128,0,0.213,0.062,0.213,0.211v1.797C70.282,32.846,70.219,32.91,70.069,32.91z"/>
	</g>
	<g opacity="0.3">
		<path fill="#FFFFFF" d="M73.716,44.01h-2.008c-0.149,0-0.213-0.064-0.213-0.211V30.901c0-0.148,0.063-0.211,0.213-0.211h2.008
			c0.127,0,0.212,0.062,0.212,0.211v12.897C73.928,43.945,73.865,44.01,73.716,44.01z"/>
		<path fill="#FFFFFF" d="M80.587,44.223h-1.036c-2.389,0-3.933-1.502-3.933-3.742v-6.26c0-2.241,1.564-3.742,3.933-3.742h1.036
			c2.367,0,3.933,1.501,3.933,3.742v6.26C84.52,42.721,82.954,44.223,80.587,44.223z M82.088,34.221
			c0-0.867-0.656-1.522-1.501-1.522h-1.036c-0.846,0-1.522,0.676-1.522,1.522v6.26c0,0.846,0.677,1.52,1.522,1.52h1.036
			c0.845,0,1.501-0.654,1.501-1.52V34.221z"/>
	</g>
	<g opacity="0.3">
		<path fill="#FFFFFF" d="M94.757,44.01h-1.754l-0.19-0.105l-4.333-8.5l0.105,8.395c0,0.146-0.063,0.211-0.211,0.211h-1.967
			c-0.147,0-0.212-0.064-0.212-0.211V30.901c0-0.148,0.064-0.211,0.212-0.211h1.775l0.191,0.105l4.312,8.585l-0.085-8.479
			c0-0.148,0.064-0.211,0.211-0.211h1.944c0.129,0,0.213,0.062,0.213,0.211v12.897C94.97,43.945,94.906,44.01,94.757,44.01z"/>
	</g>
</g>
</svg>
