<?xml version="1.0" encoding="utf-8"?>
<!-- Generator: Adobe Illustrator 16.0.4, SVG Export Plug-In . SVG Version: 6.00 Build 0)  -->
<!DOCTYPE svg PUBLIC "-//W3C//DTD SVG 1.1//EN" "http://www.w3.org/Graphics/SVG/1.1/DTD/svg11.dtd">
<svg version="1.1" id="HEP" xmlns="http://www.w3.org/2000/svg" xmlns:xlink="http://www.w3.org/1999/xlink" x="0px" y="0px"
	 width="100px" height="59.5px" viewBox="0 0 100 59.5" enable-background="new 0 0 100 59.5" xml:space="preserve">
<g>
	<g>
		<g opacity="0.3">
			<path fill="#79BB43" d="M26.066,13.557h-1.754l-0.191-0.105l-4.334-8.5l0.106,8.394c0,0.147-0.063,0.211-0.212,0.211h-1.965
				c-0.148,0-0.212-0.063-0.212-0.211V0.449c0-0.148,0.064-0.211,0.212-0.211h1.775l0.19,0.106l4.313,8.583l-0.085-8.478
				c0-0.148,0.063-0.211,0.211-0.211h1.945c0.127,0,0.212,0.063,0.212,0.211v12.897C26.278,13.494,26.214,13.557,26.066,13.557z"/>
		</g>
	</g>
	<g>
		<g opacity="0.3">
			<path fill="#79BB43" d="M33.382,7.49v5.856c0,0.147-0.064,0.211-0.211,0.211h-2.009c-0.148,0-0.211-0.063-0.211-0.211V7.49
				l-3.7-6.935c-0.021-0.062-0.043-0.105-0.043-0.147c0-0.107,0.085-0.17,0.233-0.17h2.347l0.19,0.126l2.009,4.144
				c0.042,0.106,0.127,0.148,0.19,0.148c0.063,0,0.148-0.042,0.189-0.148l2.009-4.144l0.191-0.126h2.325
				c0.148,0,0.233,0.063,0.233,0.17c0,0.042-0.021,0.084-0.042,0.147L33.382,7.49z"/>
		</g>
	</g>
	<g>
		<g opacity="0.3">
			<path fill="#79BB43" d="M38.35,13.431c-0.021,0.042-0.084,0.105-0.19,0.126h-1.332c-0.147,0-0.232-0.063-0.232-0.168
				c0-0.043,0.021-0.085,0.042-0.127l5.518-12.897c0.021-0.042,0.084-0.085,0.19-0.126h1.333c0.147,0,0.232,0.063,0.232,0.17
				c0,0.042-0.021,0.084-0.042,0.126L38.35,13.431z"/>
		</g>
	</g>
	<g>
		<g opacity="0.3">
			<path fill="#79BB43" d="M53.595,13.557H51.84l-0.19-0.105l-4.333-8.5l0.104,8.394c0,0.147-0.062,0.211-0.21,0.211h-1.967
				c-0.147,0-0.211-0.063-0.211-0.211V0.449c0-0.148,0.063-0.211,0.211-0.211h1.777l0.19,0.106l4.312,8.583l-0.084-8.478
				c0-0.148,0.064-0.211,0.212-0.211h1.945c0.125,0,0.212,0.063,0.212,0.211v12.897C53.807,13.494,53.742,13.557,53.595,13.557z"/>
		</g>
	</g>
	<g>
		<g opacity="0.3">
			<path fill="#79BB43" d="M61.766,12.627c-0.697,0.762-1.649,1.142-2.77,1.142c-0.528,0-1.059-0.126-1.777-0.38
				c-1.268-0.719-2.009-1.649-2.009-2.136c0-0.085,0.022-0.148,0.128-0.19l1.881-0.888c0.043-0.021,0.085-0.042,0.106-0.042
				c0.127,0,0.169,0.148,0.297,0.402c0.336,0.676,0.719,1.015,1.374,1.015c0.866,0,1.501-0.677,1.501-1.522V0.449
				c0-0.148,0.062-0.211,0.212-0.211h2.007c0.128,0,0.212,0.063,0.212,0.211v9.366C62.928,10.83,62.526,11.824,61.766,12.627z"/>
		</g>
	</g>
	<g>
		<path fill="#79BB43" d="M16.96,28.678h-1.987c-0.147,0-0.212-0.063-0.212-0.211v-5.223c0-0.148-0.062-0.211-0.21-0.211h-3.932
			c-0.149,0-0.211,0.063-0.211,0.211v5.223c0,0.147-0.064,0.211-0.212,0.211H8.186c-0.148,0-0.211-0.063-0.211-0.211V15.569
			c0-0.148,0.063-0.211,0.211-0.211h2.008c0.127,0,0.212,0.063,0.212,0.211v5.032c0,0.148,0.062,0.211,0.211,0.211h3.932
			c0.148,0,0.21-0.063,0.21-0.211v-5.032c0-0.148,0.065-0.211,0.212-0.211h1.987c0.147,0,0.211,0.063,0.211,0.211v12.897
			C17.172,28.614,17.108,28.678,16.96,28.678z"/>
	</g>
	<g>
		<path fill="#79BB43" d="M28.125,28.487c0,0.127-0.084,0.19-0.232,0.19h-2.135c-0.127,0-0.191-0.042-0.211-0.148l-0.635-2.22
			c-0.021-0.105-0.084-0.127-0.211-0.127h-3.023c-0.127,0-0.19,0.021-0.212,0.127l-0.634,2.22c-0.021,0.106-0.105,0.148-0.211,0.148
			h-2.115c-0.147,0-0.232-0.063-0.232-0.19c0-0.021,0.021-0.042,0.021-0.084l3.934-12.897c0.042-0.105,0.084-0.147,0.211-0.147
			h1.522c0.105,0,0.169,0.042,0.21,0.147l3.933,12.897C28.104,28.445,28.125,28.467,28.125,28.487z M23.474,20.898
			c-0.021-0.127-0.105-0.508-0.232-1.164h-0.063c-0.148,0.656-0.233,1.037-0.253,1.164l-0.72,2.791c0,0.021-0.021,0.062-0.021,0.085
			c0,0.126,0.085,0.19,0.232,0.19h1.544c0.147,0,0.232-0.064,0.232-0.19c0-0.022-0.021-0.064-0.021-0.085L23.474,20.898z"/>
	</g>
	<g>
		<path fill="#79BB43" d="M37.978,28.509c0,0.105-0.064,0.169-0.212,0.169h-2.177c-0.064,0-0.127-0.042-0.191-0.148l-1.86-5.37
			l-0.169-0.126h-1.882c-0.148,0-0.211,0.063-0.211,0.211v5.223c0,0.147-0.064,0.211-0.212,0.211h-2.008
			c-0.148,0-0.21-0.063-0.21-0.211V15.569c0-0.148,0.062-0.211,0.21-0.211h4.757c2.411,0,3.933,1.521,3.933,3.933v0.211
			c0,0.994-0.508,1.796-0.93,2.262c-0.381,0.36-0.867,0.614-0.867,0.805v0.021l2.008,5.814
			C37.978,28.445,37.978,28.487,37.978,28.509z M35.334,19.1c0-0.824-0.698-1.522-1.522-1.522h-2.326
			c-0.148,0-0.211,0.063-0.211,0.211v2.812c0,0.148,0.062,0.211,0.211,0.211h2.326c0.824,0,1.522-0.676,1.522-1.521V19.1z"/>
	</g>
	<g>
		<path fill="#79BB43" d="M43.892,28.678h-4.757c-0.148,0-0.211-0.063-0.211-0.211V15.569c0-0.148,0.063-0.211,0.211-0.211h4.757
			c2.411,0,3.933,1.521,3.933,3.933v0.211c0,0.486-0.17,1.036-0.465,1.437c-0.444,0.593-0.74,0.911-0.74,0.994
			c0,0.085,0.296,0.381,0.698,0.952c0.317,0.465,0.507,1.079,0.507,1.586v0.317C47.825,27.177,46.323,28.678,43.892,28.678z
			 M45.414,19.1c0-0.824-0.697-1.522-1.522-1.522h-2.325c-0.148,0-0.212,0.063-0.212,0.211v2.812c0,0.148,0.063,0.211,0.212,0.211
			h2.325c0.825,0,1.522-0.676,1.522-1.521V19.1z M45.414,24.534c0-0.845-0.655-1.5-1.522-1.5h-2.325
			c-0.148,0-0.212,0.063-0.212,0.211v3.002c0,0.148,0.063,0.211,0.212,0.211h2.325c0.846,0,1.522-0.676,1.522-1.522V24.534z"/>
	</g>
	<g>
		<path fill="#79BB43" d="M53.676,28.89h-1.034c-2.39,0-3.934-1.501-3.934-3.743v-6.257c0-2.242,1.565-3.742,3.934-3.742h1.034
			c2.369,0,3.934,1.5,3.934,3.742v6.257C57.609,27.388,56.045,28.89,53.676,28.89z M55.179,18.889c0-0.867-0.656-1.522-1.503-1.522
			h-1.034c-0.847,0-1.523,0.676-1.523,1.522v6.257c0,0.846,0.677,1.522,1.523,1.522h1.034c0.847,0,1.503-0.655,1.503-1.522V18.889z"
			/>
	</g>
	<g>
		<path fill="#79BB43" d="M67.798,28.509c0,0.105-0.063,0.169-0.212,0.169h-2.177c-0.064,0-0.127-0.042-0.19-0.148l-1.86-5.37
			l-0.17-0.126h-1.881c-0.149,0-0.213,0.063-0.213,0.211v5.223c0,0.147-0.062,0.211-0.211,0.211h-2.007
			c-0.149,0-0.213-0.063-0.213-0.211V15.569c0-0.148,0.063-0.211,0.213-0.211h4.756c2.41,0,3.932,1.521,3.932,3.933v0.211
			c0,0.994-0.506,1.796-0.929,2.262c-0.381,0.36-0.867,0.614-0.867,0.805v0.021l2.008,5.814
			C67.798,28.445,67.798,28.487,67.798,28.509z M65.154,19.1c0-0.824-0.697-1.522-1.521-1.522h-2.325
			c-0.149,0-0.213,0.063-0.213,0.211v2.812c0,0.148,0.063,0.211,0.213,0.211h2.325c0.824,0,1.521-0.676,1.521-1.521V19.1z"/>
	</g>
	<g>
		<g opacity="0.7">
			<path fill="#79BB43" d="M11.422,44.01c-0.718,0-1.522-0.254-2.325-0.738C8.526,42.91,8.23,42.68,8.146,42.68
				s-0.443,0.314-1.163,0.863c-0.338,0.256-1.057,0.467-2.03,0.467H4.34c-2.432,0-3.933-1.5-3.933-3.912v-0.506
				c0-0.529,0.169-1.08,0.423-1.418c0.508-0.697,0.824-1.057,0.824-1.141c0-0.106-0.338-0.507-0.91-1.269
				c-0.147-0.19-0.337-0.761-0.337-1.501c0-2.474,1.523-3.996,3.933-3.996c2.409,0,3.932,1.544,3.932,3.954v0.401
				c0,0.592-0.254,1.375-0.718,2.009c-0.339,0.465-0.931,0.507-0.931,0.719c0,0.168,0.635,0.762,0.762,0.762
				c0.126,0,0.359-0.487,1.014-1.227c0.529-0.591,1.459-0.951,2.643-0.951h0.656c0.148,0,0.212,0.063,0.212,0.211v1.988
				c0,0.146-0.064,0.211-0.212,0.211h-0.824c-0.845,0-1.502,0.654-1.502,1.521v0.275l0.064,0.148
				c0.761,0.887,1.586,1.037,2.284,1.268c0.126,0.043,0.19,0.084,0.19,0.211v2.031C11.909,44.01,11.76,44.01,11.422,44.01z
				 M5.862,34.009c0-0.824-0.676-1.523-1.521-1.523c-0.846,0-1.523,0.677-1.523,1.523c0,0.698,0.486,1.311,1.48,1.924l0.148,0.041
				c0.93-0.274,1.416-0.845,1.416-1.564V34.009z M6.412,40.881c0-0.297-0.846-1.332-2.685-2.496H3.515
				c-0.465,0.361-0.698,0.762-0.698,1.27v0.613c0,0.846,0.677,1.521,1.523,1.521h0.612c0.529,0,1.016-0.273,1.417-0.846
				C6.391,40.924,6.412,40.9,6.412,40.881z"/>
			<path fill="#79BB43" d="M25.058,43.799h-7.463c-0.148,0-0.212-0.064-0.212-0.213V30.69c0-0.148,0.064-0.212,0.212-0.212h7.463
				c0.126,0,0.211,0.063,0.211,0.212v1.796c0,0.148-0.063,0.212-0.211,0.212h-5.032c-0.148,0-0.212,0.062-0.212,0.211v2.812
				c0,0.147,0.064,0.211,0.212,0.211h4.123c0.147,0,0.211,0.063,0.211,0.211v1.797c0,0.146-0.064,0.211-0.211,0.211h-4.123
				c-0.148,0-0.212,0.063-0.212,0.211v3.004c0,0.148,0.064,0.211,0.212,0.211h5.032c0.126,0,0.211,0.062,0.211,0.211v1.797
				C25.269,43.734,25.206,43.799,25.058,43.799z"/>
		</g>
	</g>
	<g>
		<g opacity="0.7">
			<path fill="#79BB43" d="M29.296,34.009c0,0.993,0.973,1.29,2.453,1.965c2.262,1.038,3.319,2.199,3.319,4.293
				c0,2.242-1.544,3.742-3.933,3.742h-0.845c-1.206,0-2.115-0.338-2.75-0.994c-0.696-0.719-0.972-1.332-0.972-1.543
				c0-0.043,0.042-0.105,0.127-0.146l1.84-0.912c0.041-0.02,0.062-0.02,0.105-0.02c0.147,0,0.19,0.211,0.401,0.633
				c0.233,0.445,0.761,0.762,1.248,0.762h0.845c0.824,0,1.522-0.676,1.522-1.521c0-1.057-0.888-1.439-2.263-2.094
				c-2.326-1.121-3.51-2.071-3.51-4.165c0-2.241,1.565-3.742,3.933-3.742h0.317c0.972,0,1.733,0.211,2.41,0.697
				c0.825,0.592,1.353,1.543,1.353,1.797c0,0.085-0.041,0.127-0.126,0.17l-1.84,0.909c-0.042,0.021-0.084,0.021-0.104,0.021
				c-0.106,0-0.148-0.127-0.275-0.317c-0.401-0.677-0.761-1.058-1.417-1.058h-0.317C29.994,32.486,29.296,33.142,29.296,34.009z"/>
			<path fill="#79BB43" d="M43.164,32.699H40.86c-0.149,0-0.213,0.062-0.213,0.211v10.676c0,0.148-0.062,0.213-0.211,0.213h-1.987
				c-0.147,0-0.211-0.064-0.211-0.213V32.91c0-0.148-0.063-0.211-0.212-0.211h-2.305c-0.147,0-0.211-0.064-0.211-0.212V30.69
				c0-0.148,0.063-0.212,0.211-0.212h7.442c0.127,0,0.212,0.063,0.212,0.212v1.796C43.376,32.635,43.312,32.699,43.164,32.699z"/>
			<path fill="#79BB43" d="M49.506,44.01H48.47c-2.389,0-3.933-1.5-3.933-3.742V30.69c0-0.148,0.064-0.212,0.212-0.212h1.987
				c0.126,0,0.211,0.063,0.211,0.212v9.577c0,0.846,0.677,1.521,1.522,1.521h1.037c0.845,0,1.501-0.654,1.501-1.521V30.69
				c0-0.148,0.063-0.212,0.212-0.212h2.007c0.149,0,0.212,0.063,0.212,0.212v9.577C53.438,42.51,51.874,44.01,49.506,44.01z"/>
			<path fill="#79BB43" d="M63.966,43.607c0,0.127-0.084,0.191-0.232,0.191h-2.135c-0.127,0-0.189-0.043-0.212-0.148l-0.635-2.221
				c-0.021-0.104-0.084-0.127-0.211-0.127h-3.022c-0.128,0-0.191,0.023-0.213,0.127l-0.633,2.221
				c-0.022,0.105-0.106,0.148-0.212,0.148h-2.114c-0.147,0-0.232-0.064-0.232-0.191c0-0.021,0.021-0.041,0.021-0.084l3.933-12.897
				c0.043-0.106,0.085-0.148,0.212-0.148h1.521c0.105,0,0.169,0.042,0.213,0.148l3.932,12.897
				C63.945,43.566,63.966,43.586,63.966,43.607z M59.314,36.019c-0.021-0.127-0.105-0.508-0.232-1.164h-0.063
				c-0.146,0.656-0.232,1.037-0.253,1.164l-0.719,2.79c0,0.02-0.021,0.062-0.021,0.084c0,0.125,0.085,0.191,0.231,0.191h1.544
				c0.148,0,0.232-0.066,0.232-0.191c0-0.021-0.02-0.064-0.02-0.084L59.314,36.019z"/>
			<path fill="#79BB43" d="M74.071,43.629c0,0.105-0.062,0.17-0.21,0.17h-2.18c-0.062,0-0.126-0.043-0.189-0.148l-1.861-5.371
				l-0.169-0.127H67.58c-0.146,0-0.211,0.063-0.211,0.211v5.223c0,0.148-0.063,0.213-0.212,0.213h-2.008
				c-0.147,0-0.212-0.064-0.212-0.213V30.69c0-0.148,0.064-0.212,0.212-0.212h4.757c2.411,0,3.933,1.522,3.933,3.932v0.211
				c0,0.994-0.508,1.797-0.93,2.262c-0.383,0.359-0.868,0.613-0.868,0.804v0.021l2.01,5.814
				C74.071,43.566,74.071,43.607,74.071,43.629z M71.43,34.221c0-0.824-0.699-1.522-1.523-1.522H67.58
				c-0.146,0-0.211,0.062-0.211,0.211v2.812c0,0.147,0.064,0.211,0.211,0.211h2.326c0.824,0,1.523-0.677,1.523-1.523V34.221z"/>
		</g>
	</g>
	<g>
		<g opacity="0.7">
			<path fill="#79BB43" d="M80.254,37.73v5.855c0,0.148-0.064,0.213-0.211,0.213h-2.008c-0.149,0-0.213-0.064-0.213-0.213V37.73
				l-3.7-6.935c-0.021-0.064-0.041-0.105-0.041-0.149c0-0.104,0.082-0.168,0.232-0.168h2.345l0.192,0.127l2.009,4.144
				c0.042,0.105,0.126,0.148,0.189,0.148s0.146-0.043,0.19-0.148l2.009-4.144l0.19-0.127h2.324c0.15,0,0.232,0.063,0.232,0.168
				c0,0.044-0.021,0.085-0.041,0.149L80.254,37.73z"/>
		</g>
	</g>
	<g>
		<g opacity="0.3">
			<path fill="#79BB43" d="M34.802,49.531c0,2.178-1.586,3.742-3.933,3.742h-1.902c-0.148,0-0.211,0.062-0.211,0.211v5.225
				c0,0.146-0.064,0.209-0.211,0.209h-2.009c-0.148,0-0.211-0.062-0.211-0.209V45.811c0-0.148,0.063-0.211,0.211-0.211h4.334
				C33.258,45.6,34.802,47.141,34.802,49.531z M32.392,49.342c0-0.824-0.677-1.523-1.522-1.523h-1.902
				c-0.148,0-0.211,0.062-0.211,0.211v2.812c0,0.148,0.063,0.211,0.211,0.211h1.902c0.846,0,1.522-0.676,1.522-1.521V49.342z"/>
			<path fill="#79BB43" d="M45.477,58.75c0,0.105-0.063,0.168-0.211,0.168h-2.178c-0.063,0-0.126-0.043-0.19-0.146l-1.86-5.371
				l-0.169-0.127h-1.881c-0.148,0-0.211,0.062-0.211,0.211v5.225c0,0.146-0.064,0.209-0.211,0.209h-2.009
				c-0.147,0-0.212-0.062-0.212-0.209V45.811c0-0.148,0.065-0.211,0.212-0.211h4.757c2.411,0,3.933,1.521,3.933,3.932v0.211
				c0,0.994-0.507,1.799-0.931,2.262c-0.38,0.359-0.867,0.613-0.867,0.805v0.02l2.009,5.816
				C45.477,58.686,45.477,58.729,45.477,58.75z M42.835,49.342c0-0.824-0.698-1.523-1.523-1.523h-2.325
				c-0.148,0-0.211,0.062-0.211,0.211v2.812c0,0.148,0.063,0.211,0.211,0.211h2.325c0.825,0,1.523-0.676,1.523-1.521V49.342z"/>
			<path fill="#79BB43" d="M51.967,59.131h-1.036c-2.39,0-3.933-1.502-3.933-3.744v-6.258c0-2.24,1.564-3.742,3.933-3.742h1.036
				c2.369,0,3.932,1.502,3.932,3.742v6.258C55.898,57.629,54.336,59.131,51.967,59.131z M53.467,49.129
				c0-0.867-0.654-1.521-1.5-1.521h-1.036c-0.846,0-1.522,0.676-1.522,1.521v6.258c0,0.846,0.677,1.523,1.522,1.523h1.036
				c0.846,0,1.5-0.656,1.5-1.523V49.129z"/>
		</g>
	</g>
	<g>
		<g opacity="0.3">
			<path fill="#79BB43" d="M65.628,46.086c0.824,0.59,1.333,1.541,1.333,1.795c0,0.064-0.043,0.127-0.128,0.17l-1.839,0.908
				c-0.042,0.023-0.085,0.023-0.105,0.023c-0.127,0-0.17-0.129-0.295-0.361c-0.36-0.654-0.762-1.014-1.377-1.014h-1.395
				c-0.845,0-1.521,0.676-1.521,1.521v6.258c0,0.846,0.677,1.523,1.521,1.523h1.036c0.847,0,1.501-0.656,1.501-1.523v-0.994
				c0-0.146-0.085-0.209-0.212-0.209h-1.986c-0.147,0-0.212-0.064-0.212-0.213v-1.797c0-0.148,0.064-0.211,0.212-0.211h4.417
				c0.15,0,0.214,0.062,0.214,0.211v3.213c0,2.242-1.565,3.744-3.934,3.744h-1.036c-2.389,0-3.932-1.502-3.932-3.744v-6.258
				c0-2.24,1.563-3.742,3.932-3.742h1.395C64.191,45.387,64.972,45.619,65.628,46.086z"/>
		</g>
	</g>
	<g>
		<g opacity="0.3">
			<path fill="#79BB43" d="M78.298,58.75c0,0.105-0.062,0.168-0.211,0.168h-2.179c-0.062,0-0.126-0.043-0.189-0.146L73.859,53.4
				l-0.171-0.127h-1.881c-0.147,0-0.212,0.062-0.212,0.211v5.225c0,0.146-0.065,0.209-0.212,0.209h-2.008
				c-0.147,0-0.212-0.062-0.212-0.209V45.811c0-0.148,0.064-0.211,0.212-0.211h4.757c2.411,0,3.933,1.521,3.933,3.932v0.211
				c0,0.994-0.508,1.799-0.93,2.262c-0.381,0.359-0.867,0.613-0.867,0.805v0.02l2.008,5.816
				C78.298,58.686,78.298,58.729,78.298,58.75z M75.655,49.342c0-0.824-0.697-1.523-1.522-1.523h-2.325
				c-0.147,0-0.212,0.062-0.212,0.211v2.812c0,0.148,0.064,0.211,0.212,0.211h2.325c0.825,0,1.522-0.676,1.522-1.521V49.342z"/>
			<path fill="#79BB43" d="M88.213,58.729c0,0.127-0.085,0.189-0.233,0.189h-2.136c-0.126,0-0.188-0.043-0.212-0.146l-0.633-2.221
				c-0.021-0.105-0.085-0.129-0.212-0.129h-3.023c-0.127,0-0.19,0.023-0.211,0.129l-0.634,2.221
				c-0.021,0.104-0.106,0.146-0.213,0.146h-2.113c-0.147,0-0.233-0.062-0.233-0.189c0-0.02,0.021-0.043,0.021-0.084l3.932-12.898
				c0.043-0.105,0.085-0.146,0.213-0.146h1.522c0.105,0,0.169,0.041,0.212,0.146l3.932,12.898
				C88.191,58.686,88.213,58.709,88.213,58.729z M83.562,51.139c-0.022-0.129-0.105-0.508-0.232-1.164h-0.063
				c-0.148,0.656-0.232,1.035-0.255,1.164l-0.719,2.791c0,0.021-0.02,0.062-0.02,0.084c0,0.127,0.083,0.189,0.231,0.189h1.544
				c0.146,0,0.232-0.062,0.232-0.189c0-0.021-0.021-0.062-0.021-0.084L83.562,51.139z"/>
		</g>
	</g>
	<g>
		<g opacity="0.3">
			<path fill="#79BB43" d="M99.464,58.918H97.52c-0.148,0-0.212-0.062-0.212-0.209l0.191-8.248l-2.389,6.512
				c-0.064,0.064-0.128,0.129-0.19,0.129h-1.08c-0.084,0-0.146-0.043-0.19-0.129l-2.388-6.512l0.188,8.248
				c0,0.146-0.062,0.209-0.21,0.209h-1.966c-0.148,0-0.212-0.062-0.212-0.209V45.811c0-0.148,0.063-0.211,0.212-0.211h1.817
				c0.063,0.02,0.127,0.062,0.192,0.125l3.086,8.373l3.087-8.373c0.062-0.062,0.126-0.105,0.189-0.125h1.817
				c0.148,0,0.211,0.062,0.211,0.211v12.898C99.675,58.855,99.612,58.918,99.464,58.918z"/>
		</g>
	</g>
</g>
</svg>
