<?xml version="1.0" encoding="utf-8"?>
<!-- Generator: Adobe Illustrator 16.0.4, SVG Export Plug-In . SVG Version: 6.00 Build 0)  -->
<!DOCTYPE svg PUBLIC "-//W3C//DTD SVG 1.1//EN" "http://www.w3.org/Graphics/SVG/1.1/DTD/svg11.dtd">
<svg version="1.1" id="Layer_1" xmlns="http://www.w3.org/2000/svg" xmlns:xlink="http://www.w3.org/1999/xlink" x="0px" y="0px"
	 width="100px" height="63.335px" viewBox="0 0 100 63.335" enable-background="new 0 0 100 63.335" xml:space="preserve">
<g>
	<g>
		<g opacity="0.3">
			<path fill="#79BB43" d="M27.011,15.502h-1.647l-0.179-0.099l-4.069-7.978l0.1,7.878c0,0.139-0.06,0.198-0.199,0.198h-1.846
				c-0.139,0-0.198-0.06-0.198-0.198V3.198C18.974,3.06,19.033,3,19.172,3h1.667l0.178,0.099l4.048,8.057l-0.079-7.958
				C24.987,3.06,25.046,3,25.186,3h1.826c0.119,0,0.199,0.06,0.199,0.198v12.106C27.21,15.443,27.15,15.502,27.011,15.502z"/>
		</g>
	</g>
	<g>
		<g opacity="0.3">
			<path fill="#79BB43" d="M33.878,9.807v5.497c0,0.139-0.059,0.198-0.198,0.198h-1.885c-0.139,0-0.198-0.06-0.198-0.198V9.807
				l-3.473-6.51c-0.02-0.059-0.04-0.099-0.04-0.139C28.083,3.06,28.163,3,28.302,3h2.203l0.179,0.119l1.885,3.89
				c0.04,0.099,0.119,0.139,0.178,0.139c0.06,0,0.14-0.04,0.179-0.139l1.886-3.89L34.99,3h2.183c0.139,0,0.218,0.06,0.218,0.159
				c0,0.04-0.02,0.08-0.04,0.139L33.878,9.807z"/>
		</g>
	</g>
	<g>
		<g opacity="0.3">
			<path fill="#79BB43" d="M38.542,15.384c-0.02,0.04-0.08,0.099-0.179,0.119h-1.25c-0.139,0-0.218-0.06-0.218-0.158
				c0-0.04,0.02-0.08,0.039-0.12l5.18-12.105c0.02-0.04,0.08-0.08,0.179-0.119h1.25c0.139,0,0.218,0.06,0.218,0.159
				c0,0.04-0.02,0.08-0.04,0.119L38.542,15.384z"/>
		</g>
	</g>
	<g>
		<g opacity="0.3">
			<path fill="#79BB43" d="M52.85,15.502h-1.646l-0.179-0.099l-4.068-7.978l0.099,7.878c0,0.139-0.059,0.198-0.198,0.198h-1.846
				c-0.139,0-0.198-0.06-0.198-0.198V3.198C44.813,3.06,44.873,3,45.011,3h1.667l0.179,0.099l4.049,8.057l-0.08-7.958
				C50.826,3.06,50.886,3,51.024,3h1.825c0.119,0,0.199,0.06,0.199,0.198v12.106C53.049,15.443,52.989,15.502,52.85,15.502z"/>
		</g>
	</g>
	<g>
		<g opacity="0.3">
			<path fill="#79BB43" d="M60.52,14.629c-0.654,0.715-1.547,1.072-2.6,1.072c-0.496,0-0.992-0.119-1.666-0.357
				c-1.191-0.675-1.887-1.548-1.887-2.005c0-0.079,0.021-0.139,0.119-0.178l1.768-0.834c0.039-0.02,0.078-0.04,0.099-0.04
				c0.118,0,0.159,0.139,0.278,0.377c0.316,0.635,0.674,0.952,1.289,0.952c0.814,0,1.41-0.635,1.41-1.429v-8.99
				C59.33,3.06,59.389,3,59.527,3h1.885c0.119,0,0.199,0.06,0.199,0.198v8.792C61.611,12.942,61.234,13.875,60.52,14.629z"/>
		</g>
	</g>
	<g>
		<path fill="#79BB43" d="M18.464,29.695h-1.866c-0.139,0-0.198-0.06-0.198-0.198v-4.902c0-0.139-0.06-0.198-0.198-0.198H12.51
			c-0.139,0-0.198,0.06-0.198,0.198v4.902c0,0.139-0.06,0.198-0.199,0.198h-1.885c-0.139,0-0.199-0.06-0.199-0.198V17.391
			c0-0.139,0.06-0.198,0.199-0.198h1.885c0.119,0,0.199,0.059,0.199,0.198v4.723c0,0.139,0.059,0.198,0.198,0.198h3.691
			c0.139,0,0.198-0.059,0.198-0.198v-4.723c0-0.139,0.06-0.198,0.198-0.198h1.866c0.139,0,0.199,0.059,0.199,0.198v12.106
			C18.663,29.636,18.603,29.695,18.464,29.695z"/>
	</g>
	<g>
		<path fill="#79BB43" d="M28.944,29.517c0,0.119-0.08,0.179-0.218,0.179h-2.004c-0.119,0-0.179-0.04-0.198-0.139l-0.596-2.083
			c-0.02-0.099-0.079-0.119-0.198-0.119h-2.838c-0.119,0-0.179,0.02-0.199,0.119l-0.595,2.083c-0.02,0.1-0.099,0.139-0.199,0.139
			h-1.984c-0.139,0-0.218-0.06-0.218-0.179c0-0.02,0.02-0.04,0.02-0.079l3.691-12.106c0.04-0.1,0.079-0.139,0.198-0.139h1.429
			c0.099,0,0.158,0.039,0.198,0.139l3.691,12.106C28.924,29.477,28.944,29.497,28.944,29.517z M24.578,22.392
			c-0.02-0.119-0.099-0.476-0.218-1.091H24.3c-0.139,0.615-0.218,0.973-0.238,1.091l-0.675,2.62c0,0.02-0.02,0.06-0.02,0.08
			c0,0.119,0.079,0.178,0.218,0.178h1.449c0.139,0,0.218-0.06,0.218-0.178c0-0.02-0.02-0.06-0.02-0.08L24.578,22.392z"/>
	</g>
	<g>
		<path fill="#79BB43" d="M38.191,29.537c0,0.099-0.06,0.159-0.199,0.159h-2.044c-0.06,0-0.119-0.04-0.179-0.139l-1.746-5.041
			l-0.159-0.119h-1.766c-0.139,0-0.198,0.06-0.198,0.198v4.902c0,0.139-0.06,0.198-0.199,0.198h-1.885
			c-0.139,0-0.198-0.06-0.198-0.198V17.391c0-0.139,0.06-0.198,0.198-0.198h4.465c2.263,0,3.691,1.429,3.691,3.691v0.198
			c0,0.933-0.476,1.687-0.873,2.124c-0.357,0.337-0.813,0.576-0.813,0.754v0.02l1.885,5.458
			C38.191,29.477,38.191,29.517,38.191,29.537z M35.71,20.706c0-0.774-0.654-1.429-1.429-1.429h-2.183
			c-0.139,0-0.198,0.06-0.198,0.199v2.639c0,0.139,0.06,0.198,0.198,0.198h2.183c0.774,0,1.429-0.635,1.429-1.429V20.706z"/>
	</g>
	<g>
		<path fill="#79BB43" d="M43.744,29.695h-4.465c-0.139,0-0.198-0.06-0.198-0.198V17.391c0-0.139,0.059-0.198,0.198-0.198h4.465
			c2.263,0,3.691,1.429,3.691,3.691v0.198c0,0.457-0.159,0.973-0.437,1.35c-0.417,0.555-0.695,0.853-0.695,0.932
			c0,0.08,0.278,0.357,0.655,0.893c0.298,0.437,0.477,1.012,0.477,1.489v0.298C47.435,28.286,46.026,29.695,43.744,29.695z
			 M45.172,20.706c0-0.774-0.655-1.429-1.429-1.429h-2.183c-0.139,0-0.198,0.06-0.198,0.199v2.639c0,0.139,0.059,0.198,0.198,0.198
			h2.183c0.774,0,1.429-0.635,1.429-1.429V20.706z M45.172,25.806c0-0.794-0.615-1.409-1.429-1.409h-2.183
			c-0.139,0-0.198,0.06-0.198,0.198v2.818c0,0.139,0.059,0.199,0.198,0.199h2.183c0.794,0,1.429-0.635,1.429-1.429V25.806z"/>
	</g>
	<g>
		<path fill="#79BB43" d="M52.928,29.894h-0.973c-2.242,0-3.691-1.409-3.691-3.512v-5.875c0-2.104,1.469-3.513,3.691-3.513h0.973
			c2.223,0,3.691,1.409,3.691,3.513v5.875C56.619,28.485,55.15,29.894,52.928,29.894z M54.337,20.507
			c0-0.814-0.615-1.429-1.409-1.429h-0.973c-0.794,0-1.43,0.635-1.43,1.429v5.875c0,0.794,0.636,1.429,1.43,1.429h0.973
			c0.794,0,1.409-0.615,1.409-1.429V20.507z"/>
	</g>
	<g>
		<path fill="#79BB43" d="M66.182,29.537c0,0.099-0.059,0.159-0.197,0.159h-2.045c-0.059,0-0.119-0.04-0.178-0.139l-1.746-5.041
			l-0.16-0.119H60.09c-0.139,0-0.199,0.06-0.199,0.198v4.902c0,0.139-0.059,0.198-0.197,0.198h-1.887
			c-0.139,0-0.197-0.06-0.197-0.198V17.391c0-0.139,0.059-0.198,0.197-0.198h4.467c2.262,0,3.691,1.429,3.691,3.691v0.198
			c0,0.933-0.477,1.687-0.873,2.124c-0.357,0.337-0.814,0.576-0.814,0.754v0.02l1.885,5.458
			C66.182,29.477,66.182,29.517,66.182,29.537z M63.701,20.706c0-0.774-0.654-1.429-1.428-1.429H60.09
			c-0.139,0-0.199,0.06-0.199,0.199v2.639c0,0.139,0.061,0.198,0.199,0.198h2.184c0.773,0,1.428-0.635,1.428-1.429V20.706z"/>
	</g>
	<g>
		<g opacity="0.7">
			<path fill="#79BB43" d="M13.266,44.086c-0.674,0-1.429-0.238-2.183-0.693c-0.536-0.338-0.814-0.557-0.894-0.557
				c-0.079,0-0.417,0.297-1.091,0.814c-0.317,0.238-0.992,0.436-1.905,0.436H6.618c-2.282,0-3.691-1.408-3.691-3.67v-0.477
				c0-0.496,0.159-1.012,0.397-1.33c0.476-0.654,0.774-0.992,0.774-1.072c0-0.1-0.317-0.477-0.854-1.191
				c-0.139-0.178-0.317-0.713-0.317-1.408c0-2.322,1.429-3.75,3.691-3.75c2.262,0,3.691,1.449,3.691,3.711v0.377
				c0,0.555-0.238,1.289-0.674,1.885c-0.318,0.438-0.874,0.477-0.874,0.674c0,0.16,0.595,0.715,0.714,0.715s0.338-0.455,0.953-1.15
				c0.496-0.555,1.37-0.893,2.481-0.893h0.615c0.139,0,0.198,0.059,0.198,0.197v1.867c0,0.139-0.06,0.197-0.198,0.197H12.75
				c-0.793,0-1.409,0.615-1.409,1.43v0.258l0.06,0.139c0.714,0.834,1.488,0.973,2.143,1.191c0.119,0.039,0.179,0.078,0.179,0.197
				v1.906C13.722,44.086,13.583,44.086,13.266,44.086z M8.046,34.699c0-0.773-0.635-1.429-1.429-1.429
				c-0.794,0-1.429,0.635-1.429,1.429c0,0.654,0.457,1.23,1.389,1.807l0.139,0.039c0.873-0.258,1.33-0.793,1.33-1.469V34.699z
				 M8.562,41.148c0-0.277-0.794-1.25-2.521-2.342H5.844c-0.437,0.338-0.655,0.715-0.655,1.191v0.576
				c0,0.793,0.635,1.428,1.429,1.428h0.575c0.496,0,0.953-0.258,1.33-0.793C8.542,41.189,8.562,41.17,8.562,41.148z"/>
			<path fill="#79BB43" d="M26.064,43.889h-7.005c-0.139,0-0.199-0.061-0.199-0.199V31.583c0-0.139,0.06-0.198,0.199-0.198h7.005
				c0.119,0,0.199,0.06,0.199,0.198v1.687c0,0.139-0.06,0.199-0.199,0.199h-4.723c-0.139,0-0.199,0.059-0.199,0.198v2.639
				c0,0.139,0.06,0.199,0.199,0.199h3.87c0.139,0,0.198,0.059,0.198,0.197v1.688c0,0.139-0.06,0.199-0.198,0.199h-3.87
				c-0.139,0-0.199,0.059-0.199,0.197v2.818c0,0.139,0.06,0.199,0.199,0.199h4.723c0.119,0,0.199,0.059,0.199,0.197v1.688
				C26.263,43.828,26.203,43.889,26.064,43.889z"/>
		</g>
	</g>
	<g>
		<g opacity="0.7">
			<path fill="#79BB43" d="M30.043,34.699c0,0.934,0.913,1.211,2.302,1.846c2.124,0.973,3.116,2.064,3.116,4.029
				c0,2.104-1.449,3.512-3.691,3.512h-0.794c-1.131,0-1.984-0.316-2.58-0.932c-0.654-0.676-0.913-1.25-0.913-1.449
				c0-0.039,0.04-0.1,0.119-0.139l1.727-0.854c0.04-0.02,0.06-0.02,0.099-0.02c0.139,0,0.179,0.197,0.377,0.596
				c0.219,0.416,0.714,0.713,1.171,0.713h0.794c0.774,0,1.429-0.635,1.429-1.428c0-0.992-0.833-1.35-2.123-1.965
				c-2.184-1.053-3.295-1.945-3.295-3.91c0-2.104,1.469-3.512,3.691-3.512h0.298c0.913,0,1.627,0.198,2.262,0.655
				c0.774,0.555,1.271,1.449,1.271,1.687c0,0.079-0.04,0.119-0.119,0.159l-1.727,0.854c-0.04,0.02-0.08,0.02-0.099,0.02
				c-0.099,0-0.139-0.119-0.258-0.298c-0.377-0.635-0.714-0.992-1.33-0.992h-0.298C30.698,33.271,30.043,33.886,30.043,34.699z"/>
			<path fill="#79BB43" d="M43.06,33.469h-2.163c-0.14,0-0.199,0.059-0.199,0.198v10.022c0,0.139-0.06,0.199-0.199,0.199h-1.865
				c-0.139,0-0.198-0.061-0.198-0.199V33.667c0-0.139-0.06-0.198-0.199-0.198h-2.163c-0.139,0-0.199-0.06-0.199-0.199v-1.687
				c0-0.139,0.06-0.198,0.199-0.198h6.985c0.12,0,0.199,0.06,0.199,0.198v1.687C43.259,33.409,43.199,33.469,43.06,33.469z"/>
			<path fill="#79BB43" d="M49.014,44.086h-0.973c-2.243,0-3.692-1.408-3.692-3.512v-8.991c0-0.139,0.059-0.198,0.199-0.198h1.865
				c0.119,0,0.198,0.06,0.198,0.198v8.991c0,0.793,0.635,1.428,1.43,1.428h0.973c0.793,0,1.408-0.615,1.408-1.428v-8.991
				c0-0.139,0.06-0.198,0.199-0.198h1.885c0.139,0,0.198,0.06,0.198,0.198v8.991C52.704,42.678,51.236,44.086,49.014,44.086z"/>
			<path fill="#79BB43" d="M62.586,43.709c0,0.119-0.08,0.18-0.219,0.18h-2.004c-0.119,0-0.18-0.041-0.199-0.141l-0.596-2.082
				c-0.02-0.1-0.078-0.119-0.197-0.119h-2.838c-0.119,0-0.179,0.02-0.199,0.119l-0.595,2.082c-0.021,0.1-0.099,0.141-0.198,0.141
				h-1.984c-0.139,0-0.219-0.061-0.219-0.18c0-0.02,0.02-0.039,0.02-0.078l3.691-12.107c0.039-0.099,0.08-0.139,0.199-0.139h1.428
				c0.1,0,0.16,0.04,0.199,0.139l3.691,12.107C62.566,43.67,62.586,43.689,62.586,43.709z M58.221,36.584
				c-0.02-0.117-0.1-0.475-0.219-1.09h-0.061c-0.139,0.615-0.217,0.973-0.238,1.09l-0.674,2.621c0,0.02-0.02,0.059-0.02,0.078
				c0,0.119,0.078,0.18,0.219,0.18h1.447c0.141,0,0.219-0.061,0.219-0.18c0-0.02-0.02-0.059-0.02-0.078L58.221,36.584z"/>
			<path fill="#79BB43" d="M72.07,43.729c0,0.1-0.059,0.16-0.197,0.16h-2.045c-0.059,0-0.119-0.041-0.178-0.141l-1.746-5.039
				l-0.16-0.119h-1.766c-0.139,0-0.199,0.059-0.199,0.197v4.902c0,0.139-0.059,0.199-0.197,0.199h-1.887
				c-0.139,0-0.197-0.061-0.197-0.199V31.583c0-0.139,0.059-0.198,0.197-0.198h4.467c2.262,0,3.691,1.429,3.691,3.691v0.199
				c0,0.932-0.477,1.686-0.873,2.123c-0.357,0.338-0.814,0.576-0.814,0.754v0.02l1.885,5.459C72.07,43.67,72.07,43.709,72.07,43.729
				z M69.59,34.898c0-0.774-0.654-1.429-1.428-1.429h-2.184c-0.139,0-0.199,0.059-0.199,0.198v2.639
				c0,0.139,0.061,0.199,0.199,0.199h2.184c0.773,0,1.428-0.635,1.428-1.43V34.898z"/>
		</g>
	</g>
	<g>
		<g opacity="0.7">
			<path fill="#79BB43" d="M77.875,38.191v5.498c0,0.139-0.061,0.199-0.199,0.199h-1.885c-0.139,0-0.199-0.061-0.199-0.199v-5.498
				l-3.473-6.509c-0.02-0.059-0.039-0.099-0.039-0.139c0-0.099,0.078-0.159,0.217-0.159H74.5l0.18,0.119l1.885,3.89
				c0.039,0.1,0.119,0.139,0.178,0.139c0.061,0,0.141-0.039,0.18-0.139l1.885-3.89l0.18-0.119h2.182c0.139,0,0.219,0.06,0.219,0.159
				c0,0.04-0.02,0.08-0.039,0.139L77.875,38.191z"/>
		</g>
	</g>
	<g>
		<g opacity="0.3">
			<path fill="#79BB43" d="M35.211,49.27c0,2.043-1.489,3.512-3.691,3.512h-1.786c-0.139,0-0.198,0.061-0.198,0.199v4.902
				c0,0.139-0.06,0.197-0.199,0.197h-1.885c-0.139,0-0.198-0.059-0.198-0.197V45.775c0-0.139,0.059-0.197,0.198-0.197h4.068
				C33.762,45.578,35.211,47.027,35.211,49.27z M32.949,49.09c0-0.773-0.635-1.428-1.429-1.428h-1.786
				c-0.139,0-0.198,0.059-0.198,0.197V50.5c0,0.139,0.059,0.197,0.198,0.197h1.786c0.794,0,1.429-0.635,1.429-1.428V49.09z"/>
			<path fill="#79BB43" d="M45.231,57.922c0,0.1-0.06,0.158-0.199,0.158h-2.044c-0.06,0-0.119-0.039-0.179-0.139L41.063,52.9
				l-0.159-0.119h-1.766c-0.139,0-0.198,0.061-0.198,0.199v4.902c0,0.139-0.06,0.197-0.198,0.197h-1.886
				c-0.139,0-0.198-0.059-0.198-0.197V45.775c0-0.139,0.06-0.197,0.198-0.197h4.465c2.263,0,3.691,1.428,3.691,3.691v0.197
				c0,0.934-0.476,1.688-0.873,2.125c-0.357,0.336-0.813,0.574-0.813,0.754v0.02l1.885,5.457
				C45.231,57.861,45.231,57.902,45.231,57.922z M42.75,49.09c0-0.773-0.655-1.428-1.429-1.428h-2.183
				c-0.139,0-0.198,0.059-0.198,0.197V50.5c0,0.139,0.06,0.197,0.198,0.197h2.183c0.774,0,1.429-0.635,1.429-1.428V49.09z"/>
			<path fill="#79BB43" d="M51.322,58.279H50.35c-2.242,0-3.691-1.41-3.691-3.514v-5.873c0-2.104,1.468-3.514,3.691-3.514h0.973
				c2.223,0,3.691,1.41,3.691,3.514v5.873C55.014,56.869,53.545,58.279,51.322,58.279z M52.731,48.893
				c0-0.814-0.615-1.43-1.409-1.43H50.35c-0.793,0-1.429,0.635-1.429,1.43v5.873c0,0.795,0.636,1.43,1.429,1.43h0.973
				c0.794,0,1.409-0.615,1.409-1.43V48.893z"/>
		</g>
	</g>
	<g>
		<g opacity="0.3">
			<path fill="#79BB43" d="M64.146,46.035c0.773,0.555,1.25,1.447,1.25,1.686c0,0.061-0.041,0.119-0.119,0.16l-1.727,0.854
				c-0.039,0.02-0.08,0.02-0.1,0.02c-0.119,0-0.158-0.119-0.277-0.338c-0.338-0.615-0.715-0.953-1.291-0.953h-1.309
				c-0.795,0-1.43,0.635-1.43,1.43v5.873c0,0.795,0.635,1.43,1.43,1.43h0.973c0.793,0,1.408-0.615,1.408-1.43v-0.932
				c0-0.139-0.08-0.199-0.199-0.199h-1.865c-0.139,0-0.197-0.059-0.197-0.197V51.75c0-0.139,0.059-0.199,0.197-0.199h4.148
				c0.139,0,0.197,0.061,0.197,0.199v3.016c0,2.104-1.467,3.514-3.689,3.514h-0.973c-2.242,0-3.691-1.41-3.691-3.514v-5.873
				c0-2.104,1.469-3.514,3.691-3.514h1.309C62.797,45.379,63.531,45.598,64.146,46.035z"/>
		</g>
	</g>
	<g>
		<g opacity="0.3">
			<path fill="#79BB43" d="M76.039,57.922c0,0.1-0.061,0.158-0.199,0.158h-2.045c-0.059,0-0.117-0.039-0.178-0.139L71.871,52.9
				l-0.16-0.119h-1.766c-0.139,0-0.197,0.061-0.197,0.199v4.902c0,0.139-0.061,0.197-0.199,0.197h-1.885
				c-0.139,0-0.199-0.059-0.199-0.197V45.775c0-0.139,0.061-0.197,0.199-0.197h4.465c2.262,0,3.691,1.428,3.691,3.691v0.197
				c0,0.934-0.477,1.688-0.873,2.125c-0.357,0.336-0.814,0.574-0.814,0.754v0.02l1.885,5.457
				C76.039,57.861,76.039,57.902,76.039,57.922z M73.557,49.09c0-0.773-0.654-1.428-1.428-1.428h-2.184
				c-0.139,0-0.197,0.059-0.197,0.197V50.5c0,0.139,0.059,0.197,0.197,0.197h2.184c0.773,0,1.428-0.635,1.428-1.428V49.09z"/>
			<path fill="#79BB43" d="M85.344,57.902c0,0.119-0.078,0.178-0.217,0.178h-2.006c-0.117,0-0.178-0.039-0.197-0.139l-0.596-2.084
				c-0.02-0.1-0.08-0.119-0.197-0.119h-2.84c-0.119,0-0.178,0.02-0.197,0.119l-0.596,2.084c-0.02,0.1-0.1,0.139-0.199,0.139h-1.984
				c-0.139,0-0.219-0.059-0.219-0.178c0-0.02,0.021-0.041,0.021-0.08l3.689-12.105c0.041-0.1,0.08-0.139,0.199-0.139h1.43
				c0.1,0,0.158,0.039,0.197,0.139l3.691,12.105C85.324,57.861,85.344,57.883,85.344,57.902z M80.979,50.777
				c-0.02-0.119-0.1-0.477-0.219-1.092h-0.059c-0.139,0.615-0.219,0.973-0.238,1.092l-0.676,2.619c0,0.02-0.02,0.061-0.02,0.08
				c0,0.119,0.08,0.178,0.219,0.178h1.449c0.139,0,0.217-0.059,0.217-0.178c0-0.02-0.02-0.061-0.02-0.08L80.979,50.777z"/>
		</g>
	</g>
	<g>
		<g opacity="0.3">
			<path fill="#79BB43" d="M95.906,58.08H94.08c-0.139,0-0.197-0.059-0.197-0.197l0.178-7.74l-2.242,6.111
				c-0.061,0.061-0.119,0.119-0.18,0.119h-1.012c-0.078,0-0.139-0.039-0.178-0.119l-2.242-6.111l0.178,7.74
				c0,0.139-0.059,0.197-0.199,0.197H86.34c-0.139,0-0.197-0.059-0.197-0.197V45.775c0-0.139,0.059-0.197,0.197-0.197h1.707
				c0.061,0.02,0.119,0.059,0.18,0.119l2.896,7.859l2.898-7.859c0.059-0.061,0.119-0.1,0.178-0.119h1.707
				c0.139,0,0.199,0.059,0.199,0.197v12.107C96.105,58.021,96.045,58.08,95.906,58.08z"/>
		</g>
	</g>
</g>
</svg>
