<?xml version="1.0" encoding="utf-8"?>
<!-- Generator: Adobe Illustrator 16.0.4, SVG Export Plug-In . SVG Version: 6.00 Build 0)  -->
<!DOCTYPE svg PUBLIC "-//W3C//DTD SVG 1.1//EN" "http://www.w3.org/Graphics/SVG/1.1/DTD/svg11.dtd">
<svg version="1.1" id="Layer_1" xmlns="http://www.w3.org/2000/svg" xmlns:xlink="http://www.w3.org/1999/xlink" x="0px" y="0px"
	 width="100px" height="51.334px" viewBox="0 0 100 51.334" enable-background="new 0 0 100 51.334" xml:space="preserve">
<g>
	<g>
		<path fill="#FFFFFF" d="M13.861,16.565H11.97c-0.141,0-0.201-0.061-0.201-0.201v-4.971c0-0.141-0.061-0.2-0.201-0.2H7.825
			c-0.141,0-0.201,0.06-0.201,0.2v4.971c0,0.141-0.061,0.201-0.202,0.201H5.511c-0.141,0-0.201-0.061-0.201-0.201V4.089
			c0-0.141,0.061-0.2,0.201-0.2h1.912c0.121,0,0.202,0.06,0.202,0.2v4.79c0,0.141,0.06,0.201,0.201,0.201h3.743
			c0.141,0,0.201-0.061,0.201-0.201v-4.79c0-0.141,0.06-0.2,0.201-0.2h1.891c0.142,0,0.202,0.06,0.202,0.2v12.275
			C14.063,16.505,14.003,16.565,13.861,16.565z"/>
	</g>
	<g>
		<path fill="#FFFFFF" d="M20.242,16.766h-0.986c-2.274,0-3.743-1.428-3.743-3.561V4.089c0-0.141,0.061-0.2,0.202-0.2h1.891
			c0.121,0,0.201,0.06,0.201,0.2v9.116c0,0.804,0.644,1.448,1.449,1.448h0.986c0.805,0,1.429-0.624,1.429-1.448V4.089
			c0-0.141,0.06-0.2,0.201-0.2h1.912c0.142,0,0.202,0.06,0.202,0.2v9.116C23.985,15.338,22.496,16.766,20.242,16.766z"/>
	</g>
	<g>
		<path fill="#FFFFFF" d="M30.529,16.565h-4.528c-0.141,0-0.201-0.061-0.201-0.201V4.089c0-0.141,0.06-0.2,0.201-0.2h4.528
			c2.294,0,3.743,1.448,3.743,3.742v5.191C34.272,15.116,32.823,16.565,30.529,16.565z M31.978,7.449
			c0-0.784-0.665-1.447-1.449-1.447h-2.213c-0.141,0-0.202,0.06-0.202,0.2v8.05c0,0.141,0.061,0.2,0.202,0.2h2.213
			c0.805,0,1.449-0.644,1.449-1.448V7.449z"/>
	</g>
	<g>
		<path fill="#FFFFFF" d="M37.835,7.249c0,0.945,0.926,1.228,2.334,1.87c2.152,0.987,3.16,2.094,3.16,4.086
			c0,2.133-1.47,3.561-3.744,3.561h-0.804c-1.147,0-2.013-0.321-2.616-0.945c-0.665-0.684-0.926-1.267-0.926-1.469
			c0-0.041,0.04-0.1,0.121-0.141l1.751-0.865c0.04-0.02,0.061-0.02,0.1-0.02c0.141,0,0.182,0.2,0.382,0.604
			c0.222,0.422,0.725,0.724,1.188,0.724h0.804c0.785,0,1.449-0.645,1.449-1.448c0-1.007-0.845-1.368-2.153-1.992
			c-2.213-1.066-3.34-1.972-3.34-3.964c0-2.133,1.489-3.562,3.743-3.562h0.302c0.926,0,1.65,0.201,2.294,0.664
			c0.785,0.563,1.288,1.469,1.288,1.71c0,0.081-0.04,0.121-0.12,0.16l-1.75,0.866c-0.04,0.02-0.081,0.02-0.101,0.02
			c-0.1,0-0.141-0.121-0.261-0.302C40.552,6.162,40.21,5.8,39.586,5.8h-0.302C38.5,5.8,37.835,6.424,37.835,7.249z"/>
	</g>
	<g>
		<path fill="#FFFFFF" d="M49.458,16.766h-0.986c-2.274,0-3.743-1.428-3.743-3.561V7.249c0-2.133,1.488-3.562,3.743-3.562h0.986
			c2.253,0,3.743,1.429,3.743,3.562v5.956C53.2,15.338,51.711,16.766,49.458,16.766z M50.886,7.249c0-0.825-0.624-1.449-1.428-1.449
			h-0.986c-0.805,0-1.449,0.645-1.449,1.449v5.956c0,0.804,0.644,1.448,1.449,1.448h0.986c0.804,0,1.428-0.624,1.428-1.448V7.249z"
			/>
	</g>
	<g>
		<path fill="#FFFFFF" d="M63.165,16.565h-1.67l-0.182-0.102l-4.125-8.089l0.101,7.989c0,0.141-0.06,0.201-0.201,0.201h-1.871
			c-0.142,0-0.201-0.061-0.201-0.201V4.089c0-0.141,0.06-0.2,0.201-0.2h1.69l0.181,0.101l4.105,8.169l-0.081-8.069
			c0-0.141,0.061-0.2,0.201-0.2h1.852c0.12,0,0.201,0.06,0.201,0.2v12.275C63.366,16.505,63.306,16.565,63.165,16.565z"/>
	</g>
	<g>
		<g opacity="0.7">
			<path fill="#FFFFFF" d="M21.687,30.798c0,0.1-0.061,0.16-0.202,0.16h-2.073c-0.061,0-0.121-0.041-0.181-0.141l-1.771-5.111
				L17.3,25.585h-1.791c-0.141,0-0.202,0.061-0.202,0.201v4.971c0,0.141-0.06,0.201-0.201,0.201h-1.913
				c-0.141,0-0.201-0.061-0.201-0.201V18.483c0-0.142,0.06-0.201,0.201-0.201h4.528c2.294,0,3.743,1.448,3.743,3.742v0.201
				c0,0.946-0.483,1.711-0.886,2.153c-0.362,0.343-0.825,0.583-0.825,0.765v0.02l1.912,5.533
				C21.687,30.738,21.687,30.777,21.687,30.798z M19.172,21.843c0-0.783-0.665-1.448-1.449-1.448h-2.213
				c-0.141,0-0.202,0.061-0.202,0.201v2.676c0,0.141,0.061,0.202,0.202,0.202h2.213c0.785,0,1.449-0.645,1.449-1.449V21.843z"/>
		</g>
	</g>
	<g>
		<g opacity="0.7">
			<path fill="#FFFFFF" d="M25.112,30.958H23.2c-0.141,0-0.201-0.061-0.201-0.201V18.483c0-0.142,0.061-0.201,0.201-0.201h1.912
				c0.121,0,0.202,0.06,0.202,0.201v12.274C25.313,30.898,25.252,30.958,25.112,30.958z"/>
		</g>
	</g>
	<g>
		<g opacity="0.7">
			<path fill="#FFFFFF" d="M31.906,30.818c-0.02,0.1-0.101,0.141-0.201,0.141h-1.45c-0.1,0-0.16-0.041-0.201-0.141l-3.743-12.275
				c0-0.02-0.021-0.06-0.021-0.08c0-0.121,0.081-0.181,0.221-0.181h2.013c0.121,0,0.181,0.04,0.201,0.141l2.295,8.168l2.193-8.168
				c0.021-0.101,0.081-0.141,0.201-0.141h2.033c0.141,0,0.221,0.06,0.221,0.181c0,0.021-0.021,0.061-0.021,0.08L31.906,30.818z"/>
		</g>
	</g>
	<g>
		<g opacity="0.7">
			<path fill="#FFFFFF" d="M43.915,30.958h-7.103c-0.141,0-0.201-0.061-0.201-0.201V18.483c0-0.142,0.06-0.201,0.201-0.201h7.103
				c0.121,0,0.202,0.06,0.202,0.201v1.71c0,0.141-0.061,0.201-0.202,0.201h-4.789c-0.141,0-0.201,0.061-0.201,0.201v2.676
				c0,0.141,0.06,0.202,0.201,0.202h3.924c0.141,0,0.201,0.061,0.201,0.201v1.709c0,0.141-0.06,0.201-0.201,0.201h-3.924
				c-0.141,0-0.201,0.061-0.201,0.201v2.857c0,0.141,0.06,0.203,0.201,0.203h4.789c0.121,0,0.202,0.059,0.202,0.199v1.711
				C44.117,30.898,44.056,30.958,43.915,30.958z"/>
		</g>
	</g>
	<g>
		<g opacity="0.7">
			<path fill="#FFFFFF" d="M54.516,30.798c0,0.1-0.061,0.16-0.201,0.16h-2.072c-0.061,0-0.121-0.041-0.182-0.141l-1.771-5.111
				l-0.161-0.121h-1.791c-0.141,0-0.202,0.061-0.202,0.201v4.971c0,0.141-0.06,0.201-0.201,0.201h-1.912
				c-0.141,0-0.201-0.061-0.201-0.201V18.483c0-0.142,0.06-0.201,0.201-0.201h4.527c2.294,0,3.743,1.448,3.743,3.742v0.201
				c0,0.946-0.483,1.711-0.886,2.153c-0.361,0.343-0.824,0.583-0.824,0.765v0.02l1.911,5.533
				C54.516,30.738,54.516,30.777,54.516,30.798z M52,21.843c0-0.783-0.664-1.448-1.449-1.448h-2.213
				c-0.141,0-0.202,0.061-0.202,0.201v2.676c0,0.141,0.061,0.202,0.202,0.202h2.213c0.785,0,1.449-0.645,1.449-1.449V21.843z"/>
		</g>
	</g>
	<g>
		<g opacity="0.3">
			<path fill="#FFFFFF" d="M15.775,34.789h-4.789c-0.141,0-0.201,0.061-0.201,0.201v2.676c0,0.141,0.061,0.201,0.201,0.201h3.924
				c0.141,0,0.201,0.061,0.201,0.202v1.711c0,0.141-0.06,0.201-0.201,0.201h-3.924c-0.141,0-0.201,0.061-0.201,0.201v4.971
				c0,0.141-0.061,0.199-0.201,0.199H8.672c-0.141,0-0.201-0.059-0.201-0.199V32.876c0-0.141,0.06-0.201,0.201-0.201h7.103
				c0.121,0,0.202,0.061,0.202,0.201v1.711C15.977,34.728,15.917,34.789,15.775,34.789z"/>
		</g>
	</g>
	<g>
		<g opacity="0.3">
			<path fill="#FFFFFF" d="M21.042,45.555h-0.986c-2.273,0-3.743-1.43-3.743-3.562v-5.958c0-2.133,1.489-3.561,3.743-3.561h0.986
				c2.253,0,3.743,1.428,3.743,3.561v5.958C24.785,44.125,23.296,45.555,21.042,45.555z M22.471,36.035
				c0-0.824-0.624-1.447-1.429-1.447h-0.986c-0.805,0-1.449,0.643-1.449,1.447v5.958c0,0.805,0.644,1.449,1.449,1.449h0.986
				c0.805,0,1.429-0.623,1.429-1.449V36.035z"/>
			<path fill="#FFFFFF" d="M31.245,45.555H30.26c-2.274,0-3.743-1.43-3.743-3.562v-9.116c0-0.141,0.06-0.201,0.201-0.201h1.891
				c0.122,0,0.202,0.061,0.202,0.201v9.116c0,0.805,0.643,1.449,1.449,1.449h0.985c0.805,0,1.429-0.623,1.429-1.449v-9.116
				c0-0.141,0.06-0.201,0.202-0.201h1.912c0.141,0,0.201,0.061,0.201,0.201v9.116C34.988,44.125,33.499,45.555,31.245,45.555z"/>
			<path fill="#FFFFFF" d="M45.15,45.352h-1.67l-0.181-0.1l-4.126-8.09l0.101,7.991c0,0.141-0.06,0.199-0.202,0.199h-1.871
				c-0.141,0-0.202-0.059-0.202-0.199V32.876c0-0.141,0.061-0.201,0.202-0.201h1.69l0.181,0.102l4.105,8.168l-0.081-8.069
				c0-0.141,0.061-0.201,0.202-0.201h1.851c0.12,0,0.202,0.061,0.202,0.201v12.276C45.352,45.293,45.291,45.352,45.15,45.352z"/>
			<path fill="#FFFFFF" d="M52.395,45.352h-4.527c-0.141,0-0.201-0.059-0.201-0.199V32.876c0-0.141,0.06-0.201,0.201-0.201h4.527
				c2.295,0,3.743,1.449,3.743,3.742v5.192C56.138,43.904,54.689,45.352,52.395,45.352z M53.844,36.238
				c0-0.785-0.664-1.449-1.449-1.449h-2.213c-0.141,0-0.201,0.061-0.201,0.201v8.049c0,0.141,0.06,0.201,0.201,0.201h2.213
				c0.806,0,1.449-0.645,1.449-1.449V36.238z"/>
		</g>
	</g>
	<g>
		<g opacity="0.3">
			<path fill="#FFFFFF" d="M66,45.172c0,0.121-0.08,0.18-0.222,0.18h-2.031c-0.121,0-0.182-0.039-0.202-0.141L62.941,43.1
				c-0.02-0.102-0.08-0.121-0.201-0.121h-2.877c-0.12,0-0.182,0.02-0.201,0.121l-0.604,2.111c-0.02,0.102-0.101,0.141-0.2,0.141
				h-2.013c-0.141,0-0.222-0.059-0.222-0.18c0-0.02,0.021-0.039,0.021-0.08l3.743-12.276c0.04-0.1,0.08-0.141,0.2-0.141h1.449
				c0.101,0,0.161,0.041,0.201,0.141l3.743,12.276C65.98,45.133,66,45.152,66,45.172z M61.573,37.947
				c-0.02-0.121-0.101-0.482-0.222-1.105h-0.06c-0.141,0.623-0.222,0.984-0.242,1.105l-0.684,2.657c0,0.02-0.021,0.061-0.021,0.082
				c0,0.119,0.081,0.18,0.222,0.18h1.469c0.141,0,0.222-0.061,0.222-0.18c0-0.021-0.021-0.062-0.021-0.082L61.573,37.947z"/>
		</g>
	</g>
	<g>
		<g opacity="0.3">
			<path fill="#FFFFFF" d="M71.658,34.789h-2.193c-0.141,0-0.201,0.061-0.201,0.201v10.163c0,0.141-0.061,0.199-0.201,0.199h-1.891
				c-0.141,0-0.202-0.059-0.202-0.199V34.99c0-0.141-0.06-0.201-0.201-0.201h-2.193c-0.141,0-0.201-0.061-0.201-0.201v-1.711
				c0-0.141,0.061-0.201,0.201-0.201h7.083c0.121,0,0.202,0.061,0.202,0.201v1.711C71.86,34.728,71.799,34.789,71.658,34.789z"/>
		</g>
	</g>
	<g>
		<g opacity="0.3">
			<path fill="#FFFFFF" d="M75.137,45.352h-1.911c-0.141,0-0.201-0.059-0.201-0.199V32.876c0-0.141,0.061-0.201,0.201-0.201h1.911
				c0.121,0,0.202,0.061,0.202,0.201v12.276C75.339,45.293,75.278,45.352,75.137,45.352z"/>
			<path fill="#FFFFFF" d="M81.959,45.555h-0.986c-2.273,0-3.742-1.43-3.742-3.562v-5.958c0-2.133,1.489-3.561,3.742-3.561h0.986
				c2.254,0,3.743,1.428,3.743,3.561v5.958C85.702,44.125,84.213,45.555,81.959,45.555z M83.388,36.035
				c0-0.824-0.624-1.447-1.429-1.447h-0.986c-0.805,0-1.448,0.643-1.448,1.447v5.958c0,0.805,0.644,1.449,1.448,1.449h0.986
				c0.805,0,1.429-0.623,1.429-1.449V36.035z"/>
		</g>
	</g>
	<g>
		<g opacity="0.3">
			<path fill="#FFFFFF" d="M95.702,45.352h-1.671l-0.181-0.1l-4.124-8.09l0.101,7.991c0,0.141-0.062,0.199-0.202,0.199h-1.871
				c-0.141,0-0.201-0.059-0.201-0.199V32.876c0-0.141,0.061-0.201,0.201-0.201h1.69l0.181,0.102l4.105,8.168l-0.081-8.069
				c0-0.141,0.061-0.201,0.201-0.201h1.852c0.121,0,0.201,0.061,0.201,0.201v12.276C95.903,45.293,95.843,45.352,95.702,45.352z"/>
		</g>
	</g>
</g>
</svg>
