<?xml version="1.0" encoding="utf-8"?>
<!-- Generator: Adobe Illustrator 16.0.4, SVG Export Plug-In . SVG Version: 6.00 Build 0)  -->
<!DOCTYPE svg PUBLIC "-//W3C//DTD SVG 1.1//EN" "http://www.w3.org/Graphics/SVG/1.1/DTD/svg11.dtd">
<svg version="1.1" id="Layer_1" xmlns="http://www.w3.org/2000/svg" xmlns:xlink="http://www.w3.org/1999/xlink" x="0px" y="0px"
	 width="64px" height="64px" viewBox="0 0 64 64" enable-background="new 0 0 64 64" xml:space="preserve">
<g transform="translate(0,-952.36218)">
	<path fill="#009877" d="M10.665,954.628c-0.701,0.066-1.235,0.655-1.231,1.359v57.082c0,0.751,0.608,1.359,1.359,1.359h43.491
		c0.752,0,1.36-0.608,1.36-1.359v-47.568c-0.006-0.359-0.148-0.704-0.405-0.956l-9.515-9.514c-0.252-0.255-0.595-0.4-0.955-0.403
		H10.792C10.75,954.626,10.708,954.626,10.665,954.628z M12.152,957.347h31.259v8.155c0,0.711,0.647,1.359,1.356,1.359h8.156v44.85
		H12.152V957.347z M46.129,959.258l4.885,4.884h-4.885V959.258z"/>
</g>
</svg>
