<?xml version="1.0" encoding="utf-8"?>
<!-- Generator: Adobe Illustrator 16.0.0, SVG Export Plug-In . SVG Version: 6.00 Build 0)  -->
<!DOCTYPE svg PUBLIC "-//W3C//DTD SVG 1.1//EN" "http://www.w3.org/Graphics/SVG/1.1/DTD/svg11.dtd">
<svg version="1.1" id="Layer_1" xmlns="http://www.w3.org/2000/svg" xmlns:xlink="http://www.w3.org/1999/xlink" x="0px" y="0px"
	 width="48.666px" height="48.667px" viewBox="0 0 48.666 48.667" enable-background="new 0 0 48.666 48.667" xml:space="preserve">
<g id="Layer_1_1_" display="none">
	<polygon display="inline" fill="none" stroke="#000000" stroke-width="2" stroke-miterlimit="10" points="8.001,-175.59 
		36.435,-204.024 43.56,-196.899 15.126,-168.465 5.773,-166.237 	"/>
	<polygon display="inline" fill="none" stroke="#000000" stroke-width="4" stroke-miterlimit="10" points="8.001,-72.5 
		36.435,-100.935 43.56,-93.809 15.126,-65.375 5.773,-63.146 	"/>
	<polygon display="inline" fill="none" stroke="#000000" stroke-width="6" stroke-miterlimit="10" points="8.001,30.589 
		36.435,2.155 43.56,9.281 15.126,37.714 5.773,39.943 	"/>
	<path display="inline" fill="none" stroke="#000000" stroke-width="2" stroke-miterlimit="10" d="M121.972-181.945
		c0,0-30.797-30.583-61.381,0.001C60.591-181.944,89.66-149.633,121.972-181.945z"/>
	<circle display="inline" cx="91.67" cy="-183.538" r="12"/>
	
		<line display="inline" fill="none" stroke="#FFFFFF" stroke-width="2" stroke-miterlimit="10" x1="76.67" y1="-181.561" x2="88.67" y2="-190.269"/>
	<path display="inline" fill="none" stroke="#000000" stroke-width="4" stroke-miterlimit="10" d="M121.972-81.011
		c0,0-30.797-30.583-61.381,0.001C60.591-81.01,89.66-48.699,121.972-81.011z"/>
	<circle display="inline" cx="91.67" cy="-82.604" r="12"/>
	
		<line display="inline" fill="none" stroke="#FFFFFF" stroke-width="4" stroke-miterlimit="10" x1="76.67" y1="-78.25" x2="88.67" y2="-86.958"/>
	<path display="inline" fill="none" stroke="#000000" stroke-width="6" stroke-miterlimit="10" d="M121.972,24.391
		c0,0-30.797-30.584-61.381,0.002C60.591,24.393,89.66,56.703,121.972,24.391z"/>
	<circle display="inline" cx="91.67" cy="22.799" r="12"/>
	
		<line display="inline" fill="none" stroke="#FFFFFF" stroke-width="5" stroke-miterlimit="10" x1="79.67" y1="27.152" x2="91.67" y2="18.444"/>
	
		<circle display="inline" fill="none" stroke="#000000" stroke-width="2" stroke-miterlimit="10" cx="178.312" cy="-180.971" r="20.805"/>
	
		<circle display="inline" fill="none" stroke="#000000" stroke-width="4" stroke-miterlimit="10" cx="178.284" cy="-80.627" r="20.804"/>
	
		<circle display="inline" fill="none" stroke="#000000" stroke-width="4.9437" stroke-miterlimit="10" cx="178.312" cy="21.049" r="20.804"/>
	
		<line display="inline" fill="none" stroke="#000000" stroke-width="2" stroke-miterlimit="10" x1="163.601" y1="-166.26" x2="192.968" y2="-195.627"/>
	
		<line display="inline" fill="none" stroke="#000000" stroke-width="4" stroke-miterlimit="10" x1="163.573" y1="-65.916" x2="193.483" y2="-95.826"/>
	
		<line display="inline" fill="none" stroke="#000000" stroke-width="4.9437" stroke-miterlimit="10" x1="163.601" y1="35.759" x2="193.022" y2="6.338"/>
	
		<rect x="233.593" y="-197.625" display="inline" fill="none" stroke="#000000" stroke-width="2" stroke-miterlimit="10" width="30.154" height="34.824"/>
	
		<line display="inline" fill="none" stroke="#000000" stroke-width="2" stroke-miterlimit="10" x1="228.028" y1="-197.626" x2="269.312" y2="-197.625"/>
	<polyline display="inline" fill="none" stroke="#000000" stroke-width="2" stroke-miterlimit="10" points="256.821,-197.402 
		255.088,-204.274 242.252,-204.274 240.517,-197.402 	"/>
	
		<line display="inline" fill="none" stroke="#000000" stroke-width="2" stroke-miterlimit="10" x1="240.456" y1="-191.738" x2="240.456" y2="-171.407"/>
	
		<line display="inline" fill="none" stroke="#000000" stroke-width="2" stroke-miterlimit="10" x1="248.438" y1="-191.738" x2="248.438" y2="-171.407"/>
	
		<line display="inline" fill="none" stroke="#000000" stroke-width="2" stroke-miterlimit="10" x1="256.763" y1="-191.738" x2="256.763" y2="-171.407"/>
	
		<rect x="233.517" y="-96.628" display="inline" fill="none" stroke="#000000" stroke-width="4" stroke-miterlimit="10" width="30.153" height="34.824"/>
	
		<line display="inline" fill="none" stroke="#000000" stroke-width="4" stroke-miterlimit="10" x1="227.951" y1="-96.629" x2="269.233" y2="-96.628"/>
	<polyline display="inline" fill="none" stroke="#000000" stroke-width="4" stroke-miterlimit="10" points="256.745,-96.405 
		255.013,-103.277 242.175,-103.277 240.44,-96.405 	"/>
	
		<line display="inline" fill="none" stroke="#000000" stroke-width="4" stroke-miterlimit="10" x1="240.379" y1="-90.741" x2="240.379" y2="-70.41"/>
	
		<line display="inline" fill="none" stroke="#000000" stroke-width="4" stroke-miterlimit="10" x1="248.36" y1="-90.741" x2="248.36" y2="-70.41"/>
	
		<line display="inline" fill="none" stroke="#000000" stroke-width="4" stroke-miterlimit="10" x1="256.685" y1="-90.741" x2="256.685" y2="-70.41"/>
	
		<rect x="233.517" y="6.461" display="inline" fill="none" stroke="#000000" stroke-width="4.9437" stroke-miterlimit="10" width="30.153" height="34.824"/>
	
		<line display="inline" fill="none" stroke="#000000" stroke-width="4.9437" stroke-miterlimit="10" x1="227.951" y1="6.461" x2="269.233" y2="6.461"/>
	<polyline display="inline" fill="none" stroke="#000000" stroke-width="4.9437" stroke-miterlimit="10" points="256.745,6.685 
		255.013,-0.188 242.175,-0.188 240.44,6.685 	"/>
	
		<line display="inline" fill="none" stroke="#000000" stroke-width="4.9437" stroke-miterlimit="10" x1="241.379" y1="12.35" x2="241.379" y2="32.68"/>
	
		<line display="inline" fill="none" stroke="#000000" stroke-width="4.9437" stroke-miterlimit="10" x1="248.36" y1="12.35" x2="248.36" y2="32.68"/>
	
		<line display="inline" fill="none" stroke="#000000" stroke-width="4.9437" stroke-miterlimit="10" x1="255.685" y1="12.35" x2="255.685" y2="32.68"/>
	
		<rect x="303.116" y="-101.137" transform="matrix(0.7071 -0.7071 0.7071 0.7071 155.5494 192.5287)" display="inline" fill="none" stroke="#000000" stroke-width="4" stroke-miterlimit="10" width="14.107" height="19.287"/>
	
		<rect x="322.794" y="-81.472" transform="matrix(0.7071 -0.7071 0.7071 0.7071 147.3931 212.1944)" display="inline" fill="none" stroke="#000000" stroke-width="4" stroke-miterlimit="10" width="14.106" height="19.288"/>
	
		<line display="inline" fill="none" stroke="#000000" stroke-width="4" stroke-miterlimit="10" x1="312.721" y1="-88.951" x2="327.438" y2="-74.233"/>
	
		<rect x="304.112" y="-201.01" transform="matrix(0.7071 -0.7071 0.7071 0.7071 226.4466 163.9755)" display="inline" fill="none" stroke="#000000" stroke-width="2" stroke-miterlimit="10" width="14.107" height="19.287"/>
	
		<rect x="323.797" y="-181.351" transform="matrix(0.7071 -0.7071 0.7071 0.7071 218.3109 183.6519)" display="inline" fill="none" stroke="#000000" stroke-width="2" stroke-miterlimit="10" width="14.107" height="19.287"/>
	
		<line display="inline" fill="none" stroke="#000000" stroke-width="2" stroke-miterlimit="10" x1="313.721" y1="-188.827" x2="328.438" y2="-174.109"/>
	
		<rect x="303.134" y="1.586" transform="matrix(0.7071 -0.7071 0.7071 0.7071 82.922 222.6365)" display="inline" fill="none" stroke="#000000" stroke-width="4.9437" stroke-miterlimit="10" width="14.108" height="19.287"/>
	
		<rect x="322.772" y="21.258" transform="matrix(0.7071 -0.7071 0.7071 0.7071 74.7422 242.2609)" display="inline" fill="none" stroke="#000000" stroke-width="4.9437" stroke-miterlimit="10" width="14.108" height="19.289"/>
	
		<line display="inline" fill="none" stroke="#000000" stroke-width="4.9437" stroke-miterlimit="10" x1="312.721" y1="13.76" x2="327.438" y2="28.478"/>
	<polygon display="inline" fill="none" stroke="#000000" stroke-width="2" stroke-miterlimit="10" points="380.42,-198.984 
		403.247,-198.984 403.247,-164.16 373.093,-164.16 373.093,-191.584 	"/>
	<polyline display="inline" fill="none" stroke="#000000" stroke-width="2" stroke-miterlimit="10" points="380.42,-198.984 
		380.42,-191.363 373.093,-191.363 	"/>
	<polygon display="inline" fill="#FFFFFF" stroke="#000000" stroke-width="2" stroke-miterlimit="10" points="388.42,-191.984 
		411.247,-191.984 411.247,-157.16 381.093,-157.16 381.093,-184.584 	"/>
	<polyline display="inline" fill="none" stroke="#000000" stroke-width="2" stroke-miterlimit="10" points="388.42,-191.984 
		388.42,-184.363 381.093,-184.363 	"/>
	<polygon display="inline" fill="none" stroke="#000000" stroke-width="4" stroke-miterlimit="10" points="380.42,-101.783 
		403.247,-101.783 403.247,-66.959 373.093,-66.959 373.093,-94.383 	"/>
	<polyline display="inline" fill="none" stroke="#000000" stroke-width="4" stroke-miterlimit="10" points="382.42,-101.783 
		382.42,-92.162 373.093,-92.162 	"/>
	<polygon display="inline" fill="#FFFFFF" stroke="#000000" stroke-width="4" stroke-miterlimit="10" points="390.42,-91.783 
		413.247,-91.783 413.247,-56.959 383.093,-56.959 383.093,-84.383 	"/>
	<polyline display="inline" fill="none" stroke="#000000" stroke-width="4" stroke-miterlimit="10" points="392.42,-91.783 
		392.42,-82.162 383.093,-82.162 	"/>
	<polygon display="inline" fill="none" stroke="#000000" stroke-width="6" stroke-miterlimit="10" points="380.42,-1.189 
		403.247,-1.189 403.247,33.634 373.093,33.634 373.093,6.211 	"/>
	<polyline display="inline" fill="none" stroke="#000000" stroke-width="6" stroke-miterlimit="10" points="384.42,-1.189 
		384.42,10.432 373.093,10.432 	"/>
	<polygon display="inline" fill="#FFFFFF" stroke="#000000" stroke-width="6" stroke-miterlimit="10" points="390.42,8.811 
		413.247,8.811 413.247,43.634 383.093,43.634 383.093,16.211 	"/>
	<polyline display="inline" fill="none" stroke="#000000" stroke-width="6" stroke-miterlimit="10" points="394.42,8.811 
		394.42,20.432 383.093,20.432 	"/>
	
		<rect x="443.011" y="-197.904" display="inline" fill="#FFFFFF" stroke="#000000" stroke-width="2" stroke-miterlimit="10" width="49.992" height="40.113"/>
	
		<line display="inline" fill="none" stroke="#000000" stroke-width="6" stroke-miterlimit="10" x1="453.004" y1="-164.16" x2="453.004" y2="-177.848"/>
	
		<line display="inline" fill="none" stroke="#000000" stroke-width="6" stroke-miterlimit="10" x1="463.226" y1="-164.16" x2="463.226" y2="-188.334"/>
	
		<line display="inline" fill="none" stroke="#000000" stroke-width="6" stroke-miterlimit="10" x1="473.448" y1="-164.16" x2="473.448" y2="-177.848"/>
	
		<line display="inline" fill="none" stroke="#000000" stroke-width="6" stroke-miterlimit="10" x1="483.67" y1="-164.16" x2="483.67" y2="-188.334"/>
	
		<rect x="443.011" y="-96.973" display="inline" fill="#FFFFFF" stroke="#000000" stroke-width="4" stroke-miterlimit="10" width="49.992" height="40.113"/>
	
		<line display="inline" fill="none" stroke="#000000" stroke-width="6" stroke-miterlimit="10" x1="453.004" y1="-63.229" x2="453.004" y2="-76.916"/>
	
		<line display="inline" fill="none" stroke="#000000" stroke-width="6" stroke-miterlimit="10" x1="463.226" y1="-63.229" x2="463.226" y2="-87.402"/>
	
		<line display="inline" fill="none" stroke="#000000" stroke-width="6" stroke-miterlimit="10" x1="473.448" y1="-63.229" x2="473.448" y2="-76.916"/>
	
		<line display="inline" fill="none" stroke="#000000" stroke-width="6" stroke-miterlimit="10" x1="483.67" y1="-63.229" x2="483.67" y2="-87.402"/>
	
		<rect x="443.011" y="4.719" display="inline" fill="#FFFFFF" stroke="#000000" stroke-width="6" stroke-miterlimit="10" width="49.992" height="40.113"/>
	
		<line display="inline" fill="none" stroke="#000000" stroke-width="6" stroke-miterlimit="10" x1="453.004" y1="38.462" x2="453.004" y2="24.775"/>
	
		<line display="inline" fill="none" stroke="#000000" stroke-width="6" stroke-miterlimit="10" x1="463.226" y1="38.462" x2="463.226" y2="14.289"/>
	
		<line display="inline" fill="none" stroke="#000000" stroke-width="6" stroke-miterlimit="10" x1="473.448" y1="38.462" x2="473.448" y2="24.775"/>
	
		<line display="inline" fill="none" stroke="#000000" stroke-width="6" stroke-miterlimit="10" x1="483.67" y1="38.462" x2="483.67" y2="14.289"/>
</g>
<g>
	<defs>
		<polygon id="SVGID_1_" points="-600,4983.5 -605.29,4986.281 -604.28,4980.39 -608.56,4976.218 -602.645,4975.359 -600,4970 
			-597.355,4975.359 -591.44,4976.218 -595.72,4980.39 -594.71,4986.281 		"/>
	</defs>
	<clipPath id="SVGID_2_">
		<use xlink:href="#SVGID_1_"  overflow="visible"/>
	</clipPath>
	<g clip-path="url(#SVGID_2_)">
		<defs>
			<rect id="SVGID_3_" x="-696" y="-5451" width="1440" height="10950"/>
		</defs>
		<clipPath id="SVGID_4_">
			<use xlink:href="#SVGID_3_"  overflow="visible"/>
		</clipPath>
		<polygon clip-path="url(#SVGID_4_)" fill="none" stroke="#999999" stroke-width="2" stroke-miterlimit="10" points="-600,4983.5 
			-605.29,4986.281 -604.28,4980.39 -608.56,4976.218 -602.645,4975.359 -600,4970 -597.355,4975.359 -591.44,4976.218 
			-595.72,4980.39 -594.71,4986.281 		"/>
	</g>
</g>
<polygon points="24.3,35.153 13.429,40.869 15.505,28.763 6.71,20.191 18.865,18.425 24.3,7.412 29.736,18.425 41.89,20.191 
	33.096,28.763 35.172,40.869 "/>
</svg>
