
<svg width="40px" height="40px" viewBox="0 0 40 40" version="1.1" xmlns="http://www.w3.org/2000/svg" xmlns:xlink="http://www.w3.org/1999/xlink">
    <!-- Generator: Sketch 43.2 (39069) - http://www.bohemiancoding.com/sketch -->
    <desc>Created with Sketch.</desc>
    <defs></defs>
    <g id="Template-Form-+-Global" stroke="none" stroke-width="1" fill="none" fill-rule="evenodd">
        <g id="Nav-Masthead" transform="translate(-304.000000, -10.000000)" fill="#FFFFFF">
            <g id="Group-2" transform="translate(73.000000, 10.000000)">
                <path d="M270.72544,19.2983009 C270.607814,19.1374667 270.31705,18.738682 270.222529,18.6090544 C269.90836,18.1784629 269.617296,18.1583587 269.532077,18.1454559 C269.77483,17.7853794 269.894857,17.4892165 269.894857,17.2005551 C269.894857,16.9148944 269.777231,16.6937474 269.615495,16.4717002 C269.523075,16.3453734 269.308528,16.0513109 269.178299,15.872773 C268.959851,15.5730093 268.652284,15.5682082 268.54426,15.5691084 C268.810118,15.1961292 268.937046,14.9596789 268.937046,14.6209069 C268.937046,14.4027606 268.853628,14.1633097 268.693693,13.9454634 C268.580868,13.7921308 268.296405,13.4014478 268.122067,13.1619969 C267.804897,12.7275046 267.466123,12.5657702 267.097341,12.4769514 C267.04693,12.4646487 266.991118,12.4514459 266.991118,12.4514459 C266.991118,12.4514459 266.087019,11.2199842 265.979295,11.0687521 C265.666327,10.6282585 265.153214,10.3969093 264.857049,10.324894 C264.649703,10.2744833 264.13419,10.1487566 263.620176,10.02363 L258.45424,3.84291662 C258.45424,3.84291662 251.86209,0.238850756 251.802977,0.203443232 C251.570726,0.0768163235 251.337574,0 251.103223,0 C250.776751,0 250.565204,0.0792168336 250.298446,0.274558344 C250.13761,0.392183339 249.738522,0.682945126 249.608894,0.777465211 C249.178599,1.09133191 249.158495,1.38269382 249.145592,1.46791193 C248.785513,1.22486028 248.489048,1.10513484 248.200684,1.10513484 C247.914721,1.10513484 247.693573,1.22245977 247.471824,1.38449421 C247.345496,1.47691384 247.051131,1.69115937 246.872592,1.82168711 C246.573126,2.04013353 246.568325,2.34739882 246.569225,2.45572184 C246.196243,2.18956528 245.959491,2.06293837 245.621017,2.06293837 C245.402869,2.06293837 245.163416,2.1463561 244.945568,2.30629009 C244.791934,2.41911406 244.401548,2.70357451 244.162096,2.87791156 C243.7273,3.19507895 243.565864,3.53355088 243.477045,3.90262931 C243.464742,3.95273996 243.451539,4.00885188 243.451539,4.00885188 C243.451539,4.00885188 242.220068,4.912944 242.068835,5.02066689 C241.628638,5.3336334 241.396987,5.8470425 241.324671,6.14290537 C241.27426,6.35024943 241.149133,6.86575897 241.023705,7.38006826 L234.842645,12.545666 C234.842645,12.545666 231.238853,19.1377668 231.203445,19.1968793 C231.076817,19.4291287 231,19.6619782 231,19.896628 C231,20.2233975 231.079217,20.4346424 231.27456,20.701399 C231.392186,20.8622332 231.68295,21.261318 231.777471,21.3909456 C232.09164,21.821237 232.383004,21.8410412 232.467623,21.854244 C232.22517,22.2143205 232.104843,22.5104835 232.104843,22.7991448 C232.104843,23.0851056 232.222469,23.3059525 232.384505,23.5279997 C232.476625,23.6543265 232.691472,23.9486891 232.821701,24.127227 C233.040149,24.4266907 233.347416,24.4317918 233.45574,24.4305915 C233.189582,24.8035708 233.062654,25.0403211 233.062654,25.378793 C233.062654,25.5969393 233.146372,25.8363902 233.306307,26.0542365 C233.419132,26.2078692 233.703295,26.5982521 233.877933,26.837703 C234.195103,27.2724954 234.533577,27.4339297 234.902659,27.5227486 C234.95277,27.5350512 235.008882,27.5485541 235.008882,27.5485541 C235.008882,27.5485541 235.912981,28.7797157 236.020404,28.9309478 C236.333673,29.3714414 236.846786,29.6027906 237.142951,29.6748059 C237.350297,29.7255167 237.86581,29.8509433 238.379824,29.9757699 L243.54576,36.1570834 C243.54576,36.1570834 250.13791,39.7611492 250.197023,39.7962567 C250.429274,39.9231837 250.662426,40 250.896777,40 C251.223549,40 251.434796,39.9204831 251.701554,39.7254417 C251.86239,39.6078167 252.261478,39.3167548 252.391106,39.2219347 C252.821401,38.908368 252.841505,38.6170061 252.854408,38.531788 C253.214487,38.7745396 253.510952,38.8948652 253.799316,38.8948652 C254.085279,38.8948652 254.306427,38.7772402 254.528176,38.6152057 C254.654504,38.5230862 254.948869,38.3082405 255.127408,38.1783129 C255.426874,37.9598665 255.431675,37.6520011 255.430775,37.5439781 C255.803757,37.8101347 256.040509,37.9370616 256.378683,37.9370616 C256.597131,37.9370616 256.836584,37.8536439 257.054432,37.6934098 C257.207766,37.5805859 257.598452,37.2964255 257.837904,37.1217884 C258.2727,36.804621 258.434136,36.4661491 258.523255,36.0970706 C258.535258,36.04696 258.548461,35.9908481 258.548461,35.9908481 C258.548461,35.9908481 259.779932,35.0867559 259.931165,34.9793331 C260.371362,34.6663666 260.603013,34.1529575 260.675329,33.8567946 C260.72574,33.6494505 260.851167,33.133941 260.976295,32.6199317 L267.157355,27.454034 C267.157355,27.454034 270.761147,20.8622332 270.796555,20.8028206 C270.923483,20.5705712 271,20.3377218 271,20.1030719 C271,19.7766025 270.920483,19.5650576 270.72544,19.2983009 L270.72544,19.2983009 Z M249.09248,18.0920446 L252.90782,18.0920446 L252.90782,21.9076554 L249.09248,21.9076554 L249.09248,18.0920446 Z M242.934826,5.64720003 C243.042849,5.56828326 243.399928,5.30782791 243.569165,5.18420164 C243.664586,5.11458685 243.795115,5.0644762 243.941547,5.0644762 C244.154594,5.0644762 244.327732,5.17369941 244.563584,5.34503582 C244.858849,5.55958141 247.885915,7.80975957 248.573666,8.30816549 C248.700894,8.40028506 248.808618,8.4404936 248.903139,8.4404936 C248.968553,8.4404936 249.029466,8.42248978 249.087379,8.38768238 C249.165096,8.34057237 249.276421,8.27515847 249.384745,8.20824425 C249.45676,8.16383481 249.504171,8.08581824 249.504171,8.00390083 C249.504171,7.93608642 249.469363,7.86557143 249.388946,7.80615881 C248.714697,7.30505232 244.947969,4.44274408 244.786533,4.32211845 C244.68271,4.244702 244.594191,4.15258242 244.594191,3.9929485 C244.594191,3.86992236 244.663806,3.77150144 244.788633,3.68058212 C244.901158,3.59836465 245.240833,3.35081205 245.341655,3.27729643 C245.45418,3.19507895 245.549601,3.16147181 245.698734,3.16147181 C245.876673,3.16147181 246.020404,3.2484903 246.130829,3.32440644 C246.360079,3.4828401 250.132209,6.08889389 251.057913,6.72953003 C251.211246,6.8357526 251.333073,6.88916395 251.447398,6.88916395 C251.518814,6.88886388 251.587529,6.86725929 251.659545,6.82344998 C251.723459,6.78474176 251.851587,6.70612505 251.924503,6.66201568 C251.996219,6.6188065 252.037628,6.54799145 252.037628,6.48077717 C252.037628,6.41356288 252.003421,6.34394809 251.925704,6.28843629 C251.122727,5.71351412 247.752386,3.30040134 247.604753,3.19357864 C247.465822,3.09275721 247.398008,2.99163572 247.398008,2.8635085 C247.398008,2.73718165 247.470023,2.63395972 247.587949,2.54814148 C247.68067,2.48002701 247.892516,2.32399385 248.017944,2.23427478 C248.130169,2.15385769 248.224989,2.10554743 248.367221,2.10554743 C248.524455,2.10554743 248.625578,2.16526012 248.775311,2.26548141 C248.914241,2.35850118 252.311889,4.62938374 253.405029,5.3609392 C253.533757,5.4470575 253.625878,5.49446757 253.733601,5.49446757 C253.790314,5.49446757 253.866231,5.48426541 253.928644,5.44645737 C253.980556,5.41525074 254.153094,5.31022842 254.211006,5.27512096 C254.31783,5.21000713 254.334334,5.14219272 254.334334,5.08278009 C254.334334,5.00296313 254.288423,4.93724917 254.212207,4.88533813 C253.196183,4.19579161 250.40947,2.30268932 250.27474,2.21116987 C250.105203,2.09594539 250.04519,1.98912269 250.04519,1.86969731 C250.04519,1.7472713 250.104303,1.6569521 250.245934,1.55373017 C250.338655,1.48591576 250.554702,1.32868234 250.644122,1.26326844 C250.733241,1.19815461 250.840365,1.16244702 250.959491,1.16244702 C251.105923,1.16244702 251.221449,1.22906118 251.336074,1.29717565 C251.457001,1.36919095 257.431615,4.96455497 257.431615,4.96455497 C257.431615,4.96455497 261.037208,9.30107648 261.707856,10.103447 C262.268979,10.7752897 262.418712,11.1359664 262.418712,11.6031657 C262.418712,11.9161322 262.327492,12.2020929 261.978815,12.5849743 C261.434196,13.1827013 260.138811,14.6047035 259.374842,15.4433817 C258.610574,16.2817599 257.54354,16.5776227 255.517194,16.5776227 L249.09218,16.5776227 L249.09218,14.2425265 C249.09218,14.2425265 249.524875,14.16451 249.662906,14.1393046 C250.232731,14.0336822 250.532197,13.7558231 250.532197,13.3201305 C250.532197,12.9048423 250.185321,12.6041784 249.735522,12.2233975 C248.336914,11.039946 243.631879,7.05809985 242.856208,6.40306065 C242.742783,6.30704025 242.68307,6.20951952 242.68307,6.06788943 C242.68307,5.8809497 242.785993,5.75582311 242.934826,5.64720003 L242.934826,5.64720003 Z M237.067935,28.3167173 C236.880694,28.3167173 236.755866,28.2137954 236.647242,28.0649638 C236.568325,27.9569408 236.307868,27.600165 236.184241,27.430629 C236.114625,27.3352087 236.064514,27.204681 236.064514,27.0582499 C236.064514,26.8452046 236.173738,26.6723679 236.345376,26.4362177 C236.559623,26.140955 238.809818,23.1139117 239.308228,22.4261656 C239.400648,22.2989385 239.440557,22.1912156 239.440557,22.0966955 C239.440557,22.0309816 239.422553,21.9703687 239.387445,21.9124564 C239.340635,21.8350399 239.275221,21.7237163 239.208306,21.6150932 C239.163896,21.5430779 239.085879,21.4953678 239.003961,21.4953678 C238.935846,21.4953678 238.86563,21.5304752 238.805917,21.6105923 C238.305107,22.2854357 235.442777,26.051836 235.322151,26.2135704 C235.244734,26.3173924 235.152614,26.4056112 234.992978,26.4056112 C234.869951,26.4056112 234.77153,26.3359964 234.68061,26.2114699 C234.598392,26.098646 234.350837,25.7589738 234.277321,25.6578523 C234.195103,25.5459285 234.161195,25.4502082 234.161195,25.3013765 C234.161195,25.1231387 234.248215,24.9794081 234.324431,24.8689847 C234.482866,24.6397359 237.08894,20.8676344 237.72928,19.9422377 C237.835804,19.7886051 237.889516,19.6667792 237.888916,19.5521548 C237.888916,19.4810397 237.867311,19.4126252 237.823501,19.3403098 C237.784493,19.2766963 237.706175,19.1485691 237.662066,19.0753535 C237.618856,19.0036383 237.548041,18.9622295 237.480826,18.9622295 C237.413611,18.9622295 237.343696,18.9967368 237.288183,19.0744533 C236.713257,19.8771239 234.300426,23.2474401 234.193603,23.3950715 C234.09278,23.534001 233.991658,23.6015153 233.86353,23.6015153 C233.737202,23.6015153 233.633979,23.5298001 233.547861,23.411875 C233.480046,23.3191553 233.324011,23.1070102 233.234292,22.9821837 C233.153574,22.8699599 233.105563,22.7748397 233.105563,22.6326094 C233.105563,22.475376 233.165276,22.3745546 233.265498,22.2245227 C233.358819,22.0855932 235.629418,18.6879712 236.360979,17.5948389 C236.447098,17.4661115 236.494509,17.373992 236.494509,17.2662691 C236.494509,17.2098571 236.484307,17.1336409 236.446498,17.0712276 C236.415291,17.0193166 236.310268,16.8467799 236.275161,16.7888676 C236.210046,16.6820449 236.142231,16.6655414 236.082818,16.6655414 C236.003001,16.6655414 235.937286,16.7111511 235.885675,16.7876674 C235.195523,17.8036833 233.302707,20.5903755 233.211186,20.7251041 C233.095961,20.89434 232.989138,20.9546529 232.869711,20.9546529 C232.746984,20.9546529 232.656965,20.8955403 232.553742,20.7539102 C232.485927,20.6611905 232.328692,20.4451446 232.263278,20.3557256 C232.198164,20.2669067 232.162156,20.1594839 232.162156,20.0403586 C232.162156,19.8939275 232.22877,19.7781028 232.297185,19.6637786 C232.369201,19.5428529 235.964592,13.5682833 235.964592,13.5682833 C235.964592,13.5682833 240.300846,9.96271708 241.103523,9.29207457 C241.775071,8.73065526 242.13605,8.58122351 242.603553,8.58122351 C242.916522,8.58122351 243.202184,8.67244289 243.585069,9.02111699 C244.1828,9.56573272 245.604513,10.861108 246.443498,11.6253704 C247.282182,12.3893327 247.577747,13.4566595 247.577747,15.4826901 L247.577747,21.9076554 L245.242633,21.9076554 C245.242633,21.9076554 245.164616,21.4746634 245.139111,21.3372342 C245.033787,20.767113 244.755926,20.4673493 244.32023,20.4673493 C243.904939,20.4673493 243.603973,20.8145231 243.223489,21.2643187 C242.039729,22.6629159 238.058153,27.3679157 237.403109,28.1435805 C237.307388,28.2570046 237.209566,28.3167173 237.067935,28.3167173 L237.067935,28.3167173 Z M259.065174,34.3524999 C258.957151,34.4314167 258.600372,34.691872 258.430835,34.8154983 C258.335414,34.8851131 258.204885,34.9352237 258.058453,34.9352237 C257.845406,34.9352237 257.672268,34.8260005 257.436116,34.6546641 C257.141151,34.4401185 254.114085,32.1902404 253.426334,31.6915345 C253.299106,31.5994149 253.191382,31.5592063 253.096861,31.5592063 C253.031147,31.5592063 252.970233,31.5775102 252.912621,31.6123176 C252.834904,31.6591276 252.723879,31.7245415 252.615255,31.7914557 C252.54324,31.8361652 252.495829,31.9135816 252.495829,31.9957991 C252.495829,32.0636135 252.530637,32.1341285 252.611054,32.1938412 C253.285303,32.6949477 257.052031,35.5572559 257.213467,35.6775815 C257.31729,35.7549979 257.405809,35.8474176 257.405809,36.0067514 C257.405809,36.1294775 257.336194,36.2278984 257.211367,36.3191178 C257.098842,36.4013353 256.759167,36.6488879 256.658345,36.7224035 C256.54582,36.8043209 256.450399,36.8382281 256.301566,36.8382281 C256.123327,36.8382281 255.979596,36.7512096 255.869171,36.6752935 C255.639921,36.5168598 251.867791,33.9111061 250.942087,33.27047 C250.788754,33.1639473 250.666627,33.110536 250.552602,33.1108361 C250.481186,33.1108361 250.412471,33.1324406 250.340455,33.17625 C250.276541,33.2152582 250.148413,33.2935749 250.075497,33.3376843 C250.003781,33.3808934 249.962372,33.4517085 249.962372,33.5189228 C249.962372,33.5861371 249.996579,33.6557518 250.074296,33.7115637 C250.877273,34.2864859 254.247614,36.6992986 254.395247,36.8061213 C254.534178,36.9069427 254.601992,37.0080642 254.601992,37.1361914 C254.601992,37.2625183 254.529977,37.3657402 254.412051,37.4518585 C254.31903,37.5193729 254.107484,37.6757061 253.982056,37.7654252 C253.869831,37.8461423 253.775011,37.8941525 253.632779,37.8941525 C253.475545,37.8941525 253.374422,37.8347399 253.224989,37.7345186 C253.085759,37.6411988 249.688111,35.3703162 248.594971,34.6387607 C248.466243,34.5526424 248.374122,34.5052324 248.266399,34.5052324 C248.209686,34.5052324 248.133769,34.5154345 248.071356,34.5532426 C248.019444,34.5844492 247.846906,34.6897716 247.788994,34.724879 C247.68217,34.7896928 247.665666,34.8575072 247.665666,34.9169198 C247.665666,34.9967368 247.711577,35.0621507 247.787793,35.1143618 C248.803817,35.8042084 251.59053,37.6970106 251.72526,37.7885301 C251.894797,37.9040546 251.95481,38.0105772 251.95481,38.1300026 C251.95481,38.2527287 251.895697,38.3430479 251.754066,38.4462698 C251.661345,38.5137842 251.445298,38.6710176 251.355878,38.7364315 C251.266759,38.8018454 251.159635,38.8372529 251.040509,38.8372529 C250.894077,38.8372529 250.778551,38.7706388 250.663926,38.7025243 C250.542999,38.630509 244.568385,35.035145 244.568385,35.035145 C244.568385,35.035145 240.962792,30.6989235 240.292144,29.896253 C239.730721,29.2247103 239.581288,28.8637335 239.581288,28.3965343 C239.581288,28.0832677 239.672508,27.797607 240.021185,27.4147256 C240.565804,26.8169986 241.861189,25.3952965 242.625158,24.5566183 C243.389426,23.7179401 244.45646,23.4220772 246.482806,23.4220772 L252.90782,23.4220772 L252.90782,25.7571734 C252.90782,25.7571734 252.475125,25.83519 252.337094,25.8606954 C251.767269,25.9660178 251.467803,26.2441769 251.467803,26.6795694 C251.467803,27.0948577 251.814679,27.3955215 252.264478,27.7763025 C253.663086,28.960054 258.368121,32.9416001 259.143792,33.5966393 C259.257217,33.6923596 259.31693,33.7901804 259.31693,33.9318105 C259.31693,34.1187502 259.214007,34.2438768 259.065174,34.3524999 L259.065174,34.3524999 Z M269.702815,20.3359214 C269.630799,20.4568471 266.035408,26.4314167 266.035408,26.4314167 C266.035408,26.4314167 261.699154,30.0369829 260.896477,30.7076254 C260.224929,31.2690447 259.86395,31.4184764 259.396447,31.4184764 C259.083478,31.4184764 258.797816,31.327257 258.414931,30.9785829 C257.8172,30.4339672 256.395487,29.138592 255.556802,28.3746296 C254.718118,27.6106673 254.422553,26.5433405 254.422553,24.5170099 L254.422553,18.0923446 L256.757367,18.0923446 C256.757367,18.0923446 256.835084,18.5250366 256.860889,18.6627658 C256.966213,19.2325869 257.244074,19.5323506 257.67977,19.5323506 C258.095061,19.5323506 258.395727,19.1854769 258.776511,18.7353813 C259.960271,17.3367841 263.941847,12.6317843 264.596891,11.8561194 C264.692612,11.7426953 264.790434,11.6829826 264.932065,11.6829826 C265.119306,11.6829826 265.244134,11.7859045 265.352758,11.9347361 C265.431675,12.0427591 265.692132,12.3995349 265.815459,12.5690709 C265.885375,12.6647913 265.935486,12.7950189 265.935486,12.9414501 C265.935486,13.1544953 265.826262,13.3276321 265.654624,13.5634822 C265.440377,13.858745 263.190182,16.8857882 262.691772,17.5735344 C262.599352,17.7007614 262.559443,17.8084843 262.559443,17.9030044 C262.559443,17.9687184 262.577447,18.0293312 262.612555,18.0872435 C262.659365,18.1649601 262.724779,18.2759836 262.791694,18.3846067 C262.836104,18.456622 262.914121,18.5043322 262.996039,18.5043322 C263.063854,18.5043322 263.13437,18.4692247 263.194083,18.3891077 C263.694893,17.7142643 266.557223,13.9478639 266.677849,13.7864296 C266.755566,13.6823075 266.847386,13.5940887 267.006721,13.5940887 C267.130049,13.5940887 267.22817,13.6637035 267.31939,13.7885301 C267.401308,13.901054 267.649163,14.2407262 267.722979,14.3418476 C267.804897,14.4537714 267.838504,14.5494918 267.838504,14.6983234 C267.838504,14.8765613 267.751785,15.0205919 267.675569,15.1307153 C267.517134,15.359964 264.91106,19.1320656 264.270419,20.0574622 C264.164196,20.2110949 264.110784,20.3332208 264.111084,20.4475451 C264.111084,20.5186602 264.132689,20.5873748 264.176499,20.6593901 C264.215507,20.7233037 264.293825,20.8514309 264.337934,20.9243464 C264.381144,20.9960617 264.451959,21.0374705 264.519174,21.0374705 C264.586389,21.0374705 264.656304,21.0032632 264.711817,20.9255467 C265.286743,20.122576 267.699274,16.7522599 267.806397,16.6046285 C267.90722,16.465699 268.008042,16.3978846 268.13647,16.3978846 C268.263098,16.3978846 268.366021,16.4698999 268.452139,16.5878249 C268.519654,16.6805446 268.675689,16.8926897 268.765708,17.0175162 C268.846126,17.1297401 268.894737,17.2248603 268.894737,17.3670905 C268.894737,17.524624 268.834724,17.6251453 268.734502,17.7751772 C268.641181,17.9141067 266.370582,21.3117287 265.639021,22.404861 C265.552902,22.5335884 265.505491,22.625708 265.505491,22.7331308 C265.505491,22.7901429 265.515393,22.866059 265.553502,22.9287724 C265.584709,22.9803833 265.689732,23.1532201 265.72514,23.2108323 C265.789954,23.317655 265.857769,23.3341585 265.917182,23.3341585 C265.996999,23.3341585 266.062714,23.2885488 266.114325,23.2120326 C266.804177,22.1960167 268.697293,19.4096245 268.788814,19.2745959 C268.904339,19.1053599 269.010862,19.0450471 269.130289,19.0450471 C269.253016,19.0450471 269.343035,19.1041596 269.446558,19.2457897 C269.513773,19.3385094 269.671008,19.5542553 269.736722,19.6439743 C269.801836,19.7330933 269.837844,19.840216 269.837844,19.9593414 C269.837844,20.1057725 269.77123,20.2215971 269.702815,20.3359214 L269.702815,20.3359214 Z" id="Logo"></path>
            </g>
        </g>
    </g>
</svg>