
<svg width="560px" height="207px" viewBox="196 299 560 207" version="1.1" xmlns="http://www.w3.org/2000/svg" xmlns:xlink="http://www.w3.org/1999/xlink">
    <!-- Generator: Sketch 42 (36781) - http://www.bohemiancoding.com/sketch -->
    <desc>Created with Sketch.</desc>
    <defs>
        <linearGradient x1="35.3165329%" y1="100%" x2="35.3165329%" y2="0%" id="linearGradient-1">
            <stop stop-color="#009777" offset="0%"></stop>
            <stop stop-color="#6DD6C0" offset="100%"></stop>
        </linearGradient>
    </defs>
    <text id="WATER-TEMPERATURE-Copy" stroke="none" fill="none" font-family="Montserrat-Regular, Montserrat" font-size="16" font-weight="normal" letter-spacing="-0.827586174">
        <tspan x="196.708965" y="501" fill="#58585B">WATER TEMPERATURE</tspan>
    </text>
    <text id="38.5°-(F)-Copy" stroke="none" fill="none" font-family="Montserrat-Regular, Montserrat" font-size="12" font-weight="normal" letter-spacing="-0.620689631">
        <tspan x="196.214207" y="438" fill="#58585B">38.5</tspan>
        <tspan x="218.607448" y="438" fill="#000000">° </tspan>
        <tspan x="225.646069" y="438" fill="#58585B">(F)</tspan>
    </text>
    <text id="39°-(F)-Copy" stroke="none" fill="none" font-family="Montserrat-Regular, Montserrat" font-size="12" font-weight="normal" letter-spacing="-0.620689631">
        <tspan x="205.484827" y="374" fill="#58585B">39</tspan>
        <tspan x="218.607448" y="374" fill="#000000">° </tspan>
        <tspan x="225.646069" y="374" fill="#58585B">(F)</tspan>
    </text>
    <text id="39.5°-(F)-Copy" stroke="none" fill="none" font-family="Montserrat-Regular, Montserrat" font-size="12" font-weight="normal" letter-spacing="-0.620689631">
        <tspan x="196.562207" y="311" fill="#58585B">39.5</tspan>
        <tspan x="218.607448" y="311" fill="#000000">° </tspan>
        <tspan x="225.646069" y="311" fill="#58585B">(F)</tspan>
    </text>
    <text id="12:00-copy-2" stroke="none" fill="none" font-family="Montserrat-Regular, Montserrat" font-size="12" font-weight="normal" letter-spacing="-0.620689631">
        <tspan x="249" y="463" fill="#58585B">12:00</tspan>
    </text>
    <text id="16:00-copy" stroke="none" fill="none" font-family="Montserrat-Regular, Montserrat" font-size="12" font-weight="normal" letter-spacing="-0.620689631">
        <tspan x="488" y="463" fill="#58585B">16:00</tspan>
    </text>
    <text id="20:00-copy" stroke="none" fill="none" font-family="Montserrat-Regular, Montserrat" font-size="12" font-weight="normal" letter-spacing="-0.620689631">
        <tspan x="723.751448" y="463" fill="#58585B">20:00</tspan>
    </text>
    <rect id="Rectangle-219-Copy" stroke="none" fill="#DDDDDD" fill-rule="evenodd" x="249" y="299" width="507" height="1"></rect>
    <rect id="Rectangle-219-Copy-2" stroke="none" fill="#DDDDDD" fill-rule="evenodd" x="249" y="440" width="507" height="1"></rect>
    <rect id="Rectangle-219-Copy-3" stroke="none" fill="#DDDDDD" fill-rule="evenodd" x="249" y="369" width="507" height="1"></rect>
    <rect id="Rectangle-219-Copy-4" stroke="none" fill="#DDDDDD" fill-rule="evenodd" x="502" y="299" width="1" height="141"></rect>
    <rect id="Rectangle-219-Copy-5" stroke="none" fill="#DDDDDD" fill-rule="evenodd" x="249" y="299" width="1" height="141"></rect>
    <rect id="Rectangle-219-Copy-6" stroke="none" fill="#DDDDDD" fill-rule="evenodd" x="755" y="299" width="1" height="141"></rect>
    <polyline id="Path-3214-Copy" stroke="url(#linearGradient-1)" stroke-width="6" stroke-linecap="round" stroke-linejoin="round" fill="none" points="290 344.804391 345.645281 344.804391 351.552537 310 357.91341 344.93406 363.31663 310.140278 453.053671 310.140278 458.347046 344.476682 486.378757 344.476682 497.76504 412.778752 509.351463 412.778752 514.184127 430 520.723116 430 532.03303 378.98637 543.386831 378.98637 548.560638 345.204597 553.527869 345.204597 559.669796 378.606793 565.507898 378.606793 571.468159 412.874825 599.423554 412.874825 606.046482 379.189715 610.415893 379.189715 616.197986 412.825315 633.637159 412.825315 638.490552 379.256907 644.241933 379.256907 649.616844 412.736904 656.716424 378.770648 684.102092 378.770648 689.522232 412.731599 699.788632 412.731599 706.411578 344.268032 715 344.268032"></polyline>
</svg>