<?xml version="1.0" encoding="utf-8"?>
<!-- Generator: Adobe Illustrator 21.0.0, SVG Export Plug-In . SVG Version: 6.00 Build 0)  -->
<svg version="1.1" id="Layer_1" xmlns="http://www.w3.org/2000/svg" xmlns:xlink="http://www.w3.org/1999/xlink" x="0px" y="0px"
	 viewBox="0 0 252.7 67.1" style="enable-background:new 0 0 252.7 67.1;" xml:space="preserve">
<style type="text/css">
	.st0{fill:#333333;}
</style>
<g>
	<path class="st0" d="M33.5,21c-5,0-9.1,3.8-9.5,8.7c0,0.1,0,0.3,0,0.4v13c0,1.6,1.3,2.8,2.8,2.8c1.6,0,2.8-1.3,2.8-2.8v-2.3h7.8
		v2.3c0,1.6,1.3,2.8,2.8,2.8s2.8-1.3,2.8-2.8v-13c0-0.1,0-0.3,0-0.4C42.6,24.9,38.5,21,33.5,21z M29.6,35.2v-4.6
		c0-2.1,1.7-3.9,3.9-3.9s3.9,1.7,3.9,3.9v4.6H29.6z"/>
	<path class="st0" d="M33.5,0C15,0,0,15,0,33.5s15,33.5,33.5,33.5s33.5-15,33.5-33.5S52,0,33.5,0z M33.5,61.4
		c-15.4,0-27.9-12.5-27.9-27.9S18.2,5.7,33.5,5.7s27.9,12.5,27.9,27.9S48.9,61.4,33.5,61.4z"/>
	<path class="st0" d="M102.9,21c-5,0-9.1,3.8-9.5,8.7c0,0.1,0,0.3,0,0.4v13c0,1.6,1.3,2.8,2.8,2.8s2.8-1.3,2.8-2.8v-2.3h7.8v2.3
		c0,1.6,1.3,2.8,2.8,2.8s2.8-1.3,2.8-2.8v-13c0-0.1,0-0.3,0-0.4C112,24.9,107.9,21,102.9,21z M99.1,35.2v-4.6c0-2.1,1.7-3.9,3.9-3.9
		s3.9,1.7,3.9,3.9v4.6H99.1z"/>
	<path class="st0" d="M161.1,21c-2.6,0-5,1.1-6.7,2.8c-1.7-1.7-4.1-2.8-6.7-2.8c-5,0-9.1,3.8-9.5,8.7c0,0.1,0,0.3,0,0.4v13
		c0,1.6,1.3,2.8,2.8,2.8s2.8-1.3,2.8-2.8V30.6c0-2.1,1.7-3.9,3.9-3.9c2.1,0,3.9,1.7,3.9,3.9v7c0,1.6,1.3,2.8,2.8,2.8
		s2.8-1.3,2.8-2.8v-7c0-2.1,1.7-3.9,3.9-3.9c2.1,0,3.9,1.7,3.9,3.9v12.6c0,1.6,1.3,2.8,2.8,2.8s2.8-1.3,2.8-2.8v-13
		c0-0.1,0-0.3,0-0.4C170.2,24.9,166.1,21,161.1,21z"/>
	<path class="st0" d="M132.8,37.6c-1.4-0.8-3.1-0.3-3.9,1c-0.7,1.2-2,1.9-3.4,1.9c-2.1,0-3.9-1.7-3.9-3.9v-6.1c0,0,0,0,0,0
		c0-2.1,1.7-3.9,3.9-3.9c1.3,0,2.5,0.6,3.2,1.7c0.5,0.8,1.4,1.2,2.3,1.2c0.5,0,1.1-0.2,1.6-0.5c1.3-0.9,1.6-2.6,0.8-3.9
		c-1.8-2.6-4.7-4.2-7.9-4.2c-5,0-9,3.8-9.5,8.6c0,0.2,0,0.3,0,0.5v7.4c0,0.3,0.1,0.7,0.2,1c0.8,4.4,4.7,7.7,9.4,7.7
		c3.4,0,6.6-1.8,8.3-4.8C134.6,40.1,134.1,38.4,132.8,37.6z"/>
	<path class="st0" d="M229,37.5c-1.4-0.8-3.1-0.3-3.9,1c-0.7,1.2-2,1.9-3.4,1.9c-2.1,0-3.9-1.7-3.9-3.9v-6.1c0,0,0,0,0,0
		c0-2.1,1.7-3.9,3.9-3.9c1.3,0,2.5,0.6,3.2,1.7c0.5,0.8,1.4,1.2,2.3,1.2c0.5,0,1.1-0.2,1.6-0.5c1.3-0.9,1.6-2.6,0.8-3.9
		c-1.8-2.6-4.7-4.2-7.9-4.2c-5,0-9,3.8-9.5,8.6c0,0.2,0,0.3,0,0.5v7.4c0,0.3,0.1,0.7,0.2,1c0.8,4.4,4.7,7.7,9.4,7.7
		c3.4,0,6.6-1.8,8.3-4.8C230.8,40,230.3,38.3,229,37.5z"/>
	<path class="st0" d="M252.6,29.8C252.6,29.8,252.6,29.8,252.6,29.8c0-0.1,0-0.2,0-0.3c-0.2-1.5-0.7-3-1.6-4.3
		c-1.8-2.6-4.7-4.2-7.9-4.2c-5,0-9,3.8-9.5,8.6c0,0.1,0,0.3,0,0.5v7.4c0,0.3,0.1,0.7,0.2,1c0.8,4.4,4.7,7.7,9.4,7.7
		c0.1,0,0.2,0,0.3,0c3.1-0.1,5.9-1.6,7.6-4.2c0.7-1.1,1.2-2.2,1.4-3.5c0.1-0.3,0.2-0.6,0.2-1v-7.4C252.7,30,252.6,29.9,252.6,29.8z
		 M243.1,40.4c0,0-0.1,0-0.1,0c-2.1-0.1-3.8-1.8-3.8-3.9v-6.1c0-2.1,1.7-3.9,3.9-3.9c1.3,0,2.5,0.6,3.2,1.7c0.4,0.6,0.7,1.4,0.7,2.2
		v6c0,0.8-0.2,1.5-0.7,2.2C245.6,39.8,244.4,40.4,243.1,40.4z"/>
	<path class="st0" d="M192.2,25.2c-1.8-2.6-4.7-4.2-7.9-4.2c-5,0-9.2,3.9-9.5,8.9c0,0.1,0,0.2,0,0.3v7.4c0,0.4,0.1,0.8,0.2,1.1
		c1,4.2,4.8,7.4,9.3,7.4c0,0,0,0,0,0c3.4,0,6.6-1.8,8.3-4.8c0.8-1.4,0.3-3.1-1-3.9c-1.4-0.8-3.1-0.3-3.9,1c-0.7,1.2-2,1.9-3.4,1.9
		c0,0,0,0,0,0c-2.1,0-3.9-1.7-3.9-3.9v-1H191c1.6,0,2.8-1.3,2.8-2.8v-3.3c0-0.4-0.1-0.8-0.3-1.2C193.3,27.2,192.9,26.1,192.2,25.2z
		 M188.1,29.9h-7.7c0.3-1.9,1.9-3.3,3.8-3.3c1.3,0,2.5,0.6,3.2,1.7C187.8,28.8,188,29.3,188.1,29.9z"/>
</g>
</svg>
