<?xml version="1.0" encoding="utf-8"?>
<!-- Generator: Adobe Illustrator 16.0.4, SVG Export Plug-In . SVG Version: 6.00 Build 0)  -->
<!DOCTYPE svg PUBLIC "-//W3C//DTD SVG 1.1//EN" "http://www.w3.org/Graphics/SVG/1.1/DTD/svg11.dtd">
<svg version="1.1" id="Layer_1" xmlns="http://www.w3.org/2000/svg" xmlns:xlink="http://www.w3.org/1999/xlink" x="0px" y="0px"
	 width="64px" height="64px" viewBox="0 0 64 64" enable-background="new 0 0 64 64" xml:space="preserve">
<g id="Layer_3">
</g>
<rect x="4.5" y="4" width="3.999" height="3.999"/>
<rect x="38.5" y="4" width="4" height="3.999"/>
<rect x="55.501" y="4" width="3.999" height="3.999"/>
<rect x="4.5" y="56.001" width="3.999" height="3.999"/>
<rect x="38.5" y="56.001" width="4" height="3.999"/>
<rect x="55.501" y="56.001" width="3.999" height="3.999"/>
<rect x="4.5" y="38.667" width="3.999" height="4"/>
<rect x="21.5" y="4" width="3.999" height="3.999"/>
<rect x="4.5" y="21.333" width="3.999" height="3.999"/>
<rect x="38.5" y="21.333" width="4" height="3.999"/>
<rect x="55.501" y="21.333" width="3.999" height="3.999"/>
<rect x="21.5" y="21.333" width="3.999" height="3.999"/>
<rect x="21.5" y="56.001" width="3.999" height="3.999"/>
<rect x="21.5" y="38.667" width="3.999" height="4"/>
<rect x="38.5" y="38.667" width="4" height="4"/>
<rect x="55.501" y="38.667" width="3.999" height="4"/>
</svg>
