<?xml version="1.0" encoding="utf-8"?>
<!-- Generator: Adobe Illustrator 16.0.4, SVG Export Plug-In . SVG Version: 6.00 Build 0)  -->
<!DOCTYPE svg PUBLIC "-//W3C//DTD SVG 1.1//EN" "http://www.w3.org/Graphics/SVG/1.1/DTD/svg11.dtd">
<svg version="1.1" id="Layer_1" xmlns="http://www.w3.org/2000/svg" xmlns:xlink="http://www.w3.org/1999/xlink" x="0px" y="0px"
	 width="64px" height="64px" viewBox="0 0 64 64" enable-background="new 0 0 64 64" xml:space="preserve">
<g id="Layer_3">
</g>
<rect x="5.5" y="5" width="1" height="1"/>
<rect x="31.75" y="5" width="1" height="1"/>
<rect x="58" y="5" width="1" height="1"/>
<rect x="5.5" y="58" width="1" height="1"/>
<rect x="31.75" y="58" width="1" height="1"/>
<rect x="58" y="58" width="1" height="1"/>
<rect x="5.5" y="31.5" width="1" height="1"/>
<rect x="18.625" y="5" width="1" height="1"/>
<rect x="18.625" y="58" width="1" height="1"/>
<rect x="18.625" y="31.5" width="1" height="1"/>
<rect x="44.875" y="5" width="1" height="1"/>
<rect x="5.5" y="18.25" width="1" height="1"/>
<rect x="31.75" y="18.25" width="1" height="1"/>
<rect x="58" y="18.25" width="1" height="1"/>
<rect x="18.625" y="18.25" width="1" height="1"/>
<rect x="44.875" y="18.25" width="1" height="1"/>
<rect x="5.5" y="44.75" width="1" height="1"/>
<rect x="31.75" y="44.75" width="1" height="1"/>
<rect x="58" y="44.75" width="1" height="1"/>
<rect x="18.625" y="44.75" width="1" height="1"/>
<rect x="44.875" y="44.75" width="1" height="1"/>
<rect x="44.875" y="58" width="1" height="1"/>
<rect x="44.875" y="31.5" width="1" height="1"/>
<rect x="31.75" y="31.5" width="1" height="1"/>
<rect x="58" y="31.5" width="1" height="1"/>
</svg>
