<?xml version="1.0" encoding="utf-8"?>
<!-- Generator: Adobe Illustrator 16.0.4, SVG Export Plug-In . SVG Version: 6.00 Build 0)  -->
<!DOCTYPE svg PUBLIC "-//W3C//DTD SVG 1.1//EN" "http://www.w3.org/Graphics/SVG/1.1/DTD/svg11.dtd">
<svg version="1.1" id="Layer_1" xmlns="http://www.w3.org/2000/svg" xmlns:xlink="http://www.w3.org/1999/xlink" x="0px" y="0px"
	 width="64px" height="64px" viewBox="0 0 64 64" enable-background="new 0 0 64 64" xml:space="preserve">
<title>arrow-book</title>
<desc>Created with Sketch.</desc>
<g>
	<defs>
		<rect id="SVGID_1_" x="4" y="4" width="56" height="56"/>
	</defs>
	<clipPath id="SVGID_2_">
		<use xlink:href="#SVGID_1_"  overflow="visible"/>
	</clipPath>
	<g clip-path="url(#SVGID_2_)">
		<defs>
			<rect id="SVGID_3_" width="64" height="64"/>
		</defs>
		<clipPath id="SVGID_4_">
			<use xlink:href="#SVGID_3_"  overflow="visible"/>
		</clipPath>
		
			<rect x="4" y="4" clip-path="url(#SVGID_4_)" fill="none" stroke="#4A90E2" stroke-width="2" stroke-miterlimit="10" width="56" height="56"/>
	</g>
</g>
<g>
	<defs>
		<path id="SVGID_5_" d="M32,59c14.912,0,27-12.088,27-27C59,17.088,46.912,5,32,5C17.088,5,5,17.088,5,32C5,46.912,17.088,59,32,59
			z M-6-6h76v76H-6V-6z"/>
	</defs>
	<clipPath id="SVGID_6_">
		<use xlink:href="#SVGID_5_"  overflow="visible"/>
	</clipPath>
	<g clip-path="url(#SVGID_6_)">
		<defs>
			<rect id="SVGID_7_" width="64" height="64"/>
		</defs>
		<clipPath id="SVGID_8_">
			<use xlink:href="#SVGID_7_"  overflow="visible"/>
		</clipPath>
		
			<circle clip-path="url(#SVGID_8_)" fill="none" stroke="#4A90E2" stroke-width="2" stroke-miterlimit="10" cx="32" cy="32" r="27"/>
	</g>
</g>
<g>
	<defs>
		<rect id="SVGID_9_" width="64" height="64"/>
	</defs>
	<clipPath id="SVGID_10_">
		<use xlink:href="#SVGID_9_"  overflow="visible"/>
	</clipPath>
	
		<line clip-path="url(#SVGID_10_)" fill="none" stroke="#4A90E2" stroke-linecap="square" stroke-miterlimit="10" x1="4.5" y1="59.5" x2="58.832" y2="5.167"/>
	
		<line clip-path="url(#SVGID_10_)" fill="none" stroke="#4A90E2" stroke-linecap="square" stroke-miterlimit="10" x1="4.998" y1="4.998" x2="59.002" y2="59.002"/>
</g>
<g>
	<defs>
		<rect id="SVGID_11_" x="12" y="12" width="40" height="40"/>
	</defs>
	<clipPath id="SVGID_12_">
		<use xlink:href="#SVGID_11_"  overflow="visible"/>
	</clipPath>
	<g clip-path="url(#SVGID_12_)">
		<defs>
			<rect id="SVGID_13_" width="64" height="64"/>
		</defs>
		<clipPath id="SVGID_14_">
			<use xlink:href="#SVGID_13_"  overflow="visible"/>
		</clipPath>
		
			<rect x="12" y="12" clip-path="url(#SVGID_14_)" fill="none" stroke="#4A90E2" stroke-width="2" stroke-miterlimit="10" stroke-dasharray="1,1" width="40" height="40"/>
	</g>
</g>
</svg>
