<?xml version="1.0" encoding="utf-8"?>
<!-- Generator: Adobe Illustrator 16.0.4, SVG Export Plug-In . SVG Version: 6.00 Build 0)  -->
<!DOCTYPE svg PUBLIC "-//W3C//DTD SVG 1.1//EN" "http://www.w3.org/Graphics/SVG/1.1/DTD/svg11.dtd">
<svg version="1.1" id="Layer_1" xmlns="http://www.w3.org/2000/svg" xmlns:xlink="http://www.w3.org/1999/xlink" x="0px" y="0px"
	 width="400px" height="200px" viewBox="0 0 400 200" enable-background="new 0 0 400 200" xml:space="preserve">
<title>Group</title>
<desc>Created with Sketch.</desc>
<g id="Page-1">
	<g id="Elements---Library" transform="translate(-124.000000, -582.000000)">
		<g id="Group" transform="translate(124.000000, 583.000000)">
			<polyline id="Rectangle-421-Copy-2_1_" fill="none" stroke="#00A651" stroke-width="3" points="3,199 3,1 397,1 397,199 			"/>
		</g>
	</g>
</g>
<g>
	<path fill="#00A651" d="M43.836,39.014v7.672h8.092v-7.672h4.396v19.992h-4.396v-8.624h-8.092v8.624H39.44V39.014H43.836z"/>
	<path fill="#00A651" d="M64.024,55.534c0.597,0.578,1.456,0.868,2.576,0.868c0.802,0,1.493-0.201,2.072-0.603
		c0.578-0.401,0.933-0.826,1.064-1.274h3.5c-0.56,1.736-1.419,2.979-2.576,3.725c-1.157,0.747-2.558,1.12-4.2,1.12
		c-1.139,0-2.166-0.183-3.08-0.546c-0.915-0.364-1.689-0.883-2.324-1.555c-0.635-0.672-1.125-1.474-1.47-2.407
		c-0.346-0.934-0.518-1.96-0.518-3.08c0-1.083,0.177-2.091,0.532-3.024c0.354-0.934,0.858-1.74,1.512-2.422
		c0.653-0.682,1.433-1.218,2.338-1.61c0.905-0.392,1.909-0.588,3.01-0.588c1.232,0,2.305,0.238,3.22,0.714
		c0.915,0.477,1.666,1.116,2.254,1.918c0.588,0.803,1.012,1.718,1.274,2.744c0.261,1.027,0.354,2.101,0.28,3.22H63.044
		C63.1,54.021,63.426,54.955,64.024,55.534z M68.518,47.918c-0.476-0.522-1.2-0.784-2.17-0.784c-0.635,0-1.162,0.107-1.582,0.322
		s-0.756,0.48-1.008,0.798c-0.252,0.318-0.43,0.653-0.532,1.008c-0.103,0.354-0.164,0.672-0.182,0.952h6.468
		C69.325,49.206,68.994,48.44,68.518,47.918z"/>
	<path fill="#00A651" d="M75.672,48.981c0.056-0.933,0.289-1.708,0.7-2.323c0.411-0.616,0.933-1.11,1.568-1.484
		c0.635-0.373,1.349-0.639,2.142-0.798c0.793-0.158,1.591-0.238,2.394-0.238c0.728,0,1.465,0.052,2.212,0.154
		s1.428,0.304,2.044,0.602c0.616,0.299,1.12,0.714,1.512,1.246c0.392,0.532,0.588,1.237,0.588,2.114v7.532
		c0,0.653,0.037,1.278,0.112,1.876c0.074,0.598,0.205,1.045,0.392,1.344h-4.032c-0.075-0.224-0.136-0.452-0.182-0.686
		c-0.047-0.233-0.08-0.472-0.098-0.715c-0.635,0.654-1.381,1.111-2.24,1.372c-0.859,0.262-1.736,0.393-2.632,0.393
		c-0.691,0-1.335-0.084-1.932-0.252c-0.598-0.168-1.12-0.43-1.568-0.784c-0.448-0.354-0.798-0.803-1.05-1.344
		c-0.252-0.542-0.378-1.186-0.378-1.933c0-0.821,0.145-1.498,0.434-2.029c0.289-0.532,0.662-0.957,1.12-1.274
		c0.457-0.317,0.98-0.556,1.568-0.714c0.588-0.158,1.18-0.284,1.778-0.378c0.597-0.094,1.185-0.168,1.764-0.225
		c0.578-0.056,1.092-0.14,1.54-0.252c0.448-0.111,0.802-0.274,1.064-0.489c0.261-0.215,0.382-0.527,0.364-0.938
		c0-0.429-0.07-0.77-0.21-1.021c-0.14-0.253-0.327-0.448-0.56-0.589c-0.233-0.14-0.504-0.232-0.812-0.279s-0.64-0.07-0.994-0.07
		c-0.784,0-1.4,0.168-1.848,0.504c-0.448,0.336-0.709,0.896-0.784,1.68h-3.976V48.981z M84.855,51.922
		c-0.168,0.149-0.378,0.266-0.63,0.35s-0.523,0.154-0.812,0.21c-0.29,0.057-0.593,0.104-0.91,0.141s-0.635,0.084-0.952,0.14
		c-0.299,0.056-0.593,0.131-0.882,0.225c-0.29,0.093-0.542,0.219-0.756,0.378c-0.215,0.158-0.388,0.359-0.518,0.602
		c-0.131,0.243-0.196,0.551-0.196,0.924c0,0.355,0.065,0.654,0.196,0.896c0.13,0.242,0.308,0.434,0.532,0.573
		c0.224,0.141,0.485,0.238,0.784,0.295c0.299,0.056,0.606,0.084,0.924,0.084c0.784,0,1.39-0.131,1.82-0.393
		c0.429-0.261,0.747-0.574,0.952-0.938c0.205-0.364,0.331-0.732,0.378-1.106c0.046-0.373,0.07-0.672,0.07-0.896V51.922z"/>
	<path fill="#00A651" d="M102.188,57.158c-0.467,0.783-1.078,1.349-1.834,1.693c-0.756,0.346-1.61,0.519-2.562,0.519
		c-1.083,0-2.035-0.21-2.856-0.63c-0.822-0.42-1.498-0.989-2.03-1.708c-0.532-0.719-0.934-1.545-1.204-2.479
		c-0.271-0.933-0.406-1.904-0.406-2.912c0-0.97,0.135-1.908,0.406-2.813c0.271-0.905,0.672-1.703,1.204-2.395
		c0.532-0.69,1.199-1.246,2.002-1.666c0.803-0.42,1.736-0.63,2.8-0.63c0.858,0,1.675,0.183,2.45,0.546
		c0.774,0.364,1.386,0.901,1.834,1.61h0.056v-7.28h3.976v19.992h-3.78v-1.848L102.188,57.158L102.188,57.158z M102.02,50.004
		c-0.112-0.551-0.304-1.036-0.574-1.456s-0.621-0.761-1.05-1.022c-0.43-0.261-0.971-0.392-1.624-0.392
		c-0.654,0-1.204,0.131-1.652,0.392c-0.448,0.262-0.808,0.607-1.078,1.036c-0.271,0.43-0.467,0.92-0.588,1.471
		c-0.122,0.551-0.182,1.124-0.182,1.722c0,0.56,0.065,1.12,0.196,1.68c0.13,0.561,0.34,1.06,0.63,1.498
		c0.289,0.439,0.653,0.794,1.092,1.064c0.438,0.271,0.966,0.406,1.582,0.406c0.653,0,1.199-0.131,1.638-0.393
		c0.438-0.261,0.789-0.611,1.05-1.05c0.261-0.438,0.448-0.938,0.56-1.498s0.168-1.139,0.168-1.736S102.131,50.555,102.02,50.004z"/>
	<path fill="#00A651" d="M113.275,55.534c0.597,0.578,1.456,0.868,2.576,0.868c0.802,0,1.493-0.201,2.072-0.603
		c0.578-0.401,0.933-0.826,1.064-1.274h3.5c-0.56,1.736-1.419,2.979-2.576,3.725c-1.157,0.747-2.558,1.12-4.2,1.12
		c-1.139,0-2.166-0.183-3.08-0.546c-0.915-0.364-1.689-0.883-2.324-1.555c-0.635-0.672-1.125-1.474-1.47-2.407
		c-0.346-0.934-0.518-1.96-0.518-3.08c0-1.083,0.177-2.091,0.532-3.024c0.354-0.934,0.858-1.74,1.512-2.422
		c0.653-0.682,1.433-1.218,2.338-1.61c0.905-0.392,1.909-0.588,3.01-0.588c1.232,0,2.305,0.238,3.22,0.714
		c0.915,0.477,1.666,1.116,2.254,1.918c0.588,0.803,1.012,1.718,1.274,2.744c0.261,1.027,0.354,2.101,0.28,3.22h-10.444
		C112.351,54.021,112.677,54.955,113.275,55.534z M117.769,47.918c-0.476-0.522-1.2-0.784-2.17-0.784
		c-0.635,0-1.162,0.107-1.582,0.322s-0.756,0.48-1.008,0.798c-0.252,0.318-0.43,0.653-0.532,1.008
		c-0.103,0.354-0.164,0.672-0.182,0.952h6.468C118.576,49.206,118.245,48.44,117.769,47.918z"/>
	<path fill="#00A651" d="M128.871,44.53v2.688h0.056c0.186-0.448,0.438-0.863,0.756-1.246c0.317-0.382,0.681-0.709,1.092-0.979
		s0.85-0.48,1.316-0.63c0.466-0.149,0.952-0.225,1.456-0.225c0.261,0,0.551,0.047,0.868,0.141v3.695
		c-0.187-0.037-0.411-0.069-0.672-0.098c-0.262-0.028-0.514-0.042-0.756-0.042c-0.728,0-1.344,0.121-1.848,0.364
		c-0.504,0.242-0.91,0.573-1.218,0.993c-0.308,0.421-0.527,0.91-0.658,1.471c-0.131,0.56-0.196,1.167-0.196,1.819v6.524h-3.976
		V44.53H128.871z"/>
	<path fill="#00A651" d="M147.112,55.408c0.177,0.308,0.406,0.56,0.686,0.756c0.28,0.195,0.602,0.341,0.966,0.434
		c0.364,0.094,0.742,0.141,1.134,0.141c0.28,0,0.574-0.033,0.882-0.099c0.308-0.066,0.588-0.168,0.84-0.308
		c0.252-0.141,0.462-0.326,0.63-0.561c0.168-0.232,0.252-0.526,0.252-0.882c0-0.597-0.397-1.045-1.19-1.344
		c-0.794-0.299-1.9-0.598-3.318-0.896c-0.579-0.13-1.144-0.284-1.694-0.462c-0.551-0.177-1.041-0.41-1.47-0.699
		c-0.43-0.29-0.775-0.653-1.036-1.093c-0.262-0.438-0.392-0.975-0.392-1.609c0-0.934,0.182-1.698,0.546-2.296
		c0.364-0.598,0.845-1.068,1.442-1.414c0.597-0.346,1.269-0.588,2.016-0.729c0.747-0.14,1.512-0.21,2.296-0.21
		c0.784,0,1.544,0.075,2.282,0.225c0.737,0.149,1.395,0.401,1.974,0.756c0.578,0.354,1.059,0.826,1.442,1.414
		c0.382,0.588,0.611,1.33,0.686,2.226h-3.78c-0.056-0.766-0.345-1.283-0.868-1.554s-1.139-0.406-1.848-0.406
		c-0.224,0-0.467,0.014-0.728,0.042c-0.262,0.028-0.5,0.089-0.714,0.182c-0.215,0.094-0.397,0.229-0.546,0.406
		c-0.15,0.178-0.224,0.416-0.224,0.714c0,0.355,0.13,0.645,0.392,0.868c0.261,0.224,0.602,0.406,1.022,0.546
		c0.42,0.141,0.9,0.267,1.442,0.378c0.541,0.112,1.092,0.234,1.652,0.364c0.579,0.131,1.144,0.29,1.694,0.476
		c0.55,0.188,1.04,0.435,1.47,0.742c0.429,0.309,0.774,0.691,1.036,1.148c0.261,0.457,0.392,1.021,0.392,1.693
		c0,0.952-0.192,1.75-0.574,2.395c-0.383,0.644-0.882,1.162-1.498,1.554c-0.616,0.393-1.321,0.668-2.114,0.826
		c-0.794,0.158-1.601,0.238-2.422,0.238c-0.84,0-1.662-0.084-2.464-0.252c-0.802-0.168-1.517-0.448-2.142-0.84
		c-0.625-0.393-1.139-0.91-1.54-1.555c-0.402-0.644-0.621-1.451-0.658-2.422h3.78C146.846,54.731,146.935,55.1,147.112,55.408z"/>
	<path fill="#00A651" d="M166.754,44.53v2.659h-2.912v7.168c0,0.673,0.112,1.12,0.336,1.345c0.224,0.224,0.672,0.336,1.344,0.336
		c0.224,0,0.438-0.01,0.644-0.028c0.205-0.019,0.401-0.046,0.588-0.084v3.08c-0.336,0.056-0.709,0.093-1.12,0.112
		c-0.411,0.019-0.812,0.027-1.204,0.027c-0.616,0-1.2-0.042-1.75-0.126c-0.551-0.084-1.036-0.247-1.456-0.489
		c-0.42-0.243-0.751-0.589-0.994-1.036c-0.243-0.448-0.364-1.036-0.364-1.765v-8.54h-2.408V44.53h2.408v-4.341h3.976v4.341H166.754z
		"/>
	<path fill="#00A651" d="M174.006,63.317c-0.766,0.505-1.83,0.757-3.192,0.757c-0.411,0-0.817-0.015-1.218-0.042
		c-0.402-0.028-0.808-0.062-1.218-0.099v-3.275c0.373,0.037,0.756,0.074,1.148,0.111s0.784,0.047,1.176,0.028
		c0.522-0.056,0.91-0.262,1.162-0.616c0.252-0.354,0.378-0.747,0.378-1.176c0-0.317-0.056-0.616-0.168-0.896l-5.068-13.579h4.228
		l3.276,9.911h0.056l3.164-9.911h4.116l-6.048,16.268C175.368,61.974,174.771,62.813,174.006,63.317z"/>
	<path fill="#00A651" d="M187.278,39.014v19.992h-3.976V39.014H187.278z"/>
	<path fill="#00A651" d="M194.67,55.534c0.598,0.578,1.455,0.868,2.576,0.868c0.802,0,1.492-0.201,2.07-0.603
		c0.578-0.401,0.934-0.826,1.063-1.274h3.5c-0.561,1.736-1.418,2.979-2.574,3.725c-1.157,0.747-2.559,1.12-4.2,1.12
		c-1.14,0-2.166-0.183-3.08-0.546c-0.916-0.364-1.689-0.883-2.324-1.555c-0.635-0.672-1.125-1.474-1.47-2.407
		c-0.346-0.934-0.518-1.96-0.518-3.08c0-1.083,0.177-2.091,0.532-3.024c0.354-0.934,0.858-1.74,1.512-2.422
		c0.653-0.682,1.433-1.218,2.338-1.61c0.904-0.392,1.908-0.588,3.011-0.588c1.231,0,2.305,0.238,3.22,0.714
		c0.915,0.477,1.666,1.116,2.255,1.918c0.588,0.803,1.012,1.718,1.272,2.744c0.263,1.027,0.354,2.101,0.278,3.22H193.69
		C193.746,54.021,194.072,54.955,194.67,55.534z M199.164,47.918c-0.477-0.522-1.2-0.784-2.171-0.784
		c-0.636,0-1.161,0.107-1.582,0.322c-0.42,0.215-0.757,0.48-1.009,0.798c-0.252,0.318-0.43,0.653-0.531,1.008
		s-0.164,0.672-0.182,0.952h6.468C199.971,49.206,199.639,48.44,199.164,47.918z"/>
	<path fill="#00A651" d="M219.758,59.006V46.294h-4.929v-2.996c0.69,0.019,1.358-0.032,2.003-0.154
		c0.643-0.121,1.223-0.336,1.734-0.644c0.514-0.309,0.947-0.714,1.303-1.218c0.355-0.504,0.588-1.13,0.699-1.876h3.164v19.6H219.758
		z"/>
</g>
<g>
	<path fill="#00A651" d="M42.48,85.298v6.028h6.358v-6.028h3.454v15.708h-3.454V94.23H42.48v6.776h-3.454V85.298H42.48z"/>
	<path fill="#00A651" d="M58.342,98.277c0.469,0.455,1.144,0.683,2.024,0.683c0.63,0,1.173-0.157,1.628-0.474
		c0.455-0.314,0.733-0.648,0.836-1h2.75c-0.44,1.363-1.115,2.339-2.024,2.926c-0.91,0.587-2.01,0.88-3.3,0.88
		c-0.895,0-1.701-0.144-2.42-0.429c-0.719-0.286-1.328-0.693-1.826-1.223c-0.499-0.526-0.884-1.158-1.155-1.892
		s-0.407-1.54-0.407-2.42c0-0.851,0.139-1.643,0.418-2.376c0.278-0.733,0.674-1.368,1.188-1.903
		c0.513-0.535,1.125-0.957,1.837-1.265c0.711-0.309,1.5-0.462,2.365-0.462c0.968,0,1.812,0.187,2.53,0.561
		c0.718,0.374,1.309,0.877,1.771,1.507c0.462,0.631,0.795,1.35,1.001,2.156c0.205,0.807,0.278,1.65,0.22,2.53h-8.206
		C57.616,97.09,57.872,97.823,58.342,98.277z M61.873,92.294c-0.374-0.41-0.942-0.616-1.705-0.616c-0.499,0-0.913,0.085-1.243,0.253
		c-0.33,0.169-0.594,0.378-0.792,0.627c-0.198,0.25-0.338,0.514-0.418,0.792c-0.081,0.279-0.128,0.528-0.143,0.748h5.082
		C62.507,93.306,62.247,92.705,61.873,92.294z"/>
	<path fill="#00A651" d="M67.494,93.13c0.044-0.733,0.227-1.342,0.55-1.826c0.322-0.483,0.733-0.872,1.232-1.166
		c0.499-0.293,1.06-0.502,1.683-0.627c0.623-0.124,1.25-0.187,1.881-0.187c0.572,0,1.151,0.04,1.738,0.121
		c0.586,0.08,1.122,0.238,1.606,0.473s0.88,0.561,1.188,0.979s0.462,0.972,0.462,1.661v5.918c0,0.514,0.029,1.004,0.088,1.475
		c0.059,0.469,0.161,0.82,0.308,1.056h-3.168c-0.059-0.176-0.106-0.354-0.143-0.539c-0.037-0.184-0.062-0.37-0.077-0.561
		c-0.499,0.513-1.085,0.872-1.76,1.077s-1.364,0.309-2.068,0.309c-0.543,0-1.049-0.066-1.518-0.197
		c-0.47-0.133-0.88-0.338-1.232-0.617c-0.352-0.277-0.627-0.629-0.825-1.056c-0.198-0.425-0.297-0.932-0.297-1.518
		c0-0.646,0.113-1.179,0.341-1.596c0.228-0.418,0.521-0.751,0.88-1.001c0.359-0.249,0.77-0.436,1.232-0.561
		c0.462-0.125,0.927-0.224,1.397-0.297c0.469-0.073,0.931-0.133,1.386-0.177s0.858-0.109,1.21-0.197s0.63-0.217,0.836-0.386
		c0.206-0.168,0.301-0.414,0.286-0.736c0-0.338-0.055-0.605-0.165-0.804c-0.11-0.197-0.257-0.352-0.44-0.462
		c-0.184-0.109-0.396-0.183-0.638-0.22c-0.242-0.036-0.502-0.055-0.781-0.055c-0.616,0-1.1,0.132-1.452,0.396
		c-0.352,0.265-0.558,0.704-0.616,1.32L67.494,93.13L67.494,93.13z M74.709,95.439c-0.132,0.118-0.297,0.209-0.495,0.275
		c-0.198,0.066-0.411,0.121-0.638,0.165c-0.228,0.044-0.466,0.081-0.715,0.11c-0.249,0.029-0.499,0.065-0.748,0.109
		c-0.234,0.044-0.465,0.104-0.693,0.176c-0.228,0.074-0.425,0.173-0.594,0.298c-0.169,0.123-0.305,0.281-0.407,0.473
		s-0.154,0.434-0.154,0.727c0,0.278,0.051,0.514,0.154,0.703c0.103,0.191,0.242,0.342,0.418,0.451
		c0.176,0.11,0.381,0.188,0.616,0.231c0.234,0.044,0.477,0.065,0.726,0.065c0.616,0,1.092-0.104,1.43-0.309s0.586-0.451,0.748-0.737
		c0.161-0.286,0.26-0.575,0.297-0.868c0.037-0.293,0.055-0.527,0.055-0.705V95.439z"/>
	<path fill="#00A651" d="M88.328,99.555c-0.367,0.615-0.847,1.06-1.441,1.33c-0.594,0.271-1.265,0.407-2.013,0.407
		c-0.851,0-1.599-0.165-2.244-0.495c-0.646-0.33-1.177-0.777-1.595-1.342s-0.734-1.214-0.946-1.947
		c-0.213-0.732-0.319-1.496-0.319-2.288c0-0.763,0.106-1.499,0.319-2.211c0.212-0.711,0.528-1.338,0.946-1.881
		s0.942-0.979,1.573-1.309c0.63-0.33,1.364-0.495,2.2-0.495c0.674,0,1.316,0.143,1.925,0.429c0.608,0.286,1.089,0.708,1.441,1.265
		h0.044v-5.72h3.124v15.708h-2.97v-1.451H88.328z M88.195,93.933c-0.088-0.433-0.238-0.813-0.451-1.144
		c-0.213-0.33-0.488-0.598-0.825-0.803c-0.337-0.206-0.763-0.309-1.276-0.309c-0.514,0-0.946,0.104-1.298,0.309
		c-0.352,0.205-0.634,0.477-0.847,0.813c-0.213,0.338-0.367,0.723-0.462,1.155c-0.096,0.433-0.143,0.884-0.143,1.353
		c0,0.44,0.051,0.88,0.154,1.32c0.103,0.439,0.268,0.832,0.495,1.178c0.227,0.344,0.513,0.623,0.858,0.836
		c0.344,0.213,0.759,0.318,1.243,0.318c0.513,0,0.942-0.104,1.287-0.309c0.344-0.205,0.619-0.479,0.825-0.824
		c0.205-0.346,0.352-0.737,0.44-1.178c0.088-0.439,0.132-0.895,0.132-1.363C88.327,94.816,88.283,94.365,88.195,93.933z"/>
	<path fill="#00A651" d="M97.04,98.277c0.469,0.455,1.144,0.683,2.024,0.683c0.63,0,1.173-0.157,1.628-0.474
		c0.455-0.314,0.733-0.648,0.836-1h2.75c-0.44,1.363-1.115,2.339-2.024,2.926c-0.91,0.587-2.01,0.88-3.3,0.88
		c-0.895,0-1.701-0.144-2.42-0.429c-0.719-0.286-1.328-0.693-1.826-1.223c-0.499-0.526-0.884-1.158-1.155-1.892
		s-0.407-1.54-0.407-2.42c0-0.851,0.139-1.643,0.418-2.376c0.278-0.733,0.674-1.368,1.188-1.903
		c0.513-0.535,1.125-0.957,1.837-1.265c0.711-0.309,1.5-0.462,2.365-0.462c0.968,0,1.812,0.187,2.53,0.561
		c0.718,0.374,1.309,0.877,1.771,1.507c0.462,0.631,0.795,1.35,1.001,2.156c0.205,0.807,0.278,1.65,0.22,2.53H96.27
		C96.313,97.09,96.57,97.823,97.04,98.277z M100.57,92.294c-0.374-0.41-0.942-0.616-1.705-0.616c-0.499,0-0.913,0.085-1.243,0.253
		c-0.33,0.169-0.594,0.378-0.792,0.627c-0.198,0.25-0.338,0.514-0.418,0.792c-0.081,0.279-0.128,0.528-0.143,0.748h5.082
		C101.205,93.306,100.944,92.705,100.57,92.294z"/>
	<path fill="#00A651" d="M109.293,89.632v2.112h0.044c0.146-0.353,0.344-0.679,0.594-0.979c0.25-0.3,0.535-0.557,0.858-0.77
		c0.323-0.213,0.667-0.378,1.034-0.495c0.366-0.117,0.748-0.176,1.144-0.176c0.205,0,0.433,0.036,0.682,0.109v2.904
		c-0.147-0.029-0.323-0.055-0.528-0.077c-0.206-0.021-0.403-0.033-0.594-0.033c-0.572,0-1.056,0.096-1.452,0.286
		c-0.396,0.191-0.715,0.451-0.957,0.781c-0.242,0.33-0.415,0.715-0.517,1.155c-0.103,0.439-0.154,0.916-0.154,1.43v5.126h-3.124
		V89.632H109.293z"/>
	<path fill="#00A651" d="M117.51,98.18c0.139,0.241,0.319,0.439,0.539,0.594c0.22,0.153,0.473,0.269,0.759,0.342
		c0.286,0.072,0.583,0.109,0.891,0.109c0.22,0,0.451-0.025,0.693-0.078c0.242-0.051,0.462-0.131,0.66-0.24
		c0.198-0.11,0.363-0.258,0.495-0.44c0.132-0.183,0.198-0.414,0.198-0.692c0-0.469-0.312-0.821-0.935-1.057
		c-0.624-0.234-1.493-0.469-2.607-0.704c-0.455-0.103-0.898-0.224-1.331-0.363c-0.433-0.139-0.818-0.322-1.155-0.55
		c-0.337-0.227-0.609-0.513-0.814-0.857c-0.206-0.345-0.308-0.767-0.308-1.266c0-0.733,0.143-1.334,0.429-1.804
		c0.286-0.469,0.664-0.84,1.133-1.111c0.469-0.271,0.998-0.462,1.584-0.571c0.586-0.11,1.188-0.165,1.804-0.165
		c0.616,0,1.213,0.059,1.793,0.176c0.579,0.117,1.096,0.315,1.551,0.594c0.455,0.279,0.833,0.649,1.133,1.111
		c0.3,0.462,0.48,1.045,0.539,1.749h-2.97c-0.044-0.602-0.271-1.009-0.682-1.222c-0.411-0.212-0.895-0.318-1.452-0.318
		c-0.176,0-0.367,0.011-0.572,0.033c-0.206,0.021-0.393,0.069-0.561,0.143c-0.168,0.074-0.312,0.18-0.429,0.319
		c-0.118,0.14-0.176,0.326-0.176,0.561c0,0.279,0.103,0.506,0.308,0.683c0.205,0.176,0.473,0.318,0.803,0.429
		c0.33,0.109,0.707,0.209,1.133,0.297c0.425,0.088,0.858,0.184,1.298,0.286c0.455,0.103,0.898,0.228,1.331,0.374
		c0.433,0.146,0.817,0.341,1.155,0.583c0.337,0.242,0.608,0.543,0.814,0.901c0.205,0.36,0.308,0.804,0.308,1.331
		c0,0.748-0.15,1.375-0.451,1.881c-0.301,0.508-0.693,0.914-1.177,1.223c-0.484,0.309-1.038,0.523-1.661,0.648
		c-0.624,0.125-1.258,0.188-1.903,0.188c-0.66,0-1.306-0.066-1.936-0.197c-0.631-0.133-1.191-0.353-1.683-0.66
		c-0.492-0.309-0.895-0.715-1.21-1.222c-0.315-0.506-0.488-1.141-0.517-1.903h2.97C117.301,97.646,117.37,97.938,117.51,98.18z"/>
	<path fill="#00A651" d="M135.439,98.18c0.139,0.241,0.319,0.439,0.539,0.594c0.22,0.153,0.473,0.269,0.759,0.342
		c0.286,0.072,0.583,0.109,0.891,0.109c0.22,0,0.451-0.025,0.693-0.078c0.242-0.051,0.462-0.131,0.66-0.24
		c0.198-0.11,0.363-0.258,0.495-0.44c0.132-0.182,0.198-0.414,0.198-0.692c0-0.469-0.312-0.821-0.935-1.057
		c-0.624-0.234-1.493-0.469-2.607-0.704c-0.455-0.103-0.898-0.224-1.331-0.363c-0.433-0.139-0.818-0.322-1.155-0.55
		c-0.337-0.227-0.609-0.513-0.814-0.857c-0.206-0.345-0.308-0.767-0.308-1.266c0-0.733,0.143-1.334,0.429-1.804
		c0.286-0.469,0.664-0.84,1.133-1.111c0.469-0.271,0.998-0.462,1.584-0.571c0.586-0.11,1.188-0.165,1.804-0.165
		c0.616,0,1.213,0.059,1.793,0.176c0.579,0.117,1.096,0.315,1.551,0.594c0.455,0.279,0.833,0.649,1.133,1.111
		c0.3,0.462,0.48,1.045,0.539,1.749h-2.97c-0.044-0.602-0.271-1.009-0.682-1.222c-0.411-0.212-0.895-0.318-1.452-0.318
		c-0.176,0-0.367,0.011-0.572,0.033c-0.206,0.021-0.393,0.069-0.561,0.143c-0.168,0.074-0.312,0.18-0.429,0.319
		c-0.118,0.14-0.176,0.326-0.176,0.561c0,0.279,0.103,0.506,0.308,0.683c0.205,0.176,0.473,0.318,0.803,0.429
		c0.33,0.109,0.707,0.209,1.133,0.297c0.425,0.088,0.858,0.184,1.298,0.286c0.455,0.103,0.898,0.228,1.331,0.374
		s0.817,0.341,1.155,0.583c0.337,0.242,0.608,0.543,0.814,0.901c0.205,0.36,0.308,0.804,0.308,1.331c0,0.748-0.15,1.375-0.451,1.881
		c-0.301,0.508-0.693,0.914-1.177,1.223c-0.484,0.309-1.038,0.523-1.661,0.648c-0.624,0.125-1.258,0.188-1.903,0.188
		c-0.66,0-1.306-0.066-1.936-0.197c-0.631-0.133-1.191-0.353-1.683-0.66c-0.492-0.309-0.895-0.715-1.21-1.222
		c-0.315-0.506-0.488-1.141-0.517-1.903h2.97C135.23,97.646,135.3,97.938,135.439,98.18z"/>
	<path fill="#00A651" d="M150.872,89.632v2.09h-2.288v5.631c0,0.528,0.088,0.881,0.264,1.058c0.176,0.176,0.528,0.264,1.056,0.264
		c0.176,0,0.345-0.007,0.506-0.021c0.161-0.016,0.315-0.037,0.462-0.066v2.42c-0.264,0.044-0.558,0.073-0.88,0.088
		c-0.323,0.016-0.638,0.022-0.946,0.022c-0.484,0-0.942-0.033-1.375-0.101c-0.433-0.064-0.814-0.193-1.144-0.386
		c-0.33-0.189-0.59-0.462-0.781-0.814s-0.286-0.812-0.286-1.385v-6.71h-1.892v-2.09h1.892v-3.41h3.124v3.41L150.872,89.632
		L150.872,89.632z"/>
	<path fill="#00A651" d="M156.57,104.395c-0.602,0.396-1.438,0.596-2.508,0.596c-0.323,0-0.642-0.014-0.957-0.033
		c-0.315-0.021-0.634-0.048-0.957-0.077v-2.573c0.293,0.028,0.594,0.06,0.902,0.088c0.308,0.028,0.616,0.037,0.924,0.021
		c0.411-0.044,0.715-0.206,0.913-0.482c0.198-0.279,0.297-0.588,0.297-0.926c0-0.249-0.044-0.482-0.132-0.704l-3.982-10.67h3.322
		l2.574,7.788h0.044l2.486-7.788h3.234l-4.752,12.782C157.641,103.338,157.171,103.998,156.57,104.395z"/>
	<path fill="#00A651" d="M166.998,85.298v15.708h-3.124V85.298H166.998z"/>
	<path fill="#00A651" d="M172.806,98.277c0.469,0.455,1.144,0.683,2.024,0.683c0.63,0,1.173-0.157,1.628-0.474
		c0.455-0.314,0.733-0.648,0.836-1h2.75c-0.44,1.363-1.115,2.339-2.024,2.926c-0.91,0.587-2.01,0.88-3.3,0.88
		c-0.895,0-1.701-0.144-2.42-0.429c-0.719-0.286-1.328-0.693-1.826-1.223c-0.499-0.526-0.884-1.158-1.155-1.892
		s-0.407-1.54-0.407-2.42c0-0.851,0.139-1.643,0.418-2.376c0.278-0.733,0.674-1.368,1.188-1.903
		c0.513-0.535,1.125-0.957,1.837-1.265c0.711-0.309,1.5-0.462,2.365-0.462c0.968,0,1.812,0.187,2.53,0.561s1.309,0.877,1.771,1.507
		c0.462,0.631,0.795,1.35,1.001,2.156c0.205,0.807,0.278,1.65,0.22,2.53h-8.206C172.08,97.09,172.336,97.823,172.806,98.277z
		 M176.337,92.294c-0.374-0.41-0.942-0.616-1.705-0.616c-0.499,0-0.913,0.085-1.243,0.253c-0.33,0.169-0.594,0.378-0.792,0.627
		c-0.198,0.25-0.338,0.514-0.418,0.792c-0.081,0.279-0.128,0.528-0.143,0.748h5.082C176.971,93.306,176.711,92.705,176.337,92.294z"
		/>
	<path fill="#00A651" d="M188.14,89.071c0.234-0.756,0.586-1.416,1.056-1.98c0.469-0.564,1.059-1.005,1.771-1.32
		c0.711-0.314,1.529-0.473,2.453-0.473c0.703,0,1.375,0.11,2.014,0.33c0.637,0.22,1.197,0.535,1.683,0.946
		c0.483,0.41,0.868,0.916,1.155,1.518c0.285,0.602,0.429,1.276,0.429,2.024c0,0.777-0.125,1.444-0.373,2.002
		c-0.25,0.558-0.58,1.053-0.99,1.484c-0.411,0.433-0.877,0.825-1.397,1.178c-0.521,0.352-1.045,0.7-1.572,1.045
		c-0.527,0.345-1.041,0.715-1.539,1.11c-0.5,0.396-0.939,0.857-1.321,1.387h7.282v2.684h-11.308c0-0.895,0.128-1.672,0.385-2.332
		c0.256-0.66,0.605-1.25,1.045-1.771s0.957-1,1.551-1.44c0.594-0.44,1.221-0.888,1.881-1.342c0.337-0.234,0.696-0.474,1.078-0.715
		c0.381-0.242,0.729-0.51,1.045-0.804c0.313-0.293,0.579-0.623,0.791-0.989c0.213-0.367,0.32-0.785,0.32-1.255
		c0-0.748-0.218-1.33-0.649-1.749c-0.433-0.418-0.986-0.627-1.66-0.627c-0.455,0-0.841,0.107-1.156,0.319
		c-0.315,0.213-0.568,0.491-0.759,0.836c-0.191,0.345-0.327,0.728-0.407,1.146c-0.08,0.418-0.121,0.832-0.121,1.242h-2.992
		C187.802,90.644,187.905,89.826,188.14,89.071z"/>
</g>
<g>
	<path fill="#00A651" d="M41.576,127.154v4.932h5.202v-4.932h2.826v12.852h-2.826v-5.544h-5.202v5.544H38.75v-12.852H41.576z"/>
	<path fill="#00A651" d="M54.554,137.773c0.384,0.371,0.936,0.559,1.656,0.559c0.516,0,0.96-0.129,1.332-0.387
		c0.372-0.26,0.6-0.531,0.684-0.819h2.25c-0.36,1.116-0.912,1.914-1.656,2.394c-0.744,0.48-1.645,0.723-2.7,0.723
		c-0.732,0-1.392-0.117-1.98-0.354c-0.588-0.231-1.086-0.564-1.494-0.998c-0.408-0.433-0.723-0.947-0.945-1.549
		c-0.222-0.6-0.333-1.26-0.333-1.979c0-0.696,0.114-1.346,0.342-1.944s0.552-1.119,0.972-1.558s0.921-0.782,1.503-1.034
		s1.227-0.378,1.935-0.378c0.792,0,1.482,0.152,2.07,0.459c0.587,0.306,1.071,0.717,1.449,1.232
		c0.378,0.517,0.651,1.104,0.819,1.764s0.228,1.351,0.18,2.07h-6.714C53.959,136.802,54.169,137.402,54.554,137.773z
		 M57.443,132.878c-0.306-0.336-0.771-0.504-1.395-0.504c-0.408,0-0.747,0.069-1.017,0.207c-0.27,0.138-0.486,0.31-0.648,0.513
		c-0.162,0.204-0.276,0.42-0.342,0.648s-0.105,0.432-0.117,0.611h4.158C57.961,133.706,57.749,133.214,57.443,132.878z"/>
	<path fill="#00A651" d="M62.042,133.562c0.036-0.602,0.186-1.1,0.45-1.494c0.264-0.396,0.6-0.713,1.008-0.953
		s0.867-0.411,1.377-0.514c0.51-0.104,1.022-0.152,1.539-0.152c0.468,0,0.942,0.033,1.422,0.099
		c0.479,0.065,0.918,0.195,1.314,0.388c0.396,0.191,0.72,0.459,0.972,0.801c0.252,0.344,0.378,0.797,0.378,1.359v4.842
		c0,0.42,0.024,0.821,0.072,1.205c0.048,0.385,0.132,0.674,0.252,0.864h-2.592c-0.048-0.144-0.087-0.291-0.117-0.44
		c-0.03-0.148-0.051-0.303-0.063-0.459c-0.408,0.42-0.888,0.715-1.44,0.884c-0.552,0.168-1.116,0.252-1.692,0.252
		c-0.444,0-0.858-0.056-1.242-0.162c-0.384-0.106-0.72-0.274-1.008-0.504s-0.513-0.519-0.675-0.864
		c-0.162-0.348-0.243-0.762-0.243-1.24c0-0.527,0.093-0.965,0.279-1.307s0.426-0.615,0.72-0.818s0.63-0.355,1.008-0.459
		c0.378-0.103,0.759-0.184,1.143-0.242c0.384-0.062,0.762-0.107,1.134-0.146s0.702-0.09,0.99-0.162
		c0.288-0.071,0.516-0.177,0.684-0.313c0.168-0.14,0.246-0.34,0.234-0.604c0-0.274-0.045-0.495-0.135-0.655
		c-0.09-0.162-0.21-0.289-0.36-0.38c-0.15-0.09-0.324-0.147-0.522-0.18c-0.198-0.03-0.411-0.045-0.639-0.045
		c-0.504,0-0.9,0.106-1.188,0.321c-0.288,0.219-0.456,0.576-0.504,1.08H62.042L62.042,133.562z M67.946,135.452
		c-0.108,0.096-0.243,0.171-0.405,0.225s-0.336,0.099-0.522,0.136c-0.186,0.035-0.381,0.065-0.585,0.09
		c-0.204,0.023-0.408,0.056-0.612,0.092c-0.192,0.035-0.381,0.084-0.567,0.145c-0.187,0.062-0.348,0.143-0.486,0.242
		c-0.138,0.104-0.249,0.23-0.333,0.389c-0.084,0.154-0.126,0.354-0.126,0.594c0,0.229,0.042,0.421,0.126,0.576
		c0.084,0.154,0.198,0.277,0.342,0.369c0.144,0.09,0.312,0.151,0.504,0.188c0.192,0.036,0.39,0.054,0.594,0.054
		c0.504,0,0.894-0.084,1.17-0.252s0.479-0.368,0.612-0.604c0.132-0.232,0.213-0.471,0.243-0.711c0.03-0.238,0.045-0.433,0.045-0.574
		V135.452z"/>
	<path fill="#00A651" d="M79.087,138.816c-0.3,0.506-0.693,0.867-1.179,1.091c-0.486,0.222-1.035,0.333-1.647,0.333
		c-0.696,0-1.308-0.137-1.836-0.405c-0.528-0.271-0.963-0.636-1.305-1.099c-0.342-0.461-0.6-0.992-0.774-1.594
		c-0.174-0.601-0.261-1.225-0.261-1.871c0-0.623,0.087-1.229,0.261-1.811c0.174-0.582,0.432-1.095,0.774-1.539
		c0.342-0.441,0.771-0.801,1.287-1.07c0.516-0.271,1.116-0.403,1.8-0.403c0.552,0,1.077,0.116,1.575,0.351
		c0.498,0.235,0.891,0.579,1.179,1.035h0.036v-4.68h2.556v12.852h-2.43v-1.188h-0.036V138.816z M78.979,134.219
		c-0.072-0.354-0.195-0.666-0.369-0.936c-0.174-0.271-0.399-0.489-0.675-0.657s-0.624-0.252-1.044-0.252s-0.774,0.084-1.062,0.252
		s-0.519,0.39-0.693,0.666c-0.174,0.276-0.3,0.591-0.378,0.944c-0.078,0.354-0.117,0.724-0.117,1.105c0,0.36,0.042,0.721,0.126,1.08
		c0.084,0.36,0.219,0.684,0.405,0.964c0.186,0.281,0.42,0.511,0.702,0.685c0.282,0.175,0.621,0.262,1.017,0.262
		c0.42,0,0.771-0.084,1.053-0.252c0.282-0.168,0.507-0.395,0.675-0.676s0.288-0.604,0.36-0.963c0.072-0.359,0.108-0.731,0.108-1.115
		C79.087,134.941,79.051,134.573,78.979,134.219z"/>
	<path fill="#00A651" d="M86.215,137.773c0.384,0.371,0.936,0.559,1.656,0.559c0.516,0,0.96-0.129,1.332-0.387
		c0.372-0.26,0.6-0.531,0.684-0.819h2.25c-0.36,1.116-0.912,1.914-1.656,2.394c-0.744,0.48-1.645,0.723-2.7,0.723
		c-0.732,0-1.392-0.117-1.98-0.354c-0.588-0.231-1.086-0.564-1.494-0.998c-0.408-0.433-0.723-0.947-0.945-1.549
		c-0.222-0.6-0.333-1.26-0.333-1.979c0-0.696,0.114-1.346,0.342-1.944s0.552-1.119,0.972-1.558c0.42-0.438,0.921-0.782,1.503-1.034
		s1.227-0.378,1.935-0.378c0.792,0,1.482,0.152,2.07,0.459c0.587,0.306,1.071,0.717,1.449,1.232
		c0.378,0.517,0.651,1.104,0.819,1.764s0.228,1.351,0.18,2.07h-6.714C85.621,136.802,85.831,137.402,86.215,137.773z
		 M89.104,132.878c-0.306-0.336-0.771-0.504-1.395-0.504c-0.408,0-0.747,0.069-1.017,0.207s-0.486,0.31-0.648,0.513
		c-0.162,0.204-0.276,0.42-0.342,0.648s-0.105,0.432-0.117,0.611h4.158C89.623,133.706,89.41,133.214,89.104,132.878z"/>
	<path fill="#00A651" d="M96.241,130.7v1.728h0.036c0.12-0.287,0.282-0.555,0.486-0.801c0.204-0.246,0.438-0.456,0.702-0.63
		c0.264-0.174,0.546-0.31,0.846-0.405c0.3-0.095,0.612-0.144,0.936-0.144c0.167,0,0.354,0.028,0.558,0.09v2.376
		c-0.12-0.023-0.264-0.045-0.432-0.062c-0.168-0.019-0.331-0.025-0.486-0.025c-0.468,0-0.864,0.076-1.188,0.232
		c-0.324,0.155-0.585,0.368-0.783,0.641c-0.198,0.27-0.339,0.585-0.423,0.943c-0.084,0.359-0.126,0.75-0.126,1.17v4.193h-2.556
		V130.7H96.241z"/>
	<path fill="#00A651" d="M107.968,137.691c0.114,0.199,0.261,0.359,0.441,0.485c0.18,0.128,0.387,0.222,0.621,0.279
		c0.234,0.06,0.477,0.09,0.729,0.09c0.18,0,0.369-0.021,0.567-0.062c0.198-0.041,0.378-0.107,0.54-0.197
		c0.162-0.09,0.297-0.21,0.405-0.36c0.108-0.149,0.162-0.339,0.162-0.567c0-0.383-0.255-0.672-0.765-0.861
		c-0.51-0.191-1.221-0.385-2.133-0.576c-0.372-0.084-0.735-0.184-1.089-0.297c-0.354-0.114-0.669-0.266-0.945-0.45
		s-0.498-0.42-0.666-0.7c-0.168-0.281-0.252-0.627-0.252-1.035c0-0.602,0.117-1.092,0.351-1.478
		c0.234-0.384,0.543-0.688,0.927-0.909c0.384-0.222,0.816-0.378,1.296-0.468s0.972-0.135,1.476-0.135
		c0.504,0,0.993,0.048,1.467,0.144c0.474,0.098,0.897,0.26,1.269,0.486s0.681,0.529,0.927,0.908s0.393,0.854,0.441,1.432h-2.43
		c-0.036-0.492-0.222-0.825-0.558-0.999s-0.732-0.261-1.188-0.261c-0.144,0-0.3,0.009-0.468,0.025
		c-0.168,0.02-0.321,0.059-0.459,0.116c-0.138,0.062-0.255,0.147-0.351,0.261c-0.096,0.114-0.144,0.27-0.144,0.459
		c0,0.229,0.084,0.414,0.252,0.561c0.168,0.145,0.387,0.261,0.657,0.352c0.27,0.09,0.579,0.172,0.927,0.242
		c0.348,0.072,0.702,0.15,1.062,0.234c0.372,0.084,0.735,0.186,1.089,0.306s0.669,0.279,0.945,0.478
		c0.276,0.199,0.498,0.443,0.666,0.738s0.252,0.656,0.252,1.09c0,0.61-0.123,1.125-0.369,1.539s-0.567,0.746-0.963,0.998
		s-0.849,0.43-1.359,0.53c-0.51,0.103-1.029,0.153-1.557,0.153c-0.54,0-1.068-0.057-1.584-0.162
		c-0.516-0.107-0.975-0.288-1.377-0.54c-0.402-0.252-0.732-0.585-0.99-0.999s-0.399-0.936-0.423-1.559h2.43
		C107.797,137.258,107.854,137.495,107.968,137.691z"/>
	<path fill="#00A651" d="M120.595,130.7v1.71h-1.872v4.607c0,0.433,0.072,0.721,0.216,0.862c0.144,0.146,0.432,0.218,0.864,0.218
		c0.144,0,0.282-0.008,0.414-0.02c0.132-0.014,0.258-0.03,0.378-0.057v1.98c-0.216,0.036-0.456,0.061-0.72,0.072
		c-0.264,0.011-0.522,0.018-0.774,0.018c-0.396,0-0.771-0.025-1.125-0.08s-0.666-0.16-0.936-0.313
		c-0.27-0.156-0.483-0.38-0.639-0.666c-0.156-0.288-0.234-0.666-0.234-1.136v-5.488h-1.548v-1.71h1.548v-2.79h2.556v2.79
		L120.595,130.7L120.595,130.7z"/>
	<path fill="#00A651" d="M125.257,142.777c-0.492,0.324-1.176,0.486-2.052,0.486c-0.264,0-0.525-0.011-0.783-0.027
		c-0.258-0.02-0.52-0.038-0.783-0.062v-2.105c0.24,0.023,0.486,0.049,0.738,0.072s0.504,0.029,0.756,0.02
		c0.335-0.036,0.585-0.169,0.747-0.396c0.162-0.229,0.243-0.479,0.243-0.757c0-0.204-0.036-0.396-0.108-0.575l-3.258-8.729h2.718
		l2.106,6.372h0.036l2.034-6.372h2.646l-3.888,10.458C126.132,141.914,125.749,142.454,125.257,142.777z"/>
	<path fill="#00A651" d="M133.789,127.154v12.852h-2.556v-12.852H133.789z"/>
	<path fill="#00A651" d="M138.541,137.773c0.384,0.371,0.936,0.559,1.656,0.559c0.516,0,0.96-0.129,1.332-0.387
		c0.372-0.26,0.6-0.531,0.684-0.819h2.25c-0.36,1.116-0.912,1.914-1.656,2.394c-0.744,0.48-1.645,0.723-2.7,0.723
		c-0.732,0-1.392-0.117-1.98-0.354c-0.588-0.231-1.086-0.564-1.494-0.998c-0.408-0.433-0.723-0.947-0.945-1.549
		c-0.222-0.6-0.333-1.26-0.333-1.979c0-0.696,0.114-1.346,0.342-1.944c0.228-0.599,0.552-1.119,0.972-1.558s0.921-0.782,1.503-1.034
		s1.227-0.378,1.935-0.378c0.792,0,1.482,0.152,2.07,0.459c0.587,0.306,1.071,0.717,1.449,1.232
		c0.378,0.517,0.651,1.104,0.819,1.764s0.228,1.351,0.18,2.07h-6.714C137.946,136.802,138.156,137.402,138.541,137.773z
		 M141.43,132.878c-0.306-0.336-0.771-0.504-1.395-0.504c-0.408,0-0.747,0.069-1.017,0.207s-0.486,0.31-0.648,0.513
		c-0.162,0.204-0.276,0.42-0.342,0.648s-0.105,0.432-0.117,0.611h4.158C141.948,133.706,141.735,133.214,141.43,132.878z"/>
	<path fill="#00A651" d="M155.154,132.5c0.312-0.023,0.603-0.093,0.873-0.207c0.27-0.113,0.492-0.279,0.666-0.495
		c0.174-0.216,0.261-0.504,0.261-0.864c0-0.539-0.18-0.953-0.54-1.242c-0.36-0.287-0.774-0.432-1.242-0.432
		c-0.648,0-1.137,0.213-1.467,0.639c-0.33,0.429-0.489,0.966-0.477,1.611h-2.43c0.024-0.646,0.141-1.238,0.351-1.771
		c0.21-0.534,0.504-0.993,0.882-1.38c0.378-0.383,0.831-0.68,1.359-0.891c0.528-0.21,1.116-0.314,1.764-0.314
		c0.504,0,1.008,0.074,1.512,0.227s0.957,0.375,1.359,0.676s0.729,0.666,0.981,1.1c0.252,0.432,0.378,0.93,0.378,1.492
		c0,0.611-0.147,1.151-0.441,1.621c-0.294,0.467-0.735,0.785-1.323,0.953v0.035c0.696,0.156,1.242,0.492,1.638,1.01
		c0.396,0.517,0.594,1.133,0.594,1.854c0,0.66-0.129,1.248-0.387,1.764c-0.258,0.518-0.603,0.948-1.035,1.297
		c-0.432,0.349-0.93,0.611-1.494,0.791s-1.152,0.271-1.764,0.271c-0.708,0-1.353-0.104-1.935-0.307
		c-0.582-0.205-1.077-0.502-1.485-0.893c-0.408-0.39-0.723-0.867-0.945-1.431c-0.222-0.564-0.327-1.214-0.315-1.944h2.43
		c0.012,0.336,0.066,0.657,0.162,0.963c0.096,0.307,0.234,0.57,0.414,0.792c0.18,0.224,0.405,0.399,0.675,0.531
		s0.591,0.196,0.963,0.196c0.576,0,1.062-0.178,1.458-0.529c0.396-0.354,0.594-0.837,0.594-1.449c0-0.479-0.093-0.846-0.279-1.098
		c-0.187-0.252-0.423-0.438-0.711-0.551c-0.288-0.112-0.603-0.18-0.945-0.196c-0.342-0.021-0.669-0.027-0.981-0.027v-1.8
		C154.548,132.523,154.842,132.523,155.154,132.5z"/>
</g>
</svg>
