<?xml version="1.0" encoding="utf-8"?>
<!-- Generator: Adobe Illustrator 16.0.4, SVG Export Plug-In . SVG Version: 6.00 Build 0)  -->
<!DOCTYPE svg PUBLIC "-//W3C//DTD SVG 1.1//EN" "http://www.w3.org/Graphics/SVG/1.1/DTD/svg11.dtd">
<svg version="1.1" id="Layer_1" xmlns="http://www.w3.org/2000/svg" xmlns:xlink="http://www.w3.org/1999/xlink" x="0px" y="0px"
	 width="400px" height="200px" viewBox="0 0 400 200" enable-background="new 0 0 400 200" xml:space="preserve">
<title>Group 3</title>
<desc>Created with Sketch.</desc>
<g id="Page-1">
	<g id="Elements---Library" transform="translate(-118.000000, -1378.000000)">
		<g id="Group-3" transform="translate(118.000000, 1378.000000)">
			<g id="mail" transform="translate(65.000000, 4.147222)">
				<path id="Stroke-1" fill="none" stroke="#00A651" stroke-width="2.52" d="M-7.5,0.559h31.506v25.293H-7.5V0.559z"/>
				<path id="Stroke-3" fill="none" stroke="#00A651" stroke-width="2.52" d="M-7.5,0.559L8.253,13.206L24.006,0.559"/>
			</g>
			<g id="link" transform="translate(8.000000, 3.147222)">
				<g id="Group-5">
					<path id="Stroke-1_1_" fill="none" stroke="#00A651" stroke-width="2.52" d="M-3.978,6.861l6.286-6.29l8.594,8.6l-6.286,6.29
						L-3.978,6.861L-3.978,6.861z"/>
					<path id="Stroke-3_1_" fill="none" stroke="#00A651" stroke-width="2.52" d="M8.405,19.253l6.287-6.29l8.595,8.6L17,27.853
						L8.405,19.253L8.405,19.253z"/>
				</g>
				<path id="Stroke-6" fill="none" stroke="#00A651" stroke-width="2.52" d="M5.062,9.615l9.274,9.28"/>
			</g>
			<g id="circle-chevron-right" transform="translate(124.000000, 4.147222)">
				<path id="Stroke-1_2_" fill="none" stroke="#00A651" stroke-width="2.52" d="M8.944,0.211c7.424,0,13.444,6.022,13.444,13.451
					c0,7.43-6.02,13.452-13.444,13.452C1.519,27.114-4.5,21.092-4.5,13.662C-4.5,6.233,1.519,0.211,8.944,0.211L8.944,0.211z"/>
				<path id="Stroke-3_2_" fill="none" stroke="#00A651" stroke-width="2.52" d="M6.137,7.581l6.492,6.496l-5.871,5.874"/>
			</g>
			<g id="arrow-corner-up-right" transform="translate(49.000000, 115.147222)">
				<path id="Stroke-1_3_" fill="none" stroke="#00A651" stroke-width="4" d="M8.761,32.439l21.78-21.791"/>
				<path id="Stroke-3_3_" fill="none" stroke="#00A651" stroke-width="4" d="M9.095,10.146h21.836v21.959"/>
			</g>
			<path id="Rectangle-10-Copy-4" fill="none" stroke="#00A651" stroke-width="3" d="M130.5,115.146h33c11.598,0,21,9.398,21,21l0,0
				c0,11.599-9.402,21-21,21h-33c-11.598,0-21-9.401-21-21l0,0C109.5,124.549,118.902,115.146,130.5,115.146z"/>
			<g enable-background="new    ">
				<path fill="#00A651" d="M128.55,129.296l5.364,8.621h0.036v-8.621h2.646v12.852h-2.826l-5.346-8.604h-0.036v8.604h-2.646
					v-12.852H128.55z"/>
				<path fill="#00A651" d="M148.692,129.296v2.376h-6.786v2.754h6.228v2.195h-6.228v3.15h6.93v2.376h-9.756v-12.852H148.692z"/>
				<path fill="#00A651" d="M149.754,129.296h3.276l2.52,4.104l2.61-4.104h3.096l-4.122,6.138l4.482,6.714h-3.366l-2.808-4.446
					l-2.862,4.446h-3.168l4.482-6.732L149.754,129.296z"/>
				<path fill="#00A651" d="M161.742,131.672v-2.376h10.53v2.376h-3.852v10.476h-2.826v-10.476H161.742z"/>
			</g>
			<rect id="Rectangle-10-Copy-5" x="172.5" y="2" fill="none" stroke="#00A651" stroke-width="3" width="107" height="38"/>
			<g enable-background="new    ">
				<path fill="#00A651" d="M189.103,24.072c0.095,0.165,0.217,0.3,0.368,0.405c0.15,0.104,0.322,0.183,0.517,0.232
					c0.195,0.05,0.397,0.075,0.608,0.075c0.15,0,0.307-0.018,0.472-0.053s0.315-0.09,0.45-0.165c0.135-0.075,0.248-0.175,0.337-0.3
					s0.135-0.282,0.135-0.473c0-0.32-0.213-0.56-0.638-0.72c-0.425-0.16-1.018-0.32-1.777-0.48c-0.31-0.069-0.613-0.152-0.908-0.247
					s-0.558-0.22-0.788-0.375s-0.415-0.35-0.555-0.585c-0.14-0.235-0.21-0.522-0.21-0.862c0-0.5,0.097-0.91,0.292-1.23
					c0.195-0.32,0.452-0.572,0.772-0.758c0.32-0.185,0.68-0.314,1.08-0.39s0.81-0.112,1.23-0.112c0.42,0,0.827,0.04,1.222,0.12
					s0.748,0.215,1.058,0.404c0.31,0.19,0.567,0.443,0.772,0.758c0.205,0.315,0.328,0.713,0.368,1.192h-2.025
					c-0.03-0.41-0.185-0.688-0.465-0.832c-0.28-0.146-0.61-0.218-0.99-0.218c-0.12,0-0.25,0.008-0.39,0.022
					c-0.14,0.015-0.268,0.048-0.382,0.098c-0.115,0.05-0.213,0.122-0.292,0.218c-0.081,0.095-0.12,0.223-0.12,0.382
					c0,0.19,0.07,0.346,0.21,0.465c0.14,0.12,0.322,0.218,0.547,0.293s0.482,0.143,0.772,0.202c0.29,0.061,0.585,0.126,0.885,0.195
					c0.31,0.07,0.612,0.155,0.907,0.255c0.295,0.101,0.558,0.232,0.788,0.397s0.415,0.37,0.555,0.615
					c0.14,0.245,0.21,0.548,0.21,0.907c0,0.51-0.103,0.938-0.308,1.283c-0.205,0.345-0.473,0.622-0.803,0.832
					c-0.33,0.21-0.708,0.357-1.132,0.442c-0.425,0.085-0.857,0.128-1.297,0.128c-0.45,0-0.89-0.045-1.32-0.136
					c-0.43-0.09-0.812-0.239-1.147-0.449s-0.61-0.488-0.825-0.833c-0.215-0.345-0.333-0.777-0.353-1.297h2.025
					C188.96,23.71,189.007,23.907,189.103,24.072z"/>
				<path fill="#00A651" d="M200.615,26v-1.08h-0.045c-0.271,0.45-0.621,0.775-1.051,0.975c-0.43,0.2-0.87,0.301-1.32,0.301
					c-0.57,0-1.038-0.075-1.402-0.226c-0.365-0.149-0.653-0.362-0.863-0.638c-0.21-0.274-0.357-0.609-0.442-1.005
					c-0.085-0.395-0.127-0.832-0.127-1.312v-4.77h2.13v4.38c0,0.64,0.1,1.117,0.3,1.433c0.2,0.314,0.555,0.473,1.065,0.473
					c0.58,0,1-0.173,1.26-0.518c0.26-0.345,0.39-0.913,0.39-1.703v-4.064h2.13V26H200.615z"/>
				<path fill="#00A651" d="M206.39,15.29v3.9h0.03c0.26-0.4,0.612-0.692,1.057-0.878c0.445-0.185,0.908-0.277,1.389-0.277
					c0.39,0,0.774,0.08,1.154,0.24s0.723,0.404,1.027,0.734s0.553,0.753,0.742,1.268c0.19,0.516,0.285,1.128,0.285,1.838
					s-0.095,1.322-0.285,1.837c-0.189,0.516-0.438,0.938-0.742,1.268s-0.647,0.575-1.027,0.735s-0.765,0.24-1.154,0.24
					c-0.57,0-1.08-0.09-1.531-0.271c-0.449-0.18-0.789-0.484-1.02-0.915h-0.029V26h-2.025V15.29H206.39z M209.84,21.185
					c-0.07-0.3-0.18-0.564-0.33-0.795c-0.15-0.229-0.338-0.412-0.562-0.547c-0.225-0.136-0.498-0.203-0.817-0.203
					c-0.31,0-0.58,0.067-0.81,0.203c-0.23,0.135-0.42,0.317-0.57,0.547c-0.15,0.23-0.26,0.495-0.33,0.795
					c-0.07,0.301-0.105,0.615-0.105,0.945c0,0.32,0.035,0.63,0.105,0.93c0.07,0.301,0.18,0.565,0.33,0.796
					c0.15,0.229,0.34,0.412,0.57,0.547c0.229,0.135,0.5,0.203,0.81,0.203c0.319,0,0.593-0.068,0.817-0.203s0.412-0.317,0.562-0.547
					c0.15-0.23,0.26-0.495,0.33-0.796c0.07-0.3,0.105-0.609,0.105-0.93C209.945,21.8,209.91,21.485,209.84,21.185z"/>
				<path fill="#00A651" d="M215.494,18.245v1.05h0.03c0.28-0.399,0.617-0.71,1.013-0.93c0.395-0.22,0.848-0.33,1.357-0.33
					c0.49,0,0.938,0.095,1.342,0.285c0.405,0.189,0.713,0.524,0.923,1.005c0.229-0.34,0.542-0.64,0.938-0.9
					c0.396-0.26,0.862-0.39,1.402-0.39c0.41,0,0.79,0.05,1.14,0.149c0.351,0.101,0.65,0.261,0.9,0.48s0.445,0.508,0.585,0.862
					c0.14,0.355,0.21,0.783,0.21,1.282V26h-2.13v-4.395c0-0.261-0.01-0.505-0.03-0.735c-0.02-0.23-0.074-0.43-0.164-0.601
					c-0.09-0.17-0.223-0.305-0.398-0.404c-0.175-0.1-0.412-0.15-0.712-0.15s-0.543,0.058-0.728,0.173
					c-0.186,0.115-0.33,0.265-0.436,0.45c-0.104,0.185-0.175,0.395-0.209,0.63c-0.035,0.234-0.053,0.473-0.053,0.712V26h-2.131
					v-4.35c0-0.23-0.005-0.458-0.015-0.683c-0.01-0.226-0.052-0.433-0.128-0.623c-0.074-0.189-0.199-0.342-0.375-0.457
					c-0.174-0.115-0.432-0.173-0.771-0.173c-0.101,0-0.232,0.022-0.398,0.067c-0.164,0.045-0.324,0.13-0.479,0.255
					c-0.155,0.126-0.288,0.306-0.397,0.54c-0.11,0.235-0.165,0.543-0.165,0.923V26h-2.13v-7.755H215.494z"/>
				<path fill="#00A651" d="M227.074,17.045V15.29h2.131v1.755H227.074z M229.205,18.245V26h-2.131v-7.755H229.205z"/>
				<path fill="#00A651" d="M235.145,18.245v1.425h-1.561v3.84c0,0.36,0.061,0.601,0.18,0.721c0.121,0.119,0.36,0.18,0.721,0.18
					c0.119,0,0.234-0.005,0.345-0.016c0.11-0.01,0.215-0.024,0.315-0.045V26c-0.18,0.03-0.381,0.05-0.6,0.06
					c-0.221,0.011-0.436,0.016-0.646,0.016c-0.33,0-0.644-0.022-0.938-0.067c-0.296-0.045-0.556-0.133-0.78-0.263
					s-0.402-0.315-0.532-0.555c-0.13-0.24-0.195-0.556-0.195-0.945V19.67h-1.29v-1.425h1.29V15.92h2.13v2.325H235.145z"/>
			</g>
			<path id="_x34_2-copy" fill="none" stroke="#00A651" stroke-width="3" d="M247.5,20.463l4.229,5.209L260.518,15"/>
			<path id="Rectangle-335-Copy-2" fill="none" stroke="#00A651" stroke-width="3" d="M7.5,52.147h267c2.762,0,5,2.238,5,5v33
				c0,2.761-2.238,5-5,5H7.5c-2.761,0-5-2.239-5-5v-33C2.5,54.386,4.739,52.147,7.5,52.147z"/>
			<path id="Rectangle-335-Copy-3" fill="none" stroke="#00A651" stroke-width="3" d="M213,110.146h179c2.762,0,5,2.235,5,5v77
				c0,2.762-2.238,5-5,5H213c-2.762,0-5-2.238-5-5v-77C208,112.386,210.238,110.146,213,110.146z"/>
			<g enable-background="new    ">
				<path fill="#00A651" d="M227.221,125.296l3.006,8.838h0.035l2.844-8.838h3.979v12.852h-2.646v-9.108h-0.035l-3.15,9.108h-2.178
					l-3.15-9.018h-0.035v9.018h-2.646v-12.852H227.221z"/>
				<path fill="#00A651" d="M242.034,135.915c0.384,0.372,0.937,0.559,1.655,0.559c0.517,0,0.961-0.129,1.332-0.387
					c0.373-0.259,0.601-0.531,0.685-0.819h2.25c-0.36,1.116-0.912,1.914-1.655,2.394c-0.744,0.48-1.645,0.721-2.701,0.721
					c-0.731,0-1.392-0.117-1.979-0.352c-0.588-0.233-1.086-0.566-1.494-0.999c-0.407-0.432-0.723-0.947-0.944-1.548
					c-0.223-0.6-0.334-1.26-0.334-1.979c0-0.696,0.114-1.345,0.342-1.944c0.229-0.6,0.553-1.119,0.973-1.557
					c0.42-0.438,0.921-0.783,1.503-1.035s1.228-0.378,1.935-0.378c0.793,0,1.482,0.152,2.07,0.459
					c0.588,0.306,1.071,0.717,1.449,1.232c0.378,0.517,0.65,1.104,0.818,1.765c0.168,0.659,0.229,1.35,0.181,2.069h-6.714
					C241.439,134.943,241.65,135.544,242.034,135.915z M244.924,131.02c-0.307-0.336-0.771-0.504-1.396-0.504
					c-0.408,0-0.747,0.069-1.017,0.207c-0.271,0.138-0.486,0.309-0.648,0.513s-0.276,0.42-0.342,0.648
					c-0.066,0.228-0.105,0.432-0.117,0.611h4.158C245.441,131.848,245.229,131.355,244.924,131.02z"/>
				<path fill="#00A651" d="M251.781,135.834c0.113,0.198,0.26,0.36,0.44,0.486s0.388,0.22,0.621,0.279s0.478,0.09,0.729,0.09
					c0.18,0,0.369-0.021,0.566-0.063c0.198-0.041,0.378-0.107,0.54-0.197s0.297-0.21,0.405-0.36
					c0.107-0.149,0.162-0.339,0.162-0.567c0-0.384-0.256-0.672-0.766-0.863c-0.51-0.192-1.221-0.384-2.133-0.576
					c-0.372-0.084-0.735-0.183-1.089-0.297c-0.354-0.114-0.669-0.264-0.945-0.45c-0.276-0.186-0.498-0.42-0.665-0.702
					c-0.169-0.281-0.253-0.627-0.253-1.035c0-0.6,0.117-1.092,0.351-1.476c0.234-0.384,0.543-0.687,0.928-0.909
					c0.384-0.222,0.816-0.378,1.296-0.468s0.972-0.135,1.476-0.135s0.993,0.048,1.467,0.144c0.475,0.097,0.897,0.258,1.27,0.486
					c0.372,0.228,0.682,0.53,0.928,0.909c0.245,0.378,0.393,0.854,0.44,1.431h-2.431c-0.035-0.492-0.222-0.825-0.558-0.999
					s-0.731-0.261-1.188-0.261c-0.144,0-0.299,0.009-0.467,0.026c-0.169,0.019-0.322,0.058-0.459,0.117
					c-0.139,0.061-0.256,0.147-0.352,0.261c-0.096,0.114-0.145,0.268-0.145,0.459c0,0.229,0.084,0.414,0.252,0.559
					c0.168,0.144,0.388,0.261,0.658,0.351c0.27,0.09,0.578,0.171,0.926,0.243c0.349,0.072,0.703,0.15,1.062,0.234
					c0.372,0.084,0.734,0.186,1.089,0.306s0.669,0.279,0.945,0.477c0.276,0.198,0.497,0.444,0.666,0.738
					c0.168,0.294,0.252,0.657,0.252,1.089c0,0.612-0.123,1.125-0.369,1.539s-0.567,0.747-0.963,0.999s-0.849,0.43-1.358,0.531
					c-0.511,0.102-1.029,0.153-1.558,0.153c-0.54,0-1.068-0.055-1.584-0.162c-0.517-0.108-0.976-0.288-1.377-0.54
					c-0.402-0.252-0.731-0.585-0.99-0.999c-0.258-0.414-0.399-0.934-0.423-1.558h2.43
					C251.609,135.399,251.666,135.637,251.781,135.834z"/>
				<path fill="#00A651" d="M261.447,135.834c0.113,0.198,0.26,0.36,0.44,0.486s0.388,0.22,0.621,0.279s0.478,0.09,0.729,0.09
					c0.18,0,0.369-0.021,0.566-0.063c0.198-0.041,0.378-0.107,0.54-0.197s0.297-0.21,0.405-0.36
					c0.107-0.149,0.162-0.339,0.162-0.567c0-0.384-0.256-0.672-0.766-0.863c-0.51-0.192-1.221-0.384-2.133-0.576
					c-0.372-0.084-0.735-0.183-1.089-0.297c-0.354-0.114-0.669-0.264-0.945-0.45c-0.276-0.186-0.498-0.42-0.665-0.702
					c-0.169-0.281-0.253-0.627-0.253-1.035c0-0.6,0.117-1.092,0.351-1.476c0.234-0.384,0.543-0.687,0.928-0.909
					c0.384-0.222,0.816-0.378,1.296-0.468s0.972-0.135,1.476-0.135s0.993,0.048,1.467,0.144c0.475,0.097,0.897,0.258,1.27,0.486
					c0.372,0.228,0.682,0.53,0.928,0.909c0.245,0.378,0.393,0.854,0.44,1.431h-2.431c-0.035-0.492-0.222-0.825-0.558-0.999
					s-0.731-0.261-1.188-0.261c-0.144,0-0.299,0.009-0.467,0.026c-0.169,0.019-0.322,0.058-0.459,0.117
					c-0.139,0.061-0.256,0.147-0.352,0.261c-0.096,0.114-0.145,0.268-0.145,0.459c0,0.229,0.084,0.414,0.252,0.559
					c0.168,0.144,0.388,0.261,0.658,0.351c0.27,0.09,0.578,0.171,0.926,0.243c0.349,0.072,0.703,0.15,1.062,0.234
					c0.372,0.084,0.734,0.186,1.089,0.306s0.669,0.279,0.945,0.477c0.276,0.198,0.497,0.444,0.666,0.738
					c0.168,0.294,0.252,0.657,0.252,1.089c0,0.612-0.123,1.125-0.369,1.539s-0.567,0.747-0.963,0.999s-0.849,0.43-1.358,0.531
					c-0.511,0.102-1.029,0.153-1.558,0.153c-0.54,0-1.068-0.055-1.584-0.162c-0.517-0.108-0.976-0.288-1.377-0.54
					c-0.402-0.252-0.731-0.585-0.99-0.999c-0.258-0.414-0.399-0.934-0.423-1.558h2.43
					C261.275,135.399,261.332,135.637,261.447,135.834z"/>
				<path fill="#00A651" d="M268.854,131.703c0.035-0.6,0.186-1.098,0.449-1.494c0.264-0.396,0.601-0.713,1.008-0.953
					c0.408-0.24,0.867-0.411,1.378-0.514c0.51-0.102,1.022-0.152,1.538-0.152c0.469,0,0.942,0.033,1.423,0.099
					c0.479,0.066,0.918,0.195,1.313,0.387c0.396,0.192,0.721,0.459,0.973,0.801c0.252,0.343,0.378,0.796,0.378,1.359v4.842
					c0,0.421,0.024,0.822,0.071,1.206c0.049,0.385,0.133,0.673,0.252,0.864h-2.592c-0.048-0.144-0.087-0.291-0.117-0.441
					c-0.029-0.149-0.051-0.303-0.062-0.459c-0.408,0.421-0.889,0.715-1.439,0.883c-0.553,0.168-1.117,0.252-1.692,0.252
					c-0.444,0-0.858-0.055-1.242-0.162c-0.384-0.108-0.72-0.276-1.008-0.504c-0.288-0.229-0.513-0.517-0.675-0.864
					s-0.243-0.762-0.243-1.242c0-0.527,0.093-0.963,0.278-1.305c0.187-0.342,0.426-0.615,0.721-0.819
					c0.294-0.204,0.63-0.356,1.008-0.459c0.378-0.102,0.759-0.183,1.143-0.243c0.385-0.06,0.762-0.107,1.135-0.144
					c0.371-0.036,0.701-0.09,0.99-0.162c0.287-0.072,0.516-0.177,0.684-0.315c0.168-0.138,0.246-0.339,0.234-0.603
					c0-0.276-0.045-0.495-0.136-0.657c-0.09-0.162-0.21-0.288-0.36-0.378c-0.149-0.09-0.323-0.149-0.521-0.18
					c-0.197-0.03-0.411-0.045-0.639-0.045c-0.504,0-0.9,0.107-1.188,0.323c-0.288,0.217-0.456,0.576-0.504,1.08H268.854z
					 M274.758,133.594c-0.108,0.096-0.244,0.171-0.406,0.225c-0.161,0.054-0.336,0.099-0.521,0.135s-0.381,0.066-0.585,0.091
					c-0.204,0.023-0.407,0.054-0.612,0.09c-0.191,0.036-0.381,0.084-0.566,0.144c-0.187,0.061-0.348,0.142-0.486,0.243
					c-0.138,0.102-0.249,0.231-0.333,0.387c-0.084,0.156-0.126,0.354-0.126,0.594c0,0.229,0.042,0.421,0.126,0.576
					c0.084,0.156,0.198,0.279,0.343,0.369c0.144,0.09,0.312,0.153,0.504,0.189c0.191,0.036,0.389,0.054,0.594,0.054
					c0.504,0,0.894-0.084,1.17-0.252c0.275-0.168,0.479-0.369,0.611-0.604c0.133-0.233,0.213-0.471,0.244-0.711
					c0.029-0.239,0.045-0.432,0.045-0.575V133.594z"/>
				<path fill="#00A651" d="M288.086,138.831c-0.102,0.48-0.32,0.928-0.656,1.342s-0.822,0.765-1.459,1.053
					c-0.636,0.288-1.487,0.432-2.555,0.432c-0.457,0-0.922-0.057-1.396-0.171c-0.475-0.114-0.906-0.291-1.296-0.531
					c-0.391-0.24-0.715-0.549-0.973-0.927s-0.404-0.831-0.44-1.358h2.538c0.119,0.479,0.354,0.812,0.701,0.999
					c0.349,0.186,0.75,0.278,1.207,0.278c0.719,0,1.244-0.216,1.574-0.647c0.33-0.433,0.489-0.979,0.477-1.639v-1.224h-0.035
					c-0.276,0.492-0.67,0.854-1.18,1.089s-1.047,0.352-1.61,0.352c-0.696,0-1.296-0.123-1.8-0.369s-0.918-0.582-1.242-1.009
					c-0.324-0.426-0.561-0.924-0.711-1.493c-0.15-0.57-0.225-1.173-0.225-1.81c0-0.6,0.086-1.179,0.26-1.736
					c0.174-0.559,0.43-1.051,0.766-1.477s0.753-0.765,1.251-1.017s1.071-0.378,1.72-0.378c0.611,0,1.148,0.114,1.61,0.342
					s0.849,0.612,1.161,1.151h0.035v-1.241h2.431v8.712C288.239,137.926,288.188,138.352,288.086,138.831z M284.586,135.735
					c0.275-0.144,0.504-0.336,0.684-0.576c0.18-0.239,0.314-0.513,0.404-0.818c0.09-0.307,0.135-0.627,0.135-0.963
					c0-0.385-0.035-0.747-0.107-1.09c-0.072-0.342-0.191-0.645-0.359-0.908c-0.168-0.265-0.391-0.475-0.666-0.631
					c-0.277-0.155-0.625-0.233-1.045-0.233c-0.359,0-0.668,0.072-0.927,0.216c-0.258,0.144-0.474,0.339-0.647,0.585
					s-0.301,0.528-0.379,0.846c-0.078,0.318-0.116,0.651-0.116,0.999c0,0.336,0.032,0.669,0.099,0.999s0.18,0.628,0.342,0.892
					s0.375,0.479,0.639,0.647c0.265,0.168,0.595,0.252,0.99,0.252C283.991,135.951,284.309,135.88,284.586,135.735z"/>
				<path fill="#00A651" d="M293.027,135.915c0.383,0.372,0.936,0.559,1.655,0.559c0.517,0,0.96-0.129,1.332-0.387
					c0.372-0.259,0.601-0.531,0.685-0.819h2.25c-0.36,1.116-0.912,1.914-1.656,2.394c-0.744,0.48-1.645,0.721-2.7,0.721
					c-0.731,0-1.392-0.117-1.979-0.352c-0.588-0.233-1.086-0.566-1.494-0.999c-0.408-0.432-0.723-0.947-0.945-1.548
					c-0.223-0.6-0.333-1.26-0.333-1.979c0-0.696,0.114-1.345,0.342-1.944s0.552-1.119,0.972-1.557
					c0.42-0.438,0.922-0.783,1.504-1.035s1.227-0.378,1.935-0.378c0.792,0,1.481,0.152,2.07,0.459
					c0.587,0.306,1.071,0.717,1.448,1.232c0.379,0.517,0.651,1.104,0.819,1.765c0.168,0.659,0.228,1.35,0.181,2.069h-6.715
					C292.433,134.943,292.643,135.544,293.027,135.915z M295.916,131.02c-0.307-0.336-0.771-0.504-1.395-0.504
					c-0.408,0-0.748,0.069-1.018,0.207s-0.486,0.309-0.648,0.513s-0.275,0.42-0.342,0.648c-0.066,0.228-0.105,0.432-0.117,0.611
					h4.158C296.435,131.848,296.222,131.355,295.916,131.02z"/>
			</g>
			<g id="_x34_4-copy" transform="translate(239.000000, 68.147222)">
				<path id="Stroke-1_4_" fill="none" stroke="#00A651" stroke-width="1.5861" d="M1.8,5.174c0.001,0,11.536,12.256,24.358,0
					C26.158,5.173,13.938-6.427,1.8,5.174z"/>
				<path id="Fill-3" fill="#00A651" d="M14.133,0.018c-2.568,0-4.656,1.946-4.752,4.379l3.08-2.152l0.971,1.27L9.67,6.144
					c0.671,1.737,2.414,2.978,4.463,2.978c2.631,0,4.762-2.038,4.762-4.552S16.764,0.018,14.133,0.018"/>
			</g>
			<ellipse id="Oval-55-Copy" fill="#00A651" cx="23" cy="73.647" rx="3.5" ry="3.5"/>
			<ellipse id="Oval-55-Copy-2" fill="#00A651" cx="38" cy="73.647" rx="3.5" ry="3.5"/>
			<ellipse id="Oval-55-Copy-3" fill="#00A651" cx="53" cy="73.647" rx="3.5" ry="3.5"/>
			<ellipse id="Oval-55-Copy-4" fill="#00A651" cx="68" cy="73.647" rx="3.5" ry="3.5"/>
			<ellipse id="Oval-55-Copy-5" fill="#00A651" cx="83" cy="73.647" rx="3.5" ry="3.5"/>
			<ellipse id="Oval-55-Copy-6" fill="#00A651" cx="98" cy="73.647" rx="3.5" ry="3.5"/>
			<ellipse id="Oval-55-Copy-7" fill="#00A651" cx="113" cy="73.647" rx="3.5" ry="3.5"/>
			<ellipse id="Oval-55-Copy-8" fill="#00A651" cx="128" cy="73.647" rx="3.5" ry="3.5"/>
			<g id="Stroke-1-_x2B_-Stroke-3-Copy" transform="translate(6.000000, 114.147222)">
				<path id="Stroke-3_4_" fill="none" stroke="#00A651" stroke-width="3" d="M6.228,9.365L19.69,22.827L7.518,34.998"/>
			</g>
			<ellipse id="Oval-170" fill="none" stroke="#00A651" stroke-width="3" cx="357.5" cy="40.647" rx="36.5" ry="36.5"/>
			<g enable-background="new    ">
				<path fill="#00A651" d="M349.792,50.005c-0.884,0.372-1.776,0.559-2.679,0.559c-1.421,0-2.699-0.247-3.834-0.741
					c-1.136-0.494-2.094-1.174-2.873-2.041c-0.78-0.866-1.379-1.885-1.795-3.055s-0.623-2.431-0.623-3.783
					c0-1.387,0.207-2.674,0.623-3.861c0.416-1.187,1.015-2.223,1.795-3.106c0.779-0.884,1.737-1.577,2.873-2.08
					c1.135-0.503,2.413-0.754,3.834-0.754c0.953,0,1.877,0.143,2.77,0.429s1.699,0.707,2.418,1.261
					c0.719,0.556,1.312,1.24,1.781,2.055c0.468,0.814,0.754,1.751,0.857,2.808h-3.899c-0.243-1.04-0.711-1.82-1.403-2.34
					c-0.694-0.521-1.535-0.78-2.523-0.78c-0.918,0-1.698,0.178-2.34,0.533c-0.641,0.355-1.161,0.832-1.56,1.43
					c-0.399,0.599-0.688,1.278-0.871,2.041c-0.182,0.764-0.272,1.552-0.272,2.366c0,0.78,0.091,1.538,0.272,2.275
					c0.183,0.736,0.472,1.399,0.871,1.988c0.398,0.59,0.919,1.062,1.56,1.417c0.642,0.355,1.422,0.533,2.34,0.533
					c1.353,0,2.396-0.342,3.134-1.026c0.736-0.685,1.165-1.678,1.287-2.978h-4.108v-3.042h7.801v10.036h-2.601l-0.416-2.106
					C351.482,48.978,350.676,49.632,349.792,50.005z"/>
				<path fill="#00A651" d="M358.346,37.082c0.416-1.187,1.014-2.223,1.794-3.106s1.737-1.577,2.873-2.08s2.413-0.754,3.835-0.754
					c1.439,0,2.721,0.251,3.848,0.754s2.08,1.196,2.86,2.08s1.378,1.92,1.794,3.106c0.416,1.188,0.625,2.475,0.625,3.861
					c0,1.353-0.209,2.613-0.625,3.783s-1.014,2.188-1.794,3.055c-0.78,0.867-1.733,1.547-2.86,2.041s-2.408,0.741-3.848,0.741
					c-1.422,0-2.699-0.247-3.835-0.741s-2.093-1.174-2.873-2.041c-0.78-0.866-1.378-1.885-1.794-3.055s-0.624-2.431-0.624-3.783
					C357.722,39.557,357.93,38.27,358.346,37.082z M362.076,43.219c0.183,0.736,0.473,1.399,0.871,1.988
					c0.398,0.59,0.919,1.062,1.561,1.417c0.641,0.355,1.421,0.533,2.34,0.533s1.699-0.178,2.34-0.533
					c0.642-0.354,1.162-0.827,1.561-1.417c0.398-0.589,0.689-1.252,0.871-1.988c0.182-0.737,0.273-1.495,0.273-2.275
					c0-0.814-0.092-1.603-0.273-2.366c-0.182-0.763-0.473-1.442-0.871-2.041c-0.398-0.598-0.919-1.074-1.561-1.43
					c-0.641-0.355-1.421-0.533-2.34-0.533s-1.699,0.178-2.34,0.533c-0.642,0.355-1.162,0.832-1.561,1.43
					c-0.398,0.599-0.688,1.278-0.871,2.041c-0.182,0.764-0.272,1.552-0.272,2.366C361.804,41.724,361.895,42.481,362.076,43.219z"/>
			</g>
			<g enable-background="new    ">
				<path fill="#00A651" d="M7.824,186.804c0.165,0.316,0.383,0.573,0.656,0.77c0.272,0.196,0.592,0.342,0.959,0.437
					c0.367,0.095,0.747,0.143,1.14,0.143c0.266,0,0.551-0.021,0.855-0.066c0.304-0.044,0.589-0.13,0.855-0.257
					c0.266-0.126,0.487-0.301,0.665-0.522c0.177-0.221,0.266-0.503,0.266-0.845c0-0.368-0.117-0.665-0.351-0.894
					c-0.235-0.228-0.542-0.418-0.922-0.57c-0.38-0.151-0.811-0.284-1.292-0.398s-0.969-0.24-1.463-0.38
					c-0.507-0.127-1.001-0.282-1.482-0.466c-0.481-0.184-0.912-0.421-1.292-0.713c-0.38-0.291-0.688-0.655-0.921-1.092
					c-0.235-0.438-0.352-0.966-0.352-1.587c0-0.696,0.148-1.302,0.446-1.814c0.297-0.513,0.687-0.94,1.168-1.282
					s1.026-0.596,1.634-0.76c0.608-0.165,1.216-0.247,1.824-0.247c0.709,0,1.39,0.079,2.042,0.237s1.232,0.415,1.739,0.77
					c0.506,0.354,0.909,0.808,1.207,1.358c0.297,0.551,0.446,1.219,0.446,2.005h-2.888c-0.025-0.405-0.111-0.741-0.256-1.008
					c-0.146-0.266-0.339-0.475-0.58-0.627c-0.241-0.151-0.516-0.259-0.826-0.322c-0.311-0.063-0.649-0.096-1.017-0.096
					c-0.241,0-0.481,0.025-0.722,0.076s-0.459,0.14-0.655,0.267c-0.197,0.126-0.358,0.284-0.484,0.475
					c-0.127,0.189-0.19,0.431-0.19,0.722c0,0.267,0.051,0.481,0.152,0.646c0.101,0.164,0.301,0.316,0.598,0.456
					c0.298,0.14,0.709,0.278,1.235,0.418c0.525,0.14,1.212,0.316,2.062,0.531c0.253,0.051,0.604,0.143,1.054,0.276
					c0.45,0.133,0.896,0.345,1.34,0.636c0.443,0.292,0.826,0.682,1.149,1.169c0.323,0.487,0.484,1.111,0.484,1.871
					c0,0.621-0.121,1.197-0.361,1.729c-0.241,0.532-0.599,0.991-1.074,1.377c-0.475,0.387-1.064,0.688-1.767,0.903
					c-0.703,0.215-1.517,0.322-2.441,0.322c-0.748,0-1.473-0.092-2.175-0.275c-0.703-0.184-1.324-0.472-1.862-0.864
					s-0.966-0.893-1.282-1.501c-0.317-0.608-0.469-1.33-0.456-2.166h2.888C7.577,186.101,7.659,186.487,7.824,186.804z"/>
				<path fill="#00A651" d="M20.478,187.791c0.405,0.394,0.988,0.59,1.748,0.59c0.544,0,1.013-0.137,1.406-0.409
					c0.393-0.271,0.633-0.561,0.722-0.864h2.375c-0.38,1.178-0.963,2.021-1.748,2.527c-0.786,0.507-1.735,0.76-2.85,0.76
					c-0.772,0-1.469-0.124-2.09-0.37c-0.621-0.247-1.146-0.599-1.577-1.055s-0.763-1.001-0.998-1.634
					c-0.234-0.634-0.352-1.33-0.352-2.091c0-0.734,0.121-1.418,0.361-2.052c0.24-0.633,0.583-1.181,1.026-1.644
					c0.443-0.462,0.972-0.826,1.586-1.093c0.614-0.266,1.295-0.398,2.042-0.398c0.836,0,1.564,0.161,2.185,0.484
					s1.13,0.757,1.53,1.302c0.399,0.545,0.687,1.165,0.864,1.861c0.177,0.697,0.24,1.426,0.19,2.186h-7.087
					C19.851,186.766,20.072,187.399,20.478,187.791z M23.527,182.623c-0.323-0.354-0.814-0.531-1.472-0.531
					c-0.431,0-0.789,0.072-1.074,0.218c-0.285,0.146-0.513,0.326-0.684,0.542s-0.292,0.443-0.361,0.684
					c-0.07,0.241-0.111,0.456-0.124,0.646h4.389C24.075,183.497,23.85,182.979,23.527,182.623z"/>
				<path fill="#00A651" d="M31.383,187.791c0.405,0.394,0.988,0.59,1.748,0.59c0.544,0,1.013-0.137,1.406-0.409
					c0.393-0.271,0.633-0.561,0.722-0.864h2.375c-0.38,1.178-0.963,2.021-1.748,2.527c-0.786,0.507-1.735,0.76-2.85,0.76
					c-0.772,0-1.469-0.124-2.09-0.37c-0.621-0.247-1.146-0.599-1.577-1.055s-0.763-1.001-0.998-1.634
					c-0.234-0.634-0.352-1.33-0.352-2.091c0-0.734,0.121-1.418,0.361-2.052c0.24-0.633,0.583-1.181,1.026-1.644
					c0.443-0.462,0.972-0.826,1.586-1.093c0.614-0.266,1.295-0.398,2.042-0.398c0.836,0,1.564,0.161,2.185,0.484
					s1.13,0.757,1.53,1.302c0.399,0.545,0.687,1.165,0.864,1.861c0.177,0.697,0.24,1.426,0.19,2.186h-7.087
					C30.756,186.766,30.978,187.399,31.383,187.791z M34.433,182.623c-0.323-0.354-0.814-0.531-1.472-0.531
					c-0.431,0-0.789,0.072-1.074,0.218c-0.285,0.146-0.513,0.326-0.684,0.542s-0.292,0.443-0.361,0.684
					c-0.07,0.241-0.111,0.456-0.124,0.646h4.389C34.98,183.497,34.756,182.979,34.433,182.623z"/>
				<path fill="#00A651" d="M44.569,183.346c0.038-0.634,0.196-1.159,0.475-1.577c0.278-0.418,0.633-0.754,1.064-1.007
					c0.43-0.254,0.915-0.434,1.453-0.542c0.539-0.107,1.08-0.161,1.625-0.161c0.494,0,0.995,0.035,1.501,0.104
					c0.507,0.069,0.969,0.206,1.387,0.408c0.418,0.203,0.76,0.484,1.026,0.846s0.399,0.839,0.399,1.435v5.111
					c0,0.443,0.025,0.867,0.076,1.272c0.05,0.405,0.139,0.71,0.266,0.912h-2.736c-0.051-0.152-0.092-0.307-0.124-0.466
					c-0.032-0.158-0.054-0.319-0.067-0.484c-0.431,0.443-0.938,0.754-1.52,0.932c-0.583,0.177-1.178,0.266-1.786,0.266
					c-0.469,0-0.906-0.057-1.311-0.171c-0.406-0.114-0.76-0.291-1.064-0.532c-0.304-0.24-0.542-0.544-0.713-0.912
					c-0.171-0.367-0.256-0.804-0.256-1.311c0-0.558,0.098-1.017,0.294-1.378s0.45-0.648,0.76-0.864
					c0.31-0.216,0.665-0.377,1.064-0.484s0.801-0.193,1.207-0.257c0.405-0.063,0.804-0.114,1.197-0.152
					c0.393-0.037,0.741-0.095,1.045-0.171c0.304-0.075,0.544-0.187,0.722-0.332c0.177-0.146,0.259-0.357,0.247-0.637
					c0-0.291-0.047-0.522-0.143-0.693c-0.095-0.171-0.222-0.304-0.38-0.399c-0.159-0.095-0.342-0.158-0.551-0.189
					s-0.434-0.048-0.674-0.048c-0.532,0-0.95,0.114-1.254,0.342c-0.304,0.229-0.481,0.608-0.532,1.141H44.569z M50.801,185.341
					c-0.114,0.102-0.256,0.18-0.428,0.237c-0.171,0.057-0.354,0.104-0.551,0.143c-0.197,0.038-0.402,0.069-0.618,0.095
					s-0.431,0.057-0.646,0.095c-0.203,0.038-0.402,0.089-0.598,0.152c-0.197,0.063-0.368,0.149-0.513,0.257
					c-0.146,0.107-0.263,0.244-0.352,0.408c-0.089,0.165-0.133,0.374-0.133,0.627c0,0.241,0.044,0.443,0.133,0.608
					c0.088,0.164,0.209,0.294,0.361,0.389c0.152,0.096,0.33,0.162,0.532,0.2s0.412,0.057,0.627,0.057
					c0.532,0,0.943-0.089,1.235-0.266c0.292-0.178,0.507-0.39,0.646-0.637s0.225-0.497,0.257-0.751
					c0.031-0.253,0.047-0.456,0.047-0.607V185.341z"/>
				<path fill="#00A651" d="M58.363,176.581v13.566h-2.698v-13.566H58.363z"/>
				<path fill="#00A651" d="M63.265,176.581v13.566h-2.698v-13.566H63.265z"/>
				<path fill="#00A651" d="M70.732,183.108c0.24-0.64,0.583-1.185,1.026-1.635c0.443-0.449,0.976-0.798,1.596-1.045
					s1.317-0.37,2.09-0.37s1.473,0.123,2.1,0.37s1.162,0.596,1.605,1.045c0.443,0.45,0.785,0.995,1.026,1.635
					s0.361,1.352,0.361,2.137c0,0.786-0.121,1.495-0.361,2.128c-0.241,0.634-0.583,1.176-1.026,1.625s-0.979,0.795-1.605,1.035
					c-0.627,0.241-1.327,0.361-2.1,0.361s-1.469-0.12-2.09-0.361c-0.621-0.24-1.153-0.586-1.596-1.035s-0.786-0.991-1.026-1.625
					c-0.241-0.633-0.361-1.342-0.361-2.128C70.371,184.46,70.491,183.748,70.732,183.108z M73.183,186.395
					c0.076,0.374,0.206,0.71,0.389,1.008s0.428,0.535,0.731,0.712c0.304,0.178,0.684,0.267,1.14,0.267s0.839-0.089,1.149-0.267
					c0.311-0.177,0.558-0.414,0.741-0.712s0.313-0.634,0.39-1.008c0.076-0.373,0.114-0.756,0.114-1.149
					c0-0.393-0.038-0.778-0.114-1.158c-0.076-0.381-0.206-0.716-0.39-1.008c-0.184-0.291-0.431-0.528-0.741-0.712
					s-0.693-0.275-1.149-0.275s-0.836,0.092-1.14,0.275c-0.304,0.184-0.548,0.421-0.731,0.712c-0.184,0.292-0.313,0.627-0.389,1.008
					c-0.076,0.38-0.114,0.766-0.114,1.158C73.069,185.639,73.107,186.021,73.183,186.395z"/>
				<path fill="#00A651" d="M84.849,180.324v1.254h0.038c0.329-0.531,0.748-0.918,1.254-1.158c0.507-0.241,1.064-0.361,1.672-0.361
					c0.772,0,1.438,0.146,1.995,0.437c0.558,0.292,1.02,0.678,1.387,1.159c0.367,0.481,0.64,1.042,0.817,1.682
					s0.266,1.308,0.266,2.005c0,0.658-0.089,1.292-0.266,1.899c-0.177,0.608-0.446,1.146-0.808,1.615
					c-0.361,0.469-0.811,0.843-1.349,1.121c-0.539,0.278-1.168,0.418-1.891,0.418c-0.608,0-1.168-0.124-1.682-0.37
					c-0.513-0.247-0.934-0.611-1.263-1.093h-0.038v4.655h-2.698v-13.263H84.849z M88.354,188.114
					c0.297-0.177,0.538-0.408,0.722-0.693s0.313-0.617,0.39-0.997s0.114-0.767,0.114-1.159s-0.041-0.779-0.123-1.159
					c-0.083-0.38-0.219-0.719-0.409-1.017s-0.434-0.538-0.731-0.722c-0.298-0.184-0.662-0.275-1.093-0.275
					c-0.443,0-0.814,0.092-1.111,0.275c-0.298,0.184-0.539,0.421-0.722,0.712c-0.184,0.292-0.313,0.627-0.389,1.008
					c-0.076,0.38-0.114,0.772-0.114,1.178c0,0.393,0.041,0.779,0.124,1.159s0.215,0.712,0.399,0.997s0.428,0.517,0.731,0.693
					c0.304,0.178,0.671,0.267,1.102,0.267C87.686,188.381,88.057,188.292,88.354,188.114z"/>
				<path fill="#00A651" d="M99.289,180.324v1.806h-1.976v4.863c0,0.456,0.076,0.761,0.228,0.912
					c0.152,0.152,0.456,0.229,0.912,0.229c0.152,0,0.297-0.007,0.437-0.02c0.139-0.013,0.272-0.031,0.399-0.057v2.09
					c-0.228,0.038-0.481,0.063-0.76,0.076c-0.279,0.013-0.551,0.019-0.817,0.019c-0.418,0-0.814-0.028-1.188-0.085
					c-0.374-0.058-0.703-0.168-0.988-0.333c-0.285-0.164-0.51-0.398-0.674-0.703c-0.165-0.304-0.247-0.702-0.247-1.196v-5.795H92.98
					v-1.806h1.634v-2.944h2.698v2.944H99.289z"/>
				<path fill="#00A651" d="M100.656,178.805v-2.224h2.698v2.224H100.656z M103.354,180.324v9.823h-2.698v-9.823H103.354z"/>
				<path fill="#00A651" d="M105.54,183.108c0.24-0.64,0.583-1.185,1.026-1.635c0.443-0.449,0.976-0.798,1.596-1.045
					s1.317-0.37,2.09-0.37s1.473,0.123,2.1,0.37s1.162,0.596,1.605,1.045c0.443,0.45,0.785,0.995,1.026,1.635
					s0.361,1.352,0.361,2.137c0,0.786-0.121,1.495-0.361,2.128c-0.241,0.634-0.583,1.176-1.026,1.625s-0.979,0.795-1.605,1.035
					c-0.627,0.241-1.327,0.361-2.1,0.361s-1.469-0.12-2.09-0.361c-0.621-0.24-1.153-0.586-1.596-1.035s-0.786-0.991-1.026-1.625
					c-0.241-0.633-0.361-1.342-0.361-2.128C105.179,184.46,105.299,183.748,105.54,183.108z M107.991,186.395
					c0.076,0.374,0.206,0.71,0.389,1.008s0.428,0.535,0.731,0.712c0.304,0.178,0.684,0.267,1.14,0.267s0.839-0.089,1.149-0.267
					c0.311-0.177,0.558-0.414,0.741-0.712s0.313-0.634,0.39-1.008c0.076-0.373,0.114-0.756,0.114-1.149
					c0-0.393-0.038-0.778-0.114-1.158c-0.076-0.381-0.206-0.716-0.39-1.008c-0.184-0.291-0.431-0.528-0.741-0.712
					s-0.693-0.275-1.149-0.275s-0.836,0.092-1.14,0.275c-0.304,0.184-0.548,0.421-0.731,0.712c-0.184,0.292-0.313,0.627-0.389,1.008
					c-0.076,0.38-0.114,0.766-0.114,1.158C107.876,185.639,107.915,186.021,107.991,186.395z"/>
				<path fill="#00A651" d="M119.656,180.324v1.368h0.057c0.342-0.57,0.785-0.984,1.33-1.244c0.544-0.26,1.102-0.39,1.672-0.39
					c0.722,0,1.314,0.098,1.776,0.294c0.462,0.197,0.827,0.469,1.093,0.817s0.453,0.772,0.561,1.273
					c0.107,0.5,0.162,1.054,0.162,1.662v6.042h-2.698V184.6c0-0.811-0.127-1.416-0.38-1.814c-0.253-0.399-0.703-0.599-1.349-0.599
					c-0.735,0-1.267,0.219-1.596,0.655c-0.329,0.438-0.494,1.156-0.494,2.156v5.149h-2.698v-9.823H119.656z"/>
				<path fill="#00A651" d="M130.628,187.706c0.12,0.209,0.275,0.38,0.466,0.513c0.19,0.133,0.408,0.231,0.655,0.295
					s0.503,0.095,0.77,0.095c0.19,0,0.39-0.021,0.599-0.066c0.209-0.044,0.399-0.114,0.57-0.209s0.313-0.222,0.428-0.38
					c0.114-0.158,0.171-0.357,0.171-0.599c0-0.405-0.27-0.709-0.808-0.912c-0.539-0.202-1.289-0.405-2.251-0.608
					c-0.393-0.088-0.776-0.192-1.149-0.313c-0.374-0.12-0.707-0.278-0.998-0.475c-0.292-0.196-0.526-0.443-0.703-0.741
					c-0.177-0.297-0.266-0.661-0.266-1.092c0-0.634,0.124-1.153,0.371-1.559s0.573-0.725,0.979-0.959s0.861-0.399,1.368-0.494
					c0.506-0.095,1.026-0.143,1.558-0.143c0.532,0,1.048,0.051,1.548,0.152c0.5,0.101,0.947,0.272,1.339,0.513
					s0.719,0.561,0.979,0.959c0.26,0.399,0.415,0.903,0.466,1.511h-2.565c-0.038-0.52-0.234-0.871-0.589-1.055
					s-0.772-0.275-1.254-0.275c-0.152,0-0.317,0.01-0.494,0.028c-0.177,0.02-0.339,0.061-0.484,0.124
					c-0.146,0.063-0.269,0.155-0.371,0.275s-0.152,0.282-0.152,0.484c0,0.241,0.088,0.438,0.266,0.589
					c0.177,0.152,0.408,0.275,0.693,0.371c0.285,0.095,0.611,0.18,0.979,0.256c0.367,0.076,0.741,0.159,1.121,0.247
					c0.393,0.089,0.775,0.196,1.149,0.323c0.374,0.127,0.706,0.295,0.998,0.504c0.291,0.209,0.525,0.469,0.703,0.778
					c0.177,0.311,0.266,0.693,0.266,1.149c0,0.646-0.13,1.188-0.389,1.625c-0.26,0.437-0.599,0.788-1.017,1.055
					c-0.418,0.266-0.896,0.453-1.435,0.561c-0.539,0.107-1.086,0.161-1.644,0.161c-0.57,0-1.127-0.057-1.672-0.171
					c-0.545-0.114-1.029-0.304-1.454-0.57c-0.424-0.266-0.773-0.617-1.045-1.055c-0.272-0.437-0.421-0.984-0.447-1.644h2.565
					C130.448,187.247,130.508,187.497,130.628,187.706z"/>
			</g>
			
				<g id="chevron-right" transform="translate(148.500000, 175.147222) scale(-1, 1) rotate(-270.000000) translate(-148.500000, -175.147222) translate(141.000000, 170.147222)">
				<path id="Stroke-3_5_" fill="none" stroke="#00A651" stroke-width="3" d="M24.781-0.094l-7.293,9.33l-7.293-9.33"/>
			</g>
		</g>
	</g>
</g>
</svg>
