<?xml version="1.0" encoding="utf-8"?>
<!-- Generator: Adobe Illustrator 16.0.4, SVG Export Plug-In . SVG Version: 6.00 Build 0)  -->
<!DOCTYPE svg PUBLIC "-//W3C//DTD SVG 1.1//EN" "http://www.w3.org/Graphics/SVG/1.1/DTD/svg11.dtd">
<svg version="1.1" id="Layer_1" xmlns="http://www.w3.org/2000/svg" xmlns:xlink="http://www.w3.org/1999/xlink" x="0px" y="0px"
	 width="400px" height="200px" viewBox="0 0 400 200" enable-background="new 0 0 400 200" xml:space="preserve">
<title>Group 2</title>
<desc>Created with Sketch.</desc>
<path id="Stroke-1" fill="#00A651" fill-opacity="0.5" stroke="#00A651" stroke-width="3" d="M29,2c14.911,0,27,12.088,27,27
	S43.911,56,29,56C14.088,56,2,43.912,2,29S14.088,2,29,2L29,2z"/>
<path id="Stroke-1-Copy-2" fill="none" stroke="#00A651" stroke-width="3" d="M29,74c14.911,0,27,12.088,27,27s-12.089,27-27,27
	c-14.912,0-27-12.088-27-27S14.088,74,29,74L29,74z"/>
<path id="Stroke-1-Copy-5" fill="none" stroke="#00A651" stroke-width="3" d="M114.5,74c14.911,0,27,12.088,27,27s-12.089,27-27,27
	c-14.912,0-27-12.088-27-27S99.588,74,114.5,74L114.5,74z"/>
<path id="Stroke-1-Copy-9" fill="none" stroke="#00A651" stroke-width="3" d="M114.5,2c14.911,0,27,12.088,27,27s-12.089,27-27,27
	c-14.912,0-27-12.088-27-27S99.588,2,114.5,2L114.5,2z"/>
<path id="Stroke-1-Copy" fill="none" stroke="#00A651" stroke-width="3" d="M200,2c14.91,0,27,12.088,27,27s-12.09,27-27,27
	c-14.912,0-27-12.088-27-27S185.088,2,200,2L200,2z"/>
<path id="Stroke-1-Copy-6" fill="#00A651" fill-opacity="0.25" stroke="#00A651" stroke-width="3" d="M200,74
	c14.91,0,27,12.088,27,27s-12.09,27-27,27c-14.912,0-27-12.088-27-27S185.088,74,200,74L200,74z"/>
<path id="Stroke-1-Copy-7" fill="none" stroke="#00A651" stroke-width="3" d="M285.5,74c14.91,0,27,12.088,27,27s-12.09,27-27,27
	c-14.912,0-27-12.088-27-27S270.588,74,285.5,74L285.5,74z"/>
<path id="Stroke-1-Copy-4" fill="none" stroke="#00A651" stroke-width="3" d="M371,2c14.91,0,27,12.088,27,27s-12.09,27-27,27
	c-14.912,0-27-12.088-27-27S356.088,2,371,2L371,2z"/>
<path id="Stroke-1-Copy-8" fill="none" stroke="#00A651" stroke-width="3" d="M371,74c14.91,0,27,12.088,27,27s-12.09,27-27,27
	c-14.912,0-27-12.088-27-27S356.088,74,371,74L371,74z"/>
<path id="Stroke-1-Copy-2_1_" fill="none" stroke="#00A651" stroke-width="3" d="M29,144c14.911,0,27,12.088,27,27s-12.089,27-27,27
	c-14.912,0-27-12.088-27-27S14.088,144,29,144L29,144z"/>
<path id="Stroke-1-Copy-5_1_" fill="#00A651" fill-opacity="0.75" stroke="#00A651" stroke-width="3" d="M114.5,144
	c14.911,0,27,12.088,27,27s-12.089,27-27,27c-14.912,0-27-12.088-27-27S99.588,144,114.5,144L114.5,144z"/>
<path id="Stroke-1-Copy-6_1_" fill="none" stroke="#00A651" stroke-width="3" d="M200,144c14.91,0,27,12.088,27,27s-12.09,27-27,27
	c-14.912,0-27-12.088-27-27S185.088,144,200,144L200,144z"/>
<path id="Stroke-1-Copy-7_1_" fill="none" stroke="#00A651" stroke-width="3" d="M285.5,144c14.91,0,27,12.088,27,27
	s-12.09,27-27,27c-14.912,0-27-12.088-27-27S270.588,144,285.5,144L285.5,144z"/>
<path id="Stroke-1-Copy-8_1_" fill="#00A651" fill-opacity="0.1" stroke="#00A651" stroke-width="3" d="M371,144
	c14.91,0,27,12.088,27,27s-12.09,27-27,27c-14.912,0-27-12.088-27-27S356.088,144,371,144L371,144z"/>
<path id="Stroke-1_1_" fill="#00A651" stroke="#00A651" stroke-width="3" d="M285.5,2c14.91,0,27,12.088,27,27s-12.09,27-27,27
	c-14.912,0-27-12.088-27-27S270.588,2,285.5,2L285.5,2z"/>
</svg>
