<?xml version="1.0" encoding="utf-8"?>
<!-- Generator: Adobe Illustrator 16.0.4, SVG Export Plug-In . SVG Version: 6.00 Build 0)  -->
<!DOCTYPE svg PUBLIC "-//W3C//DTD SVG 1.1//EN" "http://www.w3.org/Graphics/SVG/1.1/DTD/svg11.dtd">
<svg version="1.1" id="Layer_1" xmlns="http://www.w3.org/2000/svg" xmlns:xlink="http://www.w3.org/1999/xlink" x="0px" y="0px"
	 width="100px" height="41.25px" viewBox="0 0 100 41.25" enable-background="new 0 0 100 41.25" xml:space="preserve">
<g>
	<defs>
		<rect id="SVGID_1_" x="5.289" y="22.675" width="87.3" height="0.3"/>
	</defs>
	<clipPath id="SVGID_2_">
		<use xlink:href="#SVGID_1_"  overflow="visible"/>
	</clipPath>
	<rect x="4.539" y="21.925" opacity="0.8" clip-path="url(#SVGID_2_)" fill="#D8D8D8" width="88.8" height="1.8"/>
</g>
<g>
	<path d="M56.344,20.844c-0.062-0.019-0.121-0.027-0.174-0.027c-0.073,0-0.132,0.014-0.175,0.042
		c-0.044,0.028-0.066,0.066-0.066,0.116c0,0.044,0.014,0.08,0.04,0.108s0.059,0.051,0.097,0.067c0.039,0.016,0.092,0.034,0.16,0.057
		c0.086,0.026,0.154,0.051,0.207,0.075s0.098,0.06,0.136,0.107c0.037,0.047,0.056,0.109,0.056,0.188c0,0.072-0.02,0.136-0.059,0.189
		s-0.094,0.096-0.164,0.125s-0.15,0.044-0.242,0.044s-0.183-0.018-0.27-0.054c-0.088-0.036-0.163-0.084-0.228-0.145l0.078-0.149
		c0.06,0.06,0.127,0.104,0.202,0.136c0.075,0.032,0.148,0.048,0.219,0.048c0.084,0,0.15-0.017,0.199-0.049
		c0.048-0.033,0.072-0.078,0.072-0.135c0-0.044-0.013-0.081-0.039-0.109c-0.026-0.029-0.06-0.052-0.101-0.068
		c-0.04-0.017-0.094-0.035-0.162-0.056c-0.084-0.025-0.152-0.05-0.205-0.074c-0.054-0.023-0.098-0.06-0.135-0.106
		c-0.036-0.047-0.055-0.108-0.055-0.185c0-0.067,0.019-0.127,0.056-0.179s0.09-0.091,0.157-0.119
		c0.066-0.027,0.145-0.041,0.233-0.041c0.076,0,0.149,0.011,0.223,0.033c0.072,0.022,0.137,0.052,0.193,0.089l-0.072,0.155
		C56.468,20.891,56.407,20.862,56.344,20.844z"/>
	<path d="M56.898,20.665h0.875v0.156h-0.702v0.389H57.7v0.157h-0.629v0.401h0.724v0.156h-0.896V20.665z"/>
	<path d="M58.92,20.747c0.099,0.055,0.177,0.13,0.232,0.226c0.057,0.096,0.085,0.203,0.085,0.322s-0.028,0.227-0.086,0.322
		c-0.057,0.096-0.135,0.171-0.234,0.226s-0.211,0.082-0.335,0.082h-0.508v-1.26h0.514C58.71,20.665,58.82,20.692,58.92,20.747z
		 M58.83,21.707c0.071-0.041,0.127-0.098,0.169-0.169c0.041-0.072,0.062-0.152,0.062-0.241c0-0.09-0.021-0.171-0.062-0.243
		s-0.1-0.129-0.172-0.17c-0.073-0.042-0.153-0.062-0.242-0.062h-0.337v0.947h0.344C58.679,21.769,58.758,21.748,58.83,21.707z"/>
	<path d="M59.483,20.665h0.173v1.26h-0.173V20.665z"/>
	<path d="M60.017,20.665h0.205l0.461,0.886l0.457-0.886h0.207v1.26h-0.161l-0.002-1.006l-0.448,0.873h-0.106l-0.452-0.873v1.006
		h-0.16V20.665z"/>
	<path d="M61.707,20.665h0.875v0.156H61.88v0.389h0.629v0.157H61.88v0.401h0.724v0.156h-0.896V20.665z"/>
	<path d="M63.778,20.665h0.171v1.26h-0.174l-0.721-0.976v0.976h-0.173v-1.26h0.175l0.722,0.978V20.665z"/>
	<path d="M64.149,20.665h0.985v0.158h-0.407v1.102h-0.173v-1.102h-0.405V20.665z"/>
	<path d="M66.649,20.747c0.099,0.055,0.177,0.13,0.232,0.226c0.057,0.096,0.085,0.203,0.085,0.322s-0.028,0.227-0.086,0.322
		c-0.057,0.096-0.135,0.171-0.234,0.226s-0.211,0.082-0.335,0.082h-0.508v-1.26h0.514C66.439,20.665,66.55,20.692,66.649,20.747z
		 M66.56,21.707c0.071-0.041,0.127-0.098,0.169-0.169c0.041-0.072,0.062-0.152,0.062-0.241c0-0.09-0.021-0.171-0.062-0.243
		s-0.1-0.129-0.172-0.17c-0.073-0.042-0.153-0.062-0.242-0.062h-0.337v0.947h0.344C66.408,21.769,66.487,21.748,66.56,21.707z"/>
	<path d="M67.213,20.665h0.875v0.156h-0.702v0.389h0.629v0.157h-0.629v0.401h0.724v0.156h-0.896V20.665z"/>
	<path d="M69.238,20.776c0.086,0.074,0.129,0.179,0.129,0.313c0,0.141-0.043,0.249-0.13,0.326c-0.086,0.078-0.207,0.116-0.363,0.116
		h-0.313v0.393h-0.173v-1.26h0.486C69.031,20.665,69.152,20.702,69.238,20.776z M69.115,21.305c0.058-0.048,0.086-0.117,0.086-0.21
		c0-0.09-0.028-0.158-0.086-0.204s-0.141-0.069-0.248-0.069l-0.307,0.002v0.553h0.307C68.975,21.376,69.058,21.353,69.115,21.305z"
		/>
	<path d="M69.434,20.665h0.985v0.158h-0.407v1.102h-0.173v-1.102h-0.405V20.665z"/>
	<path d="M70.616,20.665h0.173v0.562h0.721v-0.562h0.174v1.26H71.51v-0.542h-0.721v0.542h-0.173V20.665z"/>
	<path d="M73.366,20.776c0.086,0.074,0.129,0.179,0.129,0.313c0,0.141-0.043,0.249-0.13,0.326c-0.086,0.078-0.207,0.116-0.363,0.116
		h-0.313v0.393h-0.173v-1.26h0.486C73.159,20.665,73.28,20.702,73.366,20.776z M73.243,21.305c0.058-0.048,0.086-0.117,0.086-0.21
		c0-0.09-0.028-0.158-0.086-0.204s-0.141-0.069-0.248-0.069l-0.307,0.002v0.553h0.307C73.103,21.376,73.186,21.353,73.243,21.305z"
		/>
	<path d="M74.537,21.925l-0.25-0.396c-0.028,0.003-0.052,0.004-0.07,0.004h-0.32v0.393h-0.173v-1.26h0.493
		c0.16,0,0.283,0.037,0.37,0.11c0.087,0.074,0.131,0.179,0.131,0.314c0,0.102-0.024,0.188-0.071,0.257
		c-0.048,0.07-0.115,0.12-0.204,0.151l0.293,0.427H74.537z M74.217,21.376c0.108,0,0.191-0.023,0.249-0.071s0.086-0.117,0.086-0.21
		c0-0.09-0.028-0.158-0.086-0.204s-0.141-0.069-0.249-0.069h-0.32v0.555H74.217z"/>
	<path d="M75.909,20.738c0.102,0.057,0.182,0.134,0.24,0.231c0.06,0.098,0.089,0.206,0.089,0.323s-0.029,0.226-0.089,0.325
		c-0.059,0.099-0.139,0.177-0.24,0.233c-0.102,0.058-0.213,0.086-0.334,0.086s-0.232-0.028-0.334-0.086
		c-0.101-0.057-0.181-0.135-0.24-0.233c-0.059-0.1-0.088-0.208-0.088-0.325s0.029-0.226,0.088-0.323
		c0.06-0.098,0.139-0.175,0.24-0.231c0.101-0.056,0.212-0.084,0.334-0.084C75.696,20.654,75.808,20.683,75.909,20.738z
		 M75.333,20.874c-0.074,0.043-0.135,0.102-0.179,0.175c-0.044,0.074-0.066,0.155-0.066,0.244s0.022,0.171,0.066,0.245
		s0.104,0.133,0.179,0.177c0.075,0.044,0.156,0.066,0.244,0.066s0.169-0.022,0.242-0.066c0.074-0.044,0.133-0.103,0.177-0.177
		s0.065-0.156,0.065-0.245s-0.021-0.17-0.065-0.244c-0.044-0.073-0.103-0.132-0.177-0.175c-0.073-0.044-0.154-0.065-0.242-0.065
		S75.408,20.83,75.333,20.874z"/>
	<path d="M76.486,20.665h0.821l-0.002,0.156h-0.646v0.414h0.582v0.156h-0.582v0.533h-0.173V20.665z"/>
	<path d="M77.509,20.665h0.173v1.26h-0.173V20.665z"/>
	<path d="M78.041,20.665h0.173v1.104h0.551v0.156h-0.724V20.665z"/>
	<path d="M78.984,20.665h0.875v0.156h-0.702v0.389h0.629v0.157h-0.629v0.401h0.724v0.156h-0.896V20.665z"/>
</g>
<g>
	<path d="M60.068,23.365h0.174v1.26h-0.174V23.365z"/>
	<path d="M61.498,23.365h0.172v1.26h-0.174l-0.721-0.976v0.976h-0.174v-1.26h0.176l0.721,0.978V23.365z"/>
	<path d="M62.877,23.447c0.098,0.055,0.176,0.13,0.232,0.226s0.084,0.203,0.084,0.322s-0.027,0.227-0.086,0.322
		c-0.057,0.096-0.135,0.171-0.234,0.226s-0.211,0.082-0.334,0.082h-0.508v-1.26h0.514C62.666,23.365,62.777,23.393,62.877,23.447z
		 M62.787,24.407c0.07-0.041,0.127-0.098,0.168-0.169c0.041-0.072,0.062-0.152,0.062-0.241c0-0.09-0.021-0.171-0.062-0.243
		c-0.043-0.072-0.1-0.129-0.172-0.17c-0.074-0.042-0.154-0.062-0.242-0.062h-0.338v0.947h0.344
		C62.635,24.469,62.715,24.448,62.787,24.407z"/>
	<path d="M63.439,23.365h0.174v1.26h-0.174V23.365z"/>
	<path d="M64.91,24.625l-0.135-0.306h-0.664l-0.131,0.306h-0.182l0.561-1.26h0.18l0.557,1.26H64.91z M64.18,24.162h0.529
		l-0.266-0.611L64.18,24.162z"/>
	<path d="M66.176,23.365h0.172v1.26h-0.174l-0.721-0.976v0.976h-0.174v-1.26h0.176l0.721,0.978V23.365z"/>
	<path d="M67.18,23.365h0.174v1.104h0.551v0.156H67.18V23.365z"/>
	<path d="M69.072,24.625l-0.133-0.306h-0.664l-0.131,0.306h-0.182l0.559-1.26h0.18l0.559,1.26H69.072z M68.344,24.162h0.529
		l-0.268-0.611L68.344,24.162z"/>
	<path d="M70.5,24.625h-0.209l-0.443-0.581l-0.232,0.252v0.329h-0.172v-1.26h0.172v0.707l0.645-0.707h0.207l-0.498,0.543
		L70.5,24.625z"/>
	<path d="M70.715,23.365h0.875v0.156h-0.701v0.389h0.629v0.157h-0.629v0.401h0.723v0.156h-0.896V23.365z"/>
	<path d="M71.967,24.467c0.018,0.018,0.027,0.042,0.027,0.072c0,0.013-0.002,0.026-0.008,0.041s-0.012,0.028-0.018,0.041
		l-0.098,0.205h-0.092l0.072-0.203c-0.016-0.008-0.029-0.02-0.037-0.035c-0.01-0.015-0.014-0.031-0.014-0.049
		c0-0.029,0.01-0.053,0.029-0.071c0.018-0.019,0.041-0.028,0.068-0.028S71.947,24.448,71.967,24.467z"/>
	<path d="M73.627,23.365h0.17v1.26h-0.174l-0.721-0.976v0.976H72.73v-1.26h0.174l0.723,0.978V23.365z"/>
	<path d="M75.107,23.365l-0.471,0.828v0.432h-0.174V24.2l-0.479-0.835h0.176l0.389,0.643l0.383-0.643H75.107z"/>
</g>
<g>
	<path d="M93.356,22.164h0.985v0.158h-0.407v1.102h-0.173v-1.102h-0.405V22.164z"/>
	<path d="M95.347,22.238c0.102,0.057,0.182,0.133,0.24,0.23c0.06,0.098,0.089,0.207,0.089,0.324s-0.029,0.225-0.089,0.324
		c-0.059,0.1-0.139,0.178-0.24,0.234s-0.213,0.086-0.334,0.086s-0.232-0.029-0.334-0.086c-0.101-0.057-0.181-0.135-0.24-0.234
		c-0.059-0.1-0.088-0.207-0.088-0.324s0.029-0.227,0.088-0.324c0.06-0.098,0.139-0.174,0.24-0.23
		c0.101-0.057,0.212-0.084,0.334-0.084C95.134,22.154,95.245,22.182,95.347,22.238z M94.771,22.373
		c-0.074,0.043-0.135,0.102-0.179,0.176s-0.066,0.154-0.066,0.244c0,0.088,0.022,0.17,0.066,0.244s0.104,0.133,0.179,0.178
		c0.075,0.043,0.156,0.066,0.244,0.066s0.169-0.023,0.242-0.066c0.074-0.045,0.133-0.104,0.177-0.178s0.065-0.156,0.065-0.244
		c0-0.09-0.021-0.17-0.065-0.244s-0.103-0.133-0.177-0.176c-0.073-0.043-0.154-0.064-0.242-0.064S94.846,22.33,94.771,22.373z"/>
	<path d="M96.769,22.246c0.099,0.055,0.177,0.131,0.232,0.227c0.057,0.096,0.085,0.203,0.085,0.322S97.058,23.021,97,23.117
		c-0.057,0.096-0.135,0.17-0.234,0.225s-0.211,0.082-0.335,0.082h-0.508v-1.26h0.514C96.559,22.164,96.669,22.191,96.769,22.246z
		 M96.679,23.207c0.071-0.041,0.127-0.098,0.169-0.17c0.041-0.072,0.062-0.152,0.062-0.24c0-0.09-0.021-0.172-0.062-0.244
		s-0.1-0.129-0.172-0.17c-0.073-0.041-0.153-0.062-0.242-0.062h-0.337v0.947h0.344C96.527,23.268,96.606,23.248,96.679,23.207z"/>
	<path d="M98.24,23.424l-0.134-0.305h-0.664l-0.131,0.305H97.13l0.56-1.26h0.18l0.558,1.26H98.24z M97.511,22.961h0.529
		l-0.267-0.611L97.511,22.961z"/>
	<path d="M99.478,22.164l-0.472,0.828v0.432h-0.173V23l-0.479-0.836h0.176l0.389,0.643l0.382-0.643H99.478z"/>
</g>
<g>
	<path d="M0.8,22.164h0.459v1.26H1.086V22.32H0.8V22.164z"/>
	<path d="M1.803,23.268c0.05,0.014,0.099,0.02,0.148,0.02c0.12,0,0.212-0.041,0.276-0.127c0.064-0.084,0.096-0.199,0.096-0.346
		c0-0.023,0-0.041-0.001-0.053c-0.03,0.07-0.076,0.123-0.138,0.158c-0.062,0.037-0.137,0.055-0.224,0.055
		c-0.125,0-0.224-0.037-0.295-0.107c-0.072-0.072-0.108-0.17-0.108-0.293c0-0.084,0.018-0.158,0.054-0.223
		c0.036-0.062,0.087-0.111,0.152-0.145s0.141-0.051,0.228-0.051c0.104,0,0.193,0.025,0.269,0.072
		c0.075,0.049,0.133,0.119,0.173,0.209c0.041,0.092,0.061,0.201,0.061,0.328c0,0.133-0.021,0.25-0.065,0.352
		c-0.043,0.1-0.105,0.178-0.186,0.232c-0.08,0.057-0.174,0.084-0.281,0.084c-0.059,0-0.121-0.01-0.187-0.027
		c-0.066-0.016-0.125-0.039-0.176-0.066l0.068-0.131C1.708,23.234,1.753,23.254,1.803,23.268z M1.797,22.379
		c-0.052,0.047-0.077,0.113-0.077,0.197c0,0.08,0.024,0.143,0.074,0.189c0.049,0.047,0.115,0.07,0.198,0.07
		c0.062,0,0.114-0.012,0.159-0.037c0.045-0.025,0.08-0.057,0.104-0.1c0.024-0.041,0.036-0.086,0.036-0.133
		c0-0.041-0.01-0.082-0.031-0.123c-0.021-0.039-0.053-0.072-0.097-0.098c-0.043-0.025-0.096-0.039-0.16-0.039
		C1.917,22.307,1.849,22.33,1.797,22.379z"/>
	<path d="M3.444,22.799c0.074,0.059,0.112,0.137,0.112,0.236c0,0.078-0.021,0.146-0.061,0.207s-0.097,0.107-0.171,0.141
		s-0.16,0.051-0.258,0.051c-0.079,0-0.159-0.012-0.239-0.037c-0.08-0.023-0.148-0.055-0.206-0.094l0.074-0.141
		c0.051,0.039,0.107,0.07,0.169,0.092s0.126,0.031,0.191,0.031c0.103,0,0.184-0.021,0.243-0.066
		c0.059-0.045,0.088-0.104,0.088-0.178s-0.029-0.131-0.088-0.17c-0.059-0.039-0.142-0.059-0.248-0.059H2.877v-0.109l0.387-0.383
		H2.683l-0.002-0.156h0.81v0.109l-0.423,0.42l0.075,0.006C3.269,22.707,3.37,22.738,3.444,22.799z"/>
	<path d="M4.689,22.322c0.091,0.109,0.137,0.268,0.137,0.473s-0.046,0.363-0.137,0.473c-0.091,0.111-0.221,0.166-0.391,0.166
		c-0.17,0-0.301-0.055-0.391-0.166C3.817,23.158,3.771,23,3.771,22.795s0.045-0.363,0.136-0.473c0.09-0.109,0.221-0.166,0.391-0.166
		C4.468,22.156,4.599,22.213,4.689,22.322z M3.95,22.795c0,0.164,0.03,0.289,0.088,0.373s0.146,0.127,0.261,0.127
		c0.115,0,0.203-0.043,0.261-0.127s0.088-0.209,0.088-0.373c0-0.334-0.117-0.502-0.35-0.502C4.066,22.293,3.95,22.461,3.95,22.795z"
		/>
</g>
<path fill="none" stroke="#009777" stroke-width="1.5" stroke-linecap="round" stroke-linejoin="round" stroke-miterlimit="10" d="
	M5.589,16.518l1.537,3.002l2.585,0.528l0.692,4.311l2.612-3.071l1.238,3.827l0.801-3.015l2.236,2.597l0.588,5.442l1.678-5.591
	l2.279,4.098l2.931-2.458l0.634,5.21l1.933,2.853l2.234-7.647l1.057,2.244l1.134-0.234l0.98,1.891l0.86-4.182l1.387,2.567
	l0.512-4.111l1.104,0.644l0.484-2.521l1.209,1.428l1.687-4.986l0.588-4.21l1.439,2.083l1.028-1.03l1.36,2.579l0.951,0.927
	l0.876-3.608l2.477,2.4l1.904-2.633l2.642,1.438l2.281-1.828l0.635-2.215l2.188-2.327l0.692,4.136l3.506-9.928L64.3,10.64
	l1.132-1.791l1.086,5.007l1.087-2.726l1.39,1.511l2.37-4.738l2.25,6.47l1.012-4.803l2.128,3.234l2.021-2.281l2.746,2.113l3.64-2.846
	l2.31,2.039l0.998,2.181l1.041-1.969c0,0,2.053,0.948,3.079,1.423"/>
</svg>
