<?xml version="1.0" encoding="utf-8"?>
<!-- Generator: Adobe Illustrator 16.0.4, SVG Export Plug-In . SVG Version: 6.00 Build 0)  -->
<!DOCTYPE svg PUBLIC "-//W3C//DTD SVG 1.1//EN" "http://www.w3.org/Graphics/SVG/1.1/DTD/svg11.dtd">
<svg version="1.1" id="Layer_1" xmlns="http://www.w3.org/2000/svg" xmlns:xlink="http://www.w3.org/1999/xlink" x="0px" y="0px"
	 width="822px" height="206px" viewBox="0 0 822 206" enable-background="new 0 0 822 206" xml:space="preserve">
<g>
	<g>
		<path fill="#6B6B6E" d="M50.032,177.9c0.62,0.537,0.93,1.291,0.93,2.262c0,1.015-0.312,1.801-0.936,2.359
			c-0.624,0.56-1.5,0.839-2.626,0.839h-2.262v2.834h-1.248v-9.1h3.51C48.535,177.095,49.412,177.363,50.032,177.9z M49.141,181.716
			c0.416-0.342,0.624-0.847,0.624-1.515c0-0.649-0.208-1.142-0.624-1.476c-0.416-0.333-1.014-0.5-1.794-0.5l-2.21,0.013v3.991h2.21
			C48.127,182.229,48.726,182.059,49.141,181.716z"/>
		<path fill="#6B6B6E" d="M58.339,177.627c0.732,0.408,1.311,0.965,1.735,1.671c0.425,0.706,0.637,1.484,0.637,2.333
			c0,0.85-0.212,1.632-0.637,2.347c-0.424,0.715-1.003,1.278-1.735,1.69c-0.732,0.411-1.536,0.617-2.412,0.617
			s-1.679-0.206-2.411-0.617c-0.733-0.412-1.311-0.976-1.736-1.69s-0.637-1.497-0.637-2.347c0-0.849,0.212-1.627,0.637-2.333
			s1.001-1.263,1.729-1.671c0.728-0.407,1.534-0.61,2.418-0.61C56.803,177.017,57.606,177.22,58.339,177.627z M54.179,178.603
			c-0.542,0.312-0.973,0.734-1.293,1.268s-0.481,1.12-0.481,1.761c0,0.642,0.16,1.231,0.481,1.769s0.752,0.964,1.293,1.28
			s1.129,0.475,1.762,0.475c0.632,0,1.215-0.158,1.749-0.475c0.533-0.316,0.958-0.743,1.274-1.28s0.475-1.127,0.475-1.769
			c0-0.641-0.158-1.228-0.475-1.761s-0.741-0.956-1.274-1.268c-0.533-0.312-1.116-0.468-1.749-0.468
			C55.308,178.135,54.72,178.29,54.179,178.603z"/>
		<path fill="#6B6B6E" d="M63.59,184.446c0.464,0.472,1.103,0.708,1.917,0.708c0.806,0,1.438-0.236,1.898-0.708
			c0.459-0.473,0.689-1.129,0.689-1.97v-5.382h1.248v5.382c0,1.188-0.34,2.119-1.021,2.795c-0.68,0.676-1.618,1.014-2.814,1.014
			c-1.205,0-2.149-0.338-2.834-1.014s-1.027-1.607-1.027-2.795v-5.382h1.248v5.382C62.895,183.317,63.127,183.974,63.59,184.446z"/>
		<path fill="#6B6B6E" d="M77.377,181.748h1.105v3.341c-0.459,0.364-0.997,0.655-1.612,0.871c-0.615,0.217-1.227,0.325-1.833,0.325
			c-0.875,0-1.677-0.206-2.405-0.617c-0.728-0.412-1.302-0.976-1.723-1.69s-0.63-1.497-0.63-2.347c0-0.849,0.212-1.627,0.637-2.333
			s1.005-1.263,1.742-1.671c0.736-0.407,1.551-0.61,2.444-0.61c0.633,0,1.25,0.112,1.853,0.338s1.125,0.533,1.566,0.923l-0.715,0.91
			c-0.364-0.338-0.782-0.601-1.254-0.787c-0.473-0.186-0.956-0.279-1.45-0.279c-0.65,0-1.248,0.156-1.794,0.468
			c-0.546,0.312-0.977,0.737-1.293,1.274s-0.475,1.127-0.475,1.768c0,0.642,0.16,1.233,0.481,1.775
			c0.321,0.541,0.754,0.971,1.3,1.286c0.546,0.317,1.144,0.475,1.794,0.475c0.381,0,0.769-0.062,1.164-0.188
			c0.394-0.125,0.76-0.301,1.098-0.526V181.748z"/>
		<path fill="#6B6B6E" d="M80.185,177.095h1.248v4.056h5.2v-4.056h1.261v9.1h-1.261v-3.913h-5.2v3.913h-1.248V177.095z"/>
		<path fill="#6B6B6E" d="M97.462,186.194h-1.508l-3.199-4.199l-1.676,1.82v2.379h-1.248v-9.1h1.248v5.108l4.655-5.108h1.494
			l-3.602,3.926L97.462,186.194z"/>
		<path fill="#6B6B6E" d="M98.358,177.095h6.318v1.131h-5.07v2.808h4.537v1.131h-4.537v2.899h5.227v1.131h-6.475V177.095z"/>
		<path fill="#6B6B6E" d="M106.185,177.095h6.318v1.131h-5.07v2.808h4.537v1.131h-4.537v2.899h5.227v1.131h-6.475V177.095z"/>
		<path fill="#6B6B6E" d="M120.153,177.9c0.62,0.537,0.93,1.291,0.93,2.262c0,1.015-0.312,1.801-0.937,2.359
			c-0.624,0.56-1.499,0.839-2.626,0.839h-2.262v2.834h-1.248v-9.1h3.51C118.656,177.095,119.534,177.363,120.153,177.9z
			 M119.263,181.716c0.416-0.342,0.624-0.847,0.624-1.515c0-0.649-0.208-1.142-0.624-1.476c-0.416-0.333-1.014-0.5-1.794-0.5
			l-2.21,0.013v3.991h2.21C118.249,182.229,118.847,182.059,119.263,181.716z"/>
		<path fill="#6B6B6E" d="M126.068,178.388c-0.455-0.134-0.874-0.201-1.255-0.201c-0.528,0-0.951,0.102-1.268,0.306
			c-0.316,0.203-0.475,0.482-0.475,0.838c0,0.321,0.096,0.583,0.286,0.787c0.19,0.203,0.425,0.363,0.702,0.48
			s0.663,0.254,1.157,0.41c0.615,0.19,1.113,0.372,1.495,0.546c0.381,0.173,0.706,0.431,0.975,0.773
			c0.269,0.342,0.403,0.795,0.403,1.358c0,0.52-0.142,0.975-0.423,1.365c-0.281,0.39-0.676,0.69-1.183,0.903
			c-0.508,0.212-1.091,0.318-1.749,0.318c-0.667,0-1.317-0.13-1.95-0.39c-0.633-0.261-1.179-0.607-1.638-1.04l0.559-1.079
			c0.434,0.425,0.921,0.752,1.463,0.981s1.068,0.344,1.579,0.344c0.607,0,1.086-0.118,1.437-0.357
			c0.352-0.238,0.527-0.561,0.527-0.968c0-0.321-0.096-0.585-0.286-0.793c-0.191-0.208-0.432-0.373-0.722-0.494
			c-0.291-0.121-0.683-0.256-1.177-0.403c-0.606-0.182-1.101-0.359-1.481-0.533c-0.382-0.173-0.705-0.429-0.969-0.767
			c-0.265-0.338-0.396-0.784-0.396-1.339c0-0.485,0.134-0.914,0.403-1.287c0.268-0.373,0.646-0.658,1.131-0.858
			c0.485-0.199,1.048-0.299,1.689-0.299c0.546,0,1.081,0.08,1.605,0.24c0.524,0.161,0.99,0.375,1.397,0.644l-0.52,1.118
			C126.963,178.724,126.523,178.522,126.068,178.388z"/>
		<path fill="#6B6B6E" d="M129.415,177.095h1.248v9.1h-1.248V177.095z"/>
		<path fill="#6B6B6E" d="M132.601,177.095h6.318v1.131h-5.07v2.808h4.537v1.131h-4.537v2.899h5.227v1.131h-6.475V177.095z"/>
	</g>
	<g>
		<path fill="#6B6B6E" d="M240.615,177.095h1.248v4.056h5.2v-4.056h1.261v9.1h-1.261v-3.913h-5.2v3.913h-1.248V177.095z"/>
		<path fill="#6B6B6E" d="M257.021,186.194l-0.962-2.21h-4.797l-0.949,2.21H249l4.043-9.1h1.3l4.03,9.1H257.021z M251.756,182.854
			h3.822l-1.924-4.42L251.756,182.854z"/>
		<path fill="#6B6B6E" d="M257.19,177.095h1.339l3.003,7.709l3.003-7.709h1.313l-3.692,9.1h-1.3L257.19,177.095z"/>
		<path fill="#6B6B6E" d="M266.55,177.095h6.318v1.131h-5.07v2.808h4.537v1.131h-4.537v2.899h5.226v1.131h-6.474V177.095z"/>
		<path fill="#6B6B6E" d="M280.252,186.194l-1.807-2.86c-0.208,0.018-0.377,0.026-0.507,0.026h-2.314v2.834h-1.248v-9.1h3.562
			c1.153,0,2.043,0.266,2.672,0.799c0.628,0.533,0.942,1.289,0.942,2.269c0,0.737-0.171,1.356-0.514,1.859s-0.834,0.866-1.476,1.092
			l2.119,3.081H280.252z M277.938,182.229c0.78,0,1.378-0.171,1.794-0.514c0.416-0.342,0.624-0.847,0.624-1.515
			c0-0.649-0.208-1.142-0.624-1.476c-0.416-0.333-1.014-0.5-1.794-0.5h-2.314v4.004H277.938z"/>
		<path fill="#6B6B6E" d="M287.109,178.388c-0.455-0.134-0.873-0.201-1.254-0.201c-0.529,0-0.951,0.102-1.268,0.306
			c-0.316,0.203-0.475,0.482-0.475,0.838c0,0.321,0.096,0.583,0.286,0.787c0.19,0.203,0.425,0.363,0.702,0.48
			s0.663,0.254,1.157,0.41c0.615,0.19,1.114,0.372,1.495,0.546c0.381,0.173,0.707,0.431,0.975,0.773
			c0.269,0.342,0.403,0.795,0.403,1.358c0,0.52-0.141,0.975-0.423,1.365c-0.282,0.39-0.676,0.69-1.183,0.903
			c-0.507,0.212-1.09,0.318-1.749,0.318c-0.667,0-1.317-0.13-1.95-0.39c-0.633-0.261-1.179-0.607-1.638-1.04l0.559-1.079
			c0.433,0.425,0.921,0.752,1.462,0.981s1.068,0.344,1.58,0.344c0.606,0,1.085-0.118,1.437-0.357
			c0.351-0.238,0.526-0.561,0.526-0.968c0-0.321-0.095-0.585-0.286-0.793c-0.19-0.208-0.431-0.373-0.721-0.494
			c-0.291-0.121-0.683-0.256-1.177-0.403c-0.606-0.182-1.101-0.359-1.482-0.533c-0.381-0.173-0.704-0.429-0.968-0.767
			c-0.265-0.338-0.396-0.784-0.396-1.339c0-0.485,0.134-0.914,0.403-1.287s0.646-0.658,1.131-0.858
			c0.485-0.199,1.049-0.299,1.69-0.299c0.546,0,1.081,0.08,1.605,0.24c0.524,0.161,0.99,0.375,1.398,0.644l-0.52,1.118
			C288.004,178.724,287.564,178.522,287.109,178.388z"/>
		<path fill="#6B6B6E" d="M289.287,177.095h7.111v1.144h-2.938v7.956h-1.248v-7.956h-2.925V177.095z"/>
		<path fill="#6B6B6E" d="M303.041,186.194l-1.807-2.86c-0.208,0.018-0.377,0.026-0.507,0.026h-2.314v2.834h-1.248v-9.1h3.562
			c1.152,0,2.043,0.266,2.671,0.799c0.629,0.533,0.942,1.289,0.942,2.269c0,0.737-0.171,1.356-0.513,1.859
			c-0.343,0.503-0.835,0.866-1.476,1.092l2.119,3.081H303.041z M300.727,182.229c0.779,0,1.378-0.171,1.794-0.514
			c0.416-0.342,0.624-0.847,0.624-1.515c0-0.649-0.208-1.142-0.624-1.476c-0.416-0.333-1.015-0.5-1.794-0.5h-2.314v4.004H300.727z"
			/>
		<path fill="#6B6B6E" d="M312.661,186.194l-0.962-2.21h-4.797l-0.949,2.21h-1.312l4.043-9.1h1.3l4.03,9.1H312.661z
			 M307.396,182.854h3.822l-1.924-4.42L307.396,182.854z"/>
		<path fill="#6B6B6E" d="M325.011,177.095h1.3l-3.081,9.1h-1.3l-2.354-7.514l-2.392,7.514h-1.287l-3.067-9.1h1.339l2.404,7.761
			l2.393-7.761h1.248l2.404,7.761L325.011,177.095z"/>
		<path fill="#6B6B6E" d="M335.821,177.699c0.532,0.402,0.799,0.96,0.799,1.67c0,0.521-0.147,0.96-0.441,1.319
			c-0.295,0.36-0.698,0.601-1.209,0.722c0.632,0.096,1.128,0.35,1.488,0.761c0.359,0.412,0.539,0.925,0.539,1.54
			c0,0.78-0.292,1.39-0.877,1.827s-1.394,0.656-2.425,0.656h-3.952v-9.1h3.887C334.557,177.095,335.288,177.296,335.821,177.699z
			 M334.872,180.598c0.308-0.238,0.461-0.578,0.461-1.021c0-0.433-0.153-0.767-0.461-1.001c-0.308-0.233-0.743-0.347-1.307-0.338
			h-2.574v2.717h2.574C334.128,180.955,334.564,180.836,334.872,180.598z M335.151,184.667c0.381-0.265,0.572-0.635,0.572-1.111
			c0-0.46-0.191-0.819-0.572-1.079c-0.382-0.26-0.91-0.391-1.586-0.391h-2.574v2.965h2.574
			C334.241,185.059,334.769,184.932,335.151,184.667z"/>
		<path fill="#6B6B6E" d="M345.095,186.194l-0.962-2.21h-4.797l-0.949,2.21h-1.312l4.043-9.1h1.3l4.03,9.1H345.095z
			 M339.831,182.854h3.822l-1.924-4.42L339.831,182.854z"/>
		<path fill="#6B6B6E" d="M353.351,177.095l-3.406,5.979v3.12h-1.248v-3.068l-3.458-6.031h1.274l2.808,4.641l2.756-4.641H353.351z"
			/>
	</g>
	<g>
		<path fill="#6B6B6E" d="M483.492,177.095h1.234v9.1h-1.26l-5.201-7.046v7.046h-1.248v-9.1h1.262l5.213,7.059V177.095z"/>
		<path fill="#6B6B6E" d="M486.677,177.095h6.318v1.131h-5.07v2.808h4.537v1.131h-4.537v2.899h5.226v1.131h-6.474V177.095z"/>
		<path fill="#6B6B6E" d="M505.449,177.095h1.3l-3.081,9.1h-1.3l-2.353-7.514l-2.393,7.514h-1.287l-3.068-9.1h1.34l2.404,7.761
			l2.393-7.761h1.248l2.404,7.761L505.449,177.095z"/>
		<path fill="#6B6B6E" d="M513.587,186.194l-0.962-2.21h-4.797l-0.949,2.21h-1.312l4.043-9.1h1.299l4.031,9.1H513.587z
			 M508.322,182.854h3.822l-1.925-4.42L508.322,182.854z"/>
		<path fill="#6B6B6E" d="M521.478,186.194l-1.807-2.86c-0.208,0.018-0.377,0.026-0.507,0.026h-2.314v2.834h-1.248v-9.1h3.562
			c1.152,0,2.043,0.266,2.672,0.799c0.627,0.533,0.941,1.289,0.941,2.269c0,0.737-0.171,1.356-0.514,1.859
			c-0.342,0.503-0.834,0.866-1.475,1.092l2.119,3.081H521.478z M519.164,182.229c0.779,0,1.378-0.171,1.793-0.514
			c0.416-0.342,0.625-0.847,0.625-1.515c0-0.649-0.209-1.142-0.625-1.476c-0.415-0.333-1.014-0.5-1.793-0.5h-2.314v4.004H519.164z"
			/>
		<path fill="#6B6B6E" d="M531.969,186.194h-1.508l-3.197-4.199l-1.678,1.82v2.379h-1.248v-9.1h1.248v5.108l4.654-5.108h1.496
			l-3.602,3.926L531.969,186.194z"/>
		<path fill="#6B6B6E" d="M541.688,177.699c0.531,0.402,0.799,0.96,0.799,1.67c0,0.521-0.148,0.96-0.441,1.319
			c-0.295,0.36-0.699,0.601-1.209,0.722c0.631,0.096,1.127,0.35,1.488,0.761c0.359,0.412,0.539,0.925,0.539,1.54
			c0,0.78-0.293,1.39-0.877,1.827c-0.586,0.438-1.395,0.656-2.426,0.656h-3.951v-9.1h3.887
			C540.424,177.095,541.154,177.296,541.688,177.699z M540.738,180.598c0.307-0.238,0.461-0.578,0.461-1.021
			c0-0.433-0.154-0.767-0.461-1.001c-0.309-0.233-0.744-0.347-1.307-0.338h-2.574v2.717h2.574
			C539.994,180.955,540.43,180.836,540.738,180.598z M541.018,184.667c0.381-0.265,0.572-0.635,0.572-1.111
			c0-0.46-0.191-0.819-0.572-1.079c-0.383-0.26-0.91-0.391-1.586-0.391h-2.574v2.965h2.574
			C540.107,185.059,540.635,184.932,541.018,184.667z"/>
		<path fill="#6B6B6E" d="M550.961,186.194l-0.961-2.21h-4.797l-0.949,2.21h-1.312l4.043-9.1h1.299l4.031,9.1H550.961z
			 M545.697,182.854h3.822l-1.924-4.42L545.697,182.854z"/>
		<path fill="#6B6B6E" d="M559.217,177.095l-3.406,5.979v3.12h-1.248v-3.068l-3.457-6.031h1.273l2.809,4.641l2.756-4.641H559.217z"
			/>
	</g>
	<g>
		<path fill="#6B6B6E" d="M691.589,177.263c0.667,0.578,1.001,1.391,1.001,2.436c0,1.092-0.336,1.939-1.008,2.541
			c-0.672,0.603-1.615,0.903-2.828,0.903h-2.436v3.052h-1.345v-9.8h3.78C689.977,176.395,690.922,176.684,691.589,177.263z
			 M690.63,181.371c0.448-0.368,0.672-0.912,0.672-1.631c0-0.7-0.224-1.229-0.672-1.589s-1.093-0.539-1.933-0.539l-2.379,0.014
			v4.299h2.379C689.537,181.925,690.182,181.74,690.63,181.371z"/>
		<path fill="#6B6B6E" d="M700.359,186.194l-1.035-2.38h-5.166l-1.022,2.38h-1.414l4.354-9.8h1.399l4.341,9.8H700.359z
			 M694.689,182.597h4.116l-2.071-4.761L694.689,182.597z"/>
		<path fill="#6B6B6E" d="M706.736,177.787c-0.49-0.145-0.939-0.217-1.351-0.217c-0.569,0-1.024,0.109-1.365,0.329
			s-0.511,0.521-0.511,0.903c0,0.345,0.103,0.627,0.309,0.847c0.205,0.22,0.457,0.392,0.756,0.518s0.713,0.273,1.246,0.441
			c0.662,0.205,1.199,0.401,1.609,0.588s0.761,0.465,1.051,0.833c0.289,0.369,0.434,0.856,0.434,1.463
			c0,0.561-0.152,1.05-0.455,1.47c-0.304,0.421-0.729,0.745-1.274,0.974s-1.174,0.343-1.883,0.343c-0.719,0-1.419-0.14-2.101-0.42
			c-0.681-0.28-1.27-0.653-1.764-1.12l0.602-1.162c0.467,0.458,0.992,0.81,1.576,1.058c0.582,0.247,1.15,0.37,1.701,0.37
			c0.652,0,1.168-0.128,1.547-0.385c0.377-0.257,0.566-0.604,0.566-1.043c0-0.345-0.103-0.63-0.309-0.854
			c-0.205-0.225-0.464-0.401-0.776-0.532c-0.313-0.131-0.735-0.275-1.267-0.435c-0.654-0.195-1.186-0.387-1.596-0.573
			c-0.412-0.187-0.76-0.462-1.043-0.826c-0.285-0.364-0.428-0.845-0.428-1.442c0-0.522,0.145-0.984,0.434-1.386
			s0.695-0.709,1.219-0.924c0.522-0.215,1.129-0.322,1.82-0.322c0.588,0,1.164,0.087,1.729,0.259
			c0.564,0.173,1.066,0.404,1.505,0.693l-0.56,1.204C707.7,178.149,707.227,177.933,706.736,177.787z"/>
		<path fill="#6B6B6E" d="M714.646,177.787c-0.49-0.145-0.94-0.217-1.352-0.217c-0.568,0-1.023,0.109-1.365,0.329
			c-0.34,0.22-0.51,0.521-0.51,0.903c0,0.345,0.102,0.627,0.308,0.847c0.205,0.22,0.457,0.392,0.756,0.518s0.714,0.273,1.246,0.441
			c0.663,0.205,1.199,0.401,1.61,0.588c0.41,0.187,0.76,0.465,1.05,0.833c0.289,0.369,0.434,0.856,0.434,1.463
			c0,0.561-0.151,1.05-0.455,1.47c-0.304,0.421-0.728,0.745-1.274,0.974c-0.545,0.229-1.174,0.343-1.883,0.343
			c-0.719,0-1.418-0.14-2.1-0.42s-1.27-0.653-1.764-1.12l0.602-1.162c0.467,0.458,0.992,0.81,1.575,1.058
			c0.583,0.247,1.15,0.37,1.701,0.37c0.653,0,1.169-0.128,1.547-0.385s0.567-0.604,0.567-1.043c0-0.345-0.104-0.63-0.309-0.854
			c-0.205-0.225-0.465-0.401-0.777-0.532s-0.734-0.275-1.267-0.435c-0.653-0.195-1.186-0.387-1.596-0.573
			c-0.411-0.187-0.759-0.462-1.043-0.826c-0.285-0.364-0.427-0.845-0.427-1.442c0-0.522,0.145-0.984,0.434-1.386
			s0.695-0.709,1.218-0.924s1.13-0.322,1.82-0.322c0.588,0,1.164,0.087,1.729,0.259c0.564,0.173,1.065,0.404,1.504,0.693
			l-0.56,1.204C715.609,178.149,715.137,177.933,714.646,177.787z"/>
		<path fill="#6B6B6E" d="M725.434,186.194l-1.036-2.38h-5.166l-1.022,2.38h-1.414l4.354-9.8h1.399l4.341,9.8H725.434z
			 M719.764,182.597h4.115l-2.071-4.761L719.764,182.597z"/>
		<path fill="#6B6B6E" d="M727.604,176.395h1.344v9.8h-1.344V176.395z"/>
		<path fill="#6B6B6E" d="M736.829,177.829c-0.494-0.219-1.004-0.329-1.525-0.329c-0.691,0-1.326,0.168-1.904,0.504
			c-0.579,0.337-1.036,0.791-1.372,1.365s-0.504,1.207-0.504,1.897c0,0.681,0.168,1.312,0.504,1.89
			c0.336,0.579,0.793,1.036,1.372,1.372c0.578,0.336,1.213,0.504,1.904,0.504c0.514,0,1.018-0.104,1.512-0.314
			s0.934-0.497,1.316-0.861l0.811,0.882c-0.494,0.485-1.068,0.866-1.721,1.141c-0.654,0.275-1.316,0.413-1.988,0.413
			c-0.934,0-1.787-0.222-2.562-0.665c-0.775-0.442-1.387-1.047-1.834-1.812c-0.449-0.766-0.672-1.61-0.672-2.534
			c0-0.914,0.226-1.752,0.678-2.513c0.453-0.761,1.072-1.36,1.855-1.799c0.784-0.439,1.647-0.658,2.591-0.658
			c0.68,0,1.342,0.128,1.98,0.385s1.191,0.618,1.658,1.085l-0.797,0.966C737.759,178.354,737.323,178.049,736.829,177.829z"/>
		<path fill="#6B6B6E" d="M749.387,186.194l-1.945-3.08c-0.225,0.019-0.406,0.028-0.546,0.028h-2.492v3.052h-1.344v-9.8h3.836
			c1.241,0,2.2,0.287,2.877,0.86c0.677,0.574,1.015,1.389,1.015,2.443c0,0.794-0.185,1.461-0.553,2.002
			c-0.369,0.542-0.898,0.934-1.589,1.176l2.281,3.318H749.387z M746.896,181.925c0.84,0,1.483-0.185,1.932-0.554
			c0.448-0.368,0.672-0.912,0.672-1.631c0-0.7-0.224-1.229-0.672-1.589s-1.092-0.539-1.932-0.539h-2.492v4.312H746.896z"/>
		<path fill="#6B6B6E" d="M752.468,176.395h1.344v9.8h-1.344V176.395z"/>
		<path fill="#6B6B6E" d="M754.567,176.395h1.441l3.234,8.302l3.234-8.302h1.413l-3.976,9.8h-1.4L754.567,176.395z"/>
		<path fill="#6B6B6E" d="M764.647,176.395h6.804v1.218h-5.46v3.024h4.886v1.218h-4.886v3.122h5.628v1.218h-6.972V176.395z"/>
		<path fill="#6B6B6E" d="M779.402,186.194l-1.945-3.08c-0.225,0.019-0.406,0.028-0.546,0.028h-2.492v3.052h-1.344v-9.8h3.836
			c1.241,0,2.2,0.287,2.877,0.86c0.677,0.574,1.015,1.389,1.015,2.443c0,0.794-0.185,1.461-0.553,2.002
			c-0.369,0.542-0.898,0.934-1.589,1.176l2.281,3.318H779.402z M776.911,181.925c0.84,0,1.483-0.185,1.932-0.554
			c0.448-0.368,0.672-0.912,0.672-1.631c0-0.7-0.224-1.229-0.672-1.589s-1.092-0.539-1.932-0.539h-2.492v4.312H776.911z"/>
	</g>
	<g>
		<path d="M692.096,118.239c0.008-0.518,0.098-0.979,0.27-1.388c0.172-0.407,0.398-0.752,0.681-1.034
			c0.282-0.281,0.607-0.498,0.976-0.648c0.369-0.15,0.754-0.228,1.156-0.231c0.49-0.004,0.917,0.081,1.28,0.255
			c0.362,0.174,0.663,0.412,0.9,0.715c0.237,0.304,0.415,0.66,0.53,1.069s0.172,0.848,0.168,1.314
			c-0.004,0.514-0.086,0.983-0.246,1.408s-0.377,0.788-0.648,1.092c-0.272,0.303-0.592,0.538-0.956,0.706
			c-0.365,0.168-0.756,0.252-1.173,0.252c-0.533,0-0.986-0.097-1.361-0.289c-0.375-0.193-0.68-0.452-0.916-0.776
			c-0.234-0.324-0.406-0.698-0.512-1.121C692.138,119.14,692.088,118.698,692.096,118.239z M695.085,121.101
			c0.328,0.008,0.605-0.048,0.831-0.168c0.227-0.12,0.41-0.296,0.551-0.53c0.141-0.233,0.243-0.522,0.307-0.868
			c0.064-0.346,0.096-0.743,0.096-1.19c0-0.391-0.033-0.754-0.102-1.092c-0.067-0.338-0.174-0.633-0.318-0.884
			s-0.328-0.449-0.551-0.594c-0.222-0.145-0.485-0.221-0.79-0.229c-0.329-0.004-0.607,0.053-0.837,0.171
			c-0.23,0.117-0.418,0.29-0.564,0.519c-0.147,0.228-0.254,0.506-0.322,0.834c-0.067,0.328-0.102,0.7-0.102,1.117
			c0,0.375,0.037,0.736,0.11,1.084s0.184,0.655,0.33,0.924c0.147,0.269,0.333,0.484,0.56,0.648
			C694.509,121.007,694.775,121.093,695.085,121.101z"/>
		<path d="M699.203,115.847l-0.562-0.11v-0.607h2.548v0.607l-0.712,0.122l1.269,3.093l0.545,1.657l0.533-1.587l1.105-3.163
			l-0.741-0.116v-0.613h2.312v0.607l-0.614,0.128l-2.357,5.885h-0.782L699.203,115.847z"/>
		<path d="M706.091,118.39c0-0.494,0.078-0.95,0.235-1.367c0.156-0.417,0.374-0.778,0.654-1.083c0.279-0.305,0.617-0.545,1.01-0.721
			c0.395-0.176,0.829-0.27,1.305-0.281c0.339-0.008,0.646,0.041,0.92,0.147c0.274,0.106,0.508,0.264,0.701,0.473
			c0.193,0.208,0.345,0.463,0.455,0.765c0.109,0.301,0.172,0.643,0.188,1.024c0.008,0.244,0.004,0.454-0.014,0.632
			s-0.036,0.336-0.055,0.475h-4.293c0,0.023,0,0.046,0,0.067c0,0.021,0.002,0.043,0.006,0.066c0.016,0.467,0.095,0.854,0.237,1.158
			c0.144,0.305,0.321,0.548,0.536,0.727c0.215,0.18,0.451,0.306,0.709,0.377c0.26,0.071,0.512,0.107,0.76,0.107
			c0.15,0,0.309-0.009,0.475-0.026s0.327-0.042,0.483-0.075c0.157-0.033,0.302-0.07,0.435-0.113c0.133-0.042,0.24-0.087,0.321-0.133
			l0.214,0.492c-0.111,0.101-0.258,0.191-0.437,0.272c-0.18,0.081-0.376,0.149-0.588,0.205c-0.212,0.057-0.435,0.099-0.667,0.128
			c-0.23,0.029-0.457,0.043-0.678,0.043c-0.467,0-0.881-0.08-1.242-0.24s-0.665-0.386-0.912-0.678
			c-0.247-0.291-0.436-0.644-0.564-1.057S706.091,118.899,706.091,118.39z M710.377,117.77c0.012-0.196,0.016-0.395,0.01-0.594
			c-0.006-0.198-0.031-0.388-0.073-0.567s-0.106-0.344-0.194-0.492c-0.086-0.148-0.203-0.27-0.35-0.362
			c-0.101-0.065-0.215-0.114-0.342-0.147c-0.128-0.033-0.272-0.049-0.435-0.049c-0.216,0-0.426,0.04-0.628,0.121
			c-0.203,0.081-0.385,0.211-0.545,0.389c-0.16,0.177-0.295,0.406-0.402,0.686c-0.109,0.28-0.178,0.619-0.209,1.017H710.377z"/>
		<path d="M712.793,121.118l0.938-0.122v-4.715l-0.822-0.452v-0.358l1.529-0.458l0.272,0.116v0.892
			c0.073-0.108,0.185-0.222,0.333-0.342c0.148-0.119,0.316-0.229,0.502-0.327c0.185-0.099,0.378-0.18,0.578-0.243
			c0.201-0.063,0.391-0.096,0.568-0.096c0.127,0,0.242,0.003,0.344,0.009c0.104,0.006,0.176,0.017,0.218,0.032v1.187
			c-0.062-0.022-0.126-0.047-0.19-0.072c-0.066-0.024-0.139-0.046-0.218-0.063s-0.169-0.032-0.27-0.043
			c-0.101-0.012-0.216-0.018-0.348-0.018c-0.312,0-0.575,0.039-0.788,0.118c-0.212,0.08-0.406,0.175-0.584,0.287v4.529l1.65,0.14
			v0.492h-3.713V121.118z"/>
		<path d="M721.123,121.118l0.99-0.168v-7.669l-0.956-0.099v-0.568h6.222l0.109,1.651l-0.579,0.012l-0.267-0.944l-3.406-0.081v3.452
			l2.549-0.052l0.232-0.84h0.567v2.433h-0.644l-0.15-0.875l-2.555-0.046v3.62l1.674,0.116v0.55h-3.787V121.118z"/>
		<path d="M728.305,121.118l0.979-0.174v-7.658l-0.955-0.104v-0.568h1.523c0.259,0,0.482-0.004,0.672-0.011
			c0.189-0.008,0.365-0.018,0.527-0.029s0.32-0.021,0.475-0.029s0.322-0.012,0.504-0.012c0.75-0.004,1.398,0.094,1.946,0.293
			s1.003,0.486,1.361,0.863c0.359,0.376,0.626,0.833,0.8,1.369c0.174,0.537,0.26,1.144,0.26,1.819c0,0.761-0.117,1.44-0.354,2.039
			c-0.234,0.599-0.559,1.104-0.97,1.518s-0.896,0.726-1.454,0.938c-0.558,0.212-1.157,0.311-1.799,0.295
			c-0.285-0.008-0.586-0.02-0.9-0.037s-0.665-0.026-1.051-0.026c-0.263,0-0.523,0.001-0.782,0.003s-0.52,0.003-0.782,0.003V121.118z
			 M730.414,120.846c0.246,0.069,0.502,0.119,0.764,0.147c0.263,0.029,0.545,0.04,0.846,0.032c0.425-0.012,0.83-0.097,1.214-0.255
			s0.724-0.395,1.017-0.71c0.293-0.314,0.525-0.712,0.697-1.193c0.172-0.48,0.258-1.049,0.258-1.705
			c0-0.684-0.082-1.277-0.246-1.781s-0.398-0.921-0.703-1.252c-0.305-0.33-0.676-0.574-1.112-0.732s-0.925-0.229-1.466-0.214
			c-0.158,0.004-0.297,0.01-0.417,0.017c-0.12,0.008-0.228,0.016-0.324,0.023s-0.187,0.019-0.269,0.032
			c-0.084,0.014-0.17,0.028-0.258,0.043V120.846z"/>
		<path d="M736.93,121.118l0.828-0.168l3.019-8.336h0.974l2.885,8.33l0.92,0.174v0.492h-3.059v-0.492l0.963-0.174l-0.627-1.865
			h-3.475l-0.626,1.865l0.968,0.174v0.492h-2.77V121.118z M742.607,118.401l-0.945-2.827l-0.55-1.743l-1.529,4.57H742.607z"/>
		<path d="M749.222,121.118l0.984-0.122v-7.843l-0.927-0.209v-0.504l1.812-0.243l0.232,0.134v8.665l1.031,0.122v0.492h-3.134
			V121.118z"/>
		<path d="M753.287,121.118l0.985-0.122v-4.744l-0.8-0.423v-0.358l1.604-0.458l0.261,0.116v5.867l0.938,0.122v0.492h-2.989V121.118z
			 M754.567,113.646c-0.093,0-0.184-0.017-0.272-0.049c-0.089-0.033-0.167-0.079-0.234-0.14c-0.067-0.06-0.121-0.134-0.162-0.223
			c-0.04-0.089-0.061-0.189-0.061-0.301c0-0.12,0.026-0.232,0.078-0.336c0.052-0.104,0.118-0.194,0.2-0.27
			c0.081-0.075,0.172-0.135,0.274-0.177c0.103-0.043,0.206-0.063,0.311-0.063c0.255,0,0.44,0.07,0.559,0.211
			c0.118,0.142,0.177,0.31,0.177,0.507c0,0.128-0.025,0.243-0.075,0.348c-0.051,0.104-0.116,0.192-0.197,0.264
			s-0.174,0.127-0.278,0.168C754.782,113.625,754.676,113.646,754.567,113.646z"/>
		<path d="M757.396,121.118l0.787-0.128v-4.709l-0.822-0.452v-0.358l1.541-0.458l0.261,0.116v0.828
			c0.127-0.112,0.281-0.224,0.463-0.333c0.182-0.11,0.376-0.21,0.582-0.299c0.207-0.089,0.418-0.161,0.635-0.217
			c0.216-0.056,0.423-0.088,0.619-0.096c0.418-0.016,0.754,0.04,1.012,0.165c0.256,0.126,0.456,0.345,0.599,0.657
			c0.14-0.104,0.304-0.204,0.493-0.301c0.188-0.097,0.388-0.183,0.597-0.258c0.208-0.075,0.419-0.136,0.631-0.183
			c0.212-0.046,0.411-0.073,0.597-0.081c0.359-0.012,0.662,0.033,0.909,0.133c0.247,0.101,0.446,0.263,0.597,0.487
			c0.15,0.224,0.259,0.514,0.324,0.868c0.066,0.355,0.099,0.782,0.099,1.28v3.215l0.979,0.122v0.492h-2.879v-0.492l0.787-0.122
			v-3.012c0-0.371-0.017-0.692-0.052-0.965c-0.035-0.271-0.104-0.496-0.206-0.672c-0.102-0.176-0.244-0.304-0.426-0.385
			c-0.181-0.081-0.419-0.116-0.712-0.104c-0.263,0.012-0.523,0.061-0.782,0.147s-0.514,0.202-0.765,0.345
			c0.043,0.186,0.075,0.397,0.099,0.635s0.035,0.483,0.035,0.738v3.278l0.886,0.116v0.492h-2.867v-0.492l0.869-0.128v-3.099
			c0-0.367-0.019-0.682-0.056-0.944c-0.036-0.263-0.106-0.477-0.211-0.643s-0.248-0.285-0.432-0.356s-0.422-0.102-0.716-0.09
			c-0.208,0.012-0.446,0.064-0.715,0.159s-0.55,0.242-0.843,0.443v1.06c0,0.583-0.002,1.163-0.006,1.738s-0.004,1.154,0,1.737
			l0.863,0.122v0.492h-2.774V121.118z"/>
		<path d="M769.234,121.118l0.985-0.122v-4.744l-0.8-0.423v-0.358l1.604-0.458l0.261,0.116v5.867l0.938,0.122v0.492h-2.989V121.118z
			 M770.515,113.646c-0.093,0-0.184-0.017-0.272-0.049c-0.089-0.033-0.167-0.079-0.234-0.14c-0.067-0.06-0.121-0.134-0.162-0.223
			c-0.04-0.089-0.061-0.189-0.061-0.301c0-0.12,0.026-0.232,0.078-0.336c0.052-0.104,0.118-0.194,0.2-0.27
			c0.081-0.075,0.172-0.135,0.274-0.177c0.103-0.043,0.206-0.063,0.311-0.063c0.255,0,0.44,0.07,0.559,0.211
			c0.118,0.142,0.177,0.31,0.177,0.507c0,0.128-0.025,0.243-0.075,0.348c-0.051,0.104-0.116,0.192-0.197,0.264
			s-0.174,0.127-0.278,0.168C770.729,113.625,770.623,113.646,770.515,113.646z"/>
		<path d="M774.071,120.093c0-0.711,0.001-1.416,0.003-2.117s0.003-1.406,0.003-2.117h-0.887v-0.435
			c0.17-0.042,0.312-0.076,0.426-0.102c0.114-0.024,0.209-0.054,0.284-0.087c0.075-0.032,0.138-0.074,0.188-0.124
			c0.05-0.05,0.097-0.124,0.139-0.221c0.027-0.065,0.061-0.162,0.102-0.289c0.04-0.128,0.079-0.258,0.115-0.391
			c0.037-0.134,0.069-0.259,0.096-0.377c0.027-0.118,0.045-0.202,0.053-0.252h0.573v1.547h1.946v0.729h-1.946v2.919
			c0,0.448,0.006,0.812,0.018,1.093c0.012,0.279,0.04,0.499,0.087,0.657c0.046,0.158,0.113,0.266,0.202,0.321
			s0.213,0.084,0.371,0.084c0.097,0,0.203-0.01,0.321-0.029c0.118-0.019,0.231-0.042,0.342-0.069c0.11-0.026,0.212-0.057,0.305-0.09
			c0.092-0.032,0.162-0.064,0.208-0.096l0.18,0.51c-0.089,0.097-0.207,0.182-0.354,0.255s-0.306,0.136-0.478,0.186
			s-0.344,0.088-0.516,0.113c-0.172,0.024-0.323,0.037-0.455,0.037c-0.421,0-0.747-0.129-0.979-0.388
			S774.071,120.68,774.071,120.093z"/>
	</g>
	<g>
		<path fill="#6B6B6E" d="M702.408,95.836c1.192,0.331,2.379,0.496,3.559,0.496c2.875,0,5.082-1.014,6.621-3.041
			s2.309-4.795,2.309-8.305c0-0.545-0.016-0.963-0.043-1.25c-0.72,1.668-1.82,2.933-3.301,3.795
			c-1.481,0.863-3.271,1.295-5.371,1.295c-2.99,0-5.348-0.863-7.074-2.588c-1.725-1.727-2.588-4.055-2.588-6.988
			c0-2.042,0.432-3.818,1.294-5.328s2.077-2.667,3.646-3.473c1.566-0.805,3.387-1.207,5.457-1.207c2.473,0,4.615,0.575,6.428,1.725
			c1.811,1.15,3.198,2.819,4.162,5.004c0.963,2.186,1.445,4.804,1.445,7.852c0,3.191-0.518,5.996-1.553,8.412
			c-1.035,2.415-2.518,4.285-4.443,5.607c-1.928,1.323-4.17,1.984-6.729,1.984c-1.409,0-2.905-0.209-4.486-0.625
			c-1.582-0.417-2.991-0.957-4.228-1.618l1.639-3.149C700.129,95.037,701.214,95.506,702.408,95.836z M702.257,74.547
			c-1.237,1.151-1.854,2.733-1.854,4.746c0,1.898,0.589,3.408,1.768,4.529c1.18,1.121,2.762,1.682,4.746,1.682
			c1.467,0,2.738-0.294,3.817-0.884c1.078-0.589,1.905-1.38,2.48-2.372s0.862-2.063,0.862-3.215c0-0.977-0.252-1.947-0.755-2.911
			c-0.503-0.963-1.272-1.754-2.308-2.372c-1.035-0.619-2.315-0.928-3.84-0.928C705.133,72.822,703.493,73.398,702.257,74.547z"/>
		<path fill="#6B6B6E" d="M740.131,71.291c1.754,1.365,2.631,3.242,2.631,5.629c0,1.496-0.41,2.812-1.229,3.947
			c-0.82,1.137-1.963,2.006-3.43,2.609c1.926,0.604,3.436,1.575,4.529,2.912c1.092,1.338,1.639,2.927,1.639,4.767
			c0,2.675-1.014,4.788-3.041,6.341c-2.027,1.554-4.781,2.33-8.261,2.33s-6.233-0.77-8.261-2.309
			c-2.027-1.537-3.041-3.63-3.041-6.275c0-1.869,0.561-3.48,1.682-4.832c1.122-1.352,2.676-2.329,4.66-2.934
			c-1.554-0.66-2.755-1.559-3.603-2.695c-0.849-1.137-1.272-2.466-1.272-3.99c0-2.33,0.877-4.17,2.631-5.521
			s4.142-2.027,7.161-2.027C735.975,69.242,738.377,69.926,740.131,71.291z M727.535,86.777c-1.295,0.963-1.941,2.293-1.941,3.99
			c0,1.812,0.646,3.221,1.941,4.227c1.293,1.008,3.105,1.51,5.435,1.51c2.301,0,4.104-0.502,5.414-1.51
			c1.308-1.006,1.962-2.4,1.962-4.184c0-1.697-0.654-3.034-1.962-4.012c-1.31-0.978-3.128-1.467-5.457-1.467
			C730.625,85.332,728.828,85.814,727.535,86.777z M728.332,73.556c-1.107,0.862-1.66,2.056-1.66,3.58
			c0,1.554,0.553,2.761,1.66,3.624c1.107,0.862,2.654,1.294,4.638,1.294c1.984,0,3.522-0.432,4.616-1.294
			c1.092-0.863,1.639-2.07,1.639-3.624c0-1.524-0.547-2.718-1.639-3.58c-1.094-0.862-2.632-1.294-4.616-1.294
			C730.986,72.262,729.439,72.693,728.332,73.556z"/>
		<path fill="#6B6B6E" d="M759.714,71.701c1.381,1.581,2.071,3.781,2.071,6.6s-0.69,5.025-2.071,6.621
			c-1.38,1.596-3.293,2.395-5.737,2.395s-4.356-0.799-5.737-2.395c-1.38-1.596-2.07-3.803-2.07-6.621s0.69-5.019,2.07-6.6
			c1.381-1.582,3.293-2.373,5.737-2.373S758.334,70.119,759.714,71.701z M750.245,73.447c-0.877,1.137-1.315,2.754-1.315,4.854
			s0.438,3.717,1.315,4.853c0.877,1.137,2.121,1.704,3.731,1.704s2.854-0.567,3.731-1.704c0.877-1.136,1.315-2.753,1.315-4.853
			s-0.438-3.717-1.315-4.854c-0.877-1.135-2.121-1.703-3.731-1.703S751.122,72.312,750.245,73.447z M774.338,69.414h3.278
			L755.228,99.61h-3.321L774.338,69.414z M781.757,84.124c1.381,1.582,2.071,3.782,2.071,6.601s-0.69,5.025-2.071,6.621
			c-1.38,1.596-3.293,2.395-5.737,2.395s-4.356-0.799-5.736-2.395c-1.381-1.596-2.071-3.803-2.071-6.621s0.69-5.019,2.071-6.601
			c1.38-1.581,3.292-2.372,5.736-2.372S780.377,82.543,781.757,84.124z M772.289,85.871c-0.878,1.137-1.316,2.754-1.316,4.854
			s0.438,3.717,1.316,4.853c0.877,1.136,2.12,1.704,3.73,1.704s2.854-0.568,3.731-1.704s1.316-2.753,1.316-4.853
			s-0.439-3.717-1.316-4.854c-0.877-1.136-2.121-1.704-3.731-1.704S773.166,84.735,772.289,85.871z"/>
	</g>
	
		<ellipse fill="none" stroke="#E7E7E7" stroke-width="13.7255" stroke-miterlimit="10" cx="734.115" cy="91.116" rx="70.099" ry="70.252"/>
	<path fill="none" stroke="#009777" stroke-width="13.7255" stroke-miterlimit="10" d="M722.322,22.001
		c-33.185,5.597-58.459,34.411-58.459,69.114c0,38.715,31.453,70.099,70.252,70.099c38.8,0,70.253-31.384,70.253-70.099
		c0-38.714-31.453-70.098-70.253-70.098"/>
	<g>
		<path d="M478.312,118.239c0.008-0.518,0.098-0.979,0.27-1.388c0.171-0.407,0.398-0.752,0.68-1.034
			c0.282-0.281,0.607-0.498,0.977-0.648c0.368-0.15,0.754-0.228,1.155-0.231c0.49-0.004,0.917,0.081,1.28,0.255
			s0.663,0.412,0.9,0.715c0.238,0.304,0.414,0.66,0.53,1.069s0.172,0.848,0.168,1.314c-0.004,0.514-0.086,0.983-0.246,1.408
			c-0.161,0.425-0.376,0.788-0.649,1.092c-0.271,0.303-0.59,0.538-0.955,0.706s-0.756,0.252-1.174,0.252
			c-0.532,0-0.986-0.097-1.36-0.289c-0.375-0.193-0.68-0.452-0.915-0.776c-0.236-0.324-0.406-0.698-0.514-1.121
			C478.354,119.14,478.305,118.698,478.312,118.239z M481.301,121.101c0.328,0.008,0.605-0.048,0.832-0.168
			c0.225-0.12,0.408-0.296,0.55-0.53c0.141-0.233,0.243-0.522,0.307-0.868s0.096-0.743,0.096-1.19c0-0.391-0.034-0.754-0.102-1.092
			s-0.173-0.633-0.318-0.884s-0.328-0.449-0.55-0.594c-0.223-0.145-0.486-0.221-0.791-0.229c-0.328-0.004-0.607,0.053-0.838,0.171
			c-0.229,0.117-0.418,0.29-0.564,0.519c-0.146,0.228-0.254,0.506-0.321,0.834s-0.101,0.7-0.101,1.117
			c0,0.375,0.036,0.736,0.109,1.084s0.184,0.655,0.33,0.924s0.334,0.484,0.559,0.648
			C480.725,121.007,480.992,121.093,481.301,121.101z"/>
		<path d="M485.419,115.847l-0.562-0.11v-0.607h2.549v0.607l-0.713,0.122l1.269,3.093l0.544,1.657l0.533-1.587l1.107-3.163
			l-0.742-0.116v-0.613h2.312v0.607l-0.614,0.128l-2.357,5.885h-0.782L485.419,115.847z"/>
		<path d="M492.307,118.39c0-0.494,0.078-0.95,0.234-1.367s0.375-0.778,0.654-1.083c0.281-0.305,0.617-0.545,1.012-0.721
			c0.394-0.176,0.828-0.27,1.303-0.281c0.34-0.008,0.646,0.041,0.922,0.147c0.273,0.106,0.508,0.264,0.7,0.473
			c0.193,0.208,0.345,0.463,0.454,0.765c0.111,0.301,0.174,0.643,0.189,1.024c0.008,0.244,0.002,0.454-0.016,0.632
			c-0.017,0.178-0.035,0.336-0.055,0.475h-4.292c0,0.023,0,0.046,0,0.067c0,0.021,0.002,0.043,0.006,0.066
			c0.016,0.467,0.095,0.854,0.237,1.158s0.322,0.548,0.536,0.727c0.214,0.18,0.45,0.306,0.71,0.377
			c0.258,0.071,0.512,0.107,0.758,0.107c0.15,0,0.31-0.009,0.476-0.026s0.327-0.042,0.483-0.075s0.301-0.07,0.435-0.113
			c0.134-0.042,0.24-0.087,0.321-0.133l0.215,0.492c-0.112,0.101-0.258,0.191-0.438,0.272s-0.376,0.149-0.588,0.205
			c-0.213,0.057-0.435,0.099-0.666,0.128c-0.232,0.029-0.458,0.043-0.678,0.043c-0.468,0-0.882-0.08-1.242-0.24
			c-0.361-0.16-0.666-0.386-0.913-0.678c-0.247-0.291-0.435-0.644-0.564-1.057S492.307,118.899,492.307,118.39z M496.594,117.77
			c0.012-0.196,0.014-0.395,0.008-0.594c-0.006-0.198-0.029-0.388-0.072-0.567s-0.107-0.344-0.193-0.492
			c-0.088-0.148-0.204-0.27-0.352-0.362c-0.1-0.065-0.214-0.114-0.342-0.147c-0.127-0.033-0.271-0.049-0.434-0.049
			c-0.217,0-0.426,0.04-0.629,0.121s-0.385,0.211-0.545,0.389c-0.16,0.177-0.294,0.406-0.402,0.686
			c-0.107,0.28-0.178,0.619-0.208,1.017H496.594z"/>
		<path d="M499.009,121.118l0.938-0.122v-4.715l-0.822-0.452v-0.358l1.529-0.458l0.271,0.116v0.892
			c0.073-0.108,0.185-0.222,0.333-0.342c0.149-0.119,0.315-0.229,0.501-0.327s0.379-0.18,0.58-0.243
			c0.2-0.063,0.39-0.096,0.566-0.096c0.128,0,0.243,0.003,0.346,0.009c0.102,0.006,0.174,0.017,0.217,0.032v1.187
			c-0.062-0.022-0.125-0.047-0.191-0.072c-0.065-0.024-0.138-0.046-0.217-0.063s-0.169-0.032-0.27-0.043
			c-0.101-0.012-0.217-0.018-0.348-0.018c-0.312,0-0.575,0.039-0.787,0.118c-0.213,0.08-0.408,0.175-0.586,0.287v4.529l1.651,0.14
			v0.492h-3.713V121.118z"/>
		<path d="M507.338,121.118l0.99-0.168v-7.669l-0.955-0.099v-0.568h6.221l0.11,1.651l-0.579,0.012l-0.267-0.944l-3.405-0.081v3.452
			l2.548-0.052l0.231-0.84h0.568v2.433h-0.643l-0.151-0.875l-2.554-0.046v3.62l1.674,0.116v0.55h-3.789V121.118z"/>
		<path d="M514.521,121.118l0.979-0.174v-7.658l-0.956-0.104v-0.568h1.523c0.259,0,0.482-0.004,0.672-0.011
			c0.188-0.008,0.364-0.018,0.527-0.029c0.162-0.012,0.32-0.021,0.475-0.029c0.155-0.008,0.323-0.012,0.504-0.012
			c0.749-0.004,1.397,0.094,1.946,0.293s1.002,0.486,1.361,0.863c0.359,0.376,0.625,0.833,0.799,1.369
			c0.174,0.537,0.262,1.144,0.262,1.819c0,0.761-0.118,1.44-0.354,2.039c-0.236,0.599-0.559,1.104-0.971,1.518
			c-0.411,0.413-0.896,0.726-1.453,0.938c-0.559,0.212-1.158,0.311-1.799,0.295c-0.286-0.008-0.586-0.02-0.9-0.037
			c-0.315-0.018-0.666-0.026-1.053-0.026c-0.262,0-0.522,0.001-0.781,0.003s-0.52,0.003-0.782,0.003V121.118z M516.629,120.846
			c0.248,0.069,0.502,0.119,0.766,0.147c0.262,0.029,0.544,0.04,0.846,0.032c0.424-0.012,0.828-0.097,1.213-0.255
			s0.723-0.395,1.017-0.71c0.294-0.314,0.526-0.712,0.698-1.193c0.172-0.48,0.258-1.049,0.258-1.705
			c0-0.684-0.082-1.277-0.246-1.781s-0.399-0.921-0.704-1.252c-0.306-0.33-0.676-0.574-1.112-0.732s-0.925-0.229-1.465-0.214
			c-0.159,0.004-0.298,0.01-0.418,0.017c-0.119,0.008-0.228,0.016-0.324,0.023s-0.187,0.019-0.27,0.032s-0.169,0.028-0.258,0.043
			V120.846z"/>
		<path d="M523.146,121.118l0.828-0.168l3.018-8.336h0.974l2.885,8.33l0.92,0.174v0.492h-3.059v-0.492l0.963-0.174l-0.627-1.865
			h-3.476l-0.625,1.865l0.967,0.174v0.492h-2.768V121.118z M528.823,118.401l-0.945-2.827l-0.55-1.743l-1.529,4.57H528.823z"/>
		<path d="M535.438,121.118l0.984-0.122v-7.843l-0.927-0.209v-0.504l1.812-0.243l0.232,0.134v8.665l1.031,0.122v0.492h-3.134
			V121.118z"/>
		<path d="M539.503,121.118l0.985-0.122v-4.744l-0.8-0.423v-0.358l1.604-0.458l0.261,0.116v5.867l0.938,0.122v0.492h-2.989V121.118z
			 M540.783,113.646c-0.093,0-0.184-0.017-0.272-0.049c-0.089-0.033-0.167-0.079-0.234-0.14c-0.067-0.06-0.121-0.134-0.162-0.223
			c-0.04-0.089-0.061-0.189-0.061-0.301c0-0.12,0.026-0.232,0.078-0.336c0.052-0.104,0.118-0.194,0.2-0.27
			c0.081-0.075,0.172-0.135,0.274-0.177c0.103-0.043,0.206-0.063,0.311-0.063c0.255,0,0.44,0.07,0.559,0.211
			c0.118,0.142,0.177,0.31,0.177,0.507c0,0.128-0.025,0.243-0.075,0.348c-0.051,0.104-0.116,0.192-0.197,0.264
			s-0.174,0.127-0.278,0.168C540.998,113.625,540.892,113.646,540.783,113.646z"/>
		<path d="M543.611,121.118l0.787-0.128v-4.709l-0.822-0.452v-0.358l1.541-0.458l0.261,0.116v0.828
			c0.127-0.112,0.281-0.224,0.463-0.333c0.182-0.11,0.376-0.21,0.582-0.299c0.207-0.089,0.418-0.161,0.635-0.217
			c0.216-0.056,0.423-0.088,0.619-0.096c0.418-0.016,0.754,0.04,1.012,0.165c0.256,0.126,0.456,0.345,0.599,0.657
			c0.14-0.104,0.304-0.204,0.493-0.301c0.188-0.097,0.388-0.183,0.597-0.258c0.208-0.075,0.419-0.136,0.631-0.183
			c0.212-0.046,0.411-0.073,0.597-0.081c0.359-0.012,0.662,0.033,0.909,0.133c0.247,0.101,0.446,0.263,0.597,0.487
			c0.15,0.224,0.259,0.514,0.324,0.868c0.066,0.355,0.099,0.782,0.099,1.28v3.215l0.979,0.122v0.492h-2.879v-0.492l0.787-0.122
			v-3.012c0-0.371-0.017-0.692-0.052-0.965c-0.035-0.271-0.104-0.496-0.206-0.672c-0.102-0.176-0.244-0.304-0.426-0.385
			c-0.181-0.081-0.419-0.116-0.712-0.104c-0.263,0.012-0.523,0.061-0.782,0.147s-0.514,0.202-0.765,0.345
			c0.043,0.186,0.075,0.397,0.099,0.635s0.035,0.483,0.035,0.738v3.278l0.886,0.116v0.492h-2.867v-0.492l0.869-0.128v-3.099
			c0-0.367-0.019-0.682-0.056-0.944c-0.036-0.263-0.106-0.477-0.211-0.643s-0.248-0.285-0.432-0.356s-0.422-0.102-0.716-0.09
			c-0.208,0.012-0.446,0.064-0.715,0.159s-0.55,0.242-0.843,0.443v1.06c0,0.583-0.002,1.163-0.006,1.738s-0.004,1.154,0,1.737
			l0.863,0.122v0.492h-2.774V121.118z"/>
		<path d="M555.45,121.118l0.985-0.122v-4.744l-0.8-0.423v-0.358l1.604-0.458l0.261,0.116v5.867l0.938,0.122v0.492h-2.989V121.118z
			 M556.73,113.646c-0.093,0-0.184-0.017-0.272-0.049c-0.089-0.033-0.167-0.079-0.234-0.14c-0.067-0.06-0.121-0.134-0.162-0.223
			c-0.04-0.089-0.061-0.189-0.061-0.301c0-0.12,0.026-0.232,0.078-0.336c0.052-0.104,0.118-0.194,0.2-0.27
			c0.081-0.075,0.172-0.135,0.274-0.177c0.103-0.043,0.206-0.063,0.311-0.063c0.255,0,0.44,0.07,0.559,0.211
			c0.118,0.142,0.177,0.31,0.177,0.507c0,0.128-0.025,0.243-0.075,0.348c-0.051,0.104-0.116,0.192-0.197,0.264
			s-0.174,0.127-0.278,0.168C556.945,113.625,556.839,113.646,556.73,113.646z"/>
		<path d="M560.287,120.093c0-0.711,0.001-1.416,0.003-2.117s0.003-1.406,0.003-2.117h-0.887v-0.435
			c0.17-0.042,0.312-0.076,0.426-0.102c0.114-0.024,0.209-0.054,0.284-0.087c0.075-0.032,0.138-0.074,0.188-0.124
			c0.05-0.05,0.097-0.124,0.139-0.221c0.027-0.065,0.061-0.162,0.102-0.289c0.04-0.128,0.079-0.258,0.115-0.391
			c0.037-0.134,0.069-0.259,0.096-0.377c0.027-0.118,0.045-0.202,0.053-0.252h0.573v1.547h1.946v0.729h-1.946v2.919
			c0,0.448,0.006,0.812,0.018,1.093c0.012,0.279,0.04,0.499,0.087,0.657c0.046,0.158,0.113,0.266,0.202,0.321
			s0.213,0.084,0.371,0.084c0.097,0,0.203-0.01,0.321-0.029c0.118-0.019,0.231-0.042,0.342-0.069c0.11-0.026,0.212-0.057,0.305-0.09
			c0.092-0.032,0.162-0.064,0.208-0.096l0.18,0.51c-0.089,0.097-0.207,0.182-0.354,0.255s-0.306,0.136-0.478,0.186
			s-0.344,0.088-0.516,0.113c-0.172,0.024-0.323,0.037-0.455,0.037c-0.421,0-0.747-0.129-0.979-0.388
			S560.287,120.68,560.287,120.093z"/>
	</g>
	<g>
		<path fill="#6B6B6E" d="M508.7,95.857v3.753h-21.827v-3.192l11.689-12.121c1.266-1.266,2.271-2.523,3.02-3.775
			c0.748-1.25,1.122-2.336,1.122-3.256c0-1.352-0.525-2.416-1.575-3.192c-1.049-0.776-2.494-1.165-4.335-1.165
			c-1.409,0-2.876,0.324-4.399,0.971c-1.525,0.646-2.905,1.547-4.142,2.696l-1.769-3.149c1.639-1.322,3.387-2.351,5.241-3.084
			s3.716-1.1,5.587-1.1c2.933,0,5.283,0.676,7.053,2.027c1.768,1.352,2.652,3.164,2.652,5.436c0,2.674-1.869,5.952-5.607,9.834
			l-9.102,9.318H508.7z"/>
		<path fill="#6B6B6E" d="M508.225,69.414h11V99.61h-4.141V73.167h-6.859V69.414z"/>
		<path fill="#6B6B6E" d="M536.997,71.701c1.381,1.581,2.07,3.781,2.07,6.6s-0.689,5.025-2.07,6.621s-3.294,2.395-5.737,2.395
			c-2.445,0-4.357-0.799-5.737-2.395s-2.071-3.803-2.071-6.621s0.691-5.019,2.071-6.6c1.38-1.582,3.292-2.373,5.737-2.373
			C533.703,69.328,535.616,70.119,536.997,71.701z M527.528,73.447c-0.878,1.137-1.315,2.754-1.315,4.854s0.438,3.717,1.315,4.853
			c0.877,1.137,2.12,1.704,3.731,1.704c1.609,0,2.854-0.567,3.73-1.704c0.878-1.136,1.315-2.753,1.315-4.853
			s-0.438-3.717-1.315-4.854c-0.877-1.135-2.121-1.703-3.73-1.703C529.648,71.744,528.405,72.312,527.528,73.447z M551.62,69.414
			h3.279L532.511,99.61h-3.321L551.62,69.414z M559.04,84.124c1.381,1.582,2.07,3.782,2.07,6.601s-0.689,5.025-2.07,6.621
			s-3.293,2.395-5.738,2.395c-2.443,0-4.355-0.799-5.736-2.395s-2.07-3.803-2.07-6.621s0.689-5.019,2.07-6.601
			c1.381-1.581,3.293-2.372,5.736-2.372C555.747,81.752,557.659,82.543,559.04,84.124z M549.571,85.871
			c-0.877,1.137-1.316,2.754-1.316,4.854s0.439,3.717,1.316,4.853s2.121,1.704,3.73,1.704c1.611,0,2.855-0.568,3.732-1.704
			s1.316-2.753,1.316-4.853s-0.439-3.717-1.316-4.854c-0.877-1.136-2.121-1.704-3.732-1.704
			C551.692,84.167,550.448,84.735,549.571,85.871z"/>
	</g>
	
		<ellipse fill="none" stroke="#E7E7E7" stroke-width="13.7255" stroke-miterlimit="10" cx="519.115" cy="91.116" rx="70.099" ry="70.252"/>
	<path fill="none" stroke="#66DCC3" stroke-width="13.7255" stroke-miterlimit="10" d="M519.371,20.863
		c32.901,0,60.509,22.717,68.057,53.355"/>
	<g>
		<path d="M262.841,118.239c0.008-0.518,0.098-0.979,0.27-1.388c0.171-0.407,0.398-0.752,0.68-1.034
			c0.282-0.281,0.607-0.498,0.976-0.648s0.754-0.228,1.156-0.231c0.49-0.004,0.917,0.081,1.28,0.255
			c0.363,0.174,0.663,0.412,0.9,0.715c0.238,0.304,0.415,0.66,0.53,1.069s0.172,0.848,0.168,1.314
			c-0.004,0.514-0.086,0.983-0.246,1.408c-0.161,0.425-0.376,0.788-0.649,1.092c-0.272,0.303-0.591,0.538-0.956,0.706
			c-0.365,0.168-0.756,0.252-1.173,0.252c-0.533,0-0.986-0.097-1.361-0.289c-0.375-0.193-0.68-0.452-0.916-0.776
			c-0.235-0.324-0.406-0.698-0.513-1.121C262.883,119.14,262.833,118.698,262.841,118.239z M265.83,121.101
			c0.328,0.008,0.605-0.048,0.832-0.168c0.226-0.12,0.409-0.296,0.55-0.53c0.141-0.233,0.243-0.522,0.307-0.868
			c0.064-0.346,0.096-0.743,0.096-1.19c0-0.391-0.034-0.754-0.102-1.092c-0.067-0.338-0.173-0.633-0.318-0.884
			s-0.328-0.449-0.55-0.594s-0.486-0.221-0.791-0.229c-0.329-0.004-0.607,0.053-0.837,0.171c-0.229,0.117-0.418,0.29-0.564,0.519
			c-0.147,0.228-0.254,0.506-0.322,0.834c-0.067,0.328-0.101,0.7-0.101,1.117c0,0.375,0.037,0.736,0.11,1.084
			s0.184,0.655,0.33,0.924c0.147,0.269,0.333,0.484,0.559,0.648C265.254,121.007,265.521,121.093,265.83,121.101z"/>
		<path d="M269.948,115.847l-0.562-0.11v-0.607h2.548v0.607l-0.712,0.122l1.269,3.093l0.544,1.657l0.533-1.587l1.106-3.163
			l-0.742-0.116v-0.613h2.312v0.607l-0.614,0.128l-2.357,5.885h-0.782L269.948,115.847z"/>
		<path d="M276.836,118.39c0-0.494,0.078-0.95,0.235-1.367c0.156-0.417,0.375-0.778,0.654-1.083c0.28-0.305,0.617-0.545,1.011-0.721
			c0.394-0.176,0.829-0.27,1.304-0.281c0.339-0.008,0.646,0.041,0.921,0.147c0.274,0.106,0.508,0.264,0.701,0.473
			c0.193,0.208,0.345,0.463,0.455,0.765c0.11,0.301,0.173,0.643,0.188,1.024c0.008,0.244,0.003,0.454-0.015,0.632
			c-0.017,0.178-0.036,0.336-0.055,0.475h-4.292c0,0.023,0,0.046,0,0.067c0,0.021,0.002,0.043,0.006,0.066
			c0.016,0.467,0.095,0.854,0.237,1.158c0.143,0.305,0.322,0.548,0.536,0.727c0.214,0.18,0.451,0.306,0.709,0.377
			s0.512,0.107,0.759,0.107c0.15,0,0.309-0.009,0.475-0.026s0.327-0.042,0.483-0.075c0.157-0.033,0.301-0.07,0.435-0.113
			c0.133-0.042,0.24-0.087,0.321-0.133l0.214,0.492c-0.112,0.101-0.258,0.191-0.437,0.272c-0.18,0.081-0.376,0.149-0.588,0.205
			c-0.212,0.057-0.435,0.099-0.667,0.128c-0.231,0.029-0.458,0.043-0.678,0.043c-0.467,0-0.881-0.08-1.242-0.24
			c-0.361-0.16-0.666-0.386-0.913-0.678c-0.247-0.291-0.435-0.644-0.564-1.057S276.836,118.899,276.836,118.39z M281.123,117.77
			c0.012-0.196,0.015-0.395,0.009-0.594c-0.006-0.198-0.03-0.388-0.073-0.567s-0.107-0.344-0.194-0.492s-0.204-0.27-0.351-0.362
			c-0.1-0.065-0.214-0.114-0.342-0.147s-0.272-0.049-0.434-0.049c-0.216,0-0.426,0.04-0.628,0.121
			c-0.203,0.081-0.385,0.211-0.545,0.389c-0.16,0.177-0.294,0.406-0.402,0.686c-0.108,0.28-0.178,0.619-0.208,1.017H281.123z"/>
		<path d="M283.538,121.118l0.938-0.122v-4.715l-0.822-0.452v-0.358l1.529-0.458l0.272,0.116v0.892
			c0.073-0.108,0.185-0.222,0.333-0.342c0.149-0.119,0.316-0.229,0.501-0.327c0.185-0.099,0.378-0.18,0.579-0.243
			s0.39-0.096,0.567-0.096c0.127,0,0.243,0.003,0.345,0.009c0.103,0.006,0.175,0.017,0.217,0.032v1.187
			c-0.062-0.022-0.125-0.047-0.191-0.072c-0.066-0.024-0.138-0.046-0.217-0.063s-0.169-0.032-0.27-0.043
			c-0.101-0.012-0.216-0.018-0.348-0.018c-0.312,0-0.575,0.039-0.788,0.118c-0.212,0.08-0.407,0.175-0.585,0.287v4.529l1.651,0.14
			v0.492h-3.713V121.118z"/>
		<path d="M291.868,121.118l0.99-0.168v-7.669l-0.956-0.099v-0.568h6.221l0.11,1.651l-0.579,0.012l-0.267-0.944l-3.406-0.081v3.452
			l2.548-0.052l0.232-0.84h0.568v2.433h-0.643l-0.151-0.875l-2.554-0.046v3.62l1.674,0.116v0.55h-3.788V121.118z"/>
		<path d="M299.05,121.118l0.979-0.174v-7.658l-0.956-0.104v-0.568h1.523c0.259,0,0.482-0.004,0.672-0.011
			c0.189-0.008,0.365-0.018,0.527-0.029c0.162-0.012,0.32-0.021,0.475-0.029c0.155-0.008,0.323-0.012,0.504-0.012
			c0.75-0.004,1.398,0.094,1.946,0.293s1.002,0.486,1.361,0.863c0.359,0.376,0.625,0.833,0.799,1.369
			c0.174,0.537,0.261,1.144,0.261,1.819c0,0.761-0.118,1.44-0.354,2.039c-0.235,0.599-0.559,1.104-0.97,1.518
			c-0.411,0.413-0.896,0.726-1.454,0.938c-0.558,0.212-1.158,0.311-1.799,0.295c-0.286-0.008-0.586-0.02-0.9-0.037
			c-0.315-0.018-0.666-0.026-1.052-0.026c-0.262,0-0.523,0.001-0.782,0.003s-0.52,0.003-0.782,0.003V121.118z M301.159,120.846
			c0.247,0.069,0.502,0.119,0.765,0.147c0.262,0.029,0.544,0.04,0.846,0.032c0.424-0.012,0.829-0.097,1.213-0.255
			s0.723-0.395,1.017-0.71c0.293-0.314,0.526-0.712,0.698-1.193c0.172-0.48,0.258-1.049,0.258-1.705
			c0-0.684-0.082-1.277-0.246-1.781s-0.399-0.921-0.704-1.252c-0.305-0.33-0.676-0.574-1.112-0.732s-0.925-0.229-1.465-0.214
			c-0.159,0.004-0.297,0.01-0.417,0.017c-0.12,0.008-0.228,0.016-0.324,0.023s-0.187,0.019-0.269,0.032
			c-0.083,0.014-0.169,0.028-0.258,0.043V120.846z"/>
		<path d="M307.675,121.118l0.828-0.168l3.018-8.336h0.974l2.885,8.33l0.92,0.174v0.492h-3.059v-0.492l0.963-0.174l-0.627-1.865
			h-3.475l-0.625,1.865l0.967,0.174v0.492h-2.769V121.118z M313.353,118.401l-0.945-2.827l-0.55-1.743l-1.529,4.57H313.353z"/>
		<path d="M319.967,121.118l0.984-0.122v-7.843l-0.927-0.209v-0.504l1.812-0.243l0.232,0.134v8.665l1.031,0.122v0.492h-3.134
			V121.118z"/>
		<path d="M324.032,121.118l0.985-0.122v-4.744l-0.8-0.423v-0.358l1.604-0.458l0.261,0.116v5.867l0.938,0.122v0.492h-2.989V121.118z
			 M325.312,113.646c-0.093,0-0.184-0.017-0.272-0.049c-0.089-0.033-0.167-0.079-0.234-0.14c-0.067-0.06-0.121-0.134-0.162-0.223
			c-0.04-0.089-0.061-0.189-0.061-0.301c0-0.12,0.026-0.232,0.078-0.336c0.052-0.104,0.118-0.194,0.2-0.27
			c0.081-0.075,0.172-0.135,0.274-0.177c0.103-0.043,0.206-0.063,0.311-0.063c0.255,0,0.44,0.07,0.559,0.211
			c0.118,0.142,0.177,0.31,0.177,0.507c0,0.128-0.025,0.243-0.075,0.348c-0.051,0.104-0.116,0.192-0.197,0.264
			s-0.174,0.127-0.278,0.168C325.527,113.625,325.421,113.646,325.312,113.646z"/>
		<path d="M328.141,121.118l0.787-0.128v-4.709l-0.822-0.452v-0.358l1.541-0.458l0.261,0.116v0.828
			c0.127-0.112,0.281-0.224,0.463-0.333c0.182-0.11,0.376-0.21,0.582-0.299c0.207-0.089,0.418-0.161,0.635-0.217
			c0.216-0.056,0.423-0.088,0.619-0.096c0.418-0.016,0.754,0.04,1.012,0.165c0.256,0.126,0.456,0.345,0.599,0.657
			c0.14-0.104,0.304-0.204,0.493-0.301c0.188-0.097,0.388-0.183,0.597-0.258c0.208-0.075,0.419-0.136,0.631-0.183
			c0.212-0.046,0.411-0.073,0.597-0.081c0.359-0.012,0.662,0.033,0.909,0.133c0.247,0.101,0.446,0.263,0.597,0.487
			c0.15,0.224,0.259,0.514,0.324,0.868c0.066,0.355,0.099,0.782,0.099,1.28v3.215l0.979,0.122v0.492h-2.879v-0.492l0.787-0.122
			v-3.012c0-0.371-0.017-0.692-0.052-0.965c-0.035-0.271-0.104-0.496-0.206-0.672c-0.102-0.176-0.244-0.304-0.426-0.385
			c-0.181-0.081-0.419-0.116-0.712-0.104c-0.263,0.012-0.523,0.061-0.782,0.147s-0.514,0.202-0.765,0.345
			c0.043,0.186,0.075,0.397,0.099,0.635s0.035,0.483,0.035,0.738v3.278l0.886,0.116v0.492h-2.867v-0.492l0.869-0.128v-3.099
			c0-0.367-0.019-0.682-0.056-0.944c-0.036-0.263-0.106-0.477-0.211-0.643s-0.248-0.285-0.432-0.356s-0.422-0.102-0.716-0.09
			c-0.208,0.012-0.446,0.064-0.715,0.159s-0.55,0.242-0.843,0.443v1.06c0,0.583-0.002,1.163-0.006,1.738s-0.004,1.154,0,1.737
			l0.863,0.122v0.492h-2.774V121.118z"/>
		<path d="M339.979,121.118l0.985-0.122v-4.744l-0.8-0.423v-0.358l1.604-0.458l0.261,0.116v5.867l0.938,0.122v0.492h-2.989V121.118z
			 M341.26,113.646c-0.093,0-0.184-0.017-0.272-0.049c-0.089-0.033-0.167-0.079-0.234-0.14c-0.067-0.06-0.121-0.134-0.162-0.223
			c-0.04-0.089-0.061-0.189-0.061-0.301c0-0.12,0.026-0.232,0.078-0.336c0.052-0.104,0.118-0.194,0.2-0.27
			c0.081-0.075,0.172-0.135,0.274-0.177c0.103-0.043,0.206-0.063,0.311-0.063c0.255,0,0.44,0.07,0.559,0.211
			c0.118,0.142,0.177,0.31,0.177,0.507c0,0.128-0.025,0.243-0.075,0.348c-0.051,0.104-0.116,0.192-0.197,0.264
			s-0.174,0.127-0.278,0.168C341.475,113.625,341.368,113.646,341.26,113.646z"/>
		<path d="M344.816,120.093c0-0.711,0.001-1.416,0.003-2.117s0.003-1.406,0.003-2.117h-0.887v-0.435
			c0.17-0.042,0.312-0.076,0.426-0.102c0.114-0.024,0.209-0.054,0.284-0.087c0.075-0.032,0.138-0.074,0.188-0.124
			c0.05-0.05,0.097-0.124,0.139-0.221c0.027-0.065,0.061-0.162,0.102-0.289c0.04-0.128,0.079-0.258,0.115-0.391
			c0.037-0.134,0.069-0.259,0.096-0.377c0.027-0.118,0.045-0.202,0.053-0.252h0.573v1.547h1.946v0.729h-1.946v2.919
			c0,0.448,0.006,0.812,0.018,1.093c0.012,0.279,0.04,0.499,0.087,0.657c0.046,0.158,0.113,0.266,0.202,0.321
			s0.213,0.084,0.371,0.084c0.097,0,0.203-0.01,0.321-0.029c0.118-0.019,0.231-0.042,0.342-0.069c0.11-0.026,0.212-0.057,0.305-0.09
			c0.092-0.032,0.162-0.064,0.208-0.096l0.18,0.51c-0.089,0.097-0.207,0.182-0.354,0.255s-0.306,0.136-0.478,0.186
			s-0.344,0.088-0.516,0.113c-0.172,0.024-0.323,0.037-0.455,0.037c-0.421,0-0.747-0.129-0.979-0.388
			S344.816,120.68,344.816,120.093z"/>
	</g>
	<g>
		<path fill="#6B6B6E" d="M286.282,81.838c1.683,0.776,2.977,1.855,3.882,3.235s1.359,2.933,1.359,4.659
			c0,2.013-0.468,3.781-1.402,5.305c-0.935,1.525-2.265,2.704-3.99,3.538c-1.726,0.835-3.725,1.251-5.996,1.251
			c-1.784,0-3.66-0.309-5.629-0.928c-1.97-0.618-3.731-1.445-5.284-2.48l1.682-3.321c1.294,0.978,2.718,1.726,4.271,2.243
			c1.553,0.518,3.077,0.776,4.573,0.776c2.271,0,4.069-0.546,5.392-1.64c1.322-1.092,1.984-2.572,1.984-4.443
			c0-1.753-0.662-3.127-1.984-4.119c-1.323-0.992-3.207-1.488-5.651-1.488c-0.892,0-2.186,0.059-3.882,0.173
			c-1.697,0.115-3.063,0.259-4.098,0.431V69.414h18.765v3.753H275.39v7.679c1.352-0.115,3.034-0.173,5.047-0.173
			C282.651,80.673,284.6,81.062,286.282,81.838z"/>
		<path fill="#6B6B6E" d="M291.696,69.414H314.3v3.235L301.143,99.61h-4.4l12.898-26.443h-14.192l-0.043,4.356h-3.71V69.414z"/>
		<path fill="#6B6B6E" d="M328.663,71.701c1.381,1.581,2.072,3.781,2.072,6.6s-0.691,5.025-2.072,6.621
			c-1.379,1.596-3.293,2.395-5.736,2.395c-2.445,0-4.357-0.799-5.737-2.395c-1.38-1.596-2.071-3.803-2.071-6.621
			s0.69-5.019,2.071-6.6c1.38-1.582,3.292-2.373,5.737-2.373C325.37,69.328,327.284,70.119,328.663,71.701z M319.194,73.447
			c-0.877,1.137-1.314,2.754-1.314,4.854s0.438,3.717,1.314,4.853c0.877,1.137,2.121,1.704,3.732,1.704
			c1.609,0,2.854-0.567,3.73-1.704c0.877-1.136,1.316-2.753,1.316-4.853s-0.439-3.717-1.316-4.854
			c-0.877-1.135-2.121-1.703-3.73-1.703C321.315,71.744,320.071,72.312,319.194,73.447z M343.288,69.414h3.277L324.177,99.61h-3.32
			L343.288,69.414z M350.706,84.124c1.381,1.582,2.072,3.782,2.072,6.601s-0.691,5.025-2.072,6.621
			c-1.379,1.596-3.293,2.395-5.736,2.395c-2.445,0-4.357-0.799-5.736-2.395c-1.381-1.596-2.072-3.803-2.072-6.621
			s0.691-5.019,2.072-6.601c1.379-1.581,3.291-2.372,5.736-2.372C347.413,81.752,349.327,82.543,350.706,84.124z M341.239,85.871
			c-0.879,1.137-1.316,2.754-1.316,4.854s0.438,3.717,1.316,4.853c0.877,1.136,2.119,1.704,3.73,1.704
			c1.609,0,2.854-0.568,3.73-1.704s1.316-2.753,1.316-4.853s-0.439-3.717-1.316-4.854c-0.877-1.136-2.121-1.704-3.73-1.704
			C343.358,84.167,342.116,84.735,341.239,85.871z"/>
	</g>
	
		<ellipse fill="none" stroke="#E7E7E7" stroke-width="13.7255" stroke-miterlimit="10" cx="305.115" cy="91.116" rx="70.099" ry="70.252"/>
	<path fill="none" stroke="#3AB49A" stroke-width="13.7255" stroke-miterlimit="10" d="M304.743,20.863
		c38.714,0,70.098,31.453,70.098,70.252c0,38.8-31.384,70.253-70.098,70.253c-12.745,0-24.695-3.408-34.993-9.365"/>
	<g>
		<path fill="#6B6B6E" d="M58.525,95.836c1.193,0.331,2.379,0.496,3.559,0.496c2.875,0,5.083-1.014,6.622-3.041
			c1.538-2.027,2.308-4.795,2.308-8.305c0-0.545-0.015-0.963-0.043-1.25c-0.719,1.668-1.819,2.933-3.3,3.795
			c-1.481,0.863-3.271,1.295-5.371,1.295c-2.991,0-5.349-0.863-7.074-2.588c-1.726-1.727-2.588-4.055-2.588-6.988
			c0-2.042,0.431-3.818,1.294-5.328s2.078-2.667,3.646-3.473c1.567-0.805,3.386-1.207,5.457-1.207c2.473,0,4.616,0.575,6.428,1.725
			c1.812,1.15,3.199,2.819,4.163,5.004c0.963,2.186,1.445,4.804,1.445,7.852c0,3.191-0.518,5.996-1.553,8.412
			c-1.035,2.415-2.517,4.285-4.443,5.607c-1.927,1.323-4.17,1.984-6.729,1.984c-1.41,0-2.905-0.209-4.486-0.625
			c-1.582-0.417-2.991-0.957-4.228-1.618l1.639-3.149C56.246,95.037,57.332,95.506,58.525,95.836z M58.375,74.547
			c-1.237,1.151-1.855,2.733-1.855,4.746c0,1.898,0.589,3.408,1.769,4.529s2.761,1.682,4.745,1.682c1.467,0,2.739-0.294,3.818-0.884
			c1.078-0.589,1.905-1.38,2.48-2.372c0.575-0.992,0.862-2.063,0.862-3.215c0-0.977-0.252-1.947-0.755-2.911
			c-0.503-0.963-1.272-1.754-2.308-2.372c-1.035-0.619-2.315-0.928-3.839-0.928C61.25,72.822,59.611,73.398,58.375,74.547z"/>
		<path fill="#6B6B6E" d="M96.249,71.291c1.754,1.365,2.631,3.242,2.631,5.629c0,1.496-0.41,2.812-1.229,3.947
			c-0.82,1.137-1.963,2.006-3.429,2.609c1.926,0.604,3.436,1.575,4.529,2.912c1.092,1.338,1.639,2.927,1.639,4.767
			c0,2.675-1.013,4.788-3.041,6.341c-2.028,1.554-4.782,2.33-8.261,2.33c-3.48,0-6.233-0.77-8.261-2.309
			c-2.027-1.537-3.041-3.63-3.041-6.275c0-1.869,0.561-3.48,1.682-4.832c1.122-1.352,2.675-2.329,4.659-2.934
			c-1.553-0.66-2.754-1.559-3.602-2.695c-0.849-1.137-1.272-2.466-1.272-3.99c0-2.33,0.877-4.17,2.631-5.521
			c1.754-1.352,4.141-2.027,7.161-2.027C92.092,69.242,94.494,69.926,96.249,71.291z M83.652,86.777
			c-1.294,0.963-1.941,2.293-1.941,3.99c0,1.812,0.647,3.221,1.941,4.227c1.294,1.008,3.106,1.51,5.435,1.51
			c2.301,0,4.105-0.502,5.414-1.51c1.308-1.006,1.962-2.4,1.962-4.184c0-1.697-0.654-3.034-1.962-4.012
			c-1.309-0.978-3.127-1.467-5.457-1.467C86.743,85.332,84.946,85.814,83.652,86.777z M84.45,73.556
			c-1.107,0.862-1.661,2.056-1.661,3.58c0,1.554,0.553,2.761,1.661,3.624c1.107,0.862,2.653,1.294,4.637,1.294
			c1.984,0,3.522-0.432,4.616-1.294c1.093-0.863,1.639-2.07,1.639-3.624c0-1.524-0.546-2.718-1.639-3.58
			c-1.093-0.862-2.631-1.294-4.616-1.294C87.104,72.262,85.557,72.693,84.45,73.556z"/>
		<path fill="#6B6B6E" d="M115.832,71.701c1.381,1.581,2.071,3.781,2.071,6.6s-0.69,5.025-2.071,6.621
			c-1.38,1.596-3.293,2.395-5.737,2.395s-4.356-0.799-5.737-2.395c-1.38-1.596-2.07-3.803-2.07-6.621s0.69-5.019,2.07-6.6
			c1.381-1.582,3.293-2.373,5.737-2.373S114.452,70.119,115.832,71.701z M106.363,73.447c-0.877,1.137-1.315,2.754-1.315,4.854
			s0.438,3.717,1.315,4.853c0.877,1.137,2.121,1.704,3.731,1.704s2.854-0.567,3.731-1.704c0.877-1.136,1.315-2.753,1.315-4.853
			s-0.438-3.717-1.315-4.854c-0.877-1.135-2.121-1.703-3.731-1.703S107.24,72.312,106.363,73.447z M130.456,69.414h3.278
			L111.345,99.61h-3.321L130.456,69.414z M137.875,84.124c1.381,1.582,2.071,3.782,2.071,6.601s-0.69,5.025-2.071,6.621
			c-1.38,1.596-3.293,2.395-5.737,2.395s-4.356-0.799-5.736-2.395c-1.381-1.596-2.071-3.803-2.071-6.621s0.69-5.019,2.071-6.601
			c1.38-1.581,3.292-2.372,5.736-2.372S136.495,82.543,137.875,84.124z M128.407,85.871c-0.878,1.137-1.316,2.754-1.316,4.854
			s0.438,3.717,1.316,4.853c0.877,1.136,2.12,1.704,3.73,1.704s2.854-0.568,3.731-1.704s1.316-2.753,1.316-4.853
			s-0.439-3.717-1.316-4.854c-0.877-1.136-2.121-1.704-3.731-1.704S129.284,84.735,128.407,85.871z"/>
	</g>
	<g>
		<path d="M48.215,118.239c0.008-0.518,0.097-0.979,0.269-1.388c0.172-0.407,0.399-0.752,0.681-1.033
			c0.282-0.282,0.607-0.498,0.976-0.649c0.369-0.15,0.754-0.228,1.156-0.231c0.49-0.004,0.917,0.081,1.28,0.255
			c0.363,0.174,0.663,0.412,0.9,0.716c0.238,0.303,0.414,0.659,0.53,1.068c0.116,0.409,0.171,0.848,0.168,1.314
			c-0.004,0.514-0.086,0.983-0.247,1.408c-0.16,0.425-0.376,0.788-0.648,1.092c-0.272,0.303-0.591,0.538-0.956,0.706
			c-0.365,0.168-0.756,0.252-1.173,0.252c-0.533,0-0.986-0.097-1.361-0.289c-0.375-0.193-0.68-0.452-0.916-0.776
			c-0.235-0.324-0.406-0.698-0.513-1.121C48.256,119.14,48.207,118.699,48.215,118.239z M51.204,121.101
			c0.328,0.008,0.605-0.048,0.831-0.168c0.226-0.119,0.41-0.296,0.55-0.53c0.141-0.233,0.244-0.522,0.307-0.868
			c0.064-0.346,0.096-0.743,0.096-1.19c0-0.391-0.034-0.754-0.102-1.092s-0.174-0.633-0.318-0.884
			c-0.145-0.251-0.329-0.449-0.55-0.594c-0.222-0.145-0.486-0.221-0.791-0.229c-0.328-0.004-0.607,0.053-0.837,0.171
			c-0.229,0.117-0.418,0.29-0.564,0.519c-0.147,0.228-0.254,0.506-0.322,0.834c-0.067,0.328-0.101,0.7-0.101,1.118
			c0,0.374,0.037,0.735,0.11,1.083s0.184,0.655,0.33,0.924c0.147,0.269,0.333,0.484,0.559,0.648S50.895,121.093,51.204,121.101z"/>
		<path d="M55.322,115.847l-0.562-0.109v-0.608h2.548v0.608l-0.712,0.121l1.269,3.093l0.544,1.657l0.533-1.587l1.106-3.163
			l-0.741-0.115v-0.614h2.311v0.608l-0.614,0.127l-2.357,5.885h-0.782L55.322,115.847z"/>
		<path d="M62.209,118.39c0-0.494,0.078-0.95,0.235-1.367c0.156-0.417,0.375-0.777,0.654-1.083c0.28-0.305,0.617-0.545,1.011-0.721
			c0.394-0.176,0.829-0.27,1.303-0.281c0.34-0.008,0.647,0.042,0.921,0.147c0.274,0.106,0.507,0.264,0.701,0.473
			c0.193,0.208,0.345,0.463,0.455,0.765c0.11,0.301,0.173,0.643,0.188,1.025c0.007,0.243,0.003,0.453-0.015,0.631
			s-0.036,0.336-0.055,0.475h-4.292c0,0.023,0,0.046,0,0.067c0,0.021,0.002,0.043,0.006,0.066c0.015,0.467,0.095,0.854,0.237,1.158
			c0.143,0.306,0.322,0.548,0.536,0.727c0.214,0.18,0.451,0.306,0.709,0.377s0.512,0.107,0.759,0.107
			c0.15,0,0.309-0.009,0.475-0.026c0.166-0.018,0.327-0.042,0.483-0.075s0.301-0.07,0.435-0.113c0.133-0.042,0.24-0.087,0.321-0.133
			l0.214,0.492c-0.112,0.101-0.258,0.191-0.438,0.272c-0.179,0.081-0.375,0.149-0.588,0.205c-0.212,0.057-0.434,0.099-0.666,0.128
			c-0.231,0.029-0.458,0.043-0.678,0.043c-0.467,0-0.881-0.08-1.242-0.24c-0.361-0.16-0.666-0.386-0.913-0.678
			c-0.247-0.291-0.435-0.644-0.564-1.057S62.209,118.899,62.209,118.39z M66.496,117.77c0.011-0.196,0.014-0.395,0.009-0.593
			c-0.006-0.199-0.03-0.389-0.073-0.568s-0.107-0.344-0.194-0.492s-0.204-0.27-0.351-0.362c-0.101-0.065-0.214-0.114-0.342-0.147
			c-0.127-0.032-0.272-0.049-0.434-0.049c-0.216,0-0.426,0.04-0.629,0.121c-0.203,0.081-0.384,0.211-0.544,0.389
			s-0.294,0.406-0.402,0.687c-0.108,0.279-0.178,0.618-0.208,1.016H66.496z"/>
		<path d="M68.911,121.118l0.938-0.122v-4.715l-0.822-0.452v-0.358l1.529-0.458l0.272,0.116v0.892
			c0.073-0.107,0.185-0.222,0.333-0.342c0.149-0.119,0.316-0.229,0.501-0.327c0.186-0.099,0.378-0.18,0.58-0.243
			c0.201-0.063,0.39-0.096,0.567-0.096c0.127,0,0.242,0.003,0.345,0.009s0.175,0.017,0.217,0.032v1.188
			c-0.062-0.023-0.125-0.048-0.191-0.073c-0.065-0.024-0.138-0.046-0.217-0.063c-0.08-0.018-0.169-0.031-0.27-0.043
			s-0.216-0.018-0.348-0.018c-0.312,0-0.575,0.04-0.788,0.119s-0.408,0.175-0.585,0.286v4.529l1.651,0.14v0.492h-3.713V121.118z"/>
		<path d="M77.24,121.118l0.99-0.168v-7.669l-0.956-0.099v-0.567h6.221l0.11,1.65l-0.579,0.012l-0.267-0.944l-3.406-0.081v3.452
			l2.548-0.052l0.232-0.84h0.567v2.433H82.06l-0.151-0.875l-2.554-0.046v3.62l1.674,0.116v0.55H77.24V121.118z"/>
		<path d="M84.422,121.118l0.979-0.174v-7.657l-0.956-0.104v-0.567h1.523c0.259,0,0.482-0.004,0.672-0.012
			c0.189-0.008,0.365-0.018,0.527-0.029c0.163-0.012,0.321-0.021,0.475-0.029c0.154-0.007,0.322-0.011,0.504-0.011
			c0.749-0.004,1.398,0.093,1.946,0.292s1.002,0.486,1.361,0.863c0.359,0.376,0.625,0.833,0.799,1.37
			c0.174,0.536,0.261,1.143,0.261,1.818c0,0.761-0.118,1.44-0.354,2.039s-0.559,1.104-0.97,1.518s-0.896,0.726-1.454,0.938
			c-0.558,0.212-1.158,0.311-1.799,0.295c-0.286-0.008-0.586-0.02-0.901-0.037c-0.314-0.018-0.665-0.026-1.051-0.026
			c-0.263,0-0.523,0.001-0.782,0.003s-0.52,0.003-0.782,0.003V121.118z M86.531,120.846c0.248,0.069,0.502,0.119,0.765,0.147
			c0.263,0.029,0.544,0.04,0.846,0.032c0.425-0.012,0.83-0.097,1.214-0.255c0.384-0.158,0.723-0.395,1.016-0.71
			c0.293-0.314,0.526-0.712,0.698-1.193c0.172-0.48,0.258-1.049,0.258-1.705c0-0.684-0.082-1.277-0.246-1.781
			c-0.165-0.504-0.399-0.921-0.704-1.251c-0.305-0.33-0.676-0.575-1.112-0.733c-0.437-0.158-0.925-0.229-1.466-0.214
			c-0.158,0.004-0.297,0.01-0.417,0.018s-0.228,0.015-0.324,0.022s-0.187,0.019-0.27,0.032s-0.169,0.028-0.258,0.043V120.846z"/>
		<path d="M93.048,121.118l0.828-0.168l3.018-8.335h0.974l2.885,8.329l0.92,0.174v0.492h-3.059v-0.492l0.963-0.174l-0.627-1.865
			h-3.475l-0.625,1.865l0.967,0.174v0.492h-2.769V121.118z M98.725,118.401l-0.945-2.826l-0.55-1.744l-1.529,4.57H98.725z"/>
		<path d="M105.339,121.118l0.984-0.122v-7.843l-0.927-0.208v-0.504l1.812-0.243l0.232,0.133v8.665l1.03,0.122v0.492h-3.133V121.118
			z"/>
		<path d="M109.405,121.118l0.985-0.122v-4.744l-0.8-0.423v-0.358l1.604-0.458l0.261,0.116v5.867l0.938,0.122v0.492h-2.989V121.118z
			 M110.685,113.646c-0.093,0-0.184-0.016-0.272-0.049s-0.167-0.079-0.234-0.139c-0.067-0.061-0.121-0.135-0.162-0.224
			c-0.04-0.089-0.061-0.188-0.061-0.301c0-0.12,0.025-0.231,0.078-0.336c0.052-0.104,0.118-0.194,0.2-0.27
			c0.081-0.075,0.172-0.134,0.274-0.177c0.103-0.042,0.206-0.063,0.311-0.063c0.255,0,0.44,0.07,0.559,0.211
			c0.118,0.142,0.177,0.311,0.177,0.507c0,0.128-0.025,0.243-0.075,0.348c-0.051,0.104-0.116,0.192-0.197,0.264
			s-0.174,0.128-0.278,0.168C110.9,113.626,110.793,113.646,110.685,113.646z"/>
		<path d="M113.512,121.118l0.787-0.128v-4.709l-0.822-0.452v-0.358l1.541-0.458l0.261,0.116v0.828
			c0.127-0.112,0.281-0.223,0.463-0.333s0.376-0.21,0.582-0.299c0.207-0.088,0.418-0.161,0.635-0.217
			c0.216-0.056,0.423-0.088,0.619-0.096c0.417-0.016,0.754,0.04,1.011,0.165c0.257,0.126,0.457,0.345,0.6,0.657
			c0.14-0.104,0.304-0.204,0.492-0.301c0.189-0.097,0.389-0.183,0.597-0.258c0.209-0.075,0.419-0.136,0.632-0.183
			c0.212-0.046,0.411-0.073,0.597-0.081c0.359-0.012,0.662,0.033,0.909,0.134c0.247,0.1,0.446,0.263,0.597,0.486
			s0.259,0.514,0.324,0.869c0.065,0.354,0.099,0.781,0.099,1.279v3.215l0.979,0.122v0.492h-2.879v-0.492l0.788-0.122v-3.012
			c0-0.371-0.018-0.692-0.052-0.965c-0.035-0.271-0.104-0.496-0.206-0.672s-0.244-0.304-0.426-0.385s-0.419-0.116-0.712-0.104
			c-0.263,0.012-0.523,0.061-0.782,0.147s-0.514,0.202-0.765,0.345c0.042,0.186,0.075,0.397,0.099,0.635s0.034,0.483,0.034,0.738
			v3.278l0.887,0.116v0.492h-2.867v-0.492l0.869-0.128v-3.099c0-0.367-0.019-0.682-0.056-0.944
			c-0.036-0.263-0.106-0.477-0.211-0.643s-0.248-0.285-0.432-0.356s-0.422-0.102-0.716-0.09c-0.208,0.012-0.446,0.064-0.715,0.159
			s-0.55,0.242-0.843,0.443v1.06c0,0.584-0.002,1.163-0.006,1.738s-0.004,1.154,0,1.737l0.863,0.122v0.492h-2.774V121.118z"/>
		<path d="M125.351,121.118l0.985-0.122v-4.744l-0.8-0.423v-0.358l1.604-0.458l0.261,0.116v5.867l0.938,0.122v0.492h-2.989V121.118z
			 M126.631,113.646c-0.093,0-0.184-0.016-0.272-0.049s-0.167-0.079-0.234-0.139c-0.067-0.061-0.121-0.135-0.162-0.224
			c-0.04-0.089-0.061-0.188-0.061-0.301c0-0.12,0.025-0.231,0.078-0.336c0.052-0.104,0.118-0.194,0.2-0.27
			c0.081-0.075,0.172-0.134,0.274-0.177c0.103-0.042,0.206-0.063,0.311-0.063c0.255,0,0.44,0.07,0.559,0.211
			c0.118,0.142,0.177,0.311,0.177,0.507c0,0.128-0.025,0.243-0.075,0.348c-0.051,0.104-0.116,0.192-0.197,0.264
			s-0.174,0.128-0.278,0.168C126.846,113.626,126.74,113.646,126.631,113.646z"/>
		<path d="M130.188,120.093c0-0.711,0.001-1.416,0.003-2.117s0.003-1.406,0.003-2.117h-0.887v-0.435
			c0.17-0.042,0.312-0.076,0.426-0.102c0.114-0.024,0.209-0.054,0.284-0.086c0.075-0.033,0.138-0.075,0.188-0.125
			c0.05-0.05,0.096-0.124,0.139-0.22c0.027-0.066,0.061-0.162,0.102-0.29c0.04-0.127,0.079-0.258,0.115-0.391
			c0.037-0.134,0.069-0.259,0.096-0.377c0.027-0.117,0.045-0.201,0.053-0.252h0.573v1.547h1.946v0.729h-1.946v2.92
			c0,0.447,0.006,0.812,0.018,1.092c0.012,0.279,0.04,0.499,0.087,0.657c0.046,0.158,0.113,0.266,0.202,0.321
			s0.213,0.084,0.371,0.084c0.097,0,0.203-0.01,0.321-0.029c0.118-0.019,0.231-0.042,0.342-0.069c0.11-0.026,0.212-0.057,0.304-0.09
			c0.093-0.032,0.163-0.064,0.209-0.096l0.18,0.51c-0.089,0.097-0.207,0.182-0.354,0.255s-0.306,0.136-0.478,0.186
			s-0.344,0.088-0.516,0.113c-0.172,0.024-0.323,0.037-0.455,0.037c-0.421,0-0.747-0.129-0.979-0.388
			S130.188,120.68,130.188,120.093z"/>
	</g>
	
		<ellipse fill="none" stroke="#E7E7E7" stroke-width="13.7255" stroke-miterlimit="10" cx="90.115" cy="91.116" rx="70.099" ry="70.252"/>
	<path fill="none" stroke="#009777" stroke-width="13.7255" stroke-miterlimit="10" d="M78.323,22.001
		c-33.186,5.597-58.46,34.411-58.46,69.114c0,38.715,31.453,70.099,70.252,70.099c38.8,0,70.253-31.384,70.253-70.099
		c0-38.714-31.453-70.098-70.253-70.098"/>
</g>
</svg>
