<?xml version="1.0" encoding="utf-8"?>
<!-- Generator: Adobe Illustrator 16.0.4, SVG Export Plug-In . SVG Version: 6.00 Build 0)  -->
<!DOCTYPE svg PUBLIC "-//W3C//DTD SVG 1.1//EN" "http://www.w3.org/Graphics/SVG/1.1/DTD/svg11.dtd">
<svg version="1.1" id="Layer_1" xmlns="http://www.w3.org/2000/svg" xmlns:xlink="http://www.w3.org/1999/xlink" x="0px" y="0px"
	 width="966.096px" height="206px" viewBox="0 0 966.096 206" enable-background="new 0 0 966.096 206" xml:space="preserve">
<g>
	<g>
		<path fill="#6B6B6E" d="M34.378,160.772h8.205v1.32h-3.39v9.18h-1.44v-9.18h-3.375V160.772z"/>
		<path fill="#6B6B6E" d="M50.18,161.388c0.845,0.47,1.512,1.112,2.002,1.928c0.49,0.814,0.735,1.712,0.735,2.692
			c0,0.979-0.245,1.882-0.735,2.707c-0.49,0.825-1.158,1.476-2.002,1.95c-0.845,0.475-1.772,0.713-2.783,0.713
			c-1.01,0-1.938-0.238-2.782-0.713c-0.845-0.475-1.513-1.125-2.002-1.95c-0.49-0.825-0.735-1.728-0.735-2.707
			c0-0.98,0.245-1.878,0.735-2.692c0.49-0.815,1.155-1.458,1.995-1.928c0.84-0.47,1.77-0.705,2.79-0.705
			C48.408,160.683,49.335,160.918,50.18,161.388z M45.38,162.513c-0.625,0.359-1.123,0.848-1.492,1.462
			c-0.37,0.615-0.555,1.293-0.555,2.033s0.185,1.42,0.555,2.04c0.37,0.62,0.867,1.112,1.492,1.478
			c0.625,0.364,1.303,0.547,2.033,0.547s1.402-0.183,2.018-0.547c0.615-0.365,1.105-0.857,1.47-1.478
			c0.365-0.62,0.548-1.3,0.548-2.04s-0.183-1.418-0.548-2.033c-0.365-0.614-0.855-1.103-1.47-1.462
			c-0.615-0.36-1.288-0.54-2.018-0.54S46.005,162.152,45.38,162.513z"/>
		<path fill="#6B6B6E" d="M61.265,161.455c0.825,0.455,1.472,1.082,1.942,1.883c0.47,0.8,0.705,1.694,0.705,2.685
			s-0.238,1.885-0.712,2.685c-0.475,0.801-1.127,1.428-1.958,1.883s-1.76,0.683-2.79,0.683h-4.23v-10.5h4.275
			C59.518,160.772,60.44,161,61.265,161.455z M60.515,169.457c0.595-0.34,1.065-0.81,1.41-1.409
			c0.345-0.601,0.518-1.271,0.518-2.011c0-0.75-0.175-1.425-0.525-2.024c-0.35-0.601-0.828-1.072-1.432-1.418
			c-0.605-0.345-1.278-0.518-2.018-0.518h-2.805v7.891h2.865C59.257,169.968,59.92,169.798,60.515,169.457z"/>
		<path fill="#6B6B6E" d="M72.748,171.272l-1.11-2.55h-5.535l-1.095,2.55h-1.515l4.665-10.5h1.5l4.65,10.5H72.748z M66.673,167.417
			h4.41l-2.22-5.1L66.673,167.417z"/>
		<path fill="#6B6B6E" d="M82.272,160.772l-3.93,6.9v3.6h-1.44v-3.54l-3.99-6.96h1.47l3.24,5.355l3.18-5.355H82.272z"/>
	</g>
	<g>
		<path fill="#6B6B6E" d="M492.388,169.968v1.305h-7.59v-1.11l4.064-4.215c0.439-0.439,0.79-0.877,1.051-1.312
			c0.26-0.435,0.39-0.812,0.39-1.132c0-0.471-0.183-0.841-0.548-1.11c-0.365-0.271-0.867-0.405-1.508-0.405
			c-0.49,0-1,0.112-1.529,0.338c-0.53,0.225-1.01,0.537-1.44,0.938l-0.614-1.096c0.569-0.459,1.177-0.817,1.822-1.072
			c0.645-0.255,1.292-0.382,1.942-0.382c1.021,0,1.837,0.234,2.452,0.704c0.615,0.471,0.923,1.101,0.923,1.891
			c0,0.93-0.65,2.07-1.95,3.42l-3.165,3.24H492.388z"/>
		<path fill="#6B6B6E" d="M500.818,162.085c0.76,0.915,1.141,2.228,1.141,3.938s-0.381,3.025-1.141,3.945s-1.846,1.38-3.255,1.38
			c-1.421,0-2.508-0.46-3.263-1.38c-0.756-0.92-1.133-2.235-1.133-3.945s0.377-3.022,1.133-3.938
			c0.755-0.915,1.842-1.372,3.263-1.372C498.972,160.713,500.058,161.17,500.818,162.085z M494.653,166.022
			c0,1.38,0.245,2.42,0.735,3.12c0.489,0.7,1.215,1.05,2.175,1.05s1.685-0.35,2.175-1.05s0.734-1.74,0.734-3.12
			c0-2.78-0.969-4.17-2.909-4.17S494.653,163.242,494.653,166.022z"/>
		<path fill="#6B6B6E" d="M502.123,160.772h3.825v10.5h-1.44v-9.195h-2.385V160.772z"/>
		<path fill="#6B6B6E" d="M514.093,161.425c0.609,0.476,0.914,1.128,0.914,1.958c0,0.52-0.143,0.978-0.428,1.372
			c-0.284,0.396-0.682,0.697-1.191,0.907c0.67,0.21,1.194,0.548,1.574,1.013c0.381,0.465,0.57,1.018,0.57,1.657
			c0,0.931-0.353,1.665-1.058,2.205s-1.663,0.811-2.872,0.811c-1.211,0-2.168-0.268-2.873-0.803s-1.057-1.263-1.057-2.183
			c0-0.649,0.194-1.21,0.584-1.68c0.391-0.47,0.93-0.811,1.621-1.021c-0.541-0.229-0.959-0.542-1.254-0.938
			c-0.295-0.395-0.441-0.857-0.441-1.387c0-0.811,0.305-1.45,0.914-1.921c0.61-0.47,1.44-0.704,2.49-0.704
			C512.648,160.713,513.482,160.95,514.093,161.425z M509.712,166.81c-0.449,0.336-0.675,0.798-0.675,1.388
			c0,0.63,0.226,1.12,0.675,1.47c0.45,0.351,1.08,0.525,1.891,0.525c0.8,0,1.428-0.175,1.883-0.525
			c0.454-0.35,0.682-0.834,0.682-1.454c0-0.591-0.228-1.056-0.682-1.396c-0.455-0.34-1.088-0.51-1.898-0.51
			C510.788,166.308,510.163,166.475,509.712,166.81z M509.99,162.213c-0.385,0.3-0.577,0.715-0.577,1.244
			c0,0.54,0.192,0.96,0.577,1.261c0.385,0.3,0.923,0.449,1.613,0.449c0.689,0,1.225-0.149,1.604-0.449
			c0.38-0.301,0.57-0.721,0.57-1.261c0-0.529-0.19-0.944-0.57-1.244c-0.38-0.301-0.915-0.45-1.604-0.45
			C510.913,161.763,510.375,161.912,509.99,162.213z"/>
	</g>
	<g>
		<path fill="#6B6B6E" d="M582.388,169.968v1.305h-7.59v-1.11l4.064-4.215c0.439-0.439,0.79-0.877,1.051-1.312
			c0.26-0.435,0.39-0.812,0.39-1.132c0-0.471-0.183-0.841-0.548-1.11c-0.365-0.271-0.867-0.405-1.508-0.405
			c-0.49,0-1,0.112-1.529,0.338c-0.53,0.225-1.01,0.537-1.44,0.938l-0.614-1.096c0.569-0.459,1.177-0.817,1.822-1.072
			c0.645-0.255,1.292-0.382,1.942-0.382c1.021,0,1.837,0.234,2.452,0.704c0.615,0.471,0.923,1.101,0.923,1.891
			c0,0.93-0.65,2.07-1.95,3.42l-3.165,3.24H582.388z"/>
		<path fill="#6B6B6E" d="M590.818,162.085c0.76,0.915,1.141,2.228,1.141,3.938s-0.381,3.025-1.141,3.945s-1.846,1.38-3.255,1.38
			c-1.421,0-2.508-0.46-3.263-1.38c-0.756-0.92-1.133-2.235-1.133-3.945s0.377-3.022,1.133-3.938
			c0.755-0.915,1.842-1.372,3.263-1.372C588.972,160.713,590.058,161.17,590.818,162.085z M584.653,166.022
			c0,1.38,0.245,2.42,0.735,3.12c0.489,0.7,1.215,1.05,2.175,1.05s1.685-0.35,2.175-1.05s0.734-1.74,0.734-3.12
			c0-2.78-0.969-4.17-2.909-4.17S584.653,163.242,584.653,166.022z"/>
		<path fill="#6B6B6E" d="M600.193,169.968v1.305h-7.59v-1.11l4.064-4.215c0.439-0.439,0.79-0.877,1.051-1.312
			c0.26-0.435,0.39-0.812,0.39-1.132c0-0.471-0.183-0.841-0.548-1.11c-0.365-0.271-0.867-0.405-1.508-0.405
			c-0.49,0-1,0.112-1.529,0.338c-0.53,0.225-1.01,0.537-1.44,0.938l-0.614-1.096c0.569-0.459,1.177-0.817,1.822-1.072
			c0.645-0.255,1.292-0.382,1.942-0.382c1.021,0,1.837,0.234,2.452,0.704c0.615,0.471,0.923,1.101,0.923,1.891
			c0,0.93-0.65,2.07-1.95,3.42l-3.165,3.24H600.193z"/>
		<path fill="#6B6B6E" d="M608.623,162.085c0.76,0.915,1.141,2.228,1.141,3.938s-0.381,3.025-1.141,3.945s-1.846,1.38-3.255,1.38
			c-1.421,0-2.508-0.46-3.263-1.38c-0.756-0.92-1.133-2.235-1.133-3.945s0.377-3.022,1.133-3.938
			c0.755-0.915,1.842-1.372,3.263-1.372C606.777,160.713,607.863,161.17,608.623,162.085z M602.458,166.022
			c0,1.38,0.245,2.42,0.735,3.12c0.489,0.7,1.215,1.05,2.175,1.05s1.685-0.35,2.175-1.05s0.734-1.74,0.734-3.12
			c0-2.78-0.969-4.17-2.909-4.17S602.458,163.242,602.458,166.022z"/>
	</g>
	<g>
		<path fill="#6B6B6E" d="M672.388,169.968v1.305h-7.59v-1.11l4.064-4.215c0.439-0.439,0.79-0.877,1.051-1.312
			c0.26-0.435,0.39-0.812,0.39-1.132c0-0.471-0.183-0.841-0.548-1.11c-0.365-0.271-0.867-0.405-1.508-0.405
			c-0.49,0-1,0.112-1.529,0.338c-0.53,0.225-1.01,0.537-1.44,0.938l-0.614-1.096c0.569-0.459,1.177-0.817,1.822-1.072
			c0.645-0.255,1.292-0.382,1.942-0.382c1.021,0,1.837,0.234,2.452,0.704c0.615,0.471,0.923,1.101,0.923,1.891
			c0,0.93-0.65,2.07-1.95,3.42l-3.165,3.24H672.388z"/>
		<path fill="#6B6B6E" d="M680.818,162.085c0.76,0.915,1.141,2.228,1.141,3.938s-0.381,3.025-1.141,3.945s-1.846,1.38-3.255,1.38
			c-1.421,0-2.508-0.46-3.263-1.38c-0.756-0.92-1.133-2.235-1.133-3.945s0.377-3.022,1.133-3.938
			c0.755-0.915,1.842-1.372,3.263-1.372C678.972,160.713,680.058,161.17,680.818,162.085z M674.653,166.022
			c0,1.38,0.245,2.42,0.735,3.12c0.489,0.7,1.215,1.05,2.175,1.05s1.685-0.35,2.175-1.05s0.734-1.74,0.734-3.12
			c0-2.78-0.969-4.17-2.909-4.17S674.653,163.242,674.653,166.022z"/>
		<path fill="#6B6B6E" d="M690.193,169.968v1.305h-7.59v-1.11l4.064-4.215c0.439-0.439,0.79-0.877,1.051-1.312
			c0.26-0.435,0.39-0.812,0.39-1.132c0-0.471-0.183-0.841-0.548-1.11c-0.365-0.271-0.867-0.405-1.508-0.405
			c-0.49,0-1,0.112-1.529,0.338c-0.53,0.225-1.01,0.537-1.44,0.938l-0.614-1.096c0.569-0.459,1.177-0.817,1.822-1.072
			c0.645-0.255,1.292-0.382,1.942-0.382c1.021,0,1.837,0.234,2.452,0.704c0.615,0.471,0.923,1.101,0.923,1.891
			c0,0.93-0.65,2.07-1.95,3.42l-3.165,3.24H690.193z"/>
		<path fill="#6B6B6E" d="M698.097,169.968v1.305h-7.59v-1.11l4.064-4.215c0.44-0.439,0.791-0.877,1.051-1.312
			c0.26-0.435,0.391-0.812,0.391-1.132c0-0.471-0.184-0.841-0.549-1.11c-0.365-0.271-0.867-0.405-1.507-0.405
			c-0.49,0-1,0.112-1.53,0.338c-0.529,0.225-1.01,0.537-1.439,0.938l-0.615-1.096c0.57-0.459,1.178-0.817,1.822-1.072
			s1.293-0.382,1.943-0.382c1.02,0,1.837,0.234,2.451,0.704c0.615,0.471,0.924,1.101,0.924,1.891c0,0.93-0.65,2.07-1.951,3.42
			l-3.164,3.24H698.097z"/>
	</g>
	<g>
		<path fill="#6B6B6E" d="M762.388,169.968v1.305h-7.59v-1.11l4.064-4.215c0.439-0.439,0.79-0.877,1.051-1.312
			c0.26-0.435,0.39-0.812,0.39-1.132c0-0.471-0.183-0.841-0.548-1.11c-0.365-0.271-0.867-0.405-1.508-0.405
			c-0.49,0-1,0.112-1.529,0.338c-0.53,0.225-1.01,0.537-1.44,0.938l-0.614-1.096c0.569-0.459,1.177-0.817,1.822-1.072
			c0.645-0.255,1.292-0.382,1.942-0.382c1.021,0,1.837,0.234,2.452,0.704c0.615,0.471,0.923,1.101,0.923,1.891
			c0,0.93-0.65,2.07-1.95,3.42l-3.165,3.24H762.388z"/>
		<path fill="#6B6B6E" d="M770.818,162.085c0.76,0.915,1.141,2.228,1.141,3.938s-0.381,3.025-1.141,3.945s-1.846,1.38-3.255,1.38
			c-1.421,0-2.508-0.46-3.263-1.38c-0.756-0.92-1.133-2.235-1.133-3.945s0.377-3.022,1.133-3.938
			c0.755-0.915,1.842-1.372,3.263-1.372C768.972,160.713,770.058,161.17,770.818,162.085z M764.653,166.022
			c0,1.38,0.245,2.42,0.735,3.12c0.489,0.7,1.215,1.05,2.175,1.05s1.685-0.35,2.175-1.05s0.734-1.74,0.734-3.12
			c0-2.78-0.969-4.17-2.909-4.17S764.653,163.242,764.653,166.022z"/>
		<path fill="#6B6B6E" d="M780.193,169.968v1.305h-7.59v-1.11l4.064-4.215c0.439-0.439,0.79-0.877,1.051-1.312
			c0.26-0.435,0.39-0.812,0.39-1.132c0-0.471-0.183-0.841-0.548-1.11c-0.365-0.271-0.867-0.405-1.508-0.405
			c-0.49,0-1,0.112-1.529,0.338c-0.53,0.225-1.01,0.537-1.44,0.938l-0.614-1.096c0.569-0.459,1.177-0.817,1.822-1.072
			c0.645-0.255,1.292-0.382,1.942-0.382c1.021,0,1.837,0.234,2.452,0.704c0.615,0.471,0.923,1.101,0.923,1.891
			c0,0.93-0.65,2.07-1.95,3.42l-3.165,3.24H780.193z"/>
		<path fill="#6B6B6E" d="M788.353,167.282v1.29h-1.621v2.7h-1.35v-2.7h-5.205v-1.109l3.75-6.69h1.41l-3.6,6.51h3.645v-2.685h1.35
			v2.685H788.353z"/>
	</g>
	<g>
		<path fill="#6B6B6E" d="M852.388,169.968v1.305h-7.59v-1.11l4.064-4.215c0.439-0.439,0.79-0.877,1.051-1.312
			c0.26-0.435,0.39-0.812,0.39-1.132c0-0.471-0.183-0.841-0.548-1.11c-0.365-0.271-0.867-0.405-1.508-0.405
			c-0.49,0-1,0.112-1.529,0.338c-0.53,0.225-1.01,0.537-1.44,0.938l-0.614-1.096c0.569-0.459,1.177-0.817,1.822-1.072
			c0.645-0.255,1.292-0.382,1.942-0.382c1.021,0,1.837,0.234,2.452,0.704c0.615,0.471,0.923,1.101,0.923,1.891
			c0,0.93-0.65,2.07-1.95,3.42l-3.165,3.24H852.388z"/>
		<path fill="#6B6B6E" d="M860.818,162.085c0.76,0.915,1.141,2.228,1.141,3.938s-0.381,3.025-1.141,3.945s-1.846,1.38-3.255,1.38
			c-1.421,0-2.508-0.46-3.263-1.38c-0.756-0.92-1.133-2.235-1.133-3.945s0.377-3.022,1.133-3.938
			c0.755-0.915,1.842-1.372,3.263-1.372C858.972,160.713,860.058,161.17,860.818,162.085z M854.653,166.022
			c0,1.38,0.245,2.42,0.735,3.12c0.489,0.7,1.215,1.05,2.175,1.05s1.685-0.35,2.175-1.05s0.734-1.74,0.734-3.12
			c0-2.78-0.969-4.17-2.909-4.17S854.653,163.242,854.653,166.022z"/>
		<path fill="#6B6B6E" d="M870.193,169.968v1.305h-7.59v-1.11l4.064-4.215c0.439-0.439,0.79-0.877,1.051-1.312
			c0.26-0.435,0.39-0.812,0.39-1.132c0-0.471-0.183-0.841-0.548-1.11c-0.365-0.271-0.867-0.405-1.508-0.405
			c-0.49,0-1,0.112-1.529,0.338c-0.53,0.225-1.01,0.537-1.44,0.938l-0.614-1.096c0.569-0.459,1.177-0.817,1.822-1.072
			c0.645-0.255,1.292-0.382,1.942-0.382c1.021,0,1.837,0.234,2.452,0.704c0.615,0.471,0.923,1.101,0.923,1.891
			c0,0.93-0.65,2.07-1.95,3.42l-3.165,3.24H870.193z"/>
		<path fill="#6B6B6E" d="M876.65,162.085c-0.426-0.115-0.842-0.173-1.252-0.173c-1.011,0-1.785,0.351-2.326,1.051
			c-0.539,0.699-0.809,1.659-0.809,2.88c0,0.189,0.004,0.335,0.014,0.435c0.261-0.57,0.65-1.005,1.17-1.305
			c0.521-0.3,1.146-0.45,1.875-0.45c1.051,0,1.878,0.3,2.483,0.9c0.604,0.6,0.907,1.409,0.907,2.43c0,0.71-0.15,1.327-0.449,1.853
			c-0.301,0.524-0.727,0.93-1.275,1.215c-0.551,0.285-1.19,0.428-1.92,0.428c-0.871,0-1.623-0.2-2.258-0.601
			c-0.635-0.399-1.12-0.982-1.455-1.747s-0.502-1.683-0.502-2.753c0-1.109,0.182-2.082,0.547-2.917s0.88-1.479,1.545-1.936
			c0.665-0.454,1.447-0.682,2.348-0.682c0.5,0,1.027,0.069,1.582,0.21c0.556,0.14,1.048,0.324,1.479,0.555l-0.57,1.095
			C877.453,162.362,877.075,162.2,876.65,162.085z M873.732,165.985c-0.379,0.205-0.672,0.478-0.877,0.817s-0.303,0.71-0.293,1.109
			c-0.01,0.351,0.076,0.69,0.256,1.021s0.452,0.605,0.816,0.825c0.365,0.22,0.812,0.33,1.344,0.33c0.719,0,1.297-0.2,1.732-0.601
			c0.435-0.399,0.652-0.95,0.652-1.649c0-0.66-0.208-1.186-0.623-1.575c-0.415-0.391-0.973-0.585-1.672-0.585
			C874.558,165.678,874.113,165.78,873.732,165.985z"/>
	</g>
</g>
<g>
	<defs>
		<rect id="SVGID_1_" x="484.228" y="44" width="90" height="100.454"/>
	</defs>
	<clipPath id="SVGID_2_">
		<use xlink:href="#SVGID_1_"  overflow="visible"/>
	</clipPath>
	<g clip-path="url(#SVGID_2_)">
		<defs>
			<rect id="SVGID_3_" x="-235.772" y="-487" width="1440" height="900"/>
		</defs>
		<clipPath id="SVGID_4_">
			<use xlink:href="#SVGID_3_"  overflow="visible"/>
		</clipPath>
		<rect x="479.228" y="39" clip-path="url(#SVGID_4_)" fill="#87F0DA" width="100" height="110.454"/>
	</g>
</g>
<g>
	<defs>
		<rect id="SVGID_5_" x="574.228" y="44" width="90" height="100.454"/>
	</defs>
	<clipPath id="SVGID_6_">
		<use xlink:href="#SVGID_5_"  overflow="visible"/>
	</clipPath>
	<g clip-path="url(#SVGID_6_)">
		<defs>
			<rect id="SVGID_7_" x="-235.772" y="-487" width="1440" height="900"/>
		</defs>
		<clipPath id="SVGID_8_">
			<use xlink:href="#SVGID_7_"  overflow="visible"/>
		</clipPath>
		<rect x="569.228" y="39" clip-path="url(#SVGID_8_)" fill="#66DCC3" width="100" height="110.454"/>
	</g>
</g>
<g>
	<defs>
		<rect id="SVGID_9_" x="754.228" y="44" width="90" height="100.454"/>
	</defs>
	<clipPath id="SVGID_10_">
		<use xlink:href="#SVGID_9_"  overflow="visible"/>
	</clipPath>
	<g clip-path="url(#SVGID_10_)">
		<defs>
			<rect id="SVGID_11_" x="-235.772" y="-487" width="1440" height="900"/>
		</defs>
		<clipPath id="SVGID_12_">
			<use xlink:href="#SVGID_11_"  overflow="visible"/>
		</clipPath>
		<rect x="749.228" y="39" clip-path="url(#SVGID_12_)" fill="#3AB49A" width="100" height="110.454"/>
	</g>
</g>
<g>
	<defs>
		<rect id="SVGID_13_" x="844.228" y="44" width="90" height="100.454"/>
	</defs>
	<clipPath id="SVGID_14_">
		<use xlink:href="#SVGID_13_"  overflow="visible"/>
	</clipPath>
	<g clip-path="url(#SVGID_14_)">
		<defs>
			<rect id="SVGID_15_" x="-235.772" y="-487" width="1440" height="900"/>
		</defs>
		<clipPath id="SVGID_16_">
			<use xlink:href="#SVGID_15_"  overflow="visible"/>
		</clipPath>
		<rect x="839.228" y="39" clip-path="url(#SVGID_16_)" fill="#009777" width="100" height="110.454"/>
	</g>
</g>
<g>
	<defs>
		<rect id="SVGID_17_" x="664.228" y="44" width="90" height="100.454"/>
	</defs>
	<clipPath id="SVGID_18_">
		<use xlink:href="#SVGID_17_"  overflow="visible"/>
	</clipPath>
	<g clip-path="url(#SVGID_18_)">
		<defs>
			<rect id="SVGID_19_" x="-235.772" y="-487" width="1440" height="900"/>
		</defs>
		<clipPath id="SVGID_20_">
			<use xlink:href="#SVGID_19_"  overflow="visible"/>
		</clipPath>
		<rect x="659.228" y="39" clip-path="url(#SVGID_20_)" fill="#52CCB2" width="100" height="110.454"/>
	</g>
</g>
<g>
	<defs>
		<rect id="SVGID_21_" x="34.228" y="44" width="450" height="100.454"/>
	</defs>
	<clipPath id="SVGID_22_">
		<use xlink:href="#SVGID_21_"  overflow="visible"/>
	</clipPath>
	<g clip-path="url(#SVGID_22_)">
		<defs>
			<rect id="SVGID_23_" x="-235.772" y="-487" width="1440" height="900"/>
		</defs>
		<clipPath id="SVGID_24_">
			<use xlink:href="#SVGID_23_"  overflow="visible"/>
		</clipPath>
		<rect x="29.228" y="39" clip-path="url(#SVGID_24_)" fill="#E7E7E7" width="460" height="110.454"/>
	</g>
</g>
</svg>
