<?xml version="1.0" encoding="utf-8"?>
<!-- Generator: Adobe Illustrator 16.0.4, SVG Export Plug-In . SVG Version: 6.00 Build 0)  -->
<!DOCTYPE svg PUBLIC "-//W3C//DTD SVG 1.1//EN" "http://www.w3.org/Graphics/SVG/1.1/DTD/svg11.dtd">
<svg version="1.1" id="Layer_1" xmlns="http://www.w3.org/2000/svg" xmlns:xlink="http://www.w3.org/1999/xlink" x="0px" y="0px"
	 width="100px" height="41.25px" viewBox="0 0 100 41.25" enable-background="new 0 0 100 41.25" xml:space="preserve">
<g>
	<g>
		<path fill="#6B6B6E" d="M3.657,35.249c0.09,0.092,0.214,0.138,0.372,0.138c0.156,0,0.279-0.046,0.368-0.138
			S4.53,35.03,4.53,34.867v-1.043h0.242v1.043c0,0.23-0.066,0.411-0.198,0.542s-0.314,0.196-0.546,0.196
			c-0.233,0-0.417-0.065-0.549-0.196c-0.132-0.131-0.199-0.312-0.199-0.542v-1.043h0.242v1.043
			C3.522,35.03,3.567,35.157,3.657,35.249z"/>
		<path fill="#6B6B6E" d="M6.3,33.98c0.12,0.104,0.18,0.25,0.18,0.438c0,0.196-0.061,0.349-0.182,0.457s-0.291,0.162-0.509,0.162
			H5.352v0.55H5.109v-1.764H5.79C6.01,33.824,6.18,33.876,6.3,33.98z M6.127,34.72c0.081-0.066,0.121-0.164,0.121-0.294
			c0-0.126-0.041-0.221-0.121-0.285c-0.081-0.065-0.196-0.098-0.348-0.098l-0.428,0.003v0.773H5.78
			C5.931,34.819,6.047,34.786,6.127,34.72z"/>
		<path fill="#6B6B6E" d="M7.863,33.98c0.12,0.104,0.18,0.25,0.18,0.438c0,0.196-0.061,0.349-0.182,0.457s-0.291,0.162-0.509,0.162
			H6.914v0.55H6.672v-1.764h0.681C7.572,33.824,7.743,33.876,7.863,33.98z M7.69,34.72c0.081-0.066,0.121-0.164,0.121-0.294
			c0-0.126-0.041-0.221-0.121-0.285c-0.081-0.065-0.196-0.098-0.348-0.098l-0.428,0.003v0.773h0.428
			C7.494,34.819,7.609,34.786,7.69,34.72z"/>
		<path fill="#6B6B6E" d="M8.234,33.824h1.225v0.219H8.477v0.545h0.879v0.219H8.477v0.562h1.013v0.22H8.234V33.824z"/>
		<path fill="#6B6B6E" d="M10.891,35.588l-0.351-0.555c-0.04,0.004-0.073,0.005-0.098,0.005H9.994v0.55H9.751v-1.764h0.69
			c0.224,0,0.396,0.052,0.518,0.154c0.122,0.104,0.183,0.25,0.183,0.44c0,0.143-0.033,0.263-0.1,0.36
			c-0.066,0.097-0.162,0.168-0.286,0.211l0.411,0.598H10.891z M10.442,34.819c0.151,0,0.267-0.033,0.348-0.1
			c0.081-0.066,0.121-0.164,0.121-0.294c0-0.126-0.04-0.221-0.121-0.285c-0.081-0.065-0.196-0.098-0.348-0.098H9.994v0.776H10.442z"
			/>
		<path fill="#6B6B6E" d="M13.155,33.941c0.103,0.078,0.155,0.186,0.155,0.323c0,0.101-0.028,0.187-0.085,0.256
			c-0.057,0.07-0.135,0.116-0.234,0.14c0.123,0.019,0.219,0.068,0.289,0.147c0.069,0.08,0.104,0.18,0.104,0.299
			c0,0.151-0.057,0.27-0.17,0.354c-0.114,0.085-0.271,0.127-0.47,0.127h-0.766v-1.764h0.753
			C12.91,33.824,13.051,33.863,13.155,33.941z M12.971,34.503c0.06-0.046,0.089-0.112,0.089-0.197c0-0.084-0.03-0.149-0.089-0.194
			c-0.06-0.046-0.144-0.067-0.253-0.065h-0.499v0.526h0.499C12.827,34.572,12.911,34.549,12.971,34.503z M13.025,35.292
			c0.074-0.052,0.111-0.123,0.111-0.216c0-0.089-0.037-0.158-0.111-0.209s-0.176-0.075-0.308-0.075h-0.499v0.574h0.499
			C12.849,35.368,12.951,35.343,13.025,35.292z"/>
		<path fill="#6B6B6E" d="M14.953,35.588l-0.187-0.429h-0.93l-0.184,0.429h-0.255l0.784-1.764h0.252l0.781,1.764H14.953z
			 M13.932,34.94h0.741L14.3,34.083L13.932,34.94z"/>
		<path fill="#6B6B6E" d="M16.553,33.824l-0.66,1.159v0.604H15.65v-0.595l-0.67-1.169h0.247l0.544,0.899l0.534-0.899H16.553z"/>
	</g>
	<g>
		<path fill="#6B6B6E" d="M29.142,33.824h0.24v1.764h-0.245l-1.008-1.366v1.366h-0.242v-1.764h0.245l1.01,1.368V33.824z"/>
		<path fill="#6B6B6E" d="M29.76,33.824h1.225v0.219h-0.982v0.545h0.879v0.219h-0.879v0.562h1.013v0.22H29.76V33.824z"/>
		<path fill="#6B6B6E" d="M33.398,33.824h0.252l-0.597,1.764h-0.252l-0.456-1.457l-0.463,1.457h-0.25l-0.595-1.764h0.259
			l0.466,1.504l0.464-1.504h0.242l0.466,1.504L33.398,33.824z"/>
		<path fill="#6B6B6E" d="M34.976,35.588l-0.187-0.429h-0.93l-0.184,0.429h-0.255l0.784-1.764h0.252l0.781,1.764H34.976z
			 M33.956,34.94h0.741l-0.373-0.857L33.956,34.94z"/>
		<path fill="#6B6B6E" d="M36.506,35.588l-0.351-0.555c-0.04,0.004-0.073,0.005-0.098,0.005h-0.448v0.55h-0.242v-1.764h0.69
			c0.224,0,0.396,0.052,0.518,0.154c0.122,0.104,0.183,0.25,0.183,0.44c0,0.143-0.033,0.263-0.1,0.36
			c-0.066,0.097-0.162,0.168-0.286,0.211l0.411,0.598H36.506z M36.057,34.819c0.151,0,0.267-0.033,0.348-0.1
			c0.081-0.066,0.121-0.164,0.121-0.294c0-0.126-0.04-0.221-0.121-0.285c-0.081-0.065-0.196-0.098-0.348-0.098h-0.448v0.776H36.057z
			"/>
		<path fill="#6B6B6E" d="M38.54,35.588h-0.292l-0.62-0.813l-0.325,0.353v0.461H37.06v-1.764h0.242v0.99l0.902-0.99h0.29
			l-0.698,0.761L38.54,35.588z"/>
		<path fill="#6B6B6E" d="M40.423,33.941c0.103,0.078,0.155,0.186,0.155,0.323c0,0.101-0.028,0.187-0.085,0.256
			c-0.057,0.07-0.135,0.116-0.234,0.14c0.123,0.019,0.219,0.068,0.289,0.147c0.069,0.08,0.104,0.18,0.104,0.299
			c0,0.151-0.057,0.27-0.17,0.354c-0.114,0.085-0.271,0.127-0.47,0.127h-0.766v-1.764h0.753
			C40.178,33.824,40.319,33.863,40.423,33.941z M40.239,34.503c0.06-0.046,0.089-0.112,0.089-0.197c0-0.084-0.03-0.149-0.089-0.194
			c-0.06-0.046-0.144-0.067-0.253-0.065h-0.499v0.526h0.499C40.095,34.572,40.179,34.549,40.239,34.503z M40.293,35.292
			c0.074-0.052,0.111-0.123,0.111-0.216c0-0.089-0.037-0.158-0.111-0.209s-0.176-0.075-0.308-0.075h-0.499v0.574h0.499
			C40.117,35.368,40.219,35.343,40.293,35.292z"/>
		<path fill="#6B6B6E" d="M42.221,35.588l-0.187-0.429h-0.93l-0.184,0.429h-0.255l0.784-1.764h0.252l0.781,1.764H42.221z
			 M41.2,34.94h0.741l-0.373-0.857L41.2,34.94z"/>
		<path fill="#6B6B6E" d="M43.821,33.824l-0.66,1.159v0.604h-0.242v-0.595l-0.67-1.169h0.247l0.544,0.899l0.534-0.899H43.821z"/>
	</g>
	<g>
		<path fill="#6B6B6E" d="M55.765,33.824h0.242v1.544h0.771v0.22h-1.013V33.824z"/>
		<path fill="#6B6B6E" d="M58.195,33.927c0.143,0.079,0.255,0.188,0.337,0.324s0.123,0.288,0.123,0.452
			c0,0.165-0.041,0.316-0.123,0.455s-0.194,0.248-0.337,0.327c-0.142,0.08-0.298,0.12-0.467,0.12c-0.17,0-0.326-0.04-0.468-0.12
			c-0.142-0.079-0.254-0.188-0.336-0.327c-0.083-0.139-0.124-0.29-0.124-0.455c0-0.164,0.041-0.315,0.124-0.452
			c0.082-0.137,0.193-0.245,0.335-0.324c0.141-0.078,0.297-0.118,0.469-0.118C57.897,33.809,58.054,33.849,58.195,33.927z
			 M57.39,34.116c-0.105,0.061-0.189,0.143-0.251,0.246c-0.062,0.103-0.094,0.217-0.094,0.341c0,0.125,0.031,0.239,0.094,0.343
			c0.062,0.104,0.146,0.188,0.251,0.248c0.104,0.062,0.219,0.093,0.341,0.093c0.123,0,0.236-0.031,0.339-0.093
			c0.104-0.061,0.186-0.144,0.247-0.248c0.062-0.104,0.092-0.218,0.092-0.343c0-0.124-0.03-0.238-0.092-0.341
			c-0.062-0.104-0.144-0.186-0.247-0.246c-0.103-0.061-0.216-0.091-0.339-0.091C57.608,34.025,57.494,34.056,57.39,34.116z"/>
		<path fill="#6B6B6E" d="M60.974,33.824h0.252l-0.598,1.764h-0.252l-0.456-1.457l-0.464,1.457h-0.249l-0.595-1.764h0.26
			l0.466,1.504l0.464-1.504h0.242l0.466,1.504L60.974,33.824z"/>
		<path fill="#6B6B6E" d="M61.359,33.824h1.225v0.219h-0.982v0.545h0.879v0.219h-0.879v0.562h1.013v0.22h-1.255V33.824z"/>
		<path fill="#6B6B6E" d="M64.015,35.588l-0.35-0.555c-0.041,0.004-0.073,0.005-0.099,0.005h-0.448v0.55h-0.242v-1.764h0.69
			c0.224,0,0.396,0.052,0.518,0.154c0.122,0.104,0.183,0.25,0.183,0.44c0,0.143-0.033,0.263-0.099,0.36
			c-0.066,0.097-0.162,0.168-0.286,0.211l0.41,0.598H64.015z M63.566,34.819c0.151,0,0.268-0.033,0.348-0.1
			c0.081-0.066,0.121-0.164,0.121-0.294c0-0.126-0.04-0.221-0.121-0.285c-0.08-0.065-0.196-0.098-0.348-0.098h-0.448v0.776H63.566z"
			/>
		<path fill="#6B6B6E" d="M66.279,33.941c0.104,0.078,0.155,0.186,0.155,0.323c0,0.101-0.028,0.187-0.086,0.256
			c-0.057,0.07-0.135,0.116-0.234,0.14c0.123,0.019,0.219,0.068,0.289,0.147c0.069,0.08,0.104,0.18,0.104,0.299
			c0,0.151-0.057,0.27-0.17,0.354s-0.271,0.127-0.47,0.127h-0.767v-1.764h0.754C66.035,33.824,66.177,33.863,66.279,33.941z
			 M66.096,34.503c0.06-0.046,0.09-0.112,0.09-0.197c0-0.084-0.03-0.149-0.09-0.194c-0.06-0.046-0.144-0.067-0.253-0.065h-0.499
			v0.526h0.499C65.952,34.572,66.036,34.549,66.096,34.503z M66.15,35.292c0.073-0.052,0.11-0.123,0.11-0.216
			c0-0.089-0.037-0.158-0.11-0.209c-0.074-0.051-0.177-0.075-0.308-0.075h-0.499v0.574h0.499
			C65.974,35.368,66.076,35.343,66.15,35.292z"/>
		<path fill="#6B6B6E" d="M68.077,35.588l-0.187-0.429h-0.93l-0.185,0.429h-0.254l0.783-1.764h0.252l0.781,1.764H68.077z
			 M67.057,34.94h0.74l-0.372-0.857L67.057,34.94z"/>
		<path fill="#6B6B6E" d="M69.678,33.824l-0.66,1.159v0.604h-0.242v-0.595l-0.67-1.169h0.247l0.544,0.899l0.534-0.899H69.678z"/>
	</g>
	<g>
		<path fill="#6B6B6E" d="M81.159,35.588l-0.35-0.555c-0.041,0.004-0.073,0.005-0.099,0.005h-0.448v0.55h-0.242v-1.764h0.69
			c0.224,0,0.396,0.052,0.518,0.154c0.122,0.104,0.183,0.25,0.183,0.44c0,0.143-0.033,0.263-0.099,0.36
			c-0.066,0.097-0.162,0.168-0.286,0.211l0.41,0.598H81.159z M80.711,34.819c0.151,0,0.268-0.033,0.348-0.1
			c0.081-0.066,0.121-0.164,0.121-0.294c0-0.126-0.04-0.221-0.121-0.285c-0.08-0.065-0.196-0.098-0.348-0.098h-0.448v0.776H80.711z"
			/>
		<path fill="#6B6B6E" d="M83.024,35.588l-0.187-0.429h-0.93l-0.185,0.429H81.47l0.783-1.764h0.252l0.781,1.764H83.024z
			 M82.004,34.94h0.74l-0.372-0.857L82.004,34.94z"/>
		<path fill="#6B6B6E" d="M84.554,35.588l-0.35-0.555c-0.041,0.004-0.073,0.005-0.099,0.005h-0.448v0.55h-0.242v-1.764h0.69
			c0.224,0,0.396,0.052,0.518,0.154c0.122,0.104,0.183,0.25,0.183,0.44c0,0.143-0.033,0.263-0.099,0.36
			c-0.066,0.097-0.162,0.168-0.286,0.211l0.41,0.598H84.554z M84.105,34.819c0.151,0,0.268-0.033,0.348-0.1
			c0.081-0.066,0.121-0.164,0.121-0.294c0-0.126-0.04-0.221-0.121-0.285c-0.08-0.065-0.196-0.098-0.348-0.098h-0.448v0.776H84.105z"
			/>
		<path fill="#6B6B6E" d="M85.108,33.824h0.242v1.764h-0.242V33.824z"/>
		<path fill="#6B6B6E" d="M85.499,33.824h1.378v0.222h-0.569v1.542h-0.242v-1.542h-0.566V33.824z"/>
		<path fill="#6B6B6E" d="M88.168,35.588l-0.187-0.429h-0.93l-0.185,0.429h-0.254l0.783-1.764h0.252l0.781,1.764H88.168z
			 M87.147,34.94h0.74l-0.372-0.857L87.147,34.94z"/>
		<path fill="#6B6B6E" d="M89.813,33.824h0.239v1.764h-0.244l-1.008-1.366v1.366h-0.242v-1.764h0.244l1.011,1.368V33.824z"/>
		<path fill="#6B6B6E" d="M92.14,33.941c0.104,0.078,0.155,0.186,0.155,0.323c0,0.101-0.028,0.187-0.086,0.256
			c-0.057,0.07-0.135,0.116-0.234,0.14c0.123,0.019,0.219,0.068,0.289,0.147c0.069,0.08,0.104,0.18,0.104,0.299
			c0,0.151-0.057,0.27-0.17,0.354s-0.271,0.127-0.47,0.127h-0.767v-1.764h0.754C91.896,33.824,92.037,33.863,92.14,33.941z
			 M91.956,34.503c0.06-0.046,0.09-0.112,0.09-0.197c0-0.084-0.03-0.149-0.09-0.194c-0.06-0.046-0.144-0.067-0.253-0.065h-0.499
			v0.526h0.499C91.812,34.572,91.896,34.549,91.956,34.503z M92.011,35.292c0.073-0.052,0.11-0.123,0.11-0.216
			c0-0.089-0.037-0.158-0.11-0.209c-0.074-0.051-0.177-0.075-0.308-0.075h-0.499v0.574h0.499
			C91.834,35.368,91.937,35.343,92.011,35.292z"/>
		<path fill="#6B6B6E" d="M93.938,35.588l-0.187-0.429h-0.93l-0.185,0.429h-0.254l0.783-1.764h0.252l0.781,1.764H93.938z
			 M92.918,34.94h0.74l-0.372-0.857L92.918,34.94z"/>
		<path fill="#6B6B6E" d="M95.538,33.824l-0.66,1.159v0.604h-0.242v-0.595l-0.67-1.169h0.247l0.544,0.899l0.534-0.899H95.538z"/>
	</g>
</g>
<g>
	<defs>
		<circle id="SVGID_1_" cx="62.601" cy="18.263" r="9.45"/>
	</defs>
	<clipPath id="SVGID_2_">
		<use xlink:href="#SVGID_1_"  overflow="visible"/>
	</clipPath>
	<g clip-path="url(#SVGID_2_)">
		<defs>
			<rect id="SVGID_3_" x="-63.399" y="-77.654" width="226.8" height="141.75"/>
		</defs>
		<clipPath id="SVGID_4_">
			<use xlink:href="#SVGID_3_"  overflow="visible"/>
		</clipPath>
		<rect x="52.363" y="8.025" clip-path="url(#SVGID_4_)" fill="#3AB49A" width="20.475" height="20.475"/>
	</g>
</g>
<g>
	<defs>
		<circle id="SVGID_5_" cx="87.801" cy="18.263" r="11.025"/>
	</defs>
	<clipPath id="SVGID_6_">
		<use xlink:href="#SVGID_5_"  overflow="visible"/>
	</clipPath>
	<g clip-path="url(#SVGID_6_)">
		<defs>
			<rect id="SVGID_7_" x="-63.399" y="-77.654" width="226.8" height="141.75"/>
		</defs>
		<clipPath id="SVGID_8_">
			<use xlink:href="#SVGID_7_"  overflow="visible"/>
		</clipPath>
		<rect x="75.988" y="6.45" clip-path="url(#SVGID_8_)" fill="#3AB49A" width="23.625" height="23.625"/>
	</g>
</g>
<g>
	<defs>
		<circle id="SVGID_9_" cx="35.825" cy="18.263" r="12.6"/>
	</defs>
	<clipPath id="SVGID_10_">
		<use xlink:href="#SVGID_9_"  overflow="visible"/>
	</clipPath>
	<g clip-path="url(#SVGID_10_)">
		<defs>
			<rect id="SVGID_11_" x="-63.399" y="-77.654" width="226.8" height="141.75"/>
		</defs>
		<clipPath id="SVGID_12_">
			<use xlink:href="#SVGID_11_"  overflow="visible"/>
		</clipPath>
		<rect x="22.438" y="4.875" clip-path="url(#SVGID_12_)" fill="#009777" width="26.775" height="26.775"/>
	</g>
</g>
<g>
	<defs>
		<circle id="SVGID_13_" cx="9.838" cy="18.263" r="8.663"/>
	</defs>
	<clipPath id="SVGID_14_">
		<use xlink:href="#SVGID_13_"  overflow="visible"/>
	</clipPath>
	<g clip-path="url(#SVGID_14_)">
		<defs>
			<rect id="SVGID_15_" x="-63.399" y="-77.654" width="226.8" height="141.75"/>
		</defs>
		<clipPath id="SVGID_16_">
			<use xlink:href="#SVGID_15_"  overflow="visible"/>
		</clipPath>
		<rect x="0.388" y="8.812" clip-path="url(#SVGID_16_)" fill="#52CCB2" width="18.9" height="18.9"/>
	</g>
</g>
<g>
	<g>
		<path fill="#FFFFFF" d="M3.475,21.547c0.007-0.039,0.022-0.074,0.047-0.104c0.024-0.03,0.054-0.057,0.088-0.078
			c0.035-0.023,0.073-0.041,0.115-0.057s0.084-0.027,0.126-0.037c0.042-0.008,0.083-0.016,0.123-0.02
			c0.04-0.004,0.074-0.006,0.104-0.006v-0.035c0-0.049-0.005-0.089-0.016-0.12c-0.011-0.031-0.026-0.055-0.045-0.073
			s-0.043-0.03-0.07-0.036c-0.027-0.006-0.058-0.009-0.091-0.009c-0.031,0-0.061,0.003-0.09,0.008
			C3.737,20.986,3.709,20.992,3.684,21c-0.025,0.007-0.048,0.016-0.069,0.024c-0.021,0.009-0.038,0.017-0.051,0.025l-0.05-0.118
			c0.016-0.013,0.038-0.026,0.067-0.04c0.029-0.014,0.062-0.025,0.1-0.037c0.038-0.011,0.079-0.02,0.124-0.026
			s0.091-0.01,0.139-0.01c0.057,0,0.109,0.005,0.158,0.016c0.049,0.011,0.091,0.03,0.127,0.058c0.036,0.027,0.064,0.064,0.084,0.111
			c0.021,0.047,0.031,0.106,0.031,0.18l-0.001,0.596h0.12v0.082c-0.014,0.009-0.029,0.016-0.046,0.022
			c-0.018,0.006-0.036,0.011-0.054,0.015c-0.019,0.004-0.038,0.007-0.058,0.008c-0.019,0.002-0.038,0.003-0.055,0.003
			c-0.012,0-0.026-0.001-0.042-0.004c-0.016-0.002-0.032-0.007-0.046-0.014c-0.015-0.007-0.028-0.018-0.038-0.032
			c-0.011-0.014-0.016-0.032-0.016-0.056v-0.009c-0.031,0.032-0.071,0.059-0.117,0.081c-0.046,0.021-0.103,0.033-0.169,0.033
			c-0.067,0-0.124-0.01-0.172-0.03c-0.048-0.02-0.086-0.047-0.115-0.08s-0.048-0.072-0.058-0.115
			C3.467,21.641,3.466,21.595,3.475,21.547z M3.735,21.58c0,0.066,0.018,0.113,0.054,0.141c0.036,0.028,0.087,0.039,0.155,0.035
			c0.026-0.003,0.051-0.01,0.073-0.022c0.022-0.012,0.042-0.024,0.06-0.04c0-0.054,0-0.108,0-0.162c0-0.055,0-0.108,0-0.163
			c-0.022,0-0.046,0.001-0.072,0.004c-0.026,0.003-0.052,0.007-0.077,0.013s-0.05,0.015-0.073,0.025
			c-0.023,0.011-0.044,0.023-0.062,0.039s-0.032,0.034-0.043,0.056C3.741,21.525,3.735,21.551,3.735,21.58z"/>
		<path fill="#FFFFFF" d="M4.57,21.391c-0.001-0.088,0.013-0.167,0.042-0.237c0.028-0.07,0.067-0.13,0.116-0.179
			s0.107-0.087,0.174-0.114c0.067-0.027,0.139-0.042,0.215-0.045c0.029,0,0.06,0,0.09,0.002c0.031,0.002,0.061,0.005,0.089,0.009
			c0.028,0.004,0.054,0.009,0.077,0.016c0.023,0.006,0.042,0.013,0.055,0.021v0.265H5.294l-0.062-0.151
			c-0.019-0.012-0.041-0.021-0.066-0.025s-0.048-0.007-0.07-0.007c-0.036,0-0.069,0.008-0.1,0.023
			c-0.031,0.016-0.058,0.038-0.081,0.068s-0.042,0.067-0.055,0.113c-0.014,0.045-0.021,0.096-0.022,0.154
			c-0.002,0.08,0.006,0.147,0.023,0.203c0.018,0.057,0.042,0.104,0.072,0.139c0.03,0.036,0.064,0.062,0.104,0.079
			s0.079,0.025,0.119,0.025c0.026,0,0.052-0.002,0.079-0.005c0.026-0.004,0.051-0.008,0.075-0.014
			c0.023-0.006,0.045-0.012,0.063-0.02c0.019-0.008,0.035-0.016,0.047-0.024l0.042,0.103c-0.021,0.019-0.047,0.035-0.077,0.051
			c-0.029,0.014-0.062,0.027-0.096,0.037S5.218,21.895,5.178,21.9c-0.04,0.005-0.08,0.008-0.122,0.008
			c-0.078,0-0.147-0.014-0.208-0.039c-0.06-0.026-0.111-0.062-0.152-0.107c-0.041-0.047-0.072-0.102-0.094-0.164
			C4.582,21.534,4.571,21.465,4.57,21.391z"/>
		<path fill="#FFFFFF" d="M5.589,21.391c-0.001-0.088,0.013-0.167,0.042-0.237c0.028-0.07,0.067-0.13,0.116-0.179
			s0.107-0.087,0.174-0.114c0.067-0.027,0.139-0.042,0.215-0.045c0.029,0,0.06,0,0.09,0.002c0.031,0.002,0.061,0.005,0.089,0.009
			c0.028,0.004,0.054,0.009,0.077,0.016c0.023,0.006,0.042,0.013,0.055,0.021v0.265H6.312L6.25,20.976
			c-0.019-0.012-0.041-0.021-0.066-0.025s-0.048-0.007-0.07-0.007c-0.036,0-0.069,0.008-0.1,0.023
			c-0.031,0.016-0.058,0.038-0.081,0.068s-0.042,0.067-0.055,0.113c-0.014,0.045-0.021,0.096-0.022,0.154
			c-0.002,0.08,0.006,0.147,0.023,0.203c0.018,0.057,0.042,0.104,0.072,0.139c0.03,0.036,0.064,0.062,0.104,0.079
			s0.079,0.025,0.119,0.025c0.026,0,0.052-0.002,0.079-0.005c0.026-0.004,0.051-0.008,0.075-0.014
			c0.023-0.006,0.045-0.012,0.063-0.02c0.019-0.008,0.035-0.016,0.047-0.024l0.042,0.103c-0.021,0.019-0.047,0.035-0.077,0.051
			c-0.029,0.014-0.062,0.027-0.096,0.037S6.236,21.895,6.197,21.9c-0.04,0.005-0.08,0.008-0.122,0.008
			c-0.078,0-0.147-0.014-0.208-0.039c-0.06-0.026-0.111-0.062-0.152-0.107c-0.041-0.047-0.072-0.102-0.094-0.164
			C5.601,21.534,5.589,21.465,5.589,21.391z"/>
		<path fill="#FFFFFF" d="M6.605,21.381c0-0.08,0.013-0.154,0.038-0.223c0.025-0.069,0.062-0.129,0.109-0.179
			c0.047-0.051,0.105-0.091,0.172-0.12c0.067-0.029,0.143-0.044,0.227-0.045c0.066,0,0.124,0.008,0.174,0.027
			c0.05,0.018,0.091,0.044,0.124,0.078s0.059,0.075,0.076,0.123c0.017,0.048,0.027,0.102,0.03,0.16c0.001,0.039,0,0.074-0.003,0.104
			s-0.006,0.057-0.009,0.08H6.876c0,0.002,0,0.004,0,0.006c0,0.001,0,0.002,0,0.004c0.004,0.064,0.015,0.118,0.032,0.162
			c0.018,0.045,0.041,0.082,0.07,0.109c0.029,0.029,0.062,0.049,0.1,0.062s0.078,0.02,0.121,0.02c0.023,0,0.047-0.002,0.073-0.004
			c0.026-0.002,0.051-0.006,0.077-0.012c0.025-0.004,0.049-0.011,0.073-0.018c0.024-0.008,0.045-0.017,0.065-0.026l0.042,0.101
			c-0.021,0.018-0.047,0.035-0.079,0.05c-0.031,0.015-0.066,0.028-0.103,0.038c-0.037,0.011-0.077,0.019-0.118,0.024
			c-0.042,0.006-0.083,0.008-0.124,0.008c-0.08-0.001-0.151-0.014-0.213-0.038c-0.062-0.025-0.115-0.061-0.158-0.105
			c-0.043-0.045-0.075-0.1-0.097-0.165S6.605,21.463,6.605,21.381z M7.291,21.253c0.001-0.026,0.003-0.054,0.003-0.083
			s-0.001-0.057-0.005-0.083c-0.004-0.027-0.012-0.051-0.022-0.074c-0.011-0.022-0.027-0.041-0.048-0.055
			c-0.013-0.009-0.028-0.016-0.046-0.021c-0.017-0.005-0.037-0.007-0.06-0.007c-0.037,0-0.068,0.008-0.096,0.025
			c-0.027,0.017-0.051,0.04-0.07,0.069c-0.019,0.029-0.035,0.063-0.046,0.103c-0.012,0.039-0.019,0.082-0.023,0.126H7.291z"/>
		<path fill="#FFFFFF" d="M7.762,21.594h0.123l0.049,0.107c0.011,0.011,0.023,0.021,0.036,0.031c0.012,0.01,0.026,0.02,0.041,0.028
			c0.015,0.009,0.031,0.015,0.05,0.021c0.018,0.007,0.039,0.01,0.061,0.012c0.062,0.003,0.111-0.008,0.146-0.033
			c0.035-0.024,0.053-0.061,0.053-0.109c0-0.021-0.007-0.041-0.021-0.059c-0.014-0.017-0.033-0.033-0.056-0.048
			s-0.05-0.029-0.081-0.043c-0.03-0.015-0.062-0.028-0.094-0.044c-0.041-0.019-0.081-0.039-0.118-0.061
			c-0.038-0.023-0.071-0.048-0.101-0.076c-0.029-0.027-0.052-0.059-0.069-0.094c-0.017-0.036-0.025-0.076-0.025-0.123
			c0.001-0.035,0.007-0.066,0.02-0.093c0.013-0.028,0.03-0.052,0.051-0.074s0.045-0.04,0.073-0.055
			c0.027-0.016,0.057-0.028,0.087-0.038c0.03-0.01,0.062-0.017,0.093-0.022c0.031-0.005,0.062-0.008,0.09-0.009
			c0.034,0,0.067,0.001,0.099,0.004c0.033,0.003,0.064,0.007,0.093,0.013c0.029,0.005,0.057,0.012,0.081,0.019
			c0.024,0.007,0.045,0.014,0.062,0.022v0.23H8.377L8.33,20.991c-0.017-0.019-0.037-0.035-0.062-0.049
			c-0.024-0.014-0.053-0.021-0.086-0.021c-0.022,0-0.043,0.002-0.063,0.006c-0.021,0.004-0.038,0.011-0.054,0.021
			s-0.028,0.021-0.037,0.036c-0.009,0.015-0.014,0.032-0.014,0.053c0,0.023,0.005,0.045,0.016,0.063
			c0.011,0.019,0.026,0.036,0.045,0.052c0.019,0.017,0.041,0.031,0.066,0.045s0.052,0.027,0.08,0.041
			c0.041,0.019,0.082,0.037,0.123,0.057s0.079,0.041,0.112,0.067c0.034,0.026,0.061,0.056,0.083,0.091s0.032,0.078,0.032,0.127
			c0,0.057-0.012,0.106-0.037,0.148c-0.024,0.041-0.057,0.074-0.099,0.102c-0.042,0.025-0.09,0.045-0.146,0.058
			s-0.115,0.02-0.177,0.02c-0.029,0-0.06-0.002-0.091-0.005c-0.031-0.004-0.062-0.009-0.093-0.016
			C7.9,21.881,7.87,21.872,7.841,21.861c-0.029-0.01-0.056-0.021-0.08-0.036V21.594z"/>
		<path fill="#FFFFFF" d="M8.762,21.594h0.123l0.049,0.107c0.011,0.011,0.023,0.021,0.036,0.031c0.012,0.01,0.026,0.02,0.041,0.028
			c0.015,0.009,0.031,0.015,0.05,0.021c0.018,0.007,0.039,0.01,0.061,0.012c0.062,0.003,0.111-0.008,0.146-0.033
			c0.035-0.024,0.053-0.061,0.053-0.109c0-0.021-0.007-0.041-0.021-0.059c-0.014-0.017-0.033-0.033-0.056-0.048
			s-0.05-0.029-0.081-0.043c-0.03-0.015-0.062-0.028-0.094-0.044c-0.041-0.019-0.081-0.039-0.118-0.061
			c-0.038-0.023-0.071-0.048-0.101-0.076c-0.029-0.027-0.052-0.059-0.069-0.094c-0.017-0.036-0.025-0.076-0.025-0.123
			c0.001-0.035,0.007-0.066,0.02-0.093c0.013-0.028,0.03-0.052,0.051-0.074s0.045-0.04,0.073-0.055
			c0.027-0.016,0.057-0.028,0.087-0.038c0.03-0.01,0.062-0.017,0.093-0.022c0.031-0.005,0.062-0.008,0.09-0.009
			c0.034,0,0.067,0.001,0.099,0.004c0.033,0.003,0.064,0.007,0.093,0.013c0.029,0.005,0.057,0.012,0.081,0.019
			c0.024,0.007,0.045,0.014,0.062,0.022v0.23H9.378l-0.047-0.111c-0.017-0.019-0.037-0.035-0.062-0.049
			c-0.024-0.014-0.053-0.021-0.086-0.021c-0.022,0-0.043,0.002-0.063,0.006c-0.021,0.004-0.038,0.011-0.054,0.021
			s-0.028,0.021-0.037,0.036c-0.009,0.015-0.014,0.032-0.014,0.053c0,0.023,0.005,0.045,0.016,0.063
			c0.011,0.019,0.026,0.036,0.045,0.052c0.019,0.017,0.041,0.031,0.066,0.045s0.052,0.027,0.08,0.041
			c0.041,0.019,0.082,0.037,0.123,0.057s0.079,0.041,0.112,0.067c0.034,0.026,0.061,0.056,0.083,0.091s0.032,0.078,0.032,0.127
			c0,0.057-0.012,0.106-0.037,0.148c-0.024,0.041-0.057,0.074-0.099,0.102c-0.042,0.025-0.09,0.045-0.146,0.058
			s-0.115,0.02-0.177,0.02c-0.029,0-0.06-0.002-0.091-0.005c-0.031-0.004-0.062-0.009-0.093-0.016
			c-0.031-0.006-0.061-0.015-0.089-0.025c-0.029-0.01-0.056-0.021-0.08-0.036V21.594z"/>
		<path fill="#FFFFFF" d="M10.356,22.229v-1.148L10.227,21v-0.091l0.302-0.09l0.056,0.019v0.115c0.007-0.011,0.02-0.024,0.038-0.04
			c0.018-0.015,0.04-0.03,0.066-0.045c0.027-0.015,0.058-0.027,0.093-0.038c0.035-0.011,0.074-0.016,0.116-0.016
			c0.054,0,0.106,0.009,0.156,0.027c0.05,0.018,0.094,0.047,0.133,0.087c0.039,0.041,0.069,0.094,0.092,0.16
			c0.023,0.065,0.035,0.147,0.035,0.244c0,0.078-0.014,0.152-0.042,0.222c-0.028,0.07-0.066,0.131-0.116,0.184
			s-0.109,0.094-0.177,0.125c-0.069,0.03-0.143,0.046-0.224,0.046c-0.028,0-0.055-0.002-0.08-0.007
			c-0.025-0.004-0.047-0.009-0.065-0.013l0.009,0.195v0.146l0.192,0.023v0.107h-0.581v-0.107L10.356,22.229z M10.618,21.699
			c0.006,0.012,0.015,0.021,0.026,0.031c0.012,0.008,0.025,0.016,0.041,0.021c0.016,0.007,0.033,0.012,0.052,0.016
			c0.019,0.003,0.039,0.004,0.059,0.004c0.029,0,0.058-0.006,0.088-0.02c0.03-0.012,0.058-0.035,0.083-0.066
			s0.045-0.072,0.061-0.123c0.016-0.051,0.024-0.115,0.024-0.191c0.001-0.08-0.007-0.146-0.023-0.199
			c-0.017-0.053-0.038-0.095-0.063-0.126s-0.054-0.053-0.085-0.065c-0.031-0.013-0.062-0.019-0.092-0.019
			c-0.022,0-0.042,0.003-0.06,0.009c-0.018,0.005-0.034,0.012-0.048,0.021c-0.014,0.008-0.027,0.017-0.038,0.025
			c-0.011,0.009-0.02,0.017-0.027,0.024l0.001,0.352V21.699z"/>
		<path fill="#FFFFFF" d="M11.475,21.354c0.001-0.09,0.017-0.169,0.047-0.236c0.03-0.068,0.07-0.124,0.119-0.168
			c0.049-0.045,0.106-0.079,0.17-0.101c0.064-0.022,0.131-0.035,0.2-0.036c0.082-0.001,0.153,0.011,0.216,0.035
			c0.063,0.024,0.116,0.06,0.158,0.105c0.043,0.046,0.075,0.102,0.098,0.167c0.022,0.065,0.033,0.139,0.033,0.221
			c0,0.092-0.015,0.172-0.043,0.242c-0.029,0.07-0.067,0.129-0.116,0.178c-0.048,0.047-0.104,0.084-0.168,0.108
			c-0.063,0.024-0.131,0.037-0.202,0.037c-0.093,0-0.172-0.015-0.238-0.044s-0.119-0.07-0.16-0.121s-0.07-0.109-0.089-0.176
			C11.482,21.5,11.473,21.429,11.475,21.354z M11.996,21.785c0.047,0,0.086-0.011,0.117-0.033c0.031-0.023,0.056-0.055,0.074-0.094
			c0.018-0.039,0.03-0.084,0.038-0.137c0.007-0.053,0.011-0.108,0.011-0.167c0-0.052-0.004-0.104-0.011-0.153
			c-0.007-0.051-0.02-0.096-0.038-0.135c-0.018-0.04-0.042-0.072-0.072-0.096s-0.067-0.037-0.112-0.038
			c-0.048-0.001-0.087,0.01-0.119,0.031c-0.031,0.022-0.057,0.051-0.076,0.088c-0.019,0.037-0.033,0.08-0.041,0.128
			c-0.008,0.05-0.012,0.102-0.012,0.156c0,0.032,0.002,0.065,0.005,0.1c0.003,0.035,0.009,0.069,0.017,0.103
			c0.008,0.033,0.018,0.065,0.031,0.095c0.012,0.029,0.027,0.056,0.045,0.078c0.018,0.023,0.039,0.041,0.062,0.055
			C11.939,21.778,11.966,21.785,11.996,21.785z"/>
		<path fill="#FFFFFF" d="M12.68,21.779l0.14-0.025v-0.656l-0.123-0.105v-0.074l0.321-0.1l0.062,0.021v0.916l0.141,0.023v0.105
			H12.68V21.779z M12.917,20.631c-0.021,0-0.04-0.003-0.06-0.01c-0.019-0.007-0.036-0.017-0.051-0.029
			c-0.015-0.013-0.027-0.028-0.036-0.046c-0.009-0.019-0.014-0.039-0.014-0.062c0-0.025,0.006-0.049,0.017-0.071
			c0.011-0.021,0.026-0.041,0.044-0.056c0.019-0.016,0.039-0.028,0.062-0.037c0.022-0.009,0.045-0.014,0.067-0.014
			c0.028,0,0.052,0.004,0.072,0.012c0.02,0.008,0.036,0.019,0.049,0.032c0.013,0.014,0.022,0.029,0.029,0.048
			c0.006,0.018,0.009,0.038,0.009,0.058c0,0.026-0.005,0.051-0.016,0.072c-0.011,0.022-0.025,0.041-0.043,0.056
			s-0.038,0.027-0.061,0.035C12.964,20.627,12.94,20.631,12.917,20.631z"/>
		<path fill="#FFFFFF" d="M13.37,21.779l0.121-0.021v-0.676L13.362,21v-0.091l0.302-0.09l0.058,0.019v0.135
			c0.023-0.021,0.049-0.041,0.079-0.06c0.03-0.019,0.062-0.035,0.096-0.048s0.068-0.024,0.104-0.032
			c0.036-0.008,0.07-0.013,0.104-0.013c0.058,0,0.107,0.008,0.146,0.025c0.04,0.018,0.071,0.044,0.095,0.08s0.041,0.081,0.051,0.134
			s0.015,0.116,0.015,0.188v0.51l0.139,0.023v0.105h-0.539v-0.105l0.136-0.025v-0.471c0-0.053-0.002-0.098-0.007-0.134
			s-0.015-0.066-0.029-0.089c-0.015-0.022-0.035-0.039-0.061-0.048c-0.026-0.009-0.061-0.014-0.103-0.013
			c-0.012,0-0.026,0.002-0.042,0.005s-0.032,0.007-0.05,0.013s-0.035,0.012-0.052,0.021c-0.017,0.008-0.033,0.017-0.048,0.028v0.691
			l0.125,0.023v0.105h-0.51V21.779z"/>
		<path fill="#FFFFFF" d="M14.801,20.989H14.66v-0.09c0.021-0.004,0.04-0.009,0.057-0.013s0.032-0.009,0.045-0.014
			c0.014-0.005,0.026-0.012,0.037-0.019c0.011-0.008,0.021-0.018,0.029-0.03c0.007-0.01,0.015-0.022,0.023-0.04
			c0.009-0.017,0.017-0.035,0.025-0.056s0.017-0.042,0.024-0.065c0.008-0.023,0.015-0.046,0.021-0.068h0.128v0.248h0.315v0.146
			h-0.307v0.396c0,0.078,0.001,0.141,0.004,0.188s0.008,0.084,0.017,0.109s0.02,0.041,0.034,0.05
			c0.014,0.008,0.033,0.012,0.057,0.012c0.014,0,0.029-0.001,0.046-0.003c0.017-0.002,0.034-0.005,0.05-0.008
			c0.016-0.004,0.031-0.008,0.045-0.013c0.014-0.005,0.025-0.01,0.033-0.015l0.04,0.096c-0.014,0.016-0.034,0.029-0.059,0.043
			c-0.024,0.014-0.052,0.024-0.083,0.033c-0.031,0.01-0.063,0.017-0.097,0.022c-0.034,0.005-0.067,0.008-0.1,0.008
			c-0.045,0-0.083-0.006-0.115-0.019c-0.031-0.012-0.056-0.03-0.075-0.056c-0.019-0.024-0.033-0.058-0.042-0.097
			s-0.013-0.085-0.013-0.139V20.989z"/>
		<path fill="#FFFFFF" d="M15.555,21.594h0.123l0.049,0.107c0.011,0.011,0.023,0.021,0.036,0.031c0.012,0.01,0.026,0.02,0.041,0.028
			c0.015,0.009,0.031,0.015,0.05,0.021c0.018,0.007,0.039,0.01,0.061,0.012c0.062,0.003,0.111-0.008,0.146-0.033
			c0.035-0.024,0.053-0.061,0.053-0.109c0-0.021-0.007-0.041-0.021-0.059c-0.014-0.017-0.033-0.033-0.056-0.048
			s-0.05-0.029-0.081-0.043c-0.03-0.015-0.062-0.028-0.094-0.044c-0.041-0.019-0.081-0.039-0.118-0.061
			c-0.038-0.023-0.071-0.048-0.101-0.076c-0.029-0.027-0.052-0.059-0.069-0.094c-0.017-0.036-0.025-0.076-0.025-0.123
			c0.001-0.035,0.007-0.066,0.02-0.093c0.013-0.028,0.03-0.052,0.051-0.074s0.045-0.04,0.073-0.055
			c0.027-0.016,0.057-0.028,0.087-0.038c0.03-0.01,0.062-0.017,0.093-0.022c0.031-0.005,0.062-0.008,0.09-0.009
			c0.034,0,0.067,0.001,0.099,0.004c0.033,0.003,0.064,0.007,0.093,0.013c0.029,0.005,0.057,0.012,0.081,0.019
			c0.024,0.007,0.045,0.014,0.062,0.022v0.23h-0.127l-0.047-0.111c-0.017-0.019-0.037-0.035-0.062-0.049
			c-0.024-0.014-0.053-0.021-0.086-0.021c-0.022,0-0.043,0.002-0.063,0.006c-0.021,0.004-0.038,0.011-0.054,0.021
			s-0.028,0.021-0.037,0.036c-0.009,0.015-0.014,0.032-0.014,0.053c0,0.023,0.005,0.045,0.016,0.063
			c0.011,0.019,0.026,0.036,0.045,0.052c0.019,0.017,0.041,0.031,0.066,0.045s0.052,0.027,0.08,0.041
			c0.041,0.019,0.082,0.037,0.123,0.057s0.079,0.041,0.112,0.067c0.034,0.026,0.061,0.056,0.083,0.091s0.032,0.078,0.032,0.127
			c0,0.057-0.012,0.106-0.037,0.148c-0.024,0.041-0.057,0.074-0.099,0.102c-0.042,0.025-0.09,0.045-0.146,0.058
			s-0.115,0.02-0.177,0.02c-0.029,0-0.06-0.002-0.091-0.005c-0.031-0.004-0.062-0.009-0.093-0.016
			c-0.031-0.006-0.061-0.015-0.089-0.025c-0.029-0.01-0.056-0.021-0.08-0.036V21.594z"/>
	</g>
	<g>
		<path fill="#FFFFFF" d="M7.045,13.57h1.767v4.851H8.147v-4.248H7.045V13.57z"/>
		<path fill="#FFFFFF" d="M12.478,16.009c0.286,0.227,0.43,0.531,0.43,0.915c0,0.301-0.078,0.566-0.232,0.797
			s-0.374,0.411-0.658,0.541s-0.616,0.194-0.995,0.194c-0.305,0-0.611-0.046-0.918-0.139s-0.572-0.215-0.793-0.367l0.284-0.541
			c0.194,0.152,0.411,0.27,0.651,0.354c0.24,0.083,0.485,0.125,0.734,0.125c0.397,0,0.709-0.085,0.936-0.256
			c0.227-0.171,0.34-0.399,0.34-0.686s-0.113-0.505-0.34-0.655c-0.226-0.15-0.545-0.225-0.956-0.225h-0.666v-0.423l1.49-1.469H9.546
			L9.54,13.57h3.119v0.423l-1.628,1.615l0.291,0.021C11.806,15.656,12.191,15.783,12.478,16.009z"/>
	</g>
	<g>
		<path fill="#FFFFFF" d="M29.304,21.547c0.007-0.039,0.022-0.074,0.047-0.104c0.024-0.03,0.054-0.057,0.088-0.078
			c0.035-0.023,0.073-0.041,0.115-0.057s0.084-0.027,0.126-0.037c0.042-0.008,0.083-0.016,0.123-0.02
			c0.04-0.004,0.074-0.006,0.104-0.006v-0.035c0-0.049-0.005-0.089-0.016-0.12c-0.011-0.031-0.026-0.055-0.045-0.073
			s-0.043-0.03-0.07-0.036c-0.027-0.006-0.058-0.009-0.091-0.009c-0.031,0-0.061,0.003-0.09,0.008
			c-0.029,0.005-0.057,0.011-0.082,0.019c-0.025,0.007-0.048,0.016-0.069,0.024c-0.021,0.009-0.038,0.017-0.051,0.025l-0.05-0.118
			c0.016-0.013,0.038-0.026,0.067-0.04c0.029-0.014,0.062-0.025,0.1-0.037c0.038-0.011,0.079-0.02,0.124-0.026
			s0.091-0.01,0.139-0.01c0.057,0,0.109,0.005,0.158,0.016c0.049,0.011,0.091,0.03,0.127,0.058c0.036,0.027,0.064,0.064,0.084,0.111
			c0.021,0.047,0.031,0.106,0.031,0.18l-0.001,0.596h0.12v0.082c-0.014,0.009-0.029,0.016-0.046,0.022
			c-0.018,0.006-0.036,0.011-0.054,0.015c-0.019,0.004-0.038,0.007-0.058,0.008c-0.019,0.002-0.038,0.003-0.055,0.003
			c-0.012,0-0.026-0.001-0.042-0.004c-0.016-0.002-0.032-0.007-0.046-0.014c-0.015-0.007-0.028-0.018-0.038-0.032
			c-0.011-0.014-0.016-0.032-0.016-0.056v-0.009c-0.031,0.032-0.071,0.059-0.117,0.081c-0.046,0.021-0.103,0.033-0.169,0.033
			c-0.067,0-0.124-0.01-0.172-0.03c-0.048-0.02-0.086-0.047-0.115-0.08s-0.048-0.072-0.058-0.115
			C29.296,21.641,29.296,21.595,29.304,21.547z M29.565,21.58c0,0.066,0.018,0.113,0.054,0.141c0.036,0.028,0.087,0.039,0.155,0.035
			c0.026-0.003,0.051-0.01,0.073-0.022c0.022-0.012,0.042-0.024,0.06-0.04c0-0.054,0-0.108,0-0.162c0-0.055,0-0.108,0-0.163
			c-0.022,0-0.046,0.001-0.072,0.004c-0.026,0.003-0.052,0.007-0.077,0.013s-0.05,0.015-0.073,0.025
			c-0.023,0.011-0.044,0.023-0.062,0.039s-0.032,0.034-0.043,0.056C29.57,21.525,29.565,21.551,29.565,21.58z"/>
		<path fill="#FFFFFF" d="M30.4,21.391c-0.001-0.088,0.013-0.167,0.042-0.237c0.028-0.07,0.067-0.13,0.116-0.179
			s0.107-0.087,0.174-0.114c0.067-0.027,0.139-0.042,0.215-0.045c0.029,0,0.06,0,0.09,0.002c0.031,0.002,0.061,0.005,0.089,0.009
			c0.028,0.004,0.054,0.009,0.077,0.016c0.023,0.006,0.042,0.013,0.055,0.021v0.265h-0.134l-0.062-0.151
			c-0.019-0.012-0.041-0.021-0.066-0.025s-0.048-0.007-0.07-0.007c-0.036,0-0.069,0.008-0.1,0.023
			c-0.031,0.016-0.058,0.038-0.081,0.068s-0.042,0.067-0.055,0.113c-0.014,0.045-0.021,0.096-0.022,0.154
			c-0.002,0.08,0.006,0.147,0.023,0.203c0.018,0.057,0.042,0.104,0.072,0.139c0.03,0.036,0.064,0.062,0.104,0.079
			s0.079,0.025,0.119,0.025c0.026,0,0.052-0.002,0.079-0.005c0.026-0.004,0.051-0.008,0.075-0.014
			c0.023-0.006,0.045-0.012,0.063-0.02c0.019-0.008,0.035-0.016,0.047-0.024l0.042,0.103c-0.021,0.019-0.047,0.035-0.077,0.051
			c-0.029,0.014-0.062,0.027-0.096,0.037s-0.072,0.018-0.111,0.023c-0.04,0.005-0.08,0.008-0.122,0.008
			c-0.078,0-0.147-0.014-0.208-0.039c-0.06-0.026-0.111-0.062-0.152-0.107c-0.041-0.047-0.072-0.102-0.094-0.164
			C30.412,21.534,30.4,21.465,30.4,21.391z"/>
		<path fill="#FFFFFF" d="M31.419,21.391c-0.001-0.088,0.013-0.167,0.042-0.237c0.028-0.07,0.067-0.13,0.116-0.179
			s0.107-0.087,0.174-0.114c0.067-0.027,0.139-0.042,0.215-0.045c0.029,0,0.06,0,0.09,0.002c0.031,0.002,0.061,0.005,0.089,0.009
			c0.028,0.004,0.054,0.009,0.077,0.016c0.023,0.006,0.042,0.013,0.055,0.021v0.265h-0.134l-0.062-0.151
			c-0.019-0.012-0.041-0.021-0.066-0.025s-0.048-0.007-0.07-0.007c-0.036,0-0.069,0.008-0.1,0.023
			c-0.031,0.016-0.058,0.038-0.081,0.068s-0.042,0.067-0.055,0.113c-0.014,0.045-0.021,0.096-0.022,0.154
			c-0.002,0.08,0.006,0.147,0.023,0.203c0.018,0.057,0.042,0.104,0.072,0.139c0.03,0.036,0.064,0.062,0.104,0.079
			s0.079,0.025,0.119,0.025c0.026,0,0.052-0.002,0.079-0.005c0.026-0.004,0.051-0.008,0.075-0.014
			c0.023-0.006,0.045-0.012,0.063-0.02c0.019-0.008,0.035-0.016,0.047-0.024l0.042,0.103c-0.021,0.019-0.047,0.035-0.077,0.051
			c-0.029,0.014-0.062,0.027-0.096,0.037s-0.072,0.018-0.111,0.023c-0.04,0.005-0.08,0.008-0.122,0.008
			c-0.078,0-0.147-0.014-0.208-0.039c-0.06-0.026-0.111-0.062-0.152-0.107c-0.041-0.047-0.072-0.102-0.094-0.164
			C31.431,21.534,31.419,21.465,31.419,21.391z"/>
		<path fill="#FFFFFF" d="M32.435,21.381c0-0.08,0.013-0.154,0.038-0.223c0.025-0.069,0.062-0.129,0.109-0.179
			c0.047-0.051,0.105-0.091,0.172-0.12c0.067-0.029,0.143-0.044,0.227-0.045c0.066,0,0.124,0.008,0.174,0.027
			c0.05,0.018,0.091,0.044,0.124,0.078s0.059,0.075,0.076,0.123c0.017,0.048,0.027,0.102,0.03,0.16c0.001,0.039,0,0.074-0.003,0.104
			s-0.006,0.057-0.009,0.08h-0.667c0,0.002,0,0.004,0,0.006c0,0.001,0,0.002,0,0.004c0.004,0.064,0.015,0.118,0.032,0.162
			c0.018,0.045,0.041,0.082,0.07,0.109c0.029,0.029,0.062,0.049,0.1,0.062s0.078,0.02,0.121,0.02c0.023,0,0.047-0.002,0.073-0.004
			c0.026-0.002,0.051-0.006,0.077-0.012c0.025-0.004,0.049-0.011,0.073-0.018c0.024-0.008,0.045-0.017,0.065-0.026l0.042,0.101
			c-0.021,0.018-0.047,0.035-0.079,0.05c-0.031,0.015-0.066,0.028-0.103,0.038c-0.037,0.011-0.077,0.019-0.118,0.024
			c-0.042,0.006-0.083,0.008-0.124,0.008c-0.08-0.001-0.151-0.014-0.213-0.038c-0.062-0.025-0.115-0.061-0.158-0.105
			c-0.043-0.045-0.075-0.1-0.097-0.165S32.435,21.463,32.435,21.381z M33.121,21.253c0.001-0.026,0.003-0.054,0.003-0.083
			s-0.001-0.057-0.005-0.083c-0.004-0.027-0.012-0.051-0.022-0.074c-0.011-0.022-0.027-0.041-0.048-0.055
			c-0.013-0.009-0.028-0.016-0.046-0.021c-0.017-0.005-0.037-0.007-0.06-0.007c-0.037,0-0.068,0.008-0.096,0.025
			c-0.027,0.017-0.051,0.04-0.07,0.069c-0.019,0.029-0.035,0.063-0.046,0.103c-0.012,0.039-0.019,0.082-0.023,0.126H33.121z"/>
		<path fill="#FFFFFF" d="M33.591,21.594h0.123l0.049,0.107c0.011,0.011,0.023,0.021,0.036,0.031c0.012,0.01,0.026,0.02,0.041,0.028
			c0.015,0.009,0.031,0.015,0.05,0.021c0.018,0.007,0.039,0.01,0.061,0.012c0.062,0.003,0.111-0.008,0.146-0.033
			c0.035-0.024,0.053-0.061,0.053-0.109c0-0.021-0.007-0.041-0.021-0.059c-0.014-0.017-0.033-0.033-0.056-0.048
			s-0.05-0.029-0.081-0.043c-0.03-0.015-0.062-0.028-0.094-0.044c-0.041-0.019-0.081-0.039-0.118-0.061
			c-0.038-0.023-0.071-0.048-0.101-0.076c-0.029-0.027-0.052-0.059-0.069-0.094c-0.017-0.036-0.025-0.076-0.025-0.123
			c0.001-0.035,0.007-0.066,0.02-0.093c0.013-0.028,0.03-0.052,0.051-0.074s0.045-0.04,0.073-0.055
			c0.027-0.016,0.057-0.028,0.087-0.038c0.03-0.01,0.062-0.017,0.093-0.022c0.031-0.005,0.062-0.008,0.09-0.009
			c0.034,0,0.067,0.001,0.099,0.004c0.033,0.003,0.064,0.007,0.093,0.013c0.029,0.005,0.057,0.012,0.081,0.019
			c0.024,0.007,0.045,0.014,0.062,0.022v0.23h-0.127l-0.047-0.111c-0.017-0.019-0.037-0.035-0.062-0.049
			c-0.024-0.014-0.053-0.021-0.086-0.021c-0.022,0-0.043,0.002-0.063,0.006c-0.021,0.004-0.038,0.011-0.054,0.021
			s-0.028,0.021-0.037,0.036c-0.009,0.015-0.014,0.032-0.014,0.053c0,0.023,0.005,0.045,0.016,0.063
			c0.011,0.019,0.026,0.036,0.045,0.052c0.019,0.017,0.041,0.031,0.066,0.045s0.052,0.027,0.08,0.041
			c0.041,0.019,0.082,0.037,0.123,0.057s0.079,0.041,0.112,0.067c0.034,0.026,0.061,0.056,0.083,0.091s0.032,0.078,0.032,0.127
			c0,0.057-0.012,0.106-0.037,0.148c-0.024,0.041-0.057,0.074-0.099,0.102c-0.042,0.025-0.09,0.045-0.146,0.058
			s-0.115,0.02-0.177,0.02c-0.029,0-0.06-0.002-0.091-0.005c-0.031-0.004-0.062-0.009-0.093-0.016
			c-0.031-0.006-0.061-0.015-0.089-0.025c-0.029-0.01-0.056-0.021-0.08-0.036V21.594z"/>
		<path fill="#FFFFFF" d="M34.592,21.594h0.123l0.049,0.107c0.011,0.011,0.023,0.021,0.036,0.031c0.012,0.01,0.026,0.02,0.041,0.028
			c0.015,0.009,0.031,0.015,0.05,0.021c0.018,0.007,0.039,0.01,0.061,0.012c0.062,0.003,0.111-0.008,0.146-0.033
			c0.035-0.024,0.053-0.061,0.053-0.109c0-0.021-0.007-0.041-0.021-0.059c-0.014-0.017-0.033-0.033-0.056-0.048
			s-0.05-0.029-0.081-0.043c-0.03-0.015-0.062-0.028-0.094-0.044c-0.041-0.019-0.081-0.039-0.118-0.061
			c-0.038-0.023-0.071-0.048-0.101-0.076c-0.029-0.027-0.052-0.059-0.069-0.094c-0.017-0.036-0.025-0.076-0.025-0.123
			c0.001-0.035,0.007-0.066,0.02-0.093c0.013-0.028,0.03-0.052,0.051-0.074s0.045-0.04,0.073-0.055
			c0.027-0.016,0.057-0.028,0.087-0.038c0.03-0.01,0.062-0.017,0.093-0.022c0.031-0.005,0.062-0.008,0.09-0.009
			c0.034,0,0.067,0.001,0.099,0.004c0.033,0.003,0.064,0.007,0.093,0.013c0.029,0.005,0.057,0.012,0.081,0.019
			c0.024,0.007,0.045,0.014,0.062,0.022v0.23h-0.127l-0.047-0.111c-0.017-0.019-0.037-0.035-0.062-0.049
			c-0.024-0.014-0.053-0.021-0.086-0.021c-0.022,0-0.043,0.002-0.063,0.006c-0.021,0.004-0.038,0.011-0.054,0.021
			s-0.028,0.021-0.037,0.036c-0.009,0.015-0.014,0.032-0.014,0.053c0,0.023,0.005,0.045,0.016,0.063
			c0.011,0.019,0.026,0.036,0.045,0.052c0.019,0.017,0.041,0.031,0.066,0.045s0.052,0.027,0.08,0.041
			c0.041,0.019,0.082,0.037,0.123,0.057s0.079,0.041,0.112,0.067c0.034,0.026,0.061,0.056,0.083,0.091s0.032,0.078,0.032,0.127
			c0,0.057-0.012,0.106-0.037,0.148c-0.024,0.041-0.057,0.074-0.099,0.102c-0.042,0.025-0.09,0.045-0.146,0.058
			s-0.115,0.02-0.177,0.02c-0.029,0-0.06-0.002-0.091-0.005c-0.031-0.004-0.062-0.009-0.093-0.016
			c-0.031-0.006-0.061-0.015-0.089-0.025c-0.029-0.01-0.056-0.021-0.08-0.036V21.594z"/>
		<path fill="#FFFFFF" d="M36.186,22.229v-1.148L36.056,21v-0.091l0.302-0.09l0.056,0.019v0.115c0.007-0.011,0.02-0.024,0.038-0.04
			c0.018-0.015,0.04-0.03,0.066-0.045c0.027-0.015,0.058-0.027,0.093-0.038c0.035-0.011,0.074-0.016,0.116-0.016
			c0.054,0,0.106,0.009,0.156,0.027c0.05,0.018,0.094,0.047,0.133,0.087c0.039,0.041,0.069,0.094,0.092,0.16
			c0.023,0.065,0.035,0.147,0.035,0.244c0,0.078-0.014,0.152-0.042,0.222c-0.028,0.07-0.066,0.131-0.116,0.184
			s-0.109,0.094-0.177,0.125c-0.069,0.03-0.143,0.046-0.224,0.046c-0.028,0-0.055-0.002-0.08-0.007
			c-0.025-0.004-0.047-0.009-0.065-0.013l0.009,0.195v0.146l0.192,0.023v0.107h-0.581v-0.107L36.186,22.229z M36.448,21.699
			c0.006,0.012,0.015,0.021,0.026,0.031c0.012,0.008,0.025,0.016,0.041,0.021c0.016,0.007,0.033,0.012,0.052,0.016
			c0.019,0.003,0.039,0.004,0.059,0.004c0.029,0,0.058-0.006,0.088-0.02c0.03-0.012,0.058-0.035,0.083-0.066
			s0.045-0.072,0.061-0.123c0.016-0.051,0.024-0.115,0.024-0.191c0.001-0.08-0.007-0.146-0.023-0.199
			c-0.017-0.053-0.038-0.095-0.063-0.126s-0.054-0.053-0.085-0.065c-0.031-0.013-0.062-0.019-0.092-0.019
			c-0.022,0-0.042,0.003-0.06,0.009c-0.018,0.005-0.034,0.012-0.048,0.021c-0.014,0.008-0.027,0.017-0.038,0.025
			c-0.011,0.009-0.02,0.017-0.027,0.024l0.001,0.352V21.699z"/>
		<path fill="#FFFFFF" d="M37.304,21.354c0.001-0.09,0.017-0.169,0.047-0.236c0.03-0.068,0.07-0.124,0.119-0.168
			c0.049-0.045,0.106-0.079,0.17-0.101c0.064-0.022,0.131-0.035,0.2-0.036c0.082-0.001,0.153,0.011,0.216,0.035
			c0.063,0.024,0.116,0.06,0.158,0.105c0.043,0.046,0.075,0.102,0.098,0.167c0.022,0.065,0.033,0.139,0.033,0.221
			c0,0.092-0.015,0.172-0.043,0.242c-0.029,0.07-0.067,0.129-0.116,0.178c-0.048,0.047-0.104,0.084-0.168,0.108
			c-0.063,0.024-0.131,0.037-0.202,0.037c-0.093,0-0.172-0.015-0.238-0.044s-0.119-0.07-0.16-0.121s-0.07-0.109-0.089-0.176
			C37.312,21.5,37.303,21.429,37.304,21.354z M37.825,21.785c0.047,0,0.086-0.011,0.117-0.033c0.031-0.023,0.056-0.055,0.074-0.094
			c0.018-0.039,0.03-0.084,0.038-0.137c0.007-0.053,0.011-0.108,0.011-0.167c0-0.052-0.004-0.104-0.011-0.153
			c-0.007-0.051-0.02-0.096-0.038-0.135c-0.018-0.04-0.042-0.072-0.072-0.096s-0.067-0.037-0.112-0.038
			c-0.048-0.001-0.087,0.01-0.119,0.031c-0.031,0.022-0.057,0.051-0.076,0.088c-0.019,0.037-0.033,0.08-0.041,0.128
			c-0.008,0.05-0.012,0.102-0.012,0.156c0,0.032,0.002,0.065,0.005,0.1c0.003,0.035,0.009,0.069,0.017,0.103
			c0.008,0.033,0.018,0.065,0.031,0.095c0.012,0.029,0.027,0.056,0.045,0.078c0.018,0.023,0.039,0.041,0.062,0.055
			C37.769,21.778,37.795,21.785,37.825,21.785z"/>
		<path fill="#FFFFFF" d="M38.509,21.779l0.14-0.025v-0.656l-0.123-0.105v-0.074l0.321-0.1l0.062,0.021v0.916l0.141,0.023v0.105
			h-0.542V21.779z M38.747,20.631c-0.021,0-0.04-0.003-0.06-0.01c-0.019-0.007-0.036-0.017-0.051-0.029
			c-0.015-0.013-0.027-0.028-0.036-0.046c-0.009-0.019-0.014-0.039-0.014-0.062c0-0.025,0.006-0.049,0.017-0.071
			c0.011-0.021,0.026-0.041,0.044-0.056c0.019-0.016,0.039-0.028,0.062-0.037c0.022-0.009,0.045-0.014,0.067-0.014
			c0.028,0,0.052,0.004,0.072,0.012c0.02,0.008,0.036,0.019,0.049,0.032c0.013,0.014,0.022,0.029,0.029,0.048
			c0.006,0.018,0.009,0.038,0.009,0.058c0,0.026-0.005,0.051-0.016,0.072c-0.011,0.022-0.025,0.041-0.043,0.056
			s-0.038,0.027-0.061,0.035C38.793,20.627,38.77,20.631,38.747,20.631z"/>
		<path fill="#FFFFFF" d="M39.2,21.779l0.121-0.021v-0.676L39.191,21v-0.091l0.302-0.09l0.058,0.019v0.135
			c0.023-0.021,0.049-0.041,0.079-0.06c0.03-0.019,0.062-0.035,0.096-0.048s0.068-0.024,0.104-0.032
			c0.036-0.008,0.07-0.013,0.104-0.013c0.058,0,0.107,0.008,0.146,0.025c0.04,0.018,0.071,0.044,0.095,0.08s0.041,0.081,0.051,0.134
			s0.015,0.116,0.015,0.188v0.51l0.139,0.023v0.105h-0.539v-0.105l0.136-0.025v-0.471c0-0.053-0.002-0.098-0.007-0.134
			s-0.015-0.066-0.029-0.089c-0.015-0.022-0.035-0.039-0.061-0.048c-0.026-0.009-0.061-0.014-0.103-0.013
			c-0.012,0-0.026,0.002-0.042,0.005s-0.032,0.007-0.05,0.013s-0.035,0.012-0.052,0.021c-0.017,0.008-0.033,0.017-0.048,0.028v0.691
			l0.125,0.023v0.105H39.2V21.779z"/>
		<path fill="#FFFFFF" d="M40.631,20.989h-0.142v-0.09c0.021-0.004,0.04-0.009,0.057-0.013s0.032-0.009,0.045-0.014
			c0.014-0.005,0.026-0.012,0.037-0.019c0.011-0.008,0.021-0.018,0.029-0.03c0.007-0.01,0.015-0.022,0.023-0.04
			c0.009-0.017,0.017-0.035,0.025-0.056s0.017-0.042,0.024-0.065c0.008-0.023,0.015-0.046,0.021-0.068h0.128v0.248h0.315v0.146
			h-0.307v0.396c0,0.078,0.001,0.141,0.004,0.188s0.008,0.084,0.017,0.109s0.02,0.041,0.034,0.05
			c0.014,0.008,0.033,0.012,0.057,0.012c0.014,0,0.029-0.001,0.046-0.003c0.017-0.002,0.034-0.005,0.05-0.008
			c0.016-0.004,0.031-0.008,0.045-0.013c0.014-0.005,0.025-0.01,0.033-0.015l0.04,0.096c-0.014,0.016-0.034,0.029-0.059,0.043
			c-0.024,0.014-0.052,0.024-0.083,0.033c-0.031,0.01-0.063,0.017-0.097,0.022c-0.034,0.005-0.067,0.008-0.1,0.008
			c-0.045,0-0.083-0.006-0.115-0.019c-0.031-0.012-0.056-0.03-0.075-0.056c-0.019-0.024-0.033-0.058-0.042-0.097
			s-0.013-0.085-0.013-0.139V20.989z"/>
		<path fill="#FFFFFF" d="M41.385,21.594h0.123l0.049,0.107c0.011,0.011,0.023,0.021,0.036,0.031c0.012,0.01,0.026,0.02,0.041,0.028
			c0.015,0.009,0.031,0.015,0.05,0.021c0.018,0.007,0.039,0.01,0.061,0.012c0.062,0.003,0.111-0.008,0.146-0.033
			c0.035-0.024,0.053-0.061,0.053-0.109c0-0.021-0.007-0.041-0.021-0.059c-0.014-0.017-0.033-0.033-0.056-0.048
			s-0.05-0.029-0.081-0.043c-0.03-0.015-0.062-0.028-0.094-0.044c-0.041-0.019-0.081-0.039-0.118-0.061
			c-0.038-0.023-0.071-0.048-0.101-0.076c-0.029-0.027-0.052-0.059-0.069-0.094c-0.017-0.036-0.025-0.076-0.025-0.123
			c0.001-0.035,0.007-0.066,0.02-0.093c0.013-0.028,0.03-0.052,0.051-0.074s0.045-0.04,0.073-0.055
			c0.027-0.016,0.057-0.028,0.087-0.038c0.03-0.01,0.062-0.017,0.093-0.022c0.031-0.005,0.062-0.008,0.09-0.009
			c0.034,0,0.067,0.001,0.099,0.004c0.033,0.003,0.064,0.007,0.093,0.013c0.029,0.005,0.057,0.012,0.081,0.019
			c0.024,0.007,0.045,0.014,0.062,0.022v0.23H42l-0.047-0.111c-0.017-0.019-0.037-0.035-0.062-0.049
			c-0.024-0.014-0.053-0.021-0.086-0.021c-0.022,0-0.043,0.002-0.063,0.006c-0.021,0.004-0.038,0.011-0.054,0.021
			s-0.028,0.021-0.037,0.036c-0.009,0.015-0.014,0.032-0.014,0.053c0,0.023,0.005,0.045,0.016,0.063
			c0.011,0.019,0.026,0.036,0.045,0.052c0.019,0.017,0.041,0.031,0.066,0.045s0.052,0.027,0.08,0.041
			c0.041,0.019,0.082,0.037,0.123,0.057s0.079,0.041,0.112,0.067c0.034,0.026,0.061,0.056,0.083,0.091s0.032,0.078,0.032,0.127
			c0,0.057-0.012,0.106-0.037,0.148c-0.024,0.041-0.057,0.074-0.099,0.102c-0.042,0.025-0.09,0.045-0.146,0.058
			s-0.115,0.02-0.177,0.02c-0.029,0-0.06-0.002-0.091-0.005c-0.031-0.004-0.062-0.009-0.093-0.016
			c-0.031-0.006-0.061-0.015-0.089-0.025c-0.029-0.01-0.056-0.021-0.08-0.036V21.594z"/>
	</g>
	<g>
		<path fill="#FFFFFF" d="M35.775,16.578v0.596h-0.749v1.248h-0.624v-1.248h-2.405v-0.513l1.732-3.091h0.651l-1.663,3.008h1.684
			v-1.241h0.624v1.241H35.775z"/>
		<path fill="#FFFFFF" d="M35.727,13.57h3.631v0.52l-2.114,4.331h-0.707l2.072-4.248h-2.28l-0.007,0.7h-0.596V13.57z"/>
	</g>
	<g>
		<path fill="#FFFFFF" d="M56.08,21.547c0.007-0.039,0.022-0.074,0.047-0.104c0.024-0.03,0.054-0.057,0.088-0.078
			c0.035-0.023,0.073-0.041,0.116-0.057c0.042-0.016,0.084-0.027,0.126-0.037c0.042-0.008,0.083-0.016,0.123-0.02
			s0.074-0.006,0.104-0.006v-0.035c0-0.049-0.006-0.089-0.017-0.12c-0.01-0.031-0.025-0.055-0.045-0.073s-0.043-0.03-0.07-0.036
			c-0.027-0.006-0.058-0.009-0.091-0.009c-0.031,0-0.062,0.003-0.091,0.008c-0.028,0.005-0.056,0.011-0.081,0.019
			c-0.025,0.007-0.049,0.016-0.069,0.024c-0.021,0.009-0.037,0.017-0.051,0.025l-0.051-0.118c0.016-0.013,0.038-0.026,0.066-0.04
			c0.029-0.014,0.062-0.025,0.101-0.037c0.038-0.011,0.079-0.02,0.124-0.026c0.044-0.007,0.091-0.01,0.138-0.01
			c0.057,0,0.109,0.005,0.158,0.016c0.05,0.011,0.092,0.03,0.128,0.058c0.036,0.027,0.064,0.064,0.085,0.111s0.03,0.106,0.03,0.18
			l-0.001,0.596h0.12v0.082c-0.014,0.009-0.029,0.016-0.046,0.022c-0.018,0.006-0.036,0.011-0.055,0.015
			c-0.02,0.004-0.038,0.007-0.058,0.008c-0.02,0.002-0.037,0.003-0.055,0.003c-0.012,0-0.025-0.001-0.042-0.004
			c-0.016-0.002-0.031-0.007-0.047-0.014c-0.015-0.007-0.027-0.018-0.038-0.032c-0.01-0.014-0.016-0.032-0.016-0.056v-0.009
			c-0.031,0.032-0.07,0.059-0.117,0.081c-0.047,0.021-0.103,0.033-0.169,0.033c-0.067,0-0.125-0.01-0.173-0.03
			c-0.048-0.02-0.086-0.047-0.114-0.08c-0.029-0.033-0.049-0.072-0.058-0.115C56.072,21.641,56.071,21.595,56.08,21.547z
			 M56.341,21.58c0,0.066,0.018,0.113,0.054,0.141c0.036,0.028,0.088,0.039,0.155,0.035c0.027-0.003,0.052-0.01,0.073-0.022
			c0.022-0.012,0.042-0.024,0.061-0.04c0-0.054,0-0.108,0-0.162c0-0.055,0.001-0.108,0.001-0.163c-0.022,0-0.047,0.001-0.072,0.004
			c-0.026,0.003-0.052,0.007-0.077,0.013s-0.05,0.015-0.073,0.025c-0.022,0.011-0.044,0.023-0.062,0.039s-0.032,0.034-0.043,0.056
			C56.347,21.525,56.341,21.551,56.341,21.58z"/>
		<path fill="#FFFFFF" d="M57.176,21.391c-0.001-0.088,0.013-0.167,0.041-0.237c0.028-0.07,0.067-0.13,0.116-0.179
			c0.05-0.049,0.107-0.087,0.175-0.114c0.066-0.027,0.138-0.042,0.215-0.045c0.029,0,0.06,0,0.091,0.002
			c0.03,0.002,0.061,0.005,0.089,0.009c0.027,0.004,0.054,0.009,0.077,0.016c0.022,0.006,0.041,0.013,0.054,0.021v0.265h-0.134
			l-0.062-0.151c-0.019-0.012-0.04-0.021-0.065-0.025s-0.049-0.007-0.07-0.007c-0.036,0-0.069,0.008-0.1,0.023
			c-0.031,0.016-0.058,0.038-0.081,0.068c-0.022,0.03-0.041,0.067-0.055,0.113c-0.014,0.045-0.021,0.096-0.022,0.154
			c-0.002,0.08,0.006,0.147,0.024,0.203c0.018,0.057,0.041,0.104,0.071,0.139c0.03,0.036,0.064,0.062,0.104,0.079
			s0.079,0.025,0.119,0.025c0.026,0,0.053-0.002,0.079-0.005c0.026-0.004,0.051-0.008,0.074-0.014
			c0.024-0.006,0.045-0.012,0.064-0.02c0.019-0.008,0.034-0.016,0.047-0.024l0.042,0.103c-0.022,0.019-0.048,0.035-0.077,0.051
			c-0.029,0.014-0.062,0.027-0.097,0.037c-0.034,0.01-0.071,0.018-0.11,0.023c-0.04,0.005-0.08,0.008-0.122,0.008
			c-0.078,0-0.147-0.014-0.208-0.039c-0.061-0.026-0.111-0.062-0.152-0.107c-0.04-0.047-0.071-0.102-0.093-0.164
			C57.188,21.534,57.176,21.465,57.176,21.391z"/>
		<path fill="#FFFFFF" d="M58.194,21.391c-0.001-0.088,0.013-0.167,0.041-0.237c0.028-0.07,0.067-0.13,0.116-0.179
			c0.05-0.049,0.107-0.087,0.175-0.114c0.066-0.027,0.138-0.042,0.215-0.045c0.029,0,0.06,0,0.091,0.002
			c0.03,0.002,0.061,0.005,0.089,0.009c0.027,0.004,0.054,0.009,0.077,0.016c0.022,0.006,0.041,0.013,0.054,0.021v0.265h-0.134
			l-0.062-0.151c-0.019-0.012-0.04-0.021-0.065-0.025s-0.049-0.007-0.07-0.007c-0.036,0-0.069,0.008-0.1,0.023
			c-0.031,0.016-0.058,0.038-0.081,0.068c-0.022,0.03-0.041,0.067-0.055,0.113c-0.014,0.045-0.021,0.096-0.022,0.154
			c-0.002,0.08,0.006,0.147,0.024,0.203c0.018,0.057,0.041,0.104,0.071,0.139c0.03,0.036,0.064,0.062,0.104,0.079
			s0.079,0.025,0.119,0.025c0.026,0,0.053-0.002,0.079-0.005c0.026-0.004,0.051-0.008,0.074-0.014
			c0.024-0.006,0.045-0.012,0.064-0.02c0.019-0.008,0.034-0.016,0.047-0.024l0.042,0.103c-0.022,0.019-0.048,0.035-0.077,0.051
			c-0.029,0.014-0.062,0.027-0.097,0.037c-0.034,0.01-0.071,0.018-0.11,0.023c-0.04,0.005-0.08,0.008-0.122,0.008
			c-0.078,0-0.147-0.014-0.208-0.039c-0.061-0.026-0.111-0.062-0.152-0.107c-0.04-0.047-0.071-0.102-0.093-0.164
			C58.206,21.534,58.194,21.465,58.194,21.391z"/>
		<path fill="#FFFFFF" d="M59.211,21.381c0-0.08,0.013-0.154,0.038-0.223c0.025-0.069,0.062-0.129,0.109-0.179
			c0.048-0.051,0.104-0.091,0.172-0.12s0.144-0.044,0.227-0.045c0.066,0,0.125,0.008,0.175,0.027
			c0.049,0.018,0.091,0.044,0.124,0.078s0.059,0.075,0.075,0.123c0.018,0.048,0.027,0.102,0.03,0.16
			c0.001,0.039,0,0.074-0.003,0.104s-0.006,0.057-0.01,0.08h-0.667c0,0.002,0,0.004,0.001,0.006c0,0.001,0,0.002,0,0.004
			c0.004,0.064,0.015,0.118,0.032,0.162c0.018,0.045,0.041,0.082,0.07,0.109c0.028,0.029,0.062,0.049,0.1,0.062
			s0.078,0.02,0.121,0.02c0.022,0,0.047-0.002,0.073-0.004c0.025-0.002,0.051-0.006,0.076-0.012
			c0.025-0.004,0.049-0.011,0.073-0.018c0.023-0.008,0.045-0.017,0.064-0.026l0.043,0.101c-0.021,0.018-0.047,0.035-0.079,0.05
			c-0.031,0.015-0.065,0.028-0.104,0.038c-0.037,0.011-0.076,0.019-0.117,0.024s-0.082,0.008-0.123,0.008
			c-0.08-0.001-0.151-0.014-0.214-0.038c-0.062-0.025-0.115-0.061-0.158-0.105c-0.042-0.045-0.075-0.1-0.097-0.165
			C59.222,21.535,59.211,21.463,59.211,21.381z M59.896,21.253c0.002-0.026,0.003-0.054,0.004-0.083s-0.001-0.057-0.005-0.083
			s-0.012-0.051-0.022-0.074c-0.011-0.022-0.027-0.041-0.048-0.055c-0.013-0.009-0.028-0.016-0.046-0.021s-0.037-0.007-0.06-0.007
			c-0.036,0-0.068,0.008-0.096,0.025c-0.028,0.017-0.052,0.04-0.07,0.069c-0.02,0.029-0.035,0.063-0.047,0.103
			c-0.011,0.039-0.019,0.082-0.022,0.126H59.896z"/>
		<path fill="#FFFFFF" d="M60.367,21.594h0.123l0.049,0.107c0.012,0.011,0.023,0.021,0.035,0.031c0.013,0.01,0.026,0.02,0.041,0.028
			c0.016,0.009,0.032,0.015,0.05,0.021c0.019,0.007,0.039,0.01,0.062,0.012c0.062,0.003,0.11-0.008,0.146-0.033
			c0.035-0.024,0.054-0.061,0.054-0.109c0-0.021-0.008-0.041-0.021-0.059c-0.015-0.017-0.033-0.033-0.057-0.048
			s-0.05-0.029-0.08-0.043c-0.031-0.015-0.062-0.028-0.095-0.044c-0.041-0.019-0.08-0.039-0.118-0.061
			c-0.037-0.023-0.071-0.048-0.101-0.076c-0.028-0.027-0.052-0.059-0.069-0.094c-0.017-0.036-0.024-0.076-0.024-0.123
			c0.001-0.035,0.008-0.066,0.021-0.093c0.013-0.028,0.029-0.052,0.051-0.074c0.021-0.021,0.045-0.04,0.072-0.055
			c0.028-0.016,0.057-0.028,0.088-0.038c0.03-0.01,0.061-0.017,0.093-0.022c0.031-0.005,0.062-0.008,0.09-0.009
			c0.034,0,0.066,0.001,0.1,0.004c0.032,0.003,0.063,0.007,0.093,0.013c0.029,0.005,0.057,0.012,0.081,0.019
			c0.024,0.007,0.045,0.014,0.062,0.022v0.23h-0.126l-0.048-0.111c-0.017-0.019-0.037-0.035-0.062-0.049
			c-0.024-0.014-0.053-0.021-0.086-0.021c-0.022,0-0.044,0.002-0.064,0.006c-0.02,0.004-0.038,0.011-0.053,0.021
			c-0.016,0.01-0.028,0.021-0.037,0.036s-0.014,0.032-0.014,0.053c-0.001,0.023,0.005,0.045,0.016,0.063
			c0.012,0.019,0.026,0.036,0.045,0.052c0.02,0.017,0.042,0.031,0.067,0.045s0.052,0.027,0.08,0.041
			c0.04,0.019,0.081,0.037,0.122,0.057c0.042,0.02,0.079,0.041,0.113,0.067c0.033,0.026,0.061,0.056,0.082,0.091
			s0.032,0.078,0.032,0.127c0,0.057-0.013,0.106-0.036,0.148c-0.024,0.041-0.058,0.074-0.099,0.102
			c-0.042,0.025-0.091,0.045-0.146,0.058c-0.056,0.013-0.115,0.02-0.178,0.02c-0.029,0-0.06-0.002-0.091-0.005
			c-0.031-0.004-0.062-0.009-0.093-0.016c-0.031-0.006-0.061-0.015-0.09-0.025c-0.028-0.01-0.055-0.021-0.079-0.036V21.594z"/>
		<path fill="#FFFFFF" d="M61.367,21.594h0.123l0.049,0.107c0.012,0.011,0.023,0.021,0.035,0.031c0.013,0.01,0.026,0.02,0.041,0.028
			c0.016,0.009,0.032,0.015,0.05,0.021c0.019,0.007,0.039,0.01,0.062,0.012c0.062,0.003,0.11-0.008,0.146-0.033
			c0.035-0.024,0.054-0.061,0.054-0.109c0-0.021-0.008-0.041-0.021-0.059c-0.015-0.017-0.033-0.033-0.057-0.048
			s-0.05-0.029-0.08-0.043c-0.031-0.015-0.062-0.028-0.095-0.044c-0.041-0.019-0.08-0.039-0.118-0.061
			c-0.037-0.023-0.071-0.048-0.101-0.076c-0.028-0.027-0.052-0.059-0.069-0.094c-0.017-0.036-0.024-0.076-0.024-0.123
			c0.001-0.035,0.008-0.066,0.021-0.093c0.013-0.028,0.029-0.052,0.051-0.074c0.021-0.021,0.045-0.04,0.072-0.055
			c0.028-0.016,0.057-0.028,0.088-0.038c0.03-0.01,0.061-0.017,0.093-0.022c0.031-0.005,0.062-0.008,0.09-0.009
			c0.034,0,0.066,0.001,0.1,0.004c0.032,0.003,0.063,0.007,0.093,0.013c0.029,0.005,0.057,0.012,0.081,0.019
			c0.024,0.007,0.045,0.014,0.062,0.022v0.23h-0.126l-0.048-0.111c-0.017-0.019-0.037-0.035-0.062-0.049
			c-0.024-0.014-0.053-0.021-0.086-0.021c-0.022,0-0.044,0.002-0.064,0.006c-0.02,0.004-0.038,0.011-0.053,0.021
			c-0.016,0.01-0.028,0.021-0.037,0.036s-0.014,0.032-0.014,0.053c-0.001,0.023,0.005,0.045,0.016,0.063
			c0.012,0.019,0.026,0.036,0.045,0.052c0.02,0.017,0.042,0.031,0.067,0.045s0.052,0.027,0.08,0.041
			c0.04,0.019,0.081,0.037,0.122,0.057c0.042,0.02,0.079,0.041,0.113,0.067c0.033,0.026,0.061,0.056,0.082,0.091
			s0.032,0.078,0.032,0.127c0,0.057-0.013,0.106-0.036,0.148c-0.024,0.041-0.058,0.074-0.099,0.102
			c-0.042,0.025-0.091,0.045-0.146,0.058c-0.056,0.013-0.115,0.02-0.178,0.02c-0.029,0-0.06-0.002-0.091-0.005
			c-0.031-0.004-0.062-0.009-0.093-0.016c-0.031-0.006-0.061-0.015-0.09-0.025c-0.028-0.01-0.055-0.021-0.079-0.036V21.594z"/>
		<path fill="#FFFFFF" d="M62.961,22.229v-1.148L62.832,21v-0.091l0.303-0.09l0.056,0.019v0.115c0.007-0.011,0.02-0.024,0.037-0.04
			c0.019-0.015,0.04-0.03,0.067-0.045c0.026-0.015,0.057-0.027,0.092-0.038c0.035-0.011,0.074-0.016,0.116-0.016
			c0.054,0,0.105,0.009,0.156,0.027c0.05,0.018,0.094,0.047,0.133,0.087s0.069,0.094,0.093,0.16
			c0.022,0.065,0.034,0.147,0.034,0.244c0,0.078-0.014,0.152-0.042,0.222c-0.028,0.07-0.066,0.131-0.116,0.184
			s-0.108,0.094-0.178,0.125c-0.068,0.03-0.143,0.046-0.224,0.046c-0.027,0-0.055-0.002-0.08-0.007
			c-0.025-0.004-0.047-0.009-0.064-0.013l0.009,0.195v0.146l0.191,0.023v0.107h-0.58v-0.107L62.961,22.229z M63.224,21.699
			c0.006,0.012,0.015,0.021,0.026,0.031c0.012,0.008,0.025,0.016,0.041,0.021c0.016,0.007,0.033,0.012,0.053,0.016
			c0.019,0.003,0.038,0.004,0.059,0.004c0.028,0,0.058-0.006,0.088-0.02c0.03-0.012,0.058-0.035,0.082-0.066
			c0.025-0.031,0.046-0.072,0.062-0.123s0.024-0.115,0.024-0.191c0.001-0.08-0.007-0.146-0.023-0.199s-0.037-0.095-0.062-0.126
			c-0.026-0.031-0.055-0.053-0.086-0.065c-0.031-0.013-0.062-0.019-0.092-0.019c-0.021,0-0.041,0.003-0.06,0.009
			c-0.018,0.005-0.033,0.012-0.048,0.021c-0.015,0.008-0.027,0.017-0.038,0.025s-0.02,0.017-0.026,0.024l0.001,0.352V21.699z"/>
		<path fill="#FFFFFF" d="M64.08,21.354c0.001-0.09,0.017-0.169,0.047-0.236c0.03-0.068,0.069-0.124,0.119-0.168
			c0.049-0.045,0.106-0.079,0.17-0.101c0.064-0.022,0.132-0.035,0.201-0.036c0.081-0.001,0.153,0.011,0.216,0.035
			s0.115,0.06,0.158,0.105c0.043,0.046,0.075,0.102,0.097,0.167c0.022,0.065,0.033,0.139,0.033,0.221
			c-0.001,0.092-0.015,0.172-0.044,0.242c-0.028,0.07-0.066,0.129-0.115,0.178c-0.048,0.047-0.104,0.084-0.168,0.108
			c-0.064,0.024-0.132,0.037-0.202,0.037c-0.093,0-0.173-0.015-0.238-0.044s-0.118-0.07-0.159-0.121s-0.07-0.109-0.089-0.176
			S64.079,21.429,64.08,21.354z M64.601,21.785c0.048,0,0.087-0.011,0.118-0.033c0.03-0.023,0.055-0.055,0.073-0.094
			c0.018-0.039,0.03-0.084,0.037-0.137c0.008-0.053,0.011-0.108,0.011-0.167c0-0.052-0.003-0.104-0.011-0.153
			c-0.008-0.051-0.021-0.096-0.038-0.135s-0.041-0.072-0.071-0.096s-0.067-0.037-0.112-0.038c-0.048-0.001-0.087,0.01-0.118,0.031
			c-0.031,0.022-0.057,0.051-0.076,0.088c-0.02,0.037-0.033,0.08-0.04,0.128c-0.008,0.05-0.012,0.102-0.012,0.156
			c0,0.032,0.001,0.065,0.005,0.1c0.003,0.035,0.009,0.069,0.017,0.103c0.009,0.033,0.019,0.065,0.031,0.095
			s0.027,0.056,0.045,0.078c0.018,0.023,0.038,0.041,0.062,0.055C64.545,21.778,64.571,21.785,64.601,21.785z"/>
		<path fill="#FFFFFF" d="M65.285,21.779l0.14-0.025v-0.656l-0.123-0.105v-0.074l0.321-0.1l0.062,0.021v0.916l0.142,0.023v0.105
			h-0.541V21.779z M65.522,20.631c-0.021,0-0.041-0.003-0.06-0.01c-0.02-0.007-0.037-0.017-0.052-0.029s-0.026-0.028-0.035-0.046
			c-0.01-0.019-0.014-0.039-0.014-0.062c0-0.025,0.005-0.049,0.017-0.071c0.011-0.021,0.025-0.041,0.044-0.056
			c0.019-0.016,0.039-0.028,0.062-0.037c0.022-0.009,0.045-0.014,0.067-0.014c0.028,0,0.052,0.004,0.071,0.012
			c0.021,0.008,0.037,0.019,0.05,0.032c0.013,0.014,0.022,0.029,0.029,0.048c0.006,0.018,0.009,0.038,0.009,0.058
			c0,0.026-0.006,0.051-0.017,0.072c-0.011,0.022-0.024,0.041-0.042,0.056c-0.019,0.015-0.038,0.027-0.061,0.035
			C65.568,20.627,65.546,20.631,65.522,20.631z"/>
		<path fill="#FFFFFF" d="M65.976,21.779l0.12-0.021v-0.676L65.967,21v-0.091l0.303-0.09l0.058,0.019v0.135
			c0.022-0.021,0.049-0.041,0.079-0.06c0.03-0.019,0.062-0.035,0.096-0.048c0.034-0.014,0.068-0.024,0.104-0.032
			c0.035-0.008,0.069-0.013,0.104-0.013c0.059,0,0.107,0.008,0.146,0.025c0.04,0.018,0.071,0.044,0.096,0.08
			c0.023,0.036,0.04,0.081,0.051,0.134c0.01,0.054,0.015,0.116,0.015,0.188v0.51l0.139,0.023v0.105h-0.539v-0.105l0.136-0.025
			v-0.471c0-0.053-0.002-0.098-0.007-0.134c-0.006-0.036-0.016-0.066-0.029-0.089c-0.015-0.022-0.035-0.039-0.062-0.048
			c-0.026-0.009-0.061-0.014-0.104-0.013c-0.012,0-0.025,0.002-0.041,0.005s-0.032,0.007-0.05,0.013s-0.035,0.012-0.052,0.021
			c-0.018,0.008-0.034,0.017-0.049,0.028v0.691l0.125,0.023v0.105h-0.51V21.779z"/>
		<path fill="#FFFFFF" d="M67.407,20.989h-0.142v-0.09c0.021-0.004,0.04-0.009,0.058-0.013c0.017-0.004,0.032-0.009,0.045-0.014
			c0.014-0.005,0.025-0.012,0.036-0.019c0.011-0.008,0.021-0.018,0.029-0.03c0.008-0.01,0.016-0.022,0.024-0.04
			c0.008-0.017,0.017-0.035,0.024-0.056c0.009-0.021,0.017-0.042,0.024-0.065s0.015-0.046,0.021-0.068h0.128v0.248h0.315v0.146
			h-0.307v0.396c0,0.078,0.001,0.141,0.004,0.188s0.009,0.084,0.017,0.109c0.009,0.025,0.02,0.041,0.034,0.05
			c0.015,0.008,0.033,0.012,0.057,0.012c0.014,0,0.029-0.001,0.046-0.003c0.018-0.002,0.034-0.005,0.05-0.008
			c0.017-0.004,0.031-0.008,0.045-0.013c0.015-0.005,0.025-0.01,0.033-0.015l0.04,0.096c-0.014,0.016-0.033,0.029-0.059,0.043
			c-0.024,0.014-0.053,0.024-0.083,0.033c-0.031,0.01-0.063,0.017-0.097,0.022c-0.034,0.005-0.067,0.008-0.101,0.008
			c-0.045,0-0.083-0.006-0.114-0.019c-0.031-0.012-0.056-0.03-0.075-0.056c-0.02-0.024-0.033-0.058-0.042-0.097
			s-0.013-0.085-0.013-0.139V20.989z"/>
		<path fill="#FFFFFF" d="M68.16,21.594h0.123l0.049,0.107c0.012,0.011,0.023,0.021,0.035,0.031c0.013,0.01,0.026,0.02,0.041,0.028
			c0.016,0.009,0.032,0.015,0.05,0.021c0.019,0.007,0.039,0.01,0.062,0.012c0.062,0.003,0.11-0.008,0.146-0.033
			c0.035-0.024,0.054-0.061,0.054-0.109c0-0.021-0.008-0.041-0.021-0.059c-0.015-0.017-0.033-0.033-0.057-0.048
			s-0.05-0.029-0.08-0.043c-0.031-0.015-0.062-0.028-0.095-0.044c-0.041-0.019-0.08-0.039-0.118-0.061
			c-0.037-0.023-0.071-0.048-0.101-0.076c-0.028-0.027-0.052-0.059-0.069-0.094c-0.017-0.036-0.024-0.076-0.024-0.123
			c0.001-0.035,0.008-0.066,0.021-0.093c0.013-0.028,0.029-0.052,0.051-0.074c0.021-0.021,0.045-0.04,0.072-0.055
			c0.028-0.016,0.057-0.028,0.088-0.038c0.03-0.01,0.061-0.017,0.093-0.022c0.031-0.005,0.062-0.008,0.09-0.009
			c0.034,0,0.066,0.001,0.1,0.004c0.032,0.003,0.063,0.007,0.093,0.013c0.029,0.005,0.057,0.012,0.081,0.019
			c0.024,0.007,0.045,0.014,0.062,0.022v0.23h-0.126l-0.048-0.111c-0.017-0.019-0.037-0.035-0.062-0.049
			c-0.024-0.014-0.053-0.021-0.086-0.021c-0.022,0-0.044,0.002-0.064,0.006c-0.02,0.004-0.038,0.011-0.053,0.021
			c-0.016,0.01-0.028,0.021-0.037,0.036s-0.014,0.032-0.014,0.053c-0.001,0.023,0.005,0.045,0.016,0.063
			c0.012,0.019,0.026,0.036,0.045,0.052c0.02,0.017,0.042,0.031,0.067,0.045s0.052,0.027,0.08,0.041
			c0.04,0.019,0.081,0.037,0.122,0.057c0.042,0.02,0.079,0.041,0.113,0.067c0.033,0.026,0.061,0.056,0.082,0.091
			s0.032,0.078,0.032,0.127c0,0.057-0.013,0.106-0.036,0.148c-0.024,0.041-0.058,0.074-0.099,0.102
			c-0.042,0.025-0.091,0.045-0.146,0.058c-0.056,0.013-0.115,0.02-0.178,0.02c-0.029,0-0.06-0.002-0.091-0.005
			c-0.031-0.004-0.062-0.009-0.093-0.016c-0.031-0.006-0.061-0.015-0.09-0.025c-0.028-0.01-0.055-0.021-0.079-0.036V21.594z"/>
	</g>
	<g>
		<path fill="#FFFFFF" d="M62.274,17.818v0.603h-3.506v-0.513l1.878-1.947c0.203-0.204,0.364-0.406,0.485-0.606
			c0.119-0.201,0.18-0.375,0.18-0.523c0-0.217-0.084-0.388-0.253-0.513c-0.169-0.125-0.4-0.187-0.696-0.187
			c-0.227,0-0.462,0.052-0.707,0.156s-0.467,0.249-0.665,0.433l-0.284-0.506c0.263-0.212,0.544-0.377,0.842-0.496
			c0.298-0.118,0.597-0.177,0.897-0.177c0.472,0,0.849,0.109,1.133,0.326c0.284,0.217,0.427,0.508,0.427,0.874
			c0,0.43-0.301,0.956-0.901,1.58l-1.462,1.497H62.274z"/>
		<path fill="#FFFFFF" d="M66.17,14.176c0.351,0.423,0.526,1.029,0.526,1.819s-0.176,1.397-0.526,1.822
			c-0.352,0.425-0.853,0.638-1.504,0.638c-0.656,0-1.158-0.212-1.508-0.638c-0.349-0.425-0.522-1.032-0.522-1.822
			s0.174-1.396,0.522-1.819c0.35-0.423,0.852-0.634,1.508-0.634C65.317,13.542,65.818,13.753,66.17,14.176z M63.321,15.996
			c0,0.637,0.113,1.118,0.34,1.441c0.227,0.323,0.562,0.485,1.005,0.485s0.778-0.162,1.005-0.485c0.227-0.324,0.34-0.804,0.34-1.441
			c0-1.285-0.448-1.927-1.345-1.927S63.321,14.711,63.321,15.996z"/>
	</g>
	<g>
		<path fill="#FFFFFF" d="M81.28,21.547c0.007-0.039,0.022-0.074,0.047-0.104c0.024-0.03,0.054-0.057,0.088-0.078
			c0.035-0.023,0.073-0.041,0.116-0.057c0.042-0.016,0.084-0.027,0.126-0.037c0.042-0.008,0.083-0.016,0.123-0.02
			s0.074-0.006,0.104-0.006v-0.035c0-0.049-0.006-0.089-0.017-0.12c-0.01-0.031-0.025-0.055-0.045-0.073s-0.043-0.03-0.07-0.036
			c-0.027-0.006-0.058-0.009-0.091-0.009c-0.031,0-0.062,0.003-0.091,0.008c-0.028,0.005-0.056,0.011-0.081,0.019
			c-0.025,0.007-0.049,0.016-0.069,0.024c-0.021,0.009-0.037,0.017-0.051,0.025l-0.051-0.118c0.016-0.013,0.038-0.026,0.066-0.04
			c0.029-0.014,0.062-0.025,0.101-0.037c0.038-0.011,0.079-0.02,0.124-0.026c0.044-0.007,0.091-0.01,0.138-0.01
			c0.057,0,0.109,0.005,0.158,0.016c0.05,0.011,0.092,0.03,0.128,0.058c0.036,0.027,0.064,0.064,0.085,0.111s0.03,0.106,0.03,0.18
			l-0.001,0.596h0.12v0.082c-0.014,0.009-0.029,0.016-0.046,0.022c-0.018,0.006-0.036,0.011-0.055,0.015
			c-0.02,0.004-0.038,0.007-0.058,0.008c-0.02,0.002-0.037,0.003-0.055,0.003c-0.012,0-0.025-0.001-0.042-0.004
			c-0.016-0.002-0.031-0.007-0.047-0.014c-0.015-0.007-0.027-0.018-0.038-0.032c-0.01-0.014-0.016-0.032-0.016-0.056v-0.009
			c-0.031,0.032-0.07,0.059-0.117,0.081c-0.047,0.021-0.103,0.033-0.169,0.033c-0.067,0-0.125-0.01-0.173-0.03
			c-0.048-0.02-0.086-0.047-0.114-0.08c-0.029-0.033-0.049-0.072-0.058-0.115C81.272,21.641,81.271,21.595,81.28,21.547z
			 M81.541,21.58c0,0.066,0.018,0.113,0.054,0.141c0.036,0.028,0.088,0.039,0.155,0.035c0.027-0.003,0.052-0.01,0.073-0.022
			c0.022-0.012,0.042-0.024,0.061-0.04c0-0.054,0-0.108,0-0.162c0-0.055,0.001-0.108,0.001-0.163c-0.022,0-0.047,0.001-0.072,0.004
			c-0.026,0.003-0.052,0.007-0.077,0.013s-0.05,0.015-0.073,0.025c-0.022,0.011-0.044,0.023-0.062,0.039s-0.032,0.034-0.043,0.056
			C81.547,21.525,81.541,21.551,81.541,21.58z"/>
		<path fill="#FFFFFF" d="M82.376,21.391c-0.001-0.088,0.013-0.167,0.041-0.237c0.028-0.07,0.067-0.13,0.116-0.179
			c0.05-0.049,0.107-0.087,0.175-0.114c0.066-0.027,0.138-0.042,0.215-0.045c0.029,0,0.06,0,0.091,0.002
			c0.03,0.002,0.061,0.005,0.089,0.009c0.027,0.004,0.054,0.009,0.077,0.016c0.022,0.006,0.041,0.013,0.054,0.021v0.265H83.1
			l-0.062-0.151c-0.019-0.012-0.04-0.021-0.065-0.025s-0.049-0.007-0.07-0.007c-0.036,0-0.069,0.008-0.1,0.023
			c-0.031,0.016-0.058,0.038-0.081,0.068c-0.022,0.03-0.041,0.067-0.055,0.113c-0.014,0.045-0.021,0.096-0.022,0.154
			c-0.002,0.08,0.006,0.147,0.024,0.203c0.018,0.057,0.041,0.104,0.071,0.139c0.03,0.036,0.064,0.062,0.104,0.079
			s0.079,0.025,0.119,0.025c0.026,0,0.053-0.002,0.079-0.005c0.026-0.004,0.051-0.008,0.074-0.014
			c0.024-0.006,0.045-0.012,0.064-0.02c0.019-0.008,0.034-0.016,0.047-0.024l0.042,0.103c-0.022,0.019-0.048,0.035-0.077,0.051
			c-0.029,0.014-0.062,0.027-0.097,0.037c-0.034,0.01-0.071,0.018-0.11,0.023c-0.04,0.005-0.08,0.008-0.122,0.008
			c-0.078,0-0.147-0.014-0.208-0.039c-0.061-0.026-0.111-0.062-0.152-0.107c-0.04-0.047-0.071-0.102-0.093-0.164
			C82.388,21.534,82.376,21.465,82.376,21.391z"/>
		<path fill="#FFFFFF" d="M83.395,21.391c-0.001-0.088,0.013-0.167,0.041-0.237c0.028-0.07,0.067-0.13,0.116-0.179
			c0.05-0.049,0.107-0.087,0.175-0.114c0.066-0.027,0.138-0.042,0.215-0.045c0.029,0,0.06,0,0.091,0.002
			c0.03,0.002,0.061,0.005,0.089,0.009c0.027,0.004,0.054,0.009,0.077,0.016c0.022,0.006,0.041,0.013,0.054,0.021v0.265h-0.134
			l-0.062-0.151c-0.019-0.012-0.04-0.021-0.065-0.025s-0.049-0.007-0.07-0.007c-0.036,0-0.069,0.008-0.1,0.023
			c-0.031,0.016-0.058,0.038-0.081,0.068c-0.022,0.03-0.041,0.067-0.055,0.113c-0.014,0.045-0.021,0.096-0.022,0.154
			c-0.002,0.08,0.006,0.147,0.024,0.203c0.018,0.057,0.041,0.104,0.071,0.139c0.03,0.036,0.064,0.062,0.104,0.079
			s0.079,0.025,0.119,0.025c0.026,0,0.053-0.002,0.079-0.005c0.026-0.004,0.051-0.008,0.074-0.014
			c0.024-0.006,0.045-0.012,0.064-0.02c0.019-0.008,0.034-0.016,0.047-0.024l0.042,0.103c-0.022,0.019-0.048,0.035-0.077,0.051
			c-0.029,0.014-0.062,0.027-0.097,0.037c-0.034,0.01-0.071,0.018-0.11,0.023c-0.04,0.005-0.08,0.008-0.122,0.008
			c-0.078,0-0.147-0.014-0.208-0.039c-0.061-0.026-0.111-0.062-0.152-0.107c-0.04-0.047-0.071-0.102-0.093-0.164
			C83.406,21.534,83.395,21.465,83.395,21.391z"/>
		<path fill="#FFFFFF" d="M84.411,21.381c0-0.08,0.013-0.154,0.038-0.223c0.025-0.069,0.062-0.129,0.109-0.179
			c0.048-0.051,0.104-0.091,0.172-0.12s0.144-0.044,0.227-0.045c0.066,0,0.125,0.008,0.175,0.027
			c0.049,0.018,0.091,0.044,0.124,0.078s0.059,0.075,0.075,0.123c0.018,0.048,0.027,0.102,0.03,0.16
			c0.001,0.039,0,0.074-0.003,0.104s-0.006,0.057-0.01,0.08h-0.667c0,0.002,0,0.004,0.001,0.006c0,0.001,0,0.002,0,0.004
			c0.004,0.064,0.015,0.118,0.032,0.162c0.018,0.045,0.041,0.082,0.07,0.109c0.028,0.029,0.062,0.049,0.1,0.062
			s0.078,0.02,0.121,0.02c0.022,0,0.047-0.002,0.073-0.004c0.025-0.002,0.051-0.006,0.076-0.012
			c0.025-0.004,0.049-0.011,0.073-0.018c0.023-0.008,0.045-0.017,0.064-0.026l0.043,0.101c-0.021,0.018-0.047,0.035-0.079,0.05
			c-0.031,0.015-0.065,0.028-0.104,0.038c-0.037,0.011-0.076,0.019-0.117,0.024s-0.082,0.008-0.123,0.008
			c-0.08-0.001-0.151-0.014-0.214-0.038c-0.062-0.025-0.115-0.061-0.158-0.105c-0.042-0.045-0.075-0.1-0.097-0.165
			C84.422,21.535,84.411,21.463,84.411,21.381z M85.097,21.253c0.002-0.026,0.003-0.054,0.004-0.083s-0.001-0.057-0.005-0.083
			s-0.012-0.051-0.022-0.074c-0.011-0.022-0.027-0.041-0.048-0.055c-0.013-0.009-0.028-0.016-0.046-0.021s-0.037-0.007-0.06-0.007
			c-0.036,0-0.068,0.008-0.096,0.025c-0.028,0.017-0.052,0.04-0.07,0.069c-0.02,0.029-0.035,0.063-0.047,0.103
			c-0.011,0.039-0.019,0.082-0.022,0.126H85.097z"/>
		<path fill="#FFFFFF" d="M85.567,21.594h0.123l0.049,0.107c0.012,0.011,0.023,0.021,0.035,0.031c0.013,0.01,0.026,0.02,0.041,0.028
			c0.016,0.009,0.032,0.015,0.05,0.021c0.019,0.007,0.039,0.01,0.062,0.012c0.062,0.003,0.11-0.008,0.146-0.033
			c0.035-0.024,0.054-0.061,0.054-0.109c0-0.021-0.008-0.041-0.021-0.059c-0.015-0.017-0.033-0.033-0.057-0.048
			s-0.05-0.029-0.08-0.043c-0.031-0.015-0.062-0.028-0.095-0.044c-0.041-0.019-0.08-0.039-0.118-0.061
			c-0.037-0.023-0.071-0.048-0.101-0.076c-0.028-0.027-0.052-0.059-0.069-0.094c-0.017-0.036-0.024-0.076-0.024-0.123
			c0.001-0.035,0.008-0.066,0.021-0.093c0.013-0.028,0.029-0.052,0.051-0.074c0.021-0.021,0.045-0.04,0.072-0.055
			c0.028-0.016,0.057-0.028,0.088-0.038c0.03-0.01,0.061-0.017,0.093-0.022c0.031-0.005,0.062-0.008,0.09-0.009
			c0.034,0,0.066,0.001,0.1,0.004c0.032,0.003,0.063,0.007,0.093,0.013c0.029,0.005,0.057,0.012,0.081,0.019
			c0.024,0.007,0.045,0.014,0.062,0.022v0.23h-0.126l-0.048-0.111c-0.017-0.019-0.037-0.035-0.062-0.049
			c-0.024-0.014-0.053-0.021-0.086-0.021c-0.022,0-0.044,0.002-0.064,0.006c-0.02,0.004-0.038,0.011-0.053,0.021
			c-0.016,0.01-0.028,0.021-0.037,0.036s-0.014,0.032-0.014,0.053c-0.001,0.023,0.005,0.045,0.016,0.063
			c0.012,0.019,0.026,0.036,0.045,0.052c0.02,0.017,0.042,0.031,0.067,0.045s0.052,0.027,0.08,0.041
			c0.04,0.019,0.081,0.037,0.122,0.057c0.042,0.02,0.079,0.041,0.113,0.067c0.033,0.026,0.061,0.056,0.082,0.091
			s0.032,0.078,0.032,0.127c0,0.057-0.013,0.106-0.036,0.148c-0.024,0.041-0.058,0.074-0.099,0.102
			c-0.042,0.025-0.091,0.045-0.146,0.058c-0.056,0.013-0.115,0.02-0.178,0.02c-0.029,0-0.06-0.002-0.091-0.005
			c-0.031-0.004-0.062-0.009-0.093-0.016c-0.031-0.006-0.061-0.015-0.09-0.025c-0.028-0.01-0.055-0.021-0.079-0.036V21.594z"/>
		<path fill="#FFFFFF" d="M86.568,21.594h0.123l0.049,0.107c0.012,0.011,0.023,0.021,0.035,0.031c0.013,0.01,0.026,0.02,0.041,0.028
			c0.016,0.009,0.032,0.015,0.05,0.021c0.019,0.007,0.039,0.01,0.062,0.012c0.062,0.003,0.11-0.008,0.146-0.033
			c0.035-0.024,0.054-0.061,0.054-0.109c0-0.021-0.008-0.041-0.021-0.059c-0.015-0.017-0.033-0.033-0.057-0.048
			s-0.05-0.029-0.08-0.043c-0.031-0.015-0.062-0.028-0.095-0.044c-0.041-0.019-0.08-0.039-0.118-0.061
			c-0.037-0.023-0.071-0.048-0.101-0.076c-0.028-0.027-0.052-0.059-0.069-0.094c-0.017-0.036-0.024-0.076-0.024-0.123
			c0.001-0.035,0.008-0.066,0.021-0.093c0.013-0.028,0.029-0.052,0.051-0.074c0.021-0.021,0.045-0.04,0.072-0.055
			c0.028-0.016,0.057-0.028,0.088-0.038c0.03-0.01,0.061-0.017,0.093-0.022c0.031-0.005,0.062-0.008,0.09-0.009
			c0.034,0,0.066,0.001,0.1,0.004c0.032,0.003,0.063,0.007,0.093,0.013c0.029,0.005,0.057,0.012,0.081,0.019
			c0.024,0.007,0.045,0.014,0.062,0.022v0.23h-0.126l-0.048-0.111c-0.017-0.019-0.037-0.035-0.062-0.049
			c-0.024-0.014-0.053-0.021-0.086-0.021c-0.022,0-0.044,0.002-0.064,0.006c-0.02,0.004-0.038,0.011-0.053,0.021
			c-0.016,0.01-0.028,0.021-0.037,0.036s-0.014,0.032-0.014,0.053c-0.001,0.023,0.005,0.045,0.016,0.063
			c0.012,0.019,0.026,0.036,0.045,0.052c0.02,0.017,0.042,0.031,0.067,0.045s0.052,0.027,0.08,0.041
			c0.04,0.019,0.081,0.037,0.122,0.057c0.042,0.02,0.079,0.041,0.113,0.067c0.033,0.026,0.061,0.056,0.082,0.091
			s0.032,0.078,0.032,0.127c0,0.057-0.013,0.106-0.036,0.148c-0.024,0.041-0.058,0.074-0.099,0.102
			c-0.042,0.025-0.091,0.045-0.146,0.058c-0.056,0.013-0.115,0.02-0.178,0.02c-0.029,0-0.06-0.002-0.091-0.005
			c-0.031-0.004-0.062-0.009-0.093-0.016c-0.031-0.006-0.061-0.015-0.09-0.025c-0.028-0.01-0.055-0.021-0.079-0.036V21.594z"/>
		<path fill="#FFFFFF" d="M88.161,22.229v-1.148L88.032,21v-0.091l0.303-0.09l0.056,0.019v0.115c0.007-0.011,0.02-0.024,0.037-0.04
			c0.019-0.015,0.04-0.03,0.067-0.045c0.026-0.015,0.057-0.027,0.092-0.038c0.035-0.011,0.074-0.016,0.116-0.016
			c0.054,0,0.105,0.009,0.156,0.027c0.05,0.018,0.094,0.047,0.133,0.087s0.069,0.094,0.093,0.16
			c0.022,0.065,0.034,0.147,0.034,0.244c0,0.078-0.014,0.152-0.042,0.222c-0.028,0.07-0.066,0.131-0.116,0.184
			s-0.108,0.094-0.178,0.125c-0.068,0.03-0.143,0.046-0.224,0.046c-0.027,0-0.055-0.002-0.08-0.007
			c-0.025-0.004-0.047-0.009-0.064-0.013l0.009,0.195v0.146l0.191,0.023v0.107h-0.58v-0.107L88.161,22.229z M88.424,21.699
			c0.006,0.012,0.015,0.021,0.026,0.031c0.012,0.008,0.025,0.016,0.041,0.021c0.016,0.007,0.033,0.012,0.053,0.016
			c0.019,0.003,0.038,0.004,0.059,0.004c0.028,0,0.058-0.006,0.088-0.02c0.03-0.012,0.058-0.035,0.082-0.066
			c0.025-0.031,0.046-0.072,0.062-0.123s0.024-0.115,0.024-0.191c0.001-0.08-0.007-0.146-0.023-0.199s-0.037-0.095-0.062-0.126
			c-0.026-0.031-0.055-0.053-0.086-0.065c-0.031-0.013-0.062-0.019-0.092-0.019c-0.021,0-0.041,0.003-0.06,0.009
			c-0.018,0.005-0.033,0.012-0.048,0.021c-0.015,0.008-0.027,0.017-0.038,0.025s-0.02,0.017-0.026,0.024l0.001,0.352V21.699z"/>
		<path fill="#FFFFFF" d="M89.28,21.354c0.001-0.09,0.017-0.169,0.047-0.236c0.03-0.068,0.069-0.124,0.119-0.168
			c0.049-0.045,0.106-0.079,0.17-0.101c0.064-0.022,0.132-0.035,0.201-0.036c0.081-0.001,0.153,0.011,0.216,0.035
			s0.115,0.06,0.158,0.105c0.043,0.046,0.075,0.102,0.097,0.167c0.022,0.065,0.033,0.139,0.033,0.221
			c-0.001,0.092-0.015,0.172-0.044,0.242c-0.028,0.07-0.066,0.129-0.115,0.178c-0.048,0.047-0.104,0.084-0.168,0.108
			c-0.064,0.024-0.132,0.037-0.202,0.037c-0.093,0-0.173-0.015-0.238-0.044s-0.118-0.07-0.159-0.121s-0.07-0.109-0.089-0.176
			S89.279,21.429,89.28,21.354z M89.801,21.785c0.048,0,0.087-0.011,0.118-0.033c0.03-0.023,0.055-0.055,0.073-0.094
			c0.018-0.039,0.03-0.084,0.037-0.137c0.008-0.053,0.011-0.108,0.011-0.167c0-0.052-0.003-0.104-0.011-0.153
			c-0.008-0.051-0.021-0.096-0.038-0.135s-0.041-0.072-0.071-0.096s-0.067-0.037-0.112-0.038c-0.048-0.001-0.087,0.01-0.118,0.031
			c-0.031,0.022-0.057,0.051-0.076,0.088c-0.02,0.037-0.033,0.08-0.04,0.128c-0.008,0.05-0.012,0.102-0.012,0.156
			c0,0.032,0.001,0.065,0.005,0.1c0.003,0.035,0.009,0.069,0.017,0.103c0.009,0.033,0.019,0.065,0.031,0.095
			s0.027,0.056,0.045,0.078c0.018,0.023,0.038,0.041,0.062,0.055C89.745,21.778,89.771,21.785,89.801,21.785z"/>
		<path fill="#FFFFFF" d="M90.485,21.779l0.14-0.025v-0.656l-0.123-0.105v-0.074l0.321-0.1l0.062,0.021v0.916l0.142,0.023v0.105
			h-0.541V21.779z M90.723,20.631c-0.021,0-0.041-0.003-0.06-0.01c-0.02-0.007-0.037-0.017-0.052-0.029s-0.026-0.028-0.035-0.046
			c-0.01-0.019-0.014-0.039-0.014-0.062c0-0.025,0.005-0.049,0.017-0.071c0.011-0.021,0.025-0.041,0.044-0.056
			c0.019-0.016,0.039-0.028,0.062-0.037c0.022-0.009,0.045-0.014,0.067-0.014c0.028,0,0.052,0.004,0.071,0.012
			c0.021,0.008,0.037,0.019,0.05,0.032c0.013,0.014,0.022,0.029,0.029,0.048c0.006,0.018,0.009,0.038,0.009,0.058
			c0,0.026-0.006,0.051-0.017,0.072c-0.011,0.022-0.024,0.041-0.042,0.056c-0.019,0.015-0.038,0.027-0.061,0.035
			C90.769,20.627,90.746,20.631,90.723,20.631z"/>
		<path fill="#FFFFFF" d="M91.176,21.779l0.12-0.021v-0.676L91.167,21v-0.091l0.303-0.09l0.058,0.019v0.135
			c0.022-0.021,0.049-0.041,0.079-0.06c0.03-0.019,0.062-0.035,0.096-0.048c0.034-0.014,0.068-0.024,0.104-0.032
			c0.035-0.008,0.069-0.013,0.104-0.013c0.059,0,0.107,0.008,0.146,0.025c0.04,0.018,0.071,0.044,0.096,0.08
			c0.023,0.036,0.04,0.081,0.051,0.134c0.01,0.054,0.015,0.116,0.015,0.188v0.51l0.139,0.023v0.105h-0.539v-0.105l0.136-0.025
			v-0.471c0-0.053-0.002-0.098-0.007-0.134c-0.006-0.036-0.016-0.066-0.029-0.089c-0.015-0.022-0.035-0.039-0.062-0.048
			c-0.026-0.009-0.061-0.014-0.104-0.013c-0.012,0-0.025,0.002-0.041,0.005s-0.032,0.007-0.05,0.013s-0.035,0.012-0.052,0.021
			c-0.018,0.008-0.034,0.017-0.049,0.028v0.691l0.125,0.023v0.105h-0.51V21.779z"/>
		<path fill="#FFFFFF" d="M92.607,20.989h-0.142v-0.09c0.021-0.004,0.04-0.009,0.058-0.013c0.017-0.004,0.032-0.009,0.045-0.014
			c0.014-0.005,0.025-0.012,0.036-0.019c0.011-0.008,0.021-0.018,0.029-0.03c0.008-0.01,0.016-0.022,0.024-0.04
			c0.008-0.017,0.017-0.035,0.024-0.056c0.009-0.021,0.017-0.042,0.024-0.065s0.015-0.046,0.021-0.068h0.128v0.248h0.315v0.146
			h-0.307v0.396c0,0.078,0.001,0.141,0.004,0.188s0.009,0.084,0.017,0.109c0.009,0.025,0.02,0.041,0.034,0.05
			c0.015,0.008,0.033,0.012,0.057,0.012c0.014,0,0.029-0.001,0.046-0.003c0.018-0.002,0.034-0.005,0.05-0.008
			c0.017-0.004,0.031-0.008,0.045-0.013c0.015-0.005,0.025-0.01,0.033-0.015l0.04,0.096c-0.014,0.016-0.033,0.029-0.059,0.043
			c-0.024,0.014-0.053,0.024-0.083,0.033c-0.031,0.01-0.063,0.017-0.097,0.022c-0.034,0.005-0.067,0.008-0.101,0.008
			c-0.045,0-0.083-0.006-0.114-0.019c-0.031-0.012-0.056-0.03-0.075-0.056c-0.02-0.024-0.033-0.058-0.042-0.097
			s-0.013-0.085-0.013-0.139V20.989z"/>
		<path fill="#FFFFFF" d="M93.36,21.594h0.123l0.049,0.107c0.012,0.011,0.023,0.021,0.035,0.031c0.013,0.01,0.026,0.02,0.041,0.028
			c0.016,0.009,0.032,0.015,0.05,0.021c0.019,0.007,0.039,0.01,0.062,0.012c0.062,0.003,0.11-0.008,0.146-0.033
			c0.035-0.024,0.054-0.061,0.054-0.109c0-0.021-0.008-0.041-0.021-0.059c-0.015-0.017-0.033-0.033-0.057-0.048
			s-0.05-0.029-0.08-0.043c-0.031-0.015-0.062-0.028-0.095-0.044c-0.041-0.019-0.08-0.039-0.118-0.061
			c-0.037-0.023-0.071-0.048-0.101-0.076c-0.028-0.027-0.052-0.059-0.069-0.094c-0.017-0.036-0.024-0.076-0.024-0.123
			c0.001-0.035,0.008-0.066,0.021-0.093c0.013-0.028,0.029-0.052,0.051-0.074c0.021-0.021,0.045-0.04,0.072-0.055
			c0.028-0.016,0.057-0.028,0.088-0.038c0.03-0.01,0.061-0.017,0.093-0.022c0.031-0.005,0.062-0.008,0.09-0.009
			c0.034,0,0.066,0.001,0.1,0.004c0.032,0.003,0.063,0.007,0.093,0.013c0.029,0.005,0.057,0.012,0.081,0.019
			c0.024,0.007,0.045,0.014,0.062,0.022v0.23h-0.126l-0.048-0.111c-0.017-0.019-0.037-0.035-0.062-0.049
			c-0.024-0.014-0.053-0.021-0.086-0.021c-0.022,0-0.044,0.002-0.064,0.006c-0.02,0.004-0.038,0.011-0.053,0.021
			c-0.016,0.01-0.028,0.021-0.037,0.036s-0.014,0.032-0.014,0.053c-0.001,0.023,0.005,0.045,0.016,0.063
			c0.012,0.019,0.026,0.036,0.045,0.052c0.02,0.017,0.042,0.031,0.067,0.045s0.052,0.027,0.08,0.041
			c0.04,0.019,0.081,0.037,0.122,0.057c0.042,0.02,0.079,0.041,0.113,0.067c0.033,0.026,0.061,0.056,0.082,0.091
			s0.032,0.078,0.032,0.127c0,0.057-0.013,0.106-0.036,0.148c-0.024,0.041-0.058,0.074-0.099,0.102
			c-0.042,0.025-0.091,0.045-0.146,0.058c-0.056,0.013-0.115,0.02-0.178,0.02c-0.029,0-0.06-0.002-0.091-0.005
			c-0.031-0.004-0.062-0.009-0.093-0.016c-0.031-0.006-0.061-0.015-0.09-0.025c-0.028-0.01-0.055-0.021-0.079-0.036V21.594z"/>
	</g>
	<g>
		<path fill="#FFFFFF" d="M87.632,17.818v0.603h-3.506v-0.513l1.878-1.947c0.203-0.204,0.364-0.406,0.485-0.606
			c0.119-0.201,0.18-0.375,0.18-0.523c0-0.217-0.084-0.388-0.253-0.513c-0.169-0.125-0.4-0.187-0.696-0.187
			c-0.227,0-0.462,0.052-0.707,0.156s-0.467,0.249-0.665,0.433l-0.284-0.506c0.263-0.212,0.544-0.377,0.842-0.496
			c0.298-0.118,0.597-0.177,0.897-0.177c0.472,0,0.849,0.109,1.133,0.326c0.284,0.217,0.427,0.508,0.427,0.874
			c0,0.43-0.301,0.956-0.901,1.58l-1.462,1.497H87.632z"/>
		<path fill="#FFFFFF" d="M88.862,17.814c0.191,0.053,0.383,0.08,0.572,0.08c0.462,0,0.816-0.163,1.063-0.488
			s0.371-0.771,0.371-1.334c0-0.088-0.003-0.155-0.007-0.201c-0.116,0.268-0.293,0.471-0.53,0.61
			c-0.238,0.139-0.526,0.208-0.863,0.208c-0.48,0-0.859-0.139-1.137-0.416c-0.276-0.277-0.415-0.651-0.415-1.123
			c0-0.328,0.069-0.613,0.207-0.856c0.139-0.242,0.334-0.428,0.586-0.558s0.544-0.194,0.877-0.194c0.397,0,0.741,0.093,1.032,0.277
			c0.291,0.185,0.514,0.453,0.669,0.804c0.154,0.352,0.232,0.772,0.232,1.261c0,0.513-0.083,0.963-0.25,1.352
			c-0.166,0.388-0.404,0.688-0.714,0.901s-0.67,0.319-1.081,0.319c-0.227,0-0.467-0.034-0.721-0.101s-0.48-0.153-0.679-0.26
			l0.263-0.506C88.496,17.687,88.671,17.761,88.862,17.814z M88.838,14.395c-0.198,0.185-0.298,0.439-0.298,0.762
			c0,0.305,0.095,0.547,0.284,0.728c0.189,0.181,0.443,0.271,0.763,0.271c0.235,0,0.439-0.047,0.613-0.142
			c0.173-0.095,0.306-0.222,0.398-0.381c0.092-0.159,0.139-0.331,0.139-0.516c0-0.157-0.041-0.313-0.121-0.468
			c-0.081-0.155-0.205-0.282-0.371-0.381c-0.166-0.1-0.372-0.149-0.617-0.149C89.3,14.117,89.037,14.21,88.838,14.395z"/>
	</g>
</g>
</svg>
