<svg width="60px" height="50px" viewBox="0 0 60 50" version="1.1" xmlns="http://www.w3.org/2000/svg" xmlns:xlink="http://www.w3.org/1999/xlink">
    <!-- Generator: Sketch 47.1 (45422) - http://www.bohemiancoding.com/sketch -->
    <desc>Created with Sketch.</desc>
    <defs>
        <circle id="path-1" cx="15" cy="14.5" r="14.5"></circle>
        <path d="M60,19 C60,19 48,0 30,0 C12,0 0,19 0,19" id="path-3"></path>
        <path d="M60,19 C60,19 48,0 30,0 C12,0 0,19 0,19" id="path-5"></path>
    </defs>
    <g id="Page-1" stroke="none" stroke-width="1" fill="none" fill-rule="evenodd">
        <g id="eye-slash-book-gray" transform="translate(0.000000, 2.000000)">
            <g id="circle" transform="translate(15.000000, 4.000000)">
                <g id="path-1-Clipped">
                    <mask id="mask-2" fill="white">
                        <use xlink:href="#path-1"></use>
                    </mask>
                    <g id="path-1"></g>
                    <circle id="path-1" stroke="#FFFFFF" stroke-width="8" mask="url(#mask-2)" cx="15" cy="14.5" r="14.5"></circle>
                </g>
            </g>
            <g id="arc1" transform="translate(0.000000, 4.000000)">
                <g id="path-3-Clipped">
                    <mask id="mask-4" fill="white">
                        <use xlink:href="#path-3"></use>
                    </mask>
                    <g id="path-3"></g>
                    <path d="M60,19 C60,19 48,0 30,0 C12,0 0,19 0,19" id="path-3" stroke="#FFFFFF" stroke-width="8" mask="url(#mask-4)"></path>
                </g>
            </g>
            <g id="arc2" transform="translate(30.000000, 32.500000) scale(-1, 1) rotate(-180.000000) translate(-30.000000, -32.500000) translate(0.000000, 23.000000)">
                <g id="path-5-Clipped">
                    <mask id="mask-6" fill="white">
                        <use xlink:href="#path-5"></use>
                    </mask>
                    <g id="path-5"></g>
                    <path d="M60,19 C60,19 48,0 30,0 C12,0 0,19 0,19" id="path-5" stroke="#FFFFFF" stroke-width="8" mask="url(#mask-6)"></path>
                </g>
            </g>
            <path d="M7,46 L53,0" id="line" stroke="#FFFFFF" stroke-width="4"></path>
        </g>
    </g>
</svg>