<?xml version="1.0" encoding="utf-8"?>
<!-- Generator: Adobe Illustrator 16.0.4, SVG Export Plug-In . SVG Version: 6.00 Build 0)  -->
<!DOCTYPE svg PUBLIC "-//W3C//DTD SVG 1.1//EN" "http://www.w3.org/Graphics/SVG/1.1/DTD/svg11.dtd">
<svg version="1.1" id="LinkedIn" xmlns="http://www.w3.org/2000/svg" xmlns:xlink="http://www.w3.org/1999/xlink" x="0px" y="0px"
	 width="100px" height="75px" viewBox="0 0 100 75" enable-background="new 0 0 100 75" xml:space="preserve">
<path fill="#FFFFFF" d="M31.25,11.25c0,4.125-2.625,7.5-7.5,7.5c-4.5,0-7.5-3.375-7.5-7.125c0-4.125,3-7.875,7.5-7.875
	S31.25,7.125,31.25,11.25z M16.25,71.25h15V22.5h-15V71.25z M67.25,23.25c-7.875,0-12.375,4.5-14.25,7.5h-0.375l-0.75-6.375h-13.5
	c0,4.125,0.375,9,0.375,14.625v32.25h15V44.625c0-1.5,0-2.625,0.375-3.75c1.125-2.625,3-6,7.125-6c5.25,0,7.5,4.5,7.5,10.5V71.25h15
	V43.5C83.75,29.625,76.625,23.25,67.25,23.25z"/>
</svg>
