<?xml version="1.0" encoding="utf-8"?>
<!-- Generator: Adobe Illustrator 16.0.4, SVG Export Plug-In . SVG Version: 6.00 Build 0)  -->
<!DOCTYPE svg PUBLIC "-//W3C//DTD SVG 1.1//EN" "http://www.w3.org/Graphics/SVG/1.1/DTD/svg11.dtd">
<svg version="1.1" id="Layer_2" xmlns="http://www.w3.org/2000/svg" xmlns:xlink="http://www.w3.org/1999/xlink" x="0px" y="0px"
	 width="64px" height="64px" viewBox="0 0 64 64" enable-background="new 0 0 64 64" xml:space="preserve">
<path fill="#999999" d="M2.015,49.398c6.777,0.563,12.737-0.959,18.114-5.097c-5.626-0.485-9.375-3.295-11.507-8.598h5.308
	c0.006-0.076,0.014-0.149,0.02-0.228c-5.989-1.819-9.238-5.795-9.675-12.222c1.807,0.854,3.53,1.477,5.458,1.511
	c-5.444-4.514-6.652-9.938-3.729-16.48c6.78,7.905,15.187,12.261,25.404,12.942c0-1.648-0.131-3.196,0.022-4.716
	c0.499-5.033,5.212-9.672,10.247-10.287c4.066-0.496,7.611,0.505,10.589,3.377c0.205,0.196,0.649,0.284,0.94,0.224
	c2.229-0.465,4.349-1.245,6.349-2.336c0.221-0.122,0.446-0.224,0.823-0.411c-0.916,2.884-2.655,4.937-4.981,6.669
	c0.722-0.127,1.451-0.232,2.166-0.391c0.722-0.165,1.435-0.36,2.138-0.581c0.723-0.224,1.432-0.497,2.286-0.602
	c-0.942,1.098-1.848,2.235-2.842,3.284c-0.729,0.771-1.547,1.48-2.397,2.121c-0.59,0.439-0.781,0.885-0.776,1.633
	c0.041,4.88-0.806,9.606-2.744,14.103c-2.963,6.873-7.414,12.547-13.826,16.527c-4.729,2.932-9.937,4.504-15.492,4.92
	c-5.07,0.383-10.015-0.174-14.813-1.871C6.67,52.033,4.374,50.928,2.015,49.398"/>
</svg>
