<?xml version="1.0" encoding="utf-8"?>
<!-- Generator: Adobe Illustrator 16.0.4, SVG Export Plug-In . SVG Version: 6.00 Build 0)  -->
<!DOCTYPE svg PUBLIC "-//W3C//DTD SVG 1.1//EN" "http://www.w3.org/Graphics/SVG/1.1/DTD/svg11.dtd">
<svg version="1.1" id="Layer_1" xmlns="http://www.w3.org/2000/svg" xmlns:xlink="http://www.w3.org/1999/xlink" x="0px" y="0px"
	 width="64px" height="64px" viewBox="0 0 64 64" enable-background="new 0 0 64 64" xml:space="preserve">
<title>arrow-book</title>
<desc>Created with Sketch.</desc>
<path d="M52.165,29.13H11.926c-0.708,0-1.376,0.345-1.792,0.919c-0.412,0.581-0.341,1.325-0.3,1.995l-0.03,25.942
	c0.304,0.893,1.144,1.5,2.085,1.5h40.255c0.948,0,1.793-0.607,2.09-1.508l0.018-25.938c0-1.063,0.111-1.41-0.297-1.991
	C53.538,29.471,52.878,29.13,52.165,29.13z M50.5,55.076H13.479l-0.02-21.536H50.5V55.076z"/>
<path d="M20.484,29.125c0,0,0.014-9.382,0.014-9.696c0-6.341,5.16-11.501,11.501-11.501c6.342,0,11.502,5.16,11.502,11.501
	c0,1.219,0.989,2.205,2.204,2.205c1.223,0,2.209-0.986,2.209-2.205c0-8.775-7.141-15.911-15.915-15.911
	c-8.775,0-15.915,7.136-15.915,15.911c0.001,0.359,0.024,9.696,0.024,9.696H20.484z"/>
</svg>
