<?xml version="1.0" encoding="utf-8"?>
<!-- Generator: Adobe Illustrator 16.0.4, SVG Export Plug-In . SVG Version: 6.00 Build 0)  -->
<!DOCTYPE svg PUBLIC "-//W3C//DTD SVG 1.1//EN" "http://www.w3.org/Graphics/SVG/1.1/DTD/svg11.dtd">
<svg version="1.1" id="Layer_1" xmlns="http://www.w3.org/2000/svg" xmlns:xlink="http://www.w3.org/1999/xlink" x="0px" y="0px"
	 width="64px" height="64px" viewBox="0 0 64 64" enable-background="new 0 0 64 64" xml:space="preserve">
<title>chevron-book</title>
<desc>Created with Sketch.</desc>
<rect x="4.5" y="4" width="10" height="10"/>
<rect x="27" y="4" width="10" height="10"/>
<rect x="49.5" y="4" width="10" height="10"/>
<rect x="4.5" y="50" width="10" height="10"/>
<rect x="27" y="50" width="10" height="10"/>
<rect x="49.5" y="50" width="10" height="10"/>
<rect x="4.5" y="27" width="10" height="10"/>
<rect x="27" y="27" width="10" height="10"/>
<rect x="38.25" y="4" width="10" height="10"/>
<rect x="38.25" y="50" width="10" height="10"/>
<rect x="38.25" y="27" width="10" height="10"/>
<rect x="15.75" y="4" width="10" height="10"/>
<rect x="4.5" y="15.5" width="10" height="10"/>
<rect x="27" y="15.5" width="10" height="10"/>
<rect x="49.5" y="15.5" width="10" height="10"/>
<rect x="38.25" y="15.5" width="10" height="10"/>
<rect x="15.75" y="15.5" width="10" height="10"/>
<rect x="4.5" y="38.5" width="10" height="10"/>
<rect x="27" y="38.5" width="10" height="10"/>
<rect x="49.5" y="38.5" width="10" height="10"/>
<rect x="38.25" y="38.5" width="10" height="10"/>
<rect x="15.75" y="38.5" width="10" height="10"/>
<rect x="15.75" y="50" width="10" height="10"/>
<rect x="15.75" y="27" width="10" height="10"/>
<rect x="49.5" y="27" width="10" height="10"/>
</svg>
