<?xml version="1.0" encoding="utf-8"?>
<!-- Generator: Adobe Illustrator 16.0.4, SVG Export Plug-In . SVG Version: 6.00 Build 0)  -->
<!DOCTYPE svg PUBLIC "-//W3C//DTD SVG 1.1//EN" "http://www.w3.org/Graphics/SVG/1.1/DTD/svg11.dtd">
<svg version="1.1" id="Layer_1" xmlns="http://www.w3.org/2000/svg" xmlns:xlink="http://www.w3.org/1999/xlink" x="0px" y="0px"
	 width="200px" height="75px" viewBox="0 0 200 75" enable-background="new 0 0 200 75" xml:space="preserve">
<g>
	<path fill="#ED1C24" d="M21.972,15.242H9.388c0.065,1.437,0.434,2.556,1.108,3.352c0.674,0.8,1.785,1.198,3.327,1.198
		c0.771,0,1.664-0.109,2.677-0.326c1.011-0.219,2.176-0.577,3.493-1.076c1.062,1.096,1.72,2.581,1.978,4.451
		c-2.581,1.837-5.742,2.758-9.484,2.758c-2.033,0-3.737-0.322-5.107-0.967c-1.371-0.646-2.484-1.549-3.338-2.71
		c-0.855-1.161-1.461-2.533-1.816-4.113c-0.354-1.581-0.531-3.307-0.531-5.18c0-1.804,0.216-3.475,0.652-5.008
		C2.782,6.09,3.444,4.758,4.331,3.629c0.887-1.128,2.016-2.016,3.388-2.663C9.091,0.322,10.696,0,12.535,0
		c1.547,0,2.942,0.258,4.187,0.774C17.962,1.291,19.019,2,19.89,2.903c0.872,0.904,1.54,1.983,2.008,3.243
		c0.468,1.258,0.702,2.629,0.702,4.113C22.599,12.225,22.389,13.887,21.972,15.242z M9.339,10.017h6.34V9.484
		c0-1.194-0.266-2.178-0.793-2.952c-0.529-0.774-1.32-1.162-2.376-1.162c-1.025,0-1.785,0.362-2.282,1.088
		C9.732,7.184,9.436,8.372,9.339,10.017z"/>
	<path fill="#ED1C24" d="M33.874,19.114l4.211-18.341c0.903-0.194,1.918-0.292,3.049-0.292c1.386,0,2.596,0.195,3.628,0.582
		l0.241,0.338c-3.29,12.002-5.534,19.827-6.724,23.472c-1.646,0.194-3.382,0.29-5.204,0.29c-1.823,0-3.12-0.25-3.896-0.75
		c-0.773-0.5-1.372-1.459-1.789-2.879L21.583,1.305c1.581-0.676,2.982-1.016,4.209-1.016c1.225,0,2.178,0.266,2.856,0.799
		c0.677,0.533,1.178,1.445,1.5,2.733l2.177,9.051c0.161,0.612,0.516,2.565,1.064,5.855C33.422,18.984,33.584,19.114,33.874,19.114z"
		/>
	<path fill="#ED1C24" d="M62.909,2.854c2.324,2.322,3.485,5.645,3.485,9.969c0,1.935-0.251,3.694-0.75,5.274
		c-0.5,1.583-1.228,2.928-2.178,4.042c-0.952,1.113-2.122,1.967-3.509,2.563c-1.386,0.598-2.985,0.896-4.79,0.896
		c-1.807,0-3.397-0.307-4.768-0.92c-1.372-0.611-2.533-1.475-3.483-2.587c-0.952-1.114-1.669-2.459-2.154-4.042
		c-0.484-1.58-0.725-3.32-0.725-5.225c0-1.935,0.241-3.686,0.725-5.251c0.485-1.565,1.194-2.91,2.13-4.041
		c0.935-1.129,2.097-2,3.484-2.614C51.763,0.306,53.36,0,55.168,0C58.36-0.001,60.942,0.95,62.909,2.854z M55.191,5.661
		c-0.715,0-1.292,0.17-1.73,0.508c-0.439,0.339-0.788,0.799-1.047,1.38c-0.261,0.58-0.44,1.25-0.537,2.008
		c-0.097,0.758-0.146,1.573-0.146,2.444c0,1.355,0.04,2.524,0.122,3.507c0.081,0.984,0.243,1.807,0.488,2.469
		c0.243,0.661,0.584,1.153,1.024,1.476c0.437,0.321,1.014,0.484,1.729,0.484c1.429,0,2.371-0.622,2.827-1.864
		c0.454-1.24,0.683-3.008,0.683-5.299c0-2.321-0.229-4.089-0.683-5.299C57.465,6.266,56.555,5.661,55.191,5.661z"/>
	<path fill="#ED1C24" d="M81.299,14.855H67.653c-0.195-0.806-0.293-1.815-0.293-3.025s0.098-2.217,0.293-3.025h13.646
		c0.192,0.808,0.289,1.815,0.289,3.025S81.492,14.049,81.299,14.855z"/>
	<path fill="#ED1C24" d="M17.275,39.046c0.195,0.896,0.29,1.791,0.29,2.687c0,0.895-0.095,1.772-0.29,2.637l-5.758-0.098v11.133
		c0,1.516,0.709,2.272,2.129,2.272h2.709c0.419,1.171,0.63,2.244,0.63,3.222c0,0.977-0.064,1.674-0.194,2.1
		c-2.387,0.324-4.581,0.484-6.581,0.484c-4.065,0-6.097-2.246-6.097-6.742V44.32l-3.774,0.049C0.113,43.57,0,42.699,0,41.753
		c0-0.94,0.113-1.844,0.339-2.707l3.774,0.097v-2.808c0-1.646,0.314-2.815,0.942-3.507c0.63-0.693,1.686-1.042,3.171-1.042h2.952
		l0.338,0.34v7.017L17.275,39.046z"/>
	<path fill="#ED1C24" d="M36.245,41.225c2.325,2.321,3.485,5.645,3.485,9.969c0,1.936-0.251,3.692-0.75,5.272
		c-0.5,1.582-1.228,2.929-2.178,4.043c-0.952,1.111-2.121,1.968-3.509,2.562c-1.387,0.599-2.984,0.896-4.79,0.896
		c-1.808,0-3.396-0.307-4.768-0.922c-1.373-0.611-2.533-1.475-3.483-2.586c-0.953-1.115-1.67-2.459-2.154-4.043
		c-0.485-1.58-0.726-3.32-0.726-5.225c0-1.937,0.241-3.687,0.726-5.252c0.484-1.562,1.193-2.908,2.129-4.041
		c0.934-1.129,2.097-2,3.483-2.613c1.389-0.611,2.985-0.918,4.792-0.918C31.696,38.369,34.277,39.318,36.245,41.225z M28.527,44.03
		c-0.716,0-1.293,0.171-1.731,0.509c-0.439,0.338-0.788,0.799-1.047,1.379c-0.261,0.58-0.44,1.25-0.537,2.009
		c-0.097,0.759-0.146,1.573-0.146,2.444c0,1.354,0.041,2.523,0.121,3.506c0.082,0.984,0.244,1.807,0.489,2.469
		c0.244,0.662,0.583,1.154,1.023,1.475c0.438,0.322,1.015,0.486,1.73,0.486c1.428,0,2.371-0.623,2.827-1.865
		c0.454-1.237,0.683-3.006,0.683-5.299c0-2.322-0.229-4.088-0.683-5.297C30.8,44.636,29.891,44.03,28.527,44.03z"/>
	<path fill="#ED1C24" d="M59.039,41.225c2.324,2.321,3.485,5.645,3.485,9.969c0,1.936-0.251,3.692-0.75,5.272
		c-0.5,1.582-1.228,2.929-2.178,4.043c-0.952,1.111-2.121,1.968-3.509,2.562c-1.386,0.599-2.984,0.896-4.79,0.896
		c-1.808,0-3.396-0.307-4.768-0.922c-1.372-0.611-2.533-1.475-3.483-2.586c-0.953-1.115-1.67-2.459-2.154-4.043
		c-0.484-1.58-0.726-3.32-0.726-5.225c0-1.937,0.241-3.687,0.726-5.252c0.484-1.562,1.194-2.908,2.129-4.041
		c0.935-1.129,2.097-2,3.483-2.613c1.388-0.611,2.985-0.918,4.792-0.918C54.491,38.369,57.072,39.318,59.039,41.225z M51.321,44.03
		c-0.714,0-1.292,0.171-1.729,0.509c-0.44,0.338-0.788,0.799-1.048,1.379c-0.261,0.58-0.439,1.25-0.537,2.009
		c-0.097,0.759-0.146,1.573-0.146,2.444c0,1.354,0.041,2.523,0.121,3.506c0.082,0.984,0.243,1.807,0.488,2.469
		c0.245,0.662,0.584,1.154,1.024,1.475c0.438,0.322,1.016,0.486,1.73,0.486c1.429,0,2.371-0.623,2.828-1.865
		c0.453-1.237,0.683-3.006,0.683-5.299c0-2.322-0.229-4.088-0.683-5.297C53.595,44.636,52.686,44.03,51.321,44.03z"/>
	<path fill="#ED1C24" d="M73.847,57.678h1.306c0.388,1.072,0.582,2.146,0.582,3.221c0,1.076-0.049,1.773-0.145,2.101
		c-1.935,0.324-3.662,0.483-5.178,0.483c-2.195,0-3.75-0.539-4.67-1.621c-0.92-1.079-1.38-2.78-1.38-5.104V27.964l0.29-0.34h2.952
		c1.518,0,2.582,0.34,3.195,1.016c0.612,0.677,0.92,1.852,0.92,3.527v23.239C71.719,56.922,72.429,57.678,73.847,57.678z"/>
	<path fill="#ED1C24" d="M95.625,53.611l1.21,3.533c0.644,2.129,1.418,3.5,2.321,4.112c-1.42,1.582-3.115,2.371-5.082,2.371
		c-1.064,0-1.871-0.25-2.419-0.75c-0.549-0.5-1.033-1.379-1.451-2.637l-1.452-4.162c-0.322-1-0.693-1.67-1.113-2.011
		c-0.42-0.338-0.984-0.508-1.694-0.508c-0.711,0-1.21,0.019-1.501,0.047v9.632c-1.064,0.194-2.29,0.291-3.678,0.291
		c-1.387,0-2.614-0.097-3.678-0.291V27.964l0.338-0.34h2.904c1.518,0,2.582,0.34,3.196,1.017c0.611,0.677,0.917,1.856,0.917,3.532
		v15.196h0.776c0.579,0,1.031-0.289,1.353-0.871l2.517-4.838c0.904-1.84,2.324-2.76,4.26-2.76c0.936,0,2.338,0.033,4.209,0.098
		l0.29,0.387l-3.726,7.211c-0.644,1.228-1.469,2.178-2.468,2.855C93.592,50.16,94.913,51.547,95.625,53.611z"/>
	<path fill="#ED1C24" d="M108.641,44.662v18.583c-0.55,0.098-1.145,0.17-1.791,0.217c-0.645,0.049-1.306,0.072-1.983,0.072
		c-0.679,0-1.349-0.023-2.009-0.072c-0.662-0.047-1.267-0.121-1.814-0.217V47.223c0-1.869-0.758-2.806-2.273-2.806h-0.726
		c-0.194-0.612-0.292-1.467-0.292-2.565c0-1.062,0.097-1.967,0.292-2.709c0.837-0.064,1.613-0.121,2.322-0.17
		c0.709-0.05,1.354-0.072,1.936-0.072h1.065c1.646,0,2.938,0.518,3.871,1.551C108.173,41.48,108.641,42.885,108.641,44.662z
		 M100.171,29.367c0.937-0.516,2.146-0.775,3.631-0.775c1.517,0,2.692,0.26,3.531,0.775c0.388,0.871,0.582,1.807,0.582,2.806
		c0,1.001-0.194,1.937-0.582,2.808c-0.937,0.485-2.162,0.727-3.677,0.727c-1.518,0-2.678-0.241-3.485-0.727
		c-0.387-0.871-0.58-1.807-0.58-2.808C99.592,31.174,99.784,30.238,100.171,29.367z"/>
	<path fill="#ED1C24" d="M126.014,39.046c0.195,0.896,0.289,1.791,0.289,2.687c0,0.895-0.094,1.772-0.289,2.637l-5.759-0.098v11.133
		c0,1.516,0.709,2.272,2.13,2.272h2.709c0.42,1.171,0.629,2.244,0.629,3.222c0,0.977-0.062,1.674-0.193,2.1
		c-2.387,0.324-4.582,0.484-6.582,0.484c-4.064,0-6.096-2.246-6.096-6.742V44.32l-3.775,0.049c-0.227-0.799-0.34-1.671-0.34-2.615
		c0-0.939,0.113-1.844,0.34-2.707l3.775,0.098v-2.809c0-1.646,0.312-2.814,0.94-3.507c0.63-0.693,1.687-1.042,3.171-1.042h2.953
		l0.338,0.34v7.018L126.014,39.046z"/>
	<path fill="#ED1C24" d="M125.628,61.598c0.03-0.838,0.25-1.758,0.651-2.758c0.404-1,0.88-1.791,1.429-2.373
		c2.58,1.354,4.821,2.033,6.728,2.033c0.901,0,1.598-0.152,2.082-0.461c0.48-0.305,0.726-0.717,0.726-1.234
		c0-0.965-0.744-1.693-2.228-2.176l-2.662-1.018c-4.035-1.482-6.051-3.903-6.051-7.26c0-2.449,0.848-4.396,2.541-5.83
		c1.694-1.437,3.977-2.152,6.85-2.152c1.416,0,2.981,0.201,4.691,0.604c1.711,0.403,3.115,0.879,4.211,1.428
		c0.064,0.904-0.113,1.896-0.531,2.979c-0.42,1.08-0.938,1.846-1.549,2.298c-2.709-1.226-4.969-1.841-6.774-1.841
		c-0.646,0-1.138,0.146-1.476,0.438c-0.34,0.291-0.51,0.662-0.51,1.113c0,0.773,0.612,1.389,1.84,1.838l3.002,1.064
		c4.288,1.518,6.436,4.113,6.436,7.793c0,2.418-0.889,4.338-2.66,5.758c-1.773,1.42-4.309,2.129-7.6,2.129
		S128.436,63.178,125.628,61.598z"/>
</g>
</svg>
