<?xml version="1.0" encoding="utf-8"?>
<!-- Generator: Adobe Illustrator 16.0.4, SVG Export Plug-In . SVG Version: 6.00 Build 0)  -->
<!DOCTYPE svg PUBLIC "-//W3C//DTD SVG 1.1//EN" "http://www.w3.org/Graphics/SVG/1.1/DTD/svg11.dtd">
<svg version="1.1" id="Layer_1" xmlns="http://www.w3.org/2000/svg" xmlns:xlink="http://www.w3.org/1999/xlink" x="0px" y="0px"
	 width="200px" height="75px" viewBox="0 0 200 75" enable-background="new 0 0 200 75" xml:space="preserve">
<g>
	<path fill="#00AEEF" d="M20.278,15.245H7.694c0.064,1.437,0.434,2.554,1.108,3.351c0.675,0.8,1.785,1.199,3.327,1.199
		c0.77,0,1.664-0.111,2.677-0.326c1.011-0.221,2.176-0.579,3.493-1.077c1.062,1.097,1.72,2.58,1.978,4.452
		c-2.582,1.836-5.742,2.756-9.485,2.756c-2.032,0-3.737-0.321-5.106-0.968c-1.372-0.646-2.484-1.548-3.34-2.709
		c-0.854-1.161-1.461-2.533-1.815-4.114C0.176,16.228,0,14.504,0,12.63c0-1.804,0.216-3.475,0.652-5.01
		c0.436-1.531,1.097-2.861,1.984-3.99c0.887-1.128,2.017-2.017,3.388-2.664C7.397,0.322,9.001,0,10.84,0
		c1.548,0,2.942,0.259,4.187,0.775c1.24,0.515,2.297,1.224,3.169,2.129c0.871,0.902,1.54,1.983,2.007,3.242
		c0.468,1.258,0.701,2.629,0.701,4.112C20.904,12.228,20.695,13.889,20.278,15.245z M7.645,10.019h6.34V9.487
		c0-1.195-0.265-2.179-0.792-2.952c-0.528-0.775-1.322-1.163-2.377-1.163c-1.024,0-1.785,0.363-2.281,1.088
		C8.038,7.186,7.742,8.374,7.645,10.019z"/>
	<path fill="#00AEEF" d="M32.18,19.117l4.21-18.34c0.904-0.195,1.919-0.292,3.049-0.292c1.386,0,2.596,0.195,3.629,0.581l0.241,0.34
		c-3.291,12-5.534,19.825-6.725,23.471c-1.645,0.195-3.382,0.291-5.203,0.291c-1.824,0-3.121-0.25-3.896-0.751
		c-0.773-0.499-1.372-1.458-1.79-2.878L19.888,1.31c1.581-0.677,2.982-1.015,4.208-1.015s2.178,0.265,2.857,0.798
		c0.677,0.532,1.177,1.444,1.499,2.732l2.179,9.052c0.16,0.612,0.515,2.563,1.064,5.855C31.729,18.986,31.89,19.117,32.18,19.117z"
		/>
	<path fill="#00AEEF" d="M61.215,2.858C63.539,5.18,64.7,8.501,64.7,12.824c0,1.938-0.251,3.695-0.749,5.275
		c-0.501,1.583-1.228,2.927-2.179,4.042c-0.952,1.113-2.122,1.968-3.509,2.564c-1.386,0.598-2.985,0.895-4.791,0.895
		c-1.807,0-3.396-0.306-4.768-0.92c-1.372-0.612-2.532-1.475-3.482-2.586c-0.953-1.115-1.67-2.459-2.154-4.042
		c-0.484-1.581-0.726-3.321-0.726-5.228c0-1.934,0.242-3.684,0.726-5.25c0.484-1.564,1.193-2.909,2.129-4.041
		c0.935-1.128,2.097-2,3.484-2.613c1.387-0.612,2.984-0.918,4.791-0.918C56.667,0.001,59.248,0.951,61.215,2.858z M53.498,5.663
		c-0.715,0-1.292,0.169-1.73,0.509C51.328,6.51,50.979,6.97,50.72,7.55c-0.261,0.581-0.439,1.252-0.536,2.009
		c-0.098,0.758-0.146,1.571-0.146,2.444c0,1.356,0.04,2.525,0.121,3.507c0.082,0.983,0.243,1.806,0.489,2.471
		c0.242,0.659,0.584,1.151,1.023,1.473c0.437,0.322,1.014,0.485,1.73,0.485c1.428,0,2.37-0.623,2.826-1.863
		c0.454-1.24,0.683-3.009,0.683-5.3c0-2.322-0.229-4.087-0.683-5.299C55.771,6.268,54.862,5.663,53.498,5.663z"/>
	<path fill="#00AEEF" d="M79.606,14.856H65.959c-0.194-0.807-0.292-1.815-0.292-3.023c0-1.211,0.097-2.217,0.292-3.027h13.647
		c0.192,0.81,0.289,1.816,0.289,3.027C79.895,13.042,79.798,14.05,79.606,14.856z"/>
	<path fill="#00AEEF" d="M13.292,63.729c-1.48,0-2.958-0.34-4.438-1.016v6.438c0,1.678-0.307,2.854-0.918,3.531
		c-0.614,0.678-1.694,1.016-3.244,1.016H1.789L1.45,73.359V39.096l0.339-0.337h1.983c1.84,0,3.211,0.791,4.115,2.371
		c1.832-1.842,4.066-2.758,6.705-2.758c1.351,0,2.541,0.297,3.57,0.893c1.028,0.598,1.905,1.445,2.628,2.543
		c0.724,1.097,1.271,2.421,1.641,3.968c0.369,1.548,0.553,3.291,0.553,5.226c0,1.938-0.249,3.697-0.747,5.277
		c-0.499,1.58-1.182,2.918-2.048,4.016c-0.867,1.1-1.889,1.943-3.062,2.541C15.952,63.432,14.673,63.729,13.292,63.729z
		 M12.388,44.421c-1.355,0-2.533,0.644-3.533,1.934v10.647c1.226,0.742,2.275,1.111,3.146,1.111c2.192,0,3.291-2.436,3.291-7.305
		C15.292,46.55,14.323,44.421,12.388,44.421z"/>
	<path fill="#00AEEF" d="M45.536,59.76c-0.162,0.68-0.467,1.406-0.92,2.18c-0.452,0.773-0.92,1.336-1.404,1.693
		c-2.257-0.066-4-0.92-5.225-2.564c-2.097,1.938-4.374,2.902-6.824,2.902c-1.258,0-2.355-0.199-3.291-0.605
		c-0.936-0.4-1.726-0.943-2.371-1.617c-0.647-0.68-1.131-1.461-1.453-2.352c-0.322-0.891-0.481-1.812-0.481-2.781
		c0-1.389,0.249-2.604,0.749-3.652c0.5-1.051,1.186-1.92,2.057-2.613c0.872-0.694,1.887-1.22,3.048-1.574
		c1.163-0.353,2.403-0.532,3.729-0.532c0.741,0,1.393,0.008,1.958,0.023c0.563,0.018,1.056,0.043,1.476,0.072v-0.926
		c0-2.062-1.048-3.092-3.146-3.092c-1.355,0-3.726,0.535-7.114,1.602c-0.969-1.131-1.581-2.89-1.84-5.277
		c0.774-0.291,1.638-0.562,2.59-0.824c0.952-0.255,1.927-0.484,2.927-0.675c0.999-0.194,1.984-0.347,2.952-0.46
		c0.968-0.113,1.84-0.17,2.614-0.17c1.129,0,2.217,0.162,3.267,0.486c1.047,0.319,1.968,0.812,2.758,1.475
		c0.79,0.66,1.42,1.516,1.888,2.564c0.466,1.049,0.701,2.299,0.701,3.75v9.827C44.181,58.098,44.634,59.148,45.536,59.76z
		 M30.922,56.131c0,1.516,0.872,2.273,2.614,2.273c0.901,0,1.918-0.467,3.047-1.402v-3.871c-0.645-0.033-1.186-0.057-1.622-0.074
		c-0.436-0.014-0.766-0.023-0.991-0.023C31.937,53.033,30.922,54.064,30.922,56.131z"/>
	<path fill="#00AEEF" d="M61.505,39.048c0.195,0.896,0.291,1.791,0.291,2.687c0,0.894-0.095,1.772-0.291,2.638l-5.758-0.099v11.13
		c0,1.518,0.709,2.273,2.129,2.273h2.708c0.42,1.17,0.63,2.248,0.63,3.221c0,0.979-0.064,1.678-0.194,2.102
		c-2.387,0.322-4.581,0.486-6.581,0.486c-4.064,0-6.097-2.246-6.097-6.746V44.321l-3.775,0.05c-0.225-0.801-0.338-1.671-0.338-2.615
		c0-0.941,0.114-1.848,0.338-2.709l3.775,0.1v-2.809c0-1.646,0.314-2.816,0.942-3.507c0.63-0.694,1.686-1.043,3.17-1.043h2.953
		l0.338,0.342v7.016L61.505,39.048z"/>
	<path fill="#00AEEF" d="M77.186,39.048c0.195,0.896,0.29,1.791,0.29,2.687c0,0.894-0.095,1.772-0.29,2.638l-5.758-0.099v11.13
		c0,1.518,0.709,2.273,2.129,2.273h2.708c0.42,1.17,0.63,2.248,0.63,3.221c0,0.979-0.064,1.678-0.194,2.102
		c-2.387,0.322-4.581,0.486-6.581,0.486c-4.064,0-6.096-2.246-6.096-6.746V44.321l-3.776,0.05c-0.224-0.801-0.337-1.671-0.337-2.615
		c0-0.941,0.113-1.848,0.337-2.709l3.776,0.1v-2.809c0-1.646,0.314-2.816,0.941-3.507c0.63-0.694,1.687-1.043,3.171-1.043h2.953
		l0.338,0.342v7.016L77.186,39.048z"/>
	<path fill="#00AEEF" d="M97.562,53.615H84.977c0.064,1.438,0.433,2.555,1.108,3.35c0.675,0.803,1.786,1.197,3.327,1.197
		c0.77,0,1.664-0.107,2.677-0.322c1.011-0.221,2.177-0.58,3.493-1.076c1.062,1.096,1.721,2.582,1.978,4.451
		c-2.581,1.836-5.742,2.756-9.485,2.756c-2.032,0-3.737-0.32-5.106-0.967c-1.371-0.646-2.484-1.549-3.339-2.711
		c-0.855-1.16-1.46-2.533-1.814-4.111c-0.355-1.58-0.531-3.309-0.531-5.182c0-1.804,0.217-3.475,0.652-5.008
		c0.436-1.533,1.096-2.863,1.984-3.992c0.887-1.125,2.016-2.015,3.387-2.664c1.373-0.642,2.977-0.963,4.817-0.963
		c1.548,0,2.942,0.256,4.186,0.772c1.24,0.517,2.298,1.224,3.169,2.129c0.871,0.904,1.54,1.983,2.008,3.242
		c0.468,1.259,0.701,2.632,0.701,4.114C98.187,50.598,97.979,52.258,97.562,53.615z M84.928,48.389h6.34v-0.533
		c0-1.192-0.266-2.178-0.792-2.951c-0.529-0.776-1.321-1.161-2.377-1.161c-1.025,0-1.785,0.363-2.281,1.09
		C85.321,45.558,85.025,46.744,84.928,48.389z"/>
	<path fill="#00AEEF" d="M98.867,42.583c0.16-0.646,0.466-1.363,0.918-2.152c0.452-0.792,0.903-1.365,1.354-1.723
		c2.969,0.229,5.033,1.696,6.192,4.405c1.228-2.903,3.243-4.354,6.052-4.354c0.838,0,1.902,0.13,3.192,0.388
		c0,0.998-0.17,2.187-0.508,3.556c-0.341,1.373-0.8,2.543-1.378,3.51c-0.551-0.192-1.372-0.354-2.469-0.485
		c-1.615,0-2.938,0.825-3.971,2.471v15.048c-1.064,0.195-2.314,0.291-3.75,0.291c-1.438,0-2.703-0.096-3.799-0.291V47.613
		C100.704,45.195,100.091,43.517,98.867,42.583z"/>
	<path fill="#00AEEF" d="M137.87,47.276v9.917c0,2.131,0.387,3.73,1.161,4.793c-1.226,1.1-2.692,1.646-4.403,1.646
		c-1.677,0-2.824-0.389-3.438-1.16c-0.61-0.775-0.92-1.953-0.92-3.535V48.63c0-1.098-0.145-1.903-0.436-2.42
		s-0.855-0.773-1.693-0.773c-0.481,0-1.031,0.127-1.646,0.388c-0.611,0.257-1.241,0.677-1.886,1.259v16.161
		c-0.55,0.098-1.146,0.172-1.791,0.219s-1.308,0.072-1.983,0.072s-1.34-0.025-1.982-0.072c-0.646-0.047-1.242-0.121-1.791-0.219
		V39.096l0.338-0.337h2.854c1.969,0,3.292,0.966,3.971,2.902c2.256-2,4.5-3,6.727-3c2.257,0,3.977,0.78,5.152,2.346
		C137.281,42.574,137.87,44.664,137.87,47.276z"/>
	<path fill="#00AEEF" d="M139.129,61.602c0.031-0.84,0.249-1.76,0.653-2.758c0.402-1,0.879-1.793,1.429-2.373
		c2.579,1.357,4.822,2.033,6.726,2.033c0.902,0,1.599-0.154,2.082-0.461c0.482-0.307,0.727-0.715,0.727-1.232
		c0-0.969-0.744-1.697-2.229-2.176l-2.66-1.02c-4.033-1.482-6.051-3.901-6.051-7.259c0-2.451,0.849-4.396,2.541-5.833
		c1.694-1.434,3.978-2.148,6.851-2.148c1.418,0,2.981,0.199,4.69,0.604c1.711,0.402,3.114,0.88,4.211,1.429
		c0.064,0.905-0.112,1.894-0.529,2.976c-0.422,1.08-0.938,1.848-1.551,2.299c-2.709-1.229-4.969-1.84-6.775-1.84
		c-0.645,0-1.139,0.146-1.477,0.437c-0.336,0.29-0.508,0.661-0.508,1.116c0,0.771,0.611,1.386,1.84,1.835l3,1.063
		c4.289,1.519,6.438,4.116,6.438,7.793c0,2.418-0.889,4.338-2.662,5.758s-4.309,2.129-7.599,2.129
		C144.985,63.971,141.935,63.182,139.129,61.602z"/>
</g>
</svg>
