<?xml version="1.0" encoding="utf-8"?>
<!-- Generator: Adobe Illustrator 16.0.4, SVG Export Plug-In . SVG Version: 6.00 Build 0)  -->
<!DOCTYPE svg PUBLIC "-//W3C//DTD SVG 1.1//EN" "http://www.w3.org/Graphics/SVG/1.1/DTD/svg11.dtd">
<svg version="1.1" id="Layer_1" xmlns="http://www.w3.org/2000/svg" xmlns:xlink="http://www.w3.org/1999/xlink" x="0px" y="0px"
	 width="200px" height="75px" viewBox="0 0 200 75" enable-background="new 0 0 200 75" xml:space="preserve">
<g>
	<path fill="#ED1C24" d="M20.762,15.243H8.177c0.065,1.437,0.434,2.555,1.109,3.353c0.674,0.799,1.785,1.196,3.326,1.196
		c0.771,0,1.664-0.108,2.677-0.326c1.011-0.218,2.176-0.577,3.493-1.075c1.062,1.096,1.72,2.582,1.978,4.451
		c-2.582,1.838-5.742,2.758-9.485,2.758c-2.032,0-3.736-0.322-5.106-0.967c-1.372-0.646-2.484-1.55-3.339-2.711
		c-0.855-1.16-1.461-2.533-1.816-4.113c-0.354-1.582-0.53-3.308-0.53-5.18c0-1.805,0.216-3.475,0.651-5.008
		c0.436-1.533,1.097-2.864,1.984-3.992C4.007,2.5,5.136,1.613,6.507,0.966C7.879,0.322,9.484,0,11.323,0
		c1.548,0,2.942,0.257,4.186,0.773c1.24,0.517,2.298,1.226,3.169,2.129c0.871,0.904,1.54,1.984,2.007,3.242
		c0.469,1.258,0.701,2.631,0.701,4.113C21.388,12.227,21.179,13.889,20.762,15.243z M8.129,10.018h6.34V9.484
		c0-1.193-0.265-2.178-0.793-2.953c-0.528-0.773-1.321-1.16-2.376-1.16c-1.025,0-1.785,0.363-2.282,1.089S8.226,8.373,8.129,10.018z
		"/>
	<path fill="#ED1C24" d="M32.663,19.115l4.211-18.342c0.903-0.194,1.918-0.291,3.049-0.291c1.385,0,2.595,0.195,3.628,0.58
		l0.241,0.34c-3.29,12-5.533,19.826-6.724,23.471c-1.646,0.195-3.382,0.29-5.204,0.29c-1.824,0-3.12-0.25-3.896-0.75
		c-0.773-0.5-1.372-1.458-1.789-2.878l-5.808-20.23c1.581-0.676,2.982-1.015,4.209-1.015c1.226,0,2.178,0.267,2.856,0.798
		c0.677,0.533,1.177,1.445,1.5,2.732l2.177,9.052c0.161,0.61,0.515,2.565,1.064,5.854C32.212,18.984,32.374,19.115,32.663,19.115z"
		/>
	<path fill="#ED1C24" d="M61.699,2.855c2.324,2.322,3.485,5.646,3.485,9.969c0,1.938-0.251,3.693-0.75,5.273
		c-0.5,1.584-1.228,2.928-2.178,4.043c-0.953,1.112-2.122,1.967-3.51,2.562c-1.385,0.598-2.984,0.896-4.79,0.896
		c-1.807,0-3.396-0.307-4.768-0.92c-1.372-0.611-2.533-1.475-3.483-2.586c-0.952-1.115-1.67-2.461-2.154-4.043
		c-0.484-1.58-0.725-3.32-0.725-5.226c0-1.935,0.241-3.687,0.725-5.251c0.484-1.562,1.193-2.911,2.13-4.041
		c0.934-1.129,2.097-2,3.483-2.613c1.388-0.611,2.985-0.918,4.792-0.918C57.15,0,59.732,0.95,61.699,2.855z M53.981,5.661
		c-0.716,0-1.293,0.17-1.73,0.509c-0.44,0.338-0.788,0.799-1.048,1.379c-0.261,0.58-0.439,1.25-0.537,2.01
		c-0.097,0.756-0.146,1.571-0.146,2.442c0,1.354,0.041,2.524,0.121,3.508c0.082,0.984,0.244,1.808,0.489,2.47
		c0.243,0.66,0.584,1.152,1.023,1.475c0.438,0.322,1.015,0.484,1.731,0.484c1.428,0,2.371-0.621,2.826-1.863
		c0.455-1.24,0.683-3.008,0.683-5.299c0-2.322-0.228-4.088-0.683-5.299C56.255,6.268,55.345,5.661,53.981,5.661z"/>
	<path fill="#ED1C24" d="M80.089,14.855H66.442c-0.194-0.806-0.292-1.814-0.292-3.023c0-1.21,0.097-2.217,0.292-3.025h13.646
		c0.193,0.809,0.29,1.815,0.29,3.025C80.378,13.041,80.282,14.05,80.089,14.855z"/>
	<path fill="#ED1C24" d="M0,61.598c0.03-0.84,0.249-1.758,0.652-2.758c0.404-1,0.88-1.791,1.429-2.371
		C4.659,57.822,6.903,58.5,8.808,58.5c0.902,0,1.597-0.15,2.081-0.459c0.482-0.307,0.725-0.719,0.725-1.232
		c0-0.969-0.744-1.695-2.227-2.178l-2.661-1.02c-4.034-1.482-6.049-3.9-6.049-7.258c0-2.451,0.847-4.396,2.541-5.832
		c1.693-1.438,3.975-2.15,6.848-2.15c1.419,0,2.982,0.199,4.693,0.604c1.71,0.402,3.114,0.879,4.21,1.43
		c0.064,0.902-0.113,1.893-0.531,2.975c-0.422,1.08-0.938,1.848-1.55,2.301c-2.709-1.229-4.968-1.842-6.775-1.842
		c-0.645,0-1.137,0.146-1.476,0.438c-0.338,0.291-0.508,0.662-0.508,1.113c0,0.771,0.611,1.387,1.839,1.838l3.001,1.064
		c4.289,1.516,6.435,4.113,6.435,7.789c0,2.42-0.888,4.34-2.66,5.76c-1.776,1.422-4.309,2.131-7.599,2.131S2.805,63.18,0,61.598z"/>
	<path fill="#ED1C24" d="M35.034,39.047c0.195,0.896,0.29,1.791,0.29,2.688c0,0.893-0.095,1.771-0.29,2.637l-5.759-0.098v11.131
		c0,1.516,0.709,2.275,2.13,2.275h2.708c0.419,1.17,0.63,2.242,0.63,3.221c0,0.975-0.064,1.676-0.194,2.098
		c-2.387,0.324-4.582,0.486-6.582,0.486c-4.064,0-6.097-2.248-6.097-6.744V44.32l-3.774,0.049c-0.225-0.799-0.339-1.67-0.339-2.613
		c0-0.941,0.114-1.846,0.339-2.709l3.774,0.098v-2.808c0-1.646,0.314-2.813,0.942-3.507c0.63-0.693,1.686-1.042,3.171-1.042h2.953
		l0.337,0.34v7.017L35.034,39.047z"/>
	<path fill="#ED1C24" d="M57.491,39.869l-5.953,22.746c-0.937,3.484-2.178,6.162-3.727,8.033c-1.774,2.129-4.5,3.193-8.177,3.193
		c-1.97,0-3.921-0.322-5.856-0.967c-0.097-0.871,0-1.85,0.291-2.93c0.289-1.082,0.693-1.908,1.209-2.492
		c1.454,0.484,2.904,0.727,4.357,0.727c2.387,0,3.967-1.307,4.741-3.918l0.195-0.68c-2.807,0-4.484-1.016-5.033-3.051l-5.615-20.855
		c1.485-0.678,2.871-1.016,4.162-1.016s2.235,0.24,2.833,0.727c0.595,0.482,1.04,1.322,1.329,2.516l2.227,9.293
		c0.226,0.871,0.598,3,1.113,6.387c0.032,0.229,0.162,0.34,0.389,0.34l4.208-18.775c0.776-0.227,1.824-0.338,3.147-0.338
		c1.483,0,2.773,0.176,3.872,0.529L57.491,39.869z"/>
	<path fill="#ED1C24" d="M67.604,57.678h1.308c0.386,1.072,0.581,2.146,0.581,3.221c0,1.076-0.049,1.773-0.146,2.1
		c-1.935,0.324-3.662,0.486-5.177,0.486c-2.195,0-3.75-0.539-4.671-1.621c-0.919-1.08-1.379-2.783-1.379-5.105V27.966l0.29-0.34
		h2.952c1.518,0,2.582,0.34,3.196,1.015c0.611,0.678,0.919,1.853,0.919,3.527v23.24C65.476,56.922,66.185,57.678,67.604,57.678z"/>
	<path fill="#ED1C24" d="M89.673,53.613H77.088c0.065,1.436,0.434,2.555,1.108,3.35c0.675,0.803,1.785,1.199,3.328,1.199
		c0.769,0,1.663-0.107,2.676-0.328c1.011-0.217,2.176-0.578,3.493-1.076c1.061,1.1,1.72,2.582,1.977,4.453
		c-2.581,1.836-5.742,2.758-9.484,2.758c-2.032,0-3.736-0.322-5.106-0.967c-1.372-0.645-2.484-1.551-3.339-2.711
		c-0.855-1.162-1.46-2.533-1.816-4.111c-0.354-1.582-0.53-3.309-0.53-5.182c0-1.805,0.216-3.475,0.652-5.008
		c0.436-1.531,1.096-2.863,1.984-3.992c0.887-1.129,2.015-2.016,3.387-2.662c1.372-0.645,2.977-0.967,4.816-0.967
		c1.548,0,2.942,0.258,4.186,0.773c1.24,0.518,2.298,1.227,3.169,2.131c0.871,0.902,1.54,1.982,2.008,3.24
		c0.468,1.26,0.7,2.631,0.7,4.113C90.298,50.596,90.09,52.256,89.673,53.613z M77.04,48.389h6.339v-0.533
		c0-1.195-0.265-2.178-0.792-2.953c-0.529-0.775-1.321-1.162-2.377-1.162c-1.026,0-1.786,0.363-2.282,1.09
		C77.432,45.555,77.136,46.742,77.04,48.389z"/>
	<path fill="#ED1C24" d="M107.141,40.645c1.096-1.227,2.613-1.871,4.549-1.936c0.516,0.387,1.008,0.967,1.475,1.742
		c0.469,0.773,0.752,1.482,0.85,2.129c-0.904,0.611-1.355,1.771-1.355,3.482v12.775c0,2.971-0.236,5.428-0.703,7.381
		c-0.469,1.949-1.178,3.5-2.129,4.646s-2.152,1.943-3.604,2.396c-1.453,0.449-3.162,0.676-5.131,0.676
		c-3.322,0-6.355-0.531-9.097-1.598c0-0.902,0.176-1.885,0.533-2.951c0.355-1.064,0.79-1.902,1.307-2.518
		c2.161,0.969,4.354,1.453,6.583,1.453c3.257,0,4.888-1.629,4.888-4.887v-1.602c-1.744,1.26-3.582,1.891-5.519,1.891
		c-2.872,0-5.042-1.139-6.51-3.412c-1.468-2.275-2.202-5.363-2.202-9.27c0-1.967,0.249-3.732,0.749-5.299
		c0.501-1.562,1.188-2.895,2.059-3.994c0.87-1.096,1.878-1.934,3.023-2.514c1.146-0.582,2.364-0.871,3.655-0.871
		C103.17,38.369,105.365,39.127,107.141,40.645z M105.301,55.984V45.627c-1.137-1.098-2.211-1.645-3.219-1.645
		c-2.21,0-3.314,2.418-3.314,7.26c0,4.26,0.958,6.387,2.875,6.387C102.977,57.629,104.195,57.082,105.301,55.984z"/>
	<path fill="#ED1C24" d="M115.754,55.066v-9.922c0-2.098-0.387-3.709-1.162-4.838c1.193-1.064,2.646-1.598,4.357-1.598
		c1.709,0,2.871,0.387,3.482,1.16s0.92,1.953,0.92,3.533v10.26c0,1.131,0.129,1.951,0.387,2.467c0.26,0.518,0.938,0.773,2.031,0.773
		c1.064,0,2.146-0.547,3.244-1.646v-16.16c1.062-0.195,2.307-0.289,3.729-0.289c1.418,0,2.691,0.094,3.822,0.289v17.229
		c0,1.74,0.449,2.92,1.354,3.531c-0.162,0.646-0.469,1.348-0.92,2.105c-0.451,0.756-0.918,1.314-1.4,1.67
		c-2.646-0.098-4.551-1.227-5.711-3.389c-2.549,2.291-4.953,3.438-7.211,3.438c-2.26,0-3.979-0.783-5.154-2.348
		C116.344,59.768,115.754,57.678,115.754,55.066z"/>
	<path fill="#ED1C24" d="M148.709,44.66v18.582c-0.549,0.098-1.145,0.17-1.791,0.219c-0.645,0.047-1.305,0.072-1.982,0.072
		s-1.348-0.025-2.008-0.072c-0.662-0.047-1.268-0.121-1.814-0.219V47.225c0-1.871-0.758-2.807-2.273-2.807h-0.727
		c-0.195-0.611-0.291-1.467-0.291-2.564c0-1.062,0.096-1.967,0.291-2.709c0.838-0.064,1.613-0.121,2.324-0.17
		c0.707-0.049,1.354-0.074,1.934-0.074h1.064c1.646,0,2.938,0.518,3.873,1.551C148.242,41.482,148.709,42.887,148.709,44.66z
		 M140.24,29.368c0.938-0.515,2.146-0.774,3.629-0.774c1.518,0,2.693,0.26,3.533,0.774c0.387,0.872,0.582,1.807,0.582,2.805
		c0,1.001-0.195,1.938-0.582,2.81c-0.936,0.483-2.162,0.726-3.678,0.726c-1.518,0-2.68-0.242-3.484-0.726
		c-0.387-0.871-0.58-1.808-0.58-2.81C139.66,31.175,139.854,30.24,140.24,29.368z"/>
	<path fill="#ED1C24" d="M160.275,38.611c1.547,0,3.049,0.354,4.5,1.062V27.966l0.293-0.34h2.953c1.547,0,2.619,0.34,3.217,1.017
		c0.594,0.678,0.895,1.855,0.895,3.531v24.102c0,1.711,0.451,2.873,1.355,3.482c-0.16,0.68-0.469,1.404-0.918,2.18
		c-0.455,0.773-0.92,1.34-1.404,1.693c-2.354-0.064-4.082-0.969-5.18-2.709c-1.934,2.033-4.256,3.047-6.967,3.047
		s-4.791-1.129-6.244-3.389c-1.451-2.258-2.178-5.354-2.178-9.289c0-1.938,0.25-3.688,0.75-5.252s1.188-2.896,2.059-3.992
		c0.869-1.096,1.896-1.941,3.072-2.541C157.654,38.908,158.92,38.611,160.275,38.611z M161.217,57.873
		c1.332,0,2.52-0.631,3.559-1.889V45.387c-1.332-0.773-2.389-1.162-3.168-1.162c-2.211,0-3.316,2.42-3.316,7.258
		C158.291,55.742,159.268,57.873,161.217,57.873z"/>
	<path fill="#ED1C24" d="M194.395,53.613h-12.584c0.064,1.436,0.434,2.555,1.107,3.35c0.676,0.803,1.785,1.199,3.328,1.199
		c0.77,0,1.664-0.107,2.676-0.328c1.012-0.217,2.178-0.578,3.494-1.076c1.062,1.1,1.721,2.582,1.979,4.453
		c-2.582,1.836-5.742,2.758-9.484,2.758c-2.033,0-3.736-0.322-5.105-0.967c-1.371-0.645-2.484-1.551-3.34-2.711
		c-0.854-1.162-1.461-2.533-1.814-4.111c-0.355-1.582-0.531-3.309-0.531-5.182c0-1.805,0.217-3.475,0.652-5.008
		c0.436-1.531,1.096-2.863,1.982-3.992c0.889-1.129,2.018-2.016,3.389-2.662c1.371-0.645,2.979-0.967,4.814-0.967
		c1.549,0,2.943,0.258,4.188,0.773c1.238,0.518,2.299,1.227,3.168,2.131c0.873,0.902,1.541,1.982,2.008,3.24
		c0.469,1.26,0.701,2.631,0.701,4.113C195.021,50.596,194.812,52.256,194.395,53.613z M181.762,48.389h6.34v-0.533
		c0-1.195-0.266-2.178-0.791-2.953c-0.531-0.775-1.322-1.162-2.377-1.162c-1.025,0-1.785,0.363-2.281,1.09
		C182.154,45.555,181.857,46.742,181.762,48.389z"/>
</g>
</svg>
