<?xml version="1.0" encoding="utf-8"?>
<!-- Generator: Adobe Illustrator 16.0.4, SVG Export Plug-In . SVG Version: 6.00 Build 0)  -->
<!DOCTYPE svg PUBLIC "-//W3C//DTD SVG 1.1//EN" "http://www.w3.org/Graphics/SVG/1.1/DTD/svg11.dtd">
<svg version="1.1" id="Layer_1" xmlns="http://www.w3.org/2000/svg" xmlns:xlink="http://www.w3.org/1999/xlink" x="0px" y="0px"
	 width="200px" height="75px" viewBox="0 0 200 75" enable-background="new 0 0 200 75" xml:space="preserve">
<g>
	<path fill="#2E3192" d="M21.006,15.242H8.422c0.064,1.438,0.434,2.555,1.108,3.35c0.674,0.8,1.785,1.2,3.327,1.2
		c0.771,0,1.665-0.108,2.677-0.326c1.011-0.22,2.176-0.579,3.493-1.074c1.062,1.095,1.72,2.58,1.978,4.449
		c-2.581,1.839-5.742,2.757-9.484,2.757c-2.032,0-3.737-0.319-5.106-0.966c-1.372-0.646-2.484-1.548-3.339-2.709
		c-0.854-1.163-1.461-2.535-1.815-4.115s-0.531-3.307-0.531-5.18c0-1.804,0.217-3.474,0.652-5.008
		c0.436-1.533,1.097-2.863,1.983-3.992c0.888-1.129,2.017-2.015,3.388-2.662C8.125,0.322,9.73,0,11.569,0
		c1.548,0,2.942,0.256,4.187,0.773c1.24,0.517,2.298,1.226,3.169,2.131c0.871,0.902,1.539,1.981,2.007,3.242
		c0.468,1.255,0.701,2.627,0.701,4.112C21.632,12.225,21.423,13.889,21.006,15.242z M8.373,10.017h6.34V9.484
		c0-1.192-0.266-2.176-0.793-2.951c-0.529-0.774-1.321-1.161-2.376-1.161c-1.025,0-1.786,0.363-2.282,1.088
		C8.766,7.185,8.47,8.374,8.373,10.017z"/>
	<path fill="#2E3192" d="M32.908,19.117l4.211-18.342c0.904-0.195,1.919-0.292,3.049-0.292c1.386,0,2.596,0.195,3.629,0.583
		l0.241,0.338c-3.291,12.002-5.534,19.827-6.725,23.471c-1.646,0.195-3.382,0.292-5.204,0.292c-1.823,0-3.12-0.251-3.896-0.752
		c-0.774-0.499-1.373-1.458-1.79-2.879L20.616,1.307c1.581-0.676,2.982-1.013,4.209-1.013c1.225,0,2.178,0.262,2.857,0.795
		c0.676,0.535,1.177,1.447,1.499,2.734l2.179,9.05c0.16,0.614,0.514,2.566,1.063,5.857C32.456,18.985,32.618,19.117,32.908,19.117z"
		/>
	<path fill="#2E3192" d="M61.943,2.855c2.324,2.322,3.485,5.646,3.485,9.969c0,1.936-0.251,3.694-0.75,5.275
		c-0.5,1.583-1.228,2.927-2.179,4.042c-0.952,1.111-2.121,1.965-3.509,2.564c-1.386,0.596-2.984,0.893-4.79,0.893
		c-1.808,0-3.396-0.307-4.768-0.918c-1.372-0.611-2.532-1.475-3.483-2.589c-0.952-1.112-1.67-2.459-2.154-4.042
		c-0.484-1.58-0.726-3.321-0.726-5.225c0-1.935,0.241-3.687,0.726-5.25c0.484-1.565,1.194-2.911,2.129-4.041
		c0.935-1.131,2.097-2.001,3.483-2.613c1.387-0.612,2.984-0.918,4.792-0.918C57.395,0.001,59.976,0.949,61.943,2.855z M54.225,5.662
		c-0.714,0-1.292,0.17-1.729,0.508c-0.44,0.337-0.788,0.797-1.048,1.38c-0.261,0.578-0.439,1.249-0.537,2.007
		c-0.098,0.759-0.146,1.573-0.146,2.444c0,1.355,0.041,2.524,0.121,3.509c0.082,0.983,0.244,1.806,0.488,2.468
		c0.243,0.659,0.584,1.154,1.023,1.473c0.438,0.324,1.015,0.486,1.73,0.486c1.429,0,2.371-0.622,2.827-1.863
		c0.454-1.241,0.683-3.009,0.683-5.299c0-2.321-0.229-4.09-0.683-5.3C56.499,6.268,55.589,5.662,54.225,5.662z"/>
	<path fill="#2E3192" d="M80.334,14.856H66.687c-0.194-0.807-0.292-1.815-0.292-3.026c0-1.208,0.098-2.215,0.292-3.024h13.646
		c0.193,0.809,0.29,1.816,0.29,3.024C80.623,13.042,80.526,14.05,80.334,14.856z"/>
	<path fill="#2E3192" d="M10.889,44.662v18.584c-0.549,0.098-1.144,0.17-1.791,0.217c-0.645,0.047-1.305,0.072-1.983,0.072
		c-0.677,0-1.347-0.025-2.008-0.072c-0.663-0.047-1.267-0.119-1.816-0.217v-16.02c0-1.873-0.757-2.807-2.273-2.807H0.293
		C0.098,43.808,0,42.953,0,41.856c0-1.065,0.098-1.97,0.293-2.712c0.836-0.064,1.612-0.12,2.321-0.169
		c0.709-0.048,1.356-0.073,1.935-0.073h1.066c1.646,0,2.936,0.518,3.873,1.551C10.422,41.482,10.889,42.887,10.889,44.662z
		 M2.42,29.369c0.936-0.516,2.146-0.776,3.631-0.776c1.516,0,2.693,0.26,3.532,0.776c0.387,0.87,0.582,1.806,0.582,2.806
		s-0.194,1.936-0.582,2.807c-0.937,0.485-2.162,0.728-3.678,0.728c-1.518,0-2.678-0.243-3.485-0.728
		c-0.387-0.871-0.58-1.807-0.58-2.807S2.033,30.239,2.42,29.369z"/>
	<path fill="#2E3192" d="M26.181,49.789v-0.627c0-1.807-0.192-3.123-0.58-3.945c-0.389-0.822-1.114-1.231-2.178-1.231
		c-1.131,0-1.92,0.556-2.373,1.668c-0.452,1.114-0.677,2.96-0.677,5.541c0,1.293,0.089,2.373,0.266,3.242
		c0.178,0.873,0.436,1.574,0.776,2.105c0.337,0.533,0.766,0.92,1.283,1.162c0.514,0.244,1.128,0.365,1.837,0.365
		c0.741,0,1.564-0.162,2.468-0.486c0.903-0.32,1.87-0.838,2.904-1.549c0.291,0.162,0.589,0.396,0.895,0.703
		c0.306,0.309,0.588,0.654,0.848,1.039c0.257,0.389,0.484,0.801,0.677,1.236c0.194,0.436,0.34,0.846,0.435,1.234
		c-1.064,1.131-2.452,2.031-4.162,2.711c-1.71,0.676-3.453,1.016-5.226,1.016c-3.453,0-6.097-1.129-7.937-3.389
		c-1.84-2.26-2.758-5.471-2.758-9.631c0-2.128,0.297-3.984,0.894-5.563c0.597-1.58,1.388-2.889,2.373-3.922
		c0.982-1.029,2.111-1.805,3.388-2.322c1.272-0.514,2.604-0.771,3.991-0.771c1.418,0,2.717,0.191,3.896,0.578
		c1.177,0.387,2.192,0.938,3.048,1.646c0.854,0.711,1.518,1.557,1.985,2.541s0.702,2.074,0.702,3.268
		c0,1.355-0.396,2.307-1.186,2.856c-0.792,0.547-1.767,0.823-2.928,0.823C27.875,50.082,26.988,49.984,26.181,49.789z"/>
	<path fill="#2E3192" d="M52.072,41.225c2.323,2.321,3.485,5.646,3.485,9.968c0,1.938-0.251,3.695-0.75,5.275
		c-0.5,1.584-1.228,2.928-2.178,4.043c-0.953,1.111-2.122,1.967-3.51,2.561c-1.386,0.598-2.984,0.896-4.79,0.896
		c-1.807,0-3.396-0.307-4.768-0.92c-1.372-0.611-2.533-1.477-3.483-2.588c-0.953-1.115-1.67-2.459-2.154-4.041
		c-0.484-1.58-0.726-3.32-0.726-5.229c0-1.934,0.241-3.684,0.726-5.25c0.484-1.564,1.193-2.911,2.129-4.041
		c0.935-1.129,2.097-2,3.483-2.613c1.388-0.613,2.985-0.918,4.792-0.918C47.523,38.371,50.105,39.32,52.072,41.225z M44.354,44.031
		c-0.715,0-1.292,0.172-1.73,0.508c-0.44,0.342-0.788,0.799-1.048,1.381c-0.261,0.58-0.439,1.25-0.537,2.01
		c-0.098,0.757-0.146,1.57-0.146,2.443c0,1.354,0.041,2.524,0.121,3.506c0.082,0.984,0.244,1.809,0.489,2.471
		c0.243,0.66,0.583,1.152,1.023,1.475c0.438,0.322,1.015,0.486,1.73,0.486c1.428,0,2.371-0.625,2.826-1.863
		c0.455-1.24,0.683-3.01,0.683-5.301c0-2.323-0.229-4.088-0.683-5.298C46.628,44.636,45.718,44.031,44.354,44.031z"/>
	<path fill="#2E3192" d="M78.253,47.273v9.92c0,2.129,0.387,3.73,1.161,4.791c-1.226,1.1-2.693,1.646-4.403,1.646
		c-1.678,0-2.824-0.387-3.436-1.162c-0.613-0.771-0.92-1.951-0.92-3.531V48.628c0-1.099-0.145-1.902-0.436-2.418
		c-0.291-0.519-0.855-0.773-1.694-0.773c-0.482,0-1.031,0.126-1.645,0.386c-0.612,0.259-1.242,0.677-1.886,1.257v16.165
		c-0.549,0.098-1.146,0.17-1.791,0.219c-0.645,0.047-1.307,0.072-1.984,0.072c-0.677,0-1.339-0.025-1.983-0.072
		c-0.646-0.049-1.243-0.121-1.792-0.219V39.096l0.338-0.339h2.855c1.967,0,3.292,0.967,3.969,2.904c2.258-2,4.5-3.003,6.727-3.003
		c2.257,0,3.976,0.783,5.153,2.347C77.663,42.571,78.253,44.662,78.253,47.273z"/>
	<path fill="#2E3192" d="M79.51,61.6c0.03-0.838,0.25-1.76,0.653-2.758c0.403-1,0.879-1.791,1.429-2.373
		c2.579,1.354,4.823,2.033,6.727,2.033c0.902,0,1.597-0.154,2.081-0.459c0.482-0.307,0.725-0.721,0.725-1.236
		c0-0.965-0.744-1.693-2.226-2.174l-2.66-1.02c-4.035-1.48-6.051-3.903-6.051-7.261c0-2.449,0.846-4.394,2.541-5.831
		c1.694-1.436,3.975-2.15,6.849-2.15c1.418,0,2.983,0.198,4.693,0.604c1.71,0.402,3.114,0.879,4.21,1.428
		c0.063,0.905-0.113,1.895-0.533,2.977c-0.421,1.082-0.938,1.847-1.55,2.3c-2.708-1.228-4.968-1.843-6.775-1.843
		c-0.645,0-1.137,0.148-1.475,0.438c-0.339,0.292-0.509,0.664-0.509,1.116c0,0.771,0.613,1.387,1.84,1.838l3.001,1.063
		c4.289,1.517,6.435,4.112,6.435,7.79c0,2.422-0.888,4.342-2.661,5.762c-1.774,1.418-4.308,2.129-7.598,2.129
		S82.317,63.178,79.51,61.6z"/>
</g>
</svg>
