<?xml version="1.0" encoding="utf-8"?>
<!-- Generator: Adobe Illustrator 16.0.4, SVG Export Plug-In . SVG Version: 6.00 Build 0)  -->
<!DOCTYPE svg PUBLIC "-//W3C//DTD SVG 1.1//EN" "http://www.w3.org/Graphics/SVG/1.1/DTD/svg11.dtd">
<svg version="1.1" id="Layer_1" xmlns="http://www.w3.org/2000/svg" xmlns:xlink="http://www.w3.org/1999/xlink" x="0px" y="0px"
	 width="100px" height="41.25px" viewBox="0 0 100 41.25" enable-background="new 0 0 100 41.25" xml:space="preserve">
<g>
	<g>
		<path fill="#6B6B6E" d="M75.476,31.562v0.188h-1.093v-0.16l0.585-0.605c0.063-0.064,0.114-0.127,0.151-0.189
			c0.038-0.062,0.057-0.117,0.057-0.164c0-0.066-0.026-0.121-0.079-0.158c-0.053-0.039-0.125-0.059-0.217-0.059
			c-0.07,0-0.145,0.016-0.221,0.049c-0.076,0.031-0.146,0.076-0.207,0.135l-0.089-0.158c0.082-0.066,0.17-0.117,0.263-0.154
			s0.186-0.055,0.279-0.055c0.147,0,0.265,0.033,0.354,0.102c0.089,0.066,0.133,0.158,0.133,0.271c0,0.135-0.094,0.299-0.281,0.492
			l-0.455,0.467H75.476z"/>
		<path fill="#6B6B6E" d="M76.69,30.428c0.109,0.131,0.164,0.32,0.164,0.566S76.8,31.43,76.69,31.562s-0.266,0.199-0.469,0.199
			c-0.205,0-0.361-0.066-0.47-0.199c-0.109-0.133-0.163-0.322-0.163-0.568s0.054-0.436,0.163-0.566
			c0.108-0.133,0.265-0.197,0.47-0.197C76.425,30.23,76.581,30.295,76.69,30.428z M75.803,30.994c0,0.199,0.035,0.35,0.105,0.449
			c0.07,0.102,0.175,0.152,0.313,0.152c0.138,0,0.242-0.051,0.312-0.152c0.071-0.1,0.106-0.25,0.106-0.449c0-0.4-0.14-0.6-0.419-0.6
			S75.803,30.594,75.803,30.994z"/>
		<path fill="#6B6B6E" d="M76.877,30.238h0.551v1.512h-0.207v-1.324h-0.344V30.238z"/>
		<path fill="#6B6B6E" d="M77.564,30.238h0.551v1.512h-0.207v-1.324h-0.344V30.238z"/>
	</g>
	<g>
		<path fill="#6B6B6E" d="M67.375,31.562v0.188h-1.093v-0.16l0.585-0.605c0.063-0.064,0.114-0.127,0.151-0.189
			c0.038-0.062,0.057-0.117,0.057-0.164c0-0.066-0.026-0.121-0.079-0.158c-0.053-0.039-0.125-0.059-0.217-0.059
			c-0.07,0-0.145,0.016-0.221,0.049c-0.076,0.031-0.146,0.076-0.207,0.135l-0.089-0.158c0.082-0.066,0.17-0.117,0.263-0.154
			s0.186-0.055,0.279-0.055c0.147,0,0.265,0.033,0.354,0.102c0.089,0.066,0.133,0.158,0.133,0.271c0,0.135-0.094,0.299-0.281,0.492
			l-0.455,0.467H67.375z"/>
		<path fill="#6B6B6E" d="M68.59,30.428c0.109,0.131,0.164,0.32,0.164,0.566s-0.055,0.436-0.164,0.568s-0.266,0.199-0.469,0.199
			c-0.205,0-0.361-0.066-0.47-0.199c-0.109-0.133-0.163-0.322-0.163-0.568s0.054-0.436,0.163-0.566
			c0.108-0.133,0.265-0.197,0.47-0.197C68.324,30.23,68.48,30.295,68.59,30.428z M67.702,30.994c0,0.199,0.035,0.35,0.105,0.449
			c0.07,0.102,0.175,0.152,0.313,0.152c0.138,0,0.242-0.051,0.312-0.152c0.071-0.1,0.106-0.25,0.106-0.449c0-0.4-0.14-0.6-0.419-0.6
			S67.702,30.594,67.702,30.994z"/>
		<path fill="#6B6B6E" d="M68.776,30.238h0.551v1.512H69.12v-1.324h-0.344V30.238z"/>
		<path fill="#6B6B6E" d="M70.702,30.428c0.109,0.131,0.164,0.32,0.164,0.566s-0.055,0.436-0.164,0.568s-0.266,0.199-0.469,0.199
			c-0.205,0-0.361-0.066-0.47-0.199c-0.109-0.133-0.163-0.322-0.163-0.568s0.054-0.436,0.163-0.566
			c0.108-0.133,0.265-0.197,0.47-0.197C70.437,30.23,70.593,30.295,70.702,30.428z M69.814,30.994c0,0.199,0.035,0.35,0.105,0.449
			c0.07,0.102,0.175,0.152,0.313,0.152c0.138,0,0.242-0.051,0.312-0.152c0.071-0.1,0.106-0.25,0.106-0.449c0-0.4-0.14-0.6-0.419-0.6
			S69.814,30.594,69.814,30.994z"/>
	</g>
	<g>
		<path fill="#6B6B6E" d="M59.274,31.562v0.188h-1.093v-0.16l0.585-0.605c0.063-0.064,0.114-0.127,0.151-0.189
			c0.038-0.062,0.057-0.117,0.057-0.164c0-0.066-0.026-0.121-0.079-0.158c-0.053-0.039-0.125-0.059-0.217-0.059
			c-0.07,0-0.145,0.016-0.221,0.049c-0.076,0.031-0.146,0.076-0.207,0.135l-0.089-0.158c0.082-0.066,0.17-0.117,0.263-0.154
			s0.186-0.055,0.279-0.055c0.147,0,0.265,0.033,0.354,0.102c0.089,0.066,0.133,0.158,0.133,0.271c0,0.135-0.094,0.299-0.281,0.492
			l-0.455,0.467H59.274z"/>
		<path fill="#6B6B6E" d="M60.489,30.428c0.109,0.131,0.164,0.32,0.164,0.566s-0.055,0.436-0.164,0.568s-0.266,0.199-0.469,0.199
			c-0.205,0-0.361-0.066-0.47-0.199c-0.109-0.133-0.163-0.322-0.163-0.568s0.054-0.436,0.163-0.566
			c0.108-0.133,0.265-0.197,0.47-0.197C60.224,30.23,60.38,30.295,60.489,30.428z M59.602,30.994c0,0.199,0.035,0.35,0.105,0.449
			c0.07,0.102,0.175,0.152,0.313,0.152c0.138,0,0.242-0.051,0.312-0.152c0.071-0.1,0.106-0.25,0.106-0.449c0-0.4-0.14-0.6-0.419-0.6
			S59.602,30.594,59.602,30.994z"/>
		<path fill="#6B6B6E" d="M61.914,30.428c0.109,0.131,0.164,0.32,0.164,0.566s-0.055,0.436-0.164,0.568s-0.266,0.199-0.469,0.199
			c-0.205,0-0.361-0.066-0.47-0.199c-0.109-0.133-0.163-0.322-0.163-0.568s0.054-0.436,0.163-0.566
			c0.108-0.133,0.265-0.197,0.47-0.197C61.648,30.23,61.805,30.295,61.914,30.428z M61.026,30.994c0,0.199,0.035,0.35,0.105,0.449
			c0.07,0.102,0.175,0.152,0.313,0.152c0.138,0,0.242-0.051,0.312-0.152c0.071-0.1,0.106-0.25,0.106-0.449c0-0.4-0.14-0.6-0.419-0.6
			S61.026,30.594,61.026,30.994z"/>
		<path fill="#6B6B6E" d="M62.509,31.561c0.06,0.018,0.119,0.025,0.179,0.025c0.144,0,0.254-0.051,0.331-0.152
			s0.116-0.24,0.116-0.416c0-0.027-0.001-0.047-0.003-0.062c-0.036,0.084-0.091,0.146-0.165,0.191
			c-0.074,0.043-0.164,0.064-0.269,0.064c-0.15,0-0.269-0.043-0.354-0.131c-0.086-0.086-0.13-0.203-0.13-0.35
			c0-0.102,0.021-0.191,0.065-0.266c0.043-0.076,0.104-0.135,0.183-0.174c0.078-0.041,0.169-0.061,0.272-0.061
			c0.124,0,0.231,0.027,0.322,0.086c0.091,0.057,0.16,0.141,0.208,0.25c0.049,0.109,0.072,0.24,0.072,0.393
			c0,0.16-0.025,0.301-0.077,0.422s-0.126,0.215-0.223,0.281s-0.209,0.1-0.337,0.1c-0.07,0-0.146-0.012-0.225-0.031
			c-0.079-0.021-0.149-0.049-0.212-0.082l0.082-0.156C62.395,31.521,62.449,31.545,62.509,31.561z M62.501,30.496
			c-0.062,0.057-0.093,0.137-0.093,0.236c0,0.096,0.03,0.172,0.089,0.227c0.059,0.057,0.139,0.086,0.237,0.086
			c0.074,0,0.138-0.016,0.191-0.045s0.096-0.068,0.124-0.119c0.029-0.049,0.044-0.104,0.044-0.16c0-0.049-0.013-0.098-0.038-0.146
			s-0.063-0.088-0.116-0.119c-0.052-0.031-0.115-0.047-0.191-0.047C62.646,30.408,62.563,30.438,62.501,30.496z"/>
	</g>
	<g>
		<path fill="#6B6B6E" d="M51.175,31.562v0.188h-1.093v-0.16l0.585-0.605c0.063-0.064,0.114-0.127,0.151-0.189
			c0.038-0.062,0.057-0.117,0.057-0.164c0-0.066-0.026-0.121-0.079-0.158c-0.053-0.039-0.125-0.059-0.217-0.059
			c-0.07,0-0.145,0.016-0.221,0.049c-0.076,0.031-0.146,0.076-0.207,0.135l-0.089-0.158c0.082-0.066,0.17-0.117,0.263-0.154
			s0.186-0.055,0.279-0.055c0.147,0,0.265,0.033,0.354,0.102c0.089,0.066,0.133,0.158,0.133,0.271c0,0.135-0.094,0.299-0.281,0.492
			l-0.455,0.467H51.175z"/>
		<path fill="#6B6B6E" d="M52.39,30.428c0.109,0.131,0.164,0.32,0.164,0.566s-0.055,0.436-0.164,0.568s-0.266,0.199-0.469,0.199
			c-0.205,0-0.361-0.066-0.47-0.199c-0.109-0.133-0.163-0.322-0.163-0.568s0.054-0.436,0.163-0.566
			c0.108-0.133,0.265-0.197,0.47-0.197C52.124,30.23,52.28,30.295,52.39,30.428z M51.502,30.994c0,0.199,0.035,0.35,0.105,0.449
			c0.07,0.102,0.175,0.152,0.313,0.152c0.138,0,0.242-0.051,0.312-0.152c0.071-0.1,0.106-0.25,0.106-0.449c0-0.4-0.14-0.6-0.419-0.6
			S51.502,30.594,51.502,30.994z"/>
		<path fill="#6B6B6E" d="M53.814,30.428c0.109,0.131,0.164,0.32,0.164,0.566s-0.055,0.436-0.164,0.568s-0.266,0.199-0.469,0.199
			c-0.205,0-0.361-0.066-0.47-0.199c-0.109-0.133-0.163-0.322-0.163-0.568s0.054-0.436,0.163-0.566
			c0.108-0.133,0.265-0.197,0.47-0.197C53.549,30.23,53.705,30.295,53.814,30.428z M52.927,30.994c0,0.199,0.035,0.35,0.105,0.449
			c0.07,0.102,0.175,0.152,0.313,0.152c0.138,0,0.242-0.051,0.312-0.152c0.071-0.1,0.106-0.25,0.106-0.449c0-0.4-0.14-0.6-0.419-0.6
			S52.927,30.594,52.927,30.994z"/>
		<path fill="#6B6B6E" d="M55.039,30.332c0.088,0.068,0.132,0.162,0.132,0.283c0,0.074-0.021,0.141-0.062,0.197
			s-0.099,0.1-0.172,0.131c0.097,0.029,0.172,0.078,0.227,0.145c0.055,0.068,0.082,0.146,0.082,0.238
			c0,0.135-0.051,0.24-0.152,0.318s-0.239,0.117-0.413,0.117c-0.175,0-0.312-0.039-0.414-0.115
			c-0.102-0.078-0.152-0.182-0.152-0.314c0-0.094,0.028-0.174,0.085-0.242c0.056-0.068,0.134-0.117,0.232-0.146
			c-0.077-0.033-0.138-0.078-0.18-0.135c-0.043-0.059-0.064-0.125-0.064-0.201c0-0.117,0.044-0.209,0.132-0.275
			c0.088-0.068,0.208-0.102,0.359-0.102C54.831,30.23,54.951,30.264,55.039,30.332z M54.408,31.107
			c-0.064,0.049-0.097,0.115-0.097,0.201c0,0.09,0.032,0.16,0.097,0.211s0.155,0.076,0.272,0.076c0.115,0,0.205-0.025,0.271-0.076
			s0.099-0.121,0.099-0.209c0-0.086-0.033-0.152-0.099-0.201s-0.156-0.074-0.272-0.074C54.563,31.035,54.473,31.061,54.408,31.107z
			 M54.448,30.445c-0.056,0.043-0.083,0.104-0.083,0.18c0,0.078,0.027,0.139,0.083,0.182s0.133,0.064,0.232,0.064
			s0.176-0.021,0.23-0.064s0.083-0.104,0.083-0.182c0-0.076-0.028-0.137-0.083-0.18s-0.131-0.064-0.23-0.064
			S54.504,30.402,54.448,30.445z"/>
	</g>
	<g>
		<path fill="#6B6B6E" d="M43.075,31.562v0.188h-1.093v-0.16l0.585-0.605c0.063-0.064,0.114-0.127,0.151-0.189
			c0.038-0.062,0.057-0.117,0.057-0.164c0-0.066-0.026-0.121-0.079-0.158c-0.053-0.039-0.125-0.059-0.217-0.059
			c-0.07,0-0.145,0.016-0.221,0.049c-0.076,0.031-0.146,0.076-0.207,0.135l-0.089-0.158c0.082-0.066,0.17-0.117,0.263-0.154
			s0.186-0.055,0.279-0.055c0.147,0,0.265,0.033,0.354,0.102c0.089,0.066,0.133,0.158,0.133,0.271c0,0.135-0.094,0.299-0.281,0.492
			l-0.455,0.467H43.075z"/>
		<path fill="#6B6B6E" d="M44.29,30.428c0.109,0.131,0.164,0.32,0.164,0.566s-0.055,0.436-0.164,0.568s-0.266,0.199-0.469,0.199
			c-0.205,0-0.361-0.066-0.47-0.199c-0.109-0.133-0.163-0.322-0.163-0.568s0.054-0.436,0.163-0.566
			c0.108-0.133,0.265-0.197,0.47-0.197C44.024,30.23,44.181,30.295,44.29,30.428z M43.402,30.994c0,0.199,0.035,0.35,0.105,0.449
			c0.07,0.102,0.175,0.152,0.313,0.152c0.138,0,0.242-0.051,0.312-0.152c0.071-0.1,0.106-0.25,0.106-0.449c0-0.4-0.14-0.6-0.419-0.6
			S43.402,30.594,43.402,30.994z"/>
		<path fill="#6B6B6E" d="M45.715,30.428c0.109,0.131,0.164,0.32,0.164,0.566s-0.055,0.436-0.164,0.568s-0.266,0.199-0.469,0.199
			c-0.205,0-0.361-0.066-0.47-0.199c-0.109-0.133-0.163-0.322-0.163-0.568s0.054-0.436,0.163-0.566
			c0.108-0.133,0.265-0.197,0.47-0.197C45.449,30.23,45.605,30.295,45.715,30.428z M44.827,30.994c0,0.199,0.035,0.35,0.105,0.449
			c0.07,0.102,0.175,0.152,0.313,0.152c0.138,0,0.242-0.051,0.312-0.152c0.071-0.1,0.106-0.25,0.106-0.449c0-0.4-0.14-0.6-0.419-0.6
			S44.827,30.594,44.827,30.994z"/>
		<path fill="#6B6B6E" d="M45.92,30.238h1.132V30.4l-0.659,1.35h-0.22l0.646-1.324h-0.711l-0.002,0.219H45.92V30.238z"/>
	</g>
	<g>
		<path fill="#6B6B6E" d="M34.975,31.562v0.188h-1.093v-0.16l0.585-0.605c0.063-0.064,0.114-0.127,0.151-0.189
			c0.037-0.062,0.056-0.117,0.056-0.164c0-0.066-0.026-0.121-0.079-0.158c-0.053-0.039-0.125-0.059-0.217-0.059
			c-0.071,0-0.144,0.016-0.221,0.049c-0.076,0.031-0.146,0.076-0.207,0.135l-0.089-0.158c0.082-0.066,0.17-0.117,0.263-0.154
			s0.186-0.055,0.28-0.055c0.146,0,0.265,0.033,0.353,0.102c0.088,0.066,0.133,0.158,0.133,0.271c0,0.135-0.094,0.299-0.281,0.492
			l-0.456,0.467H34.975z"/>
		<path fill="#6B6B6E" d="M36.189,30.428c0.109,0.131,0.165,0.32,0.165,0.566s-0.055,0.436-0.165,0.568s-0.266,0.199-0.469,0.199
			c-0.204,0-0.361-0.066-0.47-0.199c-0.108-0.133-0.163-0.322-0.163-0.568s0.055-0.436,0.163-0.566
			c0.109-0.133,0.266-0.197,0.47-0.197C35.923,30.23,36.08,30.295,36.189,30.428z M35.301,30.994c0,0.199,0.035,0.35,0.106,0.449
			c0.07,0.102,0.175,0.152,0.313,0.152s0.243-0.051,0.313-0.152c0.07-0.1,0.106-0.25,0.106-0.449c0-0.4-0.14-0.6-0.419-0.6
			S35.301,30.594,35.301,30.994z"/>
		<path fill="#6B6B6E" d="M37.615,30.428c0.109,0.131,0.165,0.32,0.165,0.566s-0.055,0.436-0.165,0.568s-0.266,0.199-0.469,0.199
			c-0.204,0-0.361-0.066-0.47-0.199c-0.108-0.133-0.163-0.322-0.163-0.568s0.055-0.436,0.163-0.566
			c0.109-0.133,0.266-0.197,0.47-0.197C37.349,30.23,37.505,30.295,37.615,30.428z M36.727,30.994c0,0.199,0.035,0.35,0.106,0.449
			c0.07,0.102,0.175,0.152,0.313,0.152s0.243-0.051,0.313-0.152c0.07-0.1,0.106-0.25,0.106-0.449c0-0.4-0.14-0.6-0.419-0.6
			S36.727,30.594,36.727,30.994z"/>
		<path fill="#6B6B6E" d="M38.756,30.428c-0.062-0.018-0.122-0.025-0.181-0.025c-0.146,0-0.257,0.051-0.334,0.152
			c-0.078,0.1-0.117,0.238-0.117,0.414c0,0.027,0,0.049,0.002,0.062c0.038-0.082,0.094-0.145,0.168-0.188s0.165-0.064,0.27-0.064
			c0.151,0,0.271,0.043,0.357,0.129c0.087,0.086,0.131,0.203,0.131,0.35c0,0.102-0.021,0.191-0.065,0.268
			c-0.043,0.074-0.104,0.133-0.184,0.174s-0.171,0.062-0.276,0.062c-0.125,0-0.234-0.029-0.325-0.086
			c-0.091-0.059-0.161-0.143-0.209-0.252c-0.048-0.111-0.072-0.242-0.072-0.396c0-0.16,0.026-0.301,0.079-0.42
			c0.053-0.121,0.127-0.213,0.223-0.279s0.208-0.098,0.338-0.098c0.072,0,0.148,0.01,0.228,0.029s0.151,0.047,0.213,0.08
			l-0.082,0.158C38.872,30.467,38.817,30.443,38.756,30.428z M38.336,30.988c-0.055,0.031-0.097,0.07-0.126,0.119
			c-0.029,0.049-0.043,0.102-0.042,0.16c-0.001,0.049,0.011,0.098,0.037,0.146c0.026,0.047,0.065,0.086,0.118,0.119
			c0.053,0.031,0.117,0.047,0.193,0.047c0.104,0,0.187-0.029,0.25-0.086c0.063-0.059,0.094-0.137,0.094-0.238
			c0-0.096-0.03-0.17-0.09-0.227s-0.14-0.084-0.241-0.084C38.455,30.945,38.391,30.959,38.336,30.988z"/>
	</g>
	<g>
		<path fill="#6B6B6E" d="M26.875,31.562v0.188h-1.093v-0.16l0.585-0.605c0.063-0.064,0.114-0.127,0.151-0.189
			c0.037-0.062,0.056-0.117,0.056-0.164c0-0.066-0.026-0.121-0.079-0.158c-0.053-0.039-0.125-0.059-0.217-0.059
			c-0.071,0-0.144,0.016-0.221,0.049c-0.076,0.031-0.146,0.076-0.207,0.135l-0.089-0.158c0.082-0.066,0.17-0.117,0.263-0.154
			s0.186-0.055,0.28-0.055c0.146,0,0.265,0.033,0.353,0.102c0.088,0.066,0.133,0.158,0.133,0.271c0,0.135-0.094,0.299-0.281,0.492
			l-0.456,0.467H26.875z"/>
		<path fill="#6B6B6E" d="M28.089,30.428c0.109,0.131,0.165,0.32,0.165,0.566s-0.055,0.436-0.165,0.568s-0.266,0.199-0.469,0.199
			c-0.204,0-0.361-0.066-0.47-0.199c-0.108-0.133-0.163-0.322-0.163-0.568s0.055-0.436,0.163-0.566
			c0.109-0.133,0.266-0.197,0.47-0.197C27.823,30.23,27.979,30.295,28.089,30.428z M27.201,30.994c0,0.199,0.035,0.35,0.106,0.449
			c0.07,0.102,0.175,0.152,0.313,0.152s0.243-0.051,0.313-0.152c0.07-0.1,0.106-0.25,0.106-0.449c0-0.4-0.14-0.6-0.419-0.6
			S27.201,30.594,27.201,30.994z"/>
		<path fill="#6B6B6E" d="M29.515,30.428c0.109,0.131,0.165,0.32,0.165,0.566s-0.055,0.436-0.165,0.568s-0.266,0.199-0.469,0.199
			c-0.204,0-0.361-0.066-0.47-0.199c-0.108-0.133-0.163-0.322-0.163-0.568s0.055-0.436,0.163-0.566
			c0.109-0.133,0.266-0.197,0.47-0.197C29.249,30.23,29.405,30.295,29.515,30.428z M28.627,30.994c0,0.199,0.035,0.35,0.106,0.449
			c0.07,0.102,0.175,0.152,0.313,0.152s0.243-0.051,0.313-0.152c0.07-0.1,0.106-0.25,0.106-0.449c0-0.4-0.14-0.6-0.419-0.6
			S28.627,30.594,28.627,30.994z"/>
		<path fill="#6B6B6E" d="M30.667,30.861c0.084,0.039,0.149,0.092,0.194,0.162c0.045,0.068,0.068,0.146,0.068,0.232
			c0,0.102-0.023,0.189-0.07,0.266c-0.046,0.076-0.113,0.135-0.2,0.178c-0.086,0.041-0.187,0.062-0.3,0.062
			c-0.089,0-0.183-0.016-0.282-0.047s-0.187-0.072-0.265-0.125l0.084-0.166c0.064,0.049,0.136,0.086,0.214,0.113
			c0.078,0.025,0.154,0.039,0.229,0.039c0.113,0,0.204-0.027,0.27-0.082c0.066-0.055,0.1-0.129,0.1-0.223
			c0-0.088-0.033-0.156-0.1-0.207c-0.066-0.049-0.16-0.074-0.283-0.074c-0.044,0-0.109,0.002-0.194,0.008s-0.153,0.014-0.205,0.021
			v-0.781h0.939v0.188h-0.745v0.385c0.067-0.006,0.152-0.008,0.252-0.008C30.485,30.803,30.583,30.822,30.667,30.861z"/>
	</g>
	<g>
		<path fill="#6B6B6E" d="M18.775,31.562v0.188h-1.093v-0.16l0.585-0.605c0.063-0.064,0.114-0.127,0.151-0.189
			c0.037-0.062,0.056-0.117,0.056-0.164c0-0.066-0.026-0.121-0.079-0.158c-0.053-0.039-0.125-0.059-0.217-0.059
			c-0.071,0-0.144,0.016-0.221,0.049c-0.076,0.031-0.146,0.076-0.207,0.135l-0.089-0.158c0.082-0.066,0.17-0.117,0.263-0.154
			s0.186-0.055,0.28-0.055c0.146,0,0.265,0.033,0.353,0.102c0.088,0.066,0.133,0.158,0.133,0.271c0,0.135-0.094,0.299-0.281,0.492
			l-0.456,0.467H18.775z"/>
		<path fill="#6B6B6E" d="M19.989,30.428c0.109,0.131,0.165,0.32,0.165,0.566s-0.055,0.436-0.165,0.568s-0.266,0.199-0.469,0.199
			c-0.204,0-0.361-0.066-0.47-0.199c-0.108-0.133-0.163-0.322-0.163-0.568s0.055-0.436,0.163-0.566
			c0.109-0.133,0.266-0.197,0.47-0.197C19.723,30.23,19.879,30.295,19.989,30.428z M19.101,30.994c0,0.199,0.035,0.35,0.106,0.449
			c0.07,0.102,0.175,0.152,0.313,0.152s0.243-0.051,0.313-0.152c0.07-0.1,0.106-0.25,0.106-0.449c0-0.4-0.14-0.6-0.419-0.6
			S19.101,30.594,19.101,30.994z"/>
		<path fill="#6B6B6E" d="M21.415,30.428c0.109,0.131,0.165,0.32,0.165,0.566s-0.055,0.436-0.165,0.568s-0.266,0.199-0.469,0.199
			c-0.204,0-0.361-0.066-0.47-0.199c-0.108-0.133-0.163-0.322-0.163-0.568s0.055-0.436,0.163-0.566
			c0.109-0.133,0.266-0.197,0.47-0.197C21.149,30.23,21.305,30.295,21.415,30.428z M20.527,30.994c0,0.199,0.035,0.35,0.106,0.449
			c0.07,0.102,0.175,0.152,0.313,0.152s0.243-0.051,0.313-0.152c0.07-0.1,0.106-0.25,0.106-0.449c0-0.4-0.14-0.6-0.419-0.6
			S20.527,30.594,20.527,30.994z"/>
		<path fill="#6B6B6E" d="M22.801,31.176v0.186h-0.233v0.389h-0.194v-0.389h-0.75v-0.16l0.54-0.963h0.203l-0.519,0.938h0.525v-0.387
			h0.194v0.387H22.801z"/>
	</g>
	<g>
		<path fill="#6B6B6E" d="M10.675,31.562v0.188H9.582v-0.16l0.585-0.605c0.063-0.064,0.114-0.127,0.151-0.189
			c0.037-0.062,0.056-0.117,0.056-0.164c0-0.066-0.026-0.121-0.079-0.158c-0.053-0.039-0.125-0.059-0.217-0.059
			c-0.071,0-0.144,0.016-0.221,0.049c-0.076,0.031-0.146,0.076-0.207,0.135l-0.089-0.158c0.082-0.066,0.17-0.117,0.263-0.154
			s0.186-0.055,0.28-0.055c0.146,0,0.265,0.033,0.353,0.102c0.088,0.066,0.133,0.158,0.133,0.271c0,0.135-0.094,0.299-0.281,0.492
			l-0.456,0.467H10.675z"/>
		<path fill="#6B6B6E" d="M11.889,30.428c0.109,0.131,0.165,0.32,0.165,0.566s-0.055,0.436-0.165,0.568s-0.266,0.199-0.469,0.199
			c-0.204,0-0.361-0.066-0.47-0.199c-0.108-0.133-0.163-0.322-0.163-0.568s0.055-0.436,0.163-0.566
			c0.109-0.133,0.266-0.197,0.47-0.197C11.623,30.23,11.779,30.295,11.889,30.428z M11.001,30.994c0,0.199,0.035,0.35,0.106,0.449
			c0.07,0.102,0.175,0.152,0.313,0.152s0.243-0.051,0.313-0.152c0.07-0.1,0.106-0.25,0.106-0.449c0-0.4-0.14-0.6-0.419-0.6
			S11.001,30.594,11.001,30.994z"/>
		<path fill="#6B6B6E" d="M13.314,30.428c0.109,0.131,0.165,0.32,0.165,0.566s-0.055,0.436-0.165,0.568s-0.266,0.199-0.469,0.199
			c-0.204,0-0.361-0.066-0.47-0.199c-0.108-0.133-0.163-0.322-0.163-0.568s0.055-0.436,0.163-0.566
			c0.109-0.133,0.266-0.197,0.47-0.197C13.049,30.23,13.205,30.295,13.314,30.428z M12.427,30.994c0,0.199,0.035,0.35,0.106,0.449
			c0.07,0.102,0.175,0.152,0.313,0.152s0.243-0.051,0.313-0.152c0.07-0.1,0.106-0.25,0.106-0.449c0-0.4-0.14-0.6-0.419-0.6
			S12.427,30.594,12.427,30.994z"/>
		<path fill="#6B6B6E" d="M14.509,30.998c0.089,0.072,0.134,0.166,0.134,0.285c0,0.094-0.024,0.178-0.072,0.25
			c-0.048,0.07-0.117,0.127-0.205,0.168c-0.089,0.039-0.192,0.061-0.31,0.061c-0.095,0-0.19-0.016-0.286-0.043
			c-0.096-0.029-0.178-0.068-0.248-0.115l0.089-0.168c0.061,0.047,0.128,0.084,0.203,0.109c0.075,0.025,0.151,0.039,0.229,0.039
			c0.124,0,0.221-0.027,0.292-0.08c0.07-0.053,0.105-0.125,0.105-0.213c0-0.09-0.035-0.158-0.105-0.205
			c-0.071-0.047-0.17-0.07-0.298-0.07h-0.207v-0.131l0.464-0.459h-0.698l-0.002-0.188h0.972v0.133l-0.508,0.502l0.091,0.008
			C14.299,30.889,14.419,30.928,14.509,30.998z"/>
	</g>
	<g>
		<path fill="#6B6B6E" d="M2.575,31.562v0.188H1.482v-0.16l0.585-0.605c0.063-0.064,0.114-0.127,0.151-0.189
			c0.037-0.062,0.056-0.117,0.056-0.164c0-0.066-0.026-0.121-0.079-0.158c-0.053-0.039-0.125-0.059-0.217-0.059
			c-0.071,0-0.144,0.016-0.221,0.049c-0.076,0.031-0.146,0.076-0.207,0.135l-0.089-0.158c0.082-0.066,0.17-0.117,0.263-0.154
			s0.186-0.055,0.28-0.055c0.146,0,0.265,0.033,0.353,0.102c0.088,0.066,0.133,0.158,0.133,0.271c0,0.135-0.094,0.299-0.281,0.492
			l-0.456,0.467H2.575z"/>
		<path fill="#6B6B6E" d="M3.789,30.428c0.109,0.131,0.165,0.32,0.165,0.566s-0.055,0.436-0.165,0.568s-0.266,0.199-0.469,0.199
			c-0.204,0-0.361-0.066-0.47-0.199c-0.108-0.133-0.163-0.322-0.163-0.568s0.055-0.436,0.163-0.566
			c0.109-0.133,0.266-0.197,0.47-0.197C3.523,30.23,3.679,30.295,3.789,30.428z M2.901,30.994c0,0.199,0.035,0.35,0.106,0.449
			c0.07,0.102,0.175,0.152,0.313,0.152s0.243-0.051,0.313-0.152c0.07-0.1,0.106-0.25,0.106-0.449c0-0.4-0.14-0.6-0.419-0.6
			S2.901,30.594,2.901,30.994z"/>
		<path fill="#6B6B6E" d="M5.214,30.428c0.109,0.131,0.165,0.32,0.165,0.566s-0.055,0.436-0.165,0.568s-0.266,0.199-0.469,0.199
			c-0.204,0-0.361-0.066-0.47-0.199c-0.108-0.133-0.163-0.322-0.163-0.568s0.055-0.436,0.163-0.566
			c0.109-0.133,0.266-0.197,0.47-0.197C4.949,30.23,5.105,30.295,5.214,30.428z M4.327,30.994c0,0.199,0.035,0.35,0.106,0.449
			c0.07,0.102,0.175,0.152,0.313,0.152s0.243-0.051,0.313-0.152c0.07-0.1,0.106-0.25,0.106-0.449c0-0.4-0.14-0.6-0.419-0.6
			S4.327,30.594,4.327,30.994z"/>
		<path fill="#6B6B6E" d="M6.564,31.562v0.188H5.471v-0.16l0.585-0.605c0.063-0.064,0.114-0.127,0.151-0.189
			c0.037-0.062,0.056-0.117,0.056-0.164c0-0.066-0.026-0.121-0.079-0.158c-0.053-0.039-0.125-0.059-0.217-0.059
			c-0.071,0-0.144,0.016-0.221,0.049c-0.076,0.031-0.146,0.076-0.207,0.135l-0.089-0.158c0.082-0.066,0.17-0.117,0.263-0.154
			S5.9,30.23,5.994,30.23c0.146,0,0.265,0.033,0.353,0.102c0.088,0.066,0.133,0.158,0.133,0.271c0,0.135-0.094,0.299-0.281,0.492
			l-0.456,0.467H6.564z"/>
	</g>
	<g>
		<path fill="#6B6B6E" d="M83.575,31.562v0.188h-1.093v-0.16l0.585-0.605c0.063-0.064,0.114-0.127,0.151-0.189
			c0.038-0.062,0.057-0.117,0.057-0.164c0-0.066-0.026-0.121-0.079-0.158c-0.053-0.039-0.125-0.059-0.217-0.059
			c-0.07,0-0.145,0.016-0.221,0.049c-0.076,0.031-0.146,0.076-0.207,0.135l-0.089-0.158c0.082-0.066,0.17-0.117,0.263-0.154
			s0.186-0.055,0.279-0.055c0.147,0,0.265,0.033,0.354,0.102c0.089,0.066,0.133,0.158,0.133,0.271c0,0.135-0.094,0.299-0.281,0.492
			l-0.455,0.467H83.575z"/>
		<path fill="#6B6B6E" d="M84.79,30.428c0.109,0.131,0.164,0.32,0.164,0.566s-0.055,0.436-0.164,0.568s-0.266,0.199-0.469,0.199
			c-0.205,0-0.361-0.066-0.47-0.199c-0.109-0.133-0.163-0.322-0.163-0.568s0.054-0.436,0.163-0.566
			c0.108-0.133,0.265-0.197,0.47-0.197C84.524,30.23,84.681,30.295,84.79,30.428z M83.902,30.994c0,0.199,0.035,0.35,0.105,0.449
			c0.07,0.102,0.175,0.152,0.313,0.152c0.138,0,0.242-0.051,0.312-0.152c0.071-0.1,0.106-0.25,0.106-0.449c0-0.4-0.14-0.6-0.419-0.6
			S83.902,30.594,83.902,30.994z"/>
		<path fill="#6B6B6E" d="M84.977,30.238h0.551v1.512H85.32v-1.324h-0.344V30.238z"/>
		<path fill="#6B6B6E" d="M86.826,31.562v0.188h-1.093v-0.16l0.585-0.605c0.063-0.064,0.114-0.127,0.151-0.189
			c0.038-0.062,0.057-0.117,0.057-0.164c0-0.066-0.026-0.121-0.079-0.158c-0.053-0.039-0.125-0.059-0.217-0.059
			c-0.07,0-0.145,0.016-0.221,0.049c-0.076,0.031-0.146,0.076-0.207,0.135l-0.089-0.158c0.082-0.066,0.17-0.117,0.263-0.154
			s0.186-0.055,0.279-0.055c0.147,0,0.265,0.033,0.354,0.102c0.089,0.066,0.133,0.158,0.133,0.271c0,0.135-0.094,0.299-0.281,0.492
			l-0.455,0.467H86.826z"/>
	</g>
	<g>
		<path fill="#6B6B6E" d="M91.675,31.562v0.188h-1.093v-0.16l0.585-0.605c0.063-0.064,0.114-0.127,0.151-0.189
			c0.038-0.062,0.057-0.117,0.057-0.164c0-0.066-0.026-0.121-0.079-0.158c-0.053-0.039-0.125-0.059-0.217-0.059
			c-0.07,0-0.145,0.016-0.221,0.049c-0.076,0.031-0.146,0.076-0.207,0.135l-0.089-0.158c0.082-0.066,0.17-0.117,0.263-0.154
			s0.186-0.055,0.279-0.055c0.147,0,0.265,0.033,0.354,0.102c0.089,0.066,0.133,0.158,0.133,0.271c0,0.135-0.094,0.299-0.281,0.492
			l-0.455,0.467H91.675z"/>
		<path fill="#6B6B6E" d="M92.89,30.428c0.109,0.131,0.164,0.32,0.164,0.566s-0.055,0.436-0.164,0.568s-0.266,0.199-0.469,0.199
			c-0.205,0-0.361-0.066-0.47-0.199c-0.109-0.133-0.163-0.322-0.163-0.568s0.054-0.436,0.163-0.566
			c0.108-0.133,0.265-0.197,0.47-0.197C92.624,30.23,92.78,30.295,92.89,30.428z M92.002,30.994c0,0.199,0.035,0.35,0.105,0.449
			c0.07,0.102,0.175,0.152,0.313,0.152c0.138,0,0.242-0.051,0.312-0.152c0.071-0.1,0.106-0.25,0.106-0.449c0-0.4-0.14-0.6-0.419-0.6
			S92.002,30.594,92.002,30.994z"/>
		<path fill="#6B6B6E" d="M93.076,30.238h0.551v1.512H93.42v-1.324h-0.344V30.238z"/>
		<path fill="#6B6B6E" d="M94.771,30.998c0.089,0.072,0.134,0.166,0.134,0.285c0,0.094-0.024,0.178-0.072,0.25
			c-0.048,0.07-0.116,0.127-0.205,0.168c-0.089,0.039-0.192,0.061-0.31,0.061c-0.096,0-0.191-0.016-0.287-0.043
			c-0.096-0.029-0.178-0.068-0.247-0.115l0.089-0.168c0.061,0.047,0.128,0.084,0.203,0.109c0.074,0.025,0.151,0.039,0.229,0.039
			c0.124,0,0.222-0.027,0.292-0.08s0.105-0.125,0.105-0.213c0-0.09-0.035-0.158-0.105-0.205s-0.17-0.07-0.298-0.07H94.09v-0.131
			l0.465-0.459h-0.698l-0.002-0.188h0.972v0.133l-0.507,0.502l0.091,0.008C94.561,30.889,94.682,30.928,94.771,30.998z"/>
	</g>
</g>
<g>
	<defs>
		<rect id="SVGID_1_" x="1.4" y="13.525" width="8.1" height="14.85"/>
	</defs>
	<clipPath id="SVGID_2_">
		<use xlink:href="#SVGID_1_"  overflow="visible"/>
	</clipPath>
	<g clip-path="url(#SVGID_2_)">
		<defs>
			<rect id="SVGID_3_" x="-43.15" y="-65.855" width="194.4" height="121.5"/>
		</defs>
		<clipPath id="SVGID_4_">
			<use xlink:href="#SVGID_3_"  overflow="visible"/>
		</clipPath>
		<rect x="0.725" y="12.85" clip-path="url(#SVGID_4_)" fill="#66DCC3" width="9.45" height="16.201"/>
	</g>
</g>
<g>
	<defs>
		<rect id="SVGID_5_" x="33.8" y="27.025" width="8.1" height="1.35"/>
	</defs>
	<clipPath id="SVGID_6_">
		<use xlink:href="#SVGID_5_"  overflow="visible"/>
	</clipPath>
	<g clip-path="url(#SVGID_6_)">
		<defs>
			<rect id="SVGID_7_" x="-43.15" y="-65.855" width="194.4" height="121.5"/>
		</defs>
		<clipPath id="SVGID_8_">
			<use xlink:href="#SVGID_7_"  overflow="visible"/>
		</clipPath>
		<rect x="33.125" y="26.35" clip-path="url(#SVGID_8_)" fill="#009777" width="9.45" height="2.701"/>
	</g>
</g>
<g>
	<defs>
		<rect id="SVGID_9_" x="50" y="21.625" width="8.1" height="6.75"/>
	</defs>
	<clipPath id="SVGID_10_">
		<use xlink:href="#SVGID_9_"  overflow="visible"/>
	</clipPath>
	<g clip-path="url(#SVGID_10_)">
		<defs>
			<rect id="SVGID_11_" x="-43.15" y="-65.855" width="194.4" height="121.5"/>
		</defs>
		<clipPath id="SVGID_12_">
			<use xlink:href="#SVGID_11_"  overflow="visible"/>
		</clipPath>
		<rect x="49.325" y="20.95" clip-path="url(#SVGID_12_)" fill="#66DCC3" width="9.45" height="8.101"/>
	</g>
</g>
<g>
	<defs>
		<rect id="SVGID_13_" x="66.2" y="13.525" width="8.101" height="14.85"/>
	</defs>
	<clipPath id="SVGID_14_">
		<use xlink:href="#SVGID_13_"  overflow="visible"/>
	</clipPath>
	<g clip-path="url(#SVGID_14_)">
		<defs>
			<rect id="SVGID_15_" x="-43.15" y="-65.855" width="194.4" height="121.5"/>
		</defs>
		<clipPath id="SVGID_16_">
			<use xlink:href="#SVGID_15_"  overflow="visible"/>
		</clipPath>
		<rect x="65.525" y="12.85" clip-path="url(#SVGID_16_)" fill="#3AB49A" width="9.449" height="16.201"/>
	</g>
</g>
<g>
	<defs>
		<polyline id="SVGID_17_" points="74.301,28.375 82.4,28.375 82.4,13.525 74.301,13.525 74.301,28.375 		"/>
	</defs>
	<clipPath id="SVGID_18_">
		<use xlink:href="#SVGID_17_"  overflow="visible"/>
	</clipPath>
	<g clip-path="url(#SVGID_18_)">
		<defs>
			<rect id="SVGID_19_" x="-43.15" y="-65.855" width="194.4" height="121.5"/>
		</defs>
		<clipPath id="SVGID_20_">
			<use xlink:href="#SVGID_19_"  overflow="visible"/>
		</clipPath>
		<rect x="73.625" y="12.85" clip-path="url(#SVGID_20_)" fill="#009777" width="9.45" height="16.201"/>
	</g>
</g>
<g>
	<defs>
		<polyline id="SVGID_21_" points="82.4,28.375 90.5,28.375 90.5,12.175 82.4,12.175 82.4,28.375 		"/>
	</defs>
	<clipPath id="SVGID_22_">
		<use xlink:href="#SVGID_21_"  overflow="visible"/>
	</clipPath>
	<g clip-path="url(#SVGID_22_)">
		<defs>
			<rect id="SVGID_23_" x="-43.15" y="-65.855" width="194.4" height="121.5"/>
		</defs>
		<clipPath id="SVGID_24_">
			<use xlink:href="#SVGID_23_"  overflow="visible"/>
		</clipPath>
		<rect x="81.725" y="11.5" clip-path="url(#SVGID_24_)" fill="#66DCC3" width="9.451" height="17.55"/>
	</g>
</g>
<g>
	<defs>
		<polyline id="SVGID_25_" points="90.5,28.375 98.6,28.375 98.6,10.825 90.5,10.825 90.5,28.375 		"/>
	</defs>
	<clipPath id="SVGID_26_">
		<use xlink:href="#SVGID_25_"  overflow="visible"/>
	</clipPath>
	<g clip-path="url(#SVGID_26_)">
		<defs>
			<rect id="SVGID_27_" x="-43.15" y="-65.855" width="194.4" height="121.5"/>
		</defs>
		<clipPath id="SVGID_28_">
			<use xlink:href="#SVGID_27_"  overflow="visible"/>
		</clipPath>
		<rect x="89.825" y="10.15" clip-path="url(#SVGID_28_)" fill="#009777" width="9.45" height="18.9"/>
	</g>
</g>
<g>
	<defs>
		<polyline id="SVGID_29_" points="58.1,28.375 66.2,28.375 66.2,20.275 58.1,20.275 58.1,28.375 		"/>
	</defs>
	<clipPath id="SVGID_30_">
		<use xlink:href="#SVGID_29_"  overflow="visible"/>
	</clipPath>
	<g clip-path="url(#SVGID_30_)">
		<defs>
			<rect id="SVGID_31_" x="-43.15" y="-65.855" width="194.4" height="121.5"/>
		</defs>
		<clipPath id="SVGID_32_">
			<use xlink:href="#SVGID_31_"  overflow="visible"/>
		</clipPath>
		<rect x="57.426" y="19.6" clip-path="url(#SVGID_32_)" fill="#52CCB2" width="9.449" height="9.451"/>
	</g>
</g>
<g>
	<defs>
		<polyline id="SVGID_33_" points="41.9,28.375 50,28.375 50,20.275 41.9,20.275 41.9,28.375 		"/>
	</defs>
	<clipPath id="SVGID_34_">
		<use xlink:href="#SVGID_33_"  overflow="visible"/>
	</clipPath>
	<g clip-path="url(#SVGID_34_)">
		<defs>
			<rect id="SVGID_35_" x="-43.15" y="-65.855" width="194.4" height="121.5"/>
		</defs>
		<clipPath id="SVGID_36_">
			<use xlink:href="#SVGID_35_"  overflow="visible"/>
		</clipPath>
		<rect x="41.225" y="19.6" clip-path="url(#SVGID_36_)" fill="#52CCB2" width="9.451" height="9.451"/>
	</g>
</g>
<g>
	<defs>
		<rect id="SVGID_37_" x="17.6" y="14.875" width="8.1" height="13.5"/>
	</defs>
	<clipPath id="SVGID_38_">
		<use xlink:href="#SVGID_37_"  overflow="visible"/>
	</clipPath>
	<g clip-path="url(#SVGID_38_)">
		<defs>
			<rect id="SVGID_39_" x="-43.15" y="-65.855" width="194.4" height="121.5"/>
		</defs>
		<clipPath id="SVGID_40_">
			<use xlink:href="#SVGID_39_"  overflow="visible"/>
		</clipPath>
		<rect x="16.925" y="14.2" clip-path="url(#SVGID_40_)" fill="#66DCC3" width="9.45" height="14.851"/>
	</g>
</g>
<g>
	<defs>
		<polyline id="SVGID_41_" points="25.7,28.375 33.8,28.375 33.8,10.825 25.7,10.825 25.7,28.375 		"/>
	</defs>
	<clipPath id="SVGID_42_">
		<use xlink:href="#SVGID_41_"  overflow="visible"/>
	</clipPath>
	<g clip-path="url(#SVGID_42_)">
		<defs>
			<rect id="SVGID_43_" x="-43.15" y="-65.855" width="194.4" height="121.5"/>
		</defs>
		<clipPath id="SVGID_44_">
			<use xlink:href="#SVGID_43_"  overflow="visible"/>
		</clipPath>
		<rect x="25.025" y="10.15" clip-path="url(#SVGID_44_)" fill="#3AB49A" width="9.45" height="18.9"/>
	</g>
</g>
<g>
	<defs>
		<polyline id="SVGID_45_" points="9.5,28.375 17.6,28.375 17.6,13.525 9.5,13.525 9.5,28.375 		"/>
	</defs>
	<clipPath id="SVGID_46_">
		<use xlink:href="#SVGID_45_"  overflow="visible"/>
	</clipPath>
	<g clip-path="url(#SVGID_46_)">
		<defs>
			<rect id="SVGID_47_" x="-43.15" y="-65.855" width="194.4" height="121.5"/>
		</defs>
		<clipPath id="SVGID_48_">
			<use xlink:href="#SVGID_47_"  overflow="visible"/>
		</clipPath>
		<rect x="8.825" y="12.85" clip-path="url(#SVGID_48_)" fill="#3AB49A" width="9.45" height="16.201"/>
	</g>
</g>
</svg>
