<?xml version="1.0" encoding="utf-8"?>
<!-- Generator: Adobe Illustrator 16.0.4, SVG Export Plug-In . SVG Version: 6.00 Build 0)  -->
<!DOCTYPE svg PUBLIC "-//W3C//DTD SVG 1.1//EN" "http://www.w3.org/Graphics/SVG/1.1/DTD/svg11.dtd">
<svg version="1.1" id="Layer_1" xmlns="http://www.w3.org/2000/svg" xmlns:xlink="http://www.w3.org/1999/xlink" x="0px" y="0px"
	 width="100px" height="41.25px" viewBox="0 0 100 41.25" enable-background="new 0 0 100 41.25" xml:space="preserve">
<g>
	<defs>
		<path id="SVGID_1_" d="M26.869,27.148c0.041-0.006,0.098,0.02,0.133,0.047c0.042,0.035,0.069,0.025,0.097-0.008
			c0.085,0.104,0.209,0.146,0.297,0.104c0.06,0.084,0.11,0.102,0.206,0.076c0.055,0.086,0.127,0.129,0.23,0.1
			c0.05,0.072,0.094,0.145,0.146,0.211c0.013,0.02,0.045,0.029,0.071,0.035c0.074,0.02,0.11,0.068,0.096,0.143
			c-0.009,0.043,0.005,0.098-0.054,0.121c-0.007,0.002,0,0.037,0,0.055s0.005,0.039-0.004,0.049
			c-0.062,0.014-0.087,0.004-0.092,0.01c-0.055,0.072-0.153,0.061-0.221,0.105c-0.045,0.035-0.092,0.07-0.129,0.111
			c-0.044,0.051-0.106,0.055-0.152,0.037c-0.093-0.037-0.167-0.004-0.25,0.02c-0.031,0.01-0.08,0.004-0.106-0.018
			c-0.058-0.041-0.104-0.07-0.189-0.072c-0.438-0.008-0.868,0.059-1.298,0.123c-0.721,0.113-1.438,0.254-2.159,0.357
			c-0.38,0.057-0.767,0.064-1.15,0.086c-0.149,0.01-0.298,0.008-0.447,0c-0.102-0.004-0.168,0.045-0.229,0.111
			c-0.055,0.062-0.112,0.121-0.164,0.188c-0.042,0.055-0.085,0.105-0.059,0.189c0.021,0.064-0.114,0.225-0.187,0.219
			c-0.108-0.012-0.18,0.045-0.249,0.104c-0.098,0.084-0.181,0.182-0.276,0.266c-0.087,0.078-0.18,0.143-0.267,0.219
			c-0.054,0.049-0.098,0.105-0.147,0.156c-0.02,0.02-0.042,0.043-0.069,0.053c-0.064,0.021-0.087,0.066-0.091,0.131
			c-0.008,0.139-0.034,0.154-0.172,0.137c-0.039-0.004-0.09,0.012-0.12,0.037c-0.131,0.107-0.253,0.223-0.382,0.332
			c-0.048,0.039-0.099,0.07-0.151,0.105c-0.082,0.055-0.161,0.119-0.249,0.164c-0.082,0.043-0.17,0.068-0.257,0.104
			c-0.066,0.023-0.134,0.059-0.203,0.068c-0.135,0.021-0.273,0.037-0.41,0.039c-0.04,0.002-0.092-0.041-0.116-0.078
			c-0.012-0.021,0.012-0.08,0.037-0.107c0.051-0.055,0.114-0.1,0.173-0.148c0.503-0.434,0.936-0.934,1.375-1.426
			c0.236-0.264,0.454-0.537,0.681-0.809c0.051-0.062,0.03-0.123-0.053-0.137c-0.144-0.021-0.289-0.045-0.436-0.059
			c-0.203-0.018-0.395,0.051-0.592,0.088c-0.144,0.025-0.268,0.098-0.405,0.145c-0.042,0.016-0.092,0.016-0.138,0.027
			c-0.143,0.043-0.282,0.102-0.426,0.131c-0.208,0.043-0.421,0.039-0.632,0.021c-0.025-0.004-0.05-0.01-0.078-0.023
			c0.485-0.133,0.96-0.289,1.405-0.521c-0.02-0.025-0.04-0.035-0.06-0.039c-0.417-0.094-0.836-0.174-1.249-0.279
			c-0.687-0.178-1.364-0.377-2.026-0.635c-0.222-0.088-0.464-0.123-0.694-0.188c-0.151-0.041-0.296-0.094-0.447-0.137
			c-0.055-0.018-0.112-0.023-0.17-0.023c-0.058-0.002-0.115,0.008-0.174,0.01c-0.086,0.004-0.165,0.029-0.248,0.062
			c-0.071,0.027-0.16,0.035-0.24,0.029c-0.209-0.012-0.417-0.041-0.626-0.012c-0.222,0.033-0.443,0.064-0.663,0.107
			c-0.301,0.062-0.604,0.088-0.91,0.076c-0.106-0.008-0.213-0.021-0.319-0.029c-0.049-0.004-0.099-0.004-0.144,0.01
			c-0.347,0.096-0.693,0.199-1.054,0.211c-0.26,0.006-0.521-0.018-0.781-0.037c-0.234-0.02-0.447-0.104-0.642-0.238
			c-0.089-0.062-0.159-0.139-0.21-0.258c0.051,0.029,0.085,0.049,0.122,0.064c0.118,0.053,0.229,0.088,0.363,0.014
			c0.121-0.062,0.262-0.09,0.392-0.137c0.189-0.064,0.38-0.129,0.562-0.207c0.132-0.055,0.26-0.082,0.4-0.051
			c0.006-0.064-0.02-0.117-0.041-0.172c-0.013-0.035-0.03-0.074-0.021-0.105c0.021-0.072,0.013-0.131-0.069-0.184
			c0.1-0.02,0.181-0.004,0.253,0.021c0.261,0.084,0.51,0.191,0.725,0.365c0.054,0.043,0.103,0.043,0.161,0.008
			c0.36-0.213,0.724-0.426,1.087-0.639c0.06-0.035,0.128-0.059,0.188-0.09c0.084-0.047,0.167-0.104,0.25-0.148
			c0.05-0.029,0.104-0.049,0.155-0.074c0.071-0.033,0.141-0.066,0.212-0.1c0.042-0.021,0.086-0.041,0.131-0.061
			c0.024-0.01,0.053-0.016,0.078-0.027c0.155-0.08,0.308-0.162,0.462-0.242c0.032-0.016,0.066-0.025,0.093-0.049
			c0.133-0.105,0.291-0.148,0.454-0.186c0.035-0.008,0.075-0.018,0.104-0.037c0.098-0.068,0.209-0.094,0.322-0.121
			c0.397-0.104,0.792-0.213,1.188-0.316c0.069-0.018,0.141-0.02,0.207-0.039c0.085-0.027,0.169-0.062,0.248-0.104
			c0.067-0.037,0.063-0.113,0.067-0.182c0.005-0.047-0.003-0.096,0-0.143c0.004-0.051,0.039-0.062,0.085-0.043
			c0.169,0.061,0.336,0.139,0.511,0.178c0.241,0.053,0.474,0.107,0.686,0.242c0.204,0.129,0.444,0.176,0.679,0.229
			c0.833,0.188,1.667,0.363,2.495,0.566c0.819,0.201,1.627,0.443,2.428,0.707c0.498,0.166,0.998,0.322,1.499,0.475
			c0.137,0.041,0.284,0.041,0.427,0.062c0.041,0.006,0.084,0.014,0.123,0.023c0.2,0.07,0.399,0.143,0.6,0.209
			c0.03,0.012,0.062,0.006,0.094,0.01c0.021,0.002,0.042,0.006,0.06,0.012c0.078,0.033,0.153,0.07,0.23,0.1
			c0.017,0.008,0.04-0.006,0.061-0.006c0.02,0.004,0.045,0.004,0.06,0.018c0.078,0.061,0.162,0.08,0.265,0.045
			C26.773,27.129,26.802,27.156,26.869,27.148z"/>
	</defs>
	<clipPath id="SVGID_2_">
		<use xlink:href="#SVGID_1_"  overflow="visible"/>
	</clipPath>
	<g clip-path="url(#SVGID_2_)" enable-background="new    ">
		<g>
			<defs>
				<rect id="SVGID_3_" x="7" y="23.012" width="22" height="10"/>
			</defs>
			<clipPath id="SVGID_4_">
				<use xlink:href="#SVGID_3_"  overflow="visible"/>
			</clipPath>
			<g clip-path="url(#SVGID_4_)">
				<defs>
					<rect id="SVGID_5_" x="-38.626" y="-56.712" width="177.078" height="110.675"/>
				</defs>
				<clipPath id="SVGID_6_">
					<use xlink:href="#SVGID_5_"  overflow="visible"/>
				</clipPath>
				<g clip-path="url(#SVGID_6_)">
					<defs>
						<rect id="SVGID_7_" x="8" y="24.012" width="21" height="8"/>
					</defs>
					<clipPath id="SVGID_8_">
						<use xlink:href="#SVGID_7_"  overflow="visible"/>
					</clipPath>
					<g clip-path="url(#SVGID_8_)" enable-background="new    ">
						<g>
							<defs>
								<rect id="SVGID_9_" x="7" y="23.012" width="22" height="10"/>
							</defs>
							<clipPath id="SVGID_10_">
								<use xlink:href="#SVGID_9_"  overflow="visible"/>
							</clipPath>
							<g clip-path="url(#SVGID_10_)">
								<defs>
									<rect id="SVGID_11_" x="7.733" y="23.588" width="21.028" height="8.484"/>
								</defs>
								<clipPath id="SVGID_12_">
									<use xlink:href="#SVGID_11_"  overflow="visible"/>
								</clipPath>
								<g clip-path="url(#SVGID_12_)">
									<defs>
										<rect id="SVGID_13_" x="8" y="24.012" width="21" height="8"/>
									</defs>
									<clipPath id="SVGID_14_">
										<use xlink:href="#SVGID_13_"  overflow="visible"/>
									</clipPath>
									<rect x="2.733" y="18.588" clip-path="url(#SVGID_14_)" fill="#52CCB2" width="31.028" height="18.484"/>
								</g>
							</g>
						</g>
					</g>
				</g>
			</g>
		</g>
	</g>
</g>
<g>
	<defs>
		<path id="SVGID_15_" d="M92.962,15.588c0.208-0.033,0.491,0.096,0.664,0.241c0.213,0.178,0.341,0.128,0.483-0.045
			c0.422,0.524,1.046,0.733,1.483,0.521c0.295,0.422,0.549,0.516,1.022,0.384c0.272,0.432,0.639,0.65,1.153,0.513
			c0.244,0.36,0.469,0.721,0.724,1.057c0.073,0.098,0.229,0.148,0.356,0.182c0.372,0.092,0.554,0.336,0.481,0.713
			c-0.042,0.223,0.026,0.492-0.271,0.615c-0.032,0.014,0.003,0.184,0.003,0.279c-0.003,0.084,0.021,0.189-0.021,0.242
			c-0.312,0.059-0.431,0.012-0.459,0.045c-0.28,0.361-0.764,0.307-1.097,0.545c-0.231,0.164-0.462,0.34-0.647,0.551
			c-0.223,0.256-0.531,0.277-0.764,0.188c-0.457-0.18-0.83-0.018-1.241,0.105c-0.16,0.045-0.404,0.012-0.533-0.086
			c-0.289-0.215-0.52-0.357-0.941-0.367c-2.191-0.051-4.34,0.283-6.484,0.623c-3.601,0.568-7.178,1.275-10.783,1.805
			c-1.896,0.279-3.828,0.318-5.745,0.438c-0.741,0.045-1.491,0.033-2.235-0.002c-0.507-0.025-0.836,0.219-1.141,0.559
			c-0.274,0.312-0.56,0.623-0.815,0.949c-0.217,0.271-0.433,0.529-0.303,0.941c0.108,0.34-0.562,1.15-0.935,1.111
			c-0.534-0.059-0.896,0.232-1.242,0.525c-0.487,0.412-0.901,0.904-1.377,1.334c-0.429,0.389-0.9,0.723-1.333,1.107
			c-0.265,0.236-0.482,0.527-0.731,0.785c-0.101,0.104-0.214,0.221-0.346,0.268c-0.32,0.115-0.437,0.328-0.454,0.66
			c-0.036,0.705-0.171,0.779-0.859,0.689c-0.189-0.023-0.445,0.059-0.597,0.184c-0.65,0.543-1.268,1.125-1.911,1.678
			c-0.23,0.199-0.496,0.363-0.752,0.537c-0.411,0.283-0.808,0.596-1.246,0.832c-0.403,0.217-0.85,0.352-1.28,0.516
			c-0.336,0.127-0.667,0.295-1.015,0.352c-0.678,0.107-1.364,0.186-2.048,0.199c-0.198,0.006-0.461-0.213-0.582-0.4
			c-0.065-0.104,0.058-0.402,0.181-0.535c0.258-0.281,0.574-0.51,0.861-0.762c2.524-2.18,4.678-4.711,6.872-7.199
			c1.171-1.326,2.267-2.717,3.395-4.082c0.258-0.314,0.15-0.617-0.259-0.684c-0.725-0.115-1.448-0.234-2.181-0.299
			c-1.015-0.09-1.973,0.26-2.955,0.438c-0.717,0.133-1.341,0.502-2.015,0.732c-0.223,0.076-0.472,0.072-0.694,0.141
			c-0.712,0.217-1.405,0.512-2.13,0.662c-1.036,0.217-2.095,0.199-3.151,0.104c-0.125-0.012-0.248-0.045-0.388-0.119
			c2.421-0.672,4.793-1.459,7.018-2.629c-0.104-0.135-0.203-0.176-0.305-0.199c-2.076-0.469-4.172-0.881-6.232-1.418
			c-3.426-0.891-6.815-1.902-10.118-3.201c-1.108-0.436-2.313-0.617-3.467-0.939c-0.748-0.21-1.479-0.479-2.227-0.697
			c-0.271-0.078-0.563-0.109-0.848-0.118c-0.29-0.01-0.579,0.046-0.871,0.059c-0.435,0.018-0.831,0.14-1.238,0.305
			c-0.361,0.147-0.797,0.177-1.194,0.153c-1.045-0.062-2.089-0.216-3.137-0.062c-1.104,0.166-2.211,0.32-3.304,0.546
			c-1.504,0.314-3.017,0.438-4.546,0.378c-0.534-0.021-1.063-0.108-1.596-0.143c-0.238-0.015-0.491-0.014-0.72,0.049
			c-1.729,0.479-3.456,1.016-5.259,1.063c-1.298,0.033-2.603-0.086-3.901-0.189c-1.172-0.094-2.237-0.524-3.201-1.199
			c-0.445-0.312-0.794-0.7-1.054-1.298c0.254,0.136,0.425,0.237,0.604,0.317C1.676,16.4,2.23,16.582,2.9,16.216
			c0.602-0.327,1.307-0.461,1.961-0.694c0.941-0.337,1.893-0.647,2.811-1.042c0.655-0.284,1.294-0.425,1.992-0.265
			c0.03-0.321-0.099-0.592-0.2-0.871c-0.062-0.168-0.152-0.372-0.106-0.526c0.106-0.367,0.063-0.662-0.344-0.937
			c0.504-0.093,0.901-0.009,1.27,0.114c1.296,0.436,2.545,0.975,3.614,1.854c0.264,0.218,0.506,0.212,0.794,0.039
			c1.809-1.082,3.623-2.156,5.439-3.226c0.298-0.178,0.632-0.297,0.936-0.466c0.422-0.234,0.828-0.503,1.251-0.74
			c0.25-0.141,0.52-0.245,0.779-0.371c0.351-0.17,0.698-0.348,1.051-0.516c0.215-0.103,0.433-0.197,0.653-0.293
			c0.126-0.053,0.27-0.076,0.39-0.14c0.772-0.405,1.54-0.818,2.309-1.229c0.154-0.08,0.332-0.133,0.464-0.241
			c0.661-0.541,1.448-0.763,2.26-0.938c0.181-0.039,0.376-0.086,0.522-0.188c0.489-0.344,1.045-0.471,1.609-0.618
			c1.983-0.514,3.956-1.066,5.935-1.596c0.336-0.092,0.698-0.096,1.028-0.203c0.425-0.137,0.845-0.305,1.239-0.518
			c0.341-0.185,0.312-0.576,0.344-0.906c0.022-0.241-0.02-0.489-0.005-0.732c0.017-0.245,0.197-0.303,0.425-0.215
			C42.167,1.073,43,1.461,43.877,1.653c1.2,0.266,2.363,0.545,3.423,1.226c1.021,0.653,2.216,0.892,3.39,1.159
			c4.154,0.946,8.324,1.831,12.462,2.858c4.089,1.021,8.13,2.229,12.127,3.57c2.482,0.832,4.979,1.634,7.484,2.395
			c0.684,0.207,1.422,0.213,2.135,0.318c0.203,0.031,0.414,0.064,0.609,0.131c1,0.344,1.998,0.704,3.001,1.047
			c0.146,0.05,0.315,0.026,0.471,0.047c0.101,0.013,0.206,0.022,0.296,0.062c0.39,0.166,0.768,0.35,1.155,0.505
			c0.083,0.034,0.201-0.033,0.302-0.026c0.103,0.005,0.229,0.014,0.306,0.072c0.389,0.312,0.804,0.41,1.32,0.229
			C92.488,15.495,92.628,15.641,92.962,15.588z"/>
	</defs>
	<clipPath id="SVGID_16_">
		<use xlink:href="#SVGID_15_"  overflow="visible"/>
	</clipPath>
	<g clip-path="url(#SVGID_16_)" enable-background="new    ">
		<g>
			<defs>
				<rect id="SVGID_17_" x="-1" y="0.012" width="101" height="38"/>
			</defs>
			<clipPath id="SVGID_18_">
				<use xlink:href="#SVGID_17_"  overflow="visible"/>
			</clipPath>
			<g clip-path="url(#SVGID_18_)">
				<defs>
					<rect id="SVGID_19_" x="-38.626" y="-56.712" width="177.078" height="110.675"/>
				</defs>
				<clipPath id="SVGID_20_">
					<use xlink:href="#SVGID_19_"  overflow="visible"/>
				</clipPath>
				<g clip-path="url(#SVGID_20_)">
					<defs>
						<rect id="SVGID_21_" y="0.012" width="100" height="38"/>
					</defs>
					<clipPath id="SVGID_22_">
						<use xlink:href="#SVGID_21_"  overflow="visible"/>
					</clipPath>
					<g clip-path="url(#SVGID_22_)" enable-background="new    ">
						<g>
							<defs>
								<rect id="SVGID_23_" x="-1" y="0.012" width="101" height="38"/>
							</defs>
							<clipPath id="SVGID_24_">
								<use xlink:href="#SVGID_23_"  overflow="visible"/>
							</clipPath>
							<g clip-path="url(#SVGID_24_)">
								<defs>
									<rect id="SVGID_25_" x="-0.136" y="0.1" width="100.098" height="37.876"/>
								</defs>
								<clipPath id="SVGID_26_">
									<use xlink:href="#SVGID_25_"  overflow="visible"/>
								</clipPath>
								<g clip-path="url(#SVGID_26_)">
									<defs>
										<rect id="SVGID_27_" y="0.012" width="100" height="38"/>
									</defs>
									<clipPath id="SVGID_28_">
										<use xlink:href="#SVGID_27_"  overflow="visible"/>
									</clipPath>
									<rect x="-5.136" y="-4.9" clip-path="url(#SVGID_28_)" fill="#009777" width="110.098" height="47.876"/>
								</g>
							</g>
						</g>
					</g>
				</g>
			</g>
		</g>
	</g>
</g>
<g>
	<defs>
		<path id="SVGID_29_" d="M5.463,34.65v0.129H4.716V34.67l0.399-0.414c0.043-0.043,0.078-0.086,0.103-0.129
			c0.025-0.043,0.039-0.08,0.039-0.111c0-0.047-0.019-0.084-0.054-0.109c-0.036-0.025-0.085-0.039-0.148-0.039
			c-0.049,0-0.099,0.012-0.151,0.033c-0.051,0.023-0.099,0.053-0.142,0.092l-0.061-0.107c0.057-0.045,0.115-0.08,0.18-0.105
			c0.064-0.023,0.126-0.037,0.191-0.037c0.1,0,0.18,0.023,0.241,0.068c0.062,0.047,0.091,0.109,0.091,0.188
			c0,0.092-0.065,0.203-0.193,0.336L4.9,34.652h0.563V34.65z"/>
	</defs>
	<clipPath id="SVGID_30_">
		<use xlink:href="#SVGID_29_"  overflow="visible"/>
	</clipPath>
	<rect x="-0.299" y="28.742" clip-path="url(#SVGID_30_)" fill="#6B6B6E" width="10.762" height="11.037"/>
</g>
<g>
	<defs>
		<path id="SVGID_31_" d="M5.76,34.262c0,0.137,0.023,0.238,0.072,0.307c0.049,0.07,0.119,0.104,0.215,0.104
			c0.093,0,0.165-0.033,0.214-0.104c0.048-0.066,0.071-0.17,0.071-0.307c0-0.273-0.095-0.41-0.285-0.41
			C5.855,33.852,5.76,33.988,5.76,34.262z M6.368,33.875c0.074,0.09,0.111,0.221,0.111,0.387c0,0.17-0.037,0.299-0.111,0.389
			c-0.075,0.09-0.182,0.137-0.32,0.137c-0.141,0-0.247-0.047-0.321-0.137c-0.075-0.09-0.111-0.219-0.111-0.389
			c0-0.166,0.037-0.297,0.111-0.387c0.074-0.09,0.181-0.137,0.321-0.137C6.186,33.74,6.292,33.785,6.368,33.875z"/>
	</defs>
	<clipPath id="SVGID_32_">
		<use xlink:href="#SVGID_31_"  overflow="visible"/>
	</clipPath>
	<rect x="0.616" y="28.738" clip-path="url(#SVGID_32_)" fill="#6B6B6E" width="10.863" height="11.049"/>
</g>
<g>
	<defs>
		<polygon id="SVGID_33_" points="6.571,33.746 6.947,33.746 6.947,34.777 6.805,34.777 6.805,33.873 6.571,33.873 		"/>
	</defs>
	<clipPath id="SVGID_34_">
		<use xlink:href="#SVGID_33_"  overflow="visible"/>
	</clipPath>
	<rect x="1.571" y="28.746" clip-path="url(#SVGID_34_)" fill="#6B6B6E" width="10.376" height="11.031"/>
</g>
<g>
	<defs>
		<polygon id="SVGID_35_" points="7.115,33.746 7.492,33.746 7.492,34.777 7.349,34.777 7.349,33.873 7.115,33.873 		"/>
	</defs>
	<clipPath id="SVGID_36_">
		<use xlink:href="#SVGID_35_"  overflow="visible"/>
	</clipPath>
	<rect x="2.115" y="28.746" clip-path="url(#SVGID_36_)" fill="#6B6B6E" width="10.377" height="11.031"/>
</g>
<g>
	<defs>
		<polygon id="SVGID_37_" points="8.185,33.746 8.327,33.746 8.327,34.205 8.917,34.205 8.917,33.746 9.06,33.746 9.06,34.777 
			8.917,34.777 8.917,34.336 8.327,34.336 8.327,34.777 8.185,34.777 		"/>
	</defs>
	<clipPath id="SVGID_38_">
		<use xlink:href="#SVGID_37_"  overflow="visible"/>
	</clipPath>
	<rect x="3.185" y="28.746" clip-path="url(#SVGID_38_)" fill="#6B6B6E" width="10.875" height="11.031"/>
</g>
<g>
	<defs>
		<path id="SVGID_39_" d="M9.553,34.58c0.053,0.053,0.125,0.08,0.218,0.08c0.092,0,0.163-0.027,0.216-0.08
			c0.053-0.055,0.079-0.129,0.079-0.225v-0.609h0.142v0.609c0,0.135-0.039,0.24-0.117,0.318c-0.078,0.076-0.184,0.113-0.319,0.113
			c-0.136,0-0.244-0.037-0.322-0.113c-0.078-0.078-0.115-0.184-0.115-0.318v-0.609h0.142v0.609C9.476,34.451,9.5,34.527,9.553,34.58
			z"/>
	</defs>
	<clipPath id="SVGID_40_">
		<use xlink:href="#SVGID_39_"  overflow="visible"/>
	</clipPath>
	<rect x="4.335" y="28.746" clip-path="url(#SVGID_40_)" fill="#6B6B6E" width="10.873" height="11.041"/>
</g>
<g>
	<defs>
		<polygon id="SVGID_41_" points="10.479,33.746 10.646,33.746 11.024,34.471 11.399,33.746 11.568,33.746 11.568,34.777 
			11.435,34.777 11.434,33.953 11.067,34.67 10.981,34.67 10.61,33.953 10.61,34.777 10.479,34.777 		"/>
	</defs>
	<clipPath id="SVGID_42_">
		<use xlink:href="#SVGID_41_"  overflow="visible"/>
	</clipPath>
	<rect x="5.479" y="28.746" clip-path="url(#SVGID_42_)" fill="#6B6B6E" width="11.089" height="11.031"/>
</g>
<g>
	<defs>
		<path id="SVGID_43_" d="M12.461,34.27c0.048-0.037,0.07-0.094,0.07-0.172c0-0.072-0.022-0.129-0.07-0.166
			c-0.047-0.039-0.115-0.059-0.204-0.059l-0.25,0.002v0.455h0.25C12.346,34.33,12.414,34.311,12.461,34.27z M12.563,33.838
			c0.07,0.061,0.105,0.146,0.105,0.258c0,0.115-0.035,0.203-0.107,0.266c-0.071,0.064-0.17,0.098-0.297,0.098h-0.257v0.32h-0.142
			v-1.033h0.399C12.393,33.746,12.492,33.775,12.563,33.838z"/>
	</defs>
	<clipPath id="SVGID_44_">
		<use xlink:href="#SVGID_43_"  overflow="visible"/>
	</clipPath>
	<rect x="6.865" y="28.746" clip-path="url(#SVGID_44_)" fill="#6B6B6E" width="10.803" height="11.033"/>
</g>
<g>
	<defs>
		<path id="SVGID_45_" d="M13.469,34.605c0.044-0.029,0.065-0.072,0.065-0.127c0-0.051-0.021-0.092-0.065-0.123
			c-0.042-0.027-0.102-0.043-0.18-0.043h-0.292v0.336h0.292C13.367,34.648,13.427,34.637,13.469,34.605z M13.438,34.143
			c0.035-0.023,0.053-0.062,0.053-0.115c0-0.047-0.018-0.086-0.053-0.113c-0.036-0.025-0.085-0.037-0.149-0.037h-0.292v0.309h0.292
			C13.353,34.184,13.402,34.17,13.438,34.143z M13.544,33.814c0.062,0.045,0.092,0.109,0.092,0.189c0,0.059-0.017,0.107-0.051,0.148
			s-0.079,0.068-0.136,0.082c0.071,0.012,0.128,0.041,0.169,0.086c0.04,0.049,0.062,0.107,0.062,0.176c0,0.09-0.034,0.158-0.1,0.207
			c-0.066,0.053-0.16,0.074-0.276,0.074h-0.448v-1.031h0.442C13.401,33.746,13.485,33.77,13.544,33.814z"/>
	</defs>
	<clipPath id="SVGID_46_">
		<use xlink:href="#SVGID_45_"  overflow="visible"/>
	</clipPath>
	<rect x="7.856" y="28.746" clip-path="url(#SVGID_46_)" fill="#6B6B6E" width="10.824" height="11.031"/>
</g>
<g>
	<defs>
		<path id="SVGID_47_" d="M14.063,34.4h0.435l-0.218-0.502L14.063,34.4z M14.662,34.779l-0.109-0.252h-0.545L13.9,34.779h-0.149
			l0.458-1.033h0.147l0.458,1.033H14.662z"/>
	</defs>
	<clipPath id="SVGID_48_">
		<use xlink:href="#SVGID_47_"  overflow="visible"/>
	</clipPath>
	<rect x="8.751" y="28.746" clip-path="url(#SVGID_48_)" fill="#6B6B6E" width="11.063" height="11.033"/>
</g>
<g>
	<defs>
		<path id="SVGID_49_" d="M15.577,33.896c-0.053-0.021-0.106-0.035-0.162-0.035c-0.073,0-0.139,0.02-0.2,0.055
			c-0.062,0.035-0.109,0.084-0.145,0.145c-0.036,0.062-0.052,0.127-0.052,0.201c0,0.07,0.016,0.137,0.052,0.197
			c0.036,0.062,0.083,0.109,0.145,0.145c0.062,0.037,0.127,0.057,0.2,0.057c0.056,0,0.108-0.014,0.159-0.035
			c0.053-0.021,0.099-0.053,0.139-0.09l0.087,0.092c-0.053,0.051-0.114,0.092-0.182,0.121c-0.069,0.027-0.139,0.043-0.209,0.043
			c-0.099,0-0.189-0.023-0.271-0.068c-0.081-0.049-0.146-0.111-0.193-0.193c-0.048-0.08-0.071-0.17-0.071-0.266
			c0-0.098,0.023-0.184,0.071-0.266c0.047-0.08,0.114-0.145,0.197-0.189c0.082-0.047,0.173-0.068,0.272-0.068
			c0.071,0,0.141,0.014,0.209,0.039c0.066,0.027,0.125,0.064,0.176,0.115l-0.085,0.102C15.675,33.953,15.628,33.92,15.577,33.896z"
			/>
	</defs>
	<clipPath id="SVGID_50_">
		<use xlink:href="#SVGID_49_"  overflow="visible"/>
	</clipPath>
	<rect x="9.874" y="28.74" clip-path="url(#SVGID_50_)" fill="#6B6B6E" width="10.926" height="11.051"/>
</g>
<g>
	<defs>
		<polygon id="SVGID_51_" points="16.864,34.779 16.692,34.779 16.329,34.303 16.138,34.508 16.138,34.779 15.997,34.779 
			15.997,33.746 16.138,33.746 16.138,34.328 16.667,33.746 16.836,33.746 16.427,34.193 		"/>
	</defs>
	<clipPath id="SVGID_52_">
		<use xlink:href="#SVGID_51_"  overflow="visible"/>
	</clipPath>
	<rect x="10.997" y="28.746" clip-path="url(#SVGID_52_)" fill="#6B6B6E" width="10.867" height="11.033"/>
</g>
<g>
	<defs>
		<polygon id="SVGID_53_" points="18.669,33.746 18.815,33.746 18.467,34.777 18.32,34.777 18.053,33.926 17.782,34.777 
			17.636,34.777 17.287,33.746 17.44,33.746 17.713,34.627 17.984,33.746 18.126,33.746 18.399,34.627 		"/>
	</defs>
	<clipPath id="SVGID_54_">
		<use xlink:href="#SVGID_53_"  overflow="visible"/>
	</clipPath>
	<rect x="12.287" y="28.746" clip-path="url(#SVGID_54_)" fill="#6B6B6E" width="11.528" height="11.031"/>
</g>
<g>
	<defs>
		<polygon id="SVGID_55_" points="18.97,33.746 19.112,33.746 19.112,34.205 19.702,34.205 19.702,33.746 19.845,33.746 
			19.845,34.777 19.702,34.777 19.702,34.336 19.112,34.336 19.112,34.777 18.97,34.777 		"/>
	</defs>
	<clipPath id="SVGID_56_">
		<use xlink:href="#SVGID_55_"  overflow="visible"/>
	</clipPath>
	<rect x="13.97" y="28.746" clip-path="url(#SVGID_56_)" fill="#6B6B6E" width="10.875" height="11.031"/>
</g>
<g>
	<defs>
		<path id="SVGID_57_" d="M20.31,34.4h0.435l-0.219-0.502L20.31,34.4z M20.908,34.779l-0.109-0.252h-0.543l-0.108,0.252h-0.149
			l0.458-1.033h0.146l0.459,1.033H20.908z"/>
	</defs>
	<clipPath id="SVGID_58_">
		<use xlink:href="#SVGID_57_"  overflow="visible"/>
	</clipPath>
	<rect x="14.999" y="28.746" clip-path="url(#SVGID_58_)" fill="#6B6B6E" width="11.063" height="11.033"/>
</g>
<g>
	<defs>
		<polygon id="SVGID_59_" points="21.212,33.746 21.354,33.746 21.354,34.65 21.806,34.65 21.806,34.777 21.213,34.777 
			21.213,33.746 		"/>
	</defs>
	<clipPath id="SVGID_60_">
		<use xlink:href="#SVGID_59_"  overflow="visible"/>
	</clipPath>
	<rect x="16.212" y="28.746" clip-path="url(#SVGID_60_)" fill="#6B6B6E" width="10.594" height="11.031"/>
</g>
<g>
	<defs>
		<polygon id="SVGID_61_" points="21.985,33.746 22.702,33.746 22.702,33.873 22.127,33.873 22.127,34.193 22.642,34.193 
			22.642,34.32 22.127,34.32 22.127,34.65 22.721,34.65 22.721,34.777 21.985,34.777 		"/>
	</defs>
	<clipPath id="SVGID_62_">
		<use xlink:href="#SVGID_61_"  overflow="visible"/>
	</clipPath>
	<rect x="16.985" y="28.746" clip-path="url(#SVGID_62_)" fill="#6B6B6E" width="10.736" height="11.031"/>
</g>
<g>
	<defs>
		<path id="SVGID_63_" d="M23.79,33.893c-0.052-0.016-0.099-0.021-0.143-0.021c-0.06,0-0.107,0.012-0.144,0.033
			c-0.037,0.023-0.054,0.057-0.054,0.096s0.011,0.066,0.033,0.09c0.021,0.021,0.047,0.041,0.079,0.055
			c0.031,0.016,0.076,0.029,0.131,0.045c0.07,0.023,0.128,0.045,0.17,0.064s0.08,0.049,0.11,0.088
			c0.03,0.037,0.046,0.09,0.046,0.152c0,0.061-0.017,0.111-0.048,0.154c-0.032,0.045-0.078,0.078-0.134,0.105
			c-0.059,0.021-0.125,0.033-0.199,0.033c-0.075,0-0.149-0.014-0.222-0.043c-0.072-0.027-0.133-0.068-0.186-0.119l0.063-0.121
			c0.05,0.049,0.105,0.086,0.167,0.109c0.062,0.027,0.122,0.039,0.18,0.039c0.069,0,0.122-0.012,0.163-0.039
			c0.04-0.027,0.06-0.062,0.06-0.109c0-0.035-0.011-0.066-0.033-0.09c-0.021-0.023-0.049-0.043-0.081-0.059
			c-0.034-0.012-0.078-0.027-0.134-0.045c-0.069-0.02-0.125-0.041-0.169-0.059c-0.043-0.021-0.079-0.051-0.109-0.088
			c-0.03-0.039-0.045-0.092-0.045-0.152c0-0.055,0.015-0.105,0.046-0.146c0.031-0.041,0.073-0.074,0.128-0.098
			c0.055-0.023,0.119-0.033,0.192-0.033c0.062,0,0.123,0.01,0.183,0.025c0.059,0.02,0.112,0.043,0.158,0.072l-0.059,0.129
			C23.891,33.93,23.84,33.908,23.79,33.893z"/>
	</defs>
	<clipPath id="SVGID_64_">
		<use xlink:href="#SVGID_63_"  overflow="visible"/>
	</clipPath>
	<rect x="18.229" y="28.734" clip-path="url(#SVGID_64_)" fill="#6B6B6E" width="10.789" height="11.053"/>
</g>
<g>
	<defs>
		<rect id="SVGID_65_" x="24.245" y="33.746" width="0.142" height="1.031"/>
	</defs>
	<clipPath id="SVGID_66_">
		<use xlink:href="#SVGID_65_"  overflow="visible"/>
	</clipPath>
	<rect x="19.245" y="28.746" clip-path="url(#SVGID_66_)" fill="#6B6B6E" width="10.142" height="11.031"/>
</g>
<g>
	<defs>
		<path id="SVGID_67_" d="M25.395,34.273h0.125v0.379c-0.052,0.043-0.113,0.074-0.183,0.102c-0.069,0.023-0.138,0.035-0.208,0.035
			c-0.099,0-0.191-0.021-0.272-0.068c-0.083-0.049-0.149-0.111-0.196-0.193c-0.047-0.08-0.072-0.168-0.072-0.266
			c0-0.096,0.025-0.184,0.073-0.264c0.049-0.082,0.114-0.145,0.198-0.189c0.084-0.049,0.175-0.07,0.277-0.07
			c0.073,0,0.143,0.014,0.211,0.039c0.069,0.023,0.127,0.061,0.178,0.104l-0.082,0.105c-0.042-0.039-0.089-0.068-0.142-0.092
			c-0.054-0.02-0.109-0.031-0.166-0.031c-0.074,0-0.142,0.018-0.203,0.055c-0.063,0.035-0.112,0.084-0.146,0.145
			c-0.037,0.062-0.054,0.127-0.054,0.201c0,0.072,0.018,0.139,0.054,0.201s0.084,0.109,0.147,0.146
			c0.062,0.035,0.129,0.055,0.203,0.055c0.043,0,0.087-0.006,0.133-0.021c0.045-0.014,0.086-0.035,0.124-0.059L25.395,34.273
			L25.395,34.273z"/>
	</defs>
	<clipPath id="SVGID_68_">
		<use xlink:href="#SVGID_67_"  overflow="visible"/>
	</clipPath>
	<rect x="19.589" y="28.738" clip-path="url(#SVGID_68_)" fill="#6B6B6E" width="10.937" height="11.051"/>
</g>
<g>
	<defs>
		<polygon id="SVGID_69_" points="25.79,33.746 25.932,33.746 25.932,34.205 26.522,34.205 26.522,33.746 26.665,33.746 
			26.665,34.777 26.522,34.777 26.522,34.336 25.932,34.336 25.932,34.777 25.79,34.777 		"/>
	</defs>
	<clipPath id="SVGID_70_">
		<use xlink:href="#SVGID_69_"  overflow="visible"/>
	</clipPath>
	<rect x="20.79" y="28.746" clip-path="url(#SVGID_70_)" fill="#6B6B6E" width="10.875" height="11.031"/>
</g>
<g>
	<defs>
		<polygon id="SVGID_71_" points="26.827,33.746 27.634,33.746 27.634,33.875 27.301,33.875 27.301,34.777 27.159,34.777 
			27.159,33.875 26.827,33.875 		"/>
	</defs>
	<clipPath id="SVGID_72_">
		<use xlink:href="#SVGID_71_"  overflow="visible"/>
	</clipPath>
	<rect x="21.827" y="28.746" clip-path="url(#SVGID_72_)" fill="#6B6B6E" width="10.807" height="11.031"/>
</g>
<g>
	<defs>
		<rect id="SVGID_73_" x="27.797" y="33.746" width="0.142" height="1.031"/>
	</defs>
	<clipPath id="SVGID_74_">
		<use xlink:href="#SVGID_73_"  overflow="visible"/>
	</clipPath>
	<rect x="22.797" y="28.746" clip-path="url(#SVGID_74_)" fill="#6B6B6E" width="10.142" height="11.031"/>
</g>
<g>
	<defs>
		<polygon id="SVGID_75_" points="28.968,33.746 29.109,33.746 29.109,34.777 28.965,34.777 28.375,33.979 28.375,34.777 
			28.233,34.777 28.233,33.746 28.376,33.746 28.968,34.549 		"/>
	</defs>
	<clipPath id="SVGID_76_">
		<use xlink:href="#SVGID_75_"  overflow="visible"/>
	</clipPath>
	<rect x="23.233" y="28.746" clip-path="url(#SVGID_76_)" fill="#6B6B6E" width="10.876" height="11.031"/>
</g>
<g>
	<defs>
		<path id="SVGID_77_" d="M30.119,34.273h0.125v0.379c-0.053,0.043-0.113,0.074-0.183,0.102c-0.07,0.023-0.139,0.035-0.208,0.035
			c-0.099,0-0.19-0.021-0.273-0.068c-0.083-0.049-0.147-0.111-0.195-0.193c-0.047-0.08-0.071-0.168-0.071-0.266
			c0-0.096,0.024-0.184,0.073-0.264c0.047-0.082,0.114-0.145,0.198-0.189c0.083-0.049,0.176-0.07,0.277-0.07
			c0.072,0,0.142,0.014,0.211,0.039c0.067,0.023,0.126,0.061,0.178,0.104l-0.083,0.105c-0.04-0.039-0.088-0.068-0.142-0.092
			c-0.053-0.02-0.107-0.031-0.164-0.031c-0.074,0-0.142,0.018-0.204,0.055c-0.061,0.035-0.11,0.084-0.146,0.145
			c-0.036,0.062-0.054,0.127-0.054,0.201c0,0.072,0.019,0.139,0.055,0.201c0.036,0.062,0.085,0.109,0.148,0.146
			c0.062,0.035,0.129,0.055,0.203,0.055c0.043,0,0.087-0.006,0.132-0.021c0.045-0.014,0.086-0.035,0.125-0.059v-0.312H30.119z"/>
	</defs>
	<clipPath id="SVGID_78_">
		<use xlink:href="#SVGID_77_"  overflow="visible"/>
	</clipPath>
	<rect x="24.314" y="28.738" clip-path="url(#SVGID_78_)" fill="#6B6B6E" width="10.937" height="11.051"/>
</g>
<g>
	<defs>
		<path id="SVGID_79_" d="M30.968,33.893c-0.053-0.016-0.101-0.021-0.144-0.021c-0.059,0-0.108,0.012-0.143,0.033
			c-0.037,0.023-0.054,0.057-0.054,0.096s0.01,0.066,0.033,0.09c0.021,0.021,0.048,0.041,0.079,0.055
			c0.031,0.016,0.075,0.029,0.132,0.045c0.07,0.023,0.126,0.045,0.17,0.064c0.043,0.02,0.081,0.049,0.111,0.088
			c0.03,0.037,0.044,0.09,0.044,0.152c0,0.061-0.015,0.111-0.047,0.154c-0.033,0.045-0.077,0.078-0.134,0.105
			c-0.058,0.021-0.124,0.033-0.199,0.033c-0.076,0-0.149-0.014-0.221-0.043c-0.071-0.027-0.134-0.068-0.186-0.119l0.062-0.121
			c0.049,0.049,0.104,0.086,0.167,0.109c0.061,0.027,0.121,0.039,0.179,0.039c0.069,0,0.123-0.012,0.163-0.039
			c0.039-0.027,0.06-0.062,0.06-0.109c0-0.035-0.011-0.066-0.032-0.09s-0.049-0.043-0.083-0.059
			c-0.032-0.012-0.077-0.027-0.132-0.045c-0.069-0.02-0.125-0.041-0.169-0.059c-0.042-0.021-0.079-0.051-0.109-0.088
			c-0.03-0.039-0.045-0.092-0.045-0.152c0-0.055,0.015-0.105,0.046-0.146c0.03-0.041,0.073-0.074,0.128-0.098
			s0.119-0.033,0.192-0.033c0.062,0,0.123,0.01,0.182,0.025c0.06,0.02,0.112,0.043,0.159,0.072l-0.059,0.129
			C31.069,33.93,31.018,33.908,30.968,33.893z"/>
	</defs>
	<clipPath id="SVGID_80_">
		<use xlink:href="#SVGID_79_"  overflow="visible"/>
	</clipPath>
	<rect x="25.409" y="28.734" clip-path="url(#SVGID_80_)" fill="#6B6B6E" width="10.787" height="11.053"/>
</g>
<g>
	<defs>
		<path id="SVGID_81_" d="M49.855,40.553v0.129h-0.747v-0.109l0.401-0.416c0.042-0.043,0.078-0.084,0.103-0.127
			c0.025-0.043,0.038-0.078,0.038-0.111c0-0.045-0.018-0.082-0.053-0.109c-0.038-0.027-0.085-0.041-0.15-0.041
			c-0.048,0-0.098,0.014-0.148,0.035c-0.052,0.021-0.1,0.053-0.143,0.092l-0.06-0.107c0.056-0.045,0.116-0.08,0.178-0.105
			c0.065-0.025,0.128-0.037,0.19-0.037c0.103,0,0.183,0.023,0.243,0.068c0.06,0.047,0.09,0.107,0.09,0.188
			c0,0.092-0.063,0.203-0.19,0.336l-0.313,0.318h0.561V40.553z"/>
	</defs>
	<clipPath id="SVGID_82_">
		<use xlink:href="#SVGID_81_"  overflow="visible"/>
	</clipPath>
	<rect x="44.096" y="34.645" clip-path="url(#SVGID_82_)" fill="#6B6B6E" width="10.759" height="11.037"/>
</g>
<g>
	<defs>
		<path id="SVGID_83_" d="M50.153,40.164c0,0.137,0.024,0.238,0.071,0.309c0.049,0.068,0.121,0.104,0.214,0.104
			c0.096,0,0.165-0.033,0.214-0.104c0.05-0.068,0.074-0.172,0.074-0.309c0-0.271-0.098-0.408-0.288-0.408
			C50.249,39.756,50.153,39.893,50.153,40.164z M50.76,39.779c0.075,0.088,0.113,0.219,0.113,0.387c0,0.17-0.038,0.297-0.113,0.389
			c-0.075,0.09-0.183,0.135-0.32,0.135c-0.139,0-0.245-0.045-0.32-0.135c-0.073-0.092-0.11-0.219-0.11-0.389
			c0-0.168,0.038-0.299,0.11-0.387c0.075-0.092,0.183-0.137,0.32-0.137S50.685,39.688,50.76,39.779z"/>
	</defs>
	<clipPath id="SVGID_84_">
		<use xlink:href="#SVGID_83_"  overflow="visible"/>
	</clipPath>
	<rect x="45.009" y="34.643" clip-path="url(#SVGID_84_)" fill="#6B6B6E" width="10.864" height="11.047"/>
</g>
<g>
	<defs>
		<polygon id="SVGID_85_" points="50.963,39.648 51.339,39.648 51.339,40.682 51.198,40.682 51.198,39.775 50.963,39.775 		"/>
	</defs>
	<clipPath id="SVGID_86_">
		<use xlink:href="#SVGID_85_"  overflow="visible"/>
	</clipPath>
	<rect x="45.963" y="34.648" clip-path="url(#SVGID_86_)" fill="#6B6B6E" width="10.376" height="11.033"/>
</g>
<g>
	<defs>
		<path id="SVGID_87_" d="M52.301,40.553v0.129h-0.747v-0.109l0.401-0.416c0.043-0.043,0.078-0.084,0.103-0.127
			c0.025-0.043,0.038-0.078,0.038-0.111c0-0.045-0.018-0.082-0.053-0.109s-0.085-0.041-0.146-0.041
			c-0.052,0-0.102,0.014-0.151,0.035c-0.052,0.021-0.101,0.053-0.144,0.092l-0.06-0.107c0.055-0.045,0.115-0.08,0.181-0.105
			c0.062-0.025,0.125-0.037,0.19-0.037c0.1,0,0.18,0.023,0.24,0.068c0.061,0.047,0.09,0.107,0.09,0.188
			c0,0.092-0.062,0.203-0.19,0.336l-0.311,0.318h0.559V40.553z"/>
	</defs>
	<clipPath id="SVGID_88_">
		<use xlink:href="#SVGID_87_"  overflow="visible"/>
	</clipPath>
	<rect x="46.542" y="34.645" clip-path="url(#SVGID_88_)" fill="#6B6B6E" width="10.759" height="11.037"/>
</g>
<g>
	<defs>
		<polygon id="SVGID_89_" points="52.885,39.648 53.028,39.648 53.028,40.109 53.618,40.109 53.618,39.648 53.763,39.648 
			53.763,40.682 53.618,40.682 53.618,40.238 53.028,40.238 53.028,40.682 52.885,40.682 		"/>
	</defs>
	<clipPath id="SVGID_90_">
		<use xlink:href="#SVGID_89_"  overflow="visible"/>
	</clipPath>
	<rect x="47.885" y="34.648" clip-path="url(#SVGID_90_)" fill="#6B6B6E" width="10.878" height="11.033"/>
</g>
<g>
	<defs>
		<path id="SVGID_91_" d="M54.256,40.482c0.05,0.055,0.125,0.082,0.216,0.082c0.094,0,0.162-0.027,0.215-0.082
			c0.054-0.053,0.08-0.127,0.08-0.223v-0.611h0.143v0.611c0,0.135-0.038,0.24-0.115,0.316c-0.078,0.076-0.187,0.115-0.321,0.115
			c-0.136,0-0.244-0.039-0.32-0.115c-0.078-0.076-0.115-0.182-0.115-0.316v-0.611h0.141v0.611
			C54.176,40.355,54.203,40.43,54.256,40.482z"/>
	</defs>
	<clipPath id="SVGID_92_">
		<use xlink:href="#SVGID_91_"  overflow="visible"/>
	</clipPath>
	<rect x="49.037" y="34.648" clip-path="url(#SVGID_92_)" fill="#6B6B6E" width="10.872" height="11.043"/>
</g>
<g>
	<defs>
		<polygon id="SVGID_93_" points="55.181,39.648 55.348,39.648 55.727,40.377 56.1,39.648 56.271,39.648 56.271,40.682 
			56.138,40.682 56.138,39.855 55.77,40.572 55.683,40.572 55.312,39.855 55.312,40.682 55.181,40.682 		"/>
	</defs>
	<clipPath id="SVGID_94_">
		<use xlink:href="#SVGID_93_"  overflow="visible"/>
	</clipPath>
	<rect x="50.181" y="34.648" clip-path="url(#SVGID_94_)" fill="#6B6B6E" width="11.091" height="11.033"/>
</g>
<g>
	<defs>
		<path id="SVGID_95_" d="M57.163,40.174c0.048-0.039,0.07-0.098,0.07-0.172s-0.022-0.131-0.07-0.168
			c-0.048-0.039-0.116-0.059-0.205-0.059l-0.251,0.002v0.453h0.251C57.047,40.232,57.115,40.211,57.163,40.174z M57.264,39.74
			c0.069,0.062,0.104,0.146,0.104,0.258c0,0.113-0.035,0.203-0.104,0.268s-0.171,0.096-0.299,0.096h-0.258v0.32h-0.14v-1.033h0.396
			C57.093,39.648,57.193,39.678,57.264,39.74z"/>
	</defs>
	<clipPath id="SVGID_96_">
		<use xlink:href="#SVGID_95_"  overflow="visible"/>
	</clipPath>
	<rect x="51.567" y="34.648" clip-path="url(#SVGID_96_)" fill="#6B6B6E" width="10.801" height="11.033"/>
</g>
<g>
	<defs>
		<path id="SVGID_97_" d="M58.171,40.508c0.042-0.029,0.064-0.072,0.064-0.125s-0.022-0.094-0.064-0.123
			c-0.043-0.029-0.104-0.043-0.181-0.043h-0.293v0.336h0.293C58.067,40.553,58.128,40.537,58.171,40.508z M58.138,40.047
			c0.035-0.027,0.055-0.066,0.055-0.117c0-0.049-0.02-0.086-0.055-0.113c-0.035-0.025-0.084-0.037-0.146-0.037h-0.293v0.309h0.293
			C58.054,40.088,58.103,40.072,58.138,40.047z M58.245,39.717c0.062,0.047,0.091,0.109,0.091,0.188c0,0.062-0.016,0.109-0.05,0.15
			c-0.033,0.043-0.077,0.068-0.135,0.084c0.068,0.01,0.127,0.039,0.167,0.086c0.04,0.045,0.062,0.104,0.062,0.174
			c0,0.09-0.035,0.156-0.102,0.207c-0.067,0.051-0.157,0.074-0.275,0.074h-0.448v-1.033h0.441
			C58.103,39.648,58.186,39.672,58.245,39.717z"/>
	</defs>
	<clipPath id="SVGID_98_">
		<use xlink:href="#SVGID_97_"  overflow="visible"/>
	</clipPath>
	<rect x="52.556" y="34.646" clip-path="url(#SVGID_98_)" fill="#6B6B6E" width="10.825" height="11.033"/>
</g>
<g>
	<defs>
		<path id="SVGID_99_" d="M58.765,40.303h0.435l-0.218-0.502L58.765,40.303z M59.363,40.682l-0.109-0.252H58.71l-0.108,0.252h-0.149
			l0.461-1.033h0.146l0.457,1.033H59.363z"/>
	</defs>
	<clipPath id="SVGID_100_">
		<use xlink:href="#SVGID_99_"  overflow="visible"/>
	</clipPath>
	<rect x="53.452" y="34.648" clip-path="url(#SVGID_100_)" fill="#6B6B6E" width="11.063" height="11.033"/>
</g>
<g>
	<defs>
		<path id="SVGID_101_" d="M60.278,39.801c-0.054-0.025-0.105-0.037-0.161-0.037c-0.074,0-0.141,0.021-0.202,0.055
			c-0.062,0.035-0.108,0.084-0.143,0.145c-0.035,0.061-0.054,0.127-0.054,0.201c0,0.068,0.019,0.137,0.054,0.197
			c0.033,0.062,0.081,0.109,0.143,0.146c0.062,0.033,0.128,0.051,0.202,0.051c0.053,0,0.105-0.01,0.159-0.033
			c0.052-0.021,0.098-0.053,0.14-0.09l0.085,0.092c-0.052,0.053-0.113,0.092-0.183,0.121c-0.068,0.027-0.139,0.043-0.208,0.043
			c-0.102,0-0.188-0.021-0.271-0.068c-0.083-0.049-0.146-0.109-0.192-0.191c-0.048-0.082-0.07-0.17-0.07-0.268
			s0.022-0.186,0.07-0.266c0.047-0.08,0.112-0.143,0.194-0.188c0.083-0.047,0.173-0.07,0.273-0.07c0.069,0,0.141,0.014,0.208,0.041
			s0.126,0.064,0.176,0.115l-0.083,0.1C60.376,39.855,60.33,39.824,60.278,39.801z"/>
	</defs>
	<clipPath id="SVGID_102_">
		<use xlink:href="#SVGID_101_"  overflow="visible"/>
	</clipPath>
	<rect x="54.576" y="34.641" clip-path="url(#SVGID_102_)" fill="#6B6B6E" width="10.925" height="11.051"/>
</g>
<g>
	<defs>
		<polygon id="SVGID_103_" points="61.563,40.682 61.392,40.682 61.03,40.205 60.84,40.412 60.84,40.682 60.7,40.682 60.7,39.648 
			60.84,39.648 60.84,40.229 61.368,39.648 61.539,39.648 61.128,40.094 		"/>
	</defs>
	<clipPath id="SVGID_104_">
		<use xlink:href="#SVGID_103_"  overflow="visible"/>
	</clipPath>
	<rect x="55.7" y="34.648" clip-path="url(#SVGID_104_)" fill="#6B6B6E" width="10.863" height="11.033"/>
</g>
<g>
	<defs>
		<polygon id="SVGID_105_" points="63.371,39.648 63.519,39.648 63.167,40.682 63.02,40.682 62.754,39.828 62.481,40.682 
			62.335,40.682 61.986,39.648 62.139,39.648 62.411,40.529 62.682,39.648 62.826,39.648 63.097,40.529 		"/>
	</defs>
	<clipPath id="SVGID_106_">
		<use xlink:href="#SVGID_105_"  overflow="visible"/>
	</clipPath>
	<rect x="56.986" y="34.648" clip-path="url(#SVGID_106_)" fill="#6B6B6E" width="11.532" height="11.033"/>
</g>
<g>
	<defs>
		<polygon id="SVGID_107_" points="63.671,39.648 63.813,39.648 63.813,40.109 64.404,40.109 64.404,39.648 64.548,39.648 
			64.548,40.682 64.404,40.682 64.404,40.238 63.813,40.238 63.813,40.682 63.671,40.682 		"/>
	</defs>
	<clipPath id="SVGID_108_">
		<use xlink:href="#SVGID_107_"  overflow="visible"/>
	</clipPath>
	<rect x="58.671" y="34.648" clip-path="url(#SVGID_108_)" fill="#6B6B6E" width="10.877" height="11.033"/>
</g>
<g>
	<defs>
		<path id="SVGID_109_" d="M65.01,40.303h0.437l-0.219-0.502L65.01,40.303z M65.609,40.682l-0.108-0.252h-0.546l-0.108,0.252H64.7
			l0.458-1.033h0.147l0.456,1.033H65.609z"/>
	</defs>
	<clipPath id="SVGID_110_">
		<use xlink:href="#SVGID_109_"  overflow="visible"/>
	</clipPath>
	<rect x="59.7" y="34.648" clip-path="url(#SVGID_110_)" fill="#6B6B6E" width="11.062" height="11.033"/>
</g>
<g>
	<defs>
		<polygon id="SVGID_111_" points="65.913,39.648 66.055,39.648 66.055,40.553 66.506,40.553 66.506,40.682 65.913,40.682 		"/>
	</defs>
	<clipPath id="SVGID_112_">
		<use xlink:href="#SVGID_111_"  overflow="visible"/>
	</clipPath>
	<rect x="60.913" y="34.648" clip-path="url(#SVGID_112_)" fill="#6B6B6E" width="10.593" height="11.033"/>
</g>
<g>
	<defs>
		<polygon id="SVGID_113_" points="66.688,39.648 67.404,39.648 67.404,39.775 66.828,39.775 66.828,40.096 67.345,40.096 
			67.345,40.225 66.828,40.225 66.828,40.553 67.422,40.553 67.422,40.682 66.689,40.682 66.689,39.648 		"/>
	</defs>
	<clipPath id="SVGID_114_">
		<use xlink:href="#SVGID_113_"  overflow="visible"/>
	</clipPath>
	<rect x="61.688" y="34.648" clip-path="url(#SVGID_114_)" fill="#6B6B6E" width="10.733" height="11.033"/>
</g>
<g>
	<defs>
		<path id="SVGID_115_" d="M68.491,39.795c-0.053-0.016-0.102-0.021-0.144-0.021c-0.061,0-0.107,0.012-0.144,0.033
			c-0.037,0.023-0.056,0.055-0.056,0.096c0,0.037,0.011,0.066,0.032,0.09c0.022,0.023,0.048,0.041,0.08,0.057
			c0.03,0.012,0.075,0.027,0.131,0.045c0.07,0.021,0.128,0.043,0.172,0.061c0.042,0.021,0.078,0.053,0.109,0.09
			c0.029,0.037,0.045,0.09,0.045,0.152c0,0.061-0.016,0.113-0.049,0.156c-0.031,0.043-0.074,0.078-0.132,0.102
			c-0.059,0.025-0.126,0.037-0.201,0.037s-0.147-0.016-0.22-0.045c-0.073-0.027-0.133-0.066-0.188-0.117l0.062-0.123
			c0.051,0.051,0.105,0.086,0.166,0.111c0.062,0.025,0.123,0.039,0.181,0.039c0.067,0,0.123-0.014,0.163-0.041
			c0.04-0.025,0.061-0.061,0.061-0.109c0-0.035-0.014-0.066-0.032-0.088c-0.022-0.025-0.051-0.043-0.083-0.057
			c-0.032-0.016-0.077-0.029-0.133-0.047c-0.07-0.021-0.127-0.041-0.169-0.062c-0.042-0.018-0.079-0.047-0.108-0.086
			c-0.03-0.039-0.046-0.09-0.046-0.152c0-0.055,0.016-0.104,0.046-0.146c0.029-0.041,0.074-0.074,0.127-0.096
			c0.058-0.023,0.12-0.033,0.193-0.033c0.062,0,0.122,0.008,0.184,0.027c0.058,0.018,0.111,0.041,0.157,0.072l-0.061,0.125
			C68.591,39.834,68.542,39.812,68.491,39.795z"/>
	</defs>
	<clipPath id="SVGID_116_">
		<use xlink:href="#SVGID_115_"  overflow="visible"/>
	</clipPath>
	<rect x="62.929" y="34.639" clip-path="url(#SVGID_116_)" fill="#6B6B6E" width="10.789" height="11.053"/>
</g>
<g>
	<defs>
		<rect id="SVGID_117_" x="68.945" y="39.648" width="0.143" height="1.033"/>
	</defs>
	<clipPath id="SVGID_118_">
		<use xlink:href="#SVGID_117_"  overflow="visible"/>
	</clipPath>
	<rect x="63.945" y="34.648" clip-path="url(#SVGID_118_)" fill="#6B6B6E" width="10.143" height="11.033"/>
</g>
<g>
	<defs>
		<path id="SVGID_119_" d="M70.095,40.176h0.129v0.379c-0.054,0.041-0.115,0.076-0.187,0.1c-0.067,0.025-0.138,0.037-0.208,0.037
			c-0.098,0-0.189-0.021-0.271-0.068c-0.083-0.049-0.146-0.109-0.194-0.191s-0.073-0.17-0.073-0.268s0.025-0.186,0.073-0.266
			s0.114-0.143,0.196-0.188c0.084-0.047,0.178-0.07,0.279-0.07c0.07,0,0.14,0.012,0.21,0.039c0.067,0.025,0.125,0.061,0.176,0.105
			l-0.08,0.102c-0.039-0.039-0.091-0.066-0.144-0.088c-0.052-0.021-0.107-0.033-0.162-0.033c-0.075,0-0.143,0.02-0.206,0.055
			c-0.062,0.035-0.108,0.082-0.145,0.145c-0.038,0.061-0.057,0.127-0.057,0.201c0,0.072,0.019,0.139,0.057,0.199
			c0.035,0.062,0.084,0.111,0.146,0.148c0.062,0.035,0.131,0.053,0.204,0.053c0.042,0,0.087-0.008,0.133-0.021
			c0.045-0.016,0.085-0.035,0.122-0.061v-0.309H70.095z"/>
	</defs>
	<clipPath id="SVGID_120_">
		<use xlink:href="#SVGID_119_"  overflow="visible"/>
	</clipPath>
	<rect x="64.29" y="34.641" clip-path="url(#SVGID_120_)" fill="#6B6B6E" width="10.935" height="11.051"/>
</g>
<g>
	<defs>
		<polygon id="SVGID_121_" points="70.491,39.648 70.632,39.648 70.632,40.109 71.224,40.109 71.224,39.648 71.367,39.648 
			71.367,40.682 71.224,40.682 71.224,40.238 70.632,40.238 70.632,40.682 70.491,40.682 		"/>
	</defs>
	<clipPath id="SVGID_122_">
		<use xlink:href="#SVGID_121_"  overflow="visible"/>
	</clipPath>
	<rect x="65.491" y="34.648" clip-path="url(#SVGID_122_)" fill="#6B6B6E" width="10.876" height="11.033"/>
</g>
<g>
	<defs>
		<polygon id="SVGID_123_" points="71.528,39.648 72.336,39.648 72.336,39.779 72.002,39.779 72.002,40.682 71.86,40.682 
			71.86,39.779 71.528,39.779 		"/>
	</defs>
	<clipPath id="SVGID_124_">
		<use xlink:href="#SVGID_123_"  overflow="visible"/>
	</clipPath>
	<rect x="66.528" y="34.648" clip-path="url(#SVGID_124_)" fill="#6B6B6E" width="10.808" height="11.033"/>
</g>
<g>
	<defs>
		<rect id="SVGID_125_" x="72.499" y="39.648" width="0.14" height="1.033"/>
	</defs>
	<clipPath id="SVGID_126_">
		<use xlink:href="#SVGID_125_"  overflow="visible"/>
	</clipPath>
	<rect x="67.499" y="34.648" clip-path="url(#SVGID_126_)" fill="#6B6B6E" width="10.14" height="11.033"/>
</g>
<g>
	<defs>
		<polygon id="SVGID_127_" points="73.669,39.648 73.809,39.648 73.809,40.682 73.666,40.682 73.074,39.881 73.074,40.682 
			72.934,40.682 72.934,39.648 73.078,39.648 73.669,40.451 		"/>
	</defs>
	<clipPath id="SVGID_128_">
		<use xlink:href="#SVGID_127_"  overflow="visible"/>
	</clipPath>
	<rect x="67.934" y="34.648" clip-path="url(#SVGID_128_)" fill="#6B6B6E" width="10.875" height="11.033"/>
</g>
<g>
	<defs>
		<path id="SVGID_129_" d="M74.819,40.176h0.125v0.379c-0.053,0.041-0.113,0.076-0.184,0.1c-0.069,0.025-0.138,0.037-0.208,0.037
			c-0.098,0-0.189-0.021-0.272-0.068c-0.08-0.049-0.147-0.109-0.195-0.191s-0.07-0.17-0.07-0.268s0.022-0.186,0.073-0.266
			c0.047-0.08,0.112-0.143,0.197-0.188c0.083-0.047,0.176-0.07,0.274-0.07c0.073,0,0.145,0.012,0.212,0.039
			c0.067,0.025,0.128,0.061,0.179,0.105l-0.081,0.102c-0.043-0.039-0.09-0.066-0.144-0.088c-0.056-0.021-0.107-0.033-0.166-0.033
			c-0.07,0-0.14,0.02-0.201,0.055c-0.062,0.035-0.11,0.082-0.148,0.145c-0.035,0.061-0.052,0.127-0.052,0.201
			c0,0.072,0.017,0.139,0.055,0.199c0.035,0.062,0.085,0.111,0.147,0.148c0.061,0.035,0.129,0.053,0.204,0.053
			c0.042,0,0.087-0.008,0.129-0.021c0.046-0.016,0.089-0.035,0.126-0.061V40.176z"/>
	</defs>
	<clipPath id="SVGID_130_">
		<use xlink:href="#SVGID_129_"  overflow="visible"/>
	</clipPath>
	<rect x="69.015" y="34.641" clip-path="url(#SVGID_130_)" fill="#6B6B6E" width="10.936" height="11.051"/>
</g>
<g>
	<defs>
		<path id="SVGID_131_" d="M75.669,39.795c-0.053-0.016-0.1-0.021-0.144-0.021c-0.061,0-0.106,0.012-0.146,0.033
			c-0.035,0.023-0.053,0.055-0.053,0.096c0,0.037,0.011,0.066,0.032,0.09c0.021,0.021,0.048,0.041,0.077,0.057
			c0.033,0.012,0.078,0.027,0.134,0.045c0.068,0.021,0.127,0.043,0.171,0.061c0.042,0.021,0.08,0.053,0.108,0.09
			c0.03,0.037,0.047,0.09,0.047,0.152c0,0.061-0.017,0.113-0.049,0.156s-0.078,0.078-0.134,0.102
			c-0.058,0.025-0.124,0.037-0.199,0.037s-0.147-0.016-0.222-0.045c-0.072-0.027-0.132-0.066-0.185-0.117l0.062-0.123
			c0.05,0.051,0.105,0.086,0.166,0.111c0.062,0.025,0.122,0.039,0.18,0.039c0.067,0,0.122-0.014,0.162-0.041
			c0.04-0.025,0.062-0.061,0.062-0.109c0-0.035-0.014-0.066-0.033-0.088c-0.022-0.025-0.051-0.043-0.082-0.057
			c-0.033-0.016-0.078-0.029-0.133-0.047c-0.071-0.021-0.126-0.041-0.169-0.062c-0.044-0.018-0.08-0.047-0.11-0.086
			c-0.029-0.039-0.045-0.09-0.045-0.152c0-0.055,0.016-0.104,0.045-0.146c0.03-0.041,0.073-0.074,0.128-0.096
			c0.057-0.023,0.12-0.033,0.193-0.033c0.062,0,0.122,0.008,0.183,0.027c0.059,0.018,0.113,0.041,0.158,0.072l-0.061,0.125
			C75.77,39.834,75.719,39.812,75.669,39.795z"/>
	</defs>
	<clipPath id="SVGID_132_">
		<use xlink:href="#SVGID_131_"  overflow="visible"/>
	</clipPath>
	<rect x="70.108" y="34.639" clip-path="url(#SVGID_132_)" fill="#6B6B6E" width="10.788" height="11.053"/>
</g>
<g>
	<defs>
		<polygon id="SVGID_133_" points="48.469,11.315 49.85,11.315 49.85,15.104 49.332,15.104 49.332,11.789 48.469,11.789 		"/>
	</defs>
	<clipPath id="SVGID_134_">
		<use xlink:href="#SVGID_133_"  overflow="visible"/>
	</clipPath>
	<rect x="43.469" y="6.315" clip-path="url(#SVGID_134_)" fill="#FFFFFF" width="11.38" height="13.789"/>
</g>
<g>
	<defs>
		<path id="SVGID_135_" d="M52.606,12.875c0.211,0.098,0.374,0.231,0.485,0.404c0.112,0.175,0.17,0.369,0.17,0.585
			c0,0.254-0.058,0.475-0.175,0.666c-0.118,0.19-0.283,0.34-0.501,0.443c-0.216,0.104-0.467,0.155-0.752,0.155
			c-0.224,0-0.459-0.037-0.704-0.115c-0.249-0.077-0.469-0.182-0.665-0.311l0.21-0.417c0.163,0.123,0.341,0.216,0.536,0.28
			c0.195,0.065,0.387,0.098,0.574,0.098c0.283,0,0.509-0.067,0.677-0.205c0.166-0.137,0.248-0.323,0.248-0.558
			c0-0.221-0.082-0.393-0.248-0.518c-0.168-0.124-0.403-0.188-0.709-0.188c-0.112,0-0.275,0.009-0.486,0.022
			c-0.213,0.013-0.386,0.032-0.516,0.053v-1.959h2.355v0.474H51.24v0.963c0.167-0.017,0.381-0.022,0.631-0.022
			C52.15,12.728,52.396,12.777,52.606,12.875z"/>
	</defs>
	<clipPath id="SVGID_136_">
		<use xlink:href="#SVGID_135_"  overflow="visible"/>
	</clipPath>
	<rect x="45.465" y="6.312" clip-path="url(#SVGID_136_)" fill="#FFFFFF" width="12.797" height="13.817"/>
</g>
<g>
	<defs>
		<path id="SVGID_137_" d="M18.979,26.668c0.102,0.08,0.152,0.188,0.152,0.322c0,0.107-0.028,0.201-0.082,0.283
			c-0.057,0.082-0.133,0.146-0.234,0.191c-0.101,0.047-0.218,0.07-0.354,0.07c-0.108,0-0.215-0.018-0.326-0.051
			c-0.109-0.031-0.203-0.076-0.282-0.129l0.102-0.191c0.069,0.053,0.147,0.096,0.231,0.125c0.085,0.029,0.173,0.043,0.262,0.043
			c0.141,0,0.252-0.029,0.332-0.09c0.081-0.061,0.121-0.145,0.121-0.242c0-0.104-0.04-0.182-0.121-0.234
			c-0.08-0.053-0.194-0.08-0.34-0.08h-0.236v-0.148l0.528-0.521h-0.794l-0.001-0.213h1.105v0.15l-0.578,0.572l0.104,0.006
			C18.74,26.541,18.876,26.588,18.979,26.668z"/>
	</defs>
	<clipPath id="SVGID_138_">
		<use xlink:href="#SVGID_137_"  overflow="visible"/>
	</clipPath>
	<rect x="12.853" y="20.803" clip-path="url(#SVGID_138_)" fill="#FFFFFF" width="11.278" height="11.732"/>
</g>
</svg>
