<?xml version="1.0" standalone="no"?>
<!DOCTYPE svg PUBLIC "-//W3C//DTD SVG 1.1//EN" "http://www.w3.org/Graphics/SVG/1.1/DTD/svg11.dtd" >
<svg xmlns="http://www.w3.org/2000/svg" xmlns:xlink="http://www.w3.org/1999/xlink" version="1.1">
<metadata></metadata>
<defs>
<font id="diaria_promedium" horiz-adv-x="1349" >
<font-face units-per-em="2048" ascent="1536" descent="-512" />
<missing-glyph horiz-adv-x="518" />
<glyph unicode="&#xfb01;" horiz-adv-x="1249" d="M422 922v-801l186 -8v-113h-526v96l129 35v791h-129v120l129 25v61q0 201 139.5 313.5t368.5 112.5q154 0 242 -52t88 -140q0 -31 -12.5 -61.5t-24.5 -44.5l-13 -15h-159l-23 150q-3 3 -10.5 8t-42 13.5t-82.5 8.5q-64 0 -116.5 -13.5t-73.5 -27.5l-21 -14 q-5 -9 -13.5 -27.5t-22 -79.5t-13.5 -129v-63h289l329 16l21 -20v-946l129 -15v-102h-471v96l131 35v791h-428z" />
<glyph unicode="&#xfb02;" horiz-adv-x="1267" d="M82 909v121l129 27v102q0 202 102 298.5t320 96.5q97 0 205 -22l223 20l22 -20v-1415l129 -15v-102h-471v109l131 34v1237h-2l-4 2q-72 27 -204 27q-74 0 -124.5 -9.5t-64.5 -18.5l-14 -9q-37 -82 -37 -225v-90h293v-148h-293v-788l186 -8v-113h-526v96l129 35v778h-129z " />
<glyph unicode="&#xfb03;" horiz-adv-x="1908" d="M872 131v791h-450v-801l186 -8v-113h-526v96l129 35v791h-129v120l129 25v47q0 198 109 309t317 111q74 0 140 -14.5t110 -37t65.5 -36.5t34.5 -25q136 133 391 133q155 0 242.5 -51.5t87.5 -140.5q0 -31 -12 -61.5t-24 -44.5l-13 -15h-158l-22 150q-3 3 -11 8 t-43.5 13.5t-83.5 8.5q-40 0 -76 -5.5t-59 -13.5t-40.5 -16.5t-25.5 -13.5l-7 -6q-6 -9 -14 -27.5t-22 -79.5t-14 -129v-63h289l328 16l20 -20v-946l131 -15v-102h-471v96l129 35v791h-426v-801l185 -8v-113h-527v96zM422 1104v-37h450v61q0 119 50 205q-129 56 -271 56 q-61 0 -106 -9.5t-59 -19.5l-15 -10q-5 -9 -13.5 -27.5t-22 -82.5t-13.5 -136z" />
<glyph unicode="&#xfb04;" horiz-adv-x="1927" d="M872 131v791h-450v-801l186 -8v-113h-526v96l129 35v791h-129v120l129 25v66q0 189 105.5 295t310.5 106q193 0 329 -94q102 114 336 114q102 0 205 -22l225 20l21 -20v-1415l129 -15v-102h-469v109l129 34v1237h-2q-5 4 -24.5 9.5t-70 12.5t-112.5 7q-75 0 -126 -9.5 t-65 -18.5l-14 -9q-35 -82 -35 -225v-80h291v-145h-291v-801l185 -8v-113h-527v96zM422 1122v-55h450v92q0 103 27 180q-128 50 -260 50q-55 0 -97.5 -8.5t-57.5 -16.5l-15 -8q-5 -9 -13 -26t-21 -77.5t-13 -130.5z" />
<glyph horiz-adv-x="0" />
<glyph horiz-adv-x="682" />
<glyph unicode=" "  horiz-adv-x="518" />
<glyph unicode="&#x09;" horiz-adv-x="518" />
<glyph unicode="&#xa0;" horiz-adv-x="518" />
<glyph unicode="!" horiz-adv-x="618" d="M174 121q0 61 37 99t96 38q60 0 97.5 -38t37.5 -99q0 -60 -37.5 -97.5t-97.5 -37.5q-59 0 -96 37.5t-37 97.5zM223 418l-20 647v369h215v-369l-21 -647h-174z" />
<glyph unicode="&#x22;" horiz-adv-x="821" d="M164 872v521h186l-43 -521h-143zM489 872v521h187l-43 -521h-144z" />
<glyph unicode="#" horiz-adv-x="1239" d="M154 1047h217l73 387h150l-74 -387h316l73 387h150l-74 -387h184v-134h-208l-74 -393h194v-133h-219l-71 -387h-148l72 387h-318l-71 -387h-148l72 387h-180v133h204l72 393h-192v134zM496 913l-74 -393h317l72 393h-315z" />
<glyph unicode="$" horiz-adv-x="1112" d="M432 -154l8 136q-66 3 -126 14t-98 24t-66.5 25t-41.5 21l-12 8v342h142l43 -230q57 -35 172 -47l34 492q-17 5 -43 16q-60 23 -106 47t-92 60t-75.5 79t-48 104t-18.5 134q0 81 22.5 146.5t72 119t137.5 83.5t209 32l6 84h108l-6 -88q88 -8 161 -30t102 -40l30 -18v-340 h-147l-31 227q-45 31 -127 45l-33 -481l41 -14q67 -25 115.5 -49t97 -60t78.5 -78t49 -101.5t19 -131.5q0 -83 -23.5 -149.5t-75 -121t-142.5 -87t-218 -37.5l-8 -136h-109zM803 356q0 48 -15.5 85.5t-46.5 65t-65 46.5t-84 39l-31 -455q52 3 100.5 11.5t70.5 15.5l22 8 q5 9 13.5 25.5t22 65t13.5 93.5zM309 1100q0 -97 50.5 -153.5t142.5 -94.5l33 448q-45 -2 -91 -10.5t-69 -15.5l-23 -8q-5 -7 -12 -21t-19 -57.5t-12 -87.5z" />
<glyph unicode="%" horiz-adv-x="1691" d="M457 0h-164l948 1434h164zM102 1077q0 173 90 272t238 99q149 0 238.5 -99.5t89.5 -273.5t-89.5 -273.5t-236.5 -99.5q-150 0 -240 99.5t-90 275.5zM268 1077q0 -254 170 -254q25 0 50.5 5.5t37.5 10.5l13 5q2 3 6 8.5t13.5 25.5t16.5 44t13 64t6 85q0 256 -168 256 q-24 0 -50 -5.5t-40 -11.5l-14 -5q-6 -7 -15 -22.5t-24 -74t-15 -131.5zM940 360q0 173 90 272t238 99t237.5 -99t89.5 -274q0 -174 -89 -273t-236 -99q-150 0 -240 99t-90 275zM1104 360q0 -254 172 -254q24 0 49 5t38 11l13 5q6 8 15.5 23.5t25 74t15.5 129.5 q0 256 -168 256q-25 0 -51.5 -5.5t-40.5 -10.5l-13 -6q-2 -3 -6 -8t-13.5 -25t-16.5 -44t-13 -64.5t-6 -86.5z" />
<glyph unicode="&#x26;" horiz-adv-x="1406" d="M1223 614q0 -181 -129 -358l123 -139l122 -15v-102h-280l-121 139q-148 -157 -422 -157q-205 0 -309.5 94.5t-104.5 265.5q0 81 22.5 149t65 120.5t88.5 90t109 76.5q-141 185 -141 342q0 152 98 238t270 86q156 0 242 -72.5t86 -210.5q0 -59 -18 -110.5t-43 -87.5 t-70 -72.5t-80 -58.5t-92 -54l371 -424q63 115 63 260v64l-127 14v105h397v-99l-120 -32v-52zM590 137q159 0 272 88l-391 453q-79 -56 -122.5 -124t-43.5 -161q0 -121 73.5 -188.5t211.5 -67.5zM442 1139q0 -64 26.5 -123.5t88.5 -138.5q106 61 161.5 121t55.5 145 q0 73 -43 113t-127 40q-37 0 -72 -7.5t-51 -14.5l-16 -8q-23 -47 -23 -127z" />
<glyph unicode="'" horiz-adv-x="497" d="M164 872v521h186l-43 -521h-143z" />
<glyph unicode="(" horiz-adv-x="618" d="M94 664q0 108 14 207.5t38 176.5t55 145.5t65 119t68 92.5t65 69.5t55 46.5t38 27l14 8l35 -47q-10 -11 -26 -32t-58 -98t-74 -166t-58 -237.5t-26 -311.5t25 -310.5t60.5 -241t71 -164t60.5 -101.5l25 -31l-35 -45q-9 5 -23.5 14t-57.5 45t-82 80t-86.5 120t-81.5 162 t-57.5 210t-23.5 262z" />
<glyph unicode=")" horiz-adv-x="618" d="M524 664q0 -138 -22.5 -261.5t-59 -211t-80.5 -161.5t-87.5 -120.5t-80 -79t-58.5 -46.5l-23 -13l-35 45q5 6 13.5 16.5t33.5 49.5t48 84.5t51 119.5t48 155t33.5 192.5t13.5 230.5t-13.5 229.5t-34.5 193t-46.5 154t-51.5 119.5t-47 82.5t-34 50.5l-14 16l35 47 q9 -5 23.5 -14t57.5 -45.5t81.5 -80t86 -119.5t81.5 -162t57.5 -210t23.5 -261z" />
<glyph unicode="*" horiz-adv-x="974" d="M487 934l-159 -272l-146 104l209 238l-307 71l55 168l289 -125l-31 316h181l-31 -316l289 125l55 -168l-305 -71l207 -238l-144 -104z" />
<glyph unicode="+" horiz-adv-x="1028" d="M123 629v135h323v323h136v-323h325v-135h-325v-324h-136v324h-323z" />
<glyph unicode="," horiz-adv-x="468" d="M104 -299l-41 55q6 5 16.5 13.5t36.5 35t46 53.5t36 65t15 73q-51 4 -81 39.5t-30 87.5q0 59 37 96t97 37q59 0 96 -41t37 -129q0 -53 -14.5 -103t-38 -87.5t-51.5 -70t-56.5 -55t-52 -38.5t-38.5 -24z" />
<glyph unicode="-" horiz-adv-x="706" d="M113 555v147h481v-147h-481z" />
<glyph unicode="." horiz-adv-x="466" d="M98 121q0 61 37.5 99t97.5 38q59 0 97.5 -38t38.5 -99q0 -60 -38.5 -97.5t-97.5 -37.5q-60 0 -97.5 37.5t-37.5 97.5z" />
<glyph unicode="/" horiz-adv-x="831" d="M166 -205h-148l631 1741h148z" />
<glyph unicode="0" horiz-adv-x="1189" d="M98 698q0 333 136.5 523t361.5 190q224 0 360 -190.5t136 -524.5t-136 -524t-360 -190q-225 0 -361.5 190.5t-136.5 525.5zM328 698q0 -565 274 -565q44 0 86 13.5t62 26.5l20 13q4 6 10 17t22 54.5t28 96t22 143.5t10 195q0 565 -272 565q-44 0 -86.5 -13.5t-63.5 -26.5 l-20 -13q-4 -5 -10 -16t-22 -54t-28 -95.5t-22 -144t-10 -196.5z" />
<glyph unicode="1" horiz-adv-x="899" d="M119 1190v108q247 34 442 111l21 -20v-1254l219 -14v-121h-664v121l236 35v1034h-254z" />
<glyph unicode="2" horiz-adv-x="1124" d="M1004 1083q0 -99 -42 -187.5t-121 -170.5t-165 -157t-202.5 -185.5t-205.5 -218.5h547l55 211h144l-27 -375h-893v164q77 105 168 206.5t161 168.5t138.5 138t113 127t72 123.5t27.5 139.5q0 98 -56 145.5t-177 47.5q-67 0 -121.5 -13.5t-75.5 -26.5l-22 -14l-58 -219 h-143l26 330q5 4 15 10t47 22.5t79.5 29t113 22.5t147.5 10q234 0 344.5 -86t110.5 -242z" />
<glyph unicode="3" horiz-adv-x="1116" d="M1001 403q0 -207 -139.5 -314t-378.5 -107q-72 0 -139.5 10t-112.5 24.5t-79 29t-50 24.5l-16 10l37 121q14 -8 40.5 -20t114 -32t183.5 -20q59 0 118 7.5t88 14.5l29 7q3 2 8 7.5t18.5 25.5t23.5 44t18 66.5t8 91.5q0 143 -64.5 209t-203.5 66h-90l-21 20v115 q27 7 73 56t92.5 114t89.5 128.5t70 107.5l27 44h-428l-55 -229h-141l26 369h811v-140q-21 -32 -57 -83.5t-129.5 -171.5t-167.5 -195v-15q397 -54 397 -385z" />
<glyph unicode="4" horiz-adv-x="1198" d="M926 1393v-879h180v-156h-176v-235l174 -14v-109h-563v98l180 33v223h-641v86l622 953h224zM287 518h442v676z" />
<glyph unicode="5" horiz-adv-x="1071" d="M971 414q0 -219 -133.5 -325.5t-374.5 -106.5q-74 0 -143 10t-113.5 24.5t-78.5 29t-50 24.5l-15 10l39 121q14 -8 39.5 -20t111 -32t177.5 -20q55 0 113.5 6.5t89.5 13.5l31 7q3 3 8.5 9t18.5 27.5t23 46.5t18.5 67.5t8.5 88.5q0 165 -106.5 237.5t-351.5 72.5h-121 l-21 20l78 668h692v-164h-549l-49 -381q96 -2 174 -10.5t156 -27t135 -50.5t102 -78.5t68 -114t23 -153.5z" />
<glyph unicode="6" horiz-adv-x="1161" d="M954 1339l-36 -112q-109 37 -259 37q-78 0 -137.5 -13t-79.5 -26l-20 -13q-3 -4 -8.5 -13.5t-20.5 -46t-27 -82t-24 -124.5t-16 -170q116 80 305 80q203 0 316.5 -106t113.5 -310q0 -213 -121.5 -335.5t-339.5 -122.5q-500 0 -500 704q0 725 531 725q84 0 165 -18 t120 -36zM592 711q-129 0 -268 -60q0 -275 65 -398.5t225 -123.5q41 0 81 7.5t59 15.5l20 8q3 3 7.5 9t16.5 28.5t21.5 50t17 74.5t7.5 100q0 155 -60 222t-192 67z" />
<glyph unicode="7" horiz-adv-x="1081" d="M563 0h-227q26 158 83.5 333t113.5 302.5t140.5 315t131.5 302.5h-518l-56 -229h-141l27 369h882v-86q-44 -124 -122.5 -318.5t-131.5 -328t-106 -315.5t-76 -345z" />
<glyph unicode="8" horiz-adv-x="1157" d="M104 307q0 61 17 116.5t43 95t61.5 75t66 57t64.5 39.5q-215 110 -215 344q0 81 24.5 147t75.5 118.5t140 82t209 29.5q195 0 302 -79t107 -236q0 -60 -17 -114.5t-41 -92.5t-57 -71.5t-59.5 -52.5t-54.5 -34q60 -25 105.5 -54t86.5 -72t63 -103.5t22 -136.5 q0 -177 -122.5 -281t-369.5 -104q-213 0 -332 81t-119 246zM844 350q0 28 -5 52t-13 43t-22.5 36.5t-27.5 30t-36 26t-40 21.5t-46 19t-48 17.5t-52.5 17.5t-53.5 18l-17 4q-74 -49 -127 -121.5t-53 -163.5q0 -108 77.5 -160.5t203.5 -52.5q56 0 109.5 9.5t79.5 19.5l26 10 q5 8 12.5 23t20 61t12.5 90zM346 1061q0 -29 5.5 -54.5t12.5 -45t23 -38.5t28 -31.5t37 -27.5t39.5 -23t46.5 -20.5t47.5 -18t51.5 -18.5q172 115 172 281q0 97 -65 146t-173 49q-51 0 -98 -10t-69 -20l-21 -9q-37 -68 -37 -160z" />
<glyph unicode="9" horiz-adv-x="1159" d="M154 63l36 123q12 -6 35 -15.5t98.5 -25.5t157.5 -16q78 0 140 12.5t85 25.5l23 13q4 4 10 13.5t22 46t29.5 82t26.5 126.5t17 175q-41 -30 -117.5 -55t-188.5 -25q-202 0 -314 103t-112 308q0 212 121 334.5t338 122.5q500 0 500 -696q0 -365 -138.5 -549t-424.5 -184 q-62 0 -120 8.5t-97 20t-69 23.5t-44 20zM567 688q132 0 271 57q-2 274 -66.5 397.5t-222.5 123.5q-43 0 -83 -8t-58 -16l-19 -9q-3 -3 -7.5 -9t-16.5 -28.5t-21.5 -50t-17 -75t-7.5 -101.5q0 -151 59 -216t189 -65z" />
<glyph unicode=":" horiz-adv-x="497" d="M113 121q0 61 37.5 99t97.5 38q59 0 97 -38t38 -99q0 -60 -38 -97.5t-97 -37.5q-60 0 -97.5 37.5t-37.5 97.5zM113 946q0 61 37.5 98t97.5 37q59 0 97 -37t38 -98t-38 -98t-97 -37q-60 0 -97.5 37t-37.5 98z" />
<glyph unicode=";" horiz-adv-x="497" d="M119 -299l-41 55q6 5 16.5 13.5t36.5 35t46 53.5t35.5 65t14.5 73q-51 4 -80.5 39.5t-29.5 87.5q0 59 36.5 96t96.5 37q59 0 96 -41t37 -129q0 -53 -14.5 -102.5t-38 -87t-51.5 -70.5t-56 -55t-51.5 -38.5t-37.5 -24.5zM113 946q0 61 37.5 98t97.5 37q59 0 97 -37t38 -98 t-38 -98t-97 -37q-60 0 -97.5 37t-37.5 98z" />
<glyph unicode="&#x3c;" horiz-adv-x="1028" d="M123 764l784 338v-150l-588 -256l588 -256v-149l-784 338v135z" />
<glyph unicode="=" horiz-adv-x="1028" d="M123 958h784v-133h-784v133zM907 432h-784v135h784v-135z" />
<glyph unicode="&#x3e;" horiz-adv-x="1028" d="M907 764v-135l-784 -338v149l588 256l-588 256v150z" />
<glyph unicode="?" horiz-adv-x="1009" d="M348 121q0 61 37.5 99t97.5 38q59 0 97 -38t38 -99q0 -60 -38 -97.5t-97 -37.5q-60 0 -97.5 37.5t-37.5 97.5zM399 418l-20 299q155 102 225 186.5t70 192.5q0 182 -205 182q-57 0 -104.5 -13t-66.5 -27l-19 -13l-60 -221h-141l26 331q5 4 14 10.5t43 22.5t73 28.5 t104 23t137 10.5q217 0 321.5 -87t104.5 -233q0 -66 -20.5 -124t-62.5 -110.5t-95.5 -98t-130.5 -97.5l-23 -262h-170z" />
<glyph unicode="@" horiz-adv-x="1644" d="M850 489q8 11 20.5 33.5t41 100t44.5 165.5l31 166q-51 19 -104 19q-33 0 -64 -5.5t-46 -11.5l-15 -6l-11 -16.5t-25 -45.5t-31.5 -73.5t-24.5 -98t-11 -120.5q0 -75 20.5 -107t67.5 -32q25 0 52 8t41 16zM952 535h-8q-30 -88 -102.5 -139.5t-161.5 -51.5q-94 0 -140 57 t-46 185q0 139 50 251.5t149 180t231 67.5q57 0 118 -12.5t93 -24.5l32 -12l-96 -493q-7 -44 7.5 -61t60.5 -17q31 0 67.5 6.5t57.5 13.5l20 7q5 6 12.5 17.5t27 51t34.5 83.5t27 115t12 146q0 218 -110 326t-353 108q-102 0 -197.5 -16.5t-140.5 -33.5l-45 -17 q-6 -5 -17 -15.5t-42 -46t-59 -75t-62.5 -103.5t-59.5 -131.5t-42 -158.5t-17 -185q0 -245 122 -355t390 -110q83 0 162.5 9t135 22t98.5 26t64 22l21 9l29 -57q-3 -1 -26.5 -14.5t-45 -24t-58.5 -27t-78.5 -29t-91.5 -24t-111 -18t-126 -6.5q-319 0 -487 150t-168 439 q0 148 44 284t125.5 244.5t192 189t249 124t290.5 43.5q275 0 427.5 -138t152.5 -384q0 -124 -40.5 -234t-107.5 -186t-153.5 -120t-176.5 -44q-33 0 -59.5 6.5t-51 23t-31 45t0.5 73.5z" />
<glyph unicode="A" horiz-adv-x="1454" d="M616 1434h209l25 -25l450 -1286l148 -14v-109h-553v100l149 37l-98 291h-518l-104 -305l155 -14v-109h-473v102l144 35zM653 1090l-178 -517h426l-172 517q-18 52 -35 133h-8q-16 -74 -33 -133z" />
<glyph unicode="B" horiz-adv-x="1271" d="M700 0h-618v102l149 35v1176l-149 14v107h573q218 0 351 -100t133 -275q0 -107 -55 -191.5t-142 -122.5q-16 -4 -31 -4v-6q11 0 31 -4q110 -39 176 -129.5t66 -212.5q0 -181 -133 -285t-351 -104zM651 657h-205v-510h218q49 0 98.5 6.5t74.5 12.5l25 6q4 2 9.5 7.5t21 25 t27 43t21 64.5t9.5 87q0 134 -75.5 196t-223.5 62zM606 1288h-160v-483h172q49 0 99 5.5t75 11.5l25 5q4 2 9.5 7t21 23.5t27 41t21 61t9.5 82.5q0 246 -299 246z" />
<glyph unicode="C" horiz-adv-x="1204" d="M971 1020l-58 231q-9 5 -26.5 13t-75.5 21t-121 13q-68 0 -128.5 -14t-86.5 -28l-26 -15q-5 -5 -13.5 -16.5t-30 -55.5t-38 -98t-30 -148.5t-13.5 -203.5q0 -586 376 -586q53 0 107.5 11t82.5 22l28 12l57 240h141l-24 -350q-7 -3 -19.5 -9t-52.5 -21t-82 -26 t-104.5 -20.5t-122.5 -9.5q-288 0 -455.5 195.5t-167.5 541.5q0 345 168 539t461 194q98 0 190.5 -22t136.5 -44l43 -22l27 -344h-143z" />
<glyph unicode="D" horiz-adv-x="1351" d="M678 0h-596v102l149 35v1174l-149 14v109h594q266 0 427 -190.5t161 -526.5t-161 -526.5t-425 -190.5zM657 1288h-211v-1143h224q60 0 115 12t79 24l25 12q6 5 15 16.5t33 56.5t42.5 100t33.5 152.5t15 210.5q0 559 -371 559z" />
<glyph unicode="E" horiz-adv-x="1220" d="M1114 0h-1032v102l149 35v1174l-149 14v109h1005l27 -363h-143l-56 217h-469v-487h248l29 166h119v-480h-119l-29 166h-248v-508h496l55 224h144z" />
<glyph unicode="F" horiz-adv-x="1165" d="M623 0h-541v102l149 35v1174l-149 14v109h991l27 -369h-142l-55 223h-457v-504h242l29 168h119v-479h-119l-29 166h-242v-514l177 -8v-117z" />
<glyph unicode="G" horiz-adv-x="1275" d="M1110 606v-534q-7 -4 -19 -10t-52 -21.5t-82 -27.5t-106 -21.5t-128 -9.5q-298 0 -466.5 194t-168.5 541t168 541t461 194q98 0 190.5 -22t136.5 -44l43 -22l27 -344h-143l-58 231q-9 5 -26.5 13t-75.5 21t-121 13q-68 0 -128.5 -14t-86.5 -28l-26 -15q-5 -5 -13.5 -16.5 t-30 -55.5t-38 -98t-30 -148.5t-13.5 -203.5q0 -586 376 -586q50 0 102.5 10.5t76.5 19.5t36 15v443l-174 14v108h508v-102z" />
<glyph unicode="H" horiz-adv-x="1497" d="M446 123l150 -14v-109h-514v102l149 35v1174l-149 14v109h514v-103l-150 -35v-495h605v510l-150 14v109h514v-103l-149 -35v-1173l149 -14v-109h-514v102l150 35v516h-605v-530z" />
<glyph unicode="I" horiz-adv-x="677" d="M446 123l150 -14v-109h-514v102l149 35v1174l-149 14v109h514v-103l-150 -35v-1173z" />
<glyph unicode="J" horiz-adv-x="915" d="M694 1296v-925q0 -181 -101.5 -285t-289.5 -104q-59 0 -114.5 11t-80.5 23l-26 11l22 143q66 -37 177 -37q36 0 72.5 5.5t55.5 10.5l19 5q6 8 14.5 25.5t22.5 80.5t14 139v908l-176 10v117h541v-103z" />
<glyph unicode="K" horiz-adv-x="1351" d="M446 123l150 -14v-109h-514v102l149 35v1174l-149 14v109h514v-103l-150 -35v-510l166 27l355 498l-144 14v109h467v-103l-145 -35l-381 -526l416 -647l147 -14v-109h-326l-419 668h-136v-545z" />
<glyph unicode="L" horiz-adv-x="1175" d="M1094 0h-1012v102l149 35v1174l-149 14v109h514v-103l-150 -35v-1151h476l55 230h143z" />
<glyph unicode="M" horiz-adv-x="1824" d="M354 123l158 -14l-2 -109h-473v102l153 35l95 1174l-154 14v109h424l330 -934q25 -72 33 -121h10q10 59 30 127l330 928h406v-103l-150 -35l94 -1173l150 -14v-109h-516v102l149 35l-73 950q0 13 -2.5 41t-2.5 41h-8q0 -30 -18 -82l-322 -925h-188l-25 26l-329 899 q-15 57 -17 84h-6q0 -12 -1 -41t-1 -43z" />
<glyph unicode="N" horiz-adv-x="1501" d="M393 123l156 -14v-109h-473v102l155 35v1174l-155 14v109h362l617 -947q29 -41 51 -100l6 2q-4 33 -4 98v824l-156 14v109h473v-103l-155 -35v-1296h-152l-672 1030q-36 55 -51 98l-6 -2q4 -33 4 -96v-907z" />
<glyph unicode="O" d="M88 719q0 342 160.5 537.5t425.5 195.5t426.5 -196t161.5 -539t-161 -539t-425 -196q-266 0 -427 196.5t-161 540.5zM322 717q0 -584 364 -584q58 0 112 13.5t78 26.5l25 13q5 6 13.5 18t30 57t38 100t30 150.5t13.5 203.5q0 583 -360 583q-59 0 -114.5 -14t-81.5 -28 l-26 -13q-5 -6 -13 -17t-29 -55.5t-37.5 -99t-29.5 -150t-13 -204.5z" />
<glyph unicode="P" horiz-adv-x="1245" d="M446 125l177 -8v-117h-541v102l149 35v1174l-149 14v109h584q219 0 352 -111t133 -309q0 -199 -132.5 -309.5t-350.5 -110.5h-222v-469zM618 1288h-172v-547h185q46 0 94 5.5t73 11.5l25 6q4 3 10 9t22 28t28 48t22 70.5t10 94.5q0 274 -297 274z" />
<glyph unicode="Q" d="M88 719q0 342 161.5 537.5t426.5 195.5t425.5 -195.5t160.5 -537.5q0 -264 -99.5 -444.5t-273.5 -247.5v-7q98 -55 222.5 -94t199.5 -51l75 -12l-43 -189q-13 1 -37 5t-97 25t-145 51.5t-169.5 91.5t-181.5 139q-32 -4 -49 -4q-260 5 -418 201.5t-158 535.5zM324 715 q0 -582 364 -582q57 0 111 13.5t79 26.5l25 13q5 6 13.5 17.5t30 57t38 101t30 151.5t13.5 206q0 579 -362 579q-58 0 -113.5 -14t-82.5 -28l-26 -13q-5 -5 -13 -16.5t-28.5 -56t-36.5 -99t-29 -150t-13 -206.5z" />
<glyph unicode="R" horiz-adv-x="1314" d="M446 123l150 -14v-109h-514v102l149 35v1174l-149 14v109h584q219 0 352 -109.5t133 -302.5q0 -151 -85.5 -253t-234.5 -138l312 -508l145 -14v-109h-330l-335 612h-177v-489zM618 1288h-172v-528h185q46 0 94 5.5t73 10.5l25 6q4 3 10 8.5t22 26.5t28 46t22 67t10 90 q0 268 -297 268z" />
<glyph unicode="S" horiz-adv-x="1112" d="M803 356q0 34 -8.5 63t-21.5 50.5t-37 42t-45 33.5t-56 28.5t-59.5 24.5t-65.5 24t-66 25q-60 23 -106 47t-92 60t-75.5 79t-48 104t-18.5 134q0 83 23.5 149t75 120t143 83t217.5 29q72 0 138 -9.5t109 -23t75 -27t47 -22.5l14 -10v-340h-147l-31 227q-8 6 -23.5 15 t-69.5 23.5t-116 14.5q-50 0 -102 -8.5t-79 -17.5l-26 -8q-5 -7 -12 -21t-19 -57.5t-12 -87.5q0 -29 5.5 -55t13 -46.5t23.5 -40t29 -33t36.5 -28t39.5 -23.5t46 -21.5t46.5 -19t50.5 -18.5t50 -18q67 -25 115.5 -49t97 -60t78.5 -78t49 -101.5t19 -131.5q0 -86 -25.5 -155 t-82 -125t-157.5 -86.5t-241 -30.5q-78 0 -148.5 9.5t-115.5 23.5t-78.5 28t-48.5 23l-15 10v342h142l43 -230q9 -5 26.5 -13.5t80 -22t134.5 -13.5q62 0 120 8.5t85 17.5l27 9q5 9 13.5 25.5t22 65t13.5 93.5z" />
<glyph unicode="T" horiz-adv-x="1292" d="M756 123l149 -14v-109h-516v102l150 35v1151h-285l-55 -250h-142l27 396h1126l27 -396h-141l-56 250h-284v-1165z" />
<glyph unicode="U" horiz-adv-x="1478" d="M1260 1296v-786q0 -247 -142.5 -387.5t-378.5 -140.5q-234 0 -376 135t-142 370v824l-149 14v109h520v-103l-150 -35v-809q0 -183 84 -271.5t256 -88.5q59 0 111 9.5t74 18.5l22 9q4 4 11.5 12t26 38t32.5 66t25.5 97.5t11.5 130.5v803l-156 14v109h473v-103z" />
<glyph unicode="V" horiz-adv-x="1427" d="M834 0h-209l-25 25l-444 1286l-150 14v109h559v-103l-155 -31l313 -956q17 -59 33 -133h8q16 74 33 133l307 967l-150 14v109h467v-103l-143 -35z" />
<glyph unicode="W" horiz-adv-x="2127" d="M793 0h-209l-25 25l-399 1280l-154 20v109h563v-103l-157 -24l262 -953q27 -94 33 -127h8q3 20 8 43t12.5 49t9.5 35l269 1059h203l276 -1059q26 -91 33 -127h10q2 17 29 127l243 957l-147 14v109h455v-103l-148 -35l-364 -1296h-209l-25 25l-260 1003q-22 67 -27 119h-8 q-4 -24 -13.5 -69.5t-10.5 -49.5z" />
<glyph unicode="X" horiz-adv-x="1406" d="M1200 1296l-358 -591l397 -582l143 -14v-109h-563v102l160 31l-268 426q-4 7 -20.5 31.5t-22.5 40.5h-11q-8 -22 -41 -76l-274 -432l145 -14v-109h-460v102l149 35l391 608l-370 566l-144 14v109h561v-103l-170 -31l261 -409q30 -50 43 -76h6q7 17 21.5 44t17.5 34 l241 418l-145 14v109h461v-103z" />
<glyph unicode="Y" horiz-adv-x="1366" d="M1190 1296l-389 -671v-502l149 -14v-109h-514v102l150 35v484l-416 690l-143 14v109h557v-103l-160 -31l262 -450q34 -58 45 -82h8q11 28 43 84l246 459l-145 14v109h458v-103z" />
<glyph unicode="Z" horiz-adv-x="1198" d="M88 0v86l729 1202h-536l-56 -229h-143l27 375h981v-86l-728 -1203h566l30 230h148v-375h-1018z" />
<glyph unicode="[" horiz-adv-x="712" d="M623 1536v-135h-232v-1538h232v-135h-424v1808h424z" />
<glyph unicode="\" horiz-adv-x="831" d="M799 -205h-148l-633 1741h150z" />
<glyph unicode="]" horiz-adv-x="712" d="M90 -272v135h232v1538h-232v135h424v-1808h-424z" />
<glyph unicode="^" horiz-adv-x="911" d="M102 1077l340 373h27l340 -373l-68 -55l-284 248l-285 -248z" />
<glyph unicode="_" horiz-adv-x="1028" d="M2 -272v135h1024v-135h-1024z" />
<glyph unicode="`" horiz-adv-x="800" d="M164 1415l133 133l270 -317l-90 -45z" />
<glyph unicode="a" horiz-adv-x="1107" d="M94 250q0 132 82.5 217.5t247.5 103.5l293 33v121q0 112 -45.5 163.5t-157.5 51.5q-48 0 -89.5 -9t-58.5 -19l-18 -9l-31 -164h-153v265q5 3 14.5 8.5t42.5 19.5t70.5 24.5t99 19.5t127.5 9q219 0 314.5 -95t95.5 -288v-497q0 -35 16 -52.5t53 -17.5h74l12 -96 q-7 -5 -19.5 -13.5t-57.5 -22t-95 -13.5q-149 0 -184 116q-146 -124 -344 -124q-139 0 -214 71t-75 197zM293 276q0 -145 164 -145q136 0 260 94v267l-373 -68q-6 -7 -14.5 -19t-22.5 -50.5t-14 -78.5z" />
<glyph unicode="b" horiz-adv-x="1163" d="M41 1430v94l319 28l21 -20v-434q0 -53 -8 -94l4 -7v-2q136 90 289 90q190 0 301.5 -141t111.5 -393q0 -272 -135 -420.5t-397 -148.5q-101 0 -195 21.5t-138 42.5l-44 22v1312zM856 522q0 215 -65.5 314.5t-200.5 99.5q-123 0 -209 -64v-698q83 -45 209 -45 q54 0 100.5 9.5t65.5 18.5l20 9q3 4 8.5 12.5t19.5 39.5t24.5 68t19 100.5t8.5 135.5z" />
<glyph unicode="c" horiz-adv-x="1024" d="M770 739l-29 164q-6 4 -18.5 10t-56 16.5t-91.5 10.5q-53 0 -100 -10t-67 -20l-21 -11q-3 -4 -8.5 -12.5t-20 -39t-25 -66t-19.5 -94.5t-9 -124q0 -125 24 -212.5t68.5 -134t97.5 -66t121 -19.5q70 0 140.5 17t105.5 34l35 17l41 -113l-16.5 -11t-46.5 -25t-74.5 -32 t-97 -25t-117.5 -11q-225 0 -363.5 147.5t-138.5 402.5q0 249 133 401t377 152q55 0 109 -8t92 -19.5t68.5 -23.5t45.5 -20l15 -8v-267h-154z" />
<glyph unicode="d" horiz-adv-x="1177" d="M1122 106v-94l-313 -28l-21 20l11 107l-8 6q-130 -135 -310 -135q-175 0 -286 143t-111 387q0 269 131.5 421t355.5 152q116 0 211 -43v338l-131 50v94l320 28l20 -20v-1376zM305 539q0 -404 252 -404q136 0 225 115v633q-82 57 -209 57q-54 0 -100 -10t-65 -20l-19 -9 l-9 -12t-20.5 -38.5t-25.5 -68t-20 -103t-9 -140.5z" />
<glyph unicode="e" horiz-adv-x="1064" d="M911 199l41 -113l-16.5 -11t-46.5 -25t-75 -32t-98.5 -25t-119.5 -11q-228 0 -370 147t-142 399q0 251 136.5 404t354.5 153q204 0 315 -140t91 -398l-63 -43h-613q1 -189 89.5 -281t236.5 -92q67 0 137 17t106 34zM391 901q-3 -4 -9 -12.5t-21 -36.5t-26 -59t-20.5 -80 t-9.5 -101l490 27q4 151 -57 226t-173 75q-44 0 -87.5 -10t-65.5 -20z" />
<glyph unicode="f" horiz-adv-x="761" d="M82 922v120l129 25v117q0 185 92.5 277.5t288.5 92.5q75 0 142 -13t96 -25l30 -13v-262h-153l-27 150q-33 18 -96 18q-38 0 -72 -8.5t-48 -16.5l-15 -8q-27 -59 -27 -202v-107h280v-145h-280v-801l186 -8v-113h-526v96l129 35v791h-129z" />
<glyph unicode="g" horiz-adv-x="1116" d="M1071 1159l-18 -164q-25 11 -76 11q-70 0 -146 -33q97 -97 97 -250q0 -169 -112.5 -265t-299.5 -96q-64 0 -137 17q-64 -44 -64 -117q0 -104 138 -104h258q166 0 256 -67t90 -204q0 -174 -149.5 -275t-434.5 -101q-432 0 -432 243q0 54 19.5 101.5t52.5 80.5t62 54t61 37 q-97 56 -97 172q0 138 133 221q-81 45 -125.5 123t-44.5 182q0 168 113.5 264t300.5 96q132 0 229 -51q112 133 259 133q18 0 35 -2t25 -4zM436 -16q-50 0 -90 6q-102 -74 -102 -187q0 -76 60.5 -110.5t199.5 -34.5q78 0 154 10t112 20l37 9q6 7 14.5 19t22.5 51t14 79 q0 73 -44.5 105.5t-133.5 32.5h-244zM295 737q0 -112 60 -170.5t169 -58.5q36 0 74.5 5.5t59.5 10.5l20 6q7 7 16.5 20t26 59.5t16.5 99.5q0 112 -61 170.5t-170 58.5q-36 0 -74 -6t-58 -12l-20 -5q-7 -6 -16.5 -19t-26 -59t-16.5 -100z" />
<glyph unicode="h" horiz-adv-x="1245" d="M70 1430v94l319 28l21 -20v-465l-9 -94l5 -4q154 116 360 116q163 0 231 -83t68 -252v-633l129 -15v-102h-471v96l131 35v602q0 108 -38 155.5t-138 47.5q-89 0 -158 -30t-110 -64v-725l131 -15v-102h-471v96l129 35v1249z" />
<glyph unicode="i" horiz-adv-x="606" d="M76 961v94l319 28l21 -20v-946l131 -15v-102h-471v96l129 35v780zM152 1403q0 64 39 102.5t102 38.5q64 0 103.5 -38.5t39.5 -102.5q0 -63 -40 -101t-103 -38t-102 38t-39 101z" />
<glyph unicode="j" horiz-adv-x="575" d="M145 1403q0 64 39.5 102.5t102.5 38.5q64 0 103.5 -38.5t39.5 -102.5q0 -63 -40 -101t-103 -38t-102.5 38t-39.5 101zM70 961v94l319 28l21 -20v-1063q0 -137 -23.5 -232t-72 -151t-115.5 -81t-160 -25q-45 0 -90.5 5.5t-68.5 11.5l-23 5l24 168q76 -45 168 -45 q24 0 48.5 4t36.5 8l13 4q6 9 14.5 29.5t23 105t14.5 193.5v911z" />
<glyph unicode="k" horiz-adv-x="1146" d="M950 936l-260 -350l307 -469l123 -15v-102h-280l-326 498h-104v-381l131 -15v-102h-471v96l129 35v1249l-129 50v94l319 28l21 -20v-914l133 27l233 305l-129 15v102h426v-96z" />
<glyph unicode="l" horiz-adv-x="595" d="M70 1430v94l319 28l21 -20v-1415l131 -15v-102h-471v109l129 34v1237z" />
<glyph unicode="m" horiz-adv-x="1822" d="M821 131v629q0 93 -33.5 133.5t-121.5 40.5q-84 0 -146.5 -33t-97.5 -72v-712l131 -15v-102h-471v96l129 35v780l-129 50v94l313 28l21 -20l-10 -107l6 -6v-2q137 137 346 137q195 0 250 -149q19 21 45.5 42t71 47.5t108.5 43t135 16.5q149 0 211.5 -78t62.5 -231v-659 l130 -15v-102h-461v96l121 35v629q0 92 -35 133t-123 41q-145 0 -244 -105q2 -18 2 -59v-653l127 -15v-102h-459v96z" />
<glyph unicode="n" horiz-adv-x="1257" d="M82 961v94l313 28l21 -20l-10 -107l6 -8q158 137 370 137q158 0 226.5 -84t68.5 -251v-633l129 -15v-102h-471v96l131 35v602q0 107 -39 155t-135 48q-151 0 -270 -119v-700l131 -15v-102h-471v96l129 35v780z" />
<glyph unicode="o" horiz-adv-x="1140" d="M84 535q0 258 133 404t354 146q220 0 353 -146.5t133 -403.5q0 -258 -133 -405.5t-353 -147.5q-221 0 -354 148t-133 405zM307 539q0 -410 273 -410q43 0 85.5 8.5t63.5 16.5l21 8q3 4 9 13t21 41.5t26 71t20.5 104t9.5 138.5q0 410 -273 410q-43 0 -86 -8.5t-65 -17.5 l-21 -9q-3 -4 -9 -12.5t-20.5 -40.5t-25.5 -70t-20 -103.5t-9 -139.5z" />
<glyph unicode="p" horiz-adv-x="1183" d="M59 961v94l314 28l20 -20l-10 -107l8 -6q135 135 309 135q175 0 286.5 -142.5t111.5 -385.5q0 -271 -132.5 -423t-357.5 -152q-118 0 -209 41v-373l193 -8v-113h-533v96l129 35v1251zM877 510q0 218 -64 320t-190 102q-79 0 -135 -35t-89 -80v-633q79 -55 211 -55 q53 0 98 9.5t64 18.5l19 9q3 4 9 13t21 40.5t26 67.5t20.5 96.5t9.5 126.5z" />
<glyph unicode="q" horiz-adv-x="1155" d="M788 66l-4 6q-136 -90 -290 -90q-189 0 -300.5 141t-111.5 393q0 273 134.5 421t395.5 148q102 0 196.5 -21t138.5 -42l44 -21v-1355l129 -15v-102h-471v96l131 35v311q0 54 8 95zM305 543q0 -215 67 -313.5t203 -98.5q121 0 205 62v700q-91 47 -207 47q-55 0 -101.5 -10 t-65.5 -20l-19 -11q-3 -4 -8.5 -12t-20 -38t-25 -67t-19.5 -101.5t-9 -137.5z" />
<glyph unicode="r" horiz-adv-x="847" d="M819 1081l-18 -204q-45 18 -117 18q-155 0 -262 -113v-661l192 -8v-113h-532v96l129 35v780l-129 50v94l313 28l21 -20l-13 -160l7 -8q124 192 321 192z" />
<glyph unicode="s" horiz-adv-x="964" d="M690 268q0 33 -13 59t-31 42.5t-53.5 33t-63.5 26t-78 24.5q-22 7 -33 10q-60 19 -100.5 36t-83.5 44.5t-68 59.5t-41 80t-16 108q0 294 370 294q98 0 183 -19.5t121 -38.5l36 -19v-263h-153l-31 166q-56 35 -162 35q-40 0 -79 -6t-58 -12l-19 -6q-30 -48 -30 -107 q0 -34 14 -61t33 -45t58 -36t70 -29t87 -28q44 -15 73 -25t66 -27t60.5 -33.5t48.5 -41t39 -52t23 -65t9 -81.5q0 -309 -409 -309q-65 0 -125.5 7.5t-100 19t-69.5 22.5t-44 19l-14 7v265h154l29 -166q63 -33 184 -33q49 0 94.5 6.5t66.5 13.5l21 7q35 52 35 118z" />
<glyph unicode="t" horiz-adv-x="778" d="M51 922v120l129 25l33 219h178v-219h309v-145h-309v-629q0 -158 139 -158q39 0 81.5 10.5t65.5 21.5l23 11l25 -110q-4 -3 -11 -9t-31.5 -21t-53 -26t-73.5 -20.5t-93 -9.5q-140 0 -211.5 77.5t-71.5 227.5v635h-129z" />
<glyph unicode="u" horiz-adv-x="1226" d="M696 961v94l320 28l20 -20v-907l131 -50v-94l-313 -28l-23 20l13 107l-8 6q-59 -52 -151 -93.5t-214 -41.5q-157 0 -224 85t-67 252v592l-129 50v94l320 28l20 -20v-729q0 -106 36.5 -154.5t131.5 -48.5q147 0 266 119v661z" />
<glyph unicode="v" horiz-adv-x="1200" d="M707 0h-191l-20 20l-357 930l-129 15v102h498v-96l-139 -31l219 -596q33 -83 41 -133h10q4 21 11 44t15.5 49.5t12.5 39.5l213 606l-133 15v102h424v-96l-121 -35z" />
<glyph unicode="w" horiz-adv-x="1734" d="M664 0h-195l-20 20l-306 924l-133 21v102h502v-96l-139 -25l172 -592q1 -5 13.5 -53t16.5 -72h11q3 22 28 125l199 703h184l197 -703q27 -95 33 -125h8q3 19 8.5 42t12.5 47.5t10 35.5l164 596l-134 15v102h422v-96l-125 -35l-286 -936h-195l-20 20l-185 635 q-14 56 -24 115h-11q-7 -65 -24 -115z" />
<glyph unicode="x" horiz-adv-x="1177" d="M991 936l-270 -412l303 -407l123 -15v-102h-506v96l143 31l-178 256q-37 51 -45 68h-8q-23 -44 -41 -70l-184 -264l129 -15v-102h-422v96l129 35l293 426l-283 393l-121 15v102h504v-96l-143 -31l166 -244q3 -5 19 -29t24 -40h6l39 71l161 252l-131 15v102h422v-96z" />
<glyph unicode="y" horiz-adv-x="1206" d="M535 -35l-398 985l-127 15v102h502v-96l-139 -31l231 -596q20 -60 37 -133h8q17 76 39 133l213 606l-133 15v102h420v-96l-121 -35l-350 -936q-109 -291 -195.5 -390t-242.5 -99q-46 0 -91.5 6.5t-67.5 12.5l-22 7l31 182q10 -5 29 -11.5t89 -18t152 -11.5 q10 12 26.5 35.5t53 98.5t56.5 153z" />
<glyph unicode="z" horiz-adv-x="1030" d="M100 0v80l562 848h-365l-29 -183h-153v322h798v-80l-561 -848h396l28 185h154v-324h-830z" />
<glyph unicode="{" horiz-adv-x="772" d="M266 49l21 311q8 104 -44 154.5t-167 50.5v133q115 0 167 51t44 154l-21 311q-7 92 8 150.5t62.5 98.5t130 56.5t213.5 16.5v-135q-132 0 -178.5 -42.5t-38.5 -144.5l20 -311q16 -192 -149 -272q165 -77 149 -271l-20 -311q-8 -102 38.5 -144t178.5 -42v-135 q-174 0 -266 32t-124.5 99.5t-23.5 189.5z" />
<glyph unicode="|" horiz-adv-x="530" d="M334 -205h-135v1741h135v-1741z" />
<glyph unicode="}" horiz-adv-x="772" d="M485 360l19 -311q10 -122 -22.5 -189.5t-125 -99.5t-266.5 -32v135q133 0 179 41.5t40 144.5l-20 311q-19 193 147 271q-166 81 -147 272l20 311q6 103 -40 145t-179 42v135q131 0 213.5 -16.5t130.5 -56.5t63 -99t7 -150l-19 -311q-8 -104 43.5 -154.5t167.5 -50.5v-133 q-116 0 -167.5 -50t-43.5 -155z" />
<glyph unicode="~" horiz-adv-x="1007" d="M154 520l-52 58q6 9 16.5 23t43 51t65.5 65t78 51t86 23q46 0 104 -30.5t112 -60.5t91 -30l158 131l49 -58q-6 -9 -16.5 -23t-43 -50.5t-65 -64t-77.5 -50.5t-85 -23q-36 0 -80 19t-79 41.5t-76 41.5t-70 19z" />
<glyph unicode="&#xa1;" horiz-adv-x="618" d="M395 852l21 -647v-369h-213v369l20 647h172zM442 1149q0 -61 -37.5 -99t-97.5 -38q-59 0 -96 38t-37 99q0 60 37 97.5t96 37.5q60 0 97.5 -37.5t37.5 -97.5z" />
<glyph unicode="&#xa2;" horiz-adv-x="1024" d="M924 739h-142l-30 164q-44 21 -105 31l-59 -803h28q70 0 140.5 17t105.5 34l35 17l41 -113l-16.5 -11t-46.5 -25t-74.5 -32t-97 -25t-117.5 -11h-8l-9 -123h-108l8 135q-177 34 -281 176t-104 362q0 235 120.5 385.5t342.5 165.5l6 86h111l-7 -88q71 -6 138 -25t98 -34 l31 -16v-267zM305 563q0 -331 176 -407l56 782q-43 -4 -80.5 -13.5t-53.5 -17.5l-16 -8q-3 -4 -8.5 -12.5t-20 -39t-25 -66t-19.5 -94.5t-9 -124z" />
<glyph unicode="&#xa3;" horiz-adv-x="1169" d="M154 1108q0 80 20.5 140.5t66.5 107.5t127.5 71.5t196.5 24.5q72 0 138.5 -9.5t110 -23.5t76 -28t47.5 -23l15 -10l27 -330h-143l-58 219q-7 6 -21.5 15.5t-70 25t-123.5 15.5q-50 0 -95.5 -7.5t-65.5 -14.5l-21 -7q-35 -56 -35 -162q0 -56 11.5 -106.5t38.5 -121.5 t34 -93h289v-146h-266q-1 -96 -43.5 -207t-135.5 -274h560l55 211h141l-26 -375h-904v94q58 140 83.5 206t49 154.5t23.5 155.5q0 6 -1 17.5t-1 17.5h-150v119l119 24q-3 8 -15.5 46t-16.5 51t-13.5 47t-13 56t-7 55t-3.5 65z" />
<glyph unicode="&#xa5;" horiz-adv-x="1366" d="M283 575v123h262l-375 613l-143 14v109h557v-103l-160 -31l262 -438q39 -71 45 -84h8q12 30 43 86l246 447l-145 14v109h458v-103l-151 -35l-354 -598h268v-123h-303v-157h303v-123h-303v-172l149 -14v-109h-514v102l150 35v158h-303v123h303v157h-303z" />
<glyph unicode="&#xa6;" horiz-adv-x="530" d="M334 1536v-717h-135v717h135zM334 -205h-135v717h135v-717z" />
<glyph unicode="&#xa7;" horiz-adv-x="978" d="M893 614q0 -180 -133 -264q64 -41 97.5 -102t33.5 -156q0 -55 -11 -100t-39 -86t-72 -68.5t-112.5 -44t-158.5 -16.5q-100 0 -188 19.5t-126 39.5l-39 19v262h152l33 -166q65 -35 178 -35q44 0 87 7t64 15l21 7q31 49 31 112q0 23 -4.5 43t-17 37t-23.5 30t-35 26.5 t-39 21.5t-49 20l-51 18t-58 19q-66 22 -110.5 40t-91 46.5t-74 62t-45 82t-17.5 109.5q0 90 36 158.5t101 108.5q-114 83 -114 254q0 71 17.5 125.5t58 100t114.5 69.5t180 24q60 0 116.5 -8t94.5 -20t67 -24t43 -20l13 -8v-262h-153l-29 166q-58 35 -158 35 q-41 0 -79.5 -7.5t-57.5 -14.5l-18 -7q-29 -50 -29 -113q0 -31 7.5 -55.5t27 -44.5t37 -34t54 -29.5t60 -24t72.5 -25.5q47 -16 76.5 -27.5t69 -30t64 -35.5t51 -43t41.5 -54.5t24.5 -67.5t9.5 -84zM274 637q0 -33 15 -60.5t30.5 -43.5t58 -35t63.5 -26t82 -26 q8 -3 12.5 -4.5t12 -3.5t13.5 -4q50 -15 78 -26q76 82 76 176q0 25 -6 45t-13 35t-26 29.5t-31 22.5t-43.5 20t-47.5 17.5t-59 19t-63 20.5q-31 9 -78 28q-74 -79 -74 -184z" />
<glyph unicode="&#xa8;" horiz-adv-x="872" d="M125 1366q0 52 31 83.5t82 31.5q50 0 81 -31.5t31 -83.5q0 -49 -31 -80t-81 -31q-51 0 -82 30.5t-31 80.5zM522 1366q0 52 31 83.5t82 31.5q50 0 81.5 -31.5t31.5 -83.5q0 -49 -31.5 -80t-81.5 -31q-51 0 -82 30.5t-31 80.5z" />
<glyph unicode="&#xa9;" horiz-adv-x="1595" d="M88 717q0 219 89.5 384.5t250 254t369.5 88.5q156 0 287.5 -51.5t224 -145t144.5 -230t52 -300.5t-52 -300.5t-144.5 -230t-224 -145t-287.5 -51.5q-209 0 -369.5 88.5t-250 254t-89.5 384.5zM211 725q0 -286 166 -450t436 -164q79 0 162.5 14.5t127.5 29.5l44 15 q10 7 26 21t56.5 63.5t72 107t57 152.5t25.5 199q0 281 -167 445.5t-439 164.5q-83 0 -167.5 -15.5t-127.5 -31.5l-43 -16q-5 -3 -13 -10t-32 -31.5t-45.5 -53t-48 -75t-45.5 -98t-32 -122t-13 -145.5zM983 879l-35 122q-49 27 -133 27q-39 0 -74.5 -8t-50.5 -16l-16 -7 q-3 -3 -8 -9t-17 -29.5t-21.5 -53t-17.5 -80.5t-8 -110q0 -314 221 -314q31 0 63 6.5t48 12.5l16 6l35 129h86l-16 -197q-11 -5 -31 -12.5t-79.5 -20t-115.5 -12.5q-170 0 -270 107t-100 297q0 189 99.5 294t272.5 105q59 0 114.5 -12t81.5 -24l26 -11l16 -190h-86z" />
<glyph unicode="&#xaa;" horiz-adv-x="794" d="M72 897q0 94 58.5 154.5t176.5 72.5l193 21v80q0 73 -30 107t-101 34q-30 0 -56 -5t-37 -10l-10 -5l-22 -115h-123v194q9 6 27.5 15.5t83 25t139.5 15.5q159 0 228 -68.5t69 -206.5v-336q0 -45 47 -45h49l10 -80q-45 -36 -129 -36q-111 0 -135 79q-99 -83 -236 -83 q-98 0 -150 50.5t-52 141.5zM229 918q0 -46 26 -71.5t79 -25.5q76 0 166 62v172l-240 -45q-31 -39 -31 -92z" />
<glyph unicode="&#xab;" horiz-adv-x="987" d="M463 262l-371 338v29l371 338l55 -68l-246 -285l246 -284zM813 262l-371 338v29l371 338l55 -68l-245 -285l245 -284z" />
<glyph unicode="&#xad;" horiz-adv-x="706" d="M113 555v147h481v-147h-481z" />
<glyph unicode="&#xae;" horiz-adv-x="1595" d="M88 717q0 219 89.5 384.5t250 254t369.5 88.5q156 0 287.5 -51.5t224 -145t144.5 -230t52 -300.5t-52 -300.5t-144.5 -230t-224 -145t-287.5 -51.5q-209 0 -369.5 88.5t-250 254t-89.5 384.5zM211 725q0 -286 166 -450t436 -164q80 0 163.5 14.5t127.5 29.5l43 15 q10 7 26 21t56.5 63.5t72 107t57 152.5t25.5 199q0 281 -167 445.5t-439 164.5q-83 0 -167.5 -15.5t-127.5 -31.5l-43 -16q-5 -3 -13 -10t-32 -31.5t-45.5 -53t-48 -75t-45.5 -98t-32 -122t-13 -145.5zM682 408l88 -9v-63h-309v59l90 21v635l-90 8v63h350q131 0 210 -60 t79 -167q0 -83 -49.5 -138.5t-137.5 -76.5l183 -272l86 -9v-63h-197l-203 334h-100v-262zM782 1036h-100v-278h106q28 0 56.5 3t43.5 6l15 3q6 4 16 12t26 40t16 73q0 141 -179 141z" />
<glyph unicode="&#xaf;" horiz-adv-x="872" d="M154 1284v135h565v-135h-565z" />
<glyph unicode="&#xb0;" horiz-adv-x="739" d="M90 1133q0 122 76 195t201 73q128 0 205 -72.5t77 -195.5t-77 -196t-205 -73q-125 0 -201 73t-76 196zM229 1141q0 -160 150 -160q24 0 50 4.5t40 8.5l14 5q29 45 29 123q0 79 -38.5 120.5t-108.5 41.5q-25 0 -52.5 -5t-42.5 -10l-14 -5q-27 -45 -27 -123z" />
<glyph unicode="&#xb1;" horiz-adv-x="1028" d="M123 817v133h323v326h136v-326h325v-133h-325v-325h-136v325h-323zM123 223v133h784v-133h-784z" />
<glyph unicode="&#xb2;" horiz-adv-x="720" d="M621 1264q0 -55 -23.5 -102t-68 -89.5t-93.5 -81t-116 -96.5t-119 -115h291l34 107h99l-17 -219h-528v112q54 68 116.5 131.5t106 102t82 77t57.5 76.5t19 82q0 47 -29 69.5t-90 22.5q-34 0 -62 -6.5t-40 -12.5l-11 -7l-34 -113h-101l19 193q8 5 25 13.5t78.5 22 t133.5 13.5q271 0 271 -180z" />
<glyph unicode="&#xb3;" horiz-adv-x="720" d="M623 887q0 -114 -82.5 -173t-223.5 -59q-68 0 -128 14t-85 28l-26 14l26 84q8 -4 23.5 -10.5t66 -17.5t105.5 -11q33 0 65 3.5t48 6.5l16 4q4 3 10 10.5t16.5 36.5t10.5 66q0 74 -34.5 106.5t-108.5 32.5h-43l-15 16v76q24 6 70.5 62.5t80.5 109.5l34 53h-218l-34 -122 h-99l15 217h483v-95q-101 -145 -197 -237q224 -31 224 -215z" />
<glyph unicode="&#xb4;" horiz-adv-x="800" d="M207 1231l272 317l133 -133l-313 -229z" />
<glyph unicode="&#xb6;" horiz-adv-x="1294" d="M930 -205v1493h-217v-1493h-135v799q-220 0 -352 110.5t-132 309.5q0 198 132.5 309t353.5 111h634v-109l-149 -14v-1516h-135z" />
<glyph unicode="&#xb7;" horiz-adv-x="454" d="M92 737q0 61 37.5 98t97.5 37q59 0 97 -37t38 -98t-38 -98t-97 -37q-60 0 -97.5 37t-37.5 98z" />
<glyph unicode="&#xb8;" horiz-adv-x="684" d="M283 -180l24 200h99l-21 -151q6 0 16 -1.5t36 -10t46 -21.5t36 -40.5t16 -63.5q0 -70 -61.5 -110t-166.5 -40q-36 0 -69.5 5t-48.5 11l-15 5l23 100q36 -31 106 -31q20 0 38.5 2t26.5 4l9 3q10 28 10 53q0 36 -26 57.5t-52 24.5z" />
<glyph unicode="&#xb9;" horiz-adv-x="720" d="M123 1298v74q188 29 311 72l15 -14v-674l159 -8v-80h-477v80l170 22v528h-178z" />
<glyph unicode="&#xba;" horiz-adv-x="819" d="M63 1094q0 181 95 284t252 103t251.5 -103t94.5 -284q0 -183 -94 -286t-252 -103t-252.5 103.5t-94.5 285.5zM242 1096q0 -141 42.5 -209t131.5 -68q29 0 56.5 5.5t40.5 11.5l13 6q6 8 14.5 24t23 79.5t14.5 141.5q0 145 -43 212t-132 67q-28 0 -56 -6t-42 -12l-14 -7 q-5 -8 -13.5 -24t-22 -79t-13.5 -142z" />
<glyph unicode="&#xbb;" horiz-adv-x="987" d="M176 967l373 -338v-29l-373 -338l-55 68l246 284l-246 285zM526 967l371 -338v-29l-371 -338l-55 68l246 284l-246 285z" />
<glyph unicode="&#xbc;" horiz-adv-x="1650" d="M1444 766v-467h98v-109h-96v-106l96 -10v-74h-338v63l96 25v100h-344v60l332 518h156zM336 0h-164l1202 1434h164zM123 1298v74q188 29 311 72l15 -14v-674l159 -8v-80h-477v80l170 22v528h-178zM1094 301h213v328z" />
<glyph unicode="&#xbd;" horiz-adv-x="1665" d="M123 1298v74q188 29 311 72l15 -14v-674l159 -8v-80h-477v80l170 22v528h-178zM336 0h-164l1202 1434h164zM1571 596q0 -55 -23.5 -101.5t-68 -89t-93.5 -80.5t-116 -96t-119 -116h291l35 108h98l-14 -221h-531v113q64 82 143 159t125.5 117t79.5 90.5t33 104.5 q0 47 -28 68.5t-91 21.5q-34 0 -61.5 -6t-38.5 -12l-10 -7l-37 -114h-98l16 192q3 2 9 5.5t27.5 12.5t47 15.5t67 12t86.5 5.5q271 0 271 -182z" />
<glyph unicode="&#xbe;" horiz-adv-x="1650" d="M1442 766v-467h98v-109h-94v-106l94 -10v-74h-338v63l98 25v100h-346v60l334 518h154zM336 0h-164l1202 1434h164zM623 887q0 -114 -82.5 -173t-223.5 -59q-68 0 -128 14t-85 28l-26 14l26 84q8 -4 23.5 -10.5t66 -17.5t105.5 -11q33 0 65 3.5t48 6.5l16 4q4 3 10 10.5 t16.5 36.5t10.5 66q0 74 -34.5 106.5t-108.5 32.5h-43l-15 16v76q24 6 70.5 62.5t80.5 109.5l34 53h-218l-34 -122h-99l15 217h483v-95q-101 -145 -197 -237q224 -31 224 -215zM1094 301h211v326z" />
<glyph unicode="&#xbf;" horiz-adv-x="1009" d="M653 1151q0 -62 -38 -99.5t-97 -37.5q-60 0 -97.5 37t-37.5 100q0 60 37.5 97.5t97.5 37.5q59 0 97 -37.5t38 -97.5zM602 854l19 -311q-155 -102 -224 -185.5t-69 -193.5q0 -180 204 -180q56 0 104 12.5t68 25.5l19 13l57 221h142l-27 -330q-5 -4 -14 -10t-43 -22.5 t-73 -29t-104 -22.5t-137 -10q-217 0 -321.5 86t-104.5 232q0 127 76 225t234 207l22 272h172z" />
<glyph unicode="&#xc0;" horiz-adv-x="1454" d="M616 1434h209l25 -25l450 -1286l148 -14v-109h-553v100l149 37l-98 291h-518l-104 -305l155 -14v-109h-473v102l144 35zM653 1090l-178 -517h426l-172 517q-18 52 -35 133h-8q-16 -74 -33 -133zM434 1747l135 133l271 -317l-90 -45z" />
<glyph unicode="&#xc1;" horiz-adv-x="1454" d="M616 1434h209l25 -25l450 -1286l148 -14v-109h-553v100l149 37l-98 291h-518l-104 -305l155 -14v-109h-473v102l144 35zM653 1090l-178 -517h426l-172 517q-18 52 -35 133h-8q-16 -74 -33 -133zM588 1563l270 317l135 -133l-315 -229z" />
<glyph unicode="&#xc2;" horiz-adv-x="1454" d="M616 1434h209l25 -25l450 -1286l148 -14v-109h-553v100l149 37l-98 291h-518l-104 -305l155 -14v-109h-473v102l144 35zM653 1090l-178 -517h426l-172 517q-18 52 -35 133h-8q-16 -74 -33 -133zM432 1563l281 303h28l281 -303l-92 -45l-203 168l-203 -168z" />
<glyph unicode="&#xc3;" horiz-adv-x="1454" d="M616 1434h209l25 -25l450 -1286l148 -14v-109h-553v100l149 37l-98 291h-518l-104 -305l155 -14v-109h-473v102l144 35zM653 1090l-178 -517h426l-172 517q-18 52 -35 133h-8q-16 -74 -33 -133zM442 1571l-51 57q4 7 12 17.5t34.5 38t53.5 48.5t68 38.5t80 17.5 q47 0 127 -39t131 -39l117 84l49 -57q-4 -7 -12 -17.5t-34 -38t-53 -48.5t-67 -38.5t-78 -17.5q-48 0 -129 40t-129 40z" />
<glyph unicode="&#xc4;" horiz-adv-x="1454" d="M616 1434h209l25 -25l450 -1286l148 -14v-109h-553v100l149 37l-98 291h-518l-104 -305l155 -14v-109h-473v102l144 35zM653 1090l-178 -517h426l-172 517q-18 52 -35 133h-8q-16 -74 -33 -133zM416 1688q0 52 30 83t80 31q51 0 83 -31t32 -83q0 -49 -32 -80t-83 -31 q-49 0 -79.5 30.5t-30.5 80.5zM813 1688q0 52 30.5 83t80.5 31q51 0 82.5 -31t31.5 -83q0 -50 -31.5 -80.5t-82.5 -30.5q-50 0 -80.5 30.5t-30.5 80.5z" />
<glyph unicode="&#xc5;" horiz-adv-x="1454" d="M616 1434h209l25 -25l450 -1286l148 -14v-109h-553v100l149 37l-98 291h-518l-104 -305l155 -14v-109h-473v102l144 35zM653 1090l-178 -517h426l-172 517q-18 52 -35 133h-8q-16 -74 -33 -133zM543 1700q0 80 49 128t131 48q85 0 135.5 -48t50.5 -128t-50.5 -128 t-135.5 -48q-82 0 -131 48t-49 128zM645 1704q0 -90 86 -90q13 0 28 2.5t23 5.5l9 2q16 27 16 70q0 45 -22.5 68.5t-61.5 23.5q-15 0 -30 -3t-23 -6l-8 -3q-17 -25 -17 -70z" />
<glyph unicode="&#xc6;" horiz-adv-x="1689" d="M1583 0h-856v100l150 37l-41 291h-394l-118 -305l155 -14v-109h-473v102l144 35l507 1297h899l27 -363h-143l-56 217h-456l73 -487h179l28 166h113v-480h-113l-28 166h-160l78 -508h313l55 224h144zM690 1090l-203 -517h338l-86 656h-10q-7 -45 -39 -139z" />
<glyph unicode="&#xc7;" horiz-adv-x="1204" d="M614 -180l19 166q-254 26 -399.5 219t-145.5 514q0 345 168 539t461 194q98 0 190.5 -22t136.5 -44l43 -22l27 -344h-143l-58 231q-9 5 -26.5 13t-75.5 21t-121 13q-68 0 -128.5 -14t-86.5 -28l-26 -15q-5 -5 -13.5 -16.5t-30 -55.5t-38 -98t-30 -148.5t-13.5 -203.5 q0 -586 376 -586q53 0 107.5 11t82.5 22l28 12l57 240h141l-24 -350q-18 -9 -49.5 -22.5t-126 -37t-185.5 -26.5l-14 -113q6 0 16 -1.5t35 -10t44.5 -21.5t35.5 -40.5t16 -63.5q0 -70 -60 -110t-165 -40q-36 0 -69.5 5t-48.5 11l-15 5l22 100q37 -31 107 -31q20 0 38.5 2 t26.5 4l9 3q10 28 10 53q0 36 -26.5 57.5t-52.5 24.5z" />
<glyph unicode="&#xc8;" horiz-adv-x="1220" d="M1114 0h-1032v102l149 35v1174l-149 14v109h1005l27 -363h-143l-56 217h-469v-487h248l29 166h119v-480h-119l-29 166h-248v-508h496l55 224h144zM330 1747l133 133l272 -317l-92 -45z" />
<glyph unicode="&#xc9;" horiz-adv-x="1220" d="M1114 0h-1032v102l149 35v1174l-149 14v109h1005l27 -363h-143l-56 217h-469v-487h248l29 166h119v-480h-119l-29 166h-248v-508h496l55 224h144zM471 1563l270 317l133 -133l-313 -229z" />
<glyph unicode="&#xca;" horiz-adv-x="1220" d="M1114 0h-1032v102l149 35v1174l-149 14v109h1005l27 -363h-143l-56 217h-469v-487h248l29 166h119v-480h-119l-29 166h-248v-508h496l55 224h144zM315 1563l281 303h27l282 -303l-92 -45l-203 168l-202 -168z" />
<glyph unicode="&#xcb;" horiz-adv-x="1220" d="M1114 0h-1032v102l149 35v1174l-149 14v109h1005l27 -363h-143l-56 217h-469v-487h248l29 166h119v-480h-119l-29 166h-248v-508h496l55 224h144zM305 1688q0 52 31 83t82 31t81.5 -31t30.5 -83q0 -50 -30.5 -80.5t-81.5 -30.5t-82 30.5t-31 80.5zM702 1688q0 52 31 83 t82 31t82 -31t31 -83q0 -50 -31 -80.5t-82 -30.5t-82 30.5t-31 80.5z" />
<glyph unicode="&#xcc;" horiz-adv-x="677" d="M446 123l148 -14v-109h-514v102l149 35v1174l-149 14v109h514v-103l-148 -35v-1173zM59 1747l134 133l270 -317l-90 -45z" />
<glyph unicode="&#xcd;" horiz-adv-x="677" d="M446 123l148 -14v-109h-514v102l149 35v1174l-149 14v109h514v-103l-148 -35v-1173zM186 1563l273 317l133 -133l-313 -229z" />
<glyph unicode="&#xce;" horiz-adv-x="677" d="M446 123l148 -14v-109h-514v102l149 35v1174l-149 14v109h514v-103l-148 -35v-1173zM45 1563l281 303h26l281 -303l-92 -45l-203 168l-203 -168z" />
<glyph unicode="&#xcf;" horiz-adv-x="677" d="M446 123l148 -14v-109h-514v102l149 35v1174l-149 14v109h514v-103l-148 -35v-1173zM29 1688q0 52 30 83t80 31q51 0 83 -31t32 -83q0 -49 -32 -80t-83 -31q-49 0 -79.5 30.5t-30.5 80.5zM426 1688q0 52 30.5 83t80.5 31q51 0 82.5 -31t31.5 -83q0 -50 -31.5 -80.5 t-82.5 -30.5q-49 0 -80 30.5t-31 80.5z" />
<glyph unicode="&#xd0;" horiz-adv-x="1355" d="M86 657v121l150 27v506l-150 14v109h594q267 0 427.5 -190.5t160.5 -526.5t-160.5 -526.5t-425.5 -190.5h-596v102l150 35v520h-150zM662 1288h-211v-483h284v-148h-284v-512h223q60 0 115 12t79 24l25 12q6 5 15 16.5t33 56.5t42.5 100t33.5 152.5t15 210.5 q0 559 -370 559z" />
<glyph unicode="&#xd1;" horiz-adv-x="1490" d="M393 123l156 -14v-109h-473v102l155 35v1174l-155 14v109h362l617 -947q29 -41 51 -100l6 2q-4 33 -4 98v824l-156 14v109h473v-103l-155 -35v-1296h-152l-672 1030q-36 55 -51 98l-6 -2q4 -33 4 -96v-907zM455 1571l-52 57q4 7 12 17.5t34.5 38t53.5 48.5t68 38.5 t80 17.5q48 0 127.5 -39t128.5 -39l119 84l49 -57q-4 -7 -12 -17.5t-34 -38t-53 -48.5t-67 -38.5t-78 -17.5q-48 0 -129 40t-129 40z" />
<glyph unicode="&#xd2;" d="M90 719q0 342 160.5 537.5t425.5 195.5t426.5 -196t161.5 -539t-161 -539t-425 -196q-266 0 -427 196.5t-161 540.5zM324 717q0 -584 364 -584q58 0 112 13.5t78 26.5l25 13q5 6 13.5 18t30 57t38 100t30 150.5t13.5 203.5q0 583 -360 583q-59 0 -114.5 -14t-81.5 -28 l-26 -13q-5 -6 -13 -17t-29 -55.5t-37.5 -99t-29.5 -150t-13 -204.5zM395 1747l133 133l273 -317l-92 -45z" />
<glyph unicode="&#xd3;" d="M90 719q0 342 160.5 537.5t425.5 195.5t426.5 -196t161.5 -539t-161 -539t-425 -196q-266 0 -427 196.5t-161 540.5zM324 717q0 -584 364 -584q58 0 112 13.5t78 26.5l25 13q5 6 13.5 18t30 57t38 100t30 150.5t13.5 203.5q0 583 -360 583q-59 0 -114.5 -14t-81.5 -28 l-26 -13q-5 -6 -13 -17t-29 -55.5t-37.5 -99t-29.5 -150t-13 -204.5zM524 1563l271 317l135 -133l-316 -229z" />
<glyph unicode="&#xd4;" d="M90 719q0 342 160.5 537.5t425.5 195.5t426.5 -196t161.5 -539t-161 -539t-425 -196q-266 0 -427 196.5t-161 540.5zM324 717q0 -584 364 -584q58 0 112 13.5t78 26.5l25 13q5 6 13.5 18t30 57t38 100t30 150.5t13.5 203.5q0 583 -360 583q-59 0 -114.5 -14t-81.5 -28 l-26 -13q-5 -6 -13 -17t-29 -55.5t-37.5 -99t-29.5 -150t-13 -204.5zM381 1563l281 303h26l281 -303l-90 -45l-203 168l-203 -168z" />
<glyph unicode="&#xd5;" d="M90 719q0 342 160.5 537.5t425.5 195.5t426.5 -196t161.5 -539t-161 -539t-425 -196q-266 0 -427 196.5t-161 540.5zM324 717q0 -584 364 -584q58 0 112 13.5t78 26.5l25 13q5 6 13.5 18t30 57t38 100t30 150.5t13.5 203.5q0 583 -360 583q-59 0 -114.5 -14t-81.5 -28 l-26 -13q-5 -6 -13 -17t-29 -55.5t-37.5 -99t-29.5 -150t-13 -204.5zM389 1571l-51 57q4 7 12.5 17.5t34.5 38t53.5 48.5t68 38.5t79.5 17.5q49 0 128.5 -39t129.5 -39l117 84l49 -57q-4 -7 -12 -17.5t-34 -38t-53 -48.5t-67 -38.5t-78 -17.5q-48 0 -128 40t-128 40z" />
<glyph unicode="&#xd6;" d="M90 719q0 342 160.5 537.5t425.5 195.5t426.5 -196t161.5 -539t-161 -539t-425 -196q-266 0 -427 196.5t-161 540.5zM324 717q0 -584 364 -584q58 0 112 13.5t78 26.5l25 13q5 6 13.5 18t30 57t38 100t30 150.5t13.5 203.5q0 583 -360 583q-59 0 -114.5 -14t-81.5 -28 l-26 -13q-5 -6 -13 -17t-29 -55.5t-37.5 -99t-29.5 -150t-13 -204.5zM365 1688q0 52 30 83t80 31q51 0 82 -31t31 -83q0 -50 -31 -80.5t-82 -30.5q-49 0 -79.5 30.5t-30.5 80.5zM760 1688q0 52 31 83t81 31q51 0 82 -31t31 -83q0 -50 -31 -80.5t-82 -30.5q-50 0 -81 31 t-31 80z" />
<glyph unicode="&#xd7;" horiz-adv-x="1028" d="M244 330l-94 96l268 270l-268 271l94 96l270 -270l270 270l97 -96l-271 -271l271 -270l-97 -96l-270 270z" />
<glyph unicode="&#xd8;" d="M121 18l119 172q-152 201 -152 529q0 342 161.5 537.5t426.5 195.5q205 0 348 -119l90 131l115 -51l-119 -172q152 -198 152 -524q0 -344 -160.5 -539.5t-425.5 -195.5q-205 0 -350 118l-90 -131zM1028 715q0 203 -45 340l-553 -801q90 -121 256 -121q58 0 112.5 13.5 t79.5 26.5l25 13q5 6 13.5 18t30 57t38 100t30 150.5t13.5 203.5zM324 717q0 -210 43 -340l551 803q-87 118 -250 118q-59 0 -114.5 -14t-81.5 -28l-26 -13q-5 -6 -13 -17t-29 -55.5t-37.5 -99t-29.5 -150t-13 -204.5z" />
<glyph unicode="&#xd9;" horiz-adv-x="1478" d="M1260 1296v-786q0 -247 -142.5 -387.5t-378.5 -140.5q-234 0 -376 135t-142 370v824l-149 14v109h520v-103l-150 -35v-809q0 -183 84 -271.5t256 -88.5q59 0 111 9.5t74 18.5l22 9q4 4 11.5 12t26 38t32.5 66t25.5 97.5t11.5 130.5v803l-156 14v109h473v-103zM471 1747 l133 133l273 -317l-93 -45z" />
<glyph unicode="&#xda;" horiz-adv-x="1478" d="M1260 1296v-786q0 -247 -142.5 -387.5t-378.5 -140.5q-234 0 -376 135t-142 370v824l-149 14v109h520v-103l-150 -35v-809q0 -183 84 -271.5t256 -88.5q59 0 111 9.5t74 18.5l22 9q4 4 11.5 12t26 38t32.5 66t25.5 97.5t11.5 130.5v803l-156 14v109h473v-103zM600 1563 l270 317l136 -133l-316 -229z" />
<glyph unicode="&#xdb;" horiz-adv-x="1478" d="M1260 1296v-786q0 -247 -142.5 -387.5t-378.5 -140.5q-234 0 -376 135t-142 370v824l-149 14v109h520v-103l-150 -35v-809q0 -183 84 -271.5t256 -88.5q59 0 111 9.5t74 18.5l22 9q4 4 11.5 12t26 38t32.5 66t25.5 97.5t11.5 130.5v803l-156 14v109h473v-103zM457 1563 l280 303h27l280 -303l-90 -45l-202 168l-203 -168z" />
<glyph unicode="&#xdc;" horiz-adv-x="1478" d="M1260 1296v-786q0 -247 -142.5 -387.5t-378.5 -140.5q-234 0 -376 135t-142 370v824l-149 14v109h520v-103l-150 -35v-809q0 -183 84 -271.5t256 -88.5q59 0 111 9.5t74 18.5l22 9q4 4 11.5 12t26 38t32.5 66t25.5 97.5t11.5 130.5v803l-156 14v109h473v-103zM440 1688 q0 52 31 83t82 31q50 0 81.5 -31t31.5 -83q0 -49 -31.5 -80t-81.5 -31q-51 0 -82 30.5t-31 80.5zM838 1688q0 52 30.5 83t81.5 31q50 0 81.5 -31t31.5 -83q0 -49 -31.5 -80t-81.5 -31q-51 0 -81.5 30.5t-30.5 80.5z" />
<glyph unicode="&#xdd;" horiz-adv-x="1366" d="M1190 1296l-389 -671v-502l149 -14v-109h-514v102l150 35v484l-416 690l-143 14v109h557v-103l-160 -31l262 -450q34 -58 45 -82h8q11 28 43 84l246 459l-145 14v109h458v-103zM543 1540l270 320l135 -136l-315 -227z" />
<glyph unicode="&#xde;" horiz-adv-x="1245" d="M446 125l177 -8v-117h-541v102l149 35v1174l-149 14v109h514v-103l-150 -35v-155h220q220 0 352.5 -106.5t132.5 -297.5t-132 -297t-351 -106h-222v-209zM618 995h-172v-514h185q46 0 94 5.5t73 10.5l25 5q4 3 10 8.5t22 26.5t28 45.5t22 66.5t10 88q0 258 -297 258z" />
<glyph unicode="&#xdf;" d="M752 156q55 -33 166 -33q43 0 82 6t57 12l18 6q27 54 27 117q0 38 -12.5 68t-28.5 49.5t-50 39t-57.5 30t-70.5 28.5q-70 28 -122.5 64t-95.5 90.5t-65 132.5t-22 178q133 58 199.5 127.5t66.5 165.5q0 85 -50 134.5t-147 49.5q-47 0 -94 -12.5t-71 -24.5l-23 -12 q-5 -9 -13.5 -27t-22 -81t-13.5 -134v-1130h-340v96l129 35v997q0 209 127 317.5t348 108.5q192 0 279 -82.5t87 -220.5q0 -126 -73.5 -210t-214.5 -158q0 -84 59.5 -145t173.5 -111q116 -51 141 -65q114 -64 142 -169q12 -43 12 -94q0 -146 -95 -231.5t-290 -85.5 q-57 0 -111.5 7.5t-91.5 18t-66 21.5t-43 19l-14 7v267h154z" />
<glyph unicode="&#xe0;" horiz-adv-x="1107" d="M94 250q0 132 82.5 217.5t247.5 103.5l293 33v121q0 112 -45.5 163.5t-157.5 51.5q-48 0 -89.5 -9t-58.5 -19l-18 -9l-31 -164h-153v265q5 3 14.5 8.5t42.5 19.5t70.5 24.5t99 19.5t127.5 9q219 0 314.5 -95t95.5 -288v-497q0 -35 16 -52.5t53 -17.5h74l12 -96 q-7 -5 -19.5 -13.5t-57.5 -22t-95 -13.5q-149 0 -184 116q-146 -124 -344 -124q-139 0 -214 71t-75 197zM293 276q0 -145 164 -145q136 0 260 94v267l-373 -68q-6 -7 -14.5 -19t-22.5 -50.5t-14 -78.5zM213 1415l133 133l270 -317l-90 -45z" />
<glyph unicode="&#xe1;" horiz-adv-x="1107" d="M94 250q0 132 82.5 217.5t247.5 103.5l293 33v121q0 112 -45.5 163.5t-157.5 51.5q-48 0 -89.5 -9t-58.5 -19l-18 -9l-31 -164h-153v265q5 3 14.5 8.5t42.5 19.5t70.5 24.5t99 19.5t127.5 9q219 0 314.5 -95t95.5 -288v-497q0 -35 16 -52.5t53 -17.5h74l12 -96 q-7 -5 -19.5 -13.5t-57.5 -22t-95 -13.5q-149 0 -184 116q-146 -124 -344 -124q-139 0 -214 71t-75 197zM293 276q0 -145 164 -145q136 0 260 94v267l-373 -68q-6 -7 -14.5 -19t-22.5 -50.5t-14 -78.5zM401 1231l273 317l133 -133l-313 -229z" />
<glyph unicode="&#xe2;" horiz-adv-x="1107" d="M94 250q0 132 82.5 217.5t247.5 103.5l293 33v121q0 112 -45.5 163.5t-157.5 51.5q-48 0 -89.5 -9t-58.5 -19l-18 -9l-31 -164h-153v265q5 3 14.5 8.5t42.5 19.5t70.5 24.5t99 19.5t127.5 9q219 0 314.5 -95t95.5 -288v-497q0 -35 16 -52.5t53 -17.5h74l12 -96 q-7 -5 -19.5 -13.5t-57.5 -22t-95 -13.5q-149 0 -184 116q-146 -124 -344 -124q-139 0 -214 71t-75 197zM293 276q0 -145 164 -145q136 0 260 94v267l-373 -68q-6 -7 -14.5 -19t-22.5 -50.5t-14 -78.5zM229 1231l281 303h27l280 -303l-90 -45l-203 168l-202 -168z" />
<glyph unicode="&#xe3;" horiz-adv-x="1107" d="M94 250q0 132 82.5 217.5t247.5 103.5l293 33v121q0 112 -45.5 163.5t-157.5 51.5q-48 0 -89.5 -9t-58.5 -19l-18 -9l-31 -164h-153v265q5 3 14.5 8.5t42.5 19.5t70.5 24.5t99 19.5t127.5 9q219 0 314.5 -95t95.5 -288v-497q0 -35 16 -52.5t53 -17.5h74l12 -96 q-7 -5 -19.5 -13.5t-57.5 -22t-95 -13.5q-149 0 -184 116q-146 -124 -344 -124q-139 0 -214 71t-75 197zM293 276q0 -145 164 -145q136 0 260 94v267l-373 -68q-6 -7 -14.5 -19t-22.5 -50.5t-14 -78.5zM252 1260l-53 55q4 7 12.5 17.5t34.5 38.5t53 49.5t67.5 39t79.5 17.5 q49 0 129 -39t130 -39l116 84l49 -58q-4 -6 -12 -17t-34 -38.5t-52.5 -48.5t-66.5 -38t-78 -17q-48 0 -128 38.5t-128 38.5z" />
<glyph unicode="&#xe4;" horiz-adv-x="1107" d="M94 250q0 132 82.5 217.5t247.5 103.5l293 33v121q0 112 -45.5 163.5t-157.5 51.5q-48 0 -89.5 -9t-58.5 -19l-18 -9l-31 -164h-153v265q5 3 14.5 8.5t42.5 19.5t70.5 24.5t99 19.5t127.5 9q219 0 314.5 -95t95.5 -288v-497q0 -35 16 -52.5t53 -17.5h74l12 -96 q-7 -5 -19.5 -13.5t-57.5 -22t-95 -13.5q-149 0 -184 116q-146 -124 -344 -124q-139 0 -214 71t-75 197zM293 276q0 -145 164 -145q136 0 260 94v267l-373 -68q-6 -7 -14.5 -19t-22.5 -50.5t-14 -78.5zM219 1366q0 52 31.5 83.5t81.5 31.5q51 0 81.5 -31.5t30.5 -83.5 q0 -50 -30.5 -80.5t-81.5 -30.5q-50 0 -81.5 31t-31.5 80zM616 1366q0 52 31.5 83.5t81.5 31.5q51 0 82 -31.5t31 -83.5q0 -50 -31 -80.5t-82 -30.5q-50 0 -81.5 31t-31.5 80z" />
<glyph unicode="&#xe5;" horiz-adv-x="1107" d="M94 250q0 132 82.5 217.5t247.5 103.5l293 33v121q0 112 -45.5 163.5t-157.5 51.5q-48 0 -89.5 -9t-58.5 -19l-18 -9l-31 -164h-153v265q5 3 14.5 8.5t42.5 19.5t70.5 24.5t99 19.5t127.5 9q219 0 314.5 -95t95.5 -288v-497q0 -35 16 -52.5t53 -17.5h74l12 -96 q-7 -5 -19.5 -13.5t-57.5 -22t-95 -13.5q-149 0 -184 116q-146 -124 -344 -124q-139 0 -214 71t-75 197zM293 276q0 -145 164 -145q136 0 260 94v267l-373 -68q-6 -7 -14.5 -19t-22.5 -50.5t-14 -78.5zM358 1366q0 81 49.5 128.5t131.5 47.5q84 0 134 -47.5t50 -128.5 q0 -79 -50.5 -126.5t-133.5 -47.5q-82 0 -131.5 47.5t-49.5 126.5zM461 1372q0 -90 84 -90q14 0 29 2.5t24 5.5l8 2q15 25 15 70q0 44 -21.5 67t-60.5 23q-15 0 -31 -2.5t-24 -5.5l-9 -2q-14 -27 -14 -70z" />
<glyph unicode="&#xe6;" horiz-adv-x="1615" d="M1460 199l43 -113l-16.5 -11t-45.5 -25t-72 -32t-94 -25t-114 -11q-117 0 -213 44t-162 128q-21 -22 -48 -44t-78.5 -54.5t-123.5 -53t-151 -20.5q-141 0 -216 70.5t-75 199.5q0 133 83 216t247 103l252 31q9 94 41 180q-11 80 -60 119t-143 39q-48 0 -89.5 -9t-58.5 -19 l-18 -9l-31 -164h-153v265q5 3 14.5 8.5t42.5 19.5t70.5 24.5t99 19.5t127.5 9q232 0 328 -110q123 110 297 110q195 0 301.5 -140.5t85.5 -397.5l-64 -43h-571q3 -190 85.5 -281.5t221.5 -91.5q61 0 125.5 17t98.5 34zM977 901q-3 -4 -8.5 -12.5t-19.5 -36.5t-24.5 -59 t-19 -80t-8.5 -101l446 27q3 151 -52 226t-158 75q-39 0 -78 -10t-59 -20zM293 276q0 -145 164 -145q63 0 127 23.5t94.5 44t54.5 41.5q-53 113 -59 247l-330 -63q-6 -7 -14.5 -19t-22.5 -50.5t-14 -78.5z" />
<glyph unicode="&#xe7;" horiz-adv-x="1024" d="M502 -180l18 166q-198 21 -317 165.5t-119 380.5q0 249 133 401t377 152q55 0 109 -8t92 -19.5t68.5 -23.5t45.5 -20l15 -8v-267h-154l-29 164q-6 4 -18.5 10t-56 16.5t-91.5 10.5q-53 0 -100 -10t-67 -20l-21 -11q-3 -4 -8.5 -12.5t-20 -39t-25 -66t-19.5 -94.5t-9 -124 q0 -125 24 -212.5t68.5 -134t97.5 -66t121 -19.5q70 0 140.5 17t105.5 34l35 17l41 -113q-5 -4 -15 -10t-42 -22.5t-67 -29.5t-88.5 -25t-107.5 -15l-14 -115q6 0 16 -1.5t35.5 -10t45 -21.5t35.5 -40.5t16 -63.5q0 -70 -60.5 -110t-165.5 -40q-36 0 -69.5 5t-48.5 11l-15 5 l23 100q36 -31 106 -31q20 0 38.5 2t27.5 4l8 3q10 28 10 53q0 36 -26 57.5t-52 24.5z" />
<glyph unicode="&#xe8;" horiz-adv-x="1064" d="M911 199l41 -113l-16.5 -11t-46.5 -25t-75 -32t-98.5 -25t-119.5 -11q-228 0 -370 147t-142 399q0 251 136.5 404t354.5 153q204 0 315 -140t91 -398l-63 -43h-613q1 -189 89.5 -281t236.5 -92q67 0 137 17t106 34zM391 901q-3 -4 -9 -12.5t-21 -36.5t-26 -59t-20.5 -80 t-9.5 -101l490 27q4 151 -57 226t-173 75q-44 0 -87.5 -10t-65.5 -20zM244 1415l133 133l272 -317l-92 -45z" />
<glyph unicode="&#xe9;" horiz-adv-x="1064" d="M911 199l41 -113l-16.5 -11t-46.5 -25t-75 -32t-98.5 -25t-119.5 -11q-228 0 -370 147t-142 399q0 251 136.5 404t354.5 153q204 0 315 -140t91 -398l-63 -43h-613q1 -189 89.5 -281t236.5 -92q67 0 137 17t106 34zM391 901q-3 -4 -9 -12.5t-21 -36.5t-26 -59t-20.5 -80 t-9.5 -101l490 27q4 151 -57 226t-173 75q-44 0 -87.5 -10t-65.5 -20zM475 1231l273 317l133 -133l-314 -229z" />
<glyph unicode="&#xea;" horiz-adv-x="1064" d="M911 199l41 -113l-16.5 -11t-46.5 -25t-75 -32t-98.5 -25t-119.5 -11q-228 0 -370 147t-142 399q0 251 136.5 404t354.5 153q204 0 315 -140t91 -398l-63 -43h-613q1 -189 89.5 -281t236.5 -92q67 0 137 17t106 34zM391 901q-3 -4 -9 -12.5t-21 -36.5t-26 -59t-20.5 -80 t-9.5 -101l490 27q4 151 -57 226t-173 75q-44 0 -87.5 -10t-65.5 -20zM268 1231l281 303h26l281 -303l-90 -45l-203 168l-203 -168z" />
<glyph unicode="&#xeb;" horiz-adv-x="1064" d="M911 199l41 -113l-16.5 -11t-46.5 -25t-75 -32t-98.5 -25t-119.5 -11q-228 0 -370 147t-142 399q0 251 136.5 404t354.5 153q204 0 315 -140t91 -398l-63 -43h-613q1 -189 89.5 -281t236.5 -92q67 0 137 17t106 34zM391 901q-3 -4 -9 -12.5t-21 -36.5t-26 -59t-20.5 -80 t-9.5 -101l490 27q4 151 -57 226t-173 75q-44 0 -87.5 -10t-65.5 -20zM254 1366q0 52 31 83.5t82 31.5q50 0 81 -31.5t31 -83.5q0 -49 -31 -80t-81 -31q-51 0 -82 30.5t-31 80.5zM651 1366q0 52 31 83.5t82 31.5q50 0 81.5 -31.5t31.5 -83.5q0 -49 -31.5 -80t-81.5 -31 q-51 0 -82 30.5t-31 80.5z" />
<glyph unicode="&#xec;" horiz-adv-x="606" d="M-27 1415l133 133l273 -317l-92 -45zM76 961v94l319 28l21 -20v-946l131 -15v-102h-471v96l129 35v780z" />
<glyph unicode="&#xed;" horiz-adv-x="606" d="M176 1231l273 317l133 -133l-314 -229zM76 961v94l319 28l21 -20v-946l131 -15v-102h-471v96l129 35v780z" />
<glyph unicode="&#xee;" horiz-adv-x="606" d="M76 961v94l319 28l21 -20v-946l131 -15v-102h-471v96l129 35v780zM-4 1231l280 303h27l281 -303l-90 -45l-203 168l-203 -168z" />
<glyph unicode="&#xef;" horiz-adv-x="606" d="M-20 1366q0 52 31 83.5t81 31.5q51 0 82 -31.5t31 -83.5q0 -50 -31 -80.5t-82 -30.5q-50 0 -81 31t-31 80zM377 1366q0 52 31 83.5t81 31.5q51 0 82 -31.5t31 -83.5q0 -50 -31 -80.5t-82 -30.5q-50 0 -81 31t-31 80zM76 961v94l319 28l21 -20v-946l131 -15v-102h-471v96 l129 35v780z" />
<glyph unicode="&#xf0;" horiz-adv-x="1116" d="M807 1450l-158 -86q76 -59 138.5 -131t118.5 -169t88 -224.5t32 -272.5q0 -290 -124 -437.5t-339 -147.5q-220 0 -349.5 147.5t-129.5 407.5q0 257 124.5 402.5t334.5 145.5q73 0 145 -20q-69 128 -172 227l-217 -118l-57 98l182 98q-45 34 -91 59.5t-69 34.5l-24 9 l45 79q13 -3 37 -10t92 -37t131 -69l207 112zM813 522q0 196 -49 357q-82 61 -209 61q-43 0 -85 -8.5t-62 -17.5l-21 -9q-3 -4 -8.5 -12.5t-19.5 -41t-24.5 -70.5t-19 -103.5t-8.5 -138.5q0 -209 65 -309.5t195 -100.5q40 0 81 8.5t62 16.5l21 8q3 4 8.5 13t20 41t25 70 t19.5 101.5t9 134.5z" />
<glyph unicode="&#xf1;" horiz-adv-x="1257" d="M82 961v94l313 28l21 -20l-10 -107l6 -8q158 137 370 137q158 0 226.5 -84t68.5 -251v-633l129 -15v-102h-471v96l131 35v602q0 107 -39 155t-135 48q-151 0 -270 -119v-700l131 -15v-102h-471v96l129 35v780zM334 1260l-51 55q4 7 12 17.5t34 38.5t53.5 49.5t68 39 t79.5 17.5q48 0 127.5 -39t128.5 -39l117 84l49 -58q-4 -6 -12 -17t-33.5 -38.5t-52 -48.5t-66.5 -38t-79 -17q-47 0 -127.5 38.5t-128.5 38.5z" />
<glyph unicode="&#xf2;" horiz-adv-x="1140" d="M84 535q0 258 133 404t354 146q220 0 353 -146.5t133 -403.5q0 -258 -133 -405.5t-353 -147.5q-221 0 -354 148t-133 405zM307 539q0 -410 273 -410q43 0 85.5 8.5t63.5 16.5l21 8q3 4 9 13t21 41.5t26 71t20.5 104t9.5 138.5q0 410 -273 410q-43 0 -86 -8.5t-65 -17.5 l-21 -9q-3 -4 -9 -12.5t-20.5 -40.5t-25.5 -70t-20 -103.5t-9 -139.5zM238 1415l133 133l272 -317l-92 -45z" />
<glyph unicode="&#xf3;" horiz-adv-x="1140" d="M84 535q0 258 133 404t354 146q220 0 353 -146.5t133 -403.5q0 -258 -133 -405.5t-353 -147.5q-221 0 -354 148t-133 405zM307 539q0 -410 273 -410q43 0 85.5 8.5t63.5 16.5l21 8q3 4 9 13t21 41.5t26 71t20.5 104t9.5 138.5q0 410 -273 410q-43 0 -86 -8.5t-65 -17.5 l-21 -9q-3 -4 -9 -12.5t-20.5 -40.5t-25.5 -70t-20 -103.5t-9 -139.5zM471 1231l272 317l134 -133l-314 -229z" />
<glyph unicode="&#xf4;" horiz-adv-x="1140" d="M84 535q0 258 133 404t354 146q220 0 353 -146.5t133 -403.5q0 -258 -133 -405.5t-353 -147.5q-221 0 -354 148t-133 405zM307 539q0 -410 273 -410q43 0 85.5 8.5t63.5 16.5l21 8q3 4 9 13t21 41.5t26 71t20.5 104t9.5 138.5q0 410 -273 410q-43 0 -86 -8.5t-65 -17.5 l-21 -9q-3 -4 -9 -12.5t-20.5 -40.5t-25.5 -70t-20 -103.5t-9 -139.5zM276 1231l281 303h27l280 -303l-92 -45l-203 168l-202 -168z" />
<glyph unicode="&#xf5;" horiz-adv-x="1140" d="M84 535q0 258 133 404t354 146q220 0 353 -146.5t133 -403.5q0 -258 -133 -405.5t-353 -147.5q-221 0 -354 148t-133 405zM307 539q0 -410 273 -410q43 0 85.5 8.5t63.5 16.5l21 8q3 4 9 13t21 41.5t26 71t20.5 104t9.5 138.5q0 410 -273 410q-43 0 -86 -8.5t-65 -17.5 l-21 -9q-3 -4 -9 -12.5t-20.5 -40.5t-25.5 -70t-20 -103.5t-9 -139.5zM285 1260l-52 55q4 7 12.5 17.5t34.5 38.5t53.5 49.5t68 39t79.5 17.5q49 0 128.5 -39t129.5 -39l117 84l49 -58q-4 -6 -12 -17t-34 -38.5t-52.5 -48.5t-66.5 -38t-78 -17q-48 0 -128 38.5t-128 38.5z " />
<glyph unicode="&#xf6;" horiz-adv-x="1140" d="M84 535q0 258 133 404t354 146q220 0 353 -146.5t133 -403.5q0 -258 -133 -405.5t-353 -147.5q-221 0 -354 148t-133 405zM307 539q0 -410 273 -410q43 0 85.5 8.5t63.5 16.5l21 8q3 4 9 13t21 41.5t26 71t20.5 104t9.5 138.5q0 410 -273 410q-43 0 -86 -8.5t-65 -17.5 l-21 -9q-3 -4 -9 -12.5t-20.5 -40.5t-25.5 -70t-20 -103.5t-9 -139.5zM258 1366q0 52 31 83.5t82 31.5t81.5 -31.5t30.5 -83.5q0 -50 -30.5 -80.5t-81.5 -30.5t-82 30.5t-31 80.5zM655 1366q0 52 31 83.5t82 31.5t82 -31.5t31 -83.5q0 -50 -31 -80.5t-82 -30.5t-82 30.5 t-31 80.5z" />
<glyph unicode="&#xf7;" horiz-adv-x="1028" d="M123 629v135h784v-135h-784zM387 1026q0 56 34 89.5t89 33.5q56 0 90.5 -33.5t34.5 -89.5q0 -57 -34.5 -91t-90.5 -34q-54 0 -88.5 34.5t-34.5 90.5zM510 236q-55 0 -89 33t-34 89t34.5 90.5t88.5 34.5q56 0 90.5 -34t34.5 -91q0 -56 -34.5 -89t-90.5 -33z" />
<glyph unicode="&#xf8;" horiz-adv-x="1140" d="M104 -8l107 145q-127 146 -127 398q0 258 133 404t354 146q158 0 273 -77l82 110l112 -45l-106 -145q125 -147 125 -393q0 -258 -133 -405.5t-353 -147.5q-159 0 -274 77l-80 -108zM301 541q0 -141 31 -236l416 567q-71 74 -185 74q-44 0 -88.5 -10t-66.5 -20l-23 -9 q-3 -4 -9 -12.5t-20.5 -40.5t-25.5 -70t-20 -103.5t-9 -139.5zM842 528q0 133 -33 234l-414 -567q69 -72 185 -72q44 0 88 9.5t66 18.5l22 9q3 4 9 12.5t21 41t26 71t20.5 104t9.5 139.5z" />
<glyph unicode="&#xf9;" horiz-adv-x="1226" d="M696 961v94l320 28l20 -20v-907l131 -50v-94l-313 -28l-23 20l13 107l-8 6q-59 -52 -151 -93.5t-214 -41.5q-157 0 -224 85t-67 252v592l-129 50v94l320 28l20 -20v-729q0 -106 36.5 -154.5t131.5 -48.5q147 0 266 119v661zM244 1415l133 133l270 -317l-90 -45z" />
<glyph unicode="&#xfa;" horiz-adv-x="1226" d="M696 961v94l320 28l20 -20v-907l131 -50v-94l-313 -28l-23 20l13 107l-8 6q-59 -52 -151 -93.5t-214 -41.5q-157 0 -224 85t-67 252v592l-129 50v94l320 28l20 -20v-729q0 -106 36.5 -154.5t131.5 -48.5q147 0 266 119v661zM479 1231l273 317l133 -133l-314 -229z" />
<glyph unicode="&#xfb;" horiz-adv-x="1226" d="M696 961v94l320 28l20 -20v-907l131 -50v-94l-313 -28l-23 20l13 107l-8 6q-59 -52 -151 -93.5t-214 -41.5q-157 0 -224 85t-67 252v592l-129 50v94l320 28l20 -20v-729q0 -106 36.5 -154.5t131.5 -48.5q147 0 266 119v661zM295 1231l283 303h26l281 -303l-92 -45 l-203 168l-203 -168z" />
<glyph unicode="&#xfc;" horiz-adv-x="1226" d="M696 961v94l320 28l20 -20v-907l131 -50v-94l-313 -28l-23 20l13 107l-8 6q-59 -52 -151 -93.5t-214 -41.5q-157 0 -224 85t-67 252v592l-129 50v94l320 28l20 -20v-729q0 -106 36.5 -154.5t131.5 -48.5q147 0 266 119v661zM666 1366q0 52 31 83.5t81 31.5q51 0 82 -31.5 t31 -83.5q0 -50 -31 -80.5t-82 -30.5q-50 0 -81 31t-31 80zM268 1366q0 52 31.5 83.5t81.5 31.5q51 0 82 -31.5t31 -83.5q0 -50 -31 -80.5t-82 -30.5q-50 0 -81.5 31t-31.5 80z" />
<glyph unicode="&#xfd;" horiz-adv-x="1206" d="M535 -35l-398 985l-127 15v102h502v-96l-139 -31l231 -596q20 -60 37 -133h8q17 76 39 133l213 606l-133 15v102h420v-96l-121 -35l-350 -936q-109 -291 -195.5 -390t-242.5 -99q-46 0 -91.5 6.5t-67.5 12.5l-22 7l31 182q10 -5 29 -11.5t89 -18t152 -11.5 q10 12 26.5 35.5t53 98.5t56.5 153zM520 1231l273 317l133 -133l-314 -229z" />
<glyph unicode="&#xfe;" horiz-adv-x="1165" d="M41 1430v94l313 28l21 -20v-465q0 -46 -10 -111l6 -8q132 137 311 137q175 0 286 -142.5t111 -385.5q0 -271 -132.5 -423t-356.5 -152q-118 0 -209 41v-373l192 -8v-113h-532v96l129 35v1720zM856 510q0 218 -64 320t-188 102q-140 0 -223 -113v-635q69 -55 211 -55 q52 0 97 9.5t64 18.5l19 9q3 4 9 13t20.5 40.5t25.5 67.5t20 96.5t9 126.5z" />
<glyph unicode="&#xff;" horiz-adv-x="1206" d="M535 -35l-398 985l-127 15v102h502v-96l-139 -31l231 -596q20 -60 37 -133h8q17 76 39 133l213 606l-133 15v102h420v-96l-121 -35l-350 -936q-109 -291 -195.5 -390t-242.5 -99q-46 0 -91.5 6.5t-67.5 12.5l-22 7l31 182q10 -5 29 -11.5t89 -18t152 -11.5 q10 12 26.5 35.5t53 98.5t56.5 153zM301 1366q0 52 30.5 83.5t80.5 31.5q51 0 82.5 -31.5t31.5 -83.5q0 -50 -31.5 -80.5t-82.5 -30.5q-50 0 -80.5 30.5t-30.5 80.5zM698 1366q0 52 30.5 83.5t80.5 31.5q51 0 82 -31.5t31 -83.5q0 -50 -31 -80.5t-82 -30.5q-49 0 -80 30.5 t-31 80.5z" />
<glyph unicode="&#x152;" horiz-adv-x="1787" d="M1679 0h-827q-74 -18 -154 -18q-276 0 -443 196.5t-167 540.5q0 342 167 537.5t441 195.5q82 0 156 -18h801l26 -363h-141l-55 217h-416v-487h203l28 166h119v-480h-119l-28 166h-203v-508h440l56 224h143zM711 133q37 0 68 6.5t50 14.5t23 8v1079q-60 57 -164 57 q-62 0 -120.5 -14t-86.5 -28l-28 -13q-5 -5 -14 -16.5t-31 -56t-39 -99t-31 -150t-14 -206.5q0 -582 387 -582z" />
<glyph unicode="&#x153;" horiz-adv-x="1800" d="M1647 199l41 -113l-16.5 -11t-47 -25t-75.5 -32t-98.5 -25t-119.5 -11q-130 0 -231 55t-156 168h-8q-52 -110 -146.5 -166.5t-218.5 -56.5q-221 0 -354 148t-133 405q0 258 133 404t354 146q124 0 219 -55.5t146 -165.5h8q54 110 150.5 165.5t218.5 55.5 q202 0 312.5 -140t90.5 -398l-63 -43h-615q3 -189 91.5 -281t236.5 -92q67 0 137 17t107 34zM307 541q0 -412 273 -412q43 0 85.5 9.5t63.5 18.5l21 9q3 4 9 12.5t21 40.5t26 69.5t20.5 101.5t9.5 136q0 414 -273 414q-43 0 -86 -10t-65 -20l-21 -9q-3 -4 -9 -12.5 t-20.5 -40t-25.5 -69t-20 -102t-9 -136.5zM1126 901q-3 -4 -9 -12.5t-21 -36.5t-26 -59t-20.5 -80t-9.5 -101l490 27q3 151 -58.5 226t-173.5 75q-43 0 -86 -10t-64 -20z" />
<glyph unicode="&#x178;" horiz-adv-x="1366" d="M1190 1296l-389 -671v-502l149 -14v-109h-514v102l150 35v484l-416 690l-143 14v109h557v-103l-160 -31l262 -450q34 -58 45 -82h8q11 28 43 84l246 459l-145 14v109h458v-103zM389 1677q0 52 30.5 83.5t80.5 31.5q51 0 82.5 -31.5t31.5 -83.5q0 -49 -31.5 -79.5 t-82.5 -30.5q-50 0 -80.5 30.5t-30.5 79.5zM786 1677q0 52 30.5 83.5t80.5 31.5q51 0 82 -31.5t31 -83.5q0 -50 -31 -80t-82 -30q-50 0 -80.5 30.5t-30.5 79.5z" />
<glyph unicode="&#x2c6;" horiz-adv-x="786" d="M100 1231l281 303h27l280 -303l-92 -45l-203 168l-203 -168z" />
<glyph unicode="&#x2dc;" horiz-adv-x="970" d="M201 1260l-51 55q4 7 12.5 17.5t34.5 38.5t53 49.5t67.5 39t79.5 17.5q47 0 127.5 -39t130.5 -39l117 84l49 -58q-4 -6 -12 -17t-34 -38.5t-52.5 -48.5t-66.5 -38t-78 -17q-48 0 -129.5 38.5t-129.5 38.5z" />
<glyph unicode="&#x2000;" horiz-adv-x="940" />
<glyph unicode="&#x2001;" horiz-adv-x="1880" />
<glyph unicode="&#x2002;" horiz-adv-x="940" />
<glyph unicode="&#x2003;" horiz-adv-x="1880" />
<glyph unicode="&#x2004;" horiz-adv-x="626" />
<glyph unicode="&#x2005;" horiz-adv-x="470" />
<glyph unicode="&#x2006;" horiz-adv-x="313" />
<glyph unicode="&#x2007;" horiz-adv-x="313" />
<glyph unicode="&#x2008;" horiz-adv-x="235" />
<glyph unicode="&#x2009;" horiz-adv-x="376" />
<glyph unicode="&#x200a;" horiz-adv-x="104" />
<glyph unicode="&#x2010;" horiz-adv-x="706" d="M113 555v147h481v-147h-481z" />
<glyph unicode="&#x2011;" horiz-adv-x="706" d="M113 555v147h481v-147h-481z" />
<glyph unicode="&#x2012;" horiz-adv-x="706" d="M113 555v147h481v-147h-481z" />
<glyph unicode="&#x2013;" horiz-adv-x="1028" d="M113 567v135h802v-135h-802z" />
<glyph unicode="&#x2014;" horiz-adv-x="1540" d="M113 567v135h1314v-135h-1314z" />
<glyph unicode="&#x2018;" horiz-adv-x="452" d="M342 1501l37 -51q-6 -4 -15.5 -12t-33.5 -32.5t-42 -49.5t-32.5 -60.5t-13.5 -68.5q46 -4 73 -37.5t27 -81.5q0 -53 -33.5 -87t-87.5 -34t-88.5 38t-34.5 118q0 67 25 128.5t61 101.5t72 70.5t61 44.5z" />
<glyph unicode="&#x2019;" horiz-adv-x="452" d="M115 983l-37 51q6 4 15.5 12t34 32.5t43 49.5t33 60.5t13.5 68.5q-46 4 -73 36.5t-27 80.5q0 54 33 87.5t88 33.5q54 0 88 -37t34 -117q0 -68 -25 -129.5t-61 -101.5t-72.5 -70t-61.5 -44z" />
<glyph unicode="&#x201a;" horiz-adv-x="452" d="M104 -131l-36 51q6 4 15.5 12t34 32.5t43 49.5t33 60.5t13.5 68.5q-47 6 -74 38.5t-27 80.5q0 54 33 87.5t88 33.5q54 0 88.5 -37.5t34.5 -118.5q0 -67 -25.5 -128.5t-61.5 -101.5t-72 -70.5t-61 -44.5z" />
<glyph unicode="&#x201c;" horiz-adv-x="780" d="M342 1501l37 -51q-6 -4 -15.5 -12t-33.5 -32.5t-42 -49.5t-32.5 -60.5t-13.5 -68.5q46 -4 73 -37.5t27 -81.5q0 -53 -33.5 -87t-87.5 -34t-88.5 38t-34.5 118q0 67 25 128.5t61 101.5t72 70.5t61 44.5zM670 1501l37 -51q-6 -4 -15.5 -12t-33.5 -32.5t-42.5 -49.5 t-33 -60.5t-13.5 -68.5q46 -4 73.5 -37.5t27.5 -81.5q0 -53 -33.5 -87t-87.5 -34q-55 0 -89 38t-34 118q0 67 25 128.5t61 101.5t72 70.5t61 44.5z" />
<glyph unicode="&#x201d;" horiz-adv-x="780" d="M115 983l-37 51q6 4 15.5 12t34 32.5t43 49.5t33 60.5t13.5 68.5q-46 4 -73 36.5t-27 80.5q0 54 33 87.5t88 33.5q54 0 88 -37t34 -117q0 -68 -25 -129.5t-61 -101.5t-72.5 -70t-61.5 -44zM442 983l-36 51q6 4 15.5 12t34 32.5t43 49.5t33 60.5t13.5 68.5q-47 4 -74 36.5 t-27 80.5q0 54 33 87.5t88 33.5q54 0 88.5 -37t34.5 -117q0 -68 -25.5 -129.5t-61.5 -101.5t-72 -70t-61 -44z" />
<glyph unicode="&#x201e;" horiz-adv-x="780" d="M104 -131l-36 51q6 4 15.5 12t34 32.5t43 49.5t33 60.5t13.5 68.5q-47 6 -74 38.5t-27 80.5q0 54 33 87.5t88 33.5q54 0 88.5 -37.5t34.5 -118.5q0 -67 -25.5 -128.5t-61.5 -101.5t-72 -70.5t-61 -44.5zM432 -131l-37 51q6 4 15.5 12t34 32.5t43.5 49.5t33.5 60.5 t13.5 68.5q-47 6 -74 38.5t-27 80.5q0 54 33 87.5t88 33.5q54 0 88.5 -37.5t34.5 -118.5q0 -67 -25.5 -128.5t-61.5 -101.5t-72 -70.5t-61 -44.5z" />
<glyph unicode="&#x2022;" horiz-adv-x="686" d="M160 614q0 84 50.5 133.5t133.5 49.5q79 0 129.5 -50t50.5 -133t-50.5 -134.5t-129.5 -51.5q-82 0 -133 51.5t-51 134.5z" />
<glyph unicode="&#x2026;" horiz-adv-x="1392" d="M98 121q0 61 37.5 99t97.5 38q59 0 97.5 -38t38.5 -99q0 -60 -38.5 -97.5t-97.5 -37.5q-60 0 -97.5 37.5t-37.5 97.5zM561 121q0 61 37.5 99t97.5 38q59 0 97 -38t38 -99q0 -60 -38 -97.5t-97 -37.5q-60 0 -97.5 37.5t-37.5 97.5zM1024 121q0 61 37.5 99t97.5 38 q59 0 97 -38t38 -99q0 -60 -38 -97.5t-97 -37.5q-60 0 -97.5 37.5t-37.5 97.5z" />
<glyph unicode="&#x202f;" horiz-adv-x="376" />
<glyph unicode="&#x2039;" horiz-adv-x="638" d="M463 262l-371 338v29l371 338l55 -68l-246 -285l246 -284z" />
<glyph unicode="&#x203a;" horiz-adv-x="638" d="M176 967l373 -338v-29l-373 -338l-55 68l246 284l-246 285z" />
<glyph unicode="&#x205f;" horiz-adv-x="470" />
<glyph unicode="&#x20ac;" horiz-adv-x="1333" d="M88 813v135h152q51 242 208 373t398 131q98 0 191 -22t137 -44l43 -22l26 -344h-143l-58 231q-9 5 -26.5 13t-75.5 21t-121 13q-68 0 -128.5 -14t-86.5 -28l-26 -15q-8 -9 -21.5 -29t-42.5 -95.5t-45 -168.5h440v-135h-454q-2 -31 -2 -94q0 -67 2 -98h454v-136h-438 q67 -352 358 -352q53 0 107.5 11t82.5 22l28 12l57 240h141l-26 -350q-7 -3 -19 -9t-52 -21t-82 -26t-104 -20.5t-122 -9.5q-235 0 -391.5 131t-208.5 372h-152v136h133q-4 62 -4 98q0 32 4 94h-133z" />
<glyph unicode="&#x2122;" horiz-adv-x="1978" d="M498 692l90 -8v-70h-324v64l90 24v635h-164l-36 -139h-95l19 236h700l17 -236h-95l-34 139h-168v-645zM1038 692l97 -8v-70h-299v64l94 24l59 654l-94 6v72h272l199 -512q17 -54 20 -74h7q6 41 20 80l197 506h260v-66l-92 -22l59 -654l90 -8v-70h-325v64l92 24l-45 506 q-4 28 -4 49h-5q-4 -31 -12 -49l-190 -501h-127l-15 14l-196 487q-10 35 -10 52h-5q0 -36 -2 -52z" />
<glyph unicode="&#x25fc;" horiz-adv-x="1064" d="M0 1065h1065v-1065h-1065v1065z" />
</font>
</defs>
</svg>
