<?xml version="1.0" standalone="no"?>
<!DOCTYPE svg PUBLIC "-//W3C//DTD SVG 1.1//EN" "http://www.w3.org/Graphics/SVG/1.1/DTD/svg11.dtd" >
<svg xmlns="http://www.w3.org/2000/svg" xmlns:xlink="http://www.w3.org/1999/xlink" version="1.1">
<metadata></metadata>
<defs>
<font id="didonesquedisplay_italic" horiz-adv-x="1142" >
<font-face units-per-em="2048" ascent="1638" descent="-410" />
<missing-glyph horiz-adv-x="487" />
<glyph unicode="&#xfb01;" horiz-adv-x="1132" d="M862 0q52 0 100.5 84t75.5 211h17q-37 -169 -92.5 -244.5t-131.5 -75.5q-110 0 -148 77t-5 212l158 744h-344l-207 -975q-20 -92 -52.5 -176.5t-77.5 -158t-105 -117.5t-126 -44q-80 0 -112.5 58.5t-14.5 150.5q11 57 36 79.5t54 22.5q35 0 54 -23.5t10 -66.5 q-6 -28 -25.5 -45t-40 -22.5t-38.5 -17.5t-21 -31q-6 -33 20.5 -60.5t63.5 -27.5t64 31t39.5 69t23.5 92l266 1262h-141l4 16h141l33 158q14 65 39.5 125t62.5 111.5t89 82.5t110 31q69 0 107.5 -47.5t23.5 -116.5q-9 -45 -37 -73.5t-67 -28.5q-42 0 -61.5 32t-12.5 64 q6 26 25.5 43.5t39.5 24.5t37 19.5t19 29.5q2 15 -18 28t-60 13q-57 0 -102.5 -46.5t-55.5 -99.5q-11 -56 -5.5 -99.5t17.5 -65.5t18.5 -59t-3.5 -81l-10 -45h344q77 0 117.5 6.5t76.5 28.5l-207 -979q-8 -28 0 -54t35 -26zM1028 1513q47 0 72.5 -33.5t15.5 -86.5 q-11 -54 -45 -87.5t-80 -33.5t-71 34t-15 87q11 54 44 87t79 33z" />
<glyph unicode="&#xfb02;" horiz-adv-x="1132" d="M862 0q52 0 100.5 84t75.5 211h17q-37 -170 -92 -245t-134 -75q-110 0 -147 76.5t-4 212.5l231 1094h-139q-11 -41 -38.5 -66.5t-63.5 -25.5q-42 0 -61.5 32t-12.5 64q6 26 25.5 43.5t39.5 24.5t37 19.5t19 29.5q2 15 -18 28t-60 13q-57 0 -102.5 -46.5t-55.5 -99.5 q-11 -56 -5.5 -99.5t17.5 -65.5t18.5 -59t-3.5 -81l-10 -45h141l-4 -16h-141l-207 -975q-20 -92 -52.5 -176.5t-77.5 -158t-105 -117.5t-126 -44q-80 0 -112.5 58.5t-14.5 150.5q11 57 36 79.5t54 22.5q35 0 54 -23.5t10 -66.5q-6 -28 -25.5 -45t-40 -22.5t-38.5 -17.5 t-21 -31q-6 -33 20.5 -60.5t63.5 -27.5t64 31t39.5 69t23.5 92l266 1262h-141l4 16h141l33 158q14 65 39.5 125t62.5 111.5t89 82.5t110 31q68 0 106.5 -45.5t26.5 -112.5h139q56 0 119 50t105 110l-310 -1454q-8 -28 0 -54t35 -26z" />
<glyph horiz-adv-x="0" />
<glyph horiz-adv-x="682" />
<glyph unicode=" "  horiz-adv-x="487" />
<glyph unicode="&#x09;" horiz-adv-x="487" />
<glyph unicode="&#xa0;" horiz-adv-x="487" />
<glyph unicode="!" horiz-adv-x="456" d="M446 1540q-55 0 -90.5 -62t-64.5 -198q-25 -119 -35.5 -203.5t-11 -143t-2 -122.5t-16 -181.5t-46.5 -281.5h25q44 200 86.5 339t70.5 200.5t64 171t68 258.5q18 83 20 130t-14 70t-54 23zM170 250q55 0 77.5 -41.5t10.5 -93.5q-14 -63 -55 -97t-86 -34q-55 0 -76.5 41.5 t-9.5 93.5q14 63 54.5 97t84.5 34z" />
<glyph unicode="&#x22;" horiz-adv-x="608" d="M383 1534q-62 0 -88 -119q-22 -101 -24.5 -173t-2.5 -136t-14 -137h10q20 84 77.5 214t82.5 269q14 82 -41 82zM664 1534q-30 0 -53.5 -31.5t-35.5 -87.5q-22 -101 -24.5 -173t-2 -136t-13.5 -137h10q20 84 77.5 214t82.5 269q14 82 -41 82z" />
<glyph unicode="#" horiz-adv-x="1107" d="M1036 952h-182l-98 -473h180l-4 -20h-180l-97 -459h-24l96 459h-365l-96 -459h-24l96 459h-184l4 20h184l98 473h-182l4 21h182l97 461h24l-96 -461h365l96 461h24l-96 -461h182zM731 479l98 473h-364l-98 -473h364z" />
<glyph unicode="$" horiz-adv-x="952" d="M727 1464q146 -10 203.5 -88t32.5 -188q-15 -64 -51 -98.5t-83 -34.5q-60 0 -89 51.5t-13 116.5q8 33 29.5 61.5t37 41t42.5 30.5q48 32 -2 62q-39 24 -111 30l-121 -574q27 -14 47 -26t49.5 -32.5t51 -42t45 -50t38 -62.5t24.5 -74t8.5 -89t-13.5 -103 q-36 -163 -152 -278t-288 -142l-21 -94h-22l18 90q-46 -4 -74 -4h-22l-19 -86h-22l18 88q-63 5 -112.5 23t-78.5 45t-47 61t-19 71t7 75q14 64 54 99.5t88 35.5q61 0 85 -52.5t9 -113.5q-19 -84 -119 -141q-45 -28 11 -55q47 -23 126 -31l144 676q-133 80 -182.5 176.5 t-18.5 240.5q32 146 127.5 248.5t243.5 130.5l20 94h23l-21 -92q41 6 80 6h17l18 86h22zM582 887l118 563h-12q-39 0 -84 -10l-106 -504q46 -29 84 -49zM383 1196q-21 -85 2 -141t92 -105l105 484q-79 -28 -129 -91.5t-70 -146.5zM324 -16q37 0 67 6l131 612l-80 45 q-1 1 -3 2t-3 2l-141 -667h29zM680 299q21 108 -12 170t-127 121l-125 -596q113 26 177 109t87 196z" />
<glyph unicode="%" horiz-adv-x="1251" d="M1024 1466q-4 -10 -16 -30l-676 -1469h-23l649 1409q-48 -41 -113 -53.5t-126.5 0t-114.5 43.5q50 -97 4 -307q-22 -105 -58 -179.5t-77.5 -111.5t-80.5 -52.5t-81 -15.5q-32 0 -59.5 11t-51.5 39.5t-36.5 71.5t-11.5 113.5t20 160.5q18 85 45 150t56.5 102.5t65.5 61.5 t66.5 32t63.5 8q69 0 111 -45q33 -28 89.5 -46t119 -20t121 30t87.5 97h27zM477 1096q22 104 31 158.5t11 102t-11 64.5t-41 17q-55 0 -85 -78.5t-77 -300.5q-22 -106 -31.5 -159.5t-12 -102.5t10.5 -66.5t41 -17.5q54 0 86 82t78 301zM1028 733q41 0 73.5 -17.5t59 -61.5 t27.5 -119.5t-21 -192.5q-18 -85 -45.5 -150t-57 -103.5t-65 -63t-66 -33t-63.5 -8.5q-32 0 -59.5 11t-51.5 39t-36.5 71t-11.5 113.5t20 160.5q18 85 45 150t56.5 102.5t65.5 61.5t66.5 32t63.5 8zM1036 379q22 104 31 158.5t11 102t-11 64.5t-41 17q-55 0 -85 -78.5 t-77 -300.5q-22 -106 -31.5 -159.5t-12 -102.5t10.5 -66.5t41 -17.5q54 0 86 82t78 301z" />
<glyph unicode="&#x26;" horiz-adv-x="1290" d="M1139 893q20 7 10.5 16t-45.5 9q-99 0 -201 -138.5t-160 -369.5q87 -246 215 -246q76 0 125.5 80.5t85.5 236.5h13q-42 -225 -127.5 -361t-206.5 -136q-129 0 -219 170q-44 -89 -119 -138t-166 -49q-154 0 -242 114t-51 288q8 37 22.5 72t29.5 62.5t40.5 56.5t43.5 49 t51 45.5t51.5 39t56 36.5t53 32t54.5 31q-16 95 -15.5 171.5t19.5 157.5q34 149 125.5 246.5t222.5 97.5q48 0 91.5 -14.5t77.5 -43.5t48 -78.5t0 -112.5q-8 -36 -22.5 -67t-43 -62.5t-52 -54t-75 -57.5t-84.5 -56t-106 -66q6 -44 29 -154q36 -166 63 -256q64 238 170 364 t209 126q70 0 103 -55.5t14 -137.5q-13 -60 -47.5 -97.5t-87.5 -37.5q-44 0 -70.5 27t-29.5 62.5t3 70.5q24 87 138 125q4 1 6 2zM623 1237q-20 -159 12 -358q41 29 61.5 45t57 51t58 67t43.5 83t34 110q23 111 -5 163t-89 52q-64 0 -112 -56t-60 -157zM371 -12 q70 0 139.5 51.5t107.5 134.5q-67 138 -129 424q-17 78 -32 168q-72 -46 -124 -143t-79 -228q-18 -107 -15.5 -197.5t37.5 -150t95 -59.5z" />
<glyph unicode="'" horiz-adv-x="327" d="M383 1534q-62 0 -88 -119q-22 -101 -24.5 -173t-2.5 -136t-14 -137h10q20 84 77.5 214t82.5 269q14 82 -41 82z" />
<glyph unicode="(" horiz-adv-x="591" d="M735 1788q-213 -219 -359 -507.5t-206 -565.5q-38 -177 -42 -361.5t34 -373t119 -336.5l4 26q-20 211 1 512t72 533q53 242 158.5 542.5t214.5 503.5z" />
<glyph unicode=")" horiz-adv-x="593" d="M-55 -356q213 219 359 507.5t206 565.5q38 177 42 361.5t-34 373t-119 336.5l-4 -27q20 -210 -1 -511t-72 -533q-53 -242 -158.5 -543t-214.5 -504z" />
<glyph unicode="*" horiz-adv-x="743" d="M768 1192q29 -8 41.5 -35t3.5 -67q-9 -38 -31 -55.5t-51 -10.5q-21 5 -37.5 17t-30 27.5t-29.5 31.5t-43.5 33t-64.5 28q21 -47 46 -80t43 -46.5t36.5 -34t28.5 -46.5q25 -68 -41 -108q-31 -18 -55.5 -8.5t-36.5 41.5q-17 50 -12 75.5t3.5 82t-22.5 120.5 q-23 -65 -27 -117.5t-4.5 -90t-15.5 -70.5q-14 -31 -39.5 -40.5t-54.5 7.5q-30 17 -39 46.5t6 61.5q11 26 30.5 46t39 33.5t46.5 46.5t50 81q-45 -15 -79 -37.5t-49.5 -40.5t-37 -35t-47.5 -24q-30 -8 -52 10t-26 56q-6 40 8 67t43 35q24 7 49 1.5t46.5 -14.5t58 -12.5 t84.5 7.5q-47 41 -90 55.5t-74.5 21t-54.5 29.5q-22 22 -22.5 53t22.5 64q20 31 46.5 35.5t51.5 -17.5q23 -22 33.5 -57.5t30 -81t63.5 -90.5q-1 53 -10 95.5t-20 64.5t-20 49.5t-9 54.5q0 37 20 59.5t55 22.5q34 0 53 -20.5t19 -55.5q0 -30 -10.5 -57.5t-24 -48.5 t-26.5 -64.5t-17 -99.5q37 37 59.5 73.5t30 60t20.5 50t34 45.5q25 23 51.5 18t46.5 -36q20 -32 17.5 -63.5t-27.5 -53.5q-24 -22 -56.5 -28t-75.5 -20.5t-92 -57.5q71 -12 104.5 -3t68.5 19t65 2z" />
<glyph unicode="+" horiz-adv-x="522" d="M526 727l-4 -20h-209l-51 -242h-22l51 242h-209l4 20h209l51 242h23l-52 -242h209z" />
<glyph unicode="," horiz-adv-x="382" d="M205 59q-39 -194 -236 -249l-4 18q177 51 209 209h-8q-27 -53 -90 -53q-49 0 -70.5 33.5t-9.5 88.5q12 58 51.5 94t85.5 36q38 0 58 -26t21 -65t-7 -86z" />
<glyph unicode="-" horiz-adv-x="423" d="M76 543h284l-4 -21h-284z" />
<glyph unicode="." horiz-adv-x="380" d="M82 -16q-49 0 -79.5 37t-18.5 90q12 55 52.5 91t90.5 36q48 0 78 -37t20 -90q-11 -54 -51.5 -90.5t-91.5 -36.5z" />
<glyph unicode="/" horiz-adv-x="509" d="M676 1542l20 -10l-766 -1600l-20 11z" />
<glyph unicode="0" horiz-adv-x="970" d="M371 -33q-91 0 -155.5 42t-102 130.5t-36 239.5t45.5 356q157 731 563 731q73 0 129 -25.5t95.5 -83.5t56.5 -146t9.5 -218t-42.5 -295q-154 -731 -563 -731zM373 -20q48 0 89 33t74 90.5t65.5 156t60 208t61.5 267.5q27 126 43.5 218.5t27 177.5t8.5 141.5t-14 99.5 t-38 62.5t-66 19.5t-74 -21.5t-64.5 -67t-57 -105.5t-53 -149.5t-50 -186t-51.5 -226.5q-26 -125 -43 -218t-27 -177.5t-8 -141.5t14 -99.5t37.5 -62t65.5 -19.5z" />
<glyph unicode="1" horiz-adv-x="671" d="M326 16h141l-2 -16h-475l4 16h141l238 1114q16 74 3 103t-65 29h-51l2 10q204 49 356 194h17z" />
<glyph unicode="2" horiz-adv-x="905" d="M797 412h12q-47 -225 -128.5 -335t-229.5 -110q-59 0 -115.5 18.5t-92 40t-77 40t-74.5 18.5q-39 0 -60.5 -22t-35.5 -62h-16q2 90 23 167t58 135.5t79 102.5t96 84q126 93 159 121q228 194 289 446q10 41 16 83q25 179 6 244t-100 65q-127 0 -219 -74t-115 -194 q-4 -18 2 -18q4 0 36 27q54 44 96 44q47 0 65 -50.5t4 -115.5q-29 -127 -133 -127q-66 0 -93.5 58t-6.5 159q32 152 137.5 230.5t241.5 78.5q161 0 241 -110t33 -316q-18 -79 -49.5 -144.5t-73.5 -113.5t-86 -84.5t-99 -66.5t-99.5 -50.5t-101.5 -45.5t-91 -43 q-57 -30 -102 -66t-87.5 -88.5t-70.5 -126.5t-39 -166h4q32 95 94 145t144 50q58 0 170.5 -35t162.5 -35q79 0 138.5 59t87.5 183z" />
<glyph unicode="3" horiz-adv-x="919" d="M295 -16q217 0 305 411q83 385 -192 385l4 21q133 0 205 79.5t110 254.5q36 170 8 242.5t-127 72.5t-184.5 -60.5t-110.5 -168.5q-4 -16 3 -15q4 1 42 29q54 39 93 39q45 0 69.5 -47t11.5 -113q-13 -62 -52 -97.5t-91 -35.5q-70 0 -95 63.5t-5 153.5q29 131 123 199.5 t231 68.5q158 0 230.5 -87.5t37.5 -250.5q-30 -140 -118.5 -222.5t-190.5 -104.5l-2 -4q96 -15 153.5 -76.5t69.5 -149.5t-8 -196q-40 -193 -184 -300.5t-330 -107.5q-86 0 -147 29t-89 78t-36.5 114.5t8.5 137.5q19 92 67 146t113 54q56 0 85 -50t11 -132q-13 -61 -53 -101 t-96 -40q-55 0 -95 45q-11 13 -14 9q-2 -4 -4 -15q-9 -66 12.5 -123.5t81.5 -96t150 -38.5z" />
<glyph unicode="4" horiz-adv-x="888" d="M791 408h-156l-84 -392h141l-4 -16h-471l4 16h141l84 392h-423l4 18l624 1008h201l-213 -1006h53q59 0 89 33t69 147h12zM51 428h400l206 977z" />
<glyph unicode="5" horiz-adv-x="907" d="M524 905q80 0 143 -26.5t107 -81.5t56 -139.5t-11 -200.5q-20 -97 -65.5 -184t-111.5 -156t-157 -109.5t-194 -40.5q-107 0 -173.5 48.5t-85.5 125t1 172.5q20 92 66 151.5t112 59.5q64 0 92 -53t14 -123q-13 -62 -53.5 -104.5t-99.5 -42.5q-23 0 -43 9.5t-30.5 20 t-19 18.5t-13 6t-7.5 -19q-12 -56 6.5 -112.5t77 -98t146.5 -41.5q63 0 113.5 34.5t89.5 104t68 157t56 209.5q14 63 21.5 108.5t11.5 94t-2.5 81.5t-21 60.5t-43.5 40.5t-72 13q-67 0 -147 -34t-156 -112l-21 13l225 680h506l15 49h14l-47 -166q-12 -39 -45 -51.5 t-94 -12.5l-385 -2l-160 -473l4 -2q141 129 313 129z" />
<glyph unicode="6" horiz-adv-x="935" d="M602 905q90 0 155 -49.5t94 -149.5t-3 -251q-22 -104 -64 -189t-92.5 -139.5t-110.5 -91.5t-116 -52.5t-111 -15.5q-61 0 -111.5 22.5t-90.5 75t-60.5 131t-17.5 198t35 268.5q49 233 135 412.5t209 285.5t264 106q55 0 94.5 -17t59 -42.5t28.5 -60t8 -65.5t-8 -62 q-14 -71 -51.5 -106.5t-85.5 -35.5q-56 0 -87 42.5t-18 109.5q13 65 58 106t88 41q16 0 37 -4q8 -2 11 -2t4.5 2t-1 7t-8.5 16q-30 55 -107 55q-57 0 -111.5 -46t-96 -117t-79.5 -169t-64 -190.5t-48 -192.5h6q59 87 117 128.5t139 41.5zM360 -16q95 0 158 103.5t119 367.5 q27 129 36.5 215t1 133.5t-28.5 66.5t-56 19q-44 0 -85.5 -21t-84.5 -68t-81 -136t-65 -213q-28 -131 -30.5 -235t27 -168t89.5 -64z" />
<glyph unicode="7" horiz-adv-x="802" d="M952 1434q-20 -94 -44 -163.5t-59 -128.5t-66 -100.5t-87.5 -114t-99.5 -134.5q-112 -160 -170.5 -334.5t-93.5 -458.5h-215q23 172 62.5 308t99 245.5t128 194.5t164.5 176q26 25 82 77t72 67.5t51.5 51.5t47 52t31.5 45t30.5 54.5t21.5 57.5h-8q-25 -59 -89.5 -83.5 t-135.5 -24.5q-38 0 -147 25.5t-154 25.5q-67 0 -106.5 -38t-73.5 -132h-13l94 332h15l-19 -60q68 92 215 92q56 0 113 -16.5t94.5 -36.5t81 -36.5t76.5 -16.5q29 0 53 18.5t35 55.5h14z" />
<glyph unicode="8" horiz-adv-x="915" d="M649 850q239 -140 168 -447q-21 -92 -60.5 -167t-87.5 -124t-105.5 -82.5t-113.5 -48t-112 -14.5q-69 0 -129.5 22t-107.5 68t-63.5 116.5t3.5 168.5q26 119 103 208t229 195q-87 50 -119 142t-4 215q20 93 65 165t101.5 114t117 63.5t119.5 21.5q129 0 203.5 -89 t44.5 -222q-9 -43 -31 -83.5t-41.5 -66.5t-57 -59.5t-52.5 -45t-55 -39.5q-10 -8 -15 -11zM647 1450q-84 0 -140.5 -69t-76.5 -173q-22 -110 22 -189.5t183 -160.5q79 82 125 291q32 154 2 227.5t-115 73.5zM342 -16q104 0 186.5 80.5t112.5 228.5q30 146 -28.5 248 t-221.5 194q-120 -87 -186 -393q-78 -358 137 -358z" />
<glyph unicode="9" horiz-adv-x="933" d="M451 528q-166 0 -242.5 126.5t-34.5 324.5q23 104 65 189t92.5 139.5t110 91t115.5 52t111 15.5q65 0 116.5 -22.5t91 -74.5t59 -131t15 -198t-36.5 -268q-82 -386 -245.5 -595.5t-384.5 -209.5q-59 0 -101.5 17t-64.5 44t-32.5 62.5t-9.5 68.5t9 66q16 67 54 99t87 32 q60 0 86.5 -44t14.5 -109q-9 -53 -41 -91t-82 -53q-20 -6 -31 -11t-14 -9t-2 -8q1 -8 14 -18.5t42.5 -19.5t68.5 -9q251 0 405 710h-6q-46 -93 -94 -129.5t-135 -36.5zM662 1450q-64 0 -111.5 -38.5t-92 -141.5t-81.5 -279q-34 -154 -29.5 -252t37 -144t90.5 -46 q94 0 157.5 99.5t115.5 334.5q22 97 28.5 181t-2.5 148.5t-37.5 101t-74.5 36.5z" />
<glyph unicode=":" horiz-adv-x="487" d="M270 621q-49 0 -79.5 37t-18.5 90q12 54 52 90t91 36q49 0 79 -36.5t20 -89.5q-11 -54 -52 -90.5t-92 -36.5zM135 -16q-49 0 -79.5 37t-18.5 90q12 55 52.5 91t90.5 36q48 0 78.5 -37t20.5 -90q-11 -54 -52 -90.5t-92 -36.5z" />
<glyph unicode=";" horiz-adv-x="489" d="M274 621q-49 0 -79.5 37t-18.5 90q12 54 52 90t91 36q49 0 79 -36.5t20 -89.5q-11 -54 -52 -90.5t-92 -36.5zM258 59q-39 -195 -235 -249l-5 18q177 51 209 209h-8q-27 -53 -90 -53q-49 0 -70.5 33.5t-9.5 88.5q12 58 51.5 94t85.5 36q38 0 58 -26t21 -65t-7 -86z" />
<glyph unicode="&#x3c;" horiz-adv-x="436" d="M389 483l-305 226l2 12l401 227l-4 -24l-374 -209l284 -211z" />
<glyph unicode="=" horiz-adv-x="491" d="M109 825h407l-4 -20h-410zM66 629h407l-4 -21h-408z" />
<glyph unicode="&#x3e;" horiz-adv-x="436" d="M135 948l305 -225l-2 -12l-401 -228l4 25l375 209l-285 211z" />
<glyph unicode="?" horiz-adv-x="782" d="M322 367h-17q-12 142 92 299q17 26 56.5 82t65.5 97t59 98.5t56.5 119.5t37.5 127q69 323 -131 323q-98 0 -182 -70.5t-97 -166.5q-1 -6 1 -6q2 -1 13 12q56 64 107 64q54 0 82.5 -50t13.5 -127q-15 -71 -57 -110t-96 -39q-67 0 -95 59.5t-8 153.5q12 59 38.5 110 t69.5 96t110 71t151 26q165 0 230.5 -103.5t27.5 -277.5q-18 -84 -56.5 -156t-89 -126t-100 -98t-104.5 -95t-88 -94q-19 -24 -33.5 -50t-23 -45.5t-15.5 -42t-9.5 -34.5t-5 -28.5t-3.5 -18.5zM299 250q55 0 77.5 -41.5t10.5 -93.5q-14 -63 -55.5 -97t-87.5 -34 q-53 0 -75.5 41.5t-10.5 93.5q14 63 55 97t86 34z" />
<glyph unicode="@" horiz-adv-x="1748" d="M1065 1466q135 0 244.5 -41.5t181.5 -112.5t121 -164.5t69 -200t18.5 -215.5t-24.5 -214q-19 -86 -45.5 -163t-66 -149t-87 -124t-111.5 -83.5t-136 -31.5q-93 0 -147.5 51t-57.5 160h-6q-17 -32 -30.5 -54.5t-40.5 -54.5t-55 -52t-71.5 -35t-93.5 -15 q-115 0 -196.5 66.5t-115.5 197t7 324.5q28 129 82 228t124 157.5t147 87.5t159 29q51 0 91.5 -14t65 -37.5t38.5 -46.5t22 -48h4l25 113h30q62 0 97.5 6t70.5 27l-188 -883q-21 -86 -5.5 -134t66.5 -48q124 0 234.5 138t165.5 388q22 102 24 207t-16 210t-64.5 196.5 t-116 162t-177 111.5t-240.5 41q-121 0 -239.5 -35.5t-231 -109.5t-206.5 -180t-167.5 -256t-112.5 -328q-18 -83 -24 -171.5t2.5 -181t31.5 -178.5t67 -162t105 -132.5t150 -89t197 -32.5q129 0 234.5 43.5t170.5 116.5l15 -14q-53 -67 -165 -116.5t-255 -49.5 q-110 0 -201.5 32t-155 87.5t-110.5 132t-72 164.5t-34.5 185t-2.5 193.5t27 190.5q38 176 112.5 325.5t171 256t212 181.5t238 111.5t247.5 36.5zM752 0q91 0 168 85t104 202l104 501q2 21 2 50t-13.5 61.5t-33 60.5t-55.5 46t-82 18q-119 0 -191.5 -112.5t-129.5 -383.5 q-54 -267 -20 -397.5t147 -130.5z" />
<glyph unicode="A" d="M881 16h127l-4 -16h-467l4 16h127l-25 486h-364l-234 -486h162l-4 -16h-281l4 16h94l699 1450h69zM289 522h354l-33 670z" />
<glyph unicode="B" horiz-adv-x="1040" d="M1044 1100q-16 -72 -48.5 -130.5t-69.5 -93.5t-78.5 -59t-74 -33.5t-56.5 -9.5l-2 -4q18 0 36 -2.5t44 -8.5t48.5 -19.5t46 -33t39 -50.5t26 -71t9 -96.5t-15.5 -123.5q-17 -80 -55 -146t-99.5 -118t-154 -80.5t-207.5 -28.5q-35 0 -110.5 4t-118.5 4h-277l4 16h150 l297 1401h-150l4 17h275q44 0 122.5 4t106.5 4q192 0 267.5 -93.5t41.5 -248.5zM580 778q103 0 172 77t104 253q34 167 -3.5 241t-154.5 74q-12 0 -32.5 -1t-49 -2.5t-43.5 -2.5l-135 -639h142zM741 403q41 203 2 279t-184 76h-125l-158 -742q12 -1 56 -3.5t61 -2.5 q151 0 227.5 90.5t120.5 302.5z" />
<glyph unicode="C" horiz-adv-x="1077" d="M504 -33q-148 0 -252.5 95t-141 264t10.5 401q36 165 108.5 305t166 234.5t203 147t220.5 52.5q57 0 103.5 -16.5t70 -36.5t46 -36.5t36.5 -16.5q24 0 40.5 17.5t31.5 56.5h16l-88 -410h-12q27 199 -35.5 310.5t-208.5 111.5q-155 0 -277 -179t-202 -552 q-56 -254 -48 -415.5t65 -236.5t163 -75q158 0 288.5 139t182.5 385h21q-55 -251 -189 -398t-319 -147z" />
<glyph unicode="D" horiz-adv-x="1218" d="M741 1442q288 0 404 -187t39 -555q-26 -126 -68.5 -231.5t-106.5 -194.5t-146 -151t-191 -96.5t-238 -34.5q-36 0 -112 4t-121 4h-275l4 16h150l297 1401h-150l4 17h275q45 0 123 4t112 4zM403 10q87 0 151.5 16.5t127 61.5t110.5 124t92 203.5t81 299.5q28 131 40 234 t10.5 177t-18.5 127t-42 86t-65 52t-82.5 25.5t-100.5 6.5q-17 0 -39.5 -1t-51 -2.5t-43.5 -2.5l-297 -1401q15 -1 41 -2.5t47 -2.5t39 -1z" />
<glyph unicode="E" horiz-adv-x="1019" d="M231 1434h893l-77 -357h-13q11 57 11.5 104t-12 92t-41 76t-80 49.5t-124.5 18.5h-215l-139 -669h174q28 0 52 11.5t44.5 36.5t35.5 49t31 66.5t25.5 69.5t24.5 76h13l-138 -639h-12q5 41 8.5 68t6 60t1.5 53.5t-4 43.5t-10 36.5t-18 25.5t-27.5 17t-38.5 5h-172 l-149 -711h256q313 0 421 482h13l-109 -498h-932l4 16h150l293 1401h-150z" />
<glyph unicode="F" horiz-adv-x="972" d="M231 1434h873l-84 -387h-12q12 65 14.5 117t-9 100.5t-39.5 81t-79 52t-125 19.5h-197l-151 -712h168q40 0 74 25.5t60.5 74.5t44.5 95.5t38 113.5h12l-137 -639h-12q4 45 6 68t4 59t1 54t-4 43t-10.5 37.5t-18 25t-27 17.5t-37.5 5h-166l-142 -668h199l-4 -16h-545l4 16 h150l297 1401h-150z" />
<glyph unicode="G" horiz-adv-x="1198" d="M1186 600l-4 -20h-88l-117 -551h-16q-1 29 -4.5 45t-17 28.5t-38.5 12.5q-17 0 -56.5 -23t-83 -51t-109 -51t-128.5 -23q-153 0 -262 95t-148 264t7 401q34 162 108.5 301.5t171 234.5t211 149t228.5 54q55 0 101.5 -16.5t71.5 -36.5t50 -36.5t43 -16.5q35 0 65 74h17 l-88 -410h-13q12 84 1.5 160.5t-37.5 134.5t-78.5 92.5t-120.5 34.5q-167 0 -301 -181t-213 -550q-56 -254 -43.5 -415.5t73.5 -236.5t167 -75q149 0 246 140t155 452h-186l4 20h432z" />
<glyph unicode="H" horiz-adv-x="1275" d="M958 1434h480l-4 -17h-150l-297 -1401h150l-4 -16h-480l4 16h134l149 705h-514l-150 -705h134l-4 -16h-480l4 16h150l297 1401h-150l4 17h480l-4 -17h-134l-143 -672h514l143 672h-133z" />
<glyph unicode="I" horiz-adv-x="565" d="M231 1434h496l-4 -17h-150l-297 -1401h150l-4 -16h-496l4 16h150l297 1401h-150z" />
<glyph unicode="J" horiz-adv-x="784" d="M440 1417l4 17h496l-4 -17h-150l-176 -825q-24 -111 -50 -198t-64 -170t-83 -137t-107 -87t-136 -33q-111 0 -165 67.5t-25 182.5q32 127 124 127q51 0 71.5 -39t8.5 -88q-8 -34 -28.5 -57t-41 -33t-39.5 -27t-26 -41q-9 -31 24 -53t91 -22q68 0 107 62.5t73 219.5 l246 1151h-150z" />
<glyph unicode="K" horiz-adv-x="1208" d="M1317 1417h-160l-489 -510l329 -891h86l-4 -16h-399l4 16h111l-273 742l-112 -117l-134 -625h152l-4 -16h-498l4 16h150l299 1401h-150l4 17h496l-4 -17h-150l-157 -735l708 735h-143l4 17h334z" />
<glyph unicode="L" horiz-adv-x="1044" d="M956 512h13l-113 -512h-930l4 16h150l297 1401h-150l4 17h496l-4 -17h-150l-297 -1401h259q88 0 160 40.5t121.5 113t83 156t56.5 186.5z" />
<glyph unicode="M" horiz-adv-x="1441" d="M1599 1417h-149l-297 -1401h150l-5 -16h-495l4 16h149l281 1323h-6l-690 -1339h-29l-123 1339h-6l-281 -1323h150l-4 -16h-322l4 16h150l297 1401h-150l4 17h369l84 -1104l569 1104h351z" />
<glyph unicode="N" horiz-adv-x="1193" d="M1038 1434h322l-4 -17h-150l-303 -1433h-16l-518 1259h-7l-258 -1227h150l-4 -16h-322l4 16h150l295 1401h-150l6 17h295l428 -1053h9l219 1036h-150z" />
<glyph unicode="O" horiz-adv-x="1273" d="M1237 698q-36 -164 -111 -303t-171.5 -231.5t-208 -144.5t-222.5 -52q-150 0 -259 96t-149 266.5t7 405.5q35 164 110.5 303t172.5 231.5t209 144.5t223 52q150 0 259 -96t148.5 -266.5t-8.5 -405.5zM524 -16q340 0 502 751q152 715 -188 715q-166 0 -294 -187t-210 -567 q-151 -712 190 -712z" />
<glyph unicode="P" horiz-adv-x="985" d="M793 1442q76 0 133 -23t97.5 -75t47.5 -136.5t-16 -206.5q-39 -184 -172 -297.5t-305 -119.5q-21 -1 -183 4l-119 -572h152l-4 -16h-498l4 16h150l297 1401h-150l4 17h275q43 0 153.5 4t133.5 4zM553 608q217 8 303 410q23 106 28.5 182.5t-1 119t-26.5 67t-42 31.5 t-53 7q-17 0 -189 -8l-172 -809q21 0 54 -0.5t56.5 -0.5t41.5 1z" />
<glyph unicode="Q" horiz-adv-x="1273" d="M1237 698q-45 -206 -150 -369t-238.5 -254t-275.5 -106q30 -9 89 -41q157 -92 235 -94q39 0 60.5 30.5t31.5 102.5h12q-18 -139 -91.5 -210.5t-176.5 -71.5q-120 0 -241 147q-41 49 -73.5 72.5t-72.5 23.5q-49 0 -99 -38.5t-87 -112.5l-13 8q99 179 256 201 q-116 35 -193.5 136.5t-103 256.5t16.5 356q35 164 110.5 303t172.5 231.5t209 144.5t223 52q150 0 259 -96t148.5 -266.5t-8.5 -405.5zM524 -16q340 0 502 751q152 715 -188 715q-166 0 -294 -187t-210 -567q-140 -663 145 -708q6 -1 17 -2t16 -2h12z" />
<glyph unicode="R" horiz-adv-x="1153" d="M1069 295h16q-19 -95 -45 -161t-57 -101.5t-63 -50.5t-70 -15q-69 0 -110.5 30t-54.5 82t-15.5 120.5t4.5 146.5q2 47 3 70t2 62.5t-1 59.5t-6 48.5t-12 43t-19 29.5t-27.5 21t-38.5 6h-157l-142 -670h150l-4 -16h-496l4 16h150l297 1401h-150l4 17h275q43 0 146 4t126 4 q73 0 129 -21.5t95.5 -67.5t49.5 -118.5t-10 -175.5q-34 -159 -122 -241t-207 -103v-2q51 -4 81 -16t53 -43t30.5 -87t3.5 -145q-1 -22 -6 -91.5t-6.5 -115t-1 -100t10 -83t27.5 -28.5q43 0 87.5 73.5t76.5 217.5zM616 707q36 0 66 16.5t59.5 55t55 110t47.5 174.5 q41 207 17 284.5t-118 77.5q-9 0 -40.5 -1.5t-74 -3.5t-55.5 -3l-151 -710h194z" />
<glyph unicode="S" horiz-adv-x="942" d="M354 -33q-63 0 -111.5 16.5t-72.5 37t-50 37t-48 16.5q-18 0 -30.5 -15t-25.5 -59h-16l141 477h13q-56 -257 -0.5 -375t196.5 -118q129 0 215.5 89.5t116.5 225.5q9 41 9.5 77.5t-5.5 66.5t-21.5 58.5t-35 51.5t-49.5 47.5t-61 45.5t-73 46q-83 50 -136 107t-78 142 t-3 187q36 169 146 253.5t246 84.5q48 0 89 -13t63.5 -29t47 -29t43.5 -13q46 0 64 52h16l-80 -377h-12q34 169 -30 281t-193 112q-196 0 -240 -211q-23 -108 13.5 -193t150.5 -151q35 -21 59.5 -36.5t60 -41t59.5 -50t51.5 -57t43 -68.5t27 -78t10 -92t-13.5 -105 q-41 -184 -177.5 -292t-318.5 -108z" />
<glyph unicode="T" horiz-adv-x="1140" d="M1270 1434l-68 -316h-12q8 75 0.5 131t-34.5 93.5t-81.5 56t-140.5 18.5h-78l-291 -1401h150l-4 -16h-496l4 16h150l290 1401h-77q-114 0 -187.5 -35t-113 -96t-72.5 -168h-12l67 316h1006z" />
<glyph unicode="U" horiz-adv-x="1228" d="M1073 1434h322l-4 -17h-150l-207 -977q-20 -95 -58 -177.5t-95.5 -150t-140.5 -106.5t-183 -39q-76 0 -141.5 19.5t-121 62t-87.5 108t-41 158t18 213.5l189 889h-150l4 17h496l-4 -17h-150l-202 -956q-25 -131 -22.5 -221t34 -146t78 -81t108.5 -25q162 0 282 120 t163 322l209 987h-150z" />
<glyph unicode="V" d="M1038 1434h271l-4 -17h-95l-708 -1450h-45l-107 1450h-127l4 17h469l-4 -17h-149l73 -1161l568 1161h-150z" />
<glyph unicode="W" horiz-adv-x="1658" d="M1554 1434h271l-4 -17h-95l-682 -1450h-49l-55 965l-459 -965h-49l-82 1450h-127l4 17h453l-4 -17h-133l63 -1132l332 698l-25 434h-125l5 17h475l-4 -17h-158l63 -1128l531 1128h-150z" />
<glyph unicode="X" horiz-adv-x="1155" d="M922 1434h331l-4 -17h-143l-412 -606l191 -795h131l-4 -16h-506l4 16h170l-148 613l-413 -613h110l-4 -16h-299l4 16h162l434 643l-182 758h-117l4 17h492l-4 -17h-170l139 -577l391 577h-161z" />
<glyph unicode="Y" horiz-adv-x="1091" d="M981 1434h276l-4 -17h-92l-436 -710l-145 -691h149l-4 -16h-496l4 16h150l139 664l-174 737h-125l4 17h463l-4 -17h-135l160 -690l424 690h-158z" />
<glyph unicode="Z" horiz-adv-x="976" d="M889 545h12l-153 -545h-775l4 16l875 1401h-281q-50 0 -93 -19.5t-77 -52.5t-65 -85t-55 -107t-50 -129h-12l113 410h735l-4 -17l-877 -1401h285q253 0 418 529z" />
<glyph unicode="[" horiz-adv-x="475" d="M78 -324h153l-4 -16h-278l446 2109h281l-4 -16h-154z" />
<glyph unicode="\" horiz-adv-x="520" d="M268 1538l99 -1604l-21 -6l-98 1604z" />
<glyph unicode="]" horiz-adv-x="473" d="M483 1753h-153l4 16h278l-446 -2109h-281l4 16h154z" />
<glyph unicode="^" horiz-adv-x="466" d="M537 1057h-39l-64 389l-227 -389h-43l268 442h27z" />
<glyph unicode="_" horiz-adv-x="716" d="M-90 -106h635l-4 -21h-635z" />
<glyph unicode="`" horiz-adv-x="460" d="M375 1638h-53l241 -237l8 12z" />
<glyph unicode="a" horiz-adv-x="1050" d="M952 1057l-209 -983q-7 -34 3.5 -54t35.5 -20q47 0 94.5 73.5t79.5 221.5h17q-18 -85 -41.5 -146t-46 -94t-50.5 -52t-49 -23.5t-49 -4.5q-72 0 -109 42.5t-42 111.5h-6q-35 -68 -99 -115t-149 -47q-164 0 -235 147.5t-19 403.5q50 248 179 393.5t290 145.5 q135 0 178 -144h8l25 111h41q61 0 89 5.5t64 27.5zM338 -16q89 0 159.5 69t86.5 152l123 586q18 107 -27 178t-121 71q-89 0 -157 -132t-119 -400q-25 -133 -35.5 -225t-7 -162t28 -103.5t69.5 -33.5z" />
<glyph unicode="b" horiz-adv-x="997" d="M655 1057q74 0 135 -33.5t102.5 -102t49.5 -172.5t-22 -245q-56 -240 -192 -388.5t-320 -148.5q-176 0 -235 142.5t1 408.5l203 965h-139l4 16h159q38 0 59.5 1t56.5 9.5t61 24.5l-136 -641h9q43 87 92.5 125.5t111.5 38.5zM412 -16q57 0 104.5 38t83.5 112t63 163 t52 211q60 264 48 398t-106 134q-101 0 -172.5 -129.5t-138.5 -412.5q-64 -272 -48.5 -393t114.5 -121z" />
<glyph unicode="c" horiz-adv-x="909" d="M778 334l17 -8q-75 -174 -186.5 -266.5t-250.5 -92.5q-79 0 -138.5 31.5t-94 85.5t-51 126t-14.5 152.5t20 165.5q20 97 61.5 186.5t104.5 168.5t156 126.5t202 47.5q133 0 204.5 -80.5t49.5 -188.5q-11 -53 -43 -91t-88 -38q-58 0 -81 42.5t-11 95.5q6 30 22 53.5t32 36 t31.5 31t20.5 40.5q7 29 -15 48t-55.5 26.5t-74.5 7.5q-51 0 -91 -21.5t-70.5 -60.5t-57 -106t-47.5 -144.5t-45 -189.5q-60 -289 -39.5 -410.5t121.5 -121.5q128 0 236 91t175 257z" />
<glyph unicode="d" horiz-adv-x="1040" d="M733 72q-7 -35 4 -53.5t33 -18.5q51 0 97 74t79 221h17q-39 -175 -93 -247.5t-139 -72.5q-75 0 -118 44t-56 118h-8q-38 -69 -65 -98q-67 -72 -165 -72q-105 0 -172.5 70.5t-84.5 195t18 295.5q29 136 83.5 241.5t120 166t133 91t132.5 30.5q36 0 63.5 -10t42.5 -23 t27 -37.5t16.5 -40t10.5 -42.5q0 -2 0.5 -3t1 -3t0.5 -3h8l127 588h-127l4 16h127q80 0 118.5 6.5t75.5 28.5zM326 -16q36 0 66 10.5t65.5 44t66 90.5t63.5 156.5t62 236.5q110 518 -92 518q-24 0 -44.5 -5t-38.5 -18.5t-33 -27t-29.5 -40t-25 -47t-22.5 -59t-20 -65 t-19.5 -75.5t-18.5 -81t-19 -90q-17 -79 -28 -143.5t-18.5 -129t-6 -112.5t10 -86t29.5 -57.5t52 -19.5z" />
<glyph unicode="e" horiz-adv-x="899" d="M391 -14q124 0 222.5 93t164.5 255l17 -8q-75 -174 -176 -266.5t-252 -92.5q-82 0 -143.5 29t-98 80t-53.5 122t-14.5 155t22.5 179q21 99 69.5 192t117.5 167.5t161.5 120t192.5 45.5q135 0 203.5 -74.5t47.5 -183.5q-15 -80 -73 -138t-145.5 -88.5t-179.5 -44.5 t-193 -14q-113 -528 110 -528zM614 1044q-216 0 -329 -514q143 0 226.5 30.5t124 90.5t60.5 168q22 106 3 165.5t-85 59.5z" />
<glyph unicode="f" horiz-adv-x="636" d="M162 1008l4 16h141l33 158q14 65 39.5 125t62.5 111.5t89 82.5t110 31q69 0 107.5 -47.5t23.5 -116.5q-9 -45 -37 -73.5t-67 -28.5q-42 0 -61.5 32t-12.5 64q6 26 25.5 43.5t39.5 24.5t37 19.5t19 29.5q2 15 -18 28t-60 13q-57 0 -102.5 -46.5t-55.5 -99.5 q-11 -56 -5.5 -99.5t17.5 -65.5t18.5 -59t-3.5 -81l-10 -45h141l-4 -16h-141l-207 -975q-20 -92 -52.5 -176.5t-77.5 -158t-105 -117.5t-126 -44q-80 0 -112.5 58.5t-14.5 150.5q11 57 36 79.5t54 22.5q35 0 54 -23.5t10 -66.5q-6 -28 -25.5 -45t-40 -22.5t-38.5 -17.5 t-21 -31q-6 -33 20.5 -60.5t63.5 -27.5t64 31t39.5 69t23.5 92l266 1262h-141z" />
<glyph unicode="g" horiz-adv-x="905" d="M371 184q38 -7 64.5 -12t61 -13.5t57.5 -18t50 -23.5t43 -31t31 -40t21 -50.5t6 -63t-9 -77.5q-31 -149 -148 -233.5t-306 -84.5q-168 0 -247 74t-56 182q22 104 139 168l4 -14q-59 -36 -87 -69.5t-40 -88.5q-4 -31 -2 -63t22 -63t50.5 -55t83.5 -39t122 -15 q129 0 207.5 57.5t98.5 144.5q23 97 -22 156.5t-187 85.5q-34 6 -60.5 11.5t-55.5 12.5t-51 15t-44.5 17.5t-38 21t-30 25.5t-23 30.5t-13.5 36.5t-4.5 43.5t6.5 50.5q11 50 41 92.5t56 64t66 50.5q2 1 3 2t3 2t3 2q-70 94 -36 258q18 83 62 148t102.5 102t119.5 55.5 t121 18.5q95 0 178 -60q-21 56 -6 129q15 69 65 111.5t113 42.5q56 0 86 -35t17 -102q-7 -34 -29 -60t-55 -26q-35 0 -53.5 27.5t-10.5 58.5q6 26 26.5 43t40 27.5t21.5 19.5q4 14 -7 23.5t-42 9.5q-49 0 -94.5 -36.5t-59.5 -103.5q-10 -51 -0.5 -96.5t33.5 -77.5 q74 -96 39 -256q-14 -67 -46 -122t-72.5 -91.5t-90 -62t-98 -36.5t-96.5 -11q-61 0 -119 24t-100 66q-33 -24 -59 -60.5t-32 -64.5q-8 -41 11 -66.5t79 -46.5t177 -41zM549 1040q-82 0 -129 -83.5t-86 -260.5q-35 -149 -17 -228t101 -79t130.5 84.5t84.5 259.5 q34 149 16.5 228t-100.5 79z" />
<glyph unicode="h" horiz-adv-x="1097" d="M793 80q-8 -28 -0.5 -54t34.5 -26q56 0 102.5 82.5t74.5 212.5h16q-37 -171 -91.5 -245.5t-133.5 -74.5q-110 0 -148.5 75t-5.5 210l104 481q31 161 13.5 226t-80.5 65q-76 0 -146 -83t-120 -201l-158 -748h-188l313 1483h-141l4 16h141q78 0 118.5 6.5t76.5 28.5 l-142 -670h8q61 98 120.5 145.5t150.5 47.5q284 0 200 -398z" />
<glyph unicode="i" horiz-adv-x="573" d="M432 1272q-46 0 -71 34t-15 87q11 54 44 87t79 33q47 0 72.5 -33.5t15.5 -86.5q-11 -54 -45 -87.5t-80 -33.5zM479 295h17q-37 -169 -92.5 -244.5t-131.5 -75.5q-110 0 -148 77t-5 212l157 744h-141l4 16h142q77 0 117.5 6.5t76.5 28.5l-207 -979q-8 -28 0 -54t35 -26 q52 0 100.5 84t75.5 211z" />
<glyph unicode="j" horiz-adv-x="579" d="M483 1272q-46 0 -71 34t-15 87q11 54 44 87t79 33q47 0 72.5 -33.5t15.5 -86.5q-11 -54 -45 -87.5t-80 -33.5zM182 1008l4 16h140q77 0 118.5 6.5t77.5 28.5l-198 -936q-37 -174 -91.5 -302.5t-132 -206t-168.5 -77.5q-71 0 -106.5 61t-7.5 156q27 94 92 94 q35 0 52 -29.5t9 -66.5q-5 -27 -22 -43t-35 -21.5t-35 -19.5t-22 -39q-5 -26 14 -50.5t55 -24.5q51 0 91.5 44.5t54.5 110.5q9 43 15 129t15 129l222 1041h-142z" />
<glyph unicode="k" horiz-adv-x="1007" d="M754 0q52 0 100 82t76 213h16q-38 -175 -93 -247.5t-132 -72.5q-125 0 -170.5 85.5t-42.5 287.5q2 127 -24.5 191t-94.5 65h-8l-129 -604h-189l314 1483h-139l4 16h139q77 0 119 6.5t78 28.5l-193 -909h12q49 1 103 41.5t102 105.5q18 24 52.5 82t59.5 97.5t66 72.5 t84 33q40 0 71 -26t38 -73q9 -57 -21.5 -92t-81.5 -35q-27 0 -42 16t-18.5 39t-4.5 46t-6.5 39t-18.5 16q-15 0 -41.5 -37t-63 -99t-57.5 -91q-50 -66 -94.5 -100.5t-72.5 -34.5v-2q143 0 198 -113q24 -48 34 -120.5t9.5 -137t1 -123.5t15 -94t45.5 -35z" />
<glyph unicode="l" horiz-adv-x="573" d="M303 0q52 0 100.5 84t75.5 211h17q-37 -170 -92 -245t-134 -75q-110 0 -147 76.5t-4 212.5l258 1219h-139l4 16h139q78 0 119.5 6.5t77.5 28.5l-310 -1454q-8 -28 0 -54t35 -26z" />
<glyph unicode="m" horiz-adv-x="1585" d="M1491 295h16q-39 -171 -93 -245.5t-132 -74.5q-108 0 -146.5 77t-5.5 212l103 477q32 157 16 224t-84 67q-78 0 -146 -88t-108 -217l-155 -727h-189l158 731q14 70 18.5 123t-2.5 94.5t-29.5 62.5t-60.5 21q-43 0 -83.5 -29t-71 -76.5t-53 -97t-37.5 -100.5l-156 -729 h-189l215 1008h-141l4 16h142q77 0 117.5 6.5t76.5 28.5l-39 -176h6q14 24 20.5 34t23 33t28.5 34t33 28t42 25t49 14t60 6q106 -1 166 -64t60 -170q17 35 29.5 58t32 53t40 49.5t47.5 37.5t61 27t74 9q44 0 80 -10t69 -34.5t49 -65.5t20.5 -102t-15.5 -145l-133 -620 q-7 -32 1 -56t34 -24q54 0 102.5 83.5t75.5 211.5z" />
<glyph unicode="n" horiz-adv-x="1095" d="M1001 295h17q-37 -170 -92 -245t-131 -75q-110 0 -148 76.5t-6 212.5l92 436q35 161 18.5 246.5t-83.5 85.5q-59 0 -132.5 -83t-125.5 -197l-158 -752h-189l213 1008h-141l4 16h140q77 0 118.5 6.5t77.5 28.5l-41 -195h8q69 101 130.5 147.5t140.5 45.5q136 -3 190 -97.5 t10 -300.5l-122 -579q-8 -28 -0.5 -54t34.5 -26q52 0 100.5 84t75.5 211z" />
<glyph unicode="o" horiz-adv-x="952" d="M362 -33q-113 0 -190 67.5t-103 192.5t11 303q52 246 194.5 386.5t315.5 140.5q113 0 190 -67.5t103 -192.5t-11 -303q-52 -246 -194.5 -386.5t-315.5 -140.5zM362 -20q68 0 120 50.5t99.5 172t92.5 327.5q42 196 44 310.5t-30 159t-100 44.5q-67 0 -118.5 -50 t-99.5 -172.5t-91 -327.5q-41 -196 -43 -310.5t29 -159t97 -44.5z" />
<glyph unicode="p" horiz-adv-x="1001" d="M139 1024h142q77 0 119.5 6.5t78.5 28.5l-35 -162h9q43 78 93 119t118 41q100 0 170.5 -59t100 -179.5t-8.5 -304.5q-51 -243 -183.5 -395t-291.5 -152q-37 0 -65 10.5t-43.5 24t-28 39t-16.5 40.5t-11 44h-6l-109 -506h141l-4 -16h-471l4 16h142l292 1389h-141zM350 502 q-111 -516 90 -516q83 0 154.5 137t134.5 432q24 113 34 197t6 151.5t-30 102t-75 34.5q-110 0 -183 -134.5t-131 -403.5z" />
<glyph unicode="q" horiz-adv-x="1001" d="M1079 1024l-4 -16h-141l-295 -1389h141l-4 -16h-471l4 16h142l110 535h-8q-51 -96 -104 -141.5t-121 -45.5q-165 0 -235 150.5t-15 404.5q28 128 79.5 231.5t116 168.5t136 100t143.5 35q75 0 112 -40t48 -128h8l37 135h321zM655 539q54 239 32 370t-122 131 q-53 0 -97.5 -42t-79 -122.5t-60.5 -171.5t-52 -215q-30 -141 -39.5 -241t0.5 -156.5t33.5 -82t61.5 -25.5q91 0 175.5 131.5t147.5 423.5z" />
<glyph unicode="r" horiz-adv-x="821" d="M61 0l215 1008h-141l4 16h144q76 0 116 6.5t76 28.5l-61 -289h8q119 287 297 287q84 0 121.5 -61t15.5 -158q-18 -74 -55.5 -109t-83.5 -35q-55 0 -84 42t-12 100q10 36 36 57t51.5 27t49 18t30.5 33q8 26 -10.5 45.5t-60.5 19.5q-66 0 -125.5 -48.5t-104.5 -131.5 t-79 -178.5t-58 -204.5l-102 -473h-187z" />
<glyph unicode="s" horiz-adv-x="796" d="M274 -33q-126 0 -204 71.5t-54 182.5q12 59 45 87t70 28q44 0 70 -33.5t12 -91.5q-7 -29 -23.5 -50.5t-32.5 -31t-30 -22t-16 -25.5q-6 -31 36.5 -64.5t124.5 -33.5q61 0 109.5 20t78 53.5t47 67.5t25.5 70q6 26 6 50t-5 44t-17 40t-26.5 36.5t-36.5 35.5t-44 35t-53 37 q-39 27 -68 49.5t-56.5 49.5t-44 54.5t-27 59.5t-10 69t11.5 79q59 223 352 223q124 0 182 -50t47 -135q-6 -50 -34.5 -84t-73.5 -34q-46 0 -67 33t-13 71q5 21 21.5 38.5t34 27t33 22t18.5 23.5q4 18 -9.5 34t-51 26.5t-95.5 10.5q-77 0 -132.5 -42t-74.5 -111 q-16 -62 15 -115t132 -119q39 -25 64.5 -43.5t57.5 -45t51.5 -49.5t38.5 -54t26.5 -62t7.5 -70t-12 -81q-19 -72 -62.5 -127.5t-100.5 -88t-119 -49t-124 -16.5z" />
<glyph unicode="t" horiz-adv-x="638" d="M285 -33q-104 0 -156 79.5t-25 205.5l162 756h-121l5 16q91 0 154.5 20t103.5 63t63 95.5t41 132.5h12l-65 -311h243l-4 -16h-243l-183 -852q-16 -80 0 -122t58 -42q76 0 128 72.5t87 230.5h16q-18 -86 -41.5 -147t-47.5 -96t-56.5 -54.5t-61.5 -25t-69 -5.5z" />
<glyph unicode="u" d="M836 74q-6 -32 3.5 -53t34.5 -21q56 0 103.5 88t71.5 207h16q-39 -181 -94.5 -250.5t-124.5 -69.5q-85 0 -125 45t-45 132h-8q-109 -185 -308 -185q-60 0 -108 18.5t-85 60.5t-45.5 110t9.5 168l145 684h-141l4 16h330l-150 -702q-32 -161 -13 -247.5t81 -86.5 q105 0 190.5 78.5t106.5 179.5l164 778h33q69 0 97.5 5.5t65.5 27.5z" />
<glyph unicode="v" horiz-adv-x="923" d="M846 1057q42 0 67 -32.5t19 -98.5q-7 -74 -39 -178q-36 -110 -76 -211.5t-96 -208.5t-114 -184.5t-129.5 -127t-143.5 -49.5q-31 0 -59 6.5t-57.5 22t-50 44.5t-34.5 69t-13 101.5t17 137.5l139 660h-141l4 16h158q82 0 112.5 5t67.5 28l-180 -848q-23 -88 -10.5 -152.5 t63.5 -64.5q73 0 150 67.5t136 163.5t110.5 207.5t80 193t39.5 126.5q9 42 -15 67t-56 33q-35 10 -54 37t-12 67q8 43 41.5 73t75.5 30z" />
<glyph unicode="w" horiz-adv-x="1433" d="M1354 1057q39 0 62.5 -28t23.5 -85q0 -69 -37 -196q-40 -148 -93 -281.5t-119.5 -248.5t-147.5 -183t-164 -68q-41 0 -76.5 12.5t-69 41t-50.5 86t-11 137.5h-8q-165 -277 -336 -277q-29 0 -56 6.5t-55.5 22t-49.5 44.5t-34.5 69t-12.5 101.5t17 137.5l139 660h-141l4 16 h142q101 0 128.5 5.5t67.5 29.5l-180 -850q-50 -217 41 -217q168 0 332 307l151 725h189l-170 -815q-23 -88 -11.5 -152.5t62.5 -64.5q70 0 142 63.5t128 157t103.5 201.5t75.5 195.5t38 140.5q7 42 -11.5 66.5t-53.5 29.5q-38 5 -61 33t-13 75q9 44 41 73.5t74 29.5z" />
<glyph unicode="x" horiz-adv-x="1103" d="M115 690q22 121 97 219.5t144 98.5q50 0 78.5 -41.5t35.5 -112.5t-1.5 -158t-30.5 -186q-27 -123 -77.5 -242t-116 -200.5t-123.5 -81.5q-26 0 -45.5 12.5t-18.5 40.5q1 22 19.5 41t41 32t44 37t26.5 54q8 42 -13 70t-64 28q-42 0 -73.5 -30t-41.5 -81q-18 -85 18.5 -154 t104.5 -69q140 0 276 328h6q-14 -152 45.5 -240t176.5 -88q116 0 215 92.5t135 266.5l-21 8q-26 -131 -100 -224.5t-145 -93.5q-50 0 -81.5 54.5t-35 164.5t38.5 277q60 236 148.5 381t170.5 145q31 0 46.5 -14.5t15.5 -36.5q0 -20 -18 -39t-40 -33t-44 -39t-29 -55 q-10 -45 13.5 -71.5t61.5 -26.5q39 0 71.5 28.5t45.5 82.5q9 30 3.5 68.5t-17.5 73t-40.5 58t-66.5 23.5q-143 0 -278 -328h-6q30 159 -39.5 243.5t-186.5 84.5q-130 0 -224.5 -107.5t-121.5 -251.5z" />
<glyph unicode="y" horiz-adv-x="1036" d="M924 1057q59 0 87.5 -40t28.5 -102q0 -64 -26 -127q-113 -278 -229.5 -501.5t-239.5 -394t-249 -263t-245 -92.5q-109 0 -165.5 69.5t-35.5 153.5q12 48 42.5 72.5t70.5 24.5q52 0 73.5 -36.5t10.5 -88.5q-5 -24 -24 -40.5t-39.5 -24t-38.5 -19.5t-21 -27 q-4 -24 35.5 -44.5t87.5 -20.5q211 0 449 309l-240 1143h-125l2 16h127q74 0 112.5 5.5t73.5 27.5l199 -973q104 170 188 348.5t128 294.5q12 33 -19 67t-72 52q-37 16 -60 45.5t-15 69.5q8 41 43.5 68.5t85.5 27.5z" />
<glyph unicode="z" horiz-adv-x="888" d="M741 147q13 39 -55 68q-78 34 -63 104q9 38 36 57t62 19q47 0 61.5 -38.5t-6.5 -153.5q-26 -121 -98 -178.5t-217 -57.5q-71 0 -138.5 22t-125 44t-105.5 22q-81 0 -131 -55l-18 16l749 852h-338q-134 0 -190 -151h-12l96 307h602l-8 -16l-723 -824q77 25 135 25 q67 0 127.5 -16t98 -35.5t88.5 -35.5t100 -16q34 0 49 8t24 33z" />
<glyph unicode="{" horiz-adv-x="589" d="M248 33q-18 -94 -12 -173.5t32 -131.5t62 -52l-4 -16q-23 0 -49.5 6.5t-60 23.5t-59.5 46t-47 74.5t-22 109.5t14 150q14 68 44 125t58.5 92t60 95t48.5 134q19 79 -17 122.5t-112 70.5l4 16q85 27 139 67.5t68 106.5q13 63 12.5 114.5t-10.5 83.5t-19 73t-11.5 81.5 t10.5 108.5q21 98 62.5 174t86 119t95.5 70.5t87.5 36.5t65.5 9l-4 -16q-49 0 -124.5 -102t-106.5 -248q-21 -99 -20 -221.5t-17 -204.5q-14 -65 -44 -116.5t-67 -80.5t-72.5 -44.5t-68.5 -18.5q34 -3 62 -17t53.5 -44.5t30.5 -79.5t-7 -123q-18 -88 -69 -207.5t-72 -212.5z " />
<glyph unicode="|" horiz-adv-x="288" d="M342 1499h25l-369 -1730h-25z" />
<glyph unicode="}" horiz-adv-x="589" d="M428 1397q18 94 12 173t-32 131t-62 52l4 16q23 0 49.5 -6.5t60 -23t59 -46t46.5 -75t22 -109t-14 -149.5q-12 -56 -33.5 -102.5t-45 -80.5t-48 -69t-47.5 -84.5t-37 -110.5q-19 -79 17 -122t113 -70l-5 -16q-182 -57 -206 -175q-13 -63 -12.5 -114.5t10.5 -83.5 t19 -72.5t11.5 -81t-10.5 -108.5q-21 -98 -62.5 -174.5t-86 -119t-95.5 -70.5t-87.5 -37t-65.5 -9l4 16q49 0 124.5 102.5t106.5 248.5q21 99 20 221.5t17 204.5q14 65 44 116.5t67 80.5t72.5 44.5t68.5 18.5q-34 3 -62 17t-53.5 44.5t-30.5 79.5t7 123q18 88 69 207.5 t72 212.5z" />
<glyph unicode="~" horiz-adv-x="522" d="M76 674q15 52 52 87.5t91 35.5q28 0 48.5 -15t32.5 -36t23.5 -42t30 -36t43.5 -15q42 0 75 32t46 75h17q-18 -55 -55 -89t-89 -34q-28 0 -48.5 14.5t-32.5 35.5t-23.5 42.5t-30 36t-43.5 14.5q-43 0 -74 -31t-47 -75h-16z" />
<glyph unicode="&#xa1;" horiz-adv-x="458" d="M299 827q-55 0 -77.5 42t-10.5 94q14 63 55 97t86 34q55 0 76.5 -41.5t9.5 -94.5q-14 -63 -54.5 -97t-84.5 -34zM23 -463q55 0 90.5 62t64.5 198q25 119 35.5 203.5t11 143t2 122.5t16 181.5t46.5 281.5h-25q-44 -200 -86.5 -339t-70.5 -200.5t-64 -171t-68 -258.5 q-18 -83 -20 -130t14 -70t54 -23z" />
<glyph unicode="&#xa2;" horiz-adv-x="909" d="M623 1057q125 -6 191 -85.5t44 -183.5q-11 -53 -43 -91t-88 -38q-58 0 -81 42.5t-11 95.5q6 30 22 53.5t32 36t31.5 31t20.5 40.5q7 29 -15 48t-55.5 26.5t-74.5 7.5q-51 0 -91 -21.5t-70.5 -60.5t-57 -106t-47.5 -144.5t-45 -189.5q-60 -289 -39.5 -410.5t121.5 -121.5 q128 0 236 91t175 257l17 -8q-71 -164 -173.5 -255.5t-230.5 -101.5l-18 -88h-21l19 86h-13q-79 0 -138.5 31.5t-94 85.5t-51 126t-14.5 152.5t20 165.5q16 76 44.5 148.5t74.5 142t103 121.5t134.5 84t165.5 33l21 102h20z" />
<glyph unicode="&#xa3;" horiz-adv-x="901" d="M723 1466q46 0 82.5 -12.5t65.5 -42.5t35.5 -80.5t-7.5 -126.5q-19 -86 -57.5 -134t-93.5 -48t-86.5 45.5t-14.5 116.5q13 55 50 93t89 38q42 0 88 -29q14 -10 16 -1q1 4 1 11q0 76 -44.5 115t-107.5 39q-102 0 -171.5 -113t-121.5 -354q-7 -34 -23.5 -125.5 t-27.5 -140.5h256l-10 -21h-250q-22 -92 -53 -166t-95.5 -159.5t-158.5 -159.5q20 12 33 18t40 11.5t62 5.5q69 0 140 -19t129.5 -38t97.5 -19q155 0 211 229h12q-46 -217 -128 -324.5t-232 -107.5q-57 0 -113.5 16.5t-92.5 37t-75.5 37t-65.5 16.5q-36 0 -60.5 -16.5 t-49.5 -57.5h-21q10 136 101 215q62 53 101 111t55 123.5t20 117.5t2 129h-103l5 21h98q-5 65 -4 153t16 156q39 191 171.5 315.5t289.5 124.5z" />
<glyph unicode="&#xa4;" horiz-adv-x="1069" d="M1067 938l-139 -117q94 -132 55 -309q-41 -184 -188 -309l92 -117l-21 -16l-92 116q-155 -123 -336 -123q-180 0 -282 123l-142 -116l-12 16l139 117q-94 132 -55 309q41 184 188 309l-92 117l21 16l92 -116q155 123 336 123q180 0 282 -123l142 116zM956 512 q25 118 -8 215.5t-118 154t-205 56.5q-175 0 -324.5 -124t-187.5 -302q-25 -118 8 -215.5t118 -154t205 -56.5q175 0 324.5 124t187.5 302z" />
<glyph unicode="&#xa5;" horiz-adv-x="1019" d="M928 1434h258l-4 -17h-86l-398 -692h142l-4 -20h-148l-33 -162h146l-4 -21h-146l-100 -506h139l-4 -16h-461l4 16h140l100 506h-131l4 21h131l27 137l-6 25h-117l4 20h108l-149 692h-117l4 17h430l-4 -17h-125l148 -690l395 690h-147z" />
<glyph unicode="&#xa6;" horiz-adv-x="288" d="M205 856l137 643h25l-138 -643h-24zM135 412l-137 -643h-25l138 643h24z" />
<glyph unicode="&#xa7;" horiz-adv-x="739" d="M555 1466q83 0 139 -43t74.5 -104.5t5.5 -126.5q-14 -70 -59 -111t-94 -41q-52 0 -77 44t-14 104q13 69 69.5 110t125.5 41q-9 48 -59 79.5t-113 31.5q-87 0 -159 -60t-91 -153q-3 -26 -4.5 -47t5.5 -41t15 -35.5t22.5 -31.5t27.5 -28t32 -25t35 -23t36 -22l15 -9 q29 -17 45.5 -27.5t44.5 -32.5t43.5 -42t34 -51.5t25.5 -65.5t7 -81t-11 -100q-37 -176 -156 -305q75 -106 37 -290q-37 -192 -150.5 -301t-261.5 -109q-53 0 -95.5 15t-67 40t-41 57.5t-17.5 67t4 68.5q13 66 57 107.5t95 41.5q50 0 76.5 -41t13.5 -104 q-14 -73 -69.5 -112.5t-123.5 -39.5q18 -40 64.5 -62t108.5 -22q120 0 194.5 74t97.5 182q5 35 6.5 61t-8.5 50.5t-23.5 43.5t-38.5 40.5t-53 42t-67 48.5q-11 7 -16 11q-28 20 -45 33.5t-41 36t-37.5 42t-27.5 48.5t-19 60t-4 71.5t10 87.5q40 202 174 295q-94 105 -57 289 q31 163 130.5 263.5t229.5 100.5zM573 432q5 25 5 46.5t-2.5 37.5t-15.5 35t-22 30.5t-34 31.5t-39.5 31t-50.5 36.5t-56 40.5q-56 40 -96 80q-69 -52 -86 -142q-5 -23 -4.5 -44t2.5 -37t13 -34t17.5 -29t26 -27.5t29 -24t36 -24t36.5 -22.5t41 -24q97 -58 135 -106 q50 65 65 145z" />
<glyph unicode="&#xa8;" horiz-adv-x="430" d="M336 1466q-20 0 -32 17.5t-7 40.5q4 23 22.5 40t38.5 17t31 -17t6 -40q-3 -23 -21 -40.5t-38 -17.5zM502 1466q-20 0 -31 17t-6 41q3 23 21 40t38 17t31.5 -17t7.5 -40t-23 -40.5t-38 -17.5z" />
<glyph unicode="&#xa9;" horiz-adv-x="1421" d="M592 -33q-172 0 -296.5 100.5t-172 273t-4.5 376.5q44 205 162 376.5t285.5 272t344.5 100.5q130 0 235.5 -59t168.5 -160.5t86 -238t-12 -291.5q-33 -153 -111.5 -291.5t-184 -239t-237 -160t-264.5 -59.5zM596 -12q132 0 261 61.5t229.5 163t174 233.5t103.5 271 q21 113 18 219t-40 199t-94.5 162t-146 109t-194.5 40q-131 0 -259.5 -61.5t-228.5 -163t-173 -233.5t-103 -271q-21 -113 -18 -219t39.5 -199t93.5 -162t145 -109t193 -40zM1034 541l17 -9q-71 -174 -174.5 -266t-231.5 -92q-74 0 -129.5 31.5t-88 85.5t-48 126 t-13.5 152.5t19 165.5q15 77 42 149t69.5 142t95.5 122t125.5 84t154.5 32q124 0 191.5 -80.5t46.5 -188.5q-11 -53 -41 -91t-82 -38q-54 0 -75 42t-11 96q8 38 29.5 64.5t43 48t27.5 48.5q8 42 -33.5 62t-101.5 20q-48 0 -85.5 -21.5t-66 -60.5t-53.5 -106.5t-44 -144 t-42 -189.5q-55 -289 -36.5 -410.5t112.5 -121.5q120 0 220 91t163 257z" />
<glyph unicode="&#xaa;" horiz-adv-x="632" d="M557 870q-85 0 -92 88q-25 -34 -40 -50t-44 -29t-68 -13q-80 0 -117 51.5t-20 137.5q19 97 108 142.5t226 45.5l22 107q29 135 -61 135q-51 0 -88.5 -19t-42.5 -47q-2 -14 21.5 -41.5t19.5 -52.5q-3 -19 -17.5 -31t-35.5 -12q-29 0 -42.5 24t-4.5 66q11 58 66.5 92.5 t150.5 34.5q28 0 51 -5.5t45.5 -19t34.5 -36.5t17 -59t-7 -85l-78 -368q-8 -37 21 -37q33 0 71 67l13 -4q-28 -49 -51.5 -65.5t-57.5 -16.5zM332 883q43 0 80.5 36t46.5 80l47 228q-100 0 -148 -43.5t-73 -155.5q-17 -70 -6.5 -107.5t53.5 -37.5z" />
<glyph unicode="&#xab;" horiz-adv-x="854" d="M88 524l266 -364l8 16l-137 352l289 353l-4 16l-420 -365zM420 524l266 -364l8 16l-137 352l289 353l-4 16l-420 -365z" />
<glyph unicode="&#xac;" horiz-adv-x="522" d="M86 727h438l-53 -262h-22l49 242h-416z" />
<glyph unicode="&#xad;" horiz-adv-x="303" d="M53 571l246 123l-4 -24l-246 -123z" />
<glyph unicode="&#xae;" horiz-adv-x="1044" d="M522 512q-130 0 -224.5 76.5t-131 207t-4.5 283.5q33 153 124 284t218.5 207.5t259.5 76.5q130 0 224.5 -76.5t131 -207.5t4.5 -284q-33 -154 -123.5 -284t-218 -206.5t-260.5 -76.5zM526 532q125 0 247 75.5t209.5 201t117.5 270.5t-2.5 270.5t-122 201t-215.5 75.5 t-248 -75.5t-209 -201t-117 -270.5t2.5 -270.5t122 -201t215.5 -75.5zM879 868h16q-17 -95 -48.5 -131.5t-90.5 -36.5q-45 0 -66.5 27.5t-22 71.5t0.5 100q3 34 2.5 63t-5 50t-19.5 33t-42 12h-29l-69 -324h72l-3 -16h-270l2 16h74l143 684h-71l4 17h260q90 0 130 -48 t19 -147q-10 -45 -28.5 -76.5t-45 -49t-50 -26.5t-54.5 -14l-2 -2q41 -3 62 -19.5t30.5 -60.5t7.5 -129q-3 -137 19 -137q11 0 25.5 14t28.5 48.5t20 80.5zM623 1073q37 0 64.5 40.5t49.5 143.5q11 53 12 86.5t-9 49t-23 20t-35 4.5h-33l-69 -344h43z" />
<glyph unicode="&#xaf;" horiz-adv-x="456" d="M295 1509h291l-4 -20h-293z" />
<glyph unicode="&#xb0;" horiz-adv-x="339" d="M317 1200q-54 0 -78.5 46t-13.5 104q11 59 55 104t97 45t79.5 -44.5t14.5 -104.5q-12 -61 -56.5 -105.5t-97.5 -44.5zM324 1221q42 0 76.5 38t45.5 91q10 49 -7.5 89t-65.5 40q-43 0 -78 -40t-45 -89q-11 -53 10.5 -91t63.5 -38z" />
<glyph unicode="&#xb1;" horiz-adv-x="522" d="M526 727l-4 -20h-209l-51 -242h-22l51 242h-209l4 20h209l51 242h23l-52 -242h209zM8 360h441l-5 -20h-440z" />
<glyph unicode="&#xb2;" horiz-adv-x="495" d="M551 1024h8q-24 -110 -64 -165.5t-114 -55.5q-48 0 -115 29.5t-86 29.5q-32 0 -47 -43h-16q10 102 44 160.5t87 99.5q14 11 53 37.5t59.5 44t49 48.5t45 71.5t24.5 91.5q8 56 8 93t-13.5 56t-43.5 19q-55 0 -98.5 -30.5t-59.5 -96.5q20 27 58 27q32 0 46 -26t9 -60 q-4 -34 -25 -51t-49 -17q-38 0 -52 33t-3 88q14 69 60 107t116 38q86 0 138.5 -55.5t29.5 -165.5q-11 -50 -32 -85.5t-56 -60t-66 -39.5t-84 -37.5t-88 -41.5q-20 -10 -36 -21.5t-38 -34.5t-39.5 -62.5t-27.5 -92.5h4q22 60 54 85.5t85 25.5q47 0 108 -22.5t79 -22.5 q63 0 88 102z" />
<glyph unicode="&#xb3;" horiz-adv-x="497" d="M268 819q107 0 148 197q22 92 4 142t-82 50l2 13q62 0 93.5 40t49.5 128q17 67 10 109t-51 42q-127 0 -151 -115q22 35 61 35q29 0 41.5 -28.5t3.5 -67.5q-6 -26 -24 -41.5t-41 -15.5q-37 0 -52 37t-4 86q14 63 59.5 92.5t108.5 29.5q84 0 129.5 -46t30.5 -122 q-8 -38 -28 -68t-46.5 -48.5t-51 -29.5t-50.5 -17v-2q81 -10 112.5 -77.5t12.5 -150.5q-21 -94 -90.5 -141t-161.5 -47q-98 0 -133.5 51t-20.5 127q10 50 35 78t56 28q30 0 45.5 -25.5t9.5 -62.5t-29 -60.5t-51 -23.5q-26 0 -51 25q-6 -54 25.5 -87.5t80.5 -33.5z" />
<glyph unicode="&#xb4;" horiz-adv-x="366" d="M471 1638l-197 -225l9 -12l241 237h-53z" />
<glyph unicode="&#xb5;" horiz-adv-x="1144" d="M840 84q-10 -42 2 -63t35 -21q50 0 97.5 80t76.5 215h16q-21 -95 -45.5 -158.5t-53.5 -98.5t-59.5 -49t-68.5 -14q-84 0 -122 50.5t-40 126.5h-8q-109 -185 -318 -185q-48 0 -102 21l-82 -385h-330l4 16h140l297 1389h-142l4 16h330l-149 -700q-34 -161 -15 -247.5 t88 -86.5q86 0 174 69.5t117 186.5l164 778h78q65 0 119 33z" />
<glyph unicode="&#xb6;" horiz-adv-x="665" d="M819 1434l-4 -17h-108l-392 -1835h111l-2 -12h-131l393 1847h-162l-393 -1847h-129l2 12h109l241 1135h-18q-64 0 -111.5 51t-63.5 134.5t3 191.5q30 144 126.5 242t196.5 98h332z" />
<glyph unicode="&#xb7;" horiz-adv-x="487" d="M223 397q-49 0 -79.5 37t-18.5 90q12 55 52.5 91t90.5 36q48 0 78.5 -37t20.5 -90q-11 -54 -52 -90.5t-92 -36.5z" />
<glyph unicode="&#xb8;" horiz-adv-x="458" d="M37 -391q-70 0 -98 44.5t-15 117.5h17q-11 -63 9 -104.5t73 -41.5q75 0 92 76q13 59 -30.5 88t-123.5 29l135 166h21l-56 -68q70 0 119 -45t33 -125q-13 -70 -63 -103.5t-113 -33.5z" />
<glyph unicode="&#xb9;" horiz-adv-x="387" d="M326 831h69l-4 -12h-264l4 12h70l114 545q7 35 1 44.5t-33 9.5h-25l2 10q136 33 209 112h8z" />
<glyph unicode="&#xba;" horiz-adv-x="589" d="M373 866q-101 0 -149 91t-15 245q30 140 112 218.5t181 78.5q103 0 151 -90.5t15 -243.5q-30 -141 -112 -220t-183 -79zM373 879q57 0 97 70.5t79 250.5q24 112 24.5 176t-17.5 87.5t-56 23.5q-55 0 -94 -70.5t-78 -251.5q-24 -112 -25 -176t16 -87t54 -23z" />
<glyph unicode="&#xbb;" horiz-adv-x="854" d="M440 532l-266 365l-8 -16l137 -353l-289 -352l4 -16l420 364zM772 532l-266 365l-8 -16l137 -353l-289 -352l4 -16l420 364z" />
<glyph unicode="&#xbc;" horiz-adv-x="993" d="M856 1466h23l-691 -1499h-22zM373 729l-4 -12h-265l5 12h69l115 545q7 35 0.5 44t-33.5 9h-24l2 10q134 33 208 113h9l-152 -721h70zM807 219q26 0 41 19.5t35 80.5h8l-35 -112h-68l-40 -195h71l-4 -12h-266l4 12h70l41 195h-209l2 6l309 504h131l-106 -498h16zM668 219 l102 479l-295 -479h193z" />
<glyph unicode="&#xbd;" horiz-adv-x="1013" d="M836 1466h22l-690 -1499h-23zM303 729h70l-4 -12h-265l5 12h69l115 545q7 35 0.5 44t-33.5 9h-24l2 10q134 33 208 113h9zM879 205h8q-24 -110 -64 -165.5t-114 -55.5q-48 0 -115 29.5t-86 29.5q-32 0 -47 -43h-17q10 102 44 160.5t87 99.5q15 11 44.5 31.5t48.5 34 t44.5 38t42 48.5t31.5 61t21 80q8 56 8 93t-13.5 56t-43.5 19q-55 0 -98.5 -30.5t-59.5 -96.5q20 27 57 27q32 0 46.5 -26t9.5 -60q-4 -34 -25 -51t-49 -17q-38 0 -52 33t-3 88q14 69 60 107t116 38q86 0 138.5 -55.5t29.5 -165.5q-11 -50 -32 -85.5t-56 -60t-66 -39.5 t-84 -37.5t-88 -41.5q-20 -10 -36 -21.5t-38 -34.5t-39.5 -62.5t-27.5 -92.5h4q22 60 54 85t85 25q47 0 108 -22.5t79 -22.5q63 0 88 103z" />
<glyph unicode="&#xbe;" horiz-adv-x="1075" d="M938 1466h23l-691 -1499h-22zM530 889q-21 -94 -90.5 -141.5t-160.5 -47.5q-98 0 -133.5 51.5t-20.5 127.5q10 50 34.5 78t55.5 28q30 0 45.5 -25.5t9.5 -62.5t-29 -60.5t-51 -23.5q-26 0 -51 25q-6 -54 26 -87.5t81 -33.5q107 0 147 196q22 92 4 142.5t-82 50.5l2 12 q62 0 94 40t50 128q17 68 10 110t-51 42q-128 0 -152 -115q8 13 25.5 24t36.5 11q29 0 41.5 -28.5t3.5 -67.5q-6 -26 -24.5 -42t-41.5 -16q-37 0 -51.5 36.5t-3.5 86.5q14 63 60 93t108 30q84 0 129.5 -46t30.5 -122q-15 -71 -66.5 -111t-109.5 -53v-2q81 -10 112 -77 t12 -150zM889 219q26 0 41 19.5t35 80.5h8l-35 -112h-68l-41 -195h72l-4 -12h-266l4 12h70l40 195h-208l2 6l309 504h131l-107 -498h17zM750 219l102 479l-295 -479h193z" />
<glyph unicode="&#xbf;" horiz-adv-x="663" d="M428 791q-55 0 -77.5 41.5t-10.5 93.5q14 63 55.5 97t87.5 34q53 0 75.5 -41.5t10.5 -93.5q-14 -63 -55 -97t-86 -34zM406 674h16q12 -142 -92 -299q-12 -18 -70 -102t-85.5 -129.5t-65 -129.5t-54.5 -164q-69 -323 131 -323q98 0 182 70.5t97 166.5q1 6 -1 7 q-2 0 -13 -13q-56 -63 -107 -63q-54 0 -82.5 50t-13.5 126q15 71 57 110t96 39q67 0 95 -59.5t8 -153.5q-12 -59 -38.5 -110t-69.5 -96t-110 -71t-151 -26q-165 0 -230.5 103.5t-27.5 277.5q18 84 56.5 156t89 126t100 98.5t104.5 95.5t88 94q19 24 33.5 50t23.5 45.5t16 42 t9.5 34t5.5 28.5t3 19z" />
<glyph unicode="&#xc0;" d="M965 1556l-7 -12l-317 238h64zM881 16h127l-4 -16h-467l4 16h127l-25 486h-364l-234 -486h162l-4 -16h-281l4 16h94l699 1450h69zM289 522h354l-33 670z" />
<glyph unicode="&#xc1;" d="M965 1782l-318 -238l-6 12l260 226h64zM881 16h127l-4 -16h-467l4 16h127l-25 486h-364l-234 -486h162l-4 -16h-281l4 16h94l699 1450h69zM289 522h354l-33 670z" />
<glyph unicode="&#xc2;" d="M815 1733l-172 -185h-20l194 234h19l100 -234h-21zM881 16h127l-4 -16h-467l4 16h127l-25 486h-364l-234 -486h162l-4 -16h-281l4 16h94l699 1450h69zM289 522h354l-33 670z" />
<glyph unicode="&#xc3;" d="M711 1716q-30 0 -46 -21.5t-28 -62.5l-19 8q29 103 99 103q28 0 53.5 -18t41.5 -39.5t37.5 -39.5t43.5 -18t38 15t22 29t14 40l16 -8q-27 -102 -96 -102q-28 0 -54 18t-42 39t-37.5 39t-42.5 18zM881 16h127l-4 -16h-467l4 16h127l-25 486h-364l-234 -486h162l-4 -16 h-281l4 16h94l699 1450h69zM289 522h354l-33 670z" />
<glyph unicode="&#xc4;" d="M707 1610q-20 0 -31.5 17t-7.5 40t22.5 40t38.5 17t31 -17t6 -40q-3 -23 -21 -40t-38 -17zM872 1610q-20 0 -30.5 16.5t-5.5 40.5q3 23 21 40t38 17t31.5 -17t7.5 -40t-23.5 -40t-38.5 -17zM881 16h127l-4 -16h-467l4 16h127l-25 486h-364l-234 -486h162l-4 -16h-281 l4 16h94l699 1450h69zM289 522h354l-33 670z" />
<glyph unicode="&#xc5;" d="M774 1544q-43 0 -66 32.5t-12 90.5t49.5 91.5t81.5 33.5q42 0 66.5 -33.5t11.5 -91.5t-51 -90.5t-80 -32.5zM721 1667q-10 -49 6.5 -75.5t50.5 -26.5t63.5 26.5t39.5 75.5t-7 77t-51 28t-63 -28t-39 -77zM881 16h127l-4 -16h-467l4 16h127l-25 486h-364l-234 -486h162 l-4 -16h-281l4 16h94l699 1450h69zM289 522h354l-33 670z" />
<glyph unicode="&#xc6;" horiz-adv-x="1529" d="M791 1434h845l-80 -357h-12q10 58 11 104.5t-11.5 91.5t-40.5 76t-79 49.5t-124 18.5h-167l-140 -667h158q32 0 59.5 17.5t47 42.5t38.5 67t31.5 77.5t29.5 86.5q3 11 5 16h12l-135 -639h-14q1 16 4 46q5 52 6.5 76.5t2 62t-4.5 54t-15 35.5t-28.5 26t-44.5 7h-160 l-147 -709h209q313 0 421 482h13l-107 -498h-887l5 16h149l102 486h-405l-305 -486h166l-4 -16h-279l4 16h88l881 1401h-103zM748 522l188 895h-25l-561 -895h398z" />
<glyph unicode="&#xc7;" horiz-adv-x="1077" d="M1147 1434h16l-88 -410h-12q27 199 -35.5 310.5t-208.5 111.5q-155 0 -277 -179t-202 -552q-56 -254 -48 -415.5t65 -236.5t163 -75q158 0 288.5 139t182.5 385h21q-55 -251 -189 -398t-319 -147l-41 -51q70 0 118.5 -45t32.5 -125q-13 -70 -63 -103.5t-113 -33.5 q-70 0 -97.5 44.5t-14.5 117.5h16q-11 -63 9 -104.5t73 -41.5q75 0 92 76q13 59 -30.5 88t-123.5 29l123 149q-143 6 -243 102.5t-133.5 263.5t12.5 394q36 165 108.5 305t166 234.5t203 147t220.5 52.5q57 0 103.5 -16.5t70 -36.5t46 -36.5t36.5 -16.5q24 0 40.5 17.5 t31.5 56.5z" />
<glyph unicode="&#xc8;" horiz-adv-x="1019" d="M946 1556l-6 -12l-317 238h63zM231 1434h893l-77 -357h-13q11 57 11.5 104t-12 92t-41 76t-80 49.5t-124.5 18.5h-215l-139 -669h174q28 0 52 11.5t44.5 36.5t35.5 49t31 66.5t25.5 69.5t24.5 76h13l-138 -639h-12q5 41 8.5 68t6 60t1.5 53.5t-4 43.5t-10 36.5t-18 25.5 t-27.5 17t-38.5 5h-172l-149 -711h256q313 0 421 482h13l-109 -498h-932l4 16h150l293 1401h-150z" />
<glyph unicode="&#xc9;" horiz-adv-x="1019" d="M946 1782l-317 -238l-6 12l260 226h63zM231 1434h893l-77 -357h-13q11 57 11.5 104t-12 92t-41 76t-80 49.5t-124.5 18.5h-215l-139 -669h174q28 0 52 11.5t44.5 36.5t35.5 49t31 66.5t25.5 69.5t24.5 76h13l-138 -639h-12q5 41 8.5 68t6 60t1.5 53.5t-4 43.5t-10 36.5 t-18 25.5t-27.5 17t-38.5 5h-172l-149 -711h256q313 0 421 482h13l-109 -498h-932l4 16h150l293 1401h-150z" />
<glyph unicode="&#xca;" horiz-adv-x="1019" d="M797 1733l-172 -185h-21l195 234h18l101 -234h-21zM231 1434h893l-77 -357h-13q11 57 11.5 104t-12 92t-41 76t-80 49.5t-124.5 18.5h-215l-139 -669h174q28 0 52 11.5t44.5 36.5t35.5 49t31 66.5t25.5 69.5t24.5 76h13l-138 -639h-12q5 41 8.5 68t6 60t1.5 53.5t-4 43.5 t-10 36.5t-18 25.5t-27.5 17t-38.5 5h-172l-149 -711h256q313 0 421 482h13l-109 -498h-932l4 16h150l293 1401h-150z" />
<glyph unicode="&#xcb;" horiz-adv-x="1019" d="M688 1610q-20 0 -31.5 17t-7.5 40t23 40t39 17t31 -17t6 -40q-3 -23 -21 -40t-39 -17zM854 1610q-20 0 -31 17t-6 40q3 23 21 40t39 17q20 0 31.5 -17t6.5 -40q-4 -23 -23 -40t-38 -17zM231 1434h893l-77 -357h-13q11 57 11.5 104t-12 92t-41 76t-80 49.5t-124.5 18.5 h-215l-139 -669h174q28 0 52 11.5t44.5 36.5t35.5 49t31 66.5t25.5 69.5t24.5 76h13l-138 -639h-12q5 41 8.5 68t6 60t1.5 53.5t-4 43.5t-10 36.5t-18 25.5t-27.5 17t-38.5 5h-172l-149 -711h256q313 0 421 482h13l-109 -498h-932l4 16h150l293 1401h-150z" />
<glyph unicode="&#xcc;" horiz-adv-x="565" d="M430 1782h-63l317 -238l6 12zM231 1434h496l-4 -17h-150l-297 -1401h150l-4 -16h-496l4 16h150l297 1401h-150z" />
<glyph unicode="&#xcd;" horiz-adv-x="565" d="M627 1782l-260 -226l6 -12l317 238h-63zM231 1434h496l-4 -17h-150l-297 -1401h150l-4 -16h-496l4 16h150l297 1401h-150z" />
<glyph unicode="&#xce;" horiz-adv-x="565" d="M348 1548l195 234h18l101 -234h-21l-100 185l-172 -185h-21zM231 1434h496l-4 -17h-150l-297 -1401h150l-4 -16h-496l4 16h150l297 1401h-150z" />
<glyph unicode="&#xcf;" horiz-adv-x="565" d="M432 1610q-20 0 -31.5 17t-7.5 40t23 40t39 17t31 -17t6 -40q-3 -23 -21 -40t-39 -17zM598 1610q-20 0 -31 17t-6 40q3 23 21 40t39 17q20 0 31.5 -17t6.5 -40q-4 -23 -23 -40t-38 -17zM231 1434h496l-4 -17h-150l-297 -1401h150l-4 -16h-496l4 16h150l297 1401h-150z " />
<glyph unicode="&#xd0;" horiz-adv-x="1218" d="M741 1442q288 0 404 -187t39 -555q-26 -126 -68.5 -231.5t-106.5 -194.5t-146 -151t-191 -96.5t-238 -34.5q-36 0 -112 4t-121 4h-275l4 16h150l145 691h-92l4 20h94l146 690h-150l4 17h275q45 0 123 4t112 4zM965 715q28 131 40 234t10.5 177t-18.5 127t-42 86t-65 52 t-82.5 25.5t-100.5 6.5q-17 0 -39.5 -1t-51 -2.5t-43.5 -2.5l-145 -690h197l-4 -20h-199l-146 -691q15 -1 41 -2.5t47 -2.5t39 -1q87 0 151.5 16.5t127 61.5t110.5 124t92 203.5t81 299.5z" />
<glyph unicode="&#xd1;" horiz-adv-x="1193" d="M670 1640q15 53 38.5 78t59.5 25q28 0 53.5 -18t41.5 -39.5t37.5 -39.5t43.5 -18t38 15t22 29t14 40l16 -8q-27 -102 -96 -102q-28 0 -54 18t-42 39t-37.5 39t-42.5 18q-30 0 -46 -21.5t-28 -62.5zM1038 1434h322l-4 -17h-150l-303 -1433h-16l-518 1259h-7l-258 -1227 h150l-4 -16h-322l4 16h150l295 1401h-150l6 17h295l428 -1053h9l219 1036h-150z" />
<glyph unicode="&#xd2;" horiz-adv-x="1273" d="M770 1782h-63l317 -238l6 12zM1237 698q-36 -164 -111 -303t-171.5 -231.5t-208 -144.5t-222.5 -52q-150 0 -259 96t-149 266.5t7 405.5q35 164 110.5 303t172.5 231.5t209 144.5t223 52q150 0 259 -96t148.5 -266.5t-8.5 -405.5zM524 -16q340 0 502 751 q152 715 -188 715q-166 0 -294 -187t-210 -567q-151 -712 190 -712z" />
<glyph unicode="&#xd3;" horiz-adv-x="1273" d="M967 1782l-260 -226l6 -12l317 238h-63zM1237 698q-36 -164 -111 -303t-171.5 -231.5t-208 -144.5t-222.5 -52q-150 0 -259 96t-149 266.5t7 405.5q35 164 110.5 303t172.5 231.5t209 144.5t223 52q150 0 259 -96t148.5 -266.5t-8.5 -405.5zM524 -16q340 0 502 751 q152 715 -188 715q-166 0 -294 -187t-210 -567q-151 -712 190 -712z" />
<glyph unicode="&#xd4;" horiz-adv-x="1273" d="M688 1548l195 234h18l100 -234h-20l-100 185l-172 -185h-21zM1237 698q-36 -164 -111 -303t-171.5 -231.5t-208 -144.5t-222.5 -52q-150 0 -259 96t-149 266.5t7 405.5q35 164 110.5 303t172.5 231.5t209 144.5t223 52q150 0 259 -96t148.5 -266.5t-8.5 -405.5zM524 -16 q340 0 502 751q152 715 -188 715q-166 0 -294 -187t-210 -567q-151 -712 190 -712z" />
<glyph unicode="&#xd5;" horiz-adv-x="1273" d="M684 1640q15 53 38.5 78t59.5 25q28 0 53.5 -18t41.5 -39.5t37.5 -39.5t43.5 -18t38 15t22 29t14 40l17 -8q-27 -102 -97 -102q-28 0 -54 18t-42 39t-37.5 39t-42.5 18q-30 0 -46 -21.5t-28 -62.5zM1237 698q-36 -164 -111 -303t-171.5 -231.5t-208 -144.5t-222.5 -52 q-150 0 -259 96t-149 266.5t7 405.5q35 164 110.5 303t172.5 231.5t209 144.5t223 52q150 0 259 -96t148.5 -266.5t-8.5 -405.5zM524 -16q340 0 502 751q152 715 -188 715q-166 0 -294 -187t-210 -567q-151 -712 190 -712z" />
<glyph unicode="&#xd6;" horiz-adv-x="1273" d="M772 1610q-20 0 -31.5 17t-7.5 40t23 40t39 17t30.5 -16.5t5.5 -40.5q-3 -23 -21 -40t-38 -17zM938 1610q-20 0 -31 17t-6 40q3 23 21 40t39 17q20 0 31.5 -17t6.5 -40q-4 -23 -23 -40t-38 -17zM1237 698q-36 -164 -111 -303t-171.5 -231.5t-208 -144.5t-222.5 -52 q-150 0 -259 96t-149 266.5t7 405.5q35 164 110.5 303t172.5 231.5t209 144.5t223 52q150 0 259 -96t148.5 -266.5t-8.5 -405.5zM524 -16q340 0 502 751q152 715 -188 715q-166 0 -294 -187t-210 -567q-151 -712 190 -712z" />
<glyph unicode="&#xd7;" horiz-adv-x="393" d="M430 881l-178 -166l106 -166l-14 -12l-106 163l-177 -163l-12 14l178 166l-106 164l16 14l105 -164l178 166z" />
<glyph unicode="&#xd8;" horiz-adv-x="1273" d="M1135 1333q89 -103 117 -262t-15 -373q-36 -164 -111 -303t-171.5 -231.5t-208 -144.5t-222.5 -52q-183 0 -303 142l-106 -142h-29l121 160q-78 105 -101 256.5t17 351.5q35 164 110.5 303t172.5 231.5t209 144.5t223 52q167 0 280 -116l88 116h29zM334 696 q-61 -287 -43 -454l766 1024q-48 184 -219 184q-166 0 -294 -187t-210 -567zM1026 735q68 319 37 500l-768 -1026q36 -225 229 -225q340 0 502 751z" />
<glyph unicode="&#xd9;" horiz-adv-x="1228" d="M848 1782h-64l318 -238l6 12zM1073 1434h322l-4 -17h-150l-207 -977q-20 -95 -58 -177.5t-95.5 -150t-140.5 -106.5t-183 -39q-76 0 -141.5 19.5t-121 62t-87.5 108t-41 158t18 213.5l189 889h-150l4 17h496l-4 -17h-150l-202 -956q-25 -131 -22.5 -221t34 -146t78 -81 t108.5 -25q162 0 282 120t163 322l209 987h-150z" />
<glyph unicode="&#xda;" horiz-adv-x="1228" d="M1044 1782l-260 -226l7 -12l317 238h-64zM1073 1434h322l-4 -17h-150l-207 -977q-20 -95 -58 -177.5t-95.5 -150t-140.5 -106.5t-183 -39q-76 0 -141.5 19.5t-121 62t-87.5 108t-41 158t18 213.5l189 889h-150l4 17h496l-4 -17h-150l-202 -956q-25 -131 -22.5 -221 t34 -146t78 -81t108.5 -25q162 0 282 120t163 322l209 987h-150z" />
<glyph unicode="&#xdb;" horiz-adv-x="1228" d="M766 1548l195 234h18l100 -234h-20l-101 185l-172 -185h-20zM1073 1434h322l-4 -17h-150l-207 -977q-20 -95 -58 -177.5t-95.5 -150t-140.5 -106.5t-183 -39q-76 0 -141.5 19.5t-121 62t-87.5 108t-41 158t18 213.5l189 889h-150l4 17h496l-4 -17h-150l-202 -956 q-25 -131 -22.5 -221t34 -146t78 -81t108.5 -25q162 0 282 120t163 322l209 987h-150z" />
<glyph unicode="&#xdc;" horiz-adv-x="1228" d="M850 1610q-20 0 -31.5 17t-7.5 40t22.5 40t38.5 17t31 -17t6 -40q-3 -23 -21 -40t-38 -17zM1016 1610q-20 0 -31 17t-6 40q3 23 21 40t38 17t31.5 -17t7.5 -40t-23 -40t-38 -17zM1073 1434h322l-4 -17h-150l-207 -977q-20 -95 -58 -177.5t-95.5 -150t-140.5 -106.5 t-183 -39q-76 0 -141.5 19.5t-121 62t-87.5 108t-41 158t18 213.5l189 889h-150l4 17h496l-4 -17h-150l-202 -956q-25 -131 -22.5 -221t34 -146t78 -81t108.5 -25q162 0 282 120t163 322l209 987h-150z" />
<glyph unicode="&#xdd;" horiz-adv-x="1091" d="M954 1782l-260 -226l6 -12l318 238h-64zM981 1434h276l-4 -17h-92l-436 -710l-145 -691h149l-4 -16h-496l4 16h150l139 664l-174 737h-125l4 17h463l-4 -17h-135l160 -690l424 690h-158z" />
<glyph unicode="&#xde;" horiz-adv-x="954" d="M666 1165q59 0 106.5 -14t86.5 -45.5t59.5 -81.5t25 -122.5t-17.5 -168.5q-85 -403 -455 -403h-129l-66 -314h150l-4 -16h-496l4 16h150l297 1401h-150l4 17h496l-4 -17h-150l-53 -252h146zM727 750q23 105 28 180t-2.5 116t-29 64t-43.5 29t-55 6h-109l-168 -795h98 q70 0 117.5 33.5t88 121.5t75.5 245z" />
<glyph unicode="&#xdf;" horiz-adv-x="1007" d="M817 649q26 -26 41.5 -43.5t35.5 -44t30 -52t18 -59t6.5 -74t-10.5 -87.5q-16 -83 -52 -146.5t-84.5 -101t-103.5 -56t-114 -18.5q-107 0 -158.5 57.5t-32.5 151.5q21 111 111 111q48 0 67.5 -31t8.5 -84q-5 -26 -25 -44t-40 -26.5t-37.5 -21.5t-18.5 -29 q-2 -24 30.5 -45.5t96.5 -21.5q36 0 66.5 16.5t52 44t36.5 57t25 62.5q14 48 15 86t-14.5 76.5t-37.5 71t-63 83.5q-30 38 -46 59.5t-35 53.5t-25.5 57.5t-6.5 59t10 69.5q15 56 53 108t72 82.5t90 73.5q15 11 49.5 34.5t54 39.5t44 40.5t37.5 55t16 66.5q6 87 -48 145 t-161 58q-105 0 -169 -72t-103 -244l-240 -1134q-20 -92 -52.5 -176.5t-77 -158t-104.5 -117.5t-126 -44q-56 0 -90 31t-40 77.5t3 100.5q22 102 96 102q41 0 56 -31.5t1 -70.5q-9 -24 -27.5 -40.5t-35.5 -24t-31.5 -21t-17.5 -33.5q-4 -27 14.5 -50t58.5 -23q47 0 76 47 q29 48 49 145l277 1319q47 208 171 321t320 113q109 0 173 -64.5t46 -174.5q-6 -35 -18.5 -65.5t-34.5 -59t-34.5 -42.5t-42.5 -41t-33 -30q-46 -44 -73.5 -81.5t-37.5 -80.5q-21 -96 94 -211z" />
<glyph unicode="&#xe0;" horiz-adv-x="1050" d="M567 1372h-53l242 -237l8 12zM952 1057l-209 -983q-7 -34 3.5 -54t35.5 -20q47 0 94.5 73.5t79.5 221.5h17q-18 -85 -41.5 -146t-46 -94t-50.5 -52t-49 -23.5t-49 -4.5q-72 0 -109 42.5t-42 111.5h-6q-35 -68 -99 -115t-149 -47q-164 0 -235 147.5t-19 403.5 q50 248 179 393.5t290 145.5q135 0 178 -144h8l25 111h41q61 0 89 5.5t64 27.5zM338 -16q89 0 159.5 69t86.5 152l123 586q18 107 -27 178t-121 71q-89 0 -157 -132t-119 -400q-25 -133 -35.5 -225t-7 -162t28 -103.5t69.5 -33.5z" />
<glyph unicode="&#xe1;" horiz-adv-x="1050" d="M717 1372l-197 -225l8 -12l242 237h-53zM952 1057l-209 -983q-7 -34 3.5 -54t35.5 -20q47 0 94.5 73.5t79.5 221.5h17q-18 -85 -41.5 -146t-46 -94t-50.5 -52t-49 -23.5t-49 -4.5q-72 0 -109 42.5t-42 111.5h-6q-35 -68 -99 -115t-149 -47q-164 0 -235 147.5t-19 403.5 q50 248 179 393.5t290 145.5q135 0 178 -144h8l25 111h41q61 0 89 5.5t64 27.5zM338 -16q89 0 159.5 69t86.5 152l123 586q18 107 -27 178t-121 71q-89 0 -157 -132t-119 -400q-25 -133 -35.5 -225t-7 -162t28 -103.5t69.5 -33.5z" />
<glyph unicode="&#xe2;" horiz-adv-x="1050" d="M461 1139l194 233h19l100 -233h-20l-101 184l-172 -184h-20zM952 1057l-209 -983q-7 -34 3.5 -54t35.5 -20q47 0 94.5 73.5t79.5 221.5h17q-18 -85 -41.5 -146t-46 -94t-50.5 -52t-49 -23.5t-49 -4.5q-72 0 -109 42.5t-42 111.5h-6q-35 -68 -99 -115t-149 -47 q-164 0 -235 147.5t-19 403.5q50 248 179 393.5t290 145.5q135 0 178 -144h8l25 111h41q61 0 89 5.5t64 27.5zM338 -16q89 0 159.5 69t86.5 152l123 586q18 107 -27 178t-121 71q-89 0 -157 -132t-119 -400q-25 -133 -35.5 -225t-7 -162t28 -103.5t69.5 -33.5z" />
<glyph unicode="&#xe3;" horiz-adv-x="1050" d="M457 1231q15 53 38.5 77.5t59.5 24.5q28 0 53.5 -18t41.5 -39t37.5 -39t43.5 -18t38 15t22 29t14 40l16 -9q-27 -102 -96 -102q-28 0 -54 18t-42 39.5t-37.5 39.5t-42.5 18q-30 0 -46 -21.5t-28 -62.5zM952 1057l-209 -983q-7 -34 3.5 -54t35.5 -20q47 0 94.5 73.5 t79.5 221.5h17q-18 -85 -41.5 -146t-46 -94t-50.5 -52t-49 -23.5t-49 -4.5q-72 0 -109 42.5t-42 111.5h-6q-35 -68 -99 -115t-149 -47q-164 0 -235 147.5t-19 403.5q50 248 179 393.5t290 145.5q135 0 178 -144h8l25 111h41q61 0 89 5.5t64 27.5zM338 -16q89 0 159.5 69 t86.5 152l123 586q18 107 -27 178t-121 71q-89 0 -157 -132t-119 -400q-25 -133 -35.5 -225t-7 -162t28 -103.5t69.5 -33.5z" />
<glyph unicode="&#xe4;" horiz-adv-x="1050" d="M545 1200q-20 0 -31.5 17t-7.5 40q5 23 23 40.5t38 17.5t31 -17t6 -41q-3 -23 -21 -40t-38 -17zM711 1200q-20 0 -31 17t-6 40q3 23 21 40.5t38 17.5t32 -17.5t7 -40.5q-4 -23 -23 -40t-38 -17zM952 1057l-209 -983q-7 -34 3.5 -54t35.5 -20q47 0 94.5 73.5t79.5 221.5 h17q-18 -85 -41.5 -146t-46 -94t-50.5 -52t-49 -23.5t-49 -4.5q-72 0 -109 42.5t-42 111.5h-6q-35 -68 -99 -115t-149 -47q-164 0 -235 147.5t-19 403.5q50 248 179 393.5t290 145.5q135 0 178 -144h8l25 111h41q61 0 89 5.5t64 27.5zM338 -16q89 0 159.5 69t86.5 152 l123 586q18 107 -27 178t-121 71q-89 0 -157 -132t-119 -400q-25 -133 -35.5 -225t-7 -162t28 -103.5t69.5 -33.5z" />
<glyph unicode="&#xe5;" horiz-adv-x="1050" d="M612 1135q-43 0 -65.5 32t-11.5 90t49.5 91.5t81.5 33.5q42 0 66 -33.5t11 -91.5t-51 -90t-80 -32zM616 1155q34 0 63.5 26.5t39.5 75.5t-6.5 77t-50.5 28t-63.5 -28t-39.5 -77t6.5 -75.5t50.5 -26.5zM952 1057l-209 -983q-7 -34 3.5 -54t35.5 -20q47 0 94.5 73.5 t79.5 221.5h17q-18 -85 -41.5 -146t-46 -94t-50.5 -52t-49 -23.5t-49 -4.5q-72 0 -109 42.5t-42 111.5h-6q-35 -68 -99 -115t-149 -47q-164 0 -235 147.5t-19 403.5q50 248 179 393.5t290 145.5q135 0 178 -144h8l25 111h41q61 0 89 5.5t64 27.5zM338 -16q89 0 159.5 69 t86.5 152l123 586q18 107 -27 178t-121 71q-89 0 -157 -132t-119 -400q-25 -133 -35.5 -225t-7 -162t28 -103.5t69.5 -33.5z" />
<glyph unicode="&#xe6;" horiz-adv-x="1470" d="M1192 1057q135 0 204 -74.5t48 -183.5q-15 -80 -73.5 -138t-145.5 -88.5t-179 -44.5t-194 -14q-113 -528 111 -528q124 0 222.5 93t164.5 255l16 -8q-75 -174 -176 -266.5t-252 -92.5q-149 0 -225 88.5t-84 243.5h-11q-38 -170 -108.5 -251t-177.5 -81q-164 0 -235 147.5 t-19 403.5q51 249 181.5 394t301.5 145q58 0 104.5 -41t59.5 -115h8l15 76h75q105 0 160 27q101 53 209 53zM1268 819q22 106 3 165.5t-85 59.5q-217 0 -330 -514q108 0 180 15.5t119 52t72.5 88.5t40.5 133zM606 324l101 467q18 106 -28 177.5t-120 71.5 q-91 0 -157.5 -130.5t-118.5 -401.5q-50 -252 -34.5 -385t107.5 -133q50 0 92.5 27.5t72 76.5t50.5 105.5t35 124.5z" />
<glyph unicode="&#xe7;" horiz-adv-x="909" d="M604 1057q133 0 204.5 -80.5t49.5 -188.5q-11 -53 -43 -91t-88 -38q-58 0 -81 42.5t-11 95.5q6 30 22 53.5t32 36t31.5 31t20.5 40.5q7 29 -15 48t-55.5 26.5t-74.5 7.5q-51 0 -91 -21.5t-70.5 -60.5t-57 -106t-47.5 -144.5t-45 -189.5q-60 -289 -39.5 -410.5 t121.5 -121.5q128 0 236 91t175 257l17 -8q-72 -168 -178.5 -260.5t-237.5 -98.5l-43 -51q70 0 118.5 -45t32.5 -125q-13 -70 -63 -103.5t-113 -33.5q-70 0 -97.5 44.5t-14.5 117.5h16q-11 -63 9 -104.5t73 -41.5q75 0 92 76q13 59 -30 88t-123 29l120 149q-79 0 -138 31.5 t-93 85.5t-50.5 126t-14.5 152.5t20 165.5q20 97 61.5 186.5t104.5 168.5t156 126.5t202 47.5z" />
<glyph unicode="&#xe8;" horiz-adv-x="899" d="M532 1372h-53l242 -237l8 12zM391 -14q124 0 222.5 93t164.5 255l17 -8q-75 -174 -176 -266.5t-252 -92.5q-82 0 -143.5 29t-98 80t-53.5 122t-14.5 155t22.5 179q21 99 69.5 192t117.5 167.5t161.5 120t192.5 45.5q135 0 203.5 -74.5t47.5 -183.5q-15 -80 -73 -138 t-145.5 -88.5t-179.5 -44.5t-193 -14q-113 -528 110 -528zM614 1044q-216 0 -329 -514q143 0 226.5 30.5t124 90.5t60.5 168q22 106 3 165.5t-85 59.5z" />
<glyph unicode="&#xe9;" horiz-adv-x="899" d="M682 1372l-197 -225l9 -12l241 237h-53zM391 -14q124 0 222.5 93t164.5 255l17 -8q-75 -174 -176 -266.5t-252 -92.5q-82 0 -143.5 29t-98 80t-53.5 122t-14.5 155t22.5 179q21 99 69.5 192t117.5 167.5t161.5 120t192.5 45.5q135 0 203.5 -74.5t47.5 -183.5 q-15 -80 -73 -138t-145.5 -88.5t-179.5 -44.5t-193 -14q-113 -528 110 -528zM614 1044q-216 0 -329 -514q143 0 226.5 30.5t124 90.5t60.5 168q22 106 3 165.5t-85 59.5z" />
<glyph unicode="&#xea;" horiz-adv-x="899" d="M426 1139l195 233h18l100 -233h-20l-101 184l-172 -184h-20zM391 -14q124 0 222.5 93t164.5 255l17 -8q-75 -174 -176 -266.5t-252 -92.5q-82 0 -143.5 29t-98 80t-53.5 122t-14.5 155t22.5 179q21 99 69.5 192t117.5 167.5t161.5 120t192.5 45.5q135 0 203.5 -74.5 t47.5 -183.5q-15 -80 -73 -138t-145.5 -88.5t-179.5 -44.5t-193 -14q-113 -528 110 -528zM614 1044q-216 0 -329 -514q143 0 226.5 30.5t124 90.5t60.5 168q22 106 3 165.5t-85 59.5z" />
<glyph unicode="&#xeb;" horiz-adv-x="899" d="M510 1200q-20 0 -31.5 17t-7.5 40q5 23 23 40.5t38 17.5t31 -17t6 -41q-3 -23 -21 -40t-38 -17zM676 1200q-20 0 -31 17t-6 40q3 23 21 40.5t38 17.5t32 -17.5t7 -40.5q-4 -23 -23 -40t-38 -17zM391 -14q124 0 222.5 93t164.5 255l17 -8q-75 -174 -176 -266.5t-252 -92.5 q-82 0 -143.5 29t-98 80t-53.5 122t-14.5 155t22.5 179q21 99 69.5 192t117.5 167.5t161.5 120t192.5 45.5q135 0 203.5 -74.5t47.5 -183.5q-15 -80 -73 -138t-145.5 -88.5t-179.5 -44.5t-193 -14q-113 -528 110 -528zM614 1044q-216 0 -329 -514q143 0 226.5 30.5t124 90.5 t60.5 168q22 106 3 165.5t-85 59.5z" />
<glyph unicode="&#xec;" horiz-adv-x="573" d="M365 1454h-54l242 -237l8 12zM479 295h17q-37 -169 -92.5 -244.5t-131.5 -75.5q-110 0 -148 77t-5 212l157 744h-141l4 16h142q77 0 117.5 6.5t76.5 28.5l-207 -979q-8 -28 0 -54t35 -26q52 0 100.5 84t75.5 211z" />
<glyph unicode="&#xed;" horiz-adv-x="573" d="M514 1454l-197 -225l9 -12l241 237h-53zM479 295h17q-37 -169 -92.5 -244.5t-131.5 -75.5q-110 0 -148 77t-5 212l157 744h-141l4 16h142q77 0 117.5 6.5t76.5 28.5l-207 -979q-8 -28 0 -54t35 -26q52 0 100.5 84t75.5 211z" />
<glyph unicode="&#xee;" horiz-adv-x="573" d="M258 1221l195 233h18l100 -233h-20l-100 184l-172 -184h-21zM479 295h17q-37 -169 -92.5 -244.5t-131.5 -75.5q-110 0 -148 77t-5 212l157 744h-141l4 16h142q77 0 117.5 6.5t76.5 28.5l-207 -979q-8 -28 0 -54t35 -26q52 0 100.5 84t75.5 211z" />
<glyph unicode="&#xef;" horiz-adv-x="573" d="M342 1282q-20 0 -31.5 17t-7.5 40t23 40.5t39 17.5t30.5 -17t5.5 -41q-3 -23 -21 -40t-38 -17zM508 1282q-20 0 -31 17t-6 40q3 23 21 40.5t38 17.5t32 -17.5t7 -40.5q-4 -23 -23 -40t-38 -17zM479 295h17q-37 -169 -92.5 -244.5t-131.5 -75.5q-110 0 -148 77t-5 212 l157 744h-141l4 16h142q77 0 117.5 6.5t76.5 28.5l-207 -979q-8 -28 0 -54t35 -26q52 0 100.5 84t75.5 211z" />
<glyph unicode="&#xf0;" horiz-adv-x="935" d="M807 1372q191 -210 67 -797q-60 -287 -199 -447.5t-313 -160.5t-255.5 151.5t-26.5 411.5q35 164 114 285.5t180.5 181.5t213.5 60q61 0 96 -47.5t49 -120.5h10q20 114 15 232t-35 190l-100 -92l-11 12l103 94q-37 80 -80.5 119t-112.5 39l4 16q88 0 146 -24t116 -82 l93 86l12 -13l-94 -86zM696 610q18 85 20.5 161.5t-10 137t-45 96t-81.5 35.5q-101 0 -168.5 -119t-132.5 -425q-32 -148 -41 -248.5t4.5 -158t43 -81.5t79.5 -24q199 0 331 626z" />
<glyph unicode="&#xf1;" horiz-adv-x="1095" d="M598 1307q-30 0 -46 -21.5t-28 -62.5l-18 8q15 53 38.5 77.5t59.5 24.5q28 0 53.5 -18t41.5 -39t37.5 -39t43.5 -18t38 15t22 29t14 40l16 -9q-27 -102 -96 -102q-28 0 -54 18t-42 39.5t-37.5 39.5t-42.5 18zM1001 295h17q-37 -170 -92 -245t-131 -75q-110 0 -148 76.5 t-6 212.5l92 436q35 161 18.5 246.5t-83.5 85.5q-59 0 -132.5 -83t-125.5 -197l-158 -752h-189l213 1008h-141l4 16h140q77 0 118.5 6.5t77.5 28.5l-41 -195h8q69 101 130.5 147.5t140.5 45.5q136 -3 190 -97.5t10 -300.5l-122 -579q-8 -28 -0.5 -54t34.5 -26q52 0 100.5 84 t75.5 211z" />
<glyph unicode="&#xf2;" horiz-adv-x="952" d="M561 1372h-53l242 -237l8 12zM362 -33q-113 0 -190 67.5t-103 192.5t11 303q52 246 194.5 386.5t315.5 140.5q113 0 190 -67.5t103 -192.5t-11 -303q-52 -246 -194.5 -386.5t-315.5 -140.5zM362 -20q68 0 120 50.5t99.5 172t92.5 327.5q42 196 44 310.5t-30 159 t-100 44.5q-67 0 -118.5 -50t-99.5 -172.5t-91 -327.5q-41 -196 -43 -310.5t29 -159t97 -44.5z" />
<glyph unicode="&#xf3;" horiz-adv-x="952" d="M711 1372l-197 -225l8 -12l242 237h-53zM362 -33q-113 0 -190 67.5t-103 192.5t11 303q52 246 194.5 386.5t315.5 140.5q113 0 190 -67.5t103 -192.5t-11 -303q-52 -246 -194.5 -386.5t-315.5 -140.5zM362 -20q68 0 120 50.5t99.5 172t92.5 327.5q42 196 44 310.5 t-30 159t-100 44.5q-67 0 -118.5 -50t-99.5 -172.5t-91 -327.5q-41 -196 -43 -310.5t29 -159t97 -44.5z" />
<glyph unicode="&#xf4;" horiz-adv-x="952" d="M455 1139l194 233h19l100 -233h-20l-101 184l-172 -184h-20zM362 -33q-113 0 -190 67.5t-103 192.5t11 303q52 246 194.5 386.5t315.5 140.5q113 0 190 -67.5t103 -192.5t-11 -303q-52 -246 -194.5 -386.5t-315.5 -140.5zM362 -20q68 0 120 50.5t99.5 172t92.5 327.5 q42 196 44 310.5t-30 159t-100 44.5q-67 0 -118.5 -50t-99.5 -172.5t-91 -327.5q-41 -196 -43 -310.5t29 -159t97 -44.5z" />
<glyph unicode="&#xf5;" horiz-adv-x="952" d="M451 1231q15 53 38.5 77.5t59.5 24.5q28 0 53.5 -18t41.5 -39t37.5 -39t43.5 -18t38 15t22 29t14 40l16 -9q-27 -102 -96 -102q-28 0 -54 18t-42 39.5t-37.5 39.5t-42.5 18q-30 0 -46 -21.5t-28 -62.5zM362 -33q-113 0 -190 67.5t-103 192.5t11 303q52 246 194.5 386.5 t315.5 140.5q113 0 190 -67.5t103 -192.5t-11 -303q-52 -246 -194.5 -386.5t-315.5 -140.5zM362 -20q68 0 120 50.5t99.5 172t92.5 327.5q42 196 44 310.5t-30 159t-100 44.5q-67 0 -118.5 -50t-99.5 -172.5t-91 -327.5q-41 -196 -43 -310.5t29 -159t97 -44.5z" />
<glyph unicode="&#xf6;" horiz-adv-x="952" d="M539 1200q-20 0 -31.5 17t-7.5 40q5 23 23 40.5t38 17.5t31 -17t6 -41q-3 -23 -21 -40t-38 -17zM705 1200q-20 0 -31 17t-6 40q3 23 21 40.5t38 17.5t32 -17.5t7 -40.5q-4 -23 -23 -40t-38 -17zM362 -33q-113 0 -190 67.5t-103 192.5t11 303q52 246 194.5 386.5 t315.5 140.5q113 0 190 -67.5t103 -192.5t-11 -303q-52 -246 -194.5 -386.5t-315.5 -140.5zM362 -20q68 0 120 50.5t99.5 172t92.5 327.5q42 196 44 310.5t-30 159t-100 44.5q-67 0 -118.5 -50t-99.5 -172.5t-91 -327.5q-41 -196 -43 -310.5t29 -159t97 -44.5z" />
<glyph unicode="&#xf7;" horiz-adv-x="491" d="M356 963q15 0 24.5 -15t4.5 -30q-10 -44 -47 -44q-16 0 -24 15.5t-5 30.5q10 43 47 43zM100 727h410l-4 -20h-410zM268 559q16 0 24 -15t5 -30q-4 -20 -17 -31.5t-28 -11.5q-16 0 -24 14.5t-5 30.5q4 20 17 31.5t28 11.5z" />
<glyph unicode="&#xf8;" horiz-adv-x="952" d="M809 961q61 -72 78 -189t-15 -278q-52 -246 -194.5 -386.5t-315.5 -140.5q-134 0 -215 90l-65 -90h-29l80 109q-116 155 -53 454q52 246 194.5 386.5t315.5 140.5q125 0 203 -78l57 78h29zM279 494q-32 -149 -43 -277l483 660q-3 90 -35.5 128.5t-95.5 38.5 q-67 0 -118.5 -50t-99.5 -172.5t-91 -327.5zM674 530q42 189 45 308l-483 -662q-1 -107 29.5 -151.5t96.5 -44.5q68 0 120 50.5t99.5 172t92.5 327.5z" />
<glyph unicode="&#xf9;" d="M635 1372h-53l241 -237l8 12zM836 74q-6 -32 3.5 -53t34.5 -21q56 0 103.5 88t71.5 207h16q-39 -181 -94.5 -250.5t-124.5 -69.5q-85 0 -125 45t-45 132h-8q-109 -185 -308 -185q-60 0 -108 18.5t-85 60.5t-45.5 110t9.5 168l145 684h-141l4 16h330l-150 -702 q-32 -161 -13 -247.5t81 -86.5q105 0 190.5 78.5t106.5 179.5l164 778h33q69 0 97.5 5.5t65.5 27.5z" />
<glyph unicode="&#xfa;" d="M784 1372l-196 -225l8 -12l242 237h-54zM836 74q-6 -32 3.5 -53t34.5 -21q56 0 103.5 88t71.5 207h16q-39 -181 -94.5 -250.5t-124.5 -69.5q-85 0 -125 45t-45 132h-8q-109 -185 -308 -185q-60 0 -108 18.5t-85 60.5t-45.5 110t9.5 168l145 684h-141l4 16h330l-150 -702 q-32 -161 -13 -247.5t81 -86.5q105 0 190.5 78.5t106.5 179.5l164 778h33q69 0 97.5 5.5t65.5 27.5z" />
<glyph unicode="&#xfb;" d="M528 1139l195 233h18l101 -233h-21l-100 184l-172 -184h-21zM836 74q-6 -32 3.5 -53t34.5 -21q56 0 103.5 88t71.5 207h16q-39 -181 -94.5 -250.5t-124.5 -69.5q-85 0 -125 45t-45 132h-8q-109 -185 -308 -185q-60 0 -108 18.5t-85 60.5t-45.5 110t9.5 168l145 684h-141 l4 16h330l-150 -702q-32 -161 -13 -247.5t81 -86.5q105 0 190.5 78.5t106.5 179.5l164 778h33q69 0 97.5 5.5t65.5 27.5z" />
<glyph unicode="&#xfc;" d="M612 1200q-20 0 -31.5 17t-7.5 40t23 40.5t39 17.5t31 -17t6 -41q-3 -23 -21 -40t-39 -17zM778 1200q-20 0 -31 17t-6 40q3 23 21.5 40.5t38.5 17.5t32 -17.5t7 -40.5q-4 -23 -23.5 -40t-38.5 -17zM836 74q-6 -32 3.5 -53t34.5 -21q56 0 103.5 88t71.5 207h16 q-39 -181 -94.5 -250.5t-124.5 -69.5q-85 0 -125 45t-45 132h-8q-109 -185 -308 -185q-60 0 -108 18.5t-85 60.5t-45.5 110t9.5 168l145 684h-141l4 16h330l-150 -702q-32 -161 -13 -247.5t81 -86.5q105 0 190.5 78.5t106.5 179.5l164 778h33q69 0 97.5 5.5t65.5 27.5z" />
<glyph unicode="&#xfd;" horiz-adv-x="1036" d="M813 1372l-242 -237l-8 12l197 225h53zM924 1057q59 0 87.5 -40t28.5 -102q0 -64 -26 -127q-113 -278 -229.5 -501.5t-239.5 -394t-249 -263t-245 -92.5q-109 0 -165.5 69.5t-35.5 153.5q12 48 42.5 72.5t70.5 24.5q52 0 73.5 -36.5t10.5 -88.5q-5 -24 -24 -40.5 t-39.5 -24t-38.5 -19.5t-21 -27q-4 -24 35.5 -44.5t87.5 -20.5q211 0 449 309l-240 1143h-125l2 16h127q74 0 112.5 5.5t73.5 27.5l199 -973q104 170 188 348.5t128 294.5q12 33 -19 67t-72 52q-37 16 -60 45.5t-15 69.5q8 41 43.5 68.5t85.5 27.5z" />
<glyph unicode="&#xfe;" horiz-adv-x="1001" d="M244 1499h141q77 0 118 6.5t77 28.5l-136 -641h9q42 76 89.5 120t121.5 44q71 0 129.5 -33t99 -100t50.5 -169.5t-17 -240.5q-51 -244 -183 -395.5t-292 -151.5q-35 0 -61 9t-41.5 21t-28 36t-18.5 42t-15 50h-6l-109 -506h141l-4 -16h-471l4 16h142l395 1864h-139z M350 502q-110 -516 90 -516q91 0 159.5 141.5t129.5 427.5q32 148 37.5 253.5t-20.5 168.5t-87 63q-54 0 -100 -36t-83 -107.5t-67.5 -167.5t-58.5 -227z" />
<glyph unicode="&#xff;" horiz-adv-x="1036" d="M588 1200q-20 0 -31.5 17t-7.5 40q5 23 23 40.5t38 17.5t31 -17t6 -41q-3 -23 -21 -40t-38 -17zM754 1200q-20 0 -31 17t-6 40q3 23 21 40.5t38 17.5t32 -17.5t7 -40.5q-4 -23 -23 -40t-38 -17zM924 1057q59 0 87.5 -40t28.5 -102q0 -64 -26 -127 q-113 -278 -229.5 -501.5t-239.5 -394t-249 -263t-245 -92.5q-109 0 -165.5 69.5t-35.5 153.5q12 48 42.5 72.5t70.5 24.5q52 0 73.5 -36.5t10.5 -88.5q-5 -24 -24 -40.5t-39.5 -24t-38.5 -19.5t-21 -27q-4 -24 35.5 -44.5t87.5 -20.5q211 0 449 309l-240 1143h-125l2 16 h127q74 0 112.5 5.5t73.5 27.5l199 -973q104 170 188 348.5t128 294.5q12 33 -19 67t-72 52q-37 16 -60 45.5t-15 69.5q8 41 43.5 68.5t85.5 27.5z" />
<glyph unicode="&#x152;" horiz-adv-x="1705" d="M1067 1434h743l-77 -357h-13q16 75 10.5 137.5t-30 107.5t-83.5 70t-151 25h-204l-142 -669h170q41 0 73.5 22t57 65t40.5 84.5t37 103.5q7 23 11 34h13l-138 -641h-12q15 164 12 206q-6 84 -61 100q-17 5 -39 5h-168l-149 -711h241q80 0 144.5 26.5t108.5 68t80.5 107.5 t59 130t44.5 150h12l-109 -498h-788q-125 -33 -228 -33q-115 0 -209 57t-149.5 156.5t-74 235.5t17.5 293q75 343 277.5 550t463.5 207q124 0 209 -32zM1036 1311q12 54 -46 96.5t-136 42.5q-176 0 -306.5 -183t-209.5 -552q-81 -378 -32.5 -554.5t231.5 -176.5 q93 0 165 43.5t84 101.5z" />
<glyph unicode="&#x153;" horiz-adv-x="1497" d="M1219 1057q135 0 203.5 -74.5t47.5 -183.5q-15 -80 -73 -138t-145.5 -88.5t-179.5 -44.5t-193 -14q-113 -528 110 -528q124 0 222.5 93t164.5 255l17 -8q-75 -174 -176 -266.5t-252 -92.5q-195 0 -271 158q-146 -158 -332 -158q-113 0 -190 67.5t-103 192.5t11 303 q52 246 194.5 386.5t315.5 140.5q92 0 160.5 -44.5t105.5 -129.5q73 81 166 127.5t197 46.5zM362 -20q68 0 120 50.5t99.5 172t92.5 327.5q42 196 44 310.5t-30 159t-100 44.5q-67 0 -118.5 -50t-99.5 -172.5t-91 -327.5q-41 -196 -43 -310.5t29 -159t97 -44.5zM1294 819 q22 106 3 165.5t-85 59.5q-216 0 -329 -514q143 0 226.5 30.5t124 90.5t60.5 168z" />
<glyph unicode="&#x178;" horiz-adv-x="1091" d="M760 1610q-20 0 -31.5 17t-7.5 40t22.5 40t38.5 17t31 -17t6 -40q-3 -23 -21 -40t-38 -17zM926 1610q-20 0 -31 17t-6 40q3 23 21 40t38 17t31.5 -17t7.5 -40t-23 -40t-38 -17zM981 1434h276l-4 -17h-92l-436 -710l-145 -691h149l-4 -16h-496l4 16h150l139 664l-174 737 h-125l4 17h463l-4 -17h-135l160 -690l424 690h-158z" />
<glyph unicode="&#x2c6;" horiz-adv-x="477" d="M272 1405l195 233h18l101 -233h-21l-100 184l-172 -184h-21z" />
<glyph unicode="&#x2dc;" horiz-adv-x="514" d="M291 1497q15 53 38.5 77.5t59.5 24.5q28 0 53.5 -18t41.5 -39t37.5 -39t43.5 -18t38 15t22 29t14 40l16 -8q-27 -103 -96 -103q-28 0 -54 18t-42 39.5t-37.5 39.5t-42.5 18q-30 0 -46 -21.5t-28 -62.5z" />
<glyph unicode="&#x2000;" horiz-adv-x="896" />
<glyph unicode="&#x2001;" horiz-adv-x="1792" />
<glyph unicode="&#x2002;" horiz-adv-x="896" />
<glyph unicode="&#x2003;" horiz-adv-x="1792" />
<glyph unicode="&#x2004;" horiz-adv-x="597" />
<glyph unicode="&#x2005;" horiz-adv-x="448" />
<glyph unicode="&#x2006;" horiz-adv-x="298" />
<glyph unicode="&#x2007;" horiz-adv-x="298" />
<glyph unicode="&#x2008;" horiz-adv-x="224" />
<glyph unicode="&#x2009;" horiz-adv-x="358" />
<glyph unicode="&#x200a;" horiz-adv-x="99" />
<glyph unicode="&#x2010;" horiz-adv-x="423" d="M76 543h284l-4 -21h-284z" />
<glyph unicode="&#x2011;" horiz-adv-x="423" d="M76 543h284l-4 -21h-284z" />
<glyph unicode="&#x2012;" horiz-adv-x="423" d="M76 543h284l-4 -21h-284z" />
<glyph unicode="&#x2013;" horiz-adv-x="798" d="M47 543h717l-4 -21h-717z" />
<glyph unicode="&#x2014;" horiz-adv-x="1288" d="M47 543h1206l-4 -21h-1206z" />
<glyph unicode="&#x2018;" horiz-adv-x="401" d="M219 1219q23 105 103.5 201.5t220.5 152.5l-6 -21q-50 -21 -98.5 -54.5t-90.5 -77.5t-68 -100.5t-26 -113.5h8q19 29 51 44.5t62 15.5q57 0 79 -39t9 -97q-13 -60 -56 -95.5t-90 -35.5q-64 0 -90.5 64t-7.5 156z" />
<glyph unicode="&#x2019;" horiz-adv-x="401" d="M502 1313q-23 -105 -103.5 -202t-220.5 -153l6 21q50 21 98.5 54.5t90.5 77.5t68 100.5t26 113.5h-8q-19 -29 -50.5 -44t-62.5 -15q-57 0 -79 38.5t-9 96.5q13 60 55.5 95.5t89.5 35.5q64 0 91 -63.5t8 -155.5z" />
<glyph unicode="&#x201a;" horiz-adv-x="401" d="M231 43q-23 -105 -103 -201.5t-220 -152.5l6 20q50 21 98.5 54.5t90.5 77.5t68 100.5t26 113.5h-9q-19 -29 -50.5 -44t-61.5 -15q-57 0 -79 38.5t-9 96.5q13 60 55.5 95.5t89.5 35.5q64 0 90.5 -63.5t7.5 -155.5z" />
<glyph unicode="&#x201c;" horiz-adv-x="759" d="M219 1219q23 105 103.5 201.5t220.5 152.5l-6 -21q-50 -21 -98.5 -54.5t-90.5 -77.5t-68 -100.5t-26 -113.5h8q19 29 51 44.5t62 15.5q57 0 79 -39t9 -97q-13 -60 -56 -95.5t-90 -35.5q-64 0 -90.5 64t-7.5 156zM578 1219q23 105 103 201.5t220 152.5l-6 -21 q-50 -21 -98.5 -54.5t-90.5 -77.5t-68 -100.5t-26 -113.5h9q19 29 50.5 44.5t61.5 15.5q57 0 79 -39t9 -97q-13 -60 -55.5 -95.5t-89.5 -35.5q-64 0 -90.5 64t-7.5 156z" />
<glyph unicode="&#x201d;" horiz-adv-x="759" d="M502 1313q-23 -105 -103.5 -202t-220.5 -153l6 21q50 21 98.5 54.5t90.5 77.5t68 100.5t26 113.5h-8q-19 -29 -50.5 -44t-62.5 -15q-57 0 -79 38.5t-9 96.5q13 60 55.5 95.5t89.5 35.5q64 0 91 -63.5t8 -155.5zM860 1313q-23 -106 -103 -202.5t-220 -152.5l6 21 q50 21 98 54.5t90 77.5t68 100.5t26 113.5h-8q-19 -29 -50.5 -44t-61.5 -15q-57 0 -79.5 38.5t-9.5 96.5q13 60 56 95.5t90 35.5q64 0 90.5 -63.5t7.5 -155.5z" />
<glyph unicode="&#x201e;" horiz-adv-x="759" d="M231 43q-23 -105 -103 -201.5t-220 -152.5l6 20q50 21 98.5 54.5t90.5 77.5t68 100.5t26 113.5h-9q-19 -29 -50.5 -44t-61.5 -15q-57 0 -79 38.5t-9 96.5q13 60 55.5 95.5t89.5 35.5q64 0 90.5 -63.5t7.5 -155.5zM590 43q-23 -105 -103.5 -201.5t-220.5 -152.5l6 20 q50 21 98.5 54.5t90.5 77.5t68 100.5t26 113.5h-8q-19 -29 -50.5 -44t-62.5 -15q-57 0 -79 38.5t-9 96.5q13 60 56 95.5t90 35.5q64 0 90.5 -63.5t7.5 -155.5z" />
<glyph unicode="&#x2022;" horiz-adv-x="544" d="M317 741q93 0 132.5 -70.5t19.5 -162.5q-23 -107 -93 -166t-149 -59q-91 0 -131 71.5t-20 161.5q25 110 94 167.5t147 57.5z" />
<glyph unicode="&#x2026;" d="M82 -16q-49 0 -79.5 37t-18.5 90q12 55 52.5 91t90.5 36q48 0 78 -37t20 -90q-11 -54 -51.5 -90.5t-91.5 -36.5zM463 -16q-49 0 -79.5 37t-18.5 90q12 55 52.5 91t90.5 36q48 0 78 -37t20 -90q-11 -54 -51.5 -90.5t-91.5 -36.5zM844 -16q-49 0 -80 37.5t-19 89.5 q12 54 52.5 90.5t91.5 36.5q48 0 78 -37t20 -90q-11 -54 -51.5 -90.5t-91.5 -36.5z" />
<glyph unicode="&#x202f;" horiz-adv-x="358" />
<glyph unicode="&#x2039;" horiz-adv-x="522" d="M88 524l266 -364l8 16l-137 352l289 353l-4 16l-420 -365z" />
<glyph unicode="&#x203a;" horiz-adv-x="522" d="M440 532l-266 365l-8 -16l137 -353l-289 -352l4 -16l420 364z" />
<glyph unicode="&#x205f;" horiz-adv-x="448" />
<glyph unicode="&#x20ac;" horiz-adv-x="1017" d="M1112 1434h21l-156 -336h-12q69 166 38.5 259t-143.5 93q-148 0 -248.5 -149.5t-177.5 -477.5h416l-10 -20h-412l-18 -88q-16 -78 -17 -84h369l-10 -21h-363q-61 -326 -25 -474t181 -148q91 0 178 46.5t149 131.5l13 -16q-140 -183 -350 -183q-209 0 -306.5 174 t-56.5 469h-96l4 21h94q17 87 19 96l18 76h-94l4 20h96q83 294 252.5 468.5t380.5 174.5q49 0 94.5 -16.5t77.5 -32.5t49 -16q23 0 41 33z" />
<glyph unicode="&#x2122;" horiz-adv-x="1300" d="M735 1434l-37 -174h-12q9 56 5 91t-32.5 50.5t-91.5 15.5h-20l-146 -684h72l-2 -16h-274l2 16h75l146 684h-21q-90 0 -127.5 -34t-58.5 -123h-12l37 174h497zM1452 1417h-74l-145 -684h72l-2 -16h-273l2 16h74l133 625l-313 -641h-15l-43 669h-4l-139 -653h78l-2 -16 h-176l2 16h75l148 684h-74l2 17h226l26 -459l223 459h201z" />
<glyph unicode="&#x25fc;" horiz-adv-x="1054" d="M0 1055h1055v-1055h-1055v1055z" />
</font>
</defs>
</svg>
