<?xml version="1.0" standalone="no"?>
<!DOCTYPE svg PUBLIC "-//W3C//DTD SVG 1.1//EN" "http://www.w3.org/Graphics/SVG/1.1/DTD/svg11.dtd" >
<svg xmlns="http://www.w3.org/2000/svg">
<metadata></metadata>
<defs>
<font id="festivo_lcoutline" horiz-adv-x="1032" >
<font-face units-per-em="2048" ascent="1536" descent="-512" />
<missing-glyph horiz-adv-x="716" />
<glyph horiz-adv-x="0" />
<glyph horiz-adv-x="682" />
<glyph unicode=" "  horiz-adv-x="716" />
<glyph unicode="&#x09;" horiz-adv-x="716" />
<glyph unicode="&#xa0;" horiz-adv-x="716" />
<glyph unicode="!" horiz-adv-x="487" d="M125 1368q-1 7 4 27t4 32q-6 6 0 21q9 0 48.5 3t58.5 3h50.5t63.5 -4q4 -14 4 -36.5t-2 -51t-2 -41.5q4 -28 4 -43q0 -16 -1 -43t-1 -43q0 -59 -6 -90q8 -70 -2 -172q-3 -25 -3 -55.5t1.5 -67t1.5 -55.5v-43q0 -7 -1 -21.5t-1 -21.5q0 -3 1 -7.5t1 -7.5q0 -7 -2 -21.5 t-2 -21.5q-6 -75 -2 -209q-12 -11 -14 -4l-1 -3q-1 -4 -5 -5q-38 -4 -158 0q-3 5 -14 16l-9 232q-3 44 -3 124.5t-1 98.5l1 34q0 34 -1 34q-4 34 -1.5 109t1.5 100l-4 92q1 3 -2.5 5t-3.5 5q-1 17 2.5 58.5t-0.5 56.5q0 3 -2 8t-2 8zM346 236l14 -13q-2 -26 2 -114t-4 -115 q-22 2 -30.5 2t-29.5 -2.5t-30 -3.5q-13 -1 -35 0.5t-30 1.5q-43 0 -66 2q-3 3 -4 9t-4 7q-5 20 -0.5 109t4.5 112q12 0 14 2l5 5q55 -14 194 -2zM152 1432q3 -31 -1 -98t-1 -101l4 -103q3 -33 1 -98t1 -96q0 -7 2 -22t2 -23t-1 -25.5t-1 -25.5q-3 -148 10 -316 q1 -14 -0.5 -60t2.5 -58q21 -3 49 -3t59.5 1.5t43.5 1.5v143l4.5 45t3.5 55q1 19 1 41t-0.5 50t-0.5 44l4 242v92q12 127 4 199q-1 17 2.5 59.5t-0.5 57.5q-68 2 -188 -2zM344 12q0 142 -6 205q-100 -10 -186 -2q-5 -129 -9 -174q3 -4 4 -9t1.5 -11t1.5 -9q28 -3 59.5 -3 t71.5 1.5t63 1.5z" />
<glyph unicode="&#x22;" horiz-adv-x="598" d="M66 1434q77 13 194 4q0 -44 -6 -88q-9 -55 -6 -152q0 -38 -4 -115t-4 -110q-3 -3 -5.5 -8.5t-5.5 -8.5q-94 -4 -141 -4q-3 3 -5 6q-2 4 -5 5q-7 63 -7.5 196t-7.5 199q-3 46 3 76zM524 967q0 -3 -4.5 -5.5t-5.5 -5.5q-70 9 -145 0q-4 6 -5 11.5t0 14t1 11.5 q-2 38 -8.5 137.5t-9.5 167.5t-3 127h12q1 2 -0.5 6.5t2.5 6.5q11 0 42.5 2t50 2.5t43.5 -1t43 -7.5q-15 -336 -13 -447q1 -4 -2 -5l-2 -1q4 1 5 -4t-1 -10zM221 979q2 41 4.5 137t6 169t10.5 132q-14 0 -42 2.5t-46 1.5q-10 0 -72 -4q0 -8 1.5 -22t1.5 -26t-3 -23 q3 -16 8 -86q0 -13 -1 -109.5t5 -101.5q-4 -3 -1 -37t3 -39q24 -1 65.5 0.5t49.5 1.5q-7 -4 0 -1q7 4 10 5zM383 979q80 0 123 -2q-1 81 12 444q-62 6 -156 -4q0 -17 1.5 -47t1.5 -37v-10q0 -69 9 -175t9 -169z" />
<glyph unicode="#" horiz-adv-x="1155" d="M274 463l-116 -4q-25 0 -35 10q0 104 2 143q3 3 7.5 4.5t4.5 4.5q30 3 85.5 3t68.5 1q17 118 24 200q-3 -5 -36.5 -2.5t-34.5 2.5q-4 0 -37 -0.5t-39 4.5l4 121q0 7 3 19.5t3 19.5q24 -1 85 0.5t77 1.5q25 129 39 250q1 3 2 6.5t1.5 5t0.5 2.5v21q0 2 6 20q1 8 1 25t1 25 q1 2 3.5 6.5t2.5 7.5q13 50 13 80q22 4 71 3.5t72 2.5q4 -1 6 -8l2 -6q-8 -46 -18.5 -143.5t-18.5 -143.5q2 -9 2 -12.5t-2.5 -10.5t-3.5 -10q-2 -14 -4 -54t-8 -59q18 -4 93.5 -2.5t100.5 0.5q4 52 12.5 111.5t21 136t18.5 117.5l10 80q99 17 162 6q9 -15 6 -29 q0 -37 -11.5 -103t-13.5 -95q-18 -174 -28 -224h143q0 -3 1.5 -3.5t3.5 0t5 -0.5v-18q-6 -17 0 -17q0 -13 -2 -35.5t-2 -41.5t4 -37q-3 -3 -2 -7.5t-2 -7.5q-16 -11 -81 -7.5t-81 1.5q-17 -75 -30 -198q86 -4 133 -2q3 -3 9.5 -3.5t10.5 -3.5q1 -14 -1.5 -64.5t1.5 -70.5 q-1 -1 -7 -5t-7 -9q-76 3 -166 -8q-15 -48 -27 -191q0 -4 -1 -14t-1 -18l-8 -78l-8 -68q-5 -70 -8 -88h-54q-9 0 -30.5 -2t-30.5 -2q-37 0 -45 8q0 3 1 5.5t0.5 4t-3.5 4.5q3 31 23 192.5t28 242.5q3 3 6 4t4 4q-142 -12 -213 -6q-6 -29 -10 -63t-7.5 -75.5t-6.5 -64.5 l-6 -16q-1 -10 0 -19.5t-0.5 -21t-5.5 -19.5q-1 -27 -9 -81.5t-8 -78.5q-10 -10 -10 -16q-70 -9 -139 -6q-4 7 -19 14q3 40 14.5 118t14.5 118q14 164 24 217zM145 602q0 -10 -0.5 -36t-0.5 -49t1 -40q49 2 134 2q2 -2 5 -5.5t5 -5.5t6 -3q-3 -4 -3.5 -9.5t0 -11t-0.5 -12.5 q-1 -4 -4.5 -19.5t-3.5 -23.5q-1 -7 -0.5 -13t0 -11t-3.5 -9q2 -2 2 -16q-4 -51 -18 -157t-19 -169q24 -1 66 1.5t57 2.5q4 45 18 146.5t18 157.5q16 126 25 151q47 -2 72.5 -1.5t78.5 3.5t74 4q8 -6 10 -13.5t-1 -24t-3 -19.5q-20 -221 -30 -289q-15 -95 -19 -113 q20 -4 67.5 -1.5t61.5 1.5q5 44 13 141t16.5 170.5t22.5 135.5q8 3 8 10q20 0 80.5 3.5t87.5 2.5v121h-90q-12 1 -21.5 0.5t-19 0t-15.5 3.5q-12 19 0 68q5 50 23 153q4 0 5.5 2.5t1.5 6t1 4.5q23 5 78 1t78 1q-1 15 1.5 66.5t-1.5 70.5q-15 -4 -61 -3t-64 -3 q-3 0 -5.5 -2.5t-5.5 -1.5q-6 0 -10 7.5t-6 8.5q3 24 10 66.5t11.5 77t7.5 67.5q2 17 15 103t13 131q-85 0 -133 -7q-3 -33 -12 -94.5t-12 -89.5q0 -8 -4 -19.5t-4 -13.5q-3 -53 -11 -75q1 -27 -7 -72t-7 -74q-3 0 -7 -3.5t-7 -4.5q-24 1 -81 0t-85 0q-3 0 -12 -0.5 t-13.5 -0.5t-10 1.5t-9.5 5.5q0 -4 -6 -4q-10 16 0 39l10 84q5 54 18.5 162t18.5 159q-39 -2 -111 -2q-2 -9 -4 -26t-6 -25q-3 -13 -8 -59.5t-9 -65.5q-4 -36 -10.5 -79t-16.5 -101t-14 -84q-11 0 -18 -10q-47 -2 -147 -2q-5 -117 -5 -127q22 1 57 -0.5t46 -1.5q32 4 43 -2 q0 -5 1 -10.5t1 -12.5q-3 -6 -3.5 -22t-4.5 -25q4 -5 3.5 -13.5t-5.5 -13.5q2 -2 2 -10q-1 -13 -7.5 -45.5t-7.5 -48.5q-1 -4 -1 -10t-0.5 -10t-2 -8t-4.5 -7q-60 2 -162 -2zM678 608q-41 3 -113.5 -1t-105.5 -1q-10 10 -10 29q0 37 10.5 112t11.5 89q35 0 118 4.5t109 5.5 q3 -4 5 -8t3.5 -8.5t2 -8t0.5 -10v-9t-1.5 -10t-1.5 -9.5t-2 -10.5t-2 -10.5q-1 -10 -8.5 -58t-11.5 -75q-4 -4 -6 -4q8 -8 2 -17zM487 819q-1 -21 -9 -89t-7 -105q20 0 89 2.5t102 1.5q2 16 8 55t10.5 74t5.5 61q1 0 1.5 1.5t1 3.5t1.5 3q-23 -1 -91.5 -6t-111.5 -2z" />
<glyph unicode="$" d="M858 1282q12 -20 29 -68q26 -87 20 -143q-1 -10 -4 -32t-3.5 -33.5t1.5 -34.5q-6 -6 -13.5 -9.5t-19 -5.5t-16.5 -4q-2 0 -14.5 -2t-16.5 -2.5l-16 -2t-18 -2t-16.5 -0.5t-18 0.5t-17 2t-18.5 4.5q-1 -4 -29.5 -1t-36.5 3q-5 17 -5 51t-3 50q-1 7 -1.5 26t-1.5 32.5 t-5 23.5q-3 10 -9.5 18t-18 17.5t-15.5 13.5q-25 25 -62 28q-29 3 -51 0q-29 -5 -54.5 -24t-35.5 -45q-12 -28 -8 -58q1 -7 12 -32l13 -33q6 -14 20.5 -33.5t15.5 -21.5q47 -55 66 -70l24 -23q5 -3 19 -11.5t20 -14.5l19 -19q16 -12 43 -30t48 -33.5t38 -32.5l53 -57 q10 -13 24.5 -36.5t20.5 -31.5q21 -21 31 -47q2 -5 8 -14.5t10.5 -19t7.5 -19.5q32 -101 26.5 -171t-54.5 -171q-15 -15 -44.5 -46t-39.5 -39.5t-35 -27t-54 -31t-75 -28.5q3 -17 3 -41t-1.5 -54.5t-1.5 -46.5q5 -1 4.5 -8t-0.5 -8q-15 -6 -35 -10t-56 -8.5t-40 -5.5 q-33 4 -39 18l4 160q-4 3 -12.5 5t-11.5 5q-154 36 -222 139q-10 10 -32 45q-35 53 -35 187q0 21 2.5 41t7 46.5t6.5 37.5q27 12 75 14t78 -1.5t85 -10.5q4 -11 4 -52q0 -5 -0.5 -29t0 -33t2 -27t5.5 -31t11 -25q16 -26 41 -35q25 -13 61.5 -16t69.5 8q18 9 38.5 35t27.5 33 q0 21 10 28q-2 9 -5 35t-9 41l-37 61q-46 51 -83 84.5t-83 57.5q-4 4 -15.5 12.5t-15.5 13.5q-4 0 -8 4t-8 3l-68 61q-8 8 -34 26t-35 33q-20 12 -49 64q-36 42 -56 98q-23 68 -14 156q-3 19 1.5 40.5t16.5 53.5t15 43q15 18 37.5 54t33.5 50l70 66q38 30 86 45q3 0 20 3 t25 3q3 21 4 69t4 68q23 8 49.5 9.5t64.5 -0.5t50 -2q-3 -19 0 -72t0 -74q13 2 41 -10q50 -11 76 -27l22 -18q4 -3 13.5 -7t13.5 -7q5 -3 12.5 -12.5t10.5 -12.5l24 -25q29 -37 41 -57zM881 977q0 13 5.5 88t-1.5 88q-7 17 -17.5 53.5t-17.5 53.5q-24 40 -74 98q-7 5 -22 16 t-27.5 20t-24.5 15q-64 33 -110 33q1 4 -3.5 6.5t-4.5 5.5q4 5 1 63.5t-3 69.5q-10 0 -36 1.5t-49 1.5t-40 -3q-4 -73 -2 -121q-6 -12 -11.5 -16t-22 -5.5t-28.5 -4.5q-9 -2 -16.5 -4.5t-16 -8t-12 -7.5t-14 -10.5t-12.5 -10.5q-30 -21 -60 -51q-3 -5 -21 -28t-26 -38 q-3 -5 -21.5 -31t-23.5 -39q-3 -7 -6 -22.5t-6 -22.5l-15 -45q-3 -7 -3 -16t1.5 -22t1.5 -21q-3 -43 4 -72q12 -42 62 -131q35 -56 106 -110q9 -8 34.5 -32.5t43.5 -37.5l41 -29q8 -8 24.5 -16.5t20.5 -11.5l35 -27q5 -3 9.5 -6.5t7.5 -7t7 -8t7 -7.5q5 -5 29.5 -26.5 t33.5 -34.5q31 -46 51 -94q0 -11 4 -28t3 -26q0 -3 -3 -4t-4 -4q2 -20 -18 -45q-3 -4 -7 -10.5t-7 -11.5t-7.5 -10.5t-9.5 -8.5l-18 -18q-8 -2 -25 -6.5t-24.5 -6t-25 -3.5t-28.5 1q-2 1 -6.5 4t-7.5 3t-7 -1t-7 -1q-21 3 -43 16q-13 8 -35 37q-3 7 -6 23.5t-6 23.5 q-9 21 -9 49q3 46 0 94q-51 6 -73 8t-63.5 1.5t-73.5 -7.5q-24 -139 0 -239q5 -17 13 -33t13.5 -25t17.5 -26.5t17 -24.5q78 -91 236 -131q3 -5 8 -8q-3 -29 -3 -83.5t-3 -80.5q68 -3 129 14q-3 23 0.5 73.5t-2.5 76.5q4 -1 8.5 6.5t7.5 7.5l49 19q3 1 21 10l23 11.5 t19.5 10t21 12.5t17.5 12t18.5 14.5t14.5 15.5q50 59 80 123q27 63 29 110q0 1 -2 1q-1 -1 -2 -0.5t0 3.5q0 64 -23 144q-8 14 -19.5 39.5t-17.5 37.5q-5 3 -11.5 12t-8.5 11q-4 6 -22 35.5t-31 42.5q-80 87 -144 121q-11 8 -27 22.5t-30 25t-29 17.5q-104 93 -139 176 q-2 4 -10 17.5t-9 21.5q0 16 3 37q4 31 10 43q16 37 70.5 61.5t103.5 10.5q64 -15 98 -70q8 -12 12 -70q7 -68 7 -114q9 -3 30 -3t25 -1q7 0 19.5 -2t19.5 -2t21 -1t22 -1q3 0 17 3t22 3q29 6 39 10z" />
<glyph unicode="%" horiz-adv-x="1417" d="M475 809l-39 -12q-50 -13 -80 -13q-8 -1 -23 0.5t-20 1.5q-8 1 -25.5 2.5t-24 2.5l-19.5 3t-20.5 4.5t-17 6.5t-18.5 10l-22 16l-21 17q-3 9 -8 14l-8 6q-3 7 -8 9q0 6 -2.5 11.5t-8 12.5t-8.5 12q-2 3 -8 27q-8 8 -10 14q-6 10 -21 68q-1 6 -1 14.5t0.5 19.5t0.5 17 q1 15 2.5 73t7.5 93t21 59q3 19 11 34t25 35t22 26q77 54 176 63q29 0 59 -6q66 -10 109 -33q36 -20 59 -43q6 -6 10.5 -13t11.5 -19t11 -19l18 -39q3 -7 4 -24t4 -25q27 -170 -4 -289q0 -2 -6 -8q0 -10 -2 -12q-10 -17 -10 -25q-4 -4 -10 -12.5t-9 -11.5q-5 -6 -15.5 -16 t-12.5 -11l-19 -16l-26 -17h-11q-3 -1 -7 -4t-7 -4zM1346 434q14 -158 6 -237q-10 -46 -26 -76t-52 -76q-7 -4 -21.5 -17t-27.5 -18l-66 -16q-25 -5 -29 -8q-9 0 -28 -2t-29 -2t-24 1.5t-25 6.5q-23 -1 -54 11.5t-46 14.5q-23 12 -42.5 34t-29.5 39t-27 50q-38 134 -14 330 q28 67 76 121q29 29 69 43q65 26 113 26q5 0 33 -4q52 -3 90 -20l24 -9t24.5 -9.5t19.5 -10t20 -14.5l14 -12q11 -11 11 -15q1 -1 4 -1t4 -1q27 -55 33 -129zM831 743l-16 -55l-18 -49q-6 -20 -37 -92l-17 -39q-1 -3 -3.5 -17.5t-10.5 -19.5l-47 -123q-52 -138 -111 -276 q-3 -8 -7 -25.5t-9.5 -28t-15.5 -16.5q-4 -11 -7 -12q-9 4 -52 2.5t-54 -0.5q-5 0 -30.5 3t-39.5 3q-3 1 -5 -3t-5 -3q-11 2 -13.5 11.5t7.5 14.5q18 53 22 68q17 26 27 66q19 32 43.5 97.5t36.5 90.5q15 35 37.5 98.5t32.5 89.5q7 19 19.5 58t19.5 59q26 65 34 78 q3 14 7.5 27t11.5 28.5t10 24.5q5 14 15.5 41t13.5 35q1 4 2.5 8.5l3 9t2.5 6.5q8 19 23 58t18 45q5 30 25 79.5t26 73.5l8 10q6 23 22.5 62.5t20.5 50.5l23 57q3 6 8 17t9 20t7 17q2 5 4.5 14t5.5 16t7 13q29 2 41 2t46.5 -3t43.5 -3q39 0 51 -5q3 -3 9 -5t9 -5 q-3 -14 -13 -35.5t-13 -29.5q-5 -14 -18 -46t-22 -57.5t-15 -50.5q-17 -66 -33 -104q-9 -23 -26.5 -61.5t-31.5 -72t-24 -65.5l-37 -102zM297 803q112 -3 178 24q37 14 60 37q3 3 11.5 11t12 11.5t10 11t10 13t7.5 13t6 14.5q0 6 1 14t2.5 18t2.5 15q6 39 6 96q3 60 -10 144 q-9 61 -21 82q-4 8 -11.5 19t-8.5 13l-4 15l-10 6q-11 11 -23 31q-48 27 -88 36q-94 16 -129 9q-78 -20 -113 -39q-11 -8 -34 -31q-3 -5 -16.5 -19t-16.5 -22q-35 -76 -35 -211q-3 -31 -1.5 -70.5t11.5 -66.5q7 -21 27 -57q3 -6 13 -27t16 -29q15 -18 36 -30q8 -6 17 -10 t15.5 -6.5t19 -5.5t17.5 -3.5t21.5 -2.5t20.5 -3zM1227 33q65 51 88 117t18 159q0 80 -6 121q0 5 0.5 14.5t0.5 17t-1 13.5l-8 17q-12 48 -21 63q-40 34 -41 35q-3 1 -8 5t-8 5q-5 3 -20 7t-21 7q-3 1 -7 4.5t-7 4.5q-46 18 -111 18q-32 4 -71 -6q-3 -1 -5.5 -3.5t-5.5 -2.5 q-1 -1 -5 -1t-7 -1l-33 -15q-14 -6 -25 -15t-15.5 -13t-17 -20t-16.5 -21q-15 -17 -38 -58q-6 -12 -9 -30t-4 -31.5t-1.5 -40t-0.5 -35.5q-11 -172 53 -262q5 -8 12 -16t12 -12.5t15 -13t13 -11.5q7 1 13.5 -1t15 -7t12.5 -7q103 -38 260 15zM770 623q5 13 14 35.5t16 41.5 t11 37l14 43q9 24 26.5 71t20.5 56l33 84q7 13 17.5 41t17.5 41q15 30 32.5 89.5t26.5 82.5q8 20 29 77.5t35 88.5q-17 1 -55 3.5t-54.5 2.5t-58.5 -2q-6 -22 -23 -62t-22 -53q-3 -13 -11.5 -31.5t-11.5 -27.5q-38 -85 -104 -278l-43 -107l-43 -111q-12 -35 -40.5 -108 t-41.5 -113q-28 -95 -59 -162q-3 -9 -11.5 -27.5t-11.5 -27.5q-3 -7 -5 -18.5t-5 -16.5l-41 -96l-33 -78q-24 -59 -31 -82q74 -7 170 -4q1 8 8 19.5t9 15.5q5 11 13 33.5t15 40.5t15 33q15 49 37 98l37 96q1 3 0 7t0 7q8 15 19 44.5t17 42.5q3 7 7.5 20t7.5 20 q3 13 11.5 30.5t10.5 21.5q20 36 35 82zM432 1257q27 -14 27 -118q0 -31 -2 -45q0 -2 -1 -10t-1 -13q0 -26 -15 -53l-14 -27q-3 -3 -10.5 -7t-13 -8.5t-5.5 -8.5l-37 -17q-21 5 -28 0q-7 4 -25.5 7.5t-27.5 7.5q-3 4 -7 7t-9.5 6t-8.5 5q-16 42 -16 43q-4 9 -2.5 52.5 t0.5 54.5q0 50 4 65q1 3 1 9.5t1 9.5q6 14 20 28q20 19 60 33q27 6 55 0q24 -3 55 -21zM1159 457q20 -25 28 -41t9 -24.5t-1.5 -34t-2.5 -48.5q0 -3 -1 -27t1 -28q0 -30 -4 -39q-6 -6 -6 -4q-3 -3 -5.5 -10.5t-5.5 -10.5q0 -6 -6 -6q-5 -5 -18.5 -13t-18.5 -13q-16 0 -20 -4 q-29 -2 -94 10q-15 12 -27 33q-32 167 21 252q23 27 66.5 27t84.5 -19zM1178 328q8 31 7 58t-26 52q-12 10 -36.5 16.5t-45.5 4.5q-24 -1 -37.5 -9t-18.5 -17t-15 -34q-1 -4 -5.5 -10.5t-5.5 -9.5q-1 -4 -1 -14t-1 -15q-12 -131 27 -170l47 -8q49 -6 84 25q27 21 27 53v78z M432 1087q6 -3 6 3v47.5t-2.5 63.5t-9.5 44q-9 2 -23 8t-23 9t-23 4.5t-23 -4.5q-65 -21 -80 -56q-3 -6 -3.5 -17t0.5 -26.5t1 -19.5q1 -15 1 -46.5t1 -43.5q3 -53 25 -68q3 -3 9 -5t7 -5q45 -17 111 22q1 8 9 16.5t9 10.5q1 1 1 5t1 7l2 2q2 2 2 6q4 2 1.5 9.5t-1.5 9.5 q0 2 3 12t-1 12z" />
<glyph unicode="&#x26;" horiz-adv-x="1150" d="M922 240q15 -18 36.5 -31.5t54.5 -27.5t46 -21q14 0 31 -10q-1 -24 -13 -79.5t-14 -68.5q-41 -14 -99 0t-94 35q-4 4 2 4q-13 6 -35.5 25t-29.5 24h-4q1 3 -4.5 8.5l-13 13t-9.5 11.5q-59 -66 -127 -90q-5 5 -10.5 5.5t-7.5 -5.5q8 0 10 -2q-1 0 -3.5 -1.5t-4.5 -2.5 t-4.5 -1.5t-3.5 0.5t-2 3q-2 -6 -13.5 -10.5t-17.5 -0.5q-4 -3 -1.5 -3t1.5 -3q-10 -2 -35 -8.5t-44 -9.5t-40 -2q-3 0 -6 2t-6 2t-8.5 -1t-8.5 -1q-22 3 -63 15t-59 16l-5 4q-56 14 -106 51q-3 6 -13.5 12.5t-13.5 9.5q-56 49 -86 107q-3 4 -7 14t-7 13q-2 5 -4 18.5 t-8 19.5q-8 54 -11 107q5 13 5.5 38t5.5 38q-1 10 4 27.5t6 23.5q-2 2 2 2q-4 18 4 20q16 57 72 127q32 44 92 80q3 8 -2 15t-14.5 14t-12.5 12q-3 3 -8 11.5t-8 11.5q-3 5 -11 10.5t-10 7.5q-7 7 -18.5 26t-24.5 27q-4 9 -17 40t-22 49q-1 4 0 5l2 1l-6 8q-4 54 -8 65 q13 108 29 158q9 28 20 39v8q47 66 80 103q1 0 1.5 0.5t2 1t4.5 0.5q1 0 1 2q-1 4 3 4q68 60 178 81.5t214 -16.5q7 -4 24.5 -13.5t29 -18t19.5 -19.5q4 -1 7.5 -4t8 -9t7.5 -9q3 -4 20 -21q59 -73 56 -156q0 -9 1.5 -27t1.5 -33.5t-3 -29.5q-110 -32 -203 -14 q-3 7 -3.5 24.5t-4.5 26.5q0 24 -25 49q-34 31 -82 39q-10 1 -33 -10.5t-32 -13.5q-3 0 -5.5 1t-5.5 1q-56 -59 -41 -172q15 -64 33 -84q10 -17 25 -23q7 -7 8 -10q50 -26 102 -37q11 -3 33 0t35 0q4 1 3 -2q0 -2 1 -2q266 13 369 8q5 -2 23 -5t26 -9q4 -14 8 -17 q13 -69 6 -116q-4 -73 -16 -80q-14 1 -38 2.5t-44 2.5t-37 1q-6 -68 -6 -223q-4 -85 12 -139q7 -25 17 -39zM1073 145q-7 0 -13 2.5t-11 2.5l-5 1q-4 1 -4 5q-17 3 -38.5 14t-32.5 14q-14 9 -21 11q-5 6 -19.5 17t-19.5 19q-1 1 -5 2.5t-5 2.5q0 4 -2 9.5t-2 10.5 q-12 23 -17 56.5t-5.5 53.5t2 68.5t2.5 59.5q0 106 4 137q5 3 8 15.5t8 15.5q17 0 55.5 -3t57.5 -2q16 95 -2 177q-3 4 -15 4t-16 4q-10 -1 -42.5 2.5t-45.5 -0.5q-2 0 -4 -2q-4 3 -10.5 3.5t-16.5 -0.5t-14 -1l-219 -6l-7 -4q-70 -3 -112 14q-19 -3 -47 8q-9 7 -30 19.5 t-30 19.5q0 4 -2 4q-25 16 -45 78q-1 3 -4.5 10t-4.5 10.5t1 10.5q-10 26 -2 45q-6 49 33 125l37 32q11 0 33.5 8t35.5 7q1 0 19 -6q41 -9 59 -25q29 -20 49 -88q-4 -2 -1.5 -10t1.5 -11q70 -11 172 9q1 1 -1 2.5t-4 4t-1 5.5q4 4 3.5 14.5t4.5 12.5q8 80 -32 151 q-2 4 -9 13.5t-10 14t-9 12t-11.5 12.5t-12.5 10q-3 4 -10 10t-10 10q-6 6 -14.5 11t-18.5 9t-14 7q-3 3 -10 8t-9 6h-10l-22 8l-31.5 7t-32.5 8q-60 -4 -84 -11q-13 1 -36.5 -5t-37.5 -7q-14 -5 -16 -4q-99 -45 -143 -119q-61 -56 -78 -176q-11 -59 -2 -127q4 -15 12 -35.5 t10 -25.5q5 -14 10.5 -24.5t14 -23t12.5 -18.5q8 -13 31 -35.5t31 -36.5q3 -3 14 -11.5t16 -16t6 -17.5q-205 -134 -192 -377h-6q1 -18 8 -49.5t8 -46.5q17 -54 60 -104q39 -48 86 -74q4 -5 8 -8t9.5 -6.5t8 -4.5t11.5 -5t12 -5q-2 -2 -1 -4q1 -1 3 0h8q20 -7 70 -20 q10 -3 28.5 -8.5t33 -8.5t30.5 -4q19 0 55 4q3 0 6 -1t6 -1q5 1 64 21q54 14 84 26q36 23 67 54q5 -5 5 -2q4 0 6 3t0 5l-4 -4l20 30q11 0 8 -10q5 3 8 0q8 -15 31 -31t31 -26l4 -8q3 -2 17.5 -9.5t19.5 -15.5q16 -3 31 -12q79 -27 124 -21q7 22 14.5 65t14.5 66zM672 643 q4 -18 5 -36.5t1.5 -46t1.5 -38.5q11 -143 -23 -217q-4 -8 -16 -20q-5 -9 -33 -29l-22 -16l-17 -4l-10 -9q-10 0 -16 -2l-33 -4q-15 -4 -43.5 2t-32.5 6q-26 5 -35 9q-8 3 -8 10q-4 -1 -8 1.5t-6 2.5q-3 4 -20.5 22.5t-23.5 26.5t-17.5 24t-15.5 32t-5 34q0 13 4.5 42.5 t1.5 49.5q4 11 9 34.5t9 35.5q12 19 58 65q58 31 131 41t151 -6q2 -2 4 -5.5t3.5 -4.5t5.5 0zM659 424q0 4 1.5 15t1.5 18q0 15 -2.5 48.5t-2.5 51.5q-1 11 0.5 43.5t-2.5 38.5q-15 3 -32.5 4t-39.5 1t-34 1q-1 -1 0 -2t0 -2q-38 3 -72 -6q-73 -17 -106 -47q-23 -23 -43 -51 q-1 -15 -8.5 -70t-4.5 -82q2 -19 17 -45q9 -21 33 -45q6 -6 15 -16t14 -15t14 -10.5t20 -9.5q6 -1 28.5 -4t32 -4t27 -1t32 3t27.5 10q18 11 27.5 17.5t19.5 17.5t17 26l6 15q10 27 14 100zM596 23q0 4 2 6q-3 3 -6 -0.5t-6 0.5q-3 -9 0 -9q6 6 10 3zM874 47q0 -4 3.5 -6 t5.5 0q-2 0 -2 4q-3 0 -5 1zM791 1102q1 1 0 5.5t-3 4.5q0 -7 3 -10zM895 37v-4q0 1 3 0t3 2q-4 0 -6 2z" />
<glyph unicode="'" horiz-adv-x="321" d="M68 1323q0 7 -1 26t-1 27q-4 50 0 54q6 12 84 12q77 0 100 -4q4 -13 10 -15q0 -13 -3 -46t-3 -50q0 -115 -6 -172q-4 -50 -4 -78q-4 -92 0 -121q-84 -6 -164 0l-8 256v47.5t-4 63.5zM242 1419q-108 4 -158 -2l6 -127q3 -48 4 -157t4 -158q39 -2 123 -2q-1 25 4 147 q0 10 1 21.5t2.5 25t2.5 21.5q3 41 5.5 117t5.5 114z" />
<glyph unicode="(" horiz-adv-x="499" d="M434 1620l25 -57q2 -5 7.5 -12.5t8.5 -13t2 -9.5q-1 -6 -7 -11t-16.5 -10t-15.5 -8q-44 -23 -63 -59q-6 -22 -9.5 -51t-5.5 -66t-4 -55q-3 -40 0 -82q1 -65 -6 -219.5t-4 -233.5q4 -62 4 -90q0 -17 -1 -53t-1 -53q2 -72 -10 -189q-1 -12 4 -92q1 -19 3 -65.5t4 -72 t8.5 -60t17.5 -58.5q14 -24 20 -31q22 -37 80 -69q-3 -18 -19 -45t-20 -35l-16 -43q-13 -31 -21 -37q-4 -3 -14 -1t-14 -1q-5 3 -20.5 12t-24.5 12q-8 5 -24 10t-21 7q-13 7 -30 23.5t-28 23.5q-42 50 -57 82q-3 1 -3.5 4t1.5 4q-6 2 -6 6q-17 28 -21 96q-8 45 -4 101 q6 70 2 207q-12 147 -6 211v106q0 17 2 50t2 50t-4.5 57.5t-3.5 61.5q0 20 3 55t3 52q0 28 -4 82q-7 92 4 245q2 21 3.5 54.5t4 61.5t8.5 52q6 23 31 64q5 8 11.5 20.5t12 21t11.5 15.5q27 35 117 86q26 15 49 21h4q2 0 12 -11q3 -3 6 -5q4 -2 5 -5q14 -20 28 -51zM389 1481 q8 8 19.5 16t26 17t22.5 14q-15 20 -37.5 72.5t-40.5 72.5q-96 -43 -158 -110q0 -6 -2.5 -11.5t-7.5 -12.5t-6 -9q-38 -60 -47 -133v-42.5t-4 -54.5q0 -4 -3.5 -42t-3.5 -58q0 -10 -1.5 -42.5t-0.5 -51.5q0 -15 3 -44t4 -40q1 -35 -3 -93t-4 -81q0 -59 11 -84 q-6 -63 -6 -182l-2 -82q-2 -82 2 -82q1 -11 4.5 -40.5t3.5 -47.5q0 -8 -1.5 -38t-0.5 -48q4 -45 2 -66q0 -16 -2 -43.5t-2 -40.5q5 -81 8 -96q9 -83 59 -133q0 -3 3 -6t3 -6q3 -3 8 -7t8.5 -7t7 -7.5t5.5 -9.5q9 -3 20 -13.5t17 -13.5q3 -3 10.5 -5t11.5 -5 q10 -3 35.5 -16.5t40.5 -14.5q6 23 16 45t25.5 50t22.5 42q-1 1 -11.5 10.5t-19.5 10.5q-18 22 -43 43q-4 9 -16.5 29t-16.5 34q-2 2 -2 21q-4 4 -4 6q-2 4 -2 21q-8 32 -11 72.5t-4 89t-3 73.5q0 3 -1.5 8t-1.5 8q-3 15 -3 31t1.5 35t1.5 29q-1 3 2.5 4t2.5 4q8 84 8 184 q0 24 -3.5 79t-2.5 85v37q-1 55 3 160.5t5 136.5q0 5 2 16.5t2 16.5q0 17 -2 49t-2 45q0 57 10 135q1 5 -0.5 23t2.5 22q8 41 43 72zM453 1559q0 4 -4.5 3t-4.5 -3h9z" />
<glyph unicode=")" horiz-adv-x="487" d="M360 287q0 -16 -0.5 -45t-0.5 -53t1 -46q0 -12 1.5 -32.5t1.5 -36.5t-3 -31l-16 -104q-26 -56 -72 -99q-40 -40 -55 -49q-77 -35 -90 -39l-21 -4l-10 -8q-12 5 -26 37q-3 7 -7.5 23.5t-7.5 23.5q-2 5 -14 37.5t-16 52.5q6 3 6 6q6 13 28 24.5t27 16.5q15 11 37 55 q3 4 7 14.5t7 14.5q-1 34 3 100.5t5 83.5h-2q3 45 -3 126.5t-5 121.5q0 26 4 31q-2 2 -2 16q-2 34 4 150q-6 33 -1.5 99t1.5 99v150v125q0 12 -1 32.5t-1 28.5q11 162 -39 238q-10 10 -10 18q-20 14 -33 37q-10 6 -16 11.5t-11 12t-10 11.5q49 74 72 160q4 0 10 -6h11 q6 -6 18 -9q13 -10 41 -22t39 -19q26 -13 63 -53q9 -18 17 -18q0 -4 8 -16.5t14 -18.5q3 -1 10 -19t15.5 -50.5t15.5 -67.5q9 -36 5 -156.5t-1 -169.5q0 -5 1 -16.5t1 -16.5q3 -30 3 -63t-1.5 -71.5t-1.5 -59.5q0 -128 -4 -166q0 -46 2.5 -177t1.5 -214zM45 -86 q30 -109 51 -152q108 27 172 97q67 70 74 159q1 7 1 16.5t1 16.5q4 41 0 115t0 106v23q-5 99 6 168q-3 27 -6.5 92t-7.5 104q-3 29 4 39q3 16 1.5 46.5t2.5 41.5q-4 38 0.5 102.5t1.5 96.5q0 6 -3 37t-3 49q-3 32 -3.5 65.5t0.5 79.5t1 66q0 5 0.5 34t0 42t-1.5 36.5 t-4.5 40.5t-8.5 31l-17 31q-2 4 -4.5 13t-4.5 16t-5 8q-6 6 -22 27t-29 30q0 3 -2.5 4t-3.5 4q-4 3 -16 13.5t-21 16t-19 9.5l-41 17q-4 2 -16.5 9.5t-20.5 8.5l-49 -110h-2q1 -7 -3.5 -16.5t-10.5 -14.5l31 -19q3 -4 6.5 -9.5t5.5 -9t6 -7t10 -6.5q2 -3 10.5 -13t13 -18 t5.5 -16q19 -32 29 -82l6 -31q4 -16 1.5 -74.5t-1.5 -83.5q3 -32 3 -69t-1.5 -83t-1.5 -71q0 -118 -2 -186q-1 -25 -1 -87t-1 -98q-1 -14 0 -39t0 -36q-5 -61 3 -168.5t5 -161.5q-1 -8 -3.5 -40.5t-6 -60t-7.5 -34.5q-1 -2 -6 -12.5t-6.5 -13.5t-6 -12.5t-7 -13t-7 -11 t-8.5 -11t-9.5 -9t-11.5 -8.5t-13 -6q-5 -5 -14.5 -10.5t-12.5 -7.5z" />
<glyph unicode="*" horiz-adv-x="868" d="M750 1257l16 -8q10 -20 22 -60.5t17 -53.5q1 -4 -2.5 -7t-3.5 -6q-114 -45 -209 -98q17 -25 34.5 -55.5t38 -70.5t31.5 -60q1 -3 4.5 -4.5t3.5 -4.5q-4 -6 -10 -13t-10.5 -10.5t-15 -11.5t-13.5 -10l-28 -18q-19 -14 -31 -14q-9 2 -39 39l-18 16q-18 23 -50.5 62.5 t-42.5 52.5q-6 -3 -10 -11q-3 -1 -4 0.5t-4 1.5q-19 -17 -39.5 -38.5t-31.5 -35t-34 -44t-30 -39.5q-9 -3 -20 1.5t-17 4.5q-1 5 -14.5 11t-16.5 13q-3 0 -5 2.5t-3 2.5q-4 6 -14 12.5t-13 9.5q-2 1 -4.5 2.5t-5.5 1.5q-2 7 -4 17l33 49q23 39 51 108q16 26 14 39 q-1 5 -14.5 12t-21.5 9q-10 4 -22.5 7.5t-18.5 6.5q-24 16 -107 51q-6 2 -22 2l-5 17q2 5 12 36.5t19 47.5q0 4 2 10t2 10q7 7 10 23l44 -11t63 -14q34 -5 37 -6q88 -29 98 -31q2 38 14 103q1 8 6.5 58.5t10.5 78.5q32 11 76 2q40 -3 51 -10q13 -75 24 -224q24 -4 65 10.5 t48 16.5q14 3 49.5 9.5t57.5 12.5zM573 1034q119 62 209 99q-17 72 -34 104q-30 0 -72 -10q-8 -4 -39 -8l-48 -16t-69 -15l-8 4q-15 177 -27 229q-11 0 -40.5 4.5t-51.5 1.5q-1 -48 -11.5 -126.5t-12.5 -102.5q-3 -1 -9 -8t-10 -8q-6 -1 -9.5 -1.5t-11.5 2t-11.5 4t-11 5 t-9.5 4.5q-63 19 -115 31q-12 3 -32.5 6t-32.5 6q-5 -21 -17 -54.5t-16 -47.5q24 -6 104 -45q8 -4 46.5 -20.5t56.5 -29.5q1 -3 -1.5 -4t-2.5 -4q1 -1 2.5 -1t2.5 -1t1 -4q-40 -119 -96 -194q35 -38 84 -60q5 6 30.5 39.5t36 46t32 34.5t42.5 36q8 1 17.5 5t13.5 5 q26 -26 72 -84.5t75 -85.5q52 27 80 57q-48 74 -64 117q-7 8 -20.5 33t-20.5 33q-10 16 -2 24z" />
<glyph unicode="+" horiz-adv-x="1071" d="M946 606q3 -23 1 -81t1 -83q-8 -4 -12 -8q-44 -5 -123 -6t-127 -6q-32 9 -51 -10q-2 -96 -2 -279q0 -7 1 -10.5t-3.5 -5.5t-6.5 -2.5t-8.5 -1t-9.5 -0.5q-47 -8 -117 -4q-46 0 -55 4q-5 267 -4 299q-44 4 -145 6.5t-148 7.5q-3 0 -3.5 1.5t0 3.5t-0.5 5t-4 3t-4 3 q-4 5 -0.5 24.5t2.5 25.5v102q12 9 14 16q191 12 287 6q-7 98 4 234q1 7 1 23.5t1.5 28.5t5.5 22q-6 6 -2 16h61.5t82.5 -4q26 0 30 -2q4 -1 9.5 -7t9.5 -7q0 -15 -2.5 -89.5t-1.5 -129t8 -78.5q1 0 74.5 0.5t74.5 -0.5q93 -12 142 -5q2 -2 4 -4.5t2.5 -3.5t2.5 -2.5t4 -1.5 h7zM610 131l2 8q0 13 -1 28t-1 21q0 19 2 29q-3 25 0 66v129q1 4 6 8.5t5 7.5q5 1 10.5 6t9.5 6q6 3 11.5 3.5t14 -0.5t13.5 -1q4 0 16 2t19 2q192 6 207 7q0 6 2.5 48t2 49t-2.5 48q-25 -2 -74 -2q-17 0 -53.5 3.5t-57.5 2.5q-23 -2 -67 -2q-27 0 -41 2q-6 -1 -10 -2.5 t-6.5 2t-4 6t-1.5 9v11t0.5 11.5t0.5 12q-4 23 -1.5 88t1.5 86q-1 7 0.5 40t-2.5 46q-23 4 -78.5 5t-74.5 4q-3 -21 -8 -132q-1 -32 -1.5 -97t-1.5 -89l-6 -1q-5 -1 -6 -5q-69 2 -97 2t-96 -2.5t-91 -3.5q0 -98 -7 -146q52 -4 148.5 -6.5t138.5 -5.5q3 -4 5 -5t8 -2t8 -1 q-3 -107 2 -297q30 -4 157 2z" />
<glyph unicode="," horiz-adv-x="497" d="M369 217q5 -104 4 -141q-1 -10 -1 -20t0.5 -21t0.5 -17q-6 -24 -6 -26q-5 -24 -29 -98.5t-27 -118.5q-3 -1 -3 -4.5t-3 -6.5q-16 -1 -58.5 1.5t-58.5 -1.5q-2 2 -8 9t-12 8q5 33 13.5 106t13.5 109h-56q-3 13 -12 16q-2 51 -2 71t2.5 70t3.5 80q14 3 29.5 5t27.5 3 t31 0.5t27.5 -0.5t30 -1.5t26.5 -2t28 -2.5t25 -2q2 -2 5 -8.5t8 -7.5zM352 74q3 54 0 106q0 4 -1 13t-1 14q0 3 1.5 5t0.5 5q-140 12 -205 -2q3 -30 -0.5 -99.5t0.5 -101.5q50 0 68 -2l-27 -229q11 4 52.5 1.5t52.5 -1.5q3 28 10 57t18 63t15 52q2 8 6 20.5t6.5 21.5 t3.5 17q1 10 1 20.5t-0.5 22t-0.5 17.5z" />
<glyph unicode="-" horiz-adv-x="788" d="M659 625q5 -28 6 -58.5t0 -78.5t-1 -56q-12 -10 -25 -14h-41l-41 4q-15 0 -44 -2t-44 -2q-38 3 -115 1t-112 1q-12 1 -37 3.5t-35 2.5t-35 -2q-3 1 -5 4.5t-5 3.5q1 32 0 86.5t0 81.5q1 3 6.5 4.5t5.5 5.5q31 0 369 17q21 4 78 0.5t75 -2.5zM643 440q4 18 2.5 83t-0.5 83 q-19 -6 -39 2q-6 -3 -14 -3.5t-19 0.5t-14 1q-21 1 -131 -4q-37 -2 -136 -6t-149 -8q6 -48 2 -144q28 0 105 -4.5t123 -1.5q45 1 135.5 1t134.5 1z" />
<glyph unicode="." horiz-adv-x="485" d="M350 10l-12 -16q-154 -5 -211 12q-4 66 -4 111q0 38 4 116q96 19 221 3q16 -31 12 -109t-10 -117zM145 217q0 -17 -2 -64t-0.5 -78.5t7.5 -56.5q110 -12 182 -4q0 2 2 24t2.5 27t2 25t2 28.5t0.5 25.5t-0.5 27t-2 23t-4.5 23q-127 13 -189 0z" />
<glyph unicode="/" horiz-adv-x="831" d="M782 1411l-30 -80q-34 -95 -41 -110l-41 -113q-10 -31 -21 -55q-1 -4 -6 -16.5t-7.5 -22t-2.5 -19.5q-4 -3 -6 -6t-4.5 -7t-4.5 -7q-2 -7 -10 -34t-14 -40l-74 -188l-20 -49q-4 -10 -12.5 -30t-12.5 -34l-12 -10q-3 -12 -9.5 -29t-9.5 -31q-9 -20 -43 -114 q-15 -50 -36 -99q-7 -20 -19.5 -58.5t-19.5 -57.5q-15 -39 -45.5 -115.5t-34.5 -85.5q-3 -3 -8 0q-3 -1 -4.5 -4.5t-4.5 -3.5q-31 3 -88.5 0t-89.5 0q-15 3 -2 16q-1 1 -3 1.5t-3 2t0 4.5q65 182 135 357q9 23 30.5 84t35.5 94q13 28 34.5 88t34.5 88q20 44 70 174 q7 16 15.5 46.5t15.5 45.5q18 46 98 264q4 10 27 76.5t41 98.5q5 -1 6 2q2 4 4 6q141 5 196 -2q10 -10 -4 -27zM662 1143l30 78q13 27 29.5 77.5t21.5 63.5q15 44 27 59q-19 0 -55 1.5t-65.5 1.5t-53.5 -3q-21 -42 -39 -87t-41.5 -115.5t-30.5 -90.5q-9 -29 -30 -80t-25 -61 q-5 -14 -14.5 -45t-18 -55t-18.5 -45q-1 -5 -27 -64q-5 -13 -15 -33t-13 -28q0 -7 -2 -13.5t-6.5 -15t-6.5 -12.5l-8 -29q-9 -26 -31.5 -82t-31.5 -86q-10 -25 -30.5 -84.5t-33.5 -89.5l-22 -53q-11 -34 -27 -74q-13 -27 -33.5 -84.5t-32.5 -85.5q8 0 58.5 2.5t59 2 t56.5 -2.5q23 72 62 166q19 47 49.5 135t40.5 115l94 250q3 1 6 0q2 1 2 2q11 26 30.5 77t31.5 76q1 4 13.5 32t17.5 44q15 49 26 80q16 35 56 156z" />
<glyph unicode="0" horiz-adv-x="923" d="M172 115q-10 11 -18 24t-18 32t-15 28q-18 41 -23.5 89.5t-6 128t-1.5 107.5q-5 117 -4 138q3 135 0 272q0 19 -1.5 50.5t-1.5 56t3 46.5q1 13 5 36t5 34q3 11 5 34t5 34q11 28 23 53q4 11 11.5 23t17.5 27t14 22q41 38 78 57q38 21 98 33h2q0 2 2 4q154 20 226 -4 q2 -1 8.5 -4t11.5 -4l23 -5q3 -1 9 -5t9 -5q2 -2 20 -8q7 -3 17.5 -11.5t17.5 -11.5q3 -5 14 -12t15 -12q86 -95 98 -182q17 -147 13 -416q0 -65 2 -98q10 -117 2 -211q0 -12 -1 -31t-1 -27t2 -25.5t2 -25.5q0 -21 -3 -42.5t-8.5 -45.5t-7.5 -37q-6 -10 -19.5 -36t-25 -43.5 t-26.5 -32.5q-54 -58 -107 -78q-41 -17 -67.5 -25.5t-67.5 -14.5t-82 -1l-39 6q-8 2 -20.5 3.5t-20.5 4t-14 8.5q-4 0 -15.5 2.5t-15.5 1.5q-8 7 -28.5 17.5t-28.5 17.5q-2 1 -11 7.5t-11.5 8.5t-10.5 8t-11.5 9.5t-9.5 9t-10 10.5t-8 11zM109 461v-125l16 -92 q17 -45 18 -47q32 -62 52 -82q20 -26 55 -47q57 -41 112 -50q12 -1 35 -6t37 -6q91 -7 211 45q10 4 19 8.5t18 11t14.5 11t15.5 14t13 12.5t14 15t13 14q5 12 22 33q3 10 14 27t13 22l4 23q12 39 16 94q0 22 -4 72q0 21 3.5 69.5t2.5 73.5q0 11 -2 34t-2 36q0 9 -2.5 31.5 t-1.5 35.5q0 4 1 12.5t1 12.5q-11 131 -2 268q0 82 -10 160l-6 51q-7 34 -25.5 67.5t-33.5 52.5t-42 50h-14q-3 3 -10 6t-10 6q-6 3 -20 14t-23 15q-68 43 -177 33q-78 -3 -127 -21q-44 -16 -51 -20q-11 -5 -20.5 -11t-15.5 -10.5t-15.5 -12.5t-15.5 -13q-8 -6 -15.5 -15 t-11 -14.5t-11 -18t-9.5 -16.5q-17 -24 -17 -45l-10 -6q-3 -4 -5 -24.5t-5 -28.5l-6 -50q-5 -30 -7 -69.5t-2 -60.5t2 -75.5t2 -60.5q0 -10 5 -55q0 -7 -1.5 -25t-1.5 -30q-1 -12 -1 -35t-1 -35q-3 -39 1.5 -112.5t3.5 -110.5zM328 627q-3 37 -3 82t1.5 103t1.5 91v117 q-4 85 2 113q4 16 22 41l19 18l12 4l33 21q47 15 104.5 -10t69.5 -66q6 -17 10 -82q4 -35 0.5 -125.5t-2.5 -122.5q4 -46 4 -76q0 -96 -2 -145q-3 -33 -3 -71.5t1.5 -83.5t1.5 -66v-43q0 -1 -22 -37l-13 -15q-13 -18 -35 -34q-4 0 -22 -11q-43 -13 -92 2q-9 3 -21 11.5 t-18 11.5q-3 8 -16.5 24t-16.5 25q-5 10 -10 68q-4 46 -4 69q0 5 2 16.5t2 16.5q0 6 -3 47t-3 64v43zM340 1067q0 -20 1.5 -71.5t0.5 -80.5q-2 -88 -2.5 -106t2 -108t2.5 -109q0 -13 1 -32t1 -30q4 -32 4 -87.5v-69.5q5 -56 8 -64l21 -28q18 -22 24 -27q27 -16 60.5 -14 t56.5 16q39 24 53 63q6 15 8 29.5t0.5 40t-1.5 33.5q0 14 -1 38.5t-1 35.5q-1 37 2.5 136t-0.5 128q-3 46 -1 158t-1 155q0 44 -7 60q-12 28 -36 45q-17 13 -44.5 21.5t-50.5 6.5q-26 -1 -56 -23.5t-38 -45.5q-6 -16 -6 -70z" />
<glyph unicode="1" horiz-adv-x="669" d="M285 997q-5 122 -11 156q-158 -62 -186 -78q-20 7 -23.5 35.5t1.5 58.5q0 12 -2 42t-0.5 49.5t8.5 37.5q4 0 6.5 -4t5.5 -4q-1 2 -3.5 6t-2.5 7q4 1 8.5 3.5t9 6.5t8.5 6l54 24l78 50l43 20q34 20 40 29q20 0 106.5 -3t96.5 1q4 -4 5.5 -12.5t4.5 -12.5q1 -16 -4 -98 q-1 -19 4 -125q3 -31 2.5 -97t2.5 -104q0 -5 -1 -14t-1 -14q0 -19 2 -57t2 -58q1 -12 0 -31t0 -31q0 -8 2 -26t2 -27q1 -70 -0.5 -192t-1.5 -160q0 -8 6 -113q0 -5 -6 -104q-4 -102 -4 -150q-7 0 -7 -10q-147 -13 -211 -6h-13t-13 4q-6 6 -6 27q0 11 1.5 33t1.5 41t-3 36 q-3 33 -3.5 70.5t0.5 89t1 70.5v227q0 13 0.5 35.5t0.5 39t-1 31.5q0 15 -1.5 65t-0.5 79v39q-1 23 0.5 60t1.5 52zM84 1094q29 16 94 40.5t94 39.5q3 -3 8.5 -4.5t8.5 -4.5q6 -24 10 -106q4 -138 2 -207v-137v-133v-50q2 -33 2 -96q0 -22 -1.5 -87t-0.5 -99q8 -91 4 -236 q68 -6 215 6q-4 47 2 132t6 100q0 14 -2 39t-2 39q0 28 -1 79t-1 74q-1 22 0.5 62t1.5 53q1 59 0 121t-3 135t-3 109q-1 44 -3.5 157t-2 149.5t3.5 151.5q-26 0 -87 1t-93 1q-2 0 -4 -2q-11 -6 -39 -20t-46 -24.5t-34 -22.5l-129 -66q-5 -33 -5 -61t2.5 -72t2.5 -61z" />
<glyph unicode="2" horiz-adv-x="874" d="M788 250q4 -3 8 -14.5t7.5 -27.5t5.5 -22q5 -22 0 -84q0 -24 -12 -86q-2 -3 -3.5 -8t-3 -8.5t-5 -6t-9.5 -1.5q-4 -1 -2 4q1 2 0 2q-17 4 -102 0t-107 -4q-19 0 -54 1t-54 1q-71 0 -197 -4q-3 -1 -4 1t-4 1q-27 -3 -86.5 0t-87.5 0q-4 2 -2.5 9t0.5 9t-3.5 6t-2.5 7 q-3 8 -3.5 16.5t0.5 22t1 20.5q0 11 -1 38t-0.5 46t3.5 37q2 16 28 106l13 43q1 3 5 6.5t5 6.5q3 4 4 13.5t4 12.5q4 4 4 8v7l6 8l4 16q1 3 5.5 5t5.5 5l4 15l24 37q19 33 29 43q6 16 39 59l31 47q13 18 34 49.5t29 42.5q4 2 10.5 12t14.5 13q3 10 7.5 17.5t12 15.5t10.5 12 q8 10 20.5 29.5t24 35t23.5 27.5q23 40 47 96q4 9 8 28t6 26q17 73 4 108q-5 18 -16 27q-15 5 -16 6q-3 1 -7 6.5t-6 7.5l-14 4q-4 2 -13 10.5t-17 11t-19 -0.5q-8 0 -25 -10q-35 -15 -49 -41q-2 -7 -12 -35.5t-14 -46.5q-9 -40 -9 -95q0 -18 -4 -34q-37 -11 -83 -12.5 t-74 1t-80 9.5q-3 1 -5.5 4.5t-5.5 3.5q-3 67 0 135q12 93 21 121q12 34 31 67q3 4 6 14t6 13q3 5 10.5 10.5t9.5 7.5q3 4 10 15.5t11 15.5l25 19q76 53 133 63l49 8q15 0 43 -4q7 0 24.5 1t30.5 0.5t27 -3.5q40 -9 84 -24q96 -42 182 -146q47 -82 45 -158q0 -47 -2 -65 q-5 -36 -43 -152q-4 0 -7.5 -6.5t-6.5 -9.5q-9 -28 -37 -69.5t-33 -49.5q-1 -3 -2.5 -4.5t-4.5 -3.5t-5 -4q-1 -4 -3.5 -8.5t-7 -9.5t-6.5 -7q-8 -11 -20 -30.5t-23.5 -35.5t-25.5 -28q-10 -17 -35 -45t-33 -39l-22 -33q-10 -11 -19.5 -24.5t-20.5 -31.5t-16 -26 q-60 -92 -78 -186q86 6 256 -6q7 0 22 0.5t28 0.5t24 -1h43q5 0 19 1t23 0.5t13 -3.5zM778 16q7 51 10.5 78t1.5 71.5t-14 70.5q-70 0 -86 -3q-10 3 -24 3.5t-33 0.5t-31 1q-50 4 -80 4q-5 0 -14.5 1t-13.5 1h-23q-19 0 -62.5 -2t-64.5 -2q-2 51 37 135q23 50 47 84 q3 5 8.5 15t7.5 13q6 9 24.5 32.5t27.5 37.5q17 27 54.5 72t51.5 65q42 60 49 74q7 0 11 4q6 6 14 24t10 21q10 6 16.5 15.5t13.5 26.5t11 24q26 41 31 53q5 11 18 59l17 68q10 90 -23 176q-5 12 -12 24t-11 17t-16.5 19.5t-15.5 17.5l-43 39q-62 47 -107 63q-58 21 -133 21 h-74q-10 -3 -29.5 -6.5t-29.5 -6.5q-49 -15 -117 -67l-22 -27q-2 -2 -11 -12t-12 -16l-22 -45q-5 -14 -14 -40t-13 -38q-1 -13 -4 -41.5t-4 -44t-2 -38.5t0 -42t4 -37q123 -19 213 0q0 188 78 246q13 10 38.5 14.5t45.5 -0.5q18 -3 39.5 -23t29.5 -24q26 -36 27 -39 q3 -7 4 -14.5t2 -13t0 -14t-1 -12.5t-2.5 -13.5t-3 -12.5t-3.5 -13.5t-4 -12.5q-1 -5 -1 -14t-1 -16t-4 -11l-9 -17q0 -10 -2 -12q-5 -12 -24 -51q-3 -5 -6 -14t-6 -13l-9 -10q-1 -1 -6 -15q-3 -3 -8 -6t-8 -6l-10 -14q-17 -16 -27 -41q-29 -33 -77 -101.5t-58 -82.5 q-39 -51 -66 -97q-53 -80 -80 -145q-51 -120 -57 -195q4 -12 4 -18q0 -12 -2 -46t-2 -52q0 -9 2.5 -28.5t1.5 -33.5q25 4 81 1.5t75 -1.5l207 4q19 0 55 -1t55 -1q36 0 107.5 3t107.5 3z" />
<glyph unicode="3" horiz-adv-x="919" d="M836 395q0 -149 -33 -182q-68 -132 -166 -188q-11 -3 -66 -21l-24 -8q-2 -2 -8 -2q-1 0 -4.5 -1t-4.5 -1q-41 0 -53 -4q-2 0 -43.5 1t-64.5 5q-70 12 -101 26q-10 5 -24.5 17.5t-26.5 15.5q-8 16 -29 36.5t-28 33.5l-25 20q-2 6 -5.5 18t-6.5 21t-6 15q-24 66 -29 127 q0 13 2.5 32.5t3.5 26.5t1 18.5t1 18.5q0 4 3 26.5t-1 26.5q148 36 236 6q1 -3 2.5 -2t3.5 0q7 -26 4.5 -87.5t7.5 -84.5q14 -33 37 -49q5 -5 15.5 -10.5t13.5 -7.5t11.5 -8t10.5 -6.5t12.5 -3.5t16.5 1q39 5 51 10l25 21q21 15 28 33q3 17 3.5 41.5t3.5 40.5 q-1 13 0.5 64.5t-2.5 74.5q0 30 -15 57q-10 27 -26 35q-20 12 -41 12q-7 1 -19.5 1t-19.5 1q-8 1 -25.5 5t-25.5 4q-8 1 -15.5 -1t-13.5 -2q-31 88 2 207q26 8 83 15t79 14q18 11 34 47q8 84 -2 205q0 33 -2 49q-11 30 -16 35q-19 17 -56 23t-67 1q-64 -22 -82 -112 q-4 -15 -4 -82q0 -26 -10 -64q-50 -12 -84 -4q-17 -4 -38 -4t-33 1t-43 4.5t-38 4.5q1 5 0 8t-3 4.5t-4.5 4.5t-4.5 6q-1 4 0 12t0 11q0 2 -2.5 37t-2 39t2.5 40q0 4 2 11.5t2 11.5q1 6 1 17t1 19.5t4 14.5l8 23q6 23 27 61l29 29q4 5 10 16t10 16l15 13q33 33 71 55 q22 14 33 18q5 2 15.5 7t16 7.5t15.5 5t21 3.5q100 12 153 6q24 -2 74 -18q50 -13 68 -23l16 -16l45 -29q6 -10 25.5 -33.5t27.5 -38.5q5 -8 10 -24t7 -21l20 -41q17 -45 21 -168q9 -87 -27 -161q-5 -9 -13 -27t-13 -28t-13 -23.5t-17 -23t-20 -17.5q-18 -13 -20 -17 q36 -16 69 -73q52 -80 56 -277zM815 373q3 67 -2 102q-2 14 -2 39q-13 113 -70 182q-4 4 -11 14t-14.5 16.5t-17.5 10.5q1 3 -2.5 7t-3.5 8q16 16 29 18q40 34 61 92q22 49 31 103q4 31 0 122q-5 70 -12 99q-3 13 -12.5 32t-12.5 29q-24 73 -92 127q-35 27 -74 39 q-5 2 -22 8t-25 9q-57 14 -192 2q-15 -2 -30 -7.5t-24.5 -10t-24.5 -13t-22 -12.5q-41 -25 -55 -39q-10 -9 -24.5 -30t-20.5 -28q-28 -28 -33 -39q-3 -5 -6 -19t-6 -20q-10 -23 -12 -38q-3 -8 -3 -21t-1 -16q-9 -21 -9 -47q0 -4 1 -16t1 -19v-38.5t4 -43.5q103 -14 218 -2 q4 23 5.5 69.5t4.5 67.5q6 49 37.5 84t77.5 41q24 5 81 -10q7 -3 20.5 -13.5t22.5 -11.5q15 -27 15 -67q0 -11 4 -78t4 -107q0 -36 -4 -45q-18 -42 -27 -51q-13 -13 -47 -18q-23 -5 -66.5 -9t-58.5 -6q-24 -102 -4 -184q16 -2 63.5 -5t74 -11t44.5 -27q23 -53 23 -84 q5 -175 -8 -240q-2 -1 -30.5 -25t-49.5 -28q-21 -8 -53 -8q-9 0 -25 4q-3 2 -8.5 6.5t-11 7.5t-11.5 4l-32 25q-4 7 -13.5 19.5t-13.5 19.5q-9 27 -8.5 84t-1.5 86q-5 -5 -25.5 -0.5t-23.5 4.5q-1 0 -3.5 -1t-3.5 -1q-4 0 -11 3t-11 3q-36 1 -45.5 1t-44 -6t-45.5 -7 q0 -19 -7 -60t-4 -67q10 -114 54 -176q4 -8 15 -18.5t15 -16.5q3 -4 8.5 -12.5t8 -12t7 -9t9.5 -9.5t12 -8l19 -17l16 -4l6 -8l43 -16l45 -15q74 -11 132 -2q4 0 12 1t12 1h29q5 0 10.5 3.5t7.5 4.5q10 4 23.5 7.5t24 7.5t20.5 10q68 37 119 115q45 70 49 92q14 41 14 123z " />
<glyph unicode="4" horiz-adv-x="952" d="M870 485q5 -2 13 -4q19 -139 -6 -233q-13 -5 -62.5 -4.5t-56.5 0.5q-3 -32 0 -98.5t0 -108.5q0 -25 -10 -45q-134 -16 -232 8q-6 25 -6 125q-4 84 -2 121q-57 5 -232 0q-18 0 -52 1t-52 1q-6 0 -49 -3t-51 1q-12 95 -6 151q0 31 2 41q3 15 12 27q13 32 38.5 89.5 t45 105.5t33.5 94l45 102q9 19 41 109q9 27 29.5 79t29.5 80q2 5 5.5 16.5t7 21t7.5 16.5q0 1 13 22q4 18 10 27q3 8 12.5 23.5t12.5 23.5q8 15 15.5 44t10.5 38q22 59 27 82q41 11 106 14q60 2 144 -8q44 -5 49 -14q1 -3 -0.5 -9t-1.5 -8q-2 -29 -2 -41.5t2.5 -45 t3.5 -44.5q0 -34 -4 -96q0 -2 2 -30t-2 -30q4 -3 1 -45.5t-3 -48.5q0 -4 1 -7l1 -3q0 -1 -6 -55q-1 -22 1.5 -97t-1.5 -94q4 -39 5 -82.5t0.5 -102t0.5 -93.5q17 -3 50.5 0t51.5 0q8 -8 8 -13zM860 264q21 79 4 215q-16 3 -58.5 1t-60.5 1q-1 2 -1 5.5t-1 4.5t-4 1 q3 4 3.5 8.5t-0.5 11.5t-1 10v125q0 23 -3 68t-3 69q0 12 1 31t1 31q-2 18 -2 57q0 23 3 66.5t3 52.5q10 220 2 397q-5 1 -28 3.5t-30.5 3.5t-28.5 3t-31 2.5t-29.5 1.5t-31.5 0t-28.5 -2t-30.5 -3.5t-28 -6.5l-39 -116q-8 -27 -30.5 -76.5t-28.5 -65.5q-14 -30 -34 -86.5 t-30 -79.5q-8 -20 -31.5 -86t-39.5 -100q-16 -30 -38.5 -95t-37.5 -95q-37 -98 -59 -138l-21 -47q-6 -34 -6 -74q-4 -21 2 -59t6 -41q89 7 213 4q36 -3 115 -0.5t106 -3.5q3 -42 3 -124.5t3 -123.5q106 -15 207 -4q4 38 1.5 127t2.5 127q2 4 12 1t15 -3q15 -1 48 0.5t44 1.5 zM510 956l2 2q7 1 10.5 -1.5t4.5 -7t1 -11t-0.5 -14t0.5 -15.5q1 -18 3 -57t3.5 -74t0.5 -67q0 -17 -1.5 -49.5t-1.5 -47.5q0 -20 -2.5 -61.5t-1.5 -63.5q-3 -5 -14 -16q-15 4 -35.5 4.5t-49.5 -1t-42 -1.5q-40 0 -55 12q8 24 26 67.5t21 51.5q118 316 131 348v2zM510 494 q0 31 3.5 124.5t3 159t-6.5 125.5v2l-92 -246q-13 -39 -21 -57q-8 -23 -24 -61t-19 -45q16 0 50 1t57.5 0.5t48.5 -3.5z" />
<glyph unicode="5" horiz-adv-x="919" d="M831 567l5 -57q1 -13 -0.5 -38.5t-1.5 -35.5q0 -17 -1.5 -48t-1.5 -46q-1 -6 -1 -32.5t-3 -39.5q-2 -23 -18 -55q-38 -77 -86 -131q-6 -1 -11 -4.5t-11 -10.5t-7 -8q-3 -3 -12 -8.5t-12 -11.5q-90 -49 -215 -49q-106 0 -154 20q-15 8 -43 19q0 4 -3 6t-8.5 4t-8.5 4 q-16 10 -23 12q-3 3 -9 7.5t-9 7.5q-30 32 -80 110q-4 14 -16 53t-15 58q-3 22 -2 64.5t-2 64.5q1 1 1 3q-1 1 -0.5 2t3.5 1q-5 12 -2 29t10 24q99 29 187 15q49 -7 55 -15q3 -4 3.5 -14t-0.5 -25t-1 -18q-1 -16 4 -92q1 -5 1 -13t1 -13t4 -9q11 -24 33.5 -42t50.5 -24 q39 -8 94 23q28 17 33 25q4 5 10 47q2 31 2 92q0 11 1 34.5t1 36.5q-1 13 0.5 36.5t1.5 31.5q0 7 -2 21.5t-2 21.5q0 28 -6 43q-3 8 -12 23t-12 28q-6 6 -6 8q-11 4 -13 11q-9 0 -25.5 4t-25.5 4q-26 2 -82 -19q-23 -10 -51 -38q-36 -1 -108 1.5t-103 2.5q-3 3 -3 7 q-1 3 -5 3q-8 62 -9.5 176t-3.5 145q-1 21 -1 43t0.5 48t0.5 40q0 62 -2 80h-2l2 2q0 23 3 103t2 125q7 5 18 -6q1 1 0.5 3.5t0 4t3.5 0.5q91 6 340 2q16 -1 44 -2.5t51 -2.5t44 -1l166 -6l8 -13q24 -110 -2 -207q-3 -3 -4 -8t-4 -8q-164 17 -409 -6q-3 0 -4.5 4.5t-4.5 5.5 q-4 -18 -0.5 -84t2.5 -88q0 -15 2.5 -51t1.5 -62q4 4 12 6.5t19 4.5t17 4l28 10q101 22 187 -20q7 -3 18.5 -11.5t18.5 -11.5q3 -3 6 -4t6.5 -1t5.5 -1q51 -23 94 -80q29 -43 40 -99.5t17 -144.5zM815 367q0 10 -1.5 29.5t-1.5 35t3 29.5q3 34 -3 94.5t-7 79.5q0 32 -6 59 l-17 60q-28 67 -108 120q-29 7 -60 31q-45 18 -99 21t-99 -13q-9 -4 -21.5 -7.5t-20.5 -7t-12 -7.5q-6 1 -8.5 4.5t-3 10t-0.5 7.5q-8 7 -8 9q-4 7 -2.5 33.5t0.5 35.5q-4 94 -4 148q0 5 -1 25.5t0 32t5 15.5q3 3 12.5 3t19 -1t17.5 0q234 18 373 3q25 88 4 196q-11 1 -32 0 t-34 0q-24 3 -66 2t-65 2q-3 0 -57 6q-23 1 -71.5 0t-73.5 0q-99 7 -238 -2q0 -49 -2.5 -182t-1.5 -197q0 -18 3 -50.5t3 -37.5q1 -18 -0.5 -47t-1.5 -37q1 -34 0.5 -61t1.5 -60t8 -63q33 0 96 -1t99 -1q6 8 14.5 14.5t15.5 10t19.5 9t19.5 9.5q12 8 23 10q32 8 76 -2 q4 -3 8.5 -4t9.5 -1t8 -1q10 -5 17 -12.5t15 -23.5t11 -21l17 -27q3 -10 4 -24.5t1 -32.5t1 -27q2 -45 -4 -166q0 -7 0.5 -24t0.5 -26.5t-1.5 -21.5t-5.5 -20q0 -8 -2 -10q-5 -17 -13 -25t-28 -22q-36 -20 -49 -23q-49 -12 -97 8q-3 3 -10 4.5t-10 4.5q-3 1 -6.5 5t-6.5 5 q-16 11 -30 35q-3 7 -5 25.5t-5 29.5q-5 16 -4 66.5t1 60.5q-101 27 -215 -2q-11 -155 19 -238q3 -6 6 -19t6 -18q7 -21 37 -59l41 -53l37 -23q80 -43 143 -43q83 -3 148 6q74 10 100 25l12 8q4 3 11.5 11.5t11.5 11.5q22 13 29 20q27 27 43 53q1 2 14.5 22t17 26.5t12 22.5 t12 29t5.5 27q3 14 4 29.5t1 34.5t1 29zM109 1268q2 0 6 -2q3 -2 4 2q-2 0 -6 2t-4 -2zM102 1208q-2 2 0 2v-2z" />
<glyph unicode="6" horiz-adv-x="925" d="M825 629q7 -22 11 -84q0 -12 3.5 -70.5t2.5 -87.5q-1 -6 -3 -32.5t-3 -34.5t-3.5 -29t-5 -32t-7.5 -27t-11 -29q-21 -46 -49 -82l-33 -31q-27 -29 -68 -53q-30 -19 -73 -35q-11 -5 -21.5 -8t-17 -4t-21 -2.5t-24.5 -3.5q-33 0 -47 -2q-3 0 -4.5 3.5t-4.5 4.5q-52 0 -75 6 q-20 4 -33 12q-63 23 -98 43q-8 8 -32.5 31t-37.5 37q-47 51 -59 78l-5 26q-12 46 -12 58q-1 15 -1 45t-1 45q-3 44 -2 132t-2 132q-3 51 0 100v90q8 67 -2 158q-2 29 -2 39.5t3 37.5t3 34q1 12 3.5 34.5t4 35t5 30t8.5 31.5q8 23 27.5 57.5t23.5 42.5q50 52 116 80t162 47 q0 -1 1 -2t1 -2q7 0 27.5 1.5t30 2t24 -0.5t25.5 -5l43 -16l45 -15q14 -4 36 -17.5t32 -17.5q73 -61 94 -127q3 -7 7 -24t7 -25l16 -49q20 -89 11 -190q-8 -8 -9 -11q-94 -26 -210 -4q-7 1 -15.5 6t-13.5 5q-6 137 -8 157q-4 7 -13 24.5t-15 27.5t-17 21.5t-23 16.5 q-8 4 -26.5 4h-22.5q-45 3 -72 -12q-46 -24 -53 -67q-3 -22 1.5 -65.5t4.5 -61.5q2 -81 -2 -197q56 30 127 33q46 4 86 -4l45 -17q4 -1 28.5 -6t35.5 -10q27 -10 53 -33q31 -28 45 -43q10 -12 25 -39q4 -7 13 -18.5t13.5 -21t7.5 -21.5zM823 381q3 18 1.5 60t-3 59.5 t-5.5 58t-5 55.5q-4 4 -4 13q-9 23 -39 67q-29 40 -61 68q-11 9 -22.5 15.5t-18 9t-24.5 8t-26 8.5q-8 2 -30.5 8t-38.5 9.5t-31 4.5q-88 9 -151 -20q-5 -2 -11 -6t-11 -6t-11 -2q-4 5 -4 28q8 100 0 209q0 10 -1 21t-2.5 24t-2.5 21q0 42 4 51q15 41 65 67q47 24 105 15 q20 -3 35 -11.5t22 -16.5t22 -28q22 -35 27 -49q4 -19 5 -43t0.5 -57t0.5 -51q123 -26 215 0q3 69 -8 151q-6 39 -24 95q-22 74 -58 112q-15 21 -57 47q-12 10 -49 29h-13q-3 0 -4 4t-4 4q-11 2 -39.5 12t-48.5 11q-92 3 -186 -27q-50 -19 -76 -33q-21 -8 -42.5 -23.5 t-31.5 -31.5q-21 -32 -43 -80q-22 -59 -28 -129q-7 -64 -7 -121q-1 -3 2 -4t3 -4q-2 -27 -2.5 -33t2 -31t2.5 -32q1 -28 -3 -76.5t-4 -58.5q0 -14 2.5 -40t2.5 -40q0 -3 -1.5 -9.5t-1.5 -9.5q0 -9 2.5 -27.5t2.5 -27.5q3 -28 3 -58.5t-1.5 -67.5t-1.5 -58q0 -17 1.5 -66.5 t0.5 -73.5q3 -11 5 -29t5 -30q13 -46 49 -72l41 -43l45 -41q30 -22 117 -47q55 -14 82 -8l10 -6q8 -1 28.5 0.5t26.5 1.5q17 2 60 18q2 1 4 0t3 -1q3 -2 3 1q-5 0 -3 3q2 2 3 2v-3q2 2 49 25q5 3 14.5 10t17.5 11.5t15 7.5q1 3 2.5 4.5t3 2t2.5 1.5q8 12 29.5 30t30.5 29 q8 8 18.5 31t11.5 25q16 28 27 71q0 3 2 11t2 12q1 7 1 23t1 24q0 7 2 21.5t2 21.5zM510 631q18 -6 40 -25.5t25 -21.5q26 -56 31 -126.5t-4 -133.5q0 -4 -3 -6t-3 -3q-7 -22 -20 -40.5t-22.5 -27t-31.5 -26.5q-7 -2 -20.5 -6.5t-24 -7t-20.5 -2.5q-9 0 -25 5t-24 5 q-4 4 -16 9t-15 7l-17 25q-10 14 -22 41q0 2 -3 7.5t-3 8.5q-3 6 -3.5 12.5t0.5 15.5t1 13q0 3 -2 8.5t-2 8.5q-1 18 0.5 50.5t1.5 45.5q0 5 -1.5 22.5t-0.5 26.5q0 69 52 100.5t128 20.5q3 0 3 -4q0 -2 1 -2zM588 426q0 59 -6 86q-3 17 -13 33q-9 26 -26 43l-17 16 q-18 14 -34 19q-6 2 -29 2q-47 -4 -72 -15q-1 -1 -7.5 -5.5t-11 -7.5t-10 -8.5t-8.5 -10.5q-8 -14 -10 -29.5t0 -42.5t2 -37q0 -13 -1 -53t-0.5 -63.5t5.5 -39.5q5 -20 21.5 -46.5t29.5 -33.5q3 -3 14.5 -4t18.5 -4q3 -1 9.5 -3.5t9.5 -2.5q16 -4 39 3.5t36 19.5l15 16 l14 12q3 3 5 9.5t5 9.5q5 8 8 17.5t4.5 15.5t3.5 20t3 23q4 44 2 61zM602 20h-10q0 -7 10 0z" />
<glyph unicode="7" horiz-adv-x="868" d="M805 1440q0 -13 -1 -56t-0.5 -79t3.5 -72q-61 -100 -76 -160q-5 -5 -9.5 -16t-8.5 -15v-12q-10 -17 -25 -57t-29 -58q-7 -33 -32 -92.5t-33 -89.5l-4 -24q-7 -20 -15.5 -62.5t-15.5 -62.5q-17 -58 -27 -97q-6 -28 -10.5 -60.5t-9.5 -74.5t-8 -67l-17 -88q-4 -66 -4 -103 q0 -3 1 -8t1 -8t-1 -6t-1 -6t2 -9.5t2 -9.5q0 -8 -1.5 -21t-1.5 -22t3 -16q-14 -8 -67 -8h-82q-19 1 -50.5 7.5t-47.5 6.5q-2 2 -2.5 4.5t0 4t-0.5 2.5t-4 1q-10 71 0 168q0 5 0.5 41.5t4.5 54.5l8 62q3 9 4 26.5t4 26.5q2 19 12 57q3 15 11 58t12.5 65.5t14 56t20.5 60.5 q10 25 26.5 70.5t22.5 60.5t51 131q12 30 38.5 84t37.5 80q26 58 32 88q-7 3 -22.5 3t-22.5 3q-17 -1 -62.5 -4t-69 -3.5t-68.5 1.5q-23 1 -66 -1t-67 -1q-28 4 -45 2q-24 0 -29 4q-31 83 -2 238q9 0 29.5 2t29.5 2q31 3 96.5 -2t102.5 -2q19 5 161.5 4.5t166.5 -0.5 q96 0 122 -4q2 0 10 3t9 -1zM645 924q12 26 34.5 78.5t36.5 85t35 75t40 74.5q-3 0 -3.5 1t-0.5 4t-1 5q-4 9 -1 89t3 89q-14 -3 -29 -3t-34 1.5t-29 1.5q-5 0 -16 -1t-16 -1q-89 -3 -218 2q-22 -6 -43 0q-5 -3 -11 -4t-10.5 -1t-12 0.5t-11.5 0.5q-46 -4 -63 -4 q-13 0 -95 4.5t-106 -0.5q-19 -139 0 -207q4 0 75 -1t75 1q11 0 31.5 -0.5t37 -0.5t31.5 1q12 0 52.5 3t53.5 2.5t50 -2.5q38 0 51 -5q1 -9 -3.5 -25.5t-4.5 -23.5q-7 -15 -28.5 -63.5t-35.5 -73.5q-13 -24 -32 -72t-31 -71q-1 -10 -9.5 -31t-11.5 -31l-63 -162l-10 -28 q0 -3 -3 -8t-4 -7v-4q0 -1 1 -3t1 -3l-18 -65q-2 -10 -7 -52t-13 -65l-9 -29q-4 -12 -4 -49q-1 -16 -6 -42.5t-6 -39.5l-4 -84q0 -10 -1.5 -41t-2 -47.5t0 -40.5t3.5 -41q50 -9 108 -12q11 0 36.5 -1t43 -0.5t31.5 3.5q0 26 -2 66.5t-2 64.5t3 49.5t8 55t7 45.5l21 153 q6 49 33 139q7 24 18 74.5t18 75.5q19 64 48 133q2 4 24 68z" />
<glyph unicode="8" horiz-adv-x="919" d="M752 797q-34 -39 -41 -45q7 -8 28 -30.5t34.5 -41t21.5 -39.5l10 -27q3 -12 12 -24q6 -21 8 -50t1.5 -55.5t0.5 -58.5q3 -52 -6 -98q-14 -139 -63 -205q-68 -68 -119 -103q-113 -44 -219 -36q-69 7 -144 32q-12 8 -33.5 19.5t-33.5 19.5q-3 3 -17.5 20t-23.5 23l-12 25 l-17 20q-32 55 -41 107l-6 65q0 5 -3 27t-3 35q0 143 12 194q23 104 107 168q-40 40 -58 72q-30 42 -41 78q-21 58 -24 125v35q0 7 1 17t1 17q-3 68 18 127q13 39 19 45q30 72 106 134q43 37 106.5 55.5t135.5 11.5q15 -3 42.5 -5t43.5 -5q15 -4 68 -27q5 -2 18 -7.5t21 -9 t18 -8.5t16 -10q71 -67 97 -106q3 -4 6 -14t6 -15q19 -38 24 -53q5 -22 5 -92q4 -72 0 -94q-3 -44 -17 -88q-18 -59 -29 -78q-5 -8 -18 -23.5t-18 -23.5zM700 735q-14 8 -18 17q3 3 9.5 6t10.5 6l70 90q48 109 45 203q0 98 -10 139q-12 41 -47 94q-13 18 -36.5 42.5 t-31.5 33.5q-2 0 -6 1t-6 -1q-8 8 -21 16t-21 11.5t-27.5 11.5t-24.5 10q-77 30 -172.5 23.5t-155.5 -49.5q-75 -59 -113.5 -129.5t-42.5 -167.5q-4 -89 7 -140q4 -18 20 -65q7 -29 27 -56q36 -50 55 -69q2 -2 8 -7t9 -8.5t3 -7.5q-3 -14 -16 -14q-6 -8 -19.5 -19.5 t-17.5 -15.5q-6 -6 -31 -41q-26 -50 -32 -84l-6 -49q-11 -79 -1 -192.5t46 -171.5q8 -9 21 -27.5t20 -26.5l6 -14q15 -16 47 -33q16 -12 61 -24q106 -37 219 -17q69 11 105 27q41 21 88 76q5 5 12.5 15.5t11.5 14.5l11 9q1 1 14 32q19 48 23 68q14 88 14 197v59 q0 71 -41 141q-17 32 -66 86zM584 555l12 -47q6 -31 6 -102q0 -70 -22 -125q-2 -4 -7 -16t-8 -15q-5 -8 -16.5 -19t-13.5 -14q-76 -37 -150 10q-36 22 -47 45q-18 32 -14 103q0 11 -0.5 34.5t-0.5 37.5t2 33t7 34l8 10q4 26 10 37q25 40 56 60q17 10 34 10q3 0 11 -2t12 -2 q5 -1 15 -1t18 -1t14 -4q7 -1 23 -10t22 -15q17 -14 29 -41zM444 815q-30 5 -57 23t-39 43q-30 60 -31.5 142.5t29.5 141.5q19 38 64.5 56.5t90 5.5t60.5 -58q-2 -3 -1.5 -3.5t3.5 -1.5t4 -3q37 -67 21 -223q-9 -70 -58 -104q-39 -25 -86 -19zM571 324q11 52 11 131 q0 35 -21 100q-21 40 -73.5 52.5t-90.5 -19.5q-1 -1 -2.5 -1.5t-3 -2t-2.5 -4.5q-51 -53 -47 -174q0 -9 -0.5 -25t-0.5 -29t1 -24q4 -30 15 -46t34 -36l39 -25q26 -9 64 -4q40 7 59 55q12 23 18 52zM555 1139l-2 2q-19 46 -50.5 63t-66 5.5t-69.5 -46.5q-6 -4 -9.5 -9.5 t-7 -17t-4.5 -14.5q-11 -95 -2 -153q11 -66 29 -95q10 -17 34.5 -30t47.5 -15q47 -2 86 33q24 54 26 62q3 10 3.5 21t-0.5 27t-1 23q4 101 -12 140z" />
<glyph unicode="9" horiz-adv-x="931" d="M850 836q0 -30 -4 -78.5t-4 -59.5q0 -9 2 -27.5t2 -27.5q0 -7 -1 -20.5t-1 -20.5q5 -97 4 -108q0 -18 -3.5 -47.5t-4.5 -40.5q-3 -82 -25 -166q-12 -44 -22 -67t-31 -50q-17 -27 -29 -39q-35 -25 -41 -31q-5 -3 -9.5 -9.5t-6.5 -8.5q-63 -47 -201 -47q-13 0 -37 3t-35 3 q-39 3 -81 12q-52 9 -109 55q-64 57 -86 115q-16 42 -31 113q-25 103 -6 194q106 25 238 0l16 -6q0 -92 10 -135q5 -23 6 -29.5t6 -21.5t11 -24t16 -17q31 -25 71 -29.5t71 17.5q3 1 4 2t2.5 3.5t3.5 4.5t7 6t8 8t7 10q3 6 13 43l12 47q5 30 5 71.5t-1 61.5t-7.5 80t-6.5 62 l-29 -12q-60 -27 -107 -25q-70 3 -139 31q-61 22 -104 65q-5 5 -22 18t-25 23q-4 5 -14.5 15.5t-17 18.5t-9.5 15l-4 21l-11 74q-6 24 -6 51q-4 173 2 223q3 11 5 29t5 26q2 6 10 20t11 23l4 21q8 18 24 42t21 32q64 64 154.5 92.5t197.5 11.5q76 -12 129 -47l31 -21 q4 -3 15.5 -8t15.5 -8q27 -15 43 -41q5 -5 10.5 -15.5t7.5 -13.5q27 -45 33 -59q7 -12 12 -31q1 -1 6 -39q6 -32 10 -94.5t5 -77.5q4 -37 2 -53q0 -20 1 -54t1 -54zM821 416q3 18 8 119q-8 32 -4 116q0 8 -2 24.5t-2 24.5q0 5 4 25v49q0 6 3.5 61t-1.5 64q-1 13 0 36t0 34 l-8 118q0 31 -6 52v12q-8 85 -86 186q-11 6 -16 17q-20 7 -54.5 31.5t-56.5 31.5q-34 7 -45 8q-18 8 -45 11q-73 10 -148 -8t-124 -54l-45 -41q-7 -7 -46 -63q0 -15 -11 -43t-13 -37q-4 -17 -5.5 -48t-4.5 -46v-88q0 -58 6 -111q2 -9 6 -45.5t10 -54.5q5 -13 23 -31 q42 -42 51 -49q58 -51 119 -72q95 -30 170 -22l57 22l20 10q3 3 4.5 7.5t4.5 5.5l14 -4q10 -86 14 -125t3.5 -108t-13.5 -120q-7 -48 -42 -75.5t-85 -32.5q-74 10 -104 43q-3 3 -6 14q-2 2 -7 5t-7.5 6.5t-2.5 7.5q-26 108 -24 188q-148 20 -218 0q0 -15 -2 -43t-2 -43 q0 -28 17 -111q12 -57 31 -100q20 -45 67 -88q58 -47 102 -55q48 -11 78 -13q9 -1 24.5 -2.5t28.5 -2.5t25 -1q16 0 36 2.5t33 5t35 7t31 6.5q6 3 24 8t23 8l13 14q48 38 61 56q41 51 57 98l11 45q16 81 16 86q1 9 1 27.5t1 27.5q0 3 2 8.5t2 8.5zM440 1229q86 10 150 -62 q15 -42 18 -99t0 -112q-9 -82 -51 -133q-4 0 -6.5 -1t-4 -2.5t-4 -4.5t-3.5 -4q-9 -2 -27.5 -7t-25 -5.5t-27.5 0.5q-57 15 -70 26q-3 1 -5 5.5t-5 5.5q-3 2 -7 4.5t-5 5.5q-28 28 -37 86q-6 81 -6 86q4 32 4 45v22v23t1.5 19t4 20.5t7.5 15.5t13 17q14 14 40.5 29.5 t45.5 19.5zM586 991q4 77 0 101q-4 50 -15 71q-8 11 -28 23q-45 31 -94 24q-14 -2 -27.5 -8.5t-21.5 -12t-21.5 -16t-18.5 -14.5q-2 -6 -6.5 -16t-7.5 -19.5t-4 -19.5q7 -19 2 -76q-4 -124 31 -168q35 -41 92 -47q16 -5 43 6q4 2 7.5 3t6 2t4 2l3 2t3.5 2.5t3 3t3.5 4 l4.5 4.5q27 35 37 73q4 17 4 76z" />
<glyph unicode=":" horiz-adv-x="487" d="M137 8q-8 63 -8 164v9v10v10.5t1 9t3 6.5t5.5 3.5t8.5 -1.5q0 8 7 8q62 7 192 11q0 -2 12 -13q8 -72 4 -215q-3 -5 -14 -16q-32 3 -99.5 -0.5t-101.5 2.5q0 9 -10 12zM356 688h-57q-24 -1 -80 1t-86 1q-18 87 -2 223q12 4 32.5 5.5t38 1t36.5 0.5q16 0 46.5 2t43.5 2 q3 -1 8 -1t9 -1t7 -4l6 -37q3 -37 0 -72q0 -79 -4 -100q3 -20 2 -21zM152 207q-3 -98 6 -193q23 -5 92 -2t90 2q7 86 -2 203q-158 -6 -186 -10zM150 899q-11 -117 2 -190h182q12 114 -2 194q-33 -3 -96.5 -2t-85.5 -2z" />
<glyph unicode=";" horiz-adv-x="501" d="M379 225q-4 -37 -4 -190q3 -17 2 -35t-10 -27q-22 -87 -64 -202h-110l-15 12q11 133 27 215q-3 0 -28.5 -1.5t-35.5 3.5q-6 30 -7 61t2 86t3 76q42 8 118 9t105 4h7q3 -1 5 -5.5t5 -5.5zM356 -6q1 6 1 17t-0.5 24t-0.5 18q-3 28 -3 55.5t1.5 58.5t1.5 48q-102 -6 -198 -6 q0 -26 -2 -66t-2 -71.5t4 -61.5q11 -3 33 0.5t32 -2.5q-3 -36 -12 -108t-12 -111h92q33 111 45 143q3 8 7 25.5t7 24.5q0 3 2.5 6t3.5 6zM141 696h-2q-14 75 -14 125q0 77 8 103q15 9 21 -4q63 2 186 -2q6 0 6 -7q6 0 12 -6q2 -15 3 -34t1 -33.5t-1.5 -39.5t-2 -35t-3.5 -39 t-3 -34q-11 -5 -47 0h-74.5t-89.5 4v2zM147 901q-5 -127 11 -188q33 -3 100 -3t78 -1q1 20 3.5 63t2.5 61t-2 64q-126 4 -193 4z" />
<glyph unicode="&#x3c;" horiz-adv-x="915" d="M782 283q13 -34 9 -106t0 -103l-15 -13q-28 16 -78 48.5t-77 48.5q-49 28 -168 84l-41 22q-58 38 -117 72q-101 65 -162 90q0 4 -4.5 6.5t-5.5 5.5q3 18 6 79.5t16 105.5q12 4 32.5 16t33.5 16q32 20 63 35q7 7 54 33q2 2 9.5 7t10.5 9l78 43q43 27 129 72q5 3 17 11.5 t20 11.5l12 4l6 6l115 74q7 7 27 16.5t24 5.5q3 -7 0 -10q4 -4 4 -8q3 -11 4 -26t1 -27t-0.5 -31t-0.5 -29q1 -17 -1.5 -49.5t-2.5 -44.5q-12 1 -12.5 2t-9.5 -4.5t-13 -7.5q-28 -16 -67 -43q-34 -23 -97.5 -59.5t-84.5 -49.5q-12 -6 -47 -26.5t-54 -28.5q-6 -3 -10.5 -5.5 t-9.5 -6t-8 -5.5l43 -24q7 -4 20.5 -14.5t20.5 -14.5q11 -7 33 -17.5t34 -17.5q20 -16 55 -35q13 -8 46 -29.5t51 -31.5q5 -2 22.5 -9.5t26.5 -13.5l43 -28q4 0 10 -3t10 -3zM770 82q-3 30 2 99.5t-4 88.5q-12 0 -14 2q-15 13 -45.5 30.5t-36.5 21.5q-11 0 -13 2 q-25 14 -100.5 62.5t-122.5 70.5q-18 18 -82 51q-13 25 29 43q3 1 4 2q65 36 66 37l30 18q56 30 158 93.5t121 74.5q9 96 0 185q-4 0 -12.5 -5.5t-19.5 -13t-17 -10.5q-33 -24 -39 -27q-51 -37 -154 -92t-127 -70q-156 -95 -237 -135l-15 -170q66 -28 173.5 -95t140.5 -85 q136 -67 163 -82q28 -16 152 -96z" />
<glyph unicode="=" horiz-adv-x="1122" d="M993 772q0 -8 -1.5 -20.5t-1.5 -22.5t3 -20q0 -2 2.5 -7.5t2 -7t-2.5 -6.5q-3 -3 -7.5 -3t-9.5 1.5t-7 1.5q-7 0 -28 -3t-28 -3q-12 -1 -40 -1t-44 -1q-35 -5 -141 0q-76 3 -266 2.5t-283 3.5q-1 0 -5.5 5t-10.5 1q0 108 2 174q1 3 4.5 4t3.5 4q197 9 385 9q37 0 131 4 q23 0 71.5 -3t74.5 -3t74 2t71 2q38 0 49 -4q-2 -30 2 -109zM801 414q23 0 62.5 1.5t69.5 1.5t54 -3q6 -79 6 -181l-16 -16q-23 4 -50.5 4t-63.5 -2t-56 -2h-57l-13 4q-4 0 -12 -2t-12 -2q-15 0 -43 1t-43 1q-51 0 -74 2q-11 -5 -195.5 -4.5t-220.5 0.5q-3 13 -8 80 q-5 73 -4 82q0 21 8 29t33 8q16 3 33 3t39.5 -1.5t35.5 -1.5h109q102 -3 203 0q44 1 119 -0.5t96 -1.5zM975 707q1 15 -1.5 74t1.5 83q-18 4 -58 1.5t-61 0.5q-37 -4 -58 -3.5t-60 3t-60 2.5q-252 -6 -277 -6q-46 0 -130.5 -1t-123.5 -1q-4 -104 -2 -153q49 -5 170 -5 q12 0 38 -1t40 -1q40 -1 123 0t123 0q15 0 46 -2t48 -2q137 0 242 11zM885 240q15 1 90 -4q0 26 -1.5 79t-0.5 84q-35 0 -133 -4q-26 0 -74.5 1t-71.5 1q-35 0 -98 -2t-94 -2q-315 5 -355 4q-6 -80 7 -161q41 1 123 0t122 0q16 0 68.5 1.5t81.5 0.5q242 -5 336 2z" />
<glyph unicode="&#x3e;" horiz-adv-x="915" d="M786 606q-3 -23 1.5 -88t0.5 -94q-3 -1 -7 -1t-7 -1q-26 -19 -45 -27q-7 -3 -15.5 -9t-15.5 -9q-34 -19 -36 -21q-5 -2 -16.5 -10.5t-20.5 -9.5q-7 -6 -62 -39q-38 -24 -82 -47q-26 -14 -88.5 -43.5t-97.5 -50.5l-33 -17q-42 -33 -59 -43q-24 -14 -31 -20 q-3 -2 -8.5 -6.5t-9.5 -7t-9 -4t-8.5 1t-5.5 10.5v32q-1 1 -0.5 32t0.5 32q0 11 -1 35t-0.5 40.5t3.5 32.5q21 16 68 45q117 74 133 82q27 14 194 113q-45 33 -135.5 88t-101.5 62q-9 5 -25 15.5t-29.5 19t-27.5 14.5q-3 1 -31.5 20t-46.5 25q-1 20 -4 68t-3.5 71.5 t1.5 65.5q2 2 8.5 4.5t7.5 7.5q68 -26 166 -90q35 -15 117 -68q132 -86 229 -137q9 -6 28 -17.5t30.5 -18.5t29 -15t33.5 -13q0 -7 12 -10zM455 256l34 20q176 101 285 166q0 20 -2.5 73.5t-1.5 84.5q-10 1 -39 12q-24 16 -225 129q-24 14 -97.5 62.5t-119.5 70.5 q-76 50 -152 82q0 -26 4 -89t4 -95q10 -4 41 -22q5 -3 18 -12.5t21 -12.5q2 -2 11 -2q10 -6 27.5 -18.5t23.5 -16.5q6 -5 24.5 -15.5t26.5 -19.5q20 -7 51 -26l51 -31l101 -66q3 -3 10.5 -5.5t11 -6t0.5 -10.5q-7 -3 -22 -10.5t-25 -10.5q-2 -3 -31 -20q-8 -3 -19 -11.5 t-13 -9.5q-57 -35 -154 -86q-27 -16 -76 -47t-76 -47q-2 -46 -2 -61.5t2 -59.5t3 -61l83 55q29 21 66 40.5t84 41.5t72 35z" />
<glyph unicode="?" horiz-adv-x="999" d="M860 1008q-8 -40 -26 -82q-14 -24 -91 -131q-14 -18 -27 -40.5t-29.5 -53t-24.5 -44.5q-5 -9 -20 -33t-22 -37t-15 -36t-11 -47q-3 -17 2 -52.5t2 -52.5q-2 -2 -5.5 -4t-5 -3.5t-1.5 -4.5q-114 -12 -230 10q2 21 3.5 56.5t3 55.5t5 46.5t9.5 48.5q6 26 35 78 q6 10 16.5 32t17.5 34q11 20 30.5 57.5t31.5 56.5l31 56q4 6 16.5 25t18 28t15.5 27.5t14.5 32t8.5 32t4 35.5q0 60 -30 88q-14 12 -42 23.5t-46 11.5q-25 1 -56.5 -16.5t-42.5 -37.5q-6 -15 -10 -41q-3 -22 -4.5 -69t-5.5 -78q-90 -16 -166 -10q-59 4 -78 16 q-19 129 -2 195l14 47q35 82 41 94q17 29 68 76q25 25 39 33q18 11 48.5 23t41.5 7q73 21 168 15q70 -8 141 -48q19 -10 45 -28q10 -7 19 -15t18.5 -19t15.5 -17.5t16.5 -21.5l14 -20t14.5 -22.5t13 -19.5q3 -14 8.5 -34t9 -37t4.5 -34q9 -80 -12 -151zM778 872l47 76 q28 71 31 154q3 16 0 31q-12 107 -39 153l-20 23q-3 3 -4.5 8t-4.5 8l-16 16q-3 3 -6 9.5t-6 9.5q-24 31 -74 53q-92 45 -154 47q-35 0 -49 -2q-11 -2 -38.5 -5.5t-42 -5.5t-36.5 -8t-40 -14q-17 -7 -32.5 -18.5t-32.5 -27.5t-28 -25q-43 -65 -53 -88q-4 -7 -7 -16t-6 -20.5 t-5 -17.5q-4 -4 -4 -10q-25 -78 -6 -205q47 -11 108 -11t111 11q0 12 -0.5 38.5t-0.5 40t1.5 33t5.5 36.5q6 30 10 37q10 18 32 32t44 21q45 14 96 -12q30 -13 43 -31q34 -43 31 -100q0 -18 -5 -37.5t-9.5 -33t-15.5 -33.5t-16 -28t-19 -29.5t-17 -25.5q-18 -28 -44 -79 t-32 -62l-41 -70q-48 -90 -55 -157q-3 -23 -3 -63.5t-3 -61.5q117 -16 209 -6q3 23 -2 56.5t-5 45.5q0 5 5 16t2 19q6 21 16 41.5t27 49.5t24 42q3 5 30.5 54.5t45.5 72.5q49 62 53 69zM371 233q80 15 219 11q15 -71 0 -199l-3.5 -14t-2.5 -14t2 -15q-26 -9 -88.5 -8 t-96.5 -2q-8 0 -18.5 5t-17.5 5q-17 111 6 231zM565 14q19 138 8 213q-26 -2 -91.5 -3t-100.5 -7q0 -3 2.5 -3t1.5 -3q0 -7 -6 -82q0 -3 1 -6t1 -6t-2 -6.5t-2 -6.5l1 -3q1 -3 1 -7q-5 -28 -4 -35q2 -4 4 -12q0 -3 -1.5 -13t-0.5 -18q110 -9 188 -2z" />
<glyph unicode="@" horiz-adv-x="1961" d="M1858 872q2 -44 -9 -120q-5 -59 -6 -62q-16 -117 -20 -133q-1 -4 -6.5 -25.5t-10.5 -29.5q-23 -61 -59 -105q-5 -8 -16 -24t-17.5 -25.5t-17 -22.5t-19.5 -22q-16 -17 -54.5 -39.5t-53.5 -36.5h-10q-7 -3 -19.5 -10t-19.5 -10q-2 -2 -17 -2q-26 -10 -47 -12 q-37 -4 -88.5 1.5t-85.5 16.5l-33 16q-7 3 -13.5 7t-13 9.5t-10.5 9.5t-11 11.5t-10 10.5t-10.5 12.5t-9.5 11.5q-21 52 -28 102q-31 -28 -70 -51l-22 -18q-7 -3 -33.5 -12t-40.5 -17q-90 -38 -172 -6q-1 0 -33 14q-16 5 -80 41l-43 39l-16 15q-3 3 -4 8t-4 8q-3 5 -19.5 27 t-21.5 32q-14 35 -17 84q-7 39 -4 86l8 45q5 40 9 54l18 45q3 8 5 22t5 21q1 3 9.5 17.5t9.5 23.5q41 59 53 71q34 43 59 60q12 7 33 16t33 16q6 3 17 9.5t16 7.5q3 1 7 1t5 1q5 1 20 6t23.5 7.5t21.5 5.5t25 4.5t23 0.5q91 -7 198 -73q8 13 13.5 41.5t9.5 38.5q36 8 145 -7 q2 0 14.5 -0.5t17.5 -3t5 -8.5q0 -12 -4.5 -34t-5.5 -33q-18 -91 -21 -224q-3 -42 -14 -118.5t-14 -118.5q-14 -90 4 -123q7 -12 26 -23q47 -26 99 -18q12 2 45 16q31 13 41 19q11 6 21.5 15.5t25 25.5t20.5 22q30 32 47 86q-1 12 1 26t7 33.5t7 28.5q14 126 4 191 q0 10 -4 14q3 23 -5.5 67t-9.5 54q-10 10 -10 29q-2 2 -24 53q-10 31 -43 82l-7 10q0 -2 -6 4v4t-4 6q-20 28 -35 43q-1 2 -18 23q-3 3 -5 7t-5 5q-1 2 -3 3.5t-6.5 4.5t-9.5 9q-11 8 -65 32q-17 7 -72 25q-1 1 -7 3.5t-9 2.5q-3 1 -8.5 1t-8.5 1q-5 1 -15 5t-15 5 q-4 1 -13.5 1t-13.5 1q-42 10 -76 13q-127 11 -205 2l-32 -6q-7 0 -17.5 -1t-17.5 -1q-95 -17 -236 -97q-23 -17 -45 -37t-51.5 -48t-42.5 -40q-8 -16 -35 -43q-12 -19 -36.5 -50.5t-35.5 -51.5l-24 -43q-45 -92 -68 -229q-9 -53 -12 -105v-33.5v-37.5t0.5 -33t2 -38 t3.5 -33.5t5.5 -37t8.5 -33.5q37 -135 130 -225l30 -29q3 -3 13 -14t16 -16q30 -30 82 -60q79 -41 92 -45q36 -12 166 -26q50 -6 149 4q19 1 49 10.5t41 11.5q47 10 87 29q9 -6 22 -6q31 -87 37 -125q3 -10 -2 -10q7 -6 7 -17t-5 -16q-1 -1 -6 0t-6 0q-10 0 -25 -12 q-1 0 -84 -25q-16 -6 -35 -10.5t-33 -8t-38.5 -6.5t-35 -4.5t-39.5 -4t-35.5 -3t-39.5 -2.5t-35 -2q-14 2 -43 4.5t-54.5 6t-47.5 9.5l-70 19q-171 61 -336 217q-3 9 -28 49l-31 43q-30 40 -53 98q-31 74 -43 185l-9 100q-5 38 9 137q11 78 20 127q32 143 45 185l19 49 q8 27 27 75.5t26 69.5q9 12 39 55t44.5 62.5t41.5 49t53 50.5q8 8 24 19.5t23 17.5l21 19l43 24q26 19 43 25q7 4 27.5 16.5t35.5 21t33 15.5l33 16q10 3 31.5 8t27.5 7q36 9 102 20q38 5 44 8q7 1 19 5.5t19 5.5q5 1 15.5 0t17.5 0q23 0 65 2t64 2q39 0 101 -15 q14 -3 43.5 -3t42.5 -3q41 -2 100 -26q67 -27 88 -43q41 -11 80 -47q25 -22 59 -46q34 -27 56 -59q1 -1 4 -3.5t4.5 -4t3 -4t2.5 -5t0 -5.5h6q-2 0 -2 -1.5t2 -1.5q9 -11 24.5 -34.5t18.5 -28.5q6 -22 21 -37q4 -11 28.5 -64t32.5 -85q22 -87 25 -179zM1833 780q8 27 8 70 q0 91 -22 184q-2 11 -8 32t-12.5 37t-8.5 15q-70 164 -164 250q-11 10 -38 29t-40 33q-85 48 -125 63l-43 18q-32 13 -98.5 18.5t-89.5 10.5q-2 0 -12.5 4t-18.5 2l-84 4q-17 1 -45 -1.5t-41 -2.5h-24q-10 -1 -19.5 -3.5t-21 -6.5t-19.5 -6l-49 -6q-73 -12 -145 -33 q-105 -56 -125 -70q-34 -16 -70.5 -41.5t-56.5 -42.5t-60 -53l-39 -43q-7 -7 -16 -23t-16 -24q-4 -5 -14.5 -17.5t-15.5 -19t-12.5 -17t-13 -21t-10.5 -21.5q-5 -12 -12 -33t-12 -33q-12 -27 -25 -65q-3 -11 -11 -33t-11 -35q-5 -26 -9 -35l-10 -37q0 -3 -3 -9.5t-3 -10.5 q-1 -3 -1.5 -10t-1.5 -13t-5 -10q-1 -24 -11.5 -69.5t-13.5 -65.5q-12 -95 -10 -154q1 -8 3.5 -45.5t3.5 -51t4.5 -41t8 -47.5t11.5 -40q26 -80 43 -113l24 -45q3 -5 14.5 -19t16.5 -22q35 -50 45 -59q2 -4 4 -12q7 -12 37 -33q37 -29 123 -86q60 -40 199 -84 q88 -22 153 -20q0 -2 12.5 -2t30 1t21.5 1q47 2 133 14q103 19 209 61q-8 51 -37 135q-27 -11 -123 -34q-7 -2 -28 -10t-34 -9q-59 -8 -151 -4q-105 11 -148 25q-67 17 -155 75q-11 7 -29.5 23t-30.5 23q-1 1 0 4t0 4q-137 114 -176 258q-19 75 -26 121q-9 138 10 260 q4 23 22 102q9 43 47 125q2 4 5 12.5t5 13t6 9.5t9 8q19 31 72 102q4 7 14 16.5t14 16.5q1 2 11 15.5t16 19.5l68 64l12 10q18 20 59 45l33 20q4 4 12 5t9 1q58 33 73 37q54 19 154 33q52 8 113 8q18 0 48.5 -3.5t41.5 -4.5q13 -1 40 -3.5t42.5 -4.5t37 -5.5t37.5 -8.5 q98 -27 176 -74q40 -34 68 -76l31 -39q22 -31 24 -47q11 -11 17 -20q45 -95 55 -191q12 -78 12 -123q-4 -85 -10 -125q-3 -29 -12 -55q-3 -11 -5 -30t-5 -27l-9 -13q-35 -71 -94 -118q-10 -8 -59 -29q-64 -28 -117 -8q-29 11 -57 35q-1 3 -5.5 4t-5.5 4q-5 5 -10 20 q-10 40 0 111q3 12 4 32.5t4 32.5q15 115 15 121q0 49 8 68q-5 18 0 75l8 72q0 5 2 16.5t2 16.5q8 44 21 86q-78 10 -152 10q-1 -2 -18 -80q-6 4 -10 -2t-5 -6q-73 47 -141 68q-61 20 -149 -4q-84 -34 -105 -45q-17 -10 -25.5 -16t-19.5 -17.5t-12 -22.5q-10 -7 -17.5 -15 t-17 -22t-14.5 -20q-23 -31 -45 -86q-54 -125 -33 -244q4 -54 16 -82q8 -17 39 -53q18 -27 43 -49q21 -17 59 -33l29 -16l35 -15q33 -11 73.5 -11.5t73.5 11.5l39 19q7 3 22.5 7t22.5 7q4 1 21 14q16 9 41.5 28.5t38.5 27.5l12 -10q3 -3 3.5 -6.5t0 -7.5t0.5 -9q3 -5 7 -19 t7 -20q9 -33 35 -63q53 -56 142 -68q61 -11 100 -4q45 4 74 14l37 21q5 2 59 35q30 17 74 69l28 43l17 19q44 61 55 116q6 6 10 17t6 18.5t5 25.5t4 23q5 32 9.5 91t6.5 77zM1069 899l21 -16q46 -46 43 -99q0 -8 -2.5 -27.5t-2.5 -31.5q-1 -15 -16 -119q-3 -9 -5 -29t-5 -28 q-19 -49 -37 -60l-53 -26q-47 -21 -56 -21q-43 -6 -88 6.5t-69 38.5q-41 31 -41 142q-4 72 14 116q19 60 66 103q48 42 100 67q32 11 68.5 4t62.5 -20zM1112 784q0 3 3 5.5t3 5.5q-20 113 -166 110q-6 -6 -14 -10t-18 -7.5t-15 -6.5q-28 -20 -45 -37q-40 -35 -61 -86 q-4 -8 -7 -16t-5.5 -17.5t-4 -16t-3 -19t-2 -17.5t-1 -19.5t-1 -18t-1 -20t-0.5 -18.5q4 -4 5.5 -10t1.5 -14t1 -11q6 -54 55 -81t117 -19q40 3 95 41q12 10 20 24t13.5 34t8 34t6 41t5.5 37q6 42 10 112z" />
<glyph unicode="A" d="M958 57l5 -28q1 -3 3.5 -8.5t2.5 -8t-2 -8.5q-165 -11 -244 -6q-7 7 -10 8q-1 17 -4 32t-9 33.5t-8 28.5l-14 56t-15 65t-10 58q-56 3 -147.5 -2t-130.5 -5q-5 -21 -26.5 -122t-39.5 -152q-160 -13 -241 -2q-6 5 -2 27q8 38 26 161q9 34 12 66q5 24 13.5 72.5t13.5 72.5 l21 76q0 19 12 51q2 17 8 69t10 79l17 63l6 35q1 3 5 10.5t4.5 10l2 10t-1.5 10.5q1 3 4 5t4 5q3 27 15.5 93t17.5 98q2 22 14 53q0 20 11 53q6 10 10 37q3 19 8 57.5t8 55.5l6 28q3 10 8 39.5t9 44.5q1 6 3.5 17t4.5 18t5.5 16t8.5 15q110 21 303 2q3 0 5.5 -3.5t5.5 -2.5 q5 -41 39 -195l10 -65l16 -60q4 -17 41 -190q12 -62 39 -181t39 -184q10 -48 20 -114q3 -17 14 -48.5t15 -46.5q3 -17 17.5 -88t23.5 -110l10 -52zM729 18q72 -6 215 5q0 17 -4 49q-1 2 -14 53v20l-3.5 7t-2.5 8q-1 3 -1 9.5t-1 10.5l-9 31q-11 66 -28 147q-3 13 -11.5 36 t-11.5 34q-7 24 -13.5 72.5t-13.5 72.5q-11 40 -26 122.5t-27 121.5q-10 32 -21 95.5t-16 84.5q-24 114 -32 140q-15 42 -19 71q-1 5 -1 13t-1 15t-4 13l-8 29q-24 119 -29 149q-183 16 -285 0q-11 -33 -18.5 -66.5t-15.5 -87t-11 -71.5q-4 -24 -16.5 -78.5t-13.5 -60.5 q-27 -140 -43 -211l-13 -68l-18 -67q-13 -48 -28 -144.5t-27 -144.5l-17 -66q-12 -59 -32 -176t-31 -174q98 -8 219 2q7 23 17 70t16 70l16 71q2 6 4 18t3.5 19t5 16t8.5 15q37 0 141 4.5t156 1.5q1 -3 16 -59q7 -35 24.5 -109.5t24.5 -112.5zM563 797q10 -37 18.5 -79 t17 -93t13.5 -78q1 -4 2 -9l1.5 -7.5t0 -7t-3.5 -9.5q-26 -1 -74 -3.5t-68 -2.5t-71 2q-4 18 7 49t12 37l4 29l14 57q3 14 31 154l18 84q3 10 6.5 30t6.5 29q8 1 11.5 -5t10.5 -5v-13q13 -40 21 -77l12 -43q1 -7 5 -19.5t5 -19.5zM418 530q43 -2 63 -1.5t61.5 3t57.5 3.5 q-45 224 -53 256q-38 151 -39 153q-26 -144 -90 -414z" />
<glyph unicode="B" horiz-adv-x="1015" d="M221 2q-9 0 -24 -1.5t-26 -1.5t-19 3q-4 1 -12 5t-13 5q3 48 1 142.5t1 148.5q0 12 -1 37t-1 39t-1.5 58t-0.5 71q6 123 6 389q0 45 -1 136t-1 136q0 27 1.5 84t1 100.5t-4.5 82.5q26 3 66.5 3.5t102 -0.5t83.5 -1q22 -1 59.5 1.5t53.5 2.5q145 3 237 -51q47 -29 59 -39 q17 -17 25 -33q30 -44 43 -76l18 -43q4 -16 19 -123q13 -95 -23 -194q-27 -88 -86 -144l50 -43q3 -3 12 -10t13.5 -11t10 -11t9.5 -13q0 -1 16 -37q1 -2 11 -21.5t14 -33.5l4 -39l4 -43q0 -13 3 -36t3 -35l-6 -35q0 -1 -1 -14t-5 -19q0 -51 -35 -127q-1 -3 -9.5 -23.5 t-12 -28t-11.5 -21t-16 -23.5q-6 -9 -16 -18t-18 -15t-20.5 -15.5t-17.5 -13.5q-2 -5 -5.5 -9t-10 -6.5t-9.5 -3.5t-13.5 -3.5t-12.5 -3.5q-7 -6 -16.5 -9.5t-24 -5.5t-21.5 -4q-37 -6 -80 -6q-17 0 -52 1.5t-62.5 1.5t-46.5 -3q-8 0 -28 -1t-32 -1q-44 -2 -131 2zM145 18 q23 1 74 -1t74 -1h103t126 4h76q73 4 107 19q5 3 16.5 5t15.5 5q6 2 21 17q2 2 10 7t12 9q5 5 20 17t21 20q22 28 39 74q23 44 31 83q31 114 22 189q-2 12 -6 44.5t-8 49.5t-18.5 43t-18.5 37q-21 27 -67 63q-24 18 -25 19q-14 14 -14 20q1 3 7.5 7t8.5 6q18 13 39 46t27 40 q4 17 17 56.5t20 72.5t4 65q-5 62 -9 82q-15 77 -16 80l-33 82l-22 27q-2 3 -8 13t-9 13q-5 6 -10.5 11.5t-12.5 10.5t-11.5 8t-13.5 7.5l-12 6t-14.5 6t-13.5 5.5q-12 9 -18 11q-11 4 -25 7t-33.5 6t-29.5 5l-23 6q-4 0 -19.5 0.5t-29.5 0.5t-24 -1q-53 -6 -176 -2.5 t-171 0.5q4 -6 4.5 -15.5t0.5 -10.5v-52q0 -19 -5 -157q0 -64 5 -264q0 -33 -2 -159t-1 -192q0 -17 -3 -52.5t-3 -55.5q0 -24 3 -74t3 -76q0 -19 -1 -56t-1 -56q0 -20 0.5 -57t0.5 -67.5t-1 -56.5zM563 612q89 -3 113 -67q14 -35 14 -111q-1 -20 0 -59.5t0 -59.5 q-36 -46 -51 -61q-2 -2 -5 -6t-5.5 -6.5t-5.5 -3.5q-86 -21 -121 -21q-9 0 -26.5 3t-26.5 3q-53 0 -68 4l-8 11q1 30 -1.5 79.5t-2.5 77.5q0 121 2 209q14 5 31.5 7t30 2t35 -0.5t34.5 -0.5h61zM373 834q-7 0 -11 4q6 30 4.5 184t-1.5 184q10 6 47 8.5t47 4.5q39 5 84 -2.5 t71 -24.5q5 -4 14.5 -15t10.5 -12q1 -3 1 -10.5t1 -11.5q1 -8 6 -20.5t6 -14.5q4 -14 4.5 -31t-1 -41.5t-1.5 -36.5q0 -11 1.5 -29.5t1.5 -32.5t-3 -28q-5 -26 -16 -37q-4 -6 -17.5 -14t-15.5 -10q-36 -21 -37 -21q-16 -8 -61 -8q-25 -1 -131 4q-3 0 -3 5.5t-1 5.5zM672 455 v32q0 22 -9 46.5t-20 35.5q-10 10 -39.5 19.5t-48.5 7.5q-5 0 -15.5 -1t-15.5 -1q-19 0 -45.5 1.5t-45.5 1t-44 -4.5q-4 -61 -1.5 -184.5t1.5 -165.5q119 -11 180 0q31 5 47 11.5t27 22.5q21 28 23 37q8 13 4 49q0 13 1 45t1 48zM383 1192q-1 -17 1.5 -60.5t-1.5 -58.5 q3 -9 0 -22q8 -105 0 -211q17 0 51 -2t61.5 -2t49.5 4q18 4 32.5 11.5t32.5 21t23 16.5q4 21 4 108q0 7 1 18.5t1 18.5q0 40 -2 56q-1 12 -7 35t-7 36q-9 11 -22 19t-30.5 12t-32.5 6t-39.5 1.5t-38 -1.5l-40.5 -3t-37 -3z" />
<glyph unicode="C" horiz-adv-x="946" d="M862 489v-79q0 -9 1 -29t1 -29t-3 -27.5t-3 -27.5q-3 -56 -22 -98l-35 -64q-10 -18 -25 -32t-40 -30.5t-36 -25.5q-40 -28 -75 -37q-50 -13 -86 -20h-25.5t-28.5 -4q-17 3 -51 4t-51 4q-1 0 -21.5 1t-31.5 5q-60 16 -88 41q-24 20 -31 22q-22 33 -57 68q-3 10 -8 19.5 t-12.5 19.5t-10.5 16q-5 7 -10 31q-11 18 -13 29q-3 7 -4 15.5t-1 21.5t-1 20q0 11 -2 33t-2 33v65v68q-4 7 0 64.5t4 64.5q-1 20 -6 76t-4 84q0 7 1 18t1 18v17q0 3 2 7t2 7q0 7 -1 18.5t-1 18.5q0 124 4 158v40t4 48q12 53 21 84q18 68 43 96q2 11 7.5 19.5t17.5 17t18 12 t24 12.5l70 39q5 2 20.5 9.5t27.5 12t26 7.5q14 2 41 2q51 6 145 -6q11 -3 33.5 -4t34.5 -4q6 -2 24.5 -11t28.5 -10q3 -5 8.5 -9.5t9.5 -7.5t10.5 -7t10.5 -7q1 0 3 -4t5 -8q3 -3 7 -4t7 -4l17 -18l14 -19q17 -20 45 -59q48 -98 37 -309q-12 -7 -37 -7q-8 -1 -40.5 -4.5 t-55.5 -3.5q-47 0 -68 4q-5 1 -15 3.5l-14 3.5t-9 3.5t-9 6.5q0 7 2 42.5t2 49.5t-3 37.5t-9 40.5q-3 4 -5 12.5t-5 11.5q-13 24 -58 37.5t-84 5.5q-16 -2 -49 -16q-7 -4 -17.5 -15.5t-17.5 -15.5q-15 -27 -18 -59t1.5 -83t4.5 -73q0 -51 -2.5 -170t-1.5 -182q4 -94 4 -133 q0 -10 -0.5 -33t-0.5 -35.5t1.5 -31t5.5 -35.5q10 -50 64 -76q7 -1 24.5 -5t26 -5t22 0t25.5 6q4 1 8.5 4t10.5 7.5t10 6.5q45 23 53 35q3 4 4.5 14.5t5.5 14.5q-2 15 5 66t-1 75q4 16 4 20q70 30 162 21q8 -1 25.5 -5t25.5 -5q26 0 33 -7zM846 281q5 17 4.5 100.5 t-0.5 97.5q-5 0 -27 3t-29 3.5t-27 2t-29.5 1.5t-26.5 -0.5t-28.5 -2t-25.5 -5t-26 -8.5q5 -66 4 -80l-8 -43q0 -2 1.5 -7.5t0.5 -8.5q-2 -11 -17 -37q-3 -4 -4 -13.5t-4 -13.5l-16 -10l-37 -20q-65 -23 -115 -13q-15 3 -47 17q-50 29 -53 86q-11 11 -8 47q3 18 2.5 58.5 t3.5 49.5q-4 18 -4 50v40q0 3 -1.5 11.5t-0.5 11.5q0 12 -1 27t-1 26q0 15 2 48t2 51q0 11 -1.5 46.5t-0.5 55.5q0 12 1.5 44t0.5 50q-7 49 -6.5 111t18.5 98q50 63 135 66q53 3 90 -21q31 -18 45 -54.5t13.5 -79.5t-2.5 -93q74 -17 213 0q0 10 -0.5 76t-4.5 100 q-9 68 -36 115q-8 14 -22.5 33.5t-20.5 29.5l-60 55l-22 21l-33 10q-11 4 -23 6.5t-28 4t-27 3.5q-8 1 -96 7q-76 4 -103 -4q-14 -3 -41 -18.5t-34 -18.5q-9 -5 -27.5 -14t-26.5 -13q-42 -26 -49 -35q-3 -6 0 -12q-4 0 -5.5 -1t-3 -4t-3.5 -5q-26 -42 -35 -78l-16 -66 q-8 -39 -8 -147l-7 -150q-4 -110 -2 -168q1 -8 5.5 -43.5t3.5 -54.5q-9 -152 0 -303q8 -87 55 -152q5 -8 20.5 -23t18.5 -26q23 -19 31 -22q1 -1 -0.5 -4t2.5 -4q53 -48 159 -58h35q10 -1 35.5 -3.5t36 -2.5t35.5 2q23 3 60.5 14t47.5 13q11 7 33 23.5t33 23.5q47 27 63 49 q16 16 33 55q31 56 37 97z" />
<glyph unicode="D" horiz-adv-x="983" d="M901 784v-75q0 -31 -1.5 -103t-0.5 -110q2 -31 -2 -97q0 -4 -1 -15t-0.5 -17t5.5 -11q-3 -89 -51 -188q-21 -39 -50 -68.5t-73 -64.5l-63 -21q-7 -1 -23 -1t-23 -1q-3 0 -10 -1t-10 -1l-74 -4l-186 -10q-94 0 -137 2q-7 1 -20.5 0t-20.5 0l-4 4l-3 3t-4 1.5t-8 -0.5 q-6 43 -10 115q-1 5 0.5 12t1.5 10q0 8 -1 25t-1 25q0 67 4 215q0 13 -1 41.5t-1 44.5t-1 45t-1 45v118v115q0 18 -1.5 79t-0.5 93q4 112 -4 191v41q-1 22 2.5 99t-0.5 105q1 2 7.5 6.5t6.5 8.5q157 9 348 -4q49 0 72 -2q66 -13 94 -11q12 -7 37.5 -18.5t36.5 -18.5 q3 -1 7 -5t7 -5q4 -3 20.5 -10.5t24.5 -15.5q22 -15 48 -56l22 -37q4 -12 11 -36t10 -35q15 -63 16 -74q4 -39 0 -162q0 -1 6 -166zM885 592q1 15 1 31.5t-0.5 37.5t-0.5 33q0 11 -1.5 45.5t-0.5 53.5q0 12 2 14q-6 51 -6 215q4 70 -2 104q-12 46 -21 72q-23 82 -59 121 q-31 29 -82 55l-23 12l-24 13h-13q-47 6 -53 8q-9 1 -33.5 4.5t-38.5 3.5q-252 12 -387 4q0 -281 4 -352q1 -16 -4 -111q0 -24 2 -70t2 -67q-3 -72 0 -131q-1 -4 3.5 -5.5t3.5 -4.5q-4 -26 -4 -119q-1 -28 1 -81t1 -81q-11 -246 4 -383q32 -4 110 -2.5t108.5 2.5t104 5.5 t96.5 5.5q6 0 27.5 1t31 1.5t26 3.5t30.5 8q27 9 51 27q5 4 14.5 14t14.5 14l4 2q5 2 6 6q5 4 9.5 8t8.5 9.5t7 8.5t7 10t5.5 9t5.5 10.5t4.5 10t5 11.5t5.5 11q8 8 12 21q53 112 33 293q-4 45 -2 67q0 4 2 11t2 10zM666 659q0 -141 2 -229q3 -22 0 -47q0 -37 -13 -78 q-1 -3 -3 -9.5t-3 -12t0 -9.5q-28 -37 -102 -51q-39 -8 -115 -4q-33 0 -47 6q-3 3 -2 7t-2 4q-3 4 -3 10t1.5 14t1.5 14q2 35 -2 97q-3 15 -3 30.5t1.5 36.5t1.5 35q0 74 -2 109q-1 16 -1 33t0.5 37t0.5 30q-2 47 -2 143q1 11 1 63.5t3 86.5q1 31 0 86t0 88q1 10 0 21.5 t-0.5 23.5t4.5 16q7 9 61 9l60 4q54 3 98 -21q51 -25 64 -96q5 -23 0 -98q-4 -91 0 -349zM633 285l16 53q10 68 -2 168q2 27 2.5 34t-2 33.5t-2.5 36.5q0 8 1.5 29.5t0.5 34.5q-2 23 -2 63q4 24 1.5 94.5t-1.5 94.5q0 18 2 58.5t2.5 66t-5 57.5t-19.5 53q-16 22 -47 33 l-19 8q-18 8 -78.5 3t-83.5 -3q-4 -32 -2.5 -121.5t0.5 -109.5q-1 -1 -0.5 -39t0.5 -39q0 -21 -2 -66t-2 -69t1 -71.5t1 -68.5q0 -23 2.5 -85t1.5 -97q-1 -21 0.5 -97.5t-2.5 -100.5q16 -3 48.5 -3.5t45.5 -3.5q69 3 123 31q15 8 21 23z" />
<glyph unicode="E" horiz-adv-x="1015" d="M899 252q23 -110 4 -176q4 -14 -2 -44t-6 -32q-12 -9 -18 4l-254 4q-40 1 -113.5 -5t-106.5 -7q-40 -3 -80 -3.5t-94.5 0.5t-78.5 1q-3 3 -8.5 5t-8.5 5q-3 41 -3 121.5t-3 120.5q-1 20 0 60t0 59q-4 58 0 235q1 2 1 8t3 10q-3 4 -3 9t1.5 11t1.5 9q0 13 -2 37t-2 35 q-2 23 -2 63q-5 44 2 62q-1 26 0.5 131.5t-2.5 138.5q0 2 -2 4v6h2q2 100 2 297q10 7 10 15q98 8 270.5 5.5t272.5 0.5q32 1 90.5 -1.5t81.5 -2.5q4 0 14.5 1t18 0.5t14.5 -3.5q0 -11 4 -27q7 -36 8 -37q0 -12 0.5 -35t0.5 -35t-1.5 -30t-5.5 -35q0 -31 -10 -61 q-10 -3 -20.5 -3t-21.5 1.5t-17 1.5q-2 2 -53 1t-54 -1q-18 0 -51 2t-49 2h-244q0 -21 2 -23v-4q0 -22 -4 -72l-2 -2q0 -19 -2.5 -61.5t-3 -65.5t3 -56t12.5 -58q26 0 80.5 2t98.5 2t77 -4q10 3 20.5 3.5t25.5 -0.5t22 -1q3 0 9 -1t9 -1t14.5 1t20 0.5t14.5 -3.5 q26 -124 4 -238q-14 -2 -43 -2q-172 6 -352 0q-14 -234 -4 -344q43 0 192 -4.5t224 -1.5q14 0 26 6q7 -3 25 -2t25 -2q12 9 20 4zM879 20q20 141 6 211q-53 -7 -252 -1t-252 6q-16 16 -16 71q-5 81 8 293q16 3 18 10q17 0 47 1t45 1q64 0 97 -2q15 0 54 2.5t62 1.5 q9 0 35 -1.5t41 -0.5q9 88 -4 209q-31 4 -89.5 2t-92.5 2q-69 -6 -213 -2q-14 55 -15.5 113.5t4 134t5.5 113.5q6 6 8 4q3 -3 3 3q0 7 3 7q28 -4 123 -1.5t129 1.5q15 0 59 -1.5t66 -0.5q26 1 66 -1.5t55 -2.5q25 129 4 229q-1 1 -141.5 0.5t-141.5 -0.5q-29 -1 -89.5 0 t-88.5 0q-55 0 -121 4q-23 -3 -49 -4t-58 -1t-49 -1q3 -144 0 -303q0 -25 1 -78.5t1 -81.5q-4 -118 -4 -168q0 -45 4 -147q0 -27 -2 -83t-2 -83q0 -75 4 -233t3 -232q45 3 145.5 2.5t144.5 3.5q90 11 148 11q57 0 163 -3.5t128 -3.5z" />
<glyph unicode="F" horiz-adv-x="980" d="M889 1438q8 -55 8 -133q0 -6 -2.5 -20.5t-1.5 -22.5q0 -3 2 -8.5t2 -8.5q1 -13 -2.5 -34t-3.5 -25q-36 0 -120 3.5t-132 2.5q-11 0 -30 -1t-31 -1q-127 4 -191 -2q-8 -52 -1 -172t3 -172q47 3 167 -2t163 -2q8 0 18.5 1t16.5 1.5t12.5 -1.5t11.5 -7q22 -63 8 -150 q-6 -25 -10 -80q-46 4 -99 5t-86.5 0.5t-102 -2t-97.5 -1.5q-8 -38 -8 -137q0 -88 2 -131q0 -49 2 -72q4 -92 2 -133q-6 -105 -6 -113q-4 -12 -4 -18q-146 -28 -240 0q-3 9 -12 12q-3 23 0 71t0 73q-6 11 -2 99.5t4 104.5q1 25 3 66.5t3 76t0 66.5q-2 41 -2 119q-1 36 0 109 t0 110q-1 22 -3.5 71.5t-2.5 70t2 67.5q3 43 3.5 94.5t-0.5 124t-1 99.5q1 2 3 2.5t3.5 0.5t3 1t0.5 4q135 0 207 -2h82q38 4 62 -2q65 4 327 4q52 0 70 -6zM150 1423q0 -13 1 -38t1 -37q0 -70 -2 -109v-82q0 -27 -2.5 -81t-2.5 -81q0 -3 2.5 -10t2.5 -10q1 -48 1 -155.5 t1 -164.5q5 -181 0 -231q-10 -78 -2 -133q-9 -21 -9 -53q0 -36 2 -52q0 -9 3.5 -27t3.5 -22q1 -21 -2 -62t-3 -57q81 -20 220 -2q6 165 6 172q0 49 -2 80q-4 37 -4 193q0 59 2 90q0 39 10 72q30 4 60 4.5t68.5 -1t55.5 -1.5q144 5 199 -2q1 12 5 39t5.5 42t2.5 38t-1.5 42.5 t-9.5 38.5q-8 -1 -19.5 -1t-26.5 0.5t-24 0.5h-35q-10 0 -91.5 2.5t-93.5 2t-91 -2.5q0 5 -10 15q3 51 -3 156.5t-1 158.5q0 5 0.5 16.5t1 17.5t3.5 12.5t9 10.5q2 -1 6.5 -3.5t7.5 -2.5q18 -1 55 2.5t46 3.5q12 0 34 -2t33 -2h25q20 0 24 -4q3 4 7 5t12 0t10 -1q54 3 94 0 q98 -4 133 -4q15 118 2 219q-32 1 -90 1t-88 1q-11 5 -87.5 1.5t-90.5 -3.5q-29 1 -159.5 1t-202.5 3q-2 0 -2 -4z" />
<glyph unicode="G" horiz-adv-x="946" d="M854 963q-57 -8 -83.5 -8t-86 4.5t-80.5 5.5q12 164 -43 221q-4 4 -8 7t-10 5.5t-9.5 4.5t-11.5 4t-11.5 3t-13 3.5t-12.5 3.5q-44 -12 -61 -19q-25 -8 -49 -29q-18 -12 -26 -28.5t-9 -46.5q-1 -15 -1 -32.5t0.5 -38.5t0.5 -32q0 -32 -4 -98q-1 -23 0.5 -64t1.5 -49v-121 q0 -20 -2 -55.5t-2 -52.5q0 -166 12 -229q5 -22 20 -45.5t31 -30.5q30 -13 64 -13q5 -1 35 5q64 16 90 55q18 53 22 69q1 17 -1.5 48t-2.5 43q0 9 1 31t0.5 37.5t-3.5 29.5q-19 -1 -61.5 -1t-61.5 -1q-24 125 10 221q11 4 11 10q15 1 44.5 0t45.5 0q18 1 48.5 -0.5 t41.5 -1.5q136 -5 178 0q3 -3 2 -7q-1 -1 2 -1q1 -44 -5 -148t-3 -171q3 -52 4 -157.5t4 -162.5q1 -18 -2 -51.5t-2 -48.5l4 -21q-2 -2 -7.5 -5.5t-8.5 -8.5q-75 -11 -127 10q0 -5 -4 -6q-2 0 -4 2q-8 8 -12.5 34.5t-10.5 37.5q-5 -8 -13 -14.5t-13.5 -9t-19 -7t-17.5 -6.5 q-11 -5 -29 -14t-32.5 -16t-28.5 -11q-49 -12 -111 -12q-60 0 -113 24q-3 0 -1 2q-1 2 -3 2v-2q-4 0 -15 4.5t-18 5.5q-47 31 -92 89q-6 8 -19 24.5t-21 26.5t-17 25.5t-14 29.5q-12 30 -12 79.5t-7 67.5q-1 66 -1 197.5t-1 204.5q-1 41 -3 106t-3 116.5t0 94.5q1 10 1 29.5 t0.5 32t3 29t5.5 28.5l12 33q3 5 6.5 16.5t6.5 16.5l26 37q27 37 27 38q6 3 13 11t10 10q12 7 50.5 31t67 36t60.5 17q119 13 172 8q7 -1 18.5 -5t18.5 -5l28 -6q40 -13 60 -15q3 -5 6.5 -7t11.5 -4.5t12 -4.5q45 -26 88 -94q35 -53 50 -109q16 -47 18 -61q9 -65 0 -127 q-1 -6 0.5 -27t-2.5 -26zM844 1042q8 86 -29 175q-24 67 -49 94l-23 30q-39 43 -73 58q-24 11 -52 18q-9 3 -23.5 6.5t-25.5 7t-22 7.5q-98 3 -197 -13q-45 -16 -61 -28q-9 -7 -30 -16.5t-30 -16.5q-42 -22 -75 -78q-2 -4 -10 -15.5t-10.5 -16.5t-5.5 -15.5t-3 -21.5 q-9 -3 -12 -15q-8 -32 -13 -147q-3 -76 6 -150q3 -57 3 -334q0 -7 1 -23t1 -24q-2 -18 -2 -55q1 -19 1 -55t1 -52q0 -3 2 -9t2 -9q1 -8 -0.5 -35t2.5 -35q3 -30 13.5 -55.5t19.5 -38.5t30 -39q31 -40 39 -49q44 -44 64 -55q3 -2 55 -19q11 -8 22 -12q32 -8 82 -4q57 0 82 6 q28 6 76 33q60 26 68 31q3 8 12 14q1 10 5.5 14t10.5 2q4 -1 6 -6.5t4.5 -15t4.5 -14.5l10 -43q7 0 26 -6t31 -7q41 -3 68 6l-8 7q4 9 4 47q0 8 2 24t2 23q0 9 -1.5 25t-1.5 28.5t3 22.5q-4 4 -4 12q-1 12 -1 28.5t-1 30.5q-2 41 -2 125q-4 78 -4 119q-1 34 5 118.5t3 133.5 q-14 -3 -26.5 -3.5t-29.5 0.5t-24 1q-6 1 -13.5 1t-16 -0.5t-13.5 -0.5q-17 -1 -51 2t-54 2h-108q-23 -69 -12 -195q13 1 58.5 -0.5t59.5 2.5q11 -21 11.5 -70t1.5 -59q11 -115 -35 -166q-14 -14 -15 -14q-45 -25 -77 -37q-35 -7 -113 13q-3 4 -17.5 15t-19.5 19l-6 17 q-6 14 -9.5 29t-6.5 41.5t-4 35.5q-7 80 -3 252q0 8 1.5 23.5t1.5 23.5q0 10 -5 45q0 8 2.5 24.5t2.5 24.5q-4 105 0 140q3 30 0 93.5t0 90.5q7 47 40 70l23 18q5 3 15.5 6t15.5 6q7 2 24 10t25 9q24 6 54 -2.5t46 -20.5q10 -5 22 -22.5t17 -30.5q31 -63 17 -172 q132 -13 219 -6q-2 17 -2 23.5t2.5 21.5t3.5 22z" />
<glyph unicode="H" horiz-adv-x="1064" d="M379 1421q-1 -22 -6 -91.5t-4 -110.5q4 -101 12 -201q7 -69 4 -178q45 3 90 3.5t109 -0.5t94 -1q14 320 6 581q96 33 246 4q6 -15 -4 -32q3 -40 1 -121.5t1 -124.5q3 -62 4 -135.5t1 -168.5t1 -147v-151q0 -13 -1 -37t-1 -37q1 -11 1 -23.5t-0.5 -26.5t-0.5 -22v-29 t4 -36q0 -3 2 -9.5t2 -9.5q1 -7 1 -21.5t1 -21.5q0 -24 -1 -76t-1 -77q0 -16 0.5 -42t0.5 -46t-1 -37q-8 -6 -17.5 -7t-23 1t-20.5 2q-18 0 -53.5 -1.5t-67.5 -1.5t-62 3q-2 2 -4.5 7.5t-7.5 6.5q-3 12 -3.5 24t0.5 28t1 24q1 24 0 68t0 65q4 88 0 371q-88 -2 -287 2 q-3 -18 -3.5 -63.5t-4.5 -67.5q0 -25 1 -93t1 -112q0 -26 -2 -76.5t-2 -71.5q1 -7 3.5 -23t2.5 -22t-2 -20q-3 -8 -6 -8q9 -9 6 -33q-10 -3 -10 -8q-119 -9 -236 0q-3 8 -8 8q-13 280 -8 375q0 13 3 37t3 36q0 14 -1 40t-1 40q4 36 4 56q-3 52 -2 158t-2 159q-4 109 2 164 q4 22 1.5 79.5t-1.5 76.5q0 9 2 26.5t2 26.5q0 6 1 74.5t-5 83.5q7 0 18 3t15 3q3 1 7 0t5 0q0 3 6.5 4t18 1t16.5 1q49 4 90 -4q54 -4 70 -17zM152 1413q6 -25 2 -104q0 -12 2 -33t2 -29q-1 -6 -2 -11.5t-1.5 -8.5t-0.5 -4q0 -5 -1 -14t-1 -13q4 -82 2 -121q0 -8 -3 -20 t-4 -17q0 -9 1.5 -28.5t1.5 -28.5q0 -8 -1.5 -25t-1.5 -24q5 -83 5 -318q0 -9 1 -27.5t1 -27.5q-2 -23 -2 -65q0 -25 -3 -69t-4 -60q-4 -68 2.5 -207.5t6.5 -149.5q157 -4 215 0q0 3 -1 13.5t-1 19t2 12.5v10q-3 28 -3 56.5t1.5 62t1.5 51.5q0 10 -0.5 83t0 101.5t3 84.5 t7.5 102q77 9 153 0q25 -2 84 2q64 0 82 -8l4 -129q-1 0 -2 2t-2 2q-3 -3 1 -4.5t3 -5.5q1 -57 -0.5 -162.5t-1.5 -142.5q0 -8 -1 -26.5t-1 -27.5q1 -12 1 -35t1 -34q0 -3 -4 -3t0 -3q3 3 4 -4q2 -13 5 -13q76 -2 217 -2q1 33 0 105t0 108q1 47 -3 132.5t-4 101.5 q0 43 1 140t0.5 168.5t-3.5 145.5v105q3 48 -2.5 191.5t0.5 203.5q-14 0 -33.5 4t-21.5 4q-69 9 -151 -8q5 -226 0 -301q-1 -24 0 -69t0 -68q0 -4 -2.5 -13t-2.5 -14q0 -7 1 -20.5t1 -20.5q-1 -9 -4.5 -28.5t-3.5 -32.5q0 -3 1.5 -8t1.5 -8.5t-3 -6.5q-32 0 -100.5 1 t-117.5 0.5t-101 -3.5q0 12 -8 17q0 59 -2.5 118.5t-7.5 135.5t-7 108q-1 58 -1 71t6 70.5t7 71.5q-114 23 -210 2z" />
<glyph unicode="I" horiz-adv-x="512" d="M123 719q0 42 0.5 116.5t0.5 130t-1 99.5q0 45 0.5 119.5t0.5 131.5t-1 105q6 0 10 13q65 8 166 8q58 0 72 -8q3 -32 4 -70t1 -66t-0.5 -74t-0.5 -71q2 -72 2 -225q0 -9 -1.5 -26t-1.5 -30.5t3 -23.5q1 -3 3.5 -5t2.5 -5v-33v-27q0 -12 1 -32.5t1 -28.5q-4 -16 -4 -23 q-1 -10 -1 -23t0.5 -26.5t0.5 -17.5q0 -23 -4.5 -137.5t0.5 -143.5l8 -86q6 -131 0 -260q-6 -5 -14.5 -7.5t-15 -3t-18.5 -1t-18 -0.5q-67 -10 -129 -2q-6 0 -16.5 0.5t-16.5 1t-13.5 3t-12.5 7.5q-6 106 -2 364q1 47 0 106t-3 134t-3 117zM143 1417q0 -9 -2 -33.5t-2 -33.5 v-150q0 -16 1.5 -68.5t0.5 -80.5q-4 -293 2 -439q1 -12 1 -61t3 -76q4 -28 1.5 -106t-1.5 -103q0 -12 -2 -34t-2 -33q0 -29 2.5 -95t1.5 -98q14 -1 36.5 -3t40.5 -3t34 0q8 0 38 3t46 3q20 3 27 -4q4 92 -4 276t-5 275q0 13 0.5 37.5t0.5 44.5t-1 37q0 7 -1 21.5t-1 21.5 q0 3 3 6t4 6q1 16 -3 49.5t-4 40.5v86q0 20 0.5 55.5t0.5 64.5t-1 54q-3 62 -1 178.5t-1 165.5q-2 4 -12 2.5t-12 -0.5q-135 0 -189 -6z" />
<glyph unicode="J" horiz-adv-x="987" d="M420 -6q-72 0 -133 24l-117 78q-1 4 -4 8.5t-7.5 9.5t-6.5 7q-3 4 -7.5 14.5t-7.5 14.5q-21 37 -36 94.5t-15 109.5q0 7 3 50t-1 53q-5 110 -4 143q1 1 4.5 5t3.5 5t2 6.5t0 8.5q3 0 25.5 2.5t28 3t26 2.5t29 2t26.5 0.5t28.5 -0.5t25 -2.5t26.5 -4.5t23 -7 q4 -25 5.5 -58.5t0.5 -60.5t0 -60q0 -10 1 -22t2.5 -26t2.5 -23q11 -80 29 -107q8 -3 21.5 -10t24 -11t21.5 -5q90 -10 129 41q3 3 5.5 10t5.5 10q8 10 12 23q1 3 1 9t1 9l2.5 5t2.5 5.5t1 5.5q1 13 -0.5 39t-1.5 35q4 176 0 236q-1 18 -1 38.5t0.5 46.5t0.5 40q0 39 1 123 t0.5 142.5t-3.5 117.5q-28 3 -101 2t-114 2q-43 3 -68 10q-25 56 -10 168q2 9 5.5 35t8.5 36q0 3 3 4.5t4 4.5t-1 5q-1 2 0 2t3 1q1 1 1 2q-1 1 -0.5 1.5t3.5 0.5q13 1 36 -0.5t31 -1.5q35 -3 72 0q24 1 65 -1.5t56 -2.5q39 1 123 -3t133 -3q0 -8 8 -11q1 -37 1 -117t1 -120 q0 -16 4 -48t4 -48q0 -8 -1 -25t-1 -25l-6 -45q0 -17 4 -53q2 -72 2 -194q0 -5 -1 -17.5t-0.5 -21t3.5 -15.5q-3 0 -3 -2.5t-3 -1.5q3 -3 3.5 -4t-0.5 -3t-1 -5q5 -61 0 -76q3 -7 3 -16.5t-1.5 -23t-1.5 -21.5q0 -10 1 -37t0.5 -47.5t-3.5 -38.5q-1 -12 -1 -39t-1 -43 q-1 -3 -2 -6.5t-1.5 -5t-0.5 -2.5q-1 -5 0.5 -18t-2.5 -15l6 -12q-4 -6 -5 -13.5t-0.5 -17.5t-0.5 -15q-14 -37 -14 -49l-11 -18q-2 -3 -6 -7.5t-6.5 -9t-3.5 -10.5q-35 -38 -98 -86q-12 -8 -27.5 -15t-27 -10.5t-31 -10t-29.5 -9.5q-20 -9 -43 -12q-13 -4 -38.5 -4h-31.5 q-11 -1 -31 1t-32 1zM293 31q45 -21 121 -21q8 0 24 -1t23 -1q80 0 157 25q72 22 121 63q45 35 54 56l4 10q22 50 37 121q2 18 2 57q6 63 6 180q0 73 4 199q1 42 -1.5 114t-2.5 97q0 10 -1.5 36t-0.5 40l6 24q2 33 -2 98q-2 18 -2 54q0 12 -3 32t-3 31q0 7 2.5 56t2 57.5 t-2.5 56.5q-240 6 -242 6q-17 0 -62 2.5t-69 1.5q-44 -2 -127 2q-37 -147 -8 -225q43 -4 140 -4.5t138 -3.5q4 -10 5 -19.5t0 -25t-1 -19.5q4 -46 4 -63q1 -23 -0.5 -67.5t-1.5 -59.5q3 -50 2 -157t2 -154q3 -16 3 -37t-1.5 -49.5t-1.5 -44.5q0 -137 -4 -174 q-6 -9 -16 -30.5t-18 -31.5q-26 -33 -91 -39q-1 0 -9.5 1t-13.5 0t-9 -5q-7 3 -25 6t-26 6q-41 15 -48 21q-18 18 -22 49q-15 59 -17.5 176t-3.5 131q-11 3 -34 5t-31 5q-19 -2 -68.5 -4t-77.5 -8q-3 -45 0 -82v-49q4 -5 2 -63t-2 -60q0 -23 9.5 -66.5t11.5 -54.5 q8 -13 8 -36q17 -32 25.5 -46t25.5 -33.5t37 -31.5q3 -2 27 -19t39 -22q3 -3 3 -7t3 -5z" />
<glyph unicode="K" horiz-adv-x="1034" d="M862 229q6 -13 47 -102q7 -14 22 -38t25.5 -44t16.5 -41q-4 0 -4 -8q-33 -14 -54 -4q-26 -10 -104.5 -0.5t-101.5 8.5q-11 16 -27.5 51t-28.5 51q0 5 -3.5 12t-4.5 11q-47 82 -119.5 242t-103.5 221l-19 -29q-17 -23 -18 -27l-2 -2q-2 -31 -2 -88q-2 -58 5 -214.5 t-3 -221.5q-3 -3 -8 -4t-6 -4q-14 0 -39 2t-37 2q-51 -4 -76 -2q-3 0 -7 1t-7 1t-5 -1t-5 -1q-7 0 -22.5 3.5t-23.5 2.5q-3 -1 -7.5 -4t-7 -3.5t-7.5 1.5q-3 63 1 183.5t1 181.5v274q1 16 1 33.5t-0.5 39t-0.5 33.5q0 5 -2 15t-2 18q4 62 4 92q-2 14 -2 43q-1 37 0 111 t0 111q0 13 1 36t1 31q-2 80 -2 223q9 6 22 10.5t23 6.5t26 4.5t23 3.5q48 4 72 -4q3 0 10 -2t10 -2q52 -5 68 -10l4 -215q1 -38 -1 -117t-1 -107q41 50 100 154q6 9 28.5 45.5t37.5 56.5q6 9 15 28t13 26q52 68 68 100q3 3 4 9t4 9q15 19 15 21q6 0 47 3t47 -1 q31 3 88 -3.5t78 -6.5q4 -13 8 -17q-1 -6 -5.5 -18t-4.5 -21q-8 -9 -18.5 -29.5t-14.5 -27.5l-19 -27l-14 -28l-16 -19q-6 -9 -41 -64.5t-58 -80.5q-3 -8 -8 -16t-12 -16.5t-10 -14.5q-3 -3 -8 -17q-1 -2 -11.5 -13t-15.5 -19q0 -1 -21 -37q-21 -27 -24 -33 q-11 -16 -27.5 -45t-27.5 -45q11 -12 19.5 -28t18 -38.5t13.5 -31.5q67 -154 92 -207l47 -107q6 -14 21.5 -48t23.5 -56q14 -33 49 -101zM946 12q-9 33 -31 70q-17 29 -34 70q-8 16 -34 61t-36 72q-22 54 -29 71q-36 77 -61 142l-33 65q-7 12 -15.5 36t-15.5 36 q-12 26 -31.5 73t-29.5 70l-25 49q-10 13 -10 17q-2 12 14 33l52 86l20 24q1 2 7 13t10 16l67 94q1 2 29 41l53 86q10 14 26.5 43t28.5 43q31 41 47 92q-24 2 -62 6t-62 6t-57 1.5t-62 -5.5q-7 -20 -8 -22q-13 -22 -70 -111l-70 -110q-12 -18 -33.5 -56t-33.5 -57l-56 -80 q-3 -4 -7 -9.5t-6.5 -8.5t-5.5 -5.5t-6.5 -1.5t-8.5 5q-4 16 -2.5 95.5t0.5 100.5q0 30 -2 117t-1 137q-53 7 -78 10t-68.5 2t-72.5 -12q3 -36 3 -73.5t-1.5 -83t-1.5 -70.5q4 -293 0 -379q0 -25 2.5 -91.5t1.5 -103.5q-3 -45 -3.5 -95t0.5 -117.5t1 -92.5q0 -104 -4 -288 q39 -5 116.5 -4t111.5 -3q6 113 -7 336q0 11 -1.5 40.5t-0.5 47.5q0 11 2.5 32.5t3 33t-3.5 29.5q3 0 3 12q8 4 13 9.5t10.5 15.5t10.5 16q19 26 25 26q4 0 7.5 -5t8.5 -15l6 -12q6 -13 25.5 -52t28.5 -61q15 -29 38 -83.5t31 -70.5q23 -52 74 -147q14 -26 38 -76.5 t36 -73.5q27 0 89 -7.5t97 -4.5q29 0 43 6z" />
<glyph unicode="L" horiz-adv-x="882" d="M819 104q2 -36 -8 -75q-2 -4 -4 -13.5t-5 -15t-9 -8.5q-8 -2 -12.5 -2t-15.5 2.5t-15 3.5q-52 3 -111 0h-74q-16 -1 -66.5 -4.5t-74.5 -3.5q-93 0 -285 4q-2 2 2 14q-4 2 -12 4q-1 36 3 130.5t1 142.5q-6 54 -6 59q4 32 4 47v45l-8 84q0 12 3 37t3 41q0 24 -1 75t-1 77 q3 76 0 155q0 36 0.5 99.5t0.5 114.5t-1 95q-1 40 1.5 114t2.5 104q9 0 12 10q25 7 64 10q23 1 73 -1.5t64 -2.5q28 0 33 -8q3 -3 3 -6.5t-1.5 -9t-1.5 -9.5q0 -18 1.5 -58.5t1.5 -76t-3 -64.5q-1 -1 -0.5 -68.5t0.5 -68.5q1 -13 -0.5 -34t-1.5 -29q0 -12 4.5 -76.5 t-0.5 -81.5v-82q0 -11 -0.5 -27.5t-0.5 -29t1 -23.5l6 -51q0 -5 -1.5 -24t-0.5 -29q0 -12 4 -33t4 -33q0 -5 1 -15t1 -15q1 -23 -2 -126t2 -130q12 -3 27.5 -3.5t25.5 0t28.5 2t25.5 1.5q18 1 50.5 0t47.5 0q41 3 113 -2t92 -5q14 -74 16 -127zM788 8q24 83 -2 205 q-28 3 -61.5 4t-58.5 1t-66 -0.5t-63 -0.5q-16 0 -50 -1.5t-58.5 -1t-47.5 4.5q-4 8 -5.5 19t-1.5 27.5t-1 23.5q-4 60 -2 90q4 62 4 86q0 60 -10 125q-1 18 -1.5 51t-1.5 51q-2 33 -2 99q0 216 -2 325q0 31 1.5 94.5t1.5 117t-3 99.5q-17 0 -65 2.5t-83 1t-63 -9.5 q-4 -84 0 -311q0 -32 -4 -102q0 -16 1 -50.5t1 -52.5q0 -35 -1 -108.5t-1 -112.5q0 -16 2 -45t2 -45q-5 -66 -4 -78q0 -16 3.5 -45t3.5 -45q1 -15 -1 -43t-2 -41q-1 -17 2 -45t3 -41q1 -45 -2 -128t-3 -118q101 -5 325 1t316 -3z" />
<glyph unicode="M" horiz-adv-x="1353" d="M1229 211q-1 -23 0.5 -104.5t-2.5 -104.5q-83 -16 -103 -16q-32 -1 -137 12q-12 27 -12 102q-2 115 -2 346q0 26 -1 97.5t-1 103.5v141q-12 -28 -26.5 -85t-26.5 -85q-9 -43 -62 -188l-12 -49q-16 -49 -27 -98q-28 -92 -33 -113q-7 -3 -47 -8q-81 -10 -151 -2 q1 9 -19.5 75t-46 145t-31.5 105q-4 16 -24 80q-6 19 -8 31q-64 184 -72 205q-4 -17 -4 -74q0 -15 -3 -43t-3 -43q0 -101 10 -248q13 -282 0 -395q-5 -2 -6 -2t-4 2.5t-6 3.5q-8 0 -51 -8t-68 -4q-91 14 -111 14q-1 20 0.5 56.5t1.5 50.5q0 38 -4 104q0 13 1 40t1 40 q0 33 -3 98.5t-3 98.5q0 13 -1 43t-0.5 51.5t3.5 42.5q-3 63 -3 187.5t-3 189.5q0 7 1 27t1 32v53q0 6 4 10q-6 8 -6 54q0 19 -3 60t-3 63q0 86 2 127q4 3 7.5 3.5t9 -0.5t8.5 -1q28 0 98 12q10 1 21.5 1t26.5 -0.5t23 -0.5q16 1 31.5 -1t38.5 -7t31 -6q27 0 39 -5 q2 -9 11.5 -39.5t12.5 -48.5q12 -33 11 -43q6 -10 10.5 -22t9 -30.5t6.5 -24.5q5 -19 33.5 -128t46.5 -167q6 -21 26 -88.5t32 -113.5t20 -91q15 40 20 59q31 106 37 141q0 3 1.5 5.5t0.5 5.5l49 168q10 26 18 56.5t16.5 67t13.5 56.5q6 20 23 72.5t26 90t14 77.5 q8 0 17.5 4.5t15.5 5.5h6q4 0 6 1q1 1 2 1q14 2 43 2q5 0 16.5 2t16.5 2q56 3 108 -6q55 -3 97 -17q1 -21 -3 -67t-3 -70q0 -5 1.5 -13t1.5 -15t-3 -13q4 -17 5 -37.5t0.5 -33t-2 -39.5t-1.5 -35q0 -5 1 -16.5t1 -16.5q-2 -4 -2 -29q3 -53 1 -147t1 -135q3 -58 0 -163.5 t0 -154.5q0 -8 1 -24.5t1 -24.5q0 -9 -2 -22t-2.5 -19t2.5 -16q3 -2 1.5 -16t-1.5 -19q0 -15 3 -44t3 -44zM1210 16q5 32 0 127v62q0 29 -4 81t-4 74q0 9 2.5 31t1.5 35q-4 27 -4 129q0 19 4 55v70q0 3 1 10t1 10q-6 75 -6 334q0 21 1.5 87t0.5 102q-4 129 6 192 q-116 17 -168 15q-81 0 -124 -11q-8 -39 -19.5 -82t-27 -94.5t-23.5 -79.5q-32 -124 -41 -153q-32 -86 -59 -209l-46 -154q-3 -8 -7 -26.5t-7 -26.5q-7 1 -12 3.5t-8 9t-4.5 11t-3.5 14t-3 13.5q-9 34 -12 62q-49 157 -104 356q-3 11 -19.5 76.5t-27.5 99.5l-52 176 q-17 0 -51.5 5t-54.5 5q-50 5 -193 -10q1 -14 -0.5 -40t-1.5 -36q0 -43 6 -124t7 -117q0 -16 -2 -42t-2 -42v-168v-324q0 -28 2 -84t2 -84q10 -204 2 -331q125 -24 215 -3q0 12 2.5 51.5t1.5 59.5q-5 58 -4 68q0 3 1 19t1 22q0 3 -2 8t-2 8q-2 18 -2 61q-1 12 0.5 52 t-2.5 49q-5 21 -5 82q0 16 -2 44t-2 44q-2 68 11 237q9 9 16 11q8 -6 14 -15t9 -17t7.5 -21t6.5 -19q28 -80 69 -209q7 -21 18.5 -64t18.5 -65q40 -120 76 -250q65 -7 168 6q16 46 35 129l14 47q13 48 38.5 124t35.5 110q17 69 29 96q3 15 11 40t11 38q3 7 6 18.5t6 18.5 q1 2 4.5 11.5t8 13.5t12.5 1q8 -5 8 -59q-1 -34 0 -90.5t0 -87.5q0 -84 2 -127q0 -19 -2 -63.5t-2 -65.5q4 -94 4 -137q0 -146 6 -187q128 -27 213 4z" />
<glyph unicode="N" horiz-adv-x="1095" d="M971 223q1 -27 -1.5 -105t1.5 -102q0 -2 -3.5 -6t-2.5 -8q-12 0 -89.5 -3t-87.5 1q-4 0 -33 3t-44 3q-9 29 -25 55q-13 38 -42 105t-42 102q-3 7 -13.5 29.5t-16 38t-9.5 33.5l-41 104q-14 37 -32 78.5t-42.5 92.5t-37.5 81q-1 1 -9.5 19.5t-9.5 29.5q-3 1 -10 21 q-1 -71 4 -422q0 -49 2 -74q0 -14 2 -39t2 -37q0 -9 -2 -27t-2 -26q-6 -51 -6 -156q-3 -1 -6.5 -0.5t-5 -0.5t-2.5 -5q-78 -27 -234 0q-5 11 -5.5 30.5t5.5 27.5q-4 9 -4 49q4 54 2 82q-1 7 -3.5 33.5t-2.5 39.5q-1 13 4 88q1 25 -1 73.5t-1 76.5v158q0 9 1.5 33.5t0.5 37.5 q-1 36 1.5 106.5t2.5 100.5q0 32 -1.5 113.5t-2 126.5t0 115t3.5 131q134 20 223 8q1 -3 2.5 -3.5t3.5 0t5 -0.5q7 -10 12.5 -21t11 -25t8.5 -22.5t9 -26.5l8 -24q22 -33 49 -104t37 -91q30 -66 71 -164q70 -187 144 -327l8 129q2 44 -2 135q0 30 0.5 85.5t0.5 101.5t-1 87 v56v213q145 24 244 -6q2 -47 2 -138q0 -24 1 -70t1 -69l-6 -141q3 -79 -1 -235.5t-1 -225.5q1 -16 1 -34t-0.5 -41t-0.5 -36q5 -182 8 -217zM723 27q74 -16 231 -4q-3 25 -3.5 50.5t0.5 60.5t1 48q-4 202 -8 254q0 15 4 47q0 27 -2.5 89.5t-1.5 97.5q0 311 6 475 q4 34 1.5 136t-1.5 136q-79 18 -207 2q-5 -7 -4.5 -89.5t0.5 -96.5v-201q0 -21 -1 -61.5t-0.5 -67t3.5 -53.5q4 -90 -2 -137q-3 -17 -5 -52.5t-5 -52.5q-4 1 -9 -1t-9 -1q-6 7 -11.5 16.5t-11 21.5t-8.5 18q-5 13 -15 32.5t-12 24.5q-25 50 -66 154t-63 151q-3 8 -7.5 20.5 t-8 22.5t-6.5 20q-4 4 -19 39q-10 18 -19 39t-18.5 47t-15.5 41l-39 82q-5 11 -17 41t-20 45q-70 9 -204 -8q-4 -90 0 -267.5t0 -264.5q-3 -45 -2.5 -136.5t-2.5 -136.5q-1 -44 -1 -132t-1 -132v-90l7 -78q1 -21 -2.5 -72.5t-0.5 -78.5q125 -28 218 2q-3 10 -1 30t-4 25 q3 -3 4 4q1 3 1 6q1 7 1 24.5t1 24.5q0 13 3.5 45.5t2.5 49.5q-1 6 -6 161q0 68 -5 308q0 13 1.5 43t1.5 36q-3 6 -3 39q0 4 1 9.5t4 11t8 4.5q5 0 16.5 -27.5t11.5 -34.5q24 -64 73.5 -166.5t66.5 -144.5l22 -67q4 -10 18.5 -48.5t22.5 -56.5q72 -177 117 -276z" />
<glyph unicode="O" horiz-adv-x="944" d="M856 627q4 -12 4 -29q0 -3 0.5 -56t0 -77.5t-2.5 -77.5t-6 -85.5t-12 -69.5t-19 -60q-8 -13 -21 -30.5t-18 -24.5q-6 -8 -13.5 -15.5t-10.5 -10t-16 -11.5t-15 -10l-18 -17q-31 -18 -41 -22q-46 -25 -97 -37q-10 -2 -35 -8.5t-42 -9t-35 -1.5q-6 1 -22 5t-25 4 q-49 4 -54 6l-45 20q-16 12 -39 23l-36 24q-10 8 -31 28.5t-33 29.5l-27 37q-27 44 -38 79q-15 58 -17 99q0 15 -5.5 58.5t-2.5 70.5q0 22 2 26q0 9 1 38t1 38q0 4 -1 11t-1 10q-1 50 0.5 145.5t1.5 126.5v137q0 44 4 170v26t4 34q0 3 3.5 9.5t4.5 8.5q9 35 27 53 q4 6 9 11.5t12 11t10 8.5q2 2 12 13t13 14l12 12t14.5 13t14 10t16.5 10q12 6 50.5 21t57.5 28q8 1 31.5 5t34.5 5.5t32.5 4t36 3t34 -1t36.5 -4.5q13 -3 37.5 -15.5t36.5 -15.5l14 -4q23 -8 57.5 -30.5t45.5 -28.5q11 -12 20.5 -25.5t18 -30t13.5 -27t14 -31.5t13 -29 q23 -51 23 -177l4 -213q1 -14 1 -29.5t-0.5 -35t-0.5 -29.5q1 -13 -0.5 -55.5t2.5 -52.5zM606 412q4 22 4 92q-2 41 -2 100q-6 70 -10 207q-1 13 0.5 64.5t-2.5 64.5q-1 15 0 54t0 59v55q-8 36 -35 63q-24 8 -41 25q-16 8 -39 8q-74 -5 -104 -30q-14 -10 -31 -39 q-4 -9 -5.5 -18t-1.5 -15t0.5 -19t0.5 -20q0 -48 -4 -227.5t0 -225.5q1 -16 3.5 -58.5t2.5 -60t-2 -59.5q-4 -112 33 -158q1 -3 1 -6t1 -4l26 -22q56 -13 102 -2t72 43q2 5 9.5 13.5t9.5 14.5l4 17q1 2 2.5 5.5t2.5 5.5t1 3q4 9 2.5 35.5t-0.5 34.5zM838 326q11 123 2 264 v65q0 12 -1.5 57t-0.5 70q2 33 -2 99q-1 19 -3.5 132.5t-11.5 170.5q-39 94 -55 119q-14 25 -23 36q-8 10 -34 25q-31 22 -47 31q-10 4 -28.5 13.5t-32.5 15.5t-28 10q-36 13 -90 10q-12 -1 -33.5 -3.5t-34 -4t-29 -5t-30.5 -8.5q-10 -3 -27 -11t-24 -11t-26.5 -12 t-26.5 -12.5t-20.5 -11.5t-22.5 -16.5t-19 -19.5q-4 -5 -18.5 -20.5t-20 -22.5t-13.5 -21.5t-13 -31.5l-12 -39q-4 -15 -4 -82q0 -3 1 -11t1 -11q0 -10 -2.5 -77.5t-2 -79.5t2.5 -81q0 -18 -5 -121q-2 -38 2 -115q0 -7 -1 -18t-1 -18q0 -12 1 -34t1 -34q0 -10 -4 -53t0 -53 q1 -7 4 -30t3 -36q1 -7 0 -18.5t0 -18.5q2 -57 36 -115q27 -50 64.5 -84t93.5 -67q39 -25 70 -33q4 -1 14.5 -1t15.5 -1l31 -6q42 -8 90 4l29 6q55 18 100 37q15 7 45 29q2 1 18.5 11.5t24.5 18.5q56 47 76 109q8 36 8 53q2 18 13 62zM616 920q0 -109 2 -158l9 -174 q8 -90 -2 -176q0 -40 -15 -109l-16 -27q-3 -3 -4.5 -6.5t-5.5 -7.5q-41 -44 -107 -47q-56 0 -74 8q-10 4 -19 12t-18.5 20.5t-15.5 18.5q0 3 -2.5 8l-3.5 7q-2 2 -2 10q-2 9 -16 41q-4 15 -4 76q0 38 -3 84q-7 113 -2 338q0 19 2.5 94t2 91t-2.5 89q4 8 7.5 20.5t5.5 18.5 l14 16l23 25q4 2 18 7t19 6.5t16.5 5t19 5t19 2.5t22.5 1q17 0 43 -11q8 -5 26 -16t26.5 -17t18.5 -19.5t15 -31.5q4 -14 4.5 -32t-1 -42.5t-1.5 -33.5q0 -18 1 -49.5t1 -46.5z" />
<glyph unicode="P" horiz-adv-x="976" d="M866 1219q18 -55 21 -66q11 -96 2 -215q-12 -104 -25 -143q-18 -53 -22 -60q-13 -23 -56 -57l-61 -47q-76 -40 -160 -51q-26 -4 -56.5 -5t-69 -1t-56.5 -1q-8 -92 -8 -270v-123q-1 -28 0 -84t0 -84q-11 -2 -34.5 -8t-33.5 -8t-33.5 -5t-35.5 1q-20 1 -51 6t-50 6 q-11 60 -8 152q3 83 0 166q0 13 1 43t0.5 51.5t-3.5 42.5q-3 23 -3 48.5t1.5 56.5t1.5 48v136q0 22 3 63t3 61q0 62 -2 93q0 7 1 18t1 18q0 5 -1 16.5t-1 16.5q-1 20 1 60t1 59q-4 41 -2 59q0 6 0.5 17.5t0.5 22t-1 20.5q0 12 -3 29.5t-3 25.5v103q3 3 8 5t8 5q31 2 49 1.5 t55 -3.5t54 -4q1 0 56.5 2t56.5 -2q10 3 22.5 3t29 -1.5t25.5 -1.5h27.5t32.5 -4q3 0 8 -2.5t8 -2.5q6 -1 17 -1t20 -1t16 -4q61 -16 113 -37q25 -9 47 -28q9 -9 22.5 -27t18.5 -24q19 -24 21 -27q12 -17 26 -57zM643 1032q3 62 -43 137q-38 20 -103.5 22t-117.5 -5 q2 -47 -3 -175t5 -175q142 -25 223 18l19 27q2 2 2 20q1 3 3.5 6t2.5 6q4 9 4 50q3 13 8 69zM864 883q28 228 -18 334l-12 34q-4 7 -9 14.5t-12 15.5t-10 13q-35 49 -62 66q0 2 -2 0q-3 -3 -6 0q-54 28 -90 35q-24 7 -47.5 11t-54.5 6l-46.5 3t-57.5 1.5t-54 0.5 q-11 0 -46.5 -1.5t-55.5 -0.5q-95 12 -140 6q4 -15 2.5 -55t-0.5 -51q0 -8 4.5 -25.5t4.5 -29.5q0 -16 -1 -49.5t-1 -51.5q3 -228 -5 -393q-2 -115 -2 -295q0 -36 3.5 -111t3.5 -116q0 -26 -1.5 -74t-1 -83.5t4.5 -68.5q14 0 40.5 -3.5t34.5 -4.5q50 -4 80 4q40 13 53 6 q-3 23 -3.5 47t0.5 58t1 49q1 13 -0.5 34.5t-1.5 29.5q2 47 2 149q0 8 -2 25.5t-2 25.5q5 60 4 70q0 9 2.5 33t1.5 39q3 0 4 1.5t1 3t1 3t3 2.5q23 3 77.5 2t86.5 2q109 9 188 59q47 35 90 72q42 72 51 158zM614 1180q3 -3 7.5 -12.5t7.5 -12.5q45 -81 22 -221 q-3 -33 -12 -57q-2 -5 -6.5 -11t-7.5 -12t-4 -14q-49 -22 -113 -31q-27 -3 -76 3t-61 7q-2 2 -4 5t-3.5 4t-5.5 1q0 19 -2 55t-2 58q0 23 2 66.5t2 66.5q0 100 4 127q74 11 148 8q7 -1 23.5 -3t25.5 -3.5t21 -4.5t20.5 -7.5t13.5 -11.5z" />
<glyph unicode="Q" horiz-adv-x="942" d="M860 399q0 -2 -4 -30q0 -9 1 -27t0.5 -30.5t-3.5 -24.5l1.5 -18t-3 -17.5t-5.5 -17.5t-6.5 -17t-6.5 -16q-13 -43 -37 -70q-11 -13 -46.5 -41.5t-48.5 -50.5q3 -7 6.5 -18.5t6.5 -18.5l14 -22q3 -7 7 -23t7 -23q66 -154 80 -192q-4 -12 -4 -16q-102 -12 -209 0 q-3 6 -10 6q-30 74 -76 168q-4 9 -16 39.5t-21 46.5q-37 -7 -94 4q-47 12 -57 16q-8 4 -20 5t-13 1q-3 1 -8 5.5t-8 5.5l-27 10l-4 4l-20 12q-12 6 -52 41q-26 26 -49 64t-37 84q-9 44 -12 90q-4 14 -1.5 50.5t1.5 45.5q-1 27 0.5 76.5t1.5 66.5v109q1 44 1 100t-0.5 125.5 t-0.5 104.5q0 34 4 104q0 3 1.5 14t0.5 17q0 13 2 27t3.5 23t7 25t7.5 22t10.5 27t10.5 27q28 48 88 94q17 17 37 27q31 13 74 23q15 7 39 10q35 8 135 4h28t33 -4q73 -13 156 -66q28 -16 59 -55q13 -18 23 -41q3 -7 12 -19.5t12 -19.5l7 -20q5 -12 8 -51q0 -2 4 -19.5 t4 -28.5q1 -17 0 -51.5t0 -54.5v-51q0 -14 -1 -54.5t-0.5 -71.5t3.5 -59q-4 -19 -4 -43t2 -54t2 -46q-2 -39 -2 -115q0 -20 3 -63t3 -64zM600 793q0 14 3 81.5t-1 75.5v41q0 3 -3 20t-3 25q0 9 1.5 37t0.5 43q-1 23 -4.5 29.5t-15.5 17.5q-2 2 -5.5 6.5t-6 7t-5.5 3.5 q-5 3 -20.5 6t-22.5 6q-38 10 -45 10q-37 2 -84 -18q-5 -3 -9.5 -6.5t-7.5 -6t-5.5 -6.5t-4 -6t-3 -7.5t-2 -7.5t-2.5 -9.5t-3 -10.5q-1 -2 -2.5 -5.5t-2.5 -6.5t-1 -6q-4 -15 -4 -76q0 -14 -2 -41t-2 -41q0 -23 2.5 -78t1.5 -82q0 -16 -1 -50t-1 -54q-2 0 -1 -58l1 -59 q-7 -54 -6.5 -136t18.5 -132q6 -6 13.5 -19t15.5 -18q32 -23 61 -26q45 -8 107 20q23 10 34 24.5t17 41.5q3 11 3 24.5t-1.5 30t-1.5 24.5q0 7 1 20t1 17q-4 77 -2 115q1 36 1 77.5t-0.5 90t-0.5 72.5zM840 397q0 19 -1 61t-1 66q1 55 -0.5 162t-1.5 143q0 15 2 45t2 46 q0 17 -2 54.5t-2 57.5v34v35.5t-1 31t-3.5 35t-7 31t-11.5 36t-16 33.5q-5 8 -13 25t-16 26q-5 5 -12.5 13.5t-14 15t-12.5 10.5q-47 35 -100 59q-12 1 -37 8.5t-39 8.5q-115 4 -164 -2q-33 -6 -86 -23q-4 -3 -10 -4.5t-12.5 -2t-8.5 -1.5q-10 -4 -18.5 -9.5t-19 -16 l-13.5 -13.5q-32 -25 -53 -55l-37 -62q-3 -15 -10.5 -54t-11.5 -67.5t-5 -56.5q-2 -47 -2 -141q-1 -41 1.5 -157t-1.5 -144q2 -31 2 -84q1 -17 -1.5 -44.5t-2.5 -37.5q0 -1 0.5 -4l1.5 -9l2 -12q3 -17 -2 -50.5t-2 -51.5q0 -4 2 -12.5t2 -12.5q1 -5 1 -16.5t1 -16.5 q2 -8 23 -69q65 -158 258 -195q6 -1 23 -5t22.5 -4.5t21.5 -2t21 1.5q3 0 9 3t14 3q34 -69 55 -129q14 -24 35 -72.5t28 -62.5q117 -10 189 0q-7 23 -29 74l-39 86l-39 100q-16 37 -16 41q1 3 8 9t8 9q12 12 30.5 27.5t29.5 26.5q37 37 53 82q4 12 12 29t11 26 q4 25 3.5 69.5t2.5 75.5zM618 958q3 -36 0 -111t0 -112q1 -27 -0.5 -73t-1.5 -60q0 -24 -1.5 -103.5t-0.5 -123.5q0 -11 2 -13q0 -3 1 -7t1 -7q1 -13 -4.5 -37t-11.5 -35q-3 -8 -17 -18t-18 -14q-11 -3 -29 -11.5t-30 -11.5h-19q-28 -4 -38 -4q-38 3 -76 27q-9 6 -16.5 15 t-12.5 17t-9.5 22t-6.5 22t-4 27t-3 26.5t-2 30.5t-2 30v90q0 14 2.5 42.5t2.5 45.5q2 63 2 219q0 30 -4 84q-1 16 4 113q0 58 4 80q0 4 0.5 14t1 13t2 9.5t4 11t6.5 9.5q3 4 7.5 8.5t11.5 9.5t10 7l12 14q2 1 7.5 1.5t10.5 2t9 4.5q27 9 53 9q46 0 78 -11q23 -7 41.5 -21 t23.5 -26q8 -19 8 -76q0 -8 -2 -26.5t-2 -26.5q0 -5 3 -33t3 -43z" />
<glyph unicode="R" horiz-adv-x="987" d="M225 -10q-68 10 -102 24q0 87 2 150q0 8 2.5 37.5t2 36.5t-2.5 38v52q2 43 2 135q0 27 1.5 83t1.5 106.5t-3 97.5q-1 25 2.5 72.5t3.5 68.5q0 1 -0.5 55t0.5 58q4 110 4 188q0 33 -1.5 109.5t-0.5 121.5q1 2 3 5.5t3 6.5t0 7q47 6 152 6q229 0 360 -31q51 -13 72 -26 q1 -3 5 0t7 0q66 -44 111 -125q5 -22 27 -62q13 -50 14 -59q5 -8 3 -56t-1 -59q4 -37 2 -55q-3 -63 -18 -125q-12 -54 -35 -92q-36 -54 -97 -103q-31 -31 -45 -37q32 -111 50 -145q13 -51 36 -115l39 -112q28 -67 60 -172q2 -6 8 -19.5t7.5 -18.5t3.5 -18.5t-3 -19.5 q-78 -25 -168 -4q-9 2 -36 8.5t-42 7.5q-26 86 -59 180q-7 22 -18.5 63.5t-18.5 61.5q-38 118 -70 211q-15 34 -16 49q-13 -5 -39 -5t-45 5q-11 -170 -8 -301q0 -4 -1 -12t-1 -12q4 -109 2 -160v-55q-1 -6 -5.5 -16.5t-4.5 -18.5q-52 -20 -146 -10zM391 926q-4 -70 2 -90 q46 -1 85 -0.5t75.5 8.5t60.5 24q5 5 8 11.5t4.5 11t3 15t3.5 16.5q6 33 6 92q-1 13 0 42t-0.5 49t-7.5 34q-10 22 -39 37q-36 16 -119 12q-10 -1 -24 -1t-31.5 0.5t-26.5 0.5q0 -24 0.5 -78t0.5 -100.5t-1 -83.5zM150 262q3 -35 -3.5 -111.5t-3.5 -121.5q105 -36 215 -15 q2 44 3 265t10 313q6 4 14 4t18 -2t15 -2q13 -1 35.5 0t33.5 0q1 -21 13.5 -50t15.5 -44q21 -48 80 -242q14 -54 16 -59q32 -100 60 -168q125 -33 217 -17q-15 38 -40 116t-40 116q-15 37 -38.5 113t-39.5 114l-14 39q-3 11 -11 34.5t-13.5 43.5t-8.5 37q25 18 39 32 q16 16 37 31q97 84 112 236q5 49 5 172q0 43 -3 51q0 5 -5.5 17t-2.5 20q-13 18 -27 52t-18 42q-11 22 -61 76q-13 4 -31 14t-27 14q-29 13 -137 31q-11 1 -34.5 5t-36.5 5q-31 2 -97 2q-14 1 -29 1t-34.5 -0.5t-30.5 -0.5q-17 0 -49 -1t-47 -1q-39 3 -45 -2q-10 -8 -10 -80 q0 -9 1 -27.5t1 -27.5q0 -166 2 -242q-4 -40 -3.5 -105t-2.5 -99q-2 -60 -2.5 -73.5t2 -76t2.5 -78.5q-3 -4 -3.5 -19.5t-3.5 -19.5q5 -48 3 -153.5t2 -157.5zM477 817h-98q-7 14 -9 34t-0.5 56.5t1.5 44.5q0 40 1 122.5t1 123.5q3 3 10 4t10 4q16 -1 81 2t81 -4 q74 -14 92 -57q6 -14 9 -35t3 -38t-1 -44t-1 -37q0 -35 -2 -53q0 -1 -6 -25q0 -20 -2 -22q-2 -6 -10 -20.5t-12 -18.5q-18 -18 -76 -33q-15 -4 -72 -4z" />
<glyph unicode="S" horiz-adv-x="944" d="M842 1194q18 -79 18 -86q2 -35 1.5 -52.5t-3.5 -54t-4 -55.5q-20 -8 -80 -8q-9 0 -26.5 -1t-26.5 -1h-51q-3 0 -6.5 2t-6.5 2q-8 2 -20 3.5t-20 4t-15 8.5q-1 12 1.5 55.5t-1.5 59.5l-3 18t-3.5 18.5t-4 15.5t-5.5 17t-8 15q-16 26 -37 35q-3 1 -6 1t-7.5 -0.5t-7.5 -0.5 q-4 1 -10.5 3.5t-10 4t-10.5 3t-11 1.5h-13q-24 0 -35 -4q-37 -13 -55 -31q-6 -4 -10.5 -9.5t-9 -14t-7.5 -13.5q-9 -48 10 -102q12 -34 64 -98q4 -4 11 -14.5t11 -14.5q3 -4 11.5 -10.5t11.5 -9.5q10 -8 31 -27.5t34 -28.5q53 -34 91 -73q8 -3 14.5 -8.5t14.5 -15t12 -13.5 q11 -11 30 -28.5t31 -29.5q44 -44 61 -77q11 -9 23.5 -39t15.5 -35q2 -6 8 -15.5t7 -15.5q1 -5 3 -15.5t3 -15.5q0 -4 3 -11t3 -11q2 -14 2 -39q-1 -23 1 -30t-1 -28t-3 -25.5t-4.5 -24t-5.5 -23t-6 -22t-6 -21.5q-6 -18 -26 -53q-3 -5 -11.5 -14.5t-11.5 -14.5l-10 -14 l-12 -13q-3 -3 -4 -8t-4 -8l-9 -6q-30 -30 -49 -35q-28 -16 -37 -25q-3 0 -9.5 -2.5t-10.5 -1.5q-18 -8 -34.5 -12t-42.5 -6.5t-36 -3.5q-3 0 -6 -2t-6 -2q-2 0 -10 1.5t-11 0.5q-12 0 -43 -1t-47 -1q-3 0 -10.5 -1t-12 -0.5t-7.5 3.5h-17q-12 4 -29.5 7.5t-25.5 6.5 q-11 4 -55 29q-38 21 -58 49q-2 2 -8 9.5t-11 15t-9 12.5q-5 6 -14 21.5t-15 23.5q-14 22 -20.5 46.5t-11.5 66t-7 53.5q0 6 2 8q-13 61 4 143q34 12 72 13.5t91.5 -3.5t74.5 -6q2 -2 4.5 -5.5t5.5 -4.5q0 -11 -0.5 -42t-0.5 -46.5t2 -42t6 -42t12 -33t20 -27.5 q6 -2 30.5 -11.5t41 -12.5t34.5 1q13 3 25.5 8t24 14t18.5 15t19 18t16 15q27 68 -25 174q-22 30 -78 74t-77 69q-3 0 -4.5 1.5t-4.5 2.5q-5 7 -19.5 18.5t-19.5 18.5q-12 2 -16 17q-26 15 -31 28q-10 3 -17 8.5t-14.5 15t-11.5 13.5q-21 17 -26 23l-21 16q-7 7 -24 21 t-25 22l-18 16q-7 7 -16.5 23.5t-16.5 23.5q-40 75 -37 162q0 3 -2 9.5t-2 9.5v47q2 9 4 26t4 27.5t5.5 24.5t8.5 26q0 11 3 21t9 23t9 20q2 3 7.5 13t8.5 15q5 6 20 22t21 26l19 16q44 38 116 65l54 19q22 6 71 10q16 2 48 2l77 -6q28 -2 70 -20q4 -6 11.5 -11t18.5 -9.5 t15 -6.5q19 -10 46 -36t38 -34q58 -77 74 -141zM186 98q7 -6 24 -20.5t27 -23t27 -18.5t33 -16l57 -16q20 -4 92 0h43l48 6q11 3 33.5 3t31.5 3q5 2 22 8t25 9l23 16q7 4 19.5 9t17.5 8q8 6 15 13.5t16 20.5t12 17q38 42 49 61q6 13 18 60l17 67q6 53 0 111q0 2 -18.5 54 t-22.5 62q-5 12 -16.5 29.5t-16.5 28.5q-12 11 -31.5 34t-30.5 35l-6 7q-2 2 -26 20q-9 9 -21 25q-11 11 -34 30t-35 31q-15 8 -39.5 28t-40.5 27q-5 8 -18 18.5t-15 12.5l-13 12q-14 13 -22 17q-8 15 -32 43t-33 47q-3 3 -6.5 9t-6.5 9l-16 43q-11 31 -7 70t23 63l19 17 q13 12 30 20q34 19 101 6q5 0 15 -4t15 -4q11 0 27 -4q4 -7 16 -18t17 -17q14 -19 20.5 -47.5t7.5 -47.5t-0.5 -57.5t-1.5 -47.5q22 -9 53 -12.5t52 -3.5t61.5 2.5t51.5 2.5q4 15 4 74q0 10 0.5 28.5t0.5 30t-1 27t-4 29.5q-1 5 -5.5 15.5t-5.5 15.5q-21 71 -30 86 q-7 15 -25 36q-18 23 -59 64q-3 3 -11.5 8t-11.5 8q-16 12 -39 23q-58 25 -110 32.5t-121 0.5q-57 -9 -101 -29q-79 -29 -122 -80q-25 -25 -33 -35t-18.5 -33t-16.5 -32q-3 -21 -11.5 -53t-12.5 -59t-1 -60q4 -76 15 -119q20 -50 57 -90q27 -33 55 -56l17 -14 q28 -24 85.5 -78t86.5 -78q2 -2 26 -20q5 -6 16 -16t15 -17q14 -5 35 -22t31 -23q7 -12 22.5 -27.5t22.5 -27.5q4 -4 6 -4q0 -6 14 -39q8 -32 12 -78q5 -33 -2 -49q-9 -15 -24 -27q-8 -9 -25 -23.5t-24 -21.5q-51 -33 -117 -12q-49 16 -61 25v4q-12 2 -23 28q-9 19 -13.5 46 t-4.5 46.5t1 56t1 52.5q-17 1 -63.5 5t-83 3.5t-70.5 -8.5q-21 -121 18 -258q17 -56 59 -113z" />
<glyph unicode="T" horiz-adv-x="978" d="M909 1376q9 -40 9 -80q0 -10 -2 -20t-3.5 -16.5t-5 -16.5t-5 -13.5t-6.5 -15t-7 -14.5q-7 -4 -29 -4q-15 3 -32.5 3t-41 -1.5t-36.5 -1.5h-84h-29q-3 1 -7.5 3t-6 1.5l-7.5 -2.5q-4 -19 -5 -41.5t-0.5 -36t2 -41.5t1.5 -39q0 -16 -2 -46.5t-2 -45.5q0 -11 2 -34.5 t2 -36.5q0 -22 -6 -103q5 -5 4.5 -38t-0.5 -38q0 -3 2 -8t2 -8q3 -17 3 -37.5t-1.5 -46t-1.5 -39.5q0 -21 -1 -62t-1 -61q-1 -16 -1 -33t0.5 -39.5t0.5 -35.5v-117q0 -38 -4 -107.5t-4 -107.5q-13 -1 -43 -6.5t-47 -5.5q-1 0 -3 1t-3 1q-18 -2 -26 -2t-28 2.5l-28 3.5 q-49 4 -72 18q4 0 2 108t-2 113q0 35 4.5 105t4.5 108q0 40 -1.5 119.5t-1.5 120.5q0 16 -3 120t1 120q3 31 2.5 89t2.5 89q1 12 3 33t1.5 28t-2.5 33q-23 1 -48.5 1t-58 -0.5t-51.5 -0.5q-11 0 -35 -1t-35 -1q-45 0 -63 8q-16 57 -12 121.5t24 118.5q21 3 47.5 3.5 t65.5 -0.5t53 -1q48 -1 230 0.5t233 -2.5q17 -1 45.5 -0.5t65.5 1.5t40 1q2 0 6 0.5t7 0.5t6 -1q7 0 14.5 -27.5t7.5 -38.5zM874 1208q19 39 19.5 106t-12.5 109q-55 3 -163 0t-157 0q-62 3 -199 4t-208 5q-18 2 -54 -2q-15 -52 -18 -115q-3 -60 14 -101q63 -2 215 -2 q58 0 66 -8q7 -7 8.5 -36t-0.5 -42q-3 -36 -5 -116.5t-5 -118.5q3 -54 4 -165.5t4 -164.5q0 -29 -2 -84t-2 -82q1 -25 -2.5 -80.5t-3.5 -81.5q0 -21 1.5 -61t1.5 -70t-3 -53q3 -3 2.5 -8t-2 -14t-0.5 -13q18 -8 56 -10.5t46 -3.5q35 -5 109 8q1 19 5 57.5t5 59.5 q3 48 2 145.5t2 145.5v131q0 14 1.5 52.5t0.5 57.5q0 10 -6 52q-3 52 0 98q0 13 2 39t2 39t-2 39.5t-2 42.5q0 183 6 245q39 -3 134.5 -1.5t139.5 -2.5z" />
<glyph unicode="U" horiz-adv-x="948" d="M631 8l-37 -6q-91 -22 -191 -10q-34 2 -73 14q-12 4 -49 23q-7 5 -25 13t-25 13t-20.5 20t-26.5 23q-8 11 -26.5 34t-30 41.5t-18.5 39.5q-2 8 -6.5 22.5t-7 26.5t-3.5 23q-8 63 -8 151q0 1 6 70q0 11 -3 33.5t-3 40t6 28.5q-4 1 -5 5.5t0 16t1 13.5q0 33 -1.5 90.5 t-1.5 108.5t3 106q3 47 3 101t-1.5 120t-1.5 101q4 114 0 149q1 2 4.5 6t3.5 9l94 16q28 3 80.5 -4t67.5 -8q10 -10 7 -43.5t1 -44.5q-4 -3 -2.5 -11.5t-1.5 -11.5q4 -20 4 -62.5v-52.5q0 -14 0.5 -39t0.5 -46t-1 -40q0 -34 1 -114.5t1 -126.5l-6 -252q-1 -38 4 -182 q0 -9 -0.5 -27.5t-0.5 -28t2 -23.5t7 -26q20 -51 78 -63q47 -7 55 -6q1 0 19 6q3 1 9 1t9 1q22 5 44 19t28 30q3 4 4 9t1 12t1 10q9 31 0 49q5 37 0 166q-3 80 6 407v139q0 27 -1 79.5t-1 82.5q0 5 2 15.5t2 15.5t-1 14.5t-1 14.5l4 123q20 9 54 12q46 5 53 4q57 17 141 -12 q1 -2 1 -6t1 -6t4 -3q3 -58 -3 -159.5t-3 -155.5q2 -39 2 -115q0 -41 -1 -115t-1 -112q0 -19 1.5 -62t1 -77t-4.5 -66q5 -16 1 -81t-3 -85q5 -68 4 -84q-1 -2 -2 -7t-3 -11t-5 -12q-3 -10 -8 -39.5t-9 -44.5q-1 -2 -3.5 -6t-2.5 -7q-1 -1 -1 -5t-1 -7l-12 -16 q-24 -40 -45 -56q-32 -32 -39 -37q-3 -3 -12 -6t-13 -6q-3 -3 -10 -7.5t-10 -6.5l-25 -10zM399 12l23 -6q26 -2 32 -2.5t31 2t33 2.5h19.5t23.5 4q61 12 92 29q11 5 26 14.5t17 10.5q3 2 13 7t14 9q4 3 7.5 7t8 8.5l6.5 6.5q5 0 7 2q30 27 57 70q30 116 35 166q1 10 0 19 t-3 18t-3 14v41q0 8 3 25t3 26q0 5 -2 16t-2 19q-1 16 4 98q1 20 -1 57t-1 56v266q0 27 -1 84t-1 86q0 28 3.5 80t4.5 68q0 12 -1.5 34.5t-1.5 40t3 31.5q-83 27 -221 -4q-4 -13 -1.5 -43t1.5 -39q0 -13 -2 -38.5t-2 -36.5q-1 -38 0.5 -102t1.5 -85v-78v-84 q-5 -69 -5.5 -141.5t0.5 -181t1 -148.5q0 -6 0.5 -18.5t0.5 -22.5t-1 -18q-3 -17 -7 -59q0 -1 -1 -14t-5 -19q-6 -24 -47 -47q-74 -36 -160 -6q-29 19 -45 36.5t-26 44.5q-6 21 -2 66v74q0 7 -4 50.5t2 47.5q-3 4 -3.5 9.5t0.5 13.5t1 10q1 19 -0.5 78t2.5 79v19 q5 133 0 176q-2 31 -2 86v283v37q2 8 2 26q-1 8 0.5 23.5t1.5 25.5q-15 0 -17 2h-26q-3 0 -7.5 1t-7.5 1q-35 4 -122 -1q-52 -4 -39 -11q0 -7 -2 -22.5t-3 -23.5t2 -17v-289q0 -53 -4 -131q0 -195 2 -291q0 -13 -2 -40t-2 -40t2 -38.5t2 -39.5q0 -7 -1 -22.5t-1 -22.5 q0 -8 1 -24.5t1 -24.5q3 -70 13 -135q12 -45 18 -55q3 -4 5 -13t5 -12q6 -10 14 -19t17 -18l14 -14q23 -30 48 -49l45 -25q3 -1 20.5 -10.5t26.5 -13.5q20 -7 69 -11z" />
<glyph unicode="V" horiz-adv-x="1044" d="M958 1280q-9 -26 -19.5 -75.5t-16.5 -69.5q-19 -68 -29 -152q-13 -83 -64 -297q-6 -33 -24 -106t-25 -113l-10 -57l-6 -33q-6 -33 -29 -129q-25 -124 -28 -146l-17 -55q-14 -53 -14 -55q-24 0 -98.5 -5.5t-127.5 -2.5t-88 20q-13 37 -26.5 106.5t-20.5 94.5 q-11 40 -25 116.5t-16 86.5q-8 39 -23.5 105.5t-21.5 96.5l-16 99q-3 15 -11.5 46t-11.5 48q-1 5 -3.5 27.5t-10.5 31.5q0 30 -16 84q2 19 -13 84q-8 25 -16.5 69t-11.5 56l-19 66q-4 34 -10 53q-27 125 -29 147q30 24 72 27q82 10 186 -18q61 -265 78 -355q4 -33 11 -55 q4 -17 9 -46t7 -40q8 -36 21 -103t18 -92q3 -11 14.5 -52t16.5 -64q5 -20 13 -58t13 -57q22 71 55 235q8 45 28 122.5t26 107.5q8 45 27.5 125.5t23.5 97.5q33 163 53 234q85 25 162 14q22 -3 43 -12q38 -5 43 -7q1 -31 -10.5 -79.5t-12.5 -65.5zM944 1317q1 3 4 11.5 t4 14.5l11 66q-121 29 -213 4q-10 -38 -26.5 -108t-23.5 -99q-9 -38 -24 -109.5t-21 -99.5q-51 -200 -71 -307q-3 -9 -4.5 -27t-4.5 -26l-16 -49q-3 -10 -6 -29.5t-6 -30.5q-2 -5 -5 -18.5t-6.5 -23.5t-7.5 -11q-10 -3 -14.5 5.5t-6 21.5t-3.5 16q-7 15 -11.5 32t-8.5 39 t-7 36q-23 60 -31 108q-6 39 -22 117q-4 40 -10 57q-13 40 -15 56q-40 241 -94 450q-153 33 -227 -2l65 -278l17 -80l18 -88q12 -63 19 -86q0 -10 3.5 -28t4.5 -24l20 -96q5 -23 13.5 -68t13.5 -69q1 -4 5 -14.5t5 -18.5l6 -39q10 -32 18 -68t15.5 -79t13.5 -68 q11 -48 30.5 -146t31.5 -147q43 -10 63 -12q45 -3 113.5 2t103.5 4q17 48 31 115l27 119q16 63 59 284l12 52l66 296q9 37 20 106.5t17 96.5q7 36 22.5 101t22.5 96v2q3 3 5 18.5t5 22.5z" />
<glyph unicode="W" horiz-adv-x="1472" d="M1298 1436h17q35 0 94 -9q3 -22 -2 -30q-3 -43 -9 -89t-16 -109t-14 -91q4 -4 4 -6q-2 0 -2 2q-6 2 2 -6q-3 0 -2.5 -2t-3.5 -4q0 -1 -1 -19t-5 -29v-24t-4 -31q0 -8 -6 -8q0 -3 2.5 -4t1.5 -4q-4 -18 -8.5 -55t-6.5 -50q-4 -27 -17 -99.5t-17 -115.5q-3 -28 -8 -58.5 t-12.5 -66t-10.5 -55.5q-14 -78 -19 -98q-21 -80 -36 -193l-7 -49q-8 -27 -8 -65q-4 -11 -8 -37t-12 -39q-2 0 -6.5 -1t-7 -0.5t-5.5 3.5q-37 -5 -45 -4l-4 2q-3 0 -8 -2t-8 -2h-107q-4 0 -25 -0.5t-29 0t-22.5 3t-25.5 7.5q-3 0 -7 -1t-7 -1q-1 8 -7.5 26.5t-7.5 30.5 l-4 39l-6 27q-41 269 -45 315q-15 68 -31.5 202.5t-32.5 201.5q-5 -8 -8 -28t-8 -28q-3 -12 -5 -34t-5 -31q-6 -18 -6 -19q-4 -20 -9 -77q-1 -17 -14 -84q-1 -7 -1 -18.5t-1 -16.5q-3 -14 -7 -43t-7 -43q-27 -123 -39 -207q-19 -138 -39 -213q-16 2 -22.5 2t-22.5 -2.5 t-23 -3.5q-16 -4 -43.5 -4h-33.5q-9 0 -25.5 -1.5t-30 -1.5t-24.5 3q-12 1 -24.5 3.5t-28.5 6.5t-27 6q-5 5 -6.5 13.5t2.5 13.5q-8 41 -21 122t-18 109l-15 80q-29 186 -30 188q-3 17 -7.5 48.5t-7.5 48.5q-11 49 -28 184q-1 1 2 10q-15 70 -31 197q-4 34 -19 105.5 t-20 101.5l-29 194l7 15l53 10q3 0 8 2t8 2q26 4 56.5 0.5t70 -11.5t53.5 -10q13 -118 31 -210q9 -39 19 -108.5t16 -100.5q7 -41 19.5 -123t19.5 -123q3 -14 11 -55t11.5 -62.5t7.5 -55t5 -61.5q6 10 10 37l43 244l4 43q3 26 14.5 84.5t14.5 89.5q9 82 22 162 q5 24 10.5 68.5t6.5 54.5q3 20 11.5 59t12.5 62q49 10 154 10q49 0 110 -23q4 -9 7 -47q0 -14 2.5 -29.5t7 -37.5t6.5 -31q3 -15 6 -46t6 -46q14 -56 29 -172q2 -17 7.5 -76t10.5 -88l13 -70l43 -264q8 18 13.5 40.5t7 38.5t4 44.5t3.5 40.5q4 32 9.5 66.5t14 80t13.5 72.5 q2 12 8 31q2 31 13 88l12 88q2 14 9.5 49t10.5 57q7 36 18.5 106.5t18.5 106.5l11 6q12 0 36 4.5t37 4.5q5 0 16 -1.5t20 -1.5t15 3zM1348 1044l10 91q35 241 39 278q-116 12 -219 -2q-6 -18 -8.5 -47.5t-4.5 -40.5l-24 -129l-33 -197q-34 -215 -47 -266q-3 -53 -14 -115 l-7 -53q-1 -4 -9 -33t-9 -45q-3 4 -12.5 2.5t-12.5 -0.5l-28 156q-6 28 -11.5 60.5t-11 72.5t-8.5 60q-7 41 -14.5 116t-14.5 115l-4 35q0 5 -2.5 14t-3.5 12q-2 11 -6 27.5t-6.5 29.5t-3.5 25l-17 119q-6 30 -6 33v19.5t-4 23.5q-80 27 -233 10q-3 -20 -12.5 -57.5 t-12.5 -57.5q-5 -60 -6 -63q-4 -38 -10 -55l-17 -119l-26 -178q-3 -11 -4.5 -29.5t-4.5 -30.5q-41 -248 -51 -290q-2 -6 -5 -19t-5.5 -22.5t-5.5 -12.5q-6 -2 -10 1.5t-6.5 12t-4 14t-2.5 13.5q-4 46 -4 60q-18 86 -35 200q-2 15 -9.5 49.5t-10.5 55.5q-3 18 -7 55t-7 55 q-7 36 -17.5 105.5t-17.5 105.5q-17 73 -33 207q-9 1 -39 5.5t-46.5 6t-42.5 3t-48 -1t-41 -9.5q18 -140 59 -358q12 -61 26.5 -181t25.5 -182q64 -399 71 -436q8 -42 21 -128.5t18 -117.5q69 -17 135 -14l70 6q68 0 74 6q1 1 1 12.5t1 14.5q0 3 3 9t3 7q7 19 12 74 q9 37 12 72q3 15 8 42.5t7 39.5q6 28 16 89.5t14 82.5q9 42 29 209q9 67 41 192q2 6 3 11.5t1 7.5t0.5 4t2 2.5t3.5 1.5q11 2 19 -39q11 -32 8 -47q17 -52 29 -183l16 -102q0 -1 1 -6.5t0.5 -9t-3.5 -4.5q5 -5 10 -31q9 -69 27 -184q3 -13 7 -37t7 -37l6 -62 q18 -103 23 -131q18 -6 40.5 -7t51.5 0.5t45 0.5q53 -2 148 2q10 49 26 164t31 178q27 111 63 342q49 311 54 352z" />
<glyph unicode="X" horiz-adv-x="1036" d="M698 -10q0 6 -6 6q-69 151 -90 194q-14 29 -39.5 95.5t-42.5 99.5q-24 -59 -54 -124t-66.5 -142t-55.5 -119q-97 -20 -235 -10l-21 4q-2 0 -8.5 -1.5t-10.5 0t-8 7.5q2 14 7.5 28.5t10 24t14 26.5t13.5 25q24 54 41 86q10 21 39 80t43 90l39 91l41 86q14 27 36.5 87 t39.5 89q-9 19 -26.5 55.5t-31.5 66.5t-24 58q-9 23 -29.5 69t-29.5 70q-3 8 -10.5 22.5t-10.5 22.5l-39 90l-41 93l-59 137q-2 4 -8.5 13.5t-8 14t0.5 15.5q116 11 268 0q9 -9 10 -9q2 -1 6 -1q-3 -10 6 -25l164 -387q36 71 92 212t72 179q1 3 0.5 6t0 6t3.5 4q31 19 76 19 q29 2 90 -2l86 -8q3 0 10.5 1.5t10.5 0.5q14 -8 10 -33l-8 -25l-11 -24l-18 -43q-23 -49 -68.5 -137t-60.5 -119q-6 -19 -24 -58.5t-23 -60.5q-3 -1 -5 -8t-5 -8q-1 -10 -4.5 -19t-10 -20.5t-8.5 -14.5q-12 -26 -36 -75t-36 -76q16 -46 37.5 -98t49.5 -115.5t42 -98.5 q12 -33 35 -77q27 -73 31 -80q15 -30 41 -90t29 -66q8 -23 34 -67q13 -13 7 -23q-36 -6 -87.5 -8t-92.5 -1.5t-83 -0.5zM522 426l13 -25q17 -35 42.5 -99t36.5 -89q4 -10 97 -207q30 2 107.5 3t119.5 7q-21 35 -53 109.5t-37 85.5q-28 54 -37 82q-37 83 -72 168 q-11 26 -35 78.5t-41 94.5t-28 81q12 26 82 174q14 25 26.5 54t27 66.5t22.5 55.5q12 24 41.5 80.5t44.5 87.5q50 93 61 131q12 36 12 47q-58 11 -124 13.5t-119 -7.5l-91 -223q-12 -35 -40 -98t-39 -92q-2 -2 -4 -8.5t-5.5 -9.5t-9.5 -3q-6 11 -20 43l-19 45 q-95 222 -123 281q-2 9 -26 69q-147 11 -240 0q24 -60 156 -354q10 -25 31 -77t34 -83.5t32.5 -75t37.5 -77.5q2 -5 8 -15t9.5 -17t2.5 -11q0 -3 -2 -8t-4.5 -11t-3.5 -8q-4 -9 -13.5 -28t-15 -32.5t-8.5 -27.5l-67 -147q-26 -50 -35 -74q-34 -76 -70 -146 q-9 -19 -33.5 -66.5t-40.5 -82t-28 -68.5q88 -11 178 -2q5 1 20 0.5t27.5 0.5t18.5 5q4 3 8.5 10.5t9.5 19t8 15.5l23 48l47 96q9 20 37.5 93.5t46.5 107.5q-4 10 2 17.5t14 2.5z" />
<glyph unicode="Y" d="M963 1436q6 -8 6 -19.5t-2.5 -18.5t-10 -22t-8.5 -18q-58 -140 -67 -158l-15 -24q-1 -3 -9.5 -29.5t-14.5 -40.5q-12 -22 -29 -66t-27 -65q-25 -54 -108 -260q-4 -9 -13 -29t-15.5 -35t-10.5 -33q-1 -35 2.5 -140.5t-0.5 -141.5q-4 -98 -4 -152q0 -14 3.5 -95t-1.5 -89 q-4 -3 -9 -3.5t-11 0.5t-9 1q-14 -1 -51 -6.5t-59 -5.5l-60 4q-45 5 -55 10q0 55 2 88q0 15 2 45.5t2 46.5l-6 56q-7 155 4 397l-51 119q-8 40 -31 84q-74 161 -137 340q-10 33 -37.5 90t-34.5 73q-15 47 -37 84q5 5 9 17q134 10 245 0q15 -3 27 0q26 -66 92 -262 q25 -78 31 -91q7 -18 25.5 -57.5t25.5 -60.5q14 27 36 77t32 70l8 27q29 67 106 291q84 14 265 2zM870 1219q64 137 80 196q-129 15 -241 2q-60 -182 -86 -243q-8 -23 -27 -66t-23 -53q-8 -15 -19 -45t-17 -43q-2 -4 -4.5 -10t-4 -9.5t-4.5 -8t-6 -4t-8 0.5q-4 3 -10 27 q-6 18 -37 88q-19 44 -45.5 129t-38.5 118q-5 11 -16 36.5t-19 45t-12 37.5q-119 15 -248 6q30 -78 84 -194q18 -38 37 -103q8 -25 29.5 -75t29.5 -76q20 -54 64 -148l57 -149q2 -5 7.5 -16l9.5 -19t4 -12q0 -2 -1 -5.5t-2 -9.5l-2 -12q-3 -74 0 -147q0 -45 1.5 -133.5 t1.5 -165t-3 -146.5q74 -13 224 6q0 28 -1.5 110t-0.5 124q3 109 0 250v57q-3 66 10 92q5 13 17.5 39t15.5 33q7 17 18 52t18 52q75 159 89 195q9 22 24 63.5t28 73.5t27 60z" />
<glyph unicode="Z" horiz-adv-x="954" d="M397 240q86 -8 236 -7t229 -2q19 -76 2 -180q0 -3 -1.5 -18t-3 -24.5t-5.5 -12.5t-13.5 -3.5t-24 0.5t-17.5 1q-50 5 -176 10h-105q-32 -1 -94.5 -1t-114 -1t-94.5 -4q-32 -4 -65 -4q-50 0 -58 8q-6 7 -7 23.5t0.5 39.5t0.5 33v74v27l18 37q6 17 14.5 36t19.5 41t16 33 q13 28 38 77.5t33 65.5l105 216l16 36q3 7 10.5 16.5t10.5 16.5q16 30 42.5 94t43.5 95q4 8 11.5 24.5t10.5 22.5l45 90q4 8 10.5 24.5t10.5 24.5q2 5 8.5 16t10 20t3.5 19q-53 4 -239 4q-18 0 -52 1.5t-62 1.5t-52 -3q-4 0 -14 -0.5t-16.5 -0.5t-15 1t-14.5 4 q-1 16 -8 61.5t-6 69.5q1 12 5.5 43.5t4.5 49.5l15 14q0 2 4 2l2 -2q67 0 194.5 -4.5t184.5 -5.5q61 -3 186 -1t186 -1q8 -14 4 -41q-6 -114 -2 -142q-6 -10 -65 -131q-10 -25 -35 -66t-33 -61q-3 -3 -4 -6.5t-1 -7.5t-1 -6l-43 -92l-41 -94q-13 -34 -43.5 -94.5 t-42.5 -88.5q-13 -35 -20 -47q-4 -6 -21 -45q-13 -23 -33.5 -68.5t-31.5 -66.5l-13 -23q-3 -3 -4 -10.5t-4 -11.5q-3 -7 -10.5 -22.5t-11.5 -24.5t-8 -23t-5 -26zM842 10q20 127 6 201q-109 7 -254 4q-137 0 -211 2q-3 8 -4 17.5t-1 16t3.5 17t5.5 15t7 16.5t7 16l88 189 l121 250l27 65q4 8 14 28.5t15 33.5q11 21 28 63.5t29 63.5l31 61q15 26 30 57.5t33 70t29 60.5q0 23 2 81t2 81q-30 5 -176 3t-182 -1l-185 4q-9 0 -99 4t-97 -2q1 -13 -3 -38.5t-4 -40.5q0 -46 15 -123q32 4 67.5 4t79 -2t68.5 -2q38 0 121 -1t118 -1q19 -22 -2 -60 q-8 -10 -16.5 -31.5t-11.5 -27.5q-70 -136 -111 -236l-20 -37q-9 -24 -30 -62t-28 -52l-53 -119q-2 -4 -10.5 -16.5t-11.5 -20.5q-4 -8 -10.5 -24.5t-10.5 -24.5l-68 -135q-18 -34 -45 -97.5t-41 -91.5q0 -7 0.5 -59.5t4.5 -75.5v-22q0 -2 2.5 -8t1.5 -9q38 -2 104 2 q71 4 318 4q134 0 307 -10z" />
<glyph unicode="[" horiz-adv-x="550" d="M496 1683l10 -10q0 -14 2.5 -57.5t0 -71.5t-12.5 -55q-22 -4 -70 -4t-68 -4q0 -45 -14 -213q-4 -25 -1.5 -94t1.5 -91q-4 -72 -4 -202.5v-161.5q-1 -34 0.5 -96t1.5 -82q-1 -25 1.5 -97.5t-1.5 -97.5q-3 -58 0.5 -191t-0.5 -198q90 -4 141 -12q6 -53 2 -158 q-3 -27 -12 -45q-21 0 -63 -2t-66 -2q-138 4 -176 8q-4 0 -10 -0.5t-10 -1t-9 0.5t-10 3q-3 52 -3.5 100t0.5 113t1 94q0 8 -1 25t-1 29q-1 35 2 108.5t2 114.5q-6 116 0 235q1 17 1 37t-0.5 45t-0.5 39q6 70 2 223q0 19 1 58t1 59v260q0 35 -4 105q0 194 8 290 q8 8 22.5 12.5t23.5 5.5t31 2t26 1q12 0 31 -1t30 -1q29 0 92.5 -2.5t95.5 -1.5q3 -1 4 -3t1.5 -6t1.5 -6zM483 1503q8 48 7.5 86.5t-11.5 91.5q-103 7 -282 7q-19 0 -43 -7q0 -34 -5 -107.5t-4 -111.5q0 -15 1 -46t1 -48q0 -16 2.5 -44t2.5 -44q0 -14 -1 -41t-1 -41 q0 -39 -0.5 -108.5t-0.5 -122.5t1 -97q7 -115 -5 -301q-4 -95 -2 -143q4 -94 4 -133q-11 -314 -4 -535q31 2 93 -2h65q19 0 54 -1.5t62 -1.5t50 3q-1 20 1.5 83.5t-1.5 92.5q-16 1 -62 5.5t-71 3.5q0 3 -4.5 6t-5.5 6q3 28 3.5 56t-0.5 66t-1 54q0 201 -2 285q0 51 -1 163 t-1 171v141q0 7 1 20.5t1 20.5q-1 45 1 133.5t1 136.5q0 16 1 44t1 44q6 23 6 66q12 83 6 127q3 3 8 11t8 11q2 -1 6 -3.5t7 -2.5q3 -1 11 1.5t11 2.5q8 0 29.5 -1t36 -0.5t26.5 3.5z" />
<glyph unicode="\" horiz-adv-x="880" d="M805 14q2 -2 7 -4.5t5.5 -4t-0.5 -7.5q-2 -4 -8.5 -6.5t-17 -3t-18.5 -1t-20.5 0t-15.5 0.5q-17 1 -48 5t-46.5 5t-40.5 -2q-6 5 -10 17t-6 14q-7 16 -18.5 50t-18.5 50q-22 64 -49 135l-27 66q-33 83 -76 207q-56 166 -102 270q-38 86 -53 127l-49 133l-15 35 q-37 102 -39 108q-6 17 -27 64.5t-30 75.5l-10 41q-12 28 -6 43q39 14 137 10q11 -1 33 -5.5t34 -4.5l35 -89q5 -16 18.5 -41t18.5 -40q25 -77 29 -93l32 -86q74 -213 125 -350l9 -16q3 -10 6.5 -20t8 -22l7.5 -20l4 -20l10 -21l31 -71q16 -38 70 -199q32 -74 33 -100 q3 -1 4.5 -0.5t2 0t1.5 -3.5q26 -73 90 -226zM608 18q22 1 85 -6.5t98 -1.5q-5 12 -21 44t-22 50q-1 4 -21 50q-9 18 -22 57l-9 18q-4 10 -13 37t-15 41q-12 28 -28 80t-28 80l-28 76q-68 162 -90 233q-14 32 -27 69t-28.5 81.5t-24.5 70.5q-67 181 -74 203l-2 12 q0 3 -2.5 7t-3.5 6q-21 57 -33 80q-7 15 -20 55q0 1 -9.5 22.5t-9.5 32.5q-10 -1 -20 0t-20.5 3t-16.5 3q-70 4 -119 -4q5 -22 13.5 -48t13.5 -40t19 -47.5t17 -40.5l66 -172q11 -28 31 -86.5t32 -87.5q10 -24 34.5 -82t37.5 -90q27 -68 71 -194t56 -158q13 -34 38 -94.5 t32 -77.5q10 -26 29.5 -87.5t33.5 -93.5z" />
<glyph unicode="]" horiz-adv-x="540" d="M418 1690q-3 -44 -3 -95.5t1.5 -118.5t1.5 -106q0 -87 -4 -205q0 -35 -3 -211t-3 -268q0 -30 4 -108v-119q0 -39 -2 -113t-2 -110q1 -32 1 -67t-0.5 -75.5t-0.5 -60.5q0 -30 2.5 -108t1.5 -118q0 -5 -1.5 -15t-1.5 -18.5t3 -15.5q-11 -11 -11 -14q-231 -15 -338 -4 q-24 28 -20 106q0 5 -1 16.5t-1 16.5l6 35q1 4 1 17.5t3 19.5q26 5 66.5 4.5t72.5 1.5q10 90 8.5 119.5t-5 52.5t7.5 178q0 33 -4 103v102q-4 28 -4 43v150q0 21 -0.5 59t-0.5 70t1 61q2 43 2 133q0 162 6 236q4 84 -2 125q3 18 1.5 55t2.5 51q-18 3 -35.5 3.5t-44.5 -0.5 t-41 -1q0 4 -5 5l-5 1q-28 47 -2 158q5 22 10 25q-4 11 0 16q41 10 166 3t166 -5q0 -7 6 -10zM399 1325q0 14 1.5 53.5t0.5 59.5q-11 139 -4 243q-53 -3 -151 3t-152 2q0 -8 -4.5 -21.5t-5.5 -19.5q-1 -3 -6 -64q0 -6 -0.5 -16t-0.5 -16t1 -14.5t4 -16.5q12 0 36 -1t36 -1 q57 0 63 -7q2 -2 2.5 -7.5t-4.5 -6.5q3 -7 3.5 -15t-0.5 -20.5t-1 -19.5q0 -9 2.5 -60t2 -60.5t-2.5 -59.5q-3 -28 -4 -58.5t-1 -69.5t-1 -61q0 -51 -1.5 -238.5t-0.5 -295.5q0 -31 3 -94.5t3 -96.5v-196q0 -43 -4 -114t-4 -95q-24 -3 -71.5 -2t-71.5 -2q0 -5 -2.5 -26 t-3 -27.5t-1.5 -24t-1 -26.5t0.5 -23.5t2.5 -27.5t5 -26q129 -7 327 4q-3 70 -3.5 142.5t0.5 179.5t1 158q0 87 4 239q0 40 -4 120t-4 120q1 97 6 299.5t6 306.5z" />
<glyph unicode="^" horiz-adv-x="1038" d="M287 774q-116 -9 -221 0q-3 3 -3.5 6t-0.5 7t-1 6q76 133 107 200q3 1 5 3.5t3 2.5q23 51 86 164q7 12 22 39.5t23 42t21.5 35t25.5 37.5q1 9 17 35q21 42 61 88q4 -4 9.5 -4h7.5q3 0 4 2.5t4 1.5q33 4 143 4q2 -3 12.5 -16t14.5 -21q28 -43 106 -199l8 -10 q17 -22 45 -73t45 -74q-1 -3 0 -4.5t0 -4.5q16 -23 41 -67t31 -53q7 -12 22.5 -38t26.5 -46.5t19 -38.5q0 -5 3 -12.5t3 -12.5q-24 -4 -46.5 -6t-49 -1t-43 2t-50 3.5t-49.5 3.5q0 3 -1 6t-1 6q-5 9 -24.5 47t-28.5 53.5t-25 42.5t-30 48q-13 21 -37.5 56.5t-43 65.5 t-32.5 60q-6 -3 -9 -11.5t-5 -10.5q-9 -9 -13 -21q-2 -4 -6.5 -13.5t-9 -16.5t-10.5 -11q-3 -20 -23 -47q-8 -23 -32 -63l-37 -58q-9 -13 -26 -34t-29.5 -40t-18.5 -40q-4 -1 -5 -4l-1 -3q0 -1 -0.5 -2.5t-1.5 -5t-2 -6.5zM129 883q-30 -52 -51 -95q9 -1 23.5 0t21.5 0 q93 0 151 3l23 43q17 29 37 51q4 6 20 32t29 39q4 8 12.5 22t10.5 17q6 12 22 45l24 49.5t22 41.5t28 45q13 -3 22 6q23 -52 84.5 -143t83.5 -136q3 -6 9.5 -14.5t10.5 -15.5t7 -13v-6l10 -12l23 -51q20 0 105.5 -3.5t98.5 0.5q-23 45 -74.5 135.5t-76.5 139.5 q-14 11 -17 27q-14 22 -38.5 65.5t-36.5 63.5q0 3 -2 5l2 1q-6 3 -6 4q-65 126 -107 194q-75 8 -164 -4q-13 -18 -34 -49.5t-29 -42.5q-6 -19 -25 -45q-8 -13 -20 -35.5t-22 -39t-21 -31.5q-6 -17 -23.5 -45t-23.5 -41q-2 -2 -5 -10t-8 -9q-1 -13 -9.5 -29.5t-10.5 -21.5 q-9 -12 -22.5 -39t-22.5 -39q-4 -11 -16 -29t-15 -30z" />
<glyph unicode="_" horiz-adv-x="854" d="M627 -168q-1 0 -4.5 1.5t-5.5 2.5t-5 0.5t-6 -2.5q-16 4 -59 4h-53q-4 0 -12.5 -2t-12.5 -2h-63q-36 1 -76.5 1t-88.5 -0.5t-71 -0.5q-35 -2 -50 -2t-51 2.5t-55 3.5q-10 19 -12 42t2 63.5t4 48.5q8 4 55 8h201q46 1 134 -0.5t116 -1.5q53 0 84 -2q22 -1 158 4q6 0 23 1 t27 0.5t17 -5.5q6 5 16.5 4.5t14.5 -6.5q0 -7 -8 -10q0 -14 -1.5 -66.5t-0.5 -85.5q-64 -4 -90 2q-12 -4 -37 -3.5t-37 -2.5q-6 5 -28 4.5t-25 -0.5zM586 -150q13 0 27 -1t20 -1q7 -1 21.5 -1t21.5 -1q7 0 19.5 -1t19.5 -1l114 4q-3 68 5 138q-17 0 -53 -1t-56 -1 q-62 -4 -86 -4q-12 0 -40 2t-36 2h-98q-7 0 -18.5 -1t-18.5 -1q-16 0 -43 1t-43 1q-5 0 -20.5 1.5t-20.5 0.5q-7 -3 -15.5 -3t-19 1.5t-16.5 1.5q-5 0 -23 -1.5t-28 -0.5h-78q-16 -3 -49 -2t-49 -2q-8 -58 -5 -130q38 -1 110.5 1t100.5 2q27 0 54 -3q29 0 91.5 1.5 t115.5 1.5t96 -3z" />
<glyph unicode="`" horiz-adv-x="344" d="M123 1260q-16 22 -43.5 66t-42.5 65q-24 34 -37 67q2 1 5.5 3.5t5 2.5t5.5 -2q19 4 43.5 5.5t41 1.5t45 -0.5t38.5 -0.5q18 0 35 7h2q39 -72 49 -99q19 -28 39.5 -86t30.5 -78q-1 -2 0.5 -6t2 -6t-2.5 -4q3 -1 -2 -2q-7 -1 -8 -2q-3 -1 -7 -1t-7 1t-3 2 q-16 -3 -38.5 -3.5t-54 0.5t-40.5 1q-7 0 -12 2q0 4 -2.5 8t-7 8t-6.5 7q-7 12 -29 43zM215 1452q-33 -3 -96 -2t-94 -2q53 -90 157 -242q40 3 90 0q7 4 25 2.5t25 1.5q-6 15 -17.5 46t-19 49t-18.5 42.5t-23 43.5q-3 13 -14.5 33.5t-14.5 27.5z" />
<glyph unicode="a" horiz-adv-x="921" d="M815 33q5 -33 0 -45q-27 -3 -86.5 3t-77.5 5q-16 27 -30 70l-13.5 -13.5t-18.5 -17.5t-18 -12l-20 -9q-3 -1 -9.5 -5t-9.5 -5l-16 -4q-8 -3 -26.5 -8.5t-24.5 -7.5q-21 -7 -39 -7q-7 0 -48.5 -3.5t-49.5 1.5q-32 6 -101 39q-25 13 -84 60q-3 5 -12 20.5t-13.5 23.5 t-11 22t-10.5 27t-6 28v22l-6 14v43q0 36 2 48q14 73 76 153q7 0 13.5 3.5t14.5 10.5t11 9q60 44 121 71q23 10 71 25.5t68 23.5q9 3 31.5 11t42 14t36.5 10q9 44 -1.5 93.5t-45.5 56.5q-53 39 -110 24q-20 -4 -33 -14q-21 -11 -39 -39q-35 -53 -27 -90q0 -3 4 -10t3 -12 q-23 -9 -93 0q-2 0 -127 6l-14 12q0 179 66 252q4 4 17 14.5t17 14.5q5 8 27 26q3 2 8 6.5t9 7.5t8 5l16 4q11 11 14 12l25 8q73 21 125 21q5 0 8 2q19 1 37 0t38 -5t31 -6.5t35 -9t31 -8.5q18 -4 74 -31q10 -9 31.5 -25.5t31.5 -25.5q25 -25 29 -31q2 -3 7 -17t11 -20 q23 -74 27 -229q4 -78 0 -233q-2 -36 -2 -217q0 -11 2 -34t2 -36q0 -12 1 -36.5t1 -37.5v-18zM557 260q10 24 12.5 54t0.5 75.5t-1 65.5h-2q-17 -6 -55 -17.5t-59.5 -18.5t-50 -21.5t-48.5 -30.5q-3 -9 -11.5 -25.5t-12 -29.5t-0.5 -29q8 -40 32 -54q48 -30 105 -18.5 t90 49.5zM801 6q0 3 -2 9t-2 10l4 8q-4 29 -4.5 85t-3.5 83q3 4 3 9t-1.5 11.5t-1.5 9.5v172q0 25 4 35q-5 2 0 21q-6 265 -9 299l-12 80q-26 60 -31 67q-8 8 -10 17q-3 2 -16 12.5t-16.5 13.5t-16 12t-18 12.5t-17 10.5t-20 10t-20 7t-23 6.5t-23.5 3.5q-6 5 -23 8.5 t-22 7.5q-10 0 -32.5 3.5t-36.5 2.5q-16 0 -48 -4q-61 -6 -98 -18q-1 0 -67 -29q-13 -12 -38.5 -36.5t-39.5 -35.5q-1 -4 -4.5 -8t-3.5 -8q-2 0 -4.5 -2t-4.5 -2q-3 -14 -12 -23q-5 -12 -8.5 -23t-6.5 -25t-5 -22.5t-4 -26t-2.5 -24.5t-2 -29t-2.5 -28q23 0 93 -6t108 -4 q-6 39 6 67q12 39 31 60q16 17 29 24q9 7 26 11q20 10 21 10q9 2 55 2q72 -24 106 -68q31 -68 17 -122q25 -18 -21 -31q-57 -15 -79 -23q-49 -22 -76 -24q-3 -4 -7.5 -6t-11.5 -4t-10 -3t-14 -4.5t-17 -3.5q-85 -44 -102 -53q-15 -8 -28.5 -18t-33.5 -26.5t-26 -21.5 q-1 -3 -10 -12t-11 -16q-2 -2 -2 -10q-16 -14 -32 -64l-9 -33q-5 -41 4 -92q4 -48 11 -63l8 -15q26 -57 63 -80q1 -1 6 -2t7 -2l16 -12l16 -8q78 -38 107 -41q15 -2 53 2q57 6 58 6q44 10 112 39q2 5 19.5 16.5t23.5 18.5q1 2 3 7.5t4 9t5 3.5q5 0 8.5 -6t5.5 -17.5t3 -13.5 q5 -5 10 -20.5t10 -20.5q70 -12 146 -12zM590 459q-3 -36 -0.5 -69t1 -70t-10.5 -58q-11 -21 -54 -51q-10 -6 -29.5 -14.5t-27.5 -12.5q-57 -5 -115 27q-31 35 -39 57q1 7 -1 20t-1 19q2 14 10.5 35.5t10.5 30.5q21 21 54 38.5t55.5 25.5t72.5 22.5t66 19.5q4 -3 4.5 -10.5 t3.5 -9.5z" />
<glyph unicode="b" horiz-adv-x="927" d="M846 319q0 -69 -6 -94q-3 -10 -12 -29.5t-11 -25.5q-14 -28 -20 -37q-2 -2 -9 -16q-1 -1 -5 -2t-5 -2q-3 -3 -6 -12t-6 -13q-4 -10 -27 -33q-16 -16 -43 -26q-5 -3 -14 -11.5t-14 -11.5q-13 -6 -31 -10q-8 -1 -22.5 -2.5t-25.5 -3.5t-20 -6q-78 0 -146 21.5t-106 66.5 q-1 -7 -3.5 -21.5t-4.5 -26t-4 -16.5q-7 -2 -12 -12q-113 0 -168 4l-16 14q0 3 1 8t1 7q-4 19 -5 44.5t-0.5 42.5t2 53.5t1.5 47.5q-9 26 0 41q-2 33 4 76q-4 19 0 74q0 14 -2 40.5t-2 38.5l4 62q0 20 -3.5 59t-3.5 47q0 3 1.5 10t1.5 11q0 5 -2 21.5t-1 25.5q0 89 7 219 q-10 93 -7 223q0 17 4 117t-1 123q0 3 -1.5 8t-1.5 8q4 4 0 4q2 2 8 11t9 10q4 1 24 -4q16 -1 52.5 0t54.5 0q36 -6 37 -6h31q3 0 5.5 -2t4.5 -2q3 -1 9 0.5t9 -0.5q6 -39 6 -111q3 -26 0 -49q0 -3 -2 -8.5t-2 -8.5q0 -11 2 -35.5t2 -37.5v-54q0 -108 -4 -139q83 36 135 47 q10 -2 23 2q2 0 6.5 1t5.5 1q2 0 7.5 -1t7.5 -1t6 1t6 1q16 1 33 -1.5t36 -7t27 -5.5q5 -6 23.5 -12t23.5 -13q50 -23 90 -77q22 -32 37 -60q20 -40 23 -82q2 -20 2 -65q-2 -138 2 -398zM600 539q2 15 -2 57q0 106 -12 160l-29 30q-56 25 -86 23q-25 0 -39.5 -7.5 t-30.5 -25.5q-23 -22 -30 -35q-1 -1 -2.5 -7t-3.5 -9l-5 -4q-4 -4 -4.5 -13.5t0.5 -18.5t0 -19q-2 -70 -2 -234q-5 -63 -4 -78q0 -19 4 -43q1 -6 2.5 -12.5t3.5 -11.5t5.5 -12t5.5 -10.5t7 -10.5t6.5 -9t7.5 -9.5t7 -8.5q18 -1 49.5 -11.5t49.5 -8.5q30 5 45 14q11 5 22 16 t15 23q2 6 5 23.5t5 23.5q8 38 6 54q-2 27 -2 81q0 67 6 93zM821 250v39q0 4 2 11t2 11q0 15 -2 48.5t-2 52.5q0 13 1 41t1 43q0 41 -4 127q-1 18 2 92t-2 92q-4 18 -20 51l-17 33q-1 2 -5 6t-5 6l-10 15q-6 7 -20 19.5t-19 16.5l-12 15q-5 4 -20.5 11t-22.5 15 q-11 2 -34 10.5t-38 8.5q-52 18 -141 -4q-16 -3 -40.5 -14.5t-35.5 -14.5q-5 -3 -31 -14q-2 4 -4 5.5t-5.5 3t-6.5 3.5q8 87 4 248q0 8 -2 23.5t-2 27t4 20.5q-5 13 -4.5 54.5t-1.5 60.5q-8 2 -47 2q-12 0 -49.5 3.5t-62 3t-42.5 -6.5q2 -46 -2 -139q-4 -154 0 -229v-211 q0 -21 -1.5 -86t-0.5 -101q4 -28 4 -39q1 0 1 -52l-1 -52v-113q-1 -16 0 -47t0 -49q-4 -47 -4 -127q-4 -108 2 -152q45 -2 158 -2q11 44 14 78q16 11 33 -14q38 -35 78 -49q60 -25 104 -25q39 -2 92 8q44 10 47 11q9 4 30.5 17t33.5 17q99 99 104 191zM621 582 q6 -82 -3 -193.5t-36 -159.5h-9q-20 -33 -65 -36q-2 0 -2.5 1t-0.5 3.5t-1 3.5q-4 -2 -27 -2h-14h-15t-13.5 0.5t-15 2t-12 3.5t-13.5 5.5t-11 8.5l-8 12l-6 13q-3 4 -10 12.5t-10.5 13t-7.5 12.5t-5 17q-2 11 -8 72q0 13 4 37q3 18 3.5 40.5t-0.5 52t-1 38.5l4 149 q2 83 100 137q7 1 24.5 3t24 2t23.5 -1l12 -8q29 -6 33 -8l8 -8q24 -15 40 -43t15 -62q0 -6 -4 -14q0 -4 2 -14t2 -17q3 -34 3 -73z" />
<glyph unicode="c" horiz-adv-x="907" d="M807 655q2 0 10 -4q-1 -5 -10 -18q-133 -8 -209 12q-1 5 -3 23.5t-3.5 25.5t-4.5 22.5t-6.5 23t-9 19t-13 19.5t-17.5 15q-31 21 -82 28q-1 -1 -17 -7t-19.5 -7.5t-17.5 -8t-19 -10.5t-14.5 -12t-13.5 -15.5t-8.5 -18t-5.5 -21.5q-5 -36 -2 -96q1 -42 -2 -110 t-2.5 -120.5t10.5 -91.5q7 -38 35 -57q59 -41 121 -23q29 10 61 35q14 19 19.5 71t11.5 68q65 13 201 0q2 -4 10 -8.5t10 -7.5q6 -12 6 -29q8 -72 -20 -162q-22 -59 -86 -120q-16 -16 -51 -37q-59 -36 -142 -47q-49 -5 -104 4q-2 0 -4.5 -1t-3.5 -1q-10 6 -33.5 10t-28.5 6 q-1 0 -3.5 2.5t-4.5 3.5q-1 1 -4.5 1t-5.5 1q-15 5 -60 25q-105 54 -163 176q-16 41 -19 100q1 3 -1.5 6.5t-2.5 6.5q-4 15 -2.5 87t0.5 93q-4 90 8 239q9 80 70 170l29 29t42 37q19 16 43 25l48 20q51 17 120 23q2 2 5 2q109 3 221 -60q18 3 47 -30q16 -20 26 -39 q36 -61 45 -84q19 -54 23 -127q0 -4 1.5 -13t1.5 -14v-11.5t-2 -10.5t-5 -7zM795 657q0 188 -113 310q-2 -1 -6 -0.5t-6 0.5q-42 29 -74 37l-45 14q-50 15 -96 12q-66 -3 -131 -26q-69 -29 -86 -41q-14 -10 -31 -31q-6 -9 -23 -21q-14 -18 -20 -22q-40 -62 -51 -137 q-5 -35 -9 -146q-1 -24 1 -73t1 -74q-4 -57 -2 -84q0 -7 1.5 -22t2 -23t-1.5 -17q3 -32 9 -71q48 -102 90 -140q38 -30 96 -55q18 -11 31 -16q56 -21 153 -29q22 -2 90 14q67 18 89 43q3 1 5 -1t5 -1q12 8 23.5 19t26.5 27t21 22q7 14 20.5 37.5t18.5 32.5q28 106 21 180 q-107 18 -193 6q-6 -19 -10 -59.5t-10 -59.5q-11 -22 -35 -39q-6 -1 -13 -4t-15 -7.5t-13 -6.5q-28 -8 -49 -8q-39 1 -72.5 21t-52.5 50q-13 48 -18 82q0 2 -4.5 4.5t-4.5 5.5q3 39 2.5 113t1.5 119q0 27 -2 31l5 102q10 51 67 88l25 14q79 30 145 -26q47 -44 51 -139 q54 -11 191 -11q1 3 -1 3.5t-4 0.5t-1 2z" />
<glyph unicode="d" horiz-adv-x="933" d="M821 1432q7 -5 3 -35.5t-3 -40.5q0 -10 2.5 -35t1.5 -39q0 -1 0.5 -39t-0.5 -39q-6 -82 -6 -157q0 -17 1.5 -69.5t0.5 -80.5q-2 -94 6 -279q2 -46 -2 -126q-2 -16 -2 -36t1 -44.5t1 -38.5v-117q1 -34 -0.5 -117t0.5 -112q5 -27 4 -39q-90 -6 -180 16q-12 38 -18 72 q-3 -2 -7.5 -7.5t-7.5 -7.5q-4 -6 -30 -26q-2 -2 -7 -8.5t-8 -8.5q-43 -29 -110 -36q-103 -7 -193 28q-24 10 -59 33q-53 37 -55 39q-12 16 -15 27q-4 4 -8 8.5t-7.5 10t-6.5 9.5q-19 60 -27 197q-8 120 -2 176q-8 99 -2 158q4 37 20 116q11 56 37 82q61 136 228 183 q105 6 207 -62q2 53 2 193q0 14 1.5 60t0.5 71q0 84 6 121q9 3 24.5 4t22.5 4q77 3 186 -8zM424 811q-21 -4 -39.5 -20t-26.5 -35q0 -1 -4 -13t-8 -18q-20 -49 -18 -94l4 -182q5 -105 10 -136q11 -66 35 -90q17 -15 78 -20q1 5 13 2.5t13 -2.5q31 3 49 26q3 3 21 33l4 4 q5 5 10.5 15.5t7.5 13.5q15 48 11 121q0 118 -2 143q0 7 -1.5 32t-2.5 36.5t-3.5 34t-5.5 37t-9 32t-13 31.5q-4 2 -8 10q-4 2 -27.5 16.5t-36.5 16.5q-6 3 -12 0q-20 12 -39 6zM606 1411q-4 -18 -2.5 -98.5t0.5 -104.5q-2 -48 -2.5 -134.5t-1.5 -110.5q-14 -11 -29 8 q-94 56 -176 61q-33 2 -80 -18l-36 -21q-86 -51 -129 -151q0 -2 -3.5 -2.5t-3.5 -1.5q-42 -109 -39 -242q2 -49 2 -147q0 -205 29 -295q4 -15 20 -36.5t21 -31.5q74 -46 94 -55q51 -17 102 -24t105 1t90 35q10 15 39 35q3 4 10 16.5t13 18.5q6 -1 7.5 -10.5t2.5 -10.5 q1 -2 3.5 -4t2.5 -4v-14q1 -3 7 -19.5t7 -25.5q51 -22 146 -17q-1 43 0 113t0 115q0 4 -1 13t-0.5 14t3.5 9q-4 12 -4 41q0 8 2.5 53t-0.5 56q0 7 -1 20t-1 19q-1 8 6 61q0 22 -4 76q0 13 -2 105t-4 151q-1 14 1 41.5t1 42.5q-1 14 -1 42t-1 42q0 11 -1.5 44.5t-0.5 51.5 q0 14 1 29t2.5 34t2.5 29q1 16 1 33t-0.5 36t-0.5 28q-4 70 2 104q-6 -6 -17 -6q-1 1 0 4q2 4 -2 4q-9 1 -36 3t-39.5 2.5t-33.5 0.5t-38 -2t-33 -6zM430 829q88 -9 137 -61q9 -20 16 -44t10.5 -55t5.5 -51t4 -58.5t3 -51.5q1 -12 0 -37t0 -37q0 -7 0.5 -33.5t0 -38.5 t-2.5 -30.5t-6 -30.5q-2 -6 -12 -22q-7 -13 -22 -35t-19 -29q-3 -2 -14.5 -9.5t-20 -11.5t-16.5 -4q-95 -4 -134 25q-7 8 -13 17t-10 21t-7.5 21.5t-5.5 24.5t-3.5 24t-3 26.5t-2 25t-1.5 27.5t-1 26l-4 113v57q0 6 -1.5 33.5t-0.5 36.5l6 18q7 27 23 59q15 44 51 72 q2 0 43 12z" />
<glyph unicode="e" horiz-adv-x="907" d="M96 274q-6 20 -7.5 43.5t-0.5 54.5t0 46q0 12 -2 35t-2 34q1 12 0 39t0 41q0 9 2 29.5t2 30.5q0 6 -1 22.5t-0.5 27.5t5.5 21q-6 13 0 23q0 48 25 121q4 11 28 55l9 12q9 9 10 11q3 3 7 11t7 11q6 12 19 21l8 4q10 10 20 12q10 14 27 16q7 7 14.5 12t20 8.5t18.5 5t23 4 t20 3.5l14 6q6 1 23 1.5t27 2.5q2 1 3 -1t3 -1q76 -4 114 -8q24 -6 27 -6q44 -6 68 -18l28 -15l47 -31q2 0 4.5 2t4.5 1q53 -41 86 -144q15 -39 16 -49q2 -11 2.5 -33.5t1.5 -29.5q0 -1 6 -37q1 -14 1 -30t-0.5 -35.5t-0.5 -29.5q0 -76 -10 -94q-250 -13 -477 0 q-6 -61 0 -143q4 -81 26 -98l13 -9q44 -20 100 -10q53 6 70 35q19 32 22 43q2 9 7 37t10 43q8 8 14 10q101 -4 150 -2q30 3 61 0q1 -2 2 -9.5t6 -8.5q4 -70 -2 -113q-1 -10 -4 -21t-7.5 -24t-6.5 -21q0 -1 -2 -8.5t-4 -11.5q-6 -15 -33 -47q-26 -35 -37 -41q-4 -3 -10.5 -7 t-11.5 -7t-10.5 -7.5t-8.5 -9.5h-8q-100 -70 -238 -61l-55 8q-7 2 -24.5 5t-24.5 5q-3 1 -8 3t-9 3t-8 0l-13 6.5t-16 7t-14 3.5q-2 2 -4 5.5t-4 4.5q-11 3 -27.5 14.5t-23.5 14.5q0 2 -2 5t-2 5q-13 9 -33.5 33.5t-32.5 33.5q-41 80 -37 129zM403 811q-35 -14 -58 -47.5 t-19 -69.5q24 -4 120.5 -1.5t124.5 1.5q8 36 -20 82q-12 20 -22 28t-31 9q-27 3 -95 -2zM109 616q-3 -52 0 -100q1 -26 0.5 -97t1.5 -97q0 -48 4 -68q10 -47 39 -100q41 -41 67 -76q10 -7 33 -19.5t33 -19.5q7 2 10 1.5t10 -3.5t10 -4q3 -2 13 -4t14 -4q115 -25 182 -13 q3 0 11 3t12 3q0 -2 2 -2q2 2 4 2q11 3 32.5 11t33.5 10q1 5 10.5 8.5t11.5 7.5q89 44 135 125q0 8 4.5 18.5t3.5 16.5q15 19 19 92q0 42 -4 58h-205q-16 -107 -55 -146q-26 -17 -70.5 -23t-75.5 3q-10 3 -26.5 13t-24.5 13q-1 3 -8 10.5t-10 12.5q-18 45 -13 180q0 5 -1 16 t-1 19t2 12q1 4 7.5 11.5t7.5 11.5q5 2 8 1.5t7 -2t5 -1.5q242 -4 307 -2q117 5 144 4q8 80 3.5 174.5t-30.5 158.5l-12 29q-10 24 -33 53q-17 24 -47 39l-25 17q-47 27 -104 35l-51 8q-2 0 -39.5 2.5t-41 2t-38.5 -2.5q-76 -11 -119 -35q-40 -20 -53 -31q-16 -12 -21 -24 q-4 0 -12 -15q-30 -46 -35 -57q-32 -70 -32 -236zM575 676q-204 -6 -256 -4q-4 5 -5 14t-5 14q3 59 43 99q28 32 70 37q52 3 113 -11q29 -22 47 -59q5 -7 10 -23q1 -7 -0.5 -23.5t-1.5 -19.5q2 -12 -4 -20q-9 0 -11 -4z" />
<glyph unicode="f" horiz-adv-x="706" d="M666 1341v-75v-20t-4 -25q-2 -4 -7 -8t-6 -7q-28 -1 -58.5 -1t-57 -1t-52 -7.5t-43.5 -20.5q-13 -16 -17.5 -42t-4.5 -60.5t-2 -47.5q35 3 98.5 2t89.5 2q6 -6 14 -6q26 -61 17 -184q-3 -27 -17 -35q-37 -1 -101.5 0t-98.5 0q-4 -168 -4 -217q0 -28 -3 -196.5t1 -192.5 q6 -189 6 -193q-1 -1 -6 -10q-15 0 -19 -4q-20 4 -42 4.5t-53 -1t-46 -1.5q-54 0 -66 -2q-5 10 -10 12q-4 56 -4.5 125t1 159t1.5 128q0 8 -1 29.5t-1 33.5q1 53 -4 160.5t-4 159.5q-18 4 -60.5 2.5t-54.5 5.5q-4 24 -4.5 52.5t1 48.5t4 55t3.5 51v2v6q0 4 2 6l4 2h9 q10 -1 46 -1.5t56 -2.5q-7 140 14 205q2 11 13 37q2 3 4.5 11.5t5.5 14.5q5 8 15.5 23.5t12.5 17.5v2q4 9 9 11h2q25 28 60.5 43t96.5 32q85 22 164 19q7 0 23.5 1t29 1t21.5 -2q3 -1 8.5 -6t9.5 -6q4 -9 9 -76v-13zM639 1223q6 54 2 170q0 3 0.5 7t1 7t-0.5 7t-3 7 q-2 0 -9 1.5t-14 1.5t-12 -3q-94 8 -143 -2l-35 -8l-18 -4l-21 -8q-38 -11 -43 -13q-37 -14 -70.5 -40.5t-50.5 -63.5q-4 -6 -6.5 -14t-5 -18.5t-4.5 -16.5q-23 -67 -23 -146q0 -5 1.5 -17t2 -19t0 -17t-3.5 -18q-14 -9 -32.5 -9.5t-42.5 2t-39 1.5q-8 -129 -4 -187 q17 -3 52 -2t54 -2q3 0 4.5 -1.5t3 -4.5t2.5 -4q0 -49 6.5 -224t1.5 -270q-4 -96 0 -301q39 1 107.5 1t99.5 1q0 42 -10 222v147q0 29 2 86t2 86q0 106 4 266q40 2 110 1.5t103 0.5q13 98 -6 183q-154 0 -196 -4l-3 2q-2 0 -2 2q-10 7 -10 16q0 6 4 6v17.5v20t0.5 20t1 21.5 t2 20t4 20t5.5 17t7.5 16t10.5 12q16 14 44 21t50.5 8t62.5 0.5t56 -0.5z" />
<glyph unicode="g" horiz-adv-x="921" d="M809 1032q1 -1 2 -9t6 -9q0 -37 0.5 -111.5t0.5 -136.5t-1 -113q-1 -21 -1.5 -88t-2.5 -102q-11 -112 -6 -184q0 -15 1 -46.5t1 -48.5q1 -22 0 -66t0 -63q0 -4 4 -53.5t4 -77.5q0 -18 -3.5 -52t-4.5 -46q-7 -56 -25 -80q-7 -7 -10 -8q-14 -40 -69 -84q-29 -23 -74 -41 q-114 -50 -228 -39q-18 2 -53 10q-98 17 -147 66q-2 1 -5 1t-5 1q-2 4 -16.5 11.5t-14.5 17.5q-67 84 -70 241q1 2 5 4.5t5 5.5q12 3 95 13q19 -4 59 -7.5t59 -7.5q10 -10 15 -10q-2 -46 20 -104q13 -30 37 -35q2 -1 33 -6q24 -4 37 -4h2q9 2 25 5t25.5 5t21 7t18.5 11 l20 29q3 9 5 23.5t2 26t-0.5 29.5t-0.5 23q-1 16 0.5 52.5t-0.5 52.5q-10 -3 -21 -8t-24 -13t-22 -12q-71 -20 -157.5 -12t-141.5 45q-6 4 -18.5 16.5t-20.5 16.5q-68 75 -82 254q-9 157 0 307q5 134 8 157q7 57 19 84q1 2 7.5 9t8.5 12q8 16 10 24q9 8 22.5 27t22.5 27 q2 2 8.5 5.5t8.5 4.5q44 34 71 43q5 1 14.5 5t12.5 5q53 14 107 10q45 2 124 -26q57 -21 80 -60q6 9 8.5 34.5t4.5 33.5q0 3 3.5 8t2.5 8q3 3 6 3.5t8.5 -0.5t7.5 -1q9 0 33.5 0.5t44.5 0.5t33 -1q42 -7 45 -10zM565 293q1 10 5 81.5t4.5 82.5t2.5 79.5t-2 71.5q0 4 -2 13 t-2 14v12q0 2 -1 5t-1 5v39q-8 38 -24 60v8q-25 28 -59.5 42t-69.5 5l-25 -10q-7 -3 -31 -19q-23 -18 -30 -43q1 -19 -0.5 -49t-1.5 -43q0 -59 6 -287q0 -6 1 -26t1.5 -33t3.5 -27.5t8 -21.5q18 -24 19 -25q3 -3 18.5 -11t22.5 -9q82 -19 151 59q-1 5 0 10t3 10t3 7z M797 1008q0 3 2.5 5t3.5 3q-44 8 -162 8q1 -6 -4 -45q-1 -3 -2.5 -12t-2.5 -12.5t-3 -9t-5 -8t-8 -3.5q-3 -1 -3.5 1t-0.5 4.5t-2 2.5l-10 -6q0 6 -5.5 11t-6.5 7q-39 36 -103 56q-15 6 -55 10q-7 0 -20.5 2t-20.5 2h-4q-71 -8 -100 -20q-32 -9 -70 -39q-9 -7 -23.5 -21 t-19.5 -18q0 -4 -3 -9.5t-3 -9.5l-10 -8q-5 -16 -19 -33q-20 -63 -26 -141q-1 -21 0 -64t0 -65l-2 -4v-6q-7 -126 2 -224q1 -10 1.5 -38t2.5 -45q9 -106 59 -183q4 -4 11.5 -13t15.5 -15t18 -9q0 -8 4 -8q18 -9 72 -31q9 0 26 -4t27 -4q31 -3 70 0q73 2 149 43q6 12 17 23 q6 -1 8 -12t4 -13v-80v-50.5t-2.5 -63t-9.5 -43.5q-5 -3 -9.5 -7.5t-9 -11.5t-6.5 -10q-43 -24 -86 -33q-16 -3 -78 6q-18 0 -26 4q-6 2 -17 13q-8 6 -12 12q-18 28 -31 121q-126 19 -196 2q3 -131 67 -225h10q2 -2 15 -13t18 -18q6 -1 13.5 -7t9.5 -7q37 -21 86 -31l37 -10 h14q3 -1 15.5 -4t19.5 -3h35q23 -2 63 5q57 13 78 20q13 4 26 11t29 16t25 14q24 12 35 23q3 2 14 13.5t18 14.5q1 2 13 21q1 2 5 12.5t7 15.5q1 2 5 5.5t5 5.5q11 18 15 59q0 7 3 41.5t3 50.5q0 21 -1 41t-2.5 43t-2.5 37v51q2 50 -3 172q0 8 -2 23t-2 22q0 31 5 86t6 78 q0 56 2 66q-3 38 0 82v149q0 24 1.5 72.5t1.5 88.5t-3 75zM571 752q5 -9 9 -20t6 -26.5t3 -25.5t2.5 -29t2.5 -26q6 -78 -4 -283q0 -23 -4 -43l-8 -16q-1 -4 -2.5 -11.5t-4 -12.5t-6.5 -9q-2 -2 -8.5 -6.5t-9.5 -7.5q-47 -44 -92 -48q-49 -7 -109 29q-2 4 -9 14.5t-9 16.5 q-4 8 -6.5 17t-4 22t-2 21t-1.5 25t-1 23q-6 259 -4 297q0 10 2 30.5t2 29.5q-3 30 9 55q2 4 12 14q16 16 43.5 32t50.5 20q54 9 111 -35q29 -21 34 -37q2 -6 -2 -10z" />
<glyph unicode="h" horiz-adv-x="937" d="M848 686q8 -71 6 -111q-2 -22 -2.5 -62t-1.5 -52q-8 -214 -6 -348q0 -12 1 -35t1 -41.5t-2 -34.5q-8 -1 -29 -1t-33 -1q-29 -1 -89 0.5t-77 1.5q-25 0 -26 4q-3 5 -3 9.5t2.5 11t2.5 8.5q-8 78 -8 121q0 20 3 63t3 66q1 46 1 139.5t1 140.5q5 52 1.5 113.5t-26.5 97.5 q-88 52 -149 21q-13 -6 -30 -26t-21 -23q-19 -52 -21.5 -152t2.5 -168q6 -153 6 -154q0 -29 -1 -89.5t-0.5 -100t3.5 -74.5q-14 -4 -16 -2q-2 -7 -8 -10q-10 -2 -47 -2q-17 0 -50 1t-47 1q-46 4 -63 2q-1 0 -2 -1q-3 -1 -4 3q-4 3 -4.5 8.5t1 13.5t1.5 11q2 28 -3 82.5 t-5 77.5q-4 254 0 333q2 43 2 127q0 7 2 20t2 19q1 15 0 43.5t0 40.5q1 17 -1.5 54.5t-2.5 56.5q0 131 -9 541q13 5 29.5 8t36.5 3h32.5t36 -1.5t29.5 -1.5q44 0 60 -4q3 -1 8.5 -6.5t9.5 -6.5q6 -7 5 -108t-1 -115q4 -71 2 -111q0 -6 -1.5 -25t-2 -28t0.5 -23t5 -24 q102 47 162 55q38 2 88 -14q38 -12 66 -29l28 -12q5 -3 13 -9.5t12 -8.5q29 -13 49 -33l31 -47q4 -9 12.5 -27t14.5 -33.5t10 -31.5q3 -20 6 -59.5t4 -51.5zM831 598q0 7 1.5 22t1.5 21q-1 12 -5.5 39t-5.5 41q-6 103 -53 174q-1 2 -6.5 11.5t-7.5 12t-8 6t-13 3.5 q-1 8 -6.5 12.5t-15 8t-13.5 5.5q-6 3 -15 10t-13 9q-46 24 -66 31l-37 10l-12 8q-35 9 -125 -18l-14 -5q-3 -1 -37 -18q-19 -7 -23 -10q-2 -1 -5.5 -5.5t-6.5 -7.5t-6 -2q-4 2 -5.5 9t-4.5 10q-2 40 0.5 111t1.5 102q-2 29 -2.5 105.5t-3.5 117.5q-130 15 -203 6 q2 -65 3 -189t3 -190q0 -26 1 -82t1 -84q0 -8 1.5 -39t0.5 -49v-49v-47q0 -6 -4 -14q-1 -18 0 -58t0 -61q-4 -39 -4 -121q0 -170 2 -250q1 -13 4 -51t3.5 -57t-1.5 -56q129 -8 193 0q3 2 8 -2q1 17 0 50t0 51q3 151 -6 297q-8 191 14 303q1 8 4.5 16t6 13t8.5 13t9 11t10 11 t9 10q4 3 10 9.5t9 8.5q22 14 53.5 15t57.5 -6.5t48 -18.5q13 -7 17 -11.5t12 -19.5q18 -39 18 -162q0 -29 -1 -93t-1 -95q0 -48 -2 -129.5t-2 -146t4 -121.5q38 -3 211 -3q0 26 -2.5 155t0.5 161q8 157 10 262z" />
<glyph unicode="i" horiz-adv-x="471" d="M356 1018q-2 -12 0.5 -41t-0.5 -37q15 -182 11 -281q-2 -28 -2.5 -85t-2.5 -85q-8 -133 -6 -194q0 -38 2.5 -134t1.5 -147q-3 -2 -5.5 -8t-4.5 -8q-155 -12 -215 0q-12 -9 -19.5 -2t-9.5 24q-1 18 2 53.5t3 51.5q0 32 -4 110t-3 121q0 13 -0.5 38.5t-0.5 47.5t1 41v35 q-2 23 2.5 73t4.5 56v123q0 21 3 59t3 56q0 112 4 141q134 20 213 0q6 0 6 -8q0 2 7 1t9 -1zM358 1425l9 -139q0 -52 -11 -94q-6 0 -6 -4q-5 2 -35 2h-30q-2 0 -7.5 2t-7.5 2q-4 0 -155 6q4 160 4 217q1 2 4 4.5t3 3.5t-1 5q27 4 58.5 4t54.5 -1.5t61 -4t59 -3.5zM141 1006 q-2 -27 -3.5 -96t-4.5 -103q-1 -13 -1 -41t-1 -41q0 -59 -2 -88q0 -15 -1 -43t-1 -41q-1 -27 -1 -82t-1 -82q-1 -33 0 -70t3 -82t3 -65q0 -52 -4 -154q74 -10 213 -2q3 105 -2 174q0 178 2 216q2 44 2.5 123t1.5 106q0 63 -2 94v86q0 21 -4 87t-2 102q-10 3 -20 5.5 t-22.5 3.5t-22 2t-24 0t-22.5 -1t-23.5 -1.5t-20.5 -2t-21.5 -2.5t-18.5 -2zM141 1407q-4 -57 -4 -188q37 2 104 -4t99 -3q4 21 4 43.5t-2 47t-2 36.5q0 6 1 19t1 24.5t-2 22.5q-132 12 -199 2z" />
<glyph unicode="j" horiz-adv-x="475" d="M365 1012q-4 1 -19 12q-154 13 -221 4q-15 -221 -10 -393v-107q1 -31 0 -65t-3 -74.5t-3 -62.5q-1 -14 -1.5 -40.5t-1.5 -39.5q0 -11 1.5 -35t1.5 -37q1 -18 1.5 -50.5t1.5 -59t3 -50.5q0 -3 1 -9t1 -9q0 -50 -11 -121q-9 -9 -26 -39q-30 -20 -99 -23.5t-104 1.5 q-5 -102 0 -162q1 -7 0.5 -18t0.5 -19.5t5 -15.5q62 -18 170 -7q36 3 78 13q72 18 105 43l26 24q5 4 14.5 11.5t15 11.5t12.5 11t11 13q5 6 11.5 20.5t11.5 20.5q1 8 8 34t8 38q1 18 -0.5 51.5t-1.5 46.5q1 12 2.5 33t2.5 38t1 32q0 13 1.5 39.5t0.5 40.5q0 13 -1 38t-1 37 q2 69 -1 207.5t-1 208.5q5 93 2 209q-1 32 4 98t3 101zM365 1436q12 -97 4 -164v-12q-1 -5 -2 -18.5t-4 -21t-9 -10.5q0 -6 -2 -10q-4 -1 -14.5 -0.5t-13.5 -1.5h-43q-16 1 -68 6.5t-80 3.5q-2 4 -5 5t-7 0.5t-6 0.5q-1 8 0.5 22t1.5 19q-2 2 -2 9q0 8 2 12q-2 24 2 82.5 t-2 73.5q10 5 29 7t34.5 2t39 -0.5t28.5 -0.5l49 -6q1 0 2 1t2 1q4 0 4 -4q6 2 30 0.5t30 3.5zM143 1008q83 8 199 -9v-69q0 -13 -2 -37t-2 -35q-3 -16 -0.5 -103.5t2.5 -111.5q-4 -25 -4 -125q-3 -100 4 -219q1 -24 1 -50.5t-0.5 -60.5t-0.5 -55q5 -41 -6 -49q4 -16 4 -51 q-6 -48 -6 -49q0 -4 2 -11t2 -10q0 -1 -6 -49q0 -5 2 -15.5t2 -15.5v-51q-7 -49 -27 -74q1 -8 -2 -16t-5.5 -11.5t-11 -11t-9.5 -8.5q-3 -3 -24 -19.5t-30 -27.5q-62 -35 -149.5 -47.5t-177.5 -3.5l-4 47q-1 8 0.5 22.5t1.5 20.5q1 5 -2 17.5t-3 17.5q0 4 2.5 24t0.5 31 q10 0 36 -0.5t41 -0.5t35.5 1.5t34.5 5.5q36 8 55 27q2 2 5 9t5 9q2 4 9.5 11t9.5 14q8 32 9 73t-2 94t-3 73t-1.5 84.5t-0.5 99.5l8 160q1 33 0 101t0 99q0 260 8 355zM346 1270q4 18 4 82q0 3 0.5 7t0.5 7t-1 6q0 1 -1.5 6t-1.5 10t3 9q-2 1 -3 6t-3 6q-17 3 -56 6t-50 4 q-16 -2 -50 0.5t-47 -2.5q-4 -86 -4 -149h-2l2 -4v-33q14 0 87.5 -6.5t115.5 -1.5q3 4 4.5 18.5t3.5 18.5v10h-2z" />
<glyph unicode="k" horiz-adv-x="937" d="M358 1425q0 -88 4 -276q1 -21 0 -45t-3 -53.5t-3 -46.5q-2 -82 -2.5 -226.5t-1.5 -191.5q60 94 133 227q11 21 36 59t34 54l68 110q167 4 251 -4q1 -2 0 -9t3 -7q-19 -30 -70 -125l-23 -33q-4 -6 -11.5 -21.5t-12.5 -23.5l-25 -41q-18 -38 -49 -84q-28 -44 -53 -80 q-1 -1 -10.5 -16t-16.5 -25q-2 -3 -8.5 -12t-11 -16t-4.5 -11q-1 -7 11.5 -26.5t12.5 -20.5q3 -5 12.5 -21.5t16.5 -23.5q18 -42 59 -111t56 -102q10 -22 81 -151q27 -49 31 -54q11 -16 10 -20q-6 -2 -14 -2t-18.5 1t-16.5 1q-88 -5 -108 -4q-24 4 -39 4h-74q-11 12 -31 59 q-14 26 -61 117.5t-72 140.5q-11 21 -41 64q-9 17 -41 63l-4 -192q-1 -22 1 -110t-3 -113q0 -11 -4 -35q-42 -1 -114 0.5t-95 1.5q-3 0 -3 3q0 2 -1 3q-4 -3 -6 -3t-8.5 3.5t-7.5 3.5q-10 23 -5 82q-1 3 2 2h3q1 2 -2 2q-4 1 -3 4q9 63 2 237t-4 242q0 19 1 58t1 59 q5 200 5 238v278v113q2 16 3 36t1.5 43t1.5 36q14 5 30 6.5t45 2.5t35 1q81 4 123 -10q0 -1 8 -9zM215 -2h4l1 4q2 3 1 4q-1 -1 -3.5 -3t-2.5 -5zM209 1423q-53 -4 -72 -8q-6 -85 -6 -176q1 -53 -0.5 -145t-1.5 -117q0 -83 -3 -248t-3 -244q0 -28 4.5 -161.5t-0.5 -169.5 q-5 -109 0 -144q25 4 104 2.5t97 -0.5q6 57 6 166q0 7 -1.5 33.5t-0.5 42.5q3 46 2.5 111t1.5 104q7 5 20 8q14 -16 28 -35.5t23.5 -33.5t24.5 -40.5t20.5 -36.5t23 -42.5t20.5 -38.5q43 -77 92 -180q2 -4 8.5 -19.5t12.5 -25t14 -15.5q2 1 2 3t0.5 3.5t3.5 1.5 q128 -4 207 -2q-28 57 -68 123q-13 21 -33.5 65t-32.5 64q-50 85 -104 187l-27 45q-10 15 -10 16q-3 8 0.5 18.5t9 18t15 19.5t12.5 16q13 20 35 59l39 60l37 59l71 121q9 14 72 127q-29 3 -59.5 3.5t-51 0t-56 -2t-54.5 -1.5q-22 -41 -68.5 -114t-62.5 -101 q-7 -11 -62 -113q-50 -82 -73 -121q-7 0 -11 -8t-10 -8q-5 0 -7 4t-2.5 10t0 12t1 13t0.5 10q1 26 -1 84t-1 80q0 60 3.5 180.5t4.5 161.5q2 53 -1 161t-1 152q-61 9 -131 6z" />
<glyph unicode="l" horiz-adv-x="466" d="M365 1432q-4 -28 -5.5 -64.5t-1 -66t-0.5 -64.5q-1 -21 -1.5 -87.5t-2.5 -102.5q-6 -189 -6 -197q-1 -33 -1 -97.5t-1 -97.5q-2 -53 0 -165.5t0 -170.5l-4 -229q0 -63 2 -72q0 -2 5 -9.5t1 -14.5q-27 -4 -96 0q-76 8 -113 4q-26 -4 -28 -4q-12 35 -2 57q-3 64 0 125v162 l-9 274q0 56 4 154v152q0 9 2.5 26t2.5 25q-3 0 -1.5 106.5t1.5 108.5q-1 16 1.5 46t2.5 42q0 5 -1 15.5t-1 15.5v71q5 42 0 58q8 0 8 14q29 -3 114.5 -1.5t118.5 -4.5q-1 -3 1 -4t5 -1.5t5 -2.5zM139 1419q0 -4 -6 -352q-12 3 -12.5 -5.5t10.5 -6.5q0 -125 -4 -379 q-1 -62 3 -189.5t3 -191.5l-4 -277q34 0 101 -3t94 -3q-2 47 -2.5 55.5t2 55t2.5 53.5q1 22 0 64.5t0 62.5q2 67 0.5 245t-0.5 249q0 14 1 44t1 46q1 15 0 42t0 40q1 22 4.5 93.5t3.5 111.5q2 82 2 245q-108 6 -199 0z" />
<glyph unicode="m" horiz-adv-x="1435" d="M1010 1051q-141 0 -238 -111v2q-5 4 -18 14t-21.5 18.5t-13.5 18.5q-13 5 -17 8q-92 43 -153 37q-12 3 -51 -2q-100 -15 -144 -47q-12 -7 -32 -31q-2 4 -6.5 18.5t-8.5 18.5q4 1 4 7t-1.5 14t-0.5 12q-104 19 -192 6q-7 -19 -7 -53t-4 -51q6 -23 6 -32t-3.5 -30.5 t-4.5 -31.5q-2 -29 5 -86.5t8 -77.5q0 -57 2 -86q-3 -1 -1 -1q4 -1 3 -3q0 -3 -1 -15t-1 -22.5t2 -16.5v-143q-4 -146 0 -195q10 -68 10 -77q-5 -87 -2 -113q2 -1 4 -5t4 -5q33 3 113 0t115 0q4 8 4.5 18.5t-1 25t-1.5 21.5q2 40 -2 119q-2 57 0.5 163.5t1.5 151.5 q2 13 1.5 35.5t0.5 36.5q9 72 8 92q-4 8 -4 13q-1 5 0 12t3 15l3 12q5 43 27 71q22 25 63.5 33.5t73.5 -6.5q8 0 10 -2q2 -1 5 -5l3 -5l14 -9l9 -14q1 -1 5 -6t5 -8q0 -7 2 -9q1 -2 2.5 -4t2.5 -3.5t1 -2.5q8 -20 8 -35q2 -8 4 -25t2 -18q5 -35 5 -41q2 -15 2 -96 q0 -8 -5 -96q-6 -93 -6 -100q0 -1 6 -88q1 -15 0 -43t0 -41q0 -67 7 -142q2 -1 4.5 -5.5t5.5 -6.5q34 -2 73 -2t85 1t69 1q4 82 4 121q-5 96 -4 117q3 35 0 65q0 105 -2 148q0 14 0.5 121.5t-4.5 121.5q6 15 6 37q10 10 15 29q7 4 20 16t21 17q33 20 61 20q39 0 55 -8 q24 -8 43 -31q17 -17 25 -47q0 -2 4 -12t4 -15q4 -18 4 -90v-147q0 -20 -4 -70q0 -24 4 -74q1 -29 -2.5 -82t-3.5 -73q0 -92 2 -133q0 -3 -0.5 -7.5t-0.5 -7.5t1 -6q12 -4 16 -8q49 -1 67 -1t66 2t66 3q2 -1 5.5 -4.5t8.5 -3.5q9 7 9 37l-5 139q-1 45 4.5 153t4.5 158 q-1 29 0.5 86t1.5 76q0 23 -2 48t-6 54t-5 44q0 28 -6 55q-2 9 -8.5 19t-7.5 12l-6 14q-34 59 -76 96q-6 0 -13.5 3.5t-9.5 4.5q-4 4 -9 7t-12 7t-11 7q-10 6 -74 28q-5 0 -41.5 3.5t-56.5 3.5zM770 936q0 1 1 2t1 2zM866 995q58 33 138.5 36t155 -27t110.5 -86 q1 -1 10 -15.5t16 -19.5q-3 -3 1 -9.5t10 -7.5q-1 -7 5 -21.5t7 -19.5q1 -3 6 -55q8 -57 8 -143q0 -8 1 -26t1 -26q0 -4 -2 -12t-2 -12q0 -2 1 -5t1 -5q0 -9 -2 -28t-2 -28q2 -20 2 -61q1 -37 -4.5 -129t-1.5 -137q0 -3 2 -9t2 -8q0 -7 -2 -20t-2 -19q0 -12 2.5 -39.5 t1.5 -42.5q-22 1 -100 -2t-103 2q1 17 0 35.5t-0.5 39.5t4.5 30q-2 37 -2.5 49.5t2.5 52.5t3 52q0 11 -2 41.5t-1 46.5q0 41 3 88q1 13 1 27.5t-0.5 32.5t-0.5 28q0 69 -3 139q0 71 -38 109q-14 14 -42 28t-55 15q-3 0 -9.5 -2.5t-10.5 -2.5q-4 -1 -13 0t-14 0 q-9 -2 -47 -24q-16 -12 -47 -43q-2 -9 -8.5 -25.5t-7.5 -23.5q-1 -11 0.5 -33t1.5 -29q1 -24 1 -50.5t-0.5 -57.5t-0.5 -47q-1 -16 4 -93q0 -15 -1 -44t-1 -44q2 -61 2 -217v-82q-72 -2 -203 -2q-4 29 -5.5 75t-0.5 84t0 79q-4 50 -4 78q0 12 2 38t2 38q9 158 4 219 q-5 50 -10.5 80.5t-23.5 65.5t-46 50q-39 22 -97 8t-85 -59q-15 -21 -21 -84v-41q0 -19 -3 -56.5t-3 -45.5q-1 -6 -1 -13.5t0.5 -16t0.5 -13.5q-6 -132 -6 -252q-2 -28 2 -82q1 -26 1 -78.5t1 -77.5q-30 -2 -100.5 -0.5t-100.5 0.5q0 113 -4 148q-2 29 -2.5 86t-1.5 75v46 q3 25 -2 108q0 13 2 36t2 34q-4 50 -4 73q-1 14 -2.5 39t-2.5 45.5t-1 38.5q-1 40 0.5 130.5t-0.5 115.5v33q100 5 154 -8q1 -5 4.5 -14.5t5.5 -16.5t0 -8q9 -18 12 -43q17 0 21 -2q8 29 33 43.5t57.5 23.5t46.5 21q4 -4 21 0t20 4q16 3 35 0h34q40 0 64 -8q4 -1 16 -8 t19 -7q5 -7 22 -16q14 -11 25 -16q7 -9 25.5 -25t25.5 -25q10 3 10 17q26 21 33 22q31 31 51 43z" />
<glyph unicode="n" horiz-adv-x="929" d="M846 2q-21 -4 -52 -5.5t-76.5 -1.5t-64.5 -1q-4 0 -10.5 -0.5t-10 -0.5t-9 1t-9.5 4q-1 2 -3 8t-4.5 10t-6.5 7q5 19 0 51q3 5 4 12t1 16.5t1 14.5l4 82q0 13 2 37.5t2 35.5q0 19 -4 47q-1 30 1 164t-7 164q0 7 -3.5 22.5t-4.5 20.5q-4 26 -6.5 38.5t-9.5 28t-19 27.5 q-31 25 -45 27q-57 14 -119 -25q-16 -20 -22 -32q-2 -10 -8.5 -29.5t-8.5 -26.5q-13 -50 -4 -186q1 -13 1 -39.5t1 -40.5q2 -23 2 -72q2 -121 2 -354q-1 -2 -6 -4.5t-6 -5.5q-13 0 -38 -2t-34 -2q-21 -1 -67.5 0.5t-71.5 -0.5l-20 12q0 40 -3 113.5t-3 107.5q0 14 1 41.5 t1 44.5q0 59 2 88q-3 23 -2.5 71.5t-1.5 70.5q-4 109 -2 174q0 30 -3 100.5t-2 104.5v26t5 35q-4 4 -4 19.5t-1 21.5q8 8 7 12q19 -1 67.5 0t69.5 0q31 0 39 -4q7 -4 12.5 -28.5t11.5 -30.5v-15q31 40 85 63t114 23q48 0 68 -2q4 -1 17 -5.5t21 -2.5q8 -6 29 -13t29 -13h12 q23 -16 49 -25q-1 -5 3.5 -11t14 -14t11.5 -10l22 -28q10 -17 33 -68q22 -58 25 -107q2 -39 -1.5 -114t-2.5 -109q1 -18 3.5 -53t3 -53t-0.5 -54v-71q1 -25 -1.5 -72.5t-2.5 -66.5q2 -20 2 -62q0 -10 1.5 -41.5t0.5 -44.5zM680 983q-92 49 -182 43q-96 -12 -142 -43 q-3 1 -3 -3q1 -3 -1 -3q-3 -2 -10.5 -9.5t-11.5 -9.5q-2 -3 -5.5 -7t-5.5 -6.5t-4.5 -5.5t-6 -4.5t-7.5 -2.5q-5 9 -10 28t-8 27q-10 20 -9 23q-67 5 -149 2q0 -46 -2 -54q-1 -37 4 -155q1 -2 -0.5 -10t-1.5 -9q0 -3 2 -7.5t2 -6.5q1 -18 0 -63t0 -66q4 -192 4 -281 q0 -12 -1 -35t-1 -34q0 -8 -1.5 -35t-0.5 -41q2 -28 2.5 -98t3.5 -103q111 -3 205 2q4 340 -10 533q2 17 1.5 58t2.5 57q2 15 12 51q1 3 1.5 9.5t1.5 11.5t3 9q7 25 37 50q2 1 3.5 4t2.5 4l29 14q17 9 44.5 13t57.5 -1q10 -3 27 -15.5t25 -16.5q1 -3 16 -23q18 -31 31 -143 q4 -32 5.5 -70t1.5 -63t-0.5 -71t-0.5 -65q0 -14 1.5 -49.5t0.5 -52.5q0 -34 -6 -118t-4 -128q17 1 93.5 2t112.5 7q-4 74 -4 208q0 7 2 20.5t2 20.5q-4 28 -4 39q-1 20 4 97q1 23 -4.5 69.5t-5.5 65.5q0 31 3 83t3 81v22q0 52 -30 127q-10 24 -15 33q-2 4 -5 8t-7 8.5 t-6 7.5q-19 28 -41 45q-4 4 -18 13.5t-17 15.5q-3 0 -3 -1q0 -4 0 -3q0 -1 -3 0z" />
<glyph unicode="o" horiz-adv-x="905" d="M821 383v-6l2 -2q-2 0 -2 -2q-2 -5 -2 -12.5t1 -15.5t1 -11q3 -51 -6 -101q-9 -38 -14 -53q-4 -15 -43 -59q-4 -4 -15.5 -17t-16.5 -18t-14 -13t-18 -14q-28 -20 -53 -30q-15 -7 -45 -15q-123 -45 -242 -4q-3 1 -6.5 -0.5t-5.5 -1.5q-79 24 -131 62q-33 22 -37 26l-16 23 q-25 25 -41 71q-4 9 -7 18t-5.5 21t-4 19.5t-3 22t-2 20.5t-1 23t-1 21t-1 24t-0.5 22q-1 22 1 124.5t-3 125.5q-7 54 -6 80l10 55q8 47 33 96q3 6 13.5 22t13.5 25q10 9 27 28.5t32.5 33t32.5 22.5q60 39 129 45q145 5 289 -59q18 -9 26 -8q1 0 3 -1t3 -1l49 -45 q27 -40 48 -84q5 -14 8.5 -30t7 -41t4.5 -34q8 -60 8 -141v-137q0 -8 -1 -24.5t-1 -29t2 -20.5zM586 344q3 50 -6 195q-1 20 0 57t0 53q-5 20 -5 23v16q0 3 -2 20.5t-4 24.5q-13 56 -73 82q-6 -1 -13 1.5t-10 2.5q-10 -2 -32 -3t-31 -3q-2 -2 -15.5 -9t-19.5 -13 q-22 -19 -31 -33q-8 -11 -12 -56q-2 -25 -2 -170v-157q0 -13 2 -19q0 -22 6 -37q6 -20 22 -43q12 -21 31 -36q15 -10 39.5 -17t42.5 -4q4 0 12 4q28 11 45 19q4 6 43 39q10 31 13 63zM793 231q3 13 6 37.5t4 32.5q-3 56 -2.5 146t-1.5 151q0 11 1 29t1 32.5t-2 26.5 q0 3 -6 33q-1 6 -1 18t-1 17q-8 56 -35 112q-27 48 -45 64q-20 20 -47 31q-36 17 -93 32l-18 8q-2 1 -7.5 1.5t-8.5 1.5q-4 0 -11 3.5t-10 4.5l-37 4q-8 1 -26.5 3t-34.5 3t-31 0q-4 -1 -18.5 -1.5t-22.5 -2.5q-57 -15 -113 -55q-35 -35 -47 -43q-28 -41 -53 -89 q-7 -15 -12 -30t-8.5 -38t-5 -31.5t-4.5 -41t-3 -35.5q4 -6 6.5 -16.5t3.5 -17.5t2 -22t1 -19q1 -29 0 -81t0 -79q1 -20 0 -61t0 -62q8 -71 30 -117q7 -22 17 -35q19 -28 82 -71q10 -10 12 -11q3 -1 9.5 -2t8.5 -2l25 -14l29 -12q3 -1 5 1.5t5 0.5q91 -36 196 -19 q10 2 60 17q42 13 59 22q55 27 117 109q20 25 29 61q1 3 -2 3.5t-2 2.5zM602 522q8 -123 4 -184q-4 -49 -16 -68q-1 -2 -5.5 -5.5t-6.5 -6.5l-7 -14q-7 -10 -21.5 -20t-27.5 -11q-3 -1 -9.5 -1t-10.5 -1q-5 -1 -13.5 -3.5t-18 -4t-19.5 -0.5q-32 0 -74 22q-57 47 -66 131 q0 3 -1 9.5t-1 9.5v4q-2 31 -2 67.5t1 82t1 71.5q-3 63 2 119q7 44 39 76q32 27 37 30q12 6 37 8t29 3q30 6 66 -10.5t50 -39.5q26 -32 31 -170q2 -33 2 -94z" />
<glyph unicode="p" horiz-adv-x="921" d="M352 45q3 -176 0 -348q-1 -14 0 -40t0 -40l-1 -17q-1 -18 1 -18q-59 -13 -229 2q0 6 -8 10q4 111 0 480q-7 247 -9 424v63q0 11 1.5 34t1.5 34q0 17 -1.5 52t-1.5 52q0 14 -1 40.5t-1 37.5q-1 6 0.5 14.5t1.5 10.5q0 5 -2 14.5t-2 13.5q0 38 2 56v88l4 8q3 7 3 12 q103 15 174 0q12 -29 18 -72q2 2 11 7t14 10q2 1 5 6t5 6q2 4 27 16l14 7q32 18 76 24q15 2 45.5 2.5t40.5 1.5q7 1 49 -4q22 -3 44 -10t46.5 -17t36.5 -14q9 -15 35 -39.5t36 -38.5q28 -42 37 -98t9 -145q0 -87 4 -271v-65q0 -100 -7 -129q-17 -52 -28 -62 q-1 -23 -20 -47.5t-23 -32.5q-18 -8 -35 -28q-24 -5 -27 -17q-9 -1 -23.5 -8.5t-19.5 -9.5q-10 -4 -67 -8q-92 0 -119 4q-13 0 -25 6h-14q-37 10 -78 43zM352 721q-1 -3 1 -5t1 -5q0 -18 -1 -50t-1 -59t2 -51q4 -44 5 -138.5t6 -138.5q6 -6 13 -17.5t13 -16.5q19 -17 68 -25 q68 -8 121 41q24 65 16 141q2 20 2 46t-1 59.5t-1 50.5q3 80 -8 154q-13 81 -68 98q-14 0 -18 4q-103 -3 -150 -88zM356 66q28 -24 41 -29q52 -18 97 -23q7 -1 19.5 0.5t16.5 1.5q82 -4 109 2q8 1 39 17q14 7 74 49q6 11 20 30t16 23q-1 3 0 8t0 9q25 45 31 102q0 20 -4 66 q0 11 1 34.5t1 36.5q0 20 -1 61.5t-1 63.5q0 134 -2 187q-3 23 0 45q0 10 -10 67q-14 52 -17 60q-4 6 -11.5 15.5t-8.5 10.5q-5 8 -11 16t-14 16t-13 12.5t-15.5 14.5t-14.5 13q-85 42 -168 39q-2 2 -4 0q-8 -1 -33 -1.5t-38 -2.5q-45 -7 -99 -37q-4 -9 -21 -20t-22 -17 q-1 -2 -3 -10.5t-7 -10.5q-10 9 -15.5 24t-9 38.5t-6.5 34.5q-39 5 -147 0q1 -31 0.5 -117t1.5 -111v-120q1 -36 1 -78t-0.5 -92t-0.5 -76q0 -99 6.5 -381.5t3.5 -431.5q118 -12 193 -6q3 22 2.5 78.5t3.5 72.5q-4 42 -3.5 116.5t-0.5 113.5q0 4 1 15.5t0.5 20t-3.5 15.5 q4 7 3.5 20.5t2.5 22.5q9 5 14.5 1.5t5.5 -9.5zM596 236q-11 -3 -27 -15.5t-22 -15.5q-48 -11 -60 -12q-80 9 -118 47q-2 7 -9 16.5t-8 11.5q0 1 -1 6.5t-3 9.5t-6 7q0 36 -3 112t-3 105q-4 102 0 164v26q-4 17 -2 29q5 32 51 64q42 33 84 36q40 4 67.5 -7.5t42.5 -36.5 t22.5 -52t10.5 -65q8 -62 4 -158q0 -12 2.5 -37t2.5 -37q0 -11 -2.5 -33.5t-2.5 -35.5q0 -61 -2 -72q-2 -14 -14 -43q-4 -12 -4 -14z" />
<glyph unicode="q" horiz-adv-x="925" d="M821 -346q0 -4 1 -15.5t0.5 -20t-3.5 -15.5q-2 3 -5 1l-3 -3q-5 -1 -17.5 -1t-17.5 -1q-3 0 -8.5 -2.5t-7.5 -2.5q-5 -1 -15.5 -1t-15.5 -1q-71 -6 -135 -6q-7 5 -8.5 10t1.5 16l3 11q0 2 -1 7.5t-1 7.5q1 15 1 40.5t1 40.5q0 8 -1 27.5t-1 28.5q6 83 -8 270 q-11 -9 -43 -27q-4 -2 -12.5 -8t-12.5 -8q-40 -16 -109 -12q-73 0 -110 12l-17 8q-8 5 -43 23t-54.5 33t-33.5 36l-10 15q-1 1 -4 6t-4 8q-32 70 -35 184q0 11 -6 116.5t-2 160.5q2 42 0 72.5t-1 67t7 65.5q1 8 6.5 23t7.5 22q3 7 7.5 22.5t7.5 22.5q7 17 25.5 39t23.5 30 q46 41 61 50l25 12q1 0 2 -1t2 -1q18 18 45 18q4 0 6 2h4l21 6h2q-2 0 1 2q6 3 9 3q22 2 32.5 1.5t34 -3t31.5 -3.5q1 -1 3 -0.5t6 -1.5q2 0 4 -1t4 -1q32 -6 37 -10q19 -3 36.5 -13t41 -31t30.5 -26q2 9 9 34t8 38q4 5 27 3t28 -1q2 0 5 2t5 2q8 1 38.5 -0.5t41.5 2.5 q8 -4 35 -4q8 -4 8 -22q1 -50 0.5 -74.5t-3 -76t-3.5 -83.5q0 -16 2 -50t2 -52q1 -30 1.5 -123t2.5 -141q1 -20 1 -106.5t3 -133.5q2 -33 2 -102q3 -76 1.5 -211t0.5 -205zM561 563q0 12 1 54t0.5 60.5t-5.5 46.5t-14 46q-4 1 -13.5 9.5t-15.5 11.5l-29 6l-24 12 q-34 9 -80 -12q-29 -22 -43 -61.5t-13.5 -80.5t1.5 -86q1 -17 1.5 -69.5t2.5 -79.5q1 -15 -1 -55t1 -66.5t14 -46.5q11 -1 26 -12.5t17 -12.5q7 0 19 -4q53 -5 104.5 24.5t50.5 80.5v12q0 30 -2 87.5t-2 84.5q0 8 2 25t2 26zM602 -391q106 0 201 12q-5 134 -2 297 q3 132 -6 260q-3 43 -1.5 117t-0.5 115q-2 59 -3 165.5t-2 131.5q-2 35 -2 102q0 7 -1 20.5t-1 20.5q0 18 4 68v104q-28 -3 -78 -4.5t-69 -3.5q-1 -3 -10 -43q-6 -37 -15 -41q-3 -3 -8 -0.5t-7 4t-6 6.5t-5 6q-5 5 -17.5 14.5t-15.5 12.5q-2 1 -11.5 8t-13.5 10 q-31 22 -81 31l-62 8q-21 0 -57 -4q-12 -4 -15 -4q-29 -9 -69 -31q-45 -22 -74 -61q-3 -4 -11 -11.5t-11 -11.5t-7 -11.5t-6 -16.5q-6 -6 -14 -33q-22 -68 -23 -86q-4 -40 -4 -45q0 -26 2.5 -128.5t-0.5 -113.5q3 -5 4 -11t1 -10.5t-0.5 -11.5t-0.5 -10q1 -12 3 -34.5 t3.5 -42.5t0.5 -38q0 -31 2 -47q3 -68 24 -114l6 -17q20 -33 47 -63q2 -1 6.5 1t6.5 1q29 -25 102 -53q15 -5 19 -5q53 -13 102 -10q15 0 47 4q45 9 105 60q3 -1 9.5 0t10.5 0q5 -38 7.5 -76t3.5 -84t1.5 -73.5t0 -86t-0.5 -80.5q0 -5 1 -17t1 -22t-2 -16q-3 -5 -8 -8z M582 573v-180q0 -8 1 -29.5t0.5 -36t-3.5 -26.5q0 -1 -3 -3.5t-4 -4.5q-1 -4 -2 -12t-3 -12.5t-7 -8.5q-8 -8 -14 -10l-19 -12q-18 -13 -53 -29l-14 -4q-25 -6 -53 0q-22 3 -43 20q-2 -2 -5.5 -1.5t-5.5 -0.5q-32 13 -41 60q0 4 -1 12t-1 12q-3 37 2 96q-4 34 -6 71.5 t-3.5 87.5t-2.5 77q-3 36 12 86q0 1 2 6.5t4 7.5q0 9 5 9q37 76 108 81q18 2 62 -14q56 -22 67 -35q18 -22 23 -110q2 -28 -2 -97z" />
<glyph unicode="r" horiz-adv-x="751" d="M700 1014q-10 -26 -27.5 -92.5t-31.5 -96.5q-1 -3 1.5 -8t0.5 -8q-22 -3 -79.5 0.5t-82.5 -0.5q-27 -5 -55 -21t-43 -36l-10 -23q-36 -77 -29 -250q2 -55 2 -327q0 -11 1 -24t2.5 -29t2.5 -25q0 -8 -1 -26.5t-1 -27.5q0 -2 1 -8.5t0 -10t-5 -7.5q-5 3 -11 3.5t-10.5 0 t-13 -2t-12.5 -1.5q-82 -4 -127 0q-9 0 -27.5 3.5t-29.5 2.5q-9 88 -6 121q1 19 1 59t1 58q1 26 1 80t1 83q0 37 -4 115q0 27 -1.5 150.5t-3.5 185.5q2 49 2 137q-4 14 -2 21q6 24 80 24q5 0 19.5 -1.5t21.5 -0.5q4 0 11 1t10 1q5 1 18 -1t19 -1q-2 -5 1 -5q2 0 3 1 q1 -11 7.5 -44t8.5 -54q58 71 152 108q9 -3 16 4q8 1 41.5 3.5t46.5 3t37 -1t45 -5.5l2 -1q-2 -2 0 -3q9 2 22.5 -4.5t18.5 -7.5q11 -11 16 -12zM471 1022q-83 -34 -131 -82q-6 -6 -11.5 -14t-11.5 -18.5t-10 -16.5q-3 2 -9 0t-9 0q-8 69 -21 123q-9 0 -74 0.5t-71 -4.5 q2 -18 2 -121q-2 -41 0.5 -118t1.5 -112q-1 -61 2.5 -190.5t1.5 -198.5l-6 -82q0 -146 2 -172q128 -8 205 2v82q-4 24 -4 39q0 17 -1 58.5t-1 62.5q0 9 2 26.5t2 26.5q0 48 -4 138q-5 103 -4 124q3 55 16 103l6 33q1 3 5.5 9.5t6 10t3 11t-2.5 10.5q67 85 183 82 q10 -1 39 -5t43 -4q12 30 31 98.5t24 84.5q-15 9 -33.5 14.5t-44 6t-41.5 0t-46.5 -3t-39.5 -3.5z" />
<glyph unicode="s" horiz-adv-x="878" d="M756 856l6 -16q4 -12 4 -19q16 -52 16 -110q0 -3 0.5 -9t0.5 -9.5t-1 -7.5t-4 -7q-4 -4 -18 -4q-14 -4 -34.5 -6t-34 -2.5t-42.5 0t-37 0.5q-18 0 -26 -2q-33 -4 -45 10q-1 7 -2 23.5t-2 25t-3.5 21t-7.5 21.5t-12 17q-35 35 -59 37q-3 0 -8.5 -1t-8.5 -1q-6 0 -16.5 3 t-15.5 3q-37 2 -60 -24.5t-16 -69.5q1 -4 5 -12t5 -17q45 -53 139 -104q19 -7 48 -21t40 -18q20 -6 37 -16l31 -21q12 -6 31 -22l22 -17l33 -37q60 -70 70 -159q4 -22 4 -45t-11 -41q-7 -43 -47 -97q-41 -56 -69 -73q-21 -13 -76 -29l-45 -12l-17 -4q-16 -1 -55 -8.5 t-61 -6.5q-4 0 -11.5 1t-11.5 1q-78 6 -139 33q-62 29 -96 68q-24 33 -41 90q-22 60 -27 100v43q0 1 -1.5 6t-2 8.5t1.5 8.5q2 3 7.5 3.5t11.5 0t12 0.5q5 0 14 2.5t12 3.5q38 5 61 4.5t65 -3.5t61 -3q2 -12 5 -38t7.5 -43.5t13.5 -29.5q23 -29 75 -31t85 23q1 2 5 6.5 t5.5 7t4 6.5t4 7.5t3 8t1.5 10v11.5q-1 21 -9 37t-23.5 27.5t-29 18.5t-35.5 16.5t-34 15.5q-82 42 -89 47q-7 4 -27.5 20t-33.5 21q-13 12 -50 42.5t-59.5 56t-35.5 57.5q-3 3 -6.5 10t-6.5 10q-1 5 -6 31t-6 41q-2 6 -2 18q-10 54 16 129l7 15q12 21 38 51q57 67 140 90 q4 1 26.5 9t34.5 10t26.5 3t31.5 1.5t26 1.5q8 2 29 2h14q12 0 23.5 -2t25 -6.5t21.5 -7t24.5 -10.5t20.5 -10t24 -12.5t21 -11.5l12 -6q3 -2 12.5 -7.5t12.5 -8.5l10 -10q61 -61 74 -107zM756 797q-1 4 -6.5 15.5t-6.5 18.5l-6 21q-1 5 -4 11.5t-4 8.5q-8 25 -47 60l-12 14 l-13 12l-14 11q-45 31 -94 45q-2 1 -2 5t-2 5q-41 12 -80 12q-17 0 -25 -2q-38 0 -100 -10h-10q-1 0 -2.5 -1t-4 -2.5t-4.5 -2.5l-26 -8q-54 -16 -96 -49q-5 -6 -28 -30.5t-35 -42.5t-17 -40q-2 -5 -3 -16t-3 -17l-4 -3q-4 -3 -5 -5q4 -99 19 -145q10 -38 57 -89l33 -30 q3 -2 8 -8.5t8 -8.5q19 -10 25 -14l22 -20q3 -3 11.5 -8.5t11.5 -8.5q17 -10 43 -33l78 -34q6 -3 29.5 -14t33.5 -16t26 -15.5t28 -20.5q26 -41 20 -96q-4 -8 -16.5 -23t-14.5 -18q-43 -34 -110 -31q-30 2 -49 16q-3 3 -10 8t-9 7q-15 20 -20 35q-3 13 -6.5 42.5t-4.5 36.5 q-18 -2 -56.5 1t-75 2.5t-62.5 -11.5q-7 4 -15 0q-3 -79 31 -157q19 -52 37 -72q2 -2 19 -14l18 -17q60 -46 166 -59q6 -2 20 -2q32 -5 41 -2q1 0 19 6q36 2 106 18l21 6l37 13q41 17 67 43q17 18 25 30q3 4 10 13.5t10.5 14t9 13t8.5 14.5t6.5 14.5t4.5 16.5q7 12 10.5 27 t4 27t-3 31.5t-5.5 28t-8.5 30.5t-7.5 26q-13 17 -15 31q-5 7 -30 37q-33 39 -39 43q-2 2 -11.5 8.5t-11.5 12.5q-12 6 -34.5 20t-43.5 24.5t-43 14.5q-13 9 -71 37q-36 17 -68 43q-59 47 -72 80q-15 42 19 100q29 20 49.5 27t48.5 0q24 3 33.5 0t27.5 -14.5t25 -14.5 q2 -3 14 -18.5t17 -28.5q3 -9 6 -38.5t10 -39.5q2 -2 7 -1.5t10 -2.5q22 4 97.5 2.5t88.5 11.5q0 70 -10 103z" />
<glyph unicode="t" horiz-adv-x="745" d="M438 1274q8 -13 15 -17q-1 -24 4.5 -116t-2.5 -115q25 -1 69 0.5t56 1.5q20 -4 32 -4q33 5 43 0q5 -23 9 -88q3 -67 -2 -117q-1 -1 -8.5 -6t-8.5 -10q-106 -6 -188 -4q4 -4 4 -15q1 -16 0 -33t-3 -38.5t-3 -34.5q-1 -14 -0.5 -55t-1.5 -56q-1 -19 4 -133q0 -51 2 -76 q8 -65 20 -88q1 -2 -0.5 -5t-1.5 -5q37 -51 146 -51q7 0 24 2t29 2q3 -7 12 -4q4 -29 2.5 -98t3.5 -107q-2 -1 -5.5 -4t-6.5 -5t-6 -3q-5 -1 -11.5 0.5t-9.5 1.5t-8.5 -2t-9.5 -2q-5 -1 -15 0.5t-12 1.5h-102q-10 0 -31 3.5t-26 4.5q-18 6 -19 6q-46 11 -47 12 q-15 10 -16 11q-7 2 -13 4t-12.5 6t-11.5 6.5t-12 8t-10 8t-10.5 9.5t-9.5 9l-10.5 10.5l-9.5 9.5q-17 29 -30 78q-1 5 -6.5 29t-6.5 33q-1 7 0 12.5t-0.5 10t-5.5 7.5q6 88 0 166q-2 28 -2.5 80t-1.5 68q0 3 -1 8t-1 8v25q0 12 -1 48t-0.5 64.5t3.5 55.5q-13 5 -78.5 3 t-77.5 -1q-4 0 -4 10q-1 -3 -6 -1.5t-6 1.5q-6 96 4 192q0 1 4.5 7t3.5 12q22 3 78 6t70 4q4 66 4 227q1 1 8 15q136 10 221 6zM227 1249q2 -30 0.5 -96t-0.5 -84q0 -2 1 -18t0 -26.5t-5 -14.5q-4 -3 -12.5 -3.5t-19.5 0.5t-13 1q-3 0 -24 -3.5t-33 -3.5q-6 -1 -17.5 -1 t-20.5 -1t-15 -4q-8 -93 -5 -145q0 -6 1.5 -18t1.5 -17q14 -1 49 0t55 0q3 0 16 1t23 1t14 -2q3 -1 7.5 -7t7.5 -5q-6 -64 -2 -203l6 -192q0 -9 0.5 -38t0.5 -39.5t1 -36.5t2.5 -37.5t4 -33.5t6 -34t9 -30t12 -29t15.5 -23.5t20 -22.5l25 -21q64 -39 121 -49q9 -1 26 -3.5 t27 -2.5q20 -2 66 -2q72 0 94 4q-3 25 -2 84.5t-2 93.5q-15 1 -45 1t-54.5 2.5t-44.5 9.5q-12 3 -39 26q-23 19 -32 37q0 11 -2 17q-17 108 -17 190v48t-4 56q4 16 5 34t0.5 40.5t0.5 34.5q6 131 6 133q132 4 199 4q7 51 -2 185q-159 0 -203 -5q-4 7 -4 17t2 22t2 17 q2 47 1.5 69.5t-3.5 65.5t-4 61q-47 6 -203 -4z" />
<glyph unicode="u" horiz-adv-x="931" d="M160 86q-23 27 -31 43q-22 44 -32.5 109.5t-11.5 105.5t-1 129q5 270 4 318q-1 26 1.5 111t-1.5 110q69 34 227 10q3 -4 17 -8q0 -15 1.5 -43t1.5 -53.5t-3 -49.5q4 -6 4 -16q4 -87 2 -135q-1 -16 -1 -51.5t-1 -53.5q0 -14 -1 -28t-2.5 -31t-2.5 -27q0 -21 4 -75 q2 -14 2 -101q0 -6 0.5 -20.5t1.5 -22t2 -18t4 -18.5t8 -15q31 -54 111 -47q23 2 63 18q4 4 15.5 14.5t17.5 17t13 17t10 21.5q5 18 2 57q-1 16 0 47t0 45q-4 32 -4 48q0 27 -1 80.5t-1 99t2 86.5q10 147 2 254q10 5 21 6.5t29.5 2.5t22.5 1q33 2 113 -2q4 -1 12 -1t14.5 -1 t10.5 -4q6 3 18 0q2 -18 2 -107q7 -279 0 -489q0 -63 2 -94q0 -21 -2 -59.5t-2 -57.5q0 -8 2.5 -28t1.5 -31q0 -17 -1.5 -45.5t-1.5 -51t3 -43.5q-8 -10 -6 -18q-10 0 -12 -6q-17 0 -52 -1.5t-60 -0.5t-52 6q-2 11 -11 36.5t-11 41.5q-79 -76 -203 -84q-6 -1 -24 0.5 t-25 -0.5q-44 2 -105 22q-33 11 -49 23q-26 18 -57 57zM104 569q-2 -31 -2 -90q0 -7 0.5 -41.5t1 -46.5t2 -44t3 -48t5 -44t8.5 -46.5t12 -40t16 -39.5q48 -60 71 -80l12 -14q1 -1 50 -19q8 -2 25 -7.5t24 -6.5q76 -11 148.5 7.5t119.5 62.5q4 3 12 14t15 14q9 -3 14 -22.5 t8 -24.5q8 -35 17 -51q101 -4 143 6q0 7 -4 31q0 7 2 23t2 24v37q0 5 1 15.5t1 15.5q1 6 0 14t-3 18l-3 15q0 15 4 47q0 11 -0.5 29t-0.5 32t1 27q0 24 -4 78q0 5 2 13.5t2 12.5q0 7 -1 21.5t-1 21.5q4 241 -2 430q4 19 0 88q-92 10 -201 3q-2 -27 -2 -86q1 -50 0.5 -75 t-3 -76.5t-3.5 -76.5q0 -16 1 -49t1 -49q-2 -122 8 -291q-9 -5 -10 -6q-11 -46 -53 -76t-97 -29q-12 0 -23.5 2.5t-18.5 5t-20 8t-19 7.5q-4 5 -14.5 15.5t-17 20t-9.5 21.5q-5 22 -5 109q0 13 -1 27t-2.5 30.5t-2.5 26.5q-1 41 -1 55.5t2 55.5t3 55q4 129 -4 375 q-113 22 -204 -3q1 -37 -1 -107.5t-2 -98.5q0 -37 -1 -113t-1 -113z" />
<glyph unicode="v" horiz-adv-x="890" d="M197 469q-4 14 -15.5 49t-17.5 57q-15 56 -41.5 163t-36.5 145l-16 61q-2 10 -7 26t-8.5 31t-3.5 31q6 -2 17.5 1t15.5 3q51 2 70 1.5t71 -7t70 -8.5q59 -193 74 -287q12 -78 12 -80q6 -24 16 -70.5t19 -83.5t20 -69q12 41 34 129t34 133q27 113 45 205q2 11 8 32.5 t10 40t6 36.5v24q43 7 158 2q41 0 49 -4q26 0 58 -8q4 -17 -7 -23q-4 -18 -28 -112l-9 -36t-11.5 -43.5t-10.5 -35.5q-5 -21 -17.5 -58.5t-17.5 -54.5q-5 -21 -16.5 -58.5t-15.5 -53.5q-15 -48 -29 -121q-9 -49 -58 -236q-5 -18 -18 -54t-18 -54q-1 -10 -8.5 -38.5 t-4.5 -43.5q-81 -9 -155 -6q-26 0 -88 4q-4 9 -7.5 20t-6.5 24.5t-5 20.5q-6 12 -6 13q-2 6 -4 21t-4 22q-6 27 -25 82q-7 43 -14 75l-4.5 9t-3.5 10q-1 3 -1 9t-1 9q-1 2 -4 9t-4 12q-7 36 -25 92zM131 784q1 -6 5 -18t5 -16q55 -221 72 -273q5 -18 20 -61.5t21 -67.5 q2 -7 6.5 -33t9.5 -39q8 -25 15 -69q1 -3 5 -12.5t5 -14.5q6 -18 12.5 -50.5t9.5 -43.5q2 -8 11 -27l10 -45q115 -6 209 2q1 12 7 33t7 25l17 57q11 33 14 39q25 78 37 135q23 89 28 113q2 11 4.5 31.5t4.5 31.5q2 9 8 28t8 28q14 55 43 151t37 123q8 33 26.5 98.5 t26.5 98.5q-154 13 -221 6q-10 -42 -33 -150t-39 -168q-6 -29 -27.5 -110t-29.5 -125q-1 -3 -5 -24.5t-9 -37t-9 -16.5q-8 -1 -13 7.5t-7 21.5q-2 9 -6.5 22.5l-5.5 16.5q-9 28 -17.5 61t-13.5 56t-12 61.5t-11 56.5q-25 161 -75 320q-19 2 -53 6t-55 6t-49.5 1.5 t-53.5 -5.5q10 -32 61 -230z" />
<glyph unicode="w" horiz-adv-x="1296" d="M1214 1024q23 0 29 -8q2 -3 -1 -9.5t-7 -7.5q-16 -79 -36.5 -168.5t-35.5 -148.5t-41.5 -163.5t-38.5 -151.5q-27 -107 -36 -172q-4 -30 -17.5 -85.5t-15.5 -66.5q-6 -6 -8 -14t-1 -15t-1 -18q-29 -4 -119.5 -2.5t-116.5 0.5q-6 12 -10.5 26.5t-7 25t-6 28.5t-5.5 26 l-12 45q-8 27 -22 115q-3 17 -15.5 71.5t-17.5 84.5h-2v2h2q-2 14 -11.5 48t-11.5 54q-15 -64 -114 -508q1 -3 -3 -20q-31 -3 -133 2q-9 1 -30.5 1t-40.5 1.5t-35 5.5q-21 56 -39 141q-1 3 -5 11.5t-5 13.5l-11 39q-3 13 -9.5 55.5t-12.5 63.5q-1 5 -4 11.5t-4 8.5l-23 107 l-8 36q-3 13 -10.5 35.5l-9.5 28.5l-5 29q-4 15 -18 68t-20 81l-15 55l-6 48q-4 20 -13.5 62.5t-13.5 66.5q-2 8 -3 23.5t-3 23.5q-4 13 -2 18q174 5 246 -10q12 -46 31 -140t30 -139l15 -47l8 -49q13 -54 20 -127q3 9 17 80q3 18 13 50.5t13 47.5q8 26 36.5 136.5 t47.5 164.5q0 1 0.5 4.5t0.5 6.5t-1 6q2 1 9 3t8 5q48 6 188 2q6 3 21 0q9 -23 17.5 -65t12.5 -56q10 -34 33 -135q3 -17 26 -114t29 -150q6 25 24 104.5t28 118.5q4 34 24 113l19 67q0 13 2 19q2 8 8 24.5t8 24.5q1 4 3 23t7 28q101 10 217 0zM1163 750q51 232 56 251 q-100 12 -209 3q-2 -14 -23 -97q-17 -63 -43.5 -182t-34.5 -154q-2 -11 -9 -48t-13 -56q-4 -21 -17 -23q-5 2 -6.5 6.5t-2.5 12.5t-1 10l-6 37q-8 62 -43 209l-66 280q-45 10 -190 5q-15 -35 -26.5 -75.5t-26 -99t-21.5 -84.5q-2 -9 -22 -83t-27 -115l-14 -58h-31 q-2 23 -29 175q-5 29 -19.5 83.5t-19.5 83.5q-3 15 -15.5 76t-20.5 94q-72 13 -209 9q4 -36 30 -158q3 -13 7.5 -42t7.5 -44q17 -77 18 -80q14 -38 17 -49q25 -112 45 -162q0 -32 22 -113l25 -122q4 -23 16 -64.5t14 -48.5q6 -31 33 -113q126 -4 203 -4q4 7 6 16.5t3.5 21.5 t2.5 18q1 10 3.5 20.5t7 23.5t6.5 21q8 43 28 133q2 9 12 54.5t17 68.5q7 26 41 186q9 9 18 9q17 -90 33 -158q-3 -9 4 -16q44 -243 84 -392q53 -4 209 0q0 16 9 40.5t10 27.5q9 27 12 45q2 8 2 21q6 22 12 68t12 69q3 10 14 53t17 63q12 8 4 21q8 37 29 114.5t29 110.5 l12 47l6 35z" />
<glyph unicode="x" horiz-adv-x="870" d="M819 1018v-10q0 -3 -1.5 -4t-4.5 -1.5t-4 -1.5l-18 -32q-20 -31 -38.5 -69t-40 -85t-34.5 -74l-84 -170l-14 -25q-13 -24 -13 -32q-1 -5 2.5 -13.5t11 -21t9.5 -16.5q1 -3 67 -154q3 -8 12.5 -24.5t12.5 -22.5q12 -29 47 -102q11 -24 45 -86q5 -9 13.5 -29t13.5 -29 q-1 -3 -2 -12t-6 -12q-59 2 -181 -2q-5 0 -21.5 1t-27.5 0.5t-16 -3.5q-1 1 -2 5.5t-2 6.5q-26 39 -56 113q-7 17 -26 55t-27 59q-10 -22 -51.5 -104t-60.5 -131q-51 -10 -150 -10h-15h-15.5h-14t-14.5 0.5t-12.5 1.5t-13.5 2.5t-12 3.5t-12.5 4.5t-11.5 5.5q1 11 5 23 t10.5 25.5t9.5 21.5q31 78 94 188q17 28 48 90t50 94q24 37 31 62q-1 2 -5 2t-5 2q-10 27 -36 79t-36 81l-129 252v8q-24 44 -37 80q5 2 3.5 10.5t0.5 13.5q24 6 129.5 4t120.5 -2q2 -1 9.5 -3.5t11.5 -6.5q0 -3 -2 -6.5t-2 -5.5q16 -37 56 -109.5t56 -111.5q56 103 90 186 l4 14q10 17 13 37q15 4 31 5t38 0.5t35 0.5q63 0 68 -2l80 -8q21 0 26 -6zM774 977q0 5 6.5 15t5.5 14q-118 12 -231 4q-3 -15 -9 -33t-11.5 -30t-15.5 -34t-15 -32q-4 -11 -31 -62l-14 -33q-21 -38 -37 -16q-18 41 -61 119.5t-62 122.5q-19 0 -57 1.5t-59 2t-53 0t-60 -3.5 q9 -27 57 -121l75 -150t97 -206q6 -3 10 -9.5t7 -16.5t6 -15q-17 -27 -44.5 -78.5t-39.5 -71.5q-5 -8 -25 -53q-1 -2 -37 -62q-22 -37 -54.5 -109t-41.5 -89l6 -11l-16 -12q100 -14 192 -2q28 4 45 4q5 11 16 38t21 46.5t21 36.5q6 16 24 49.5t21 40.5q2 4 4.5 12.5t5 13 t6.5 5.5q5 2 12 -3t11 -3q79 -177 106 -226q2 -2 0 -6q-1 -4 2 -4q147 4 223 2q-14 32 -45.5 95t-46.5 94q-19 44 -33 69q-10 16 -19 35t-18.5 43t-15.5 37q-5 12 -19 40.5t-24 51t-14 41.5l55 115l57 115q9 19 26.5 57.5t28 61.5t28 54t34.5 56z" />
<glyph unicode="y" horiz-adv-x="931" d="M870 1030q6 -2 7.5 -8.5t0 -13t-4.5 -15t-3 -10.5h-4q0 -4 -2 -6h2q-18 -81 -55 -203q-4 -16 -14.5 -48t-14.5 -48q-3 -10 -14.5 -58t-19.5 -73q-43 -131 -58 -182q-9 -34 -45 -144q-23 -75 -24 -96v-12l-9 -29q-2 -6 -4 -18t-2 -13q-3 -8 -10.5 -24.5t-12 -30 t-5.5 -27.5q-19 -38 -35 -110q-4 -14 -10.5 -31t-11.5 -28t-15 -30.5t-14 -27.5q-18 -35 -31 -53q-3 -4 -19.5 -17.5t-21.5 -23.5q-69 -33 -164 -45l-29 -6q-18 -2 -55 -3.5t-55 -3.5q-1 3 -6.5 6.5t-6.5 6.5q0 12 -2 43t-2.5 49t1 45t5.5 49q5 3 12.5 3.5t17.5 -0.5t14 -1 q13 -1 39 2.5t36 1.5q51 26 66 58l4 14l6 6l4 21q1 4 5 12t5 12q5 12 9 29q2 7 6.5 19t7 21t2.5 15q0 5 -2.5 12.5t-6.5 16t-5 12.5q-4 14 -10.5 44t-10.5 44q-6 23 -23 67.5t-22 59.5q0 2 -2 11.5t-4 15.5l-6 30q-8 25 -10 41q-2 7 -8 23.5t-7 24.5q-7 39 -12 53 q-1 4 -5 12l-5 10q-4 9 -8 35q-20 56 -50 160q-3 13 -14 49.5t-16 56.5q-7 36 -15 62l-8 16q0 3 -1 10t-1 11.5t-2 10t-6 9.5l-14 68q-5 15 -5 18q-1 5 -5 16t-4 14.5t3 16.5q26 1 120.5 -0.5t113.5 4.5q3 -6 10 -6q3 -6 4 -13t1 -16.5t1 -15.5q2 0 2 -10q6 -20 24.5 -77.5 t26.5 -88.5l4 -18l5 -17q0 -1 2 -3.5t2 -4.5l4 -8q29 -125 33 -137q2 -9 7 -24.5t7 -20.5q28 -111 41 -138q8 21 26.5 91t32.5 100v10q9 17 19 51.5t14 44.5q-2 1 -0.5 5.5t4.5 5.5q7 22 18.5 68.5t18.5 68.5l8 18q2 5 3 16.5t3 16.5l2 2v14l9 23q-4 7 2 10q2 4 2 16 q8 20 8 29q5 1 57 6q1 1 6 -4q1 1 1 3q1 2 3 1q48 3 170 -6zM850 985q0 9 8 25q-71 13 -205 6q-1 0 -2 -1t-2 -1q-2 -4 -4 -14.5t-4 -14.5q0 -8 -2 -10q-8 -32 -25 -91t-22 -79q-32 -121 -45 -158q-44 -124 -66 -211q0 -2 -0.5 -5.5t-0.5 -5.5t-0.5 -5.5t-1 -5.5t-1.5 -5 t-2 -4t-2.5 -3.5t-3.5 -2t-4.5 -1t-5.5 0.5q-33 79 -80 263q-17 71 -90 311q-5 0 -2 14q0 6 -2 15t-2 14q-102 -3 -209 0q8 -29 14 -66q2 -12 9 -32t9 -29q6 -19 15 -58q12 -40 12 -55q6 -14 14.5 -43t12.5 -39q5 -17 20 -75t26.5 -95t26.5 -71q0 -19 11 -37q2 -20 14 -72 q10 -34 21 -65l22 -70q33 -106 39 -137l8 -31q9 -20 12 -43q-6 -16 -14 -43.5t-10 -34.5q-1 -4 -5 -11t-5 -11q-1 -2 -1 -8.5t-1 -8.5l-17 -33q-22 -40 -74 -67q-14 -1 -37 -3.5t-34.5 -3t-38.5 0.5q-8 -66 4 -160q124 -5 254 41q33 10 63 47q16 18 41 70q4 8 12 23t14.5 28 t10.5 26q17 72 19 76q4 13 13 38t13 38q1 2 1.5 9.5t2.5 13.5q2 7 9.5 22t9.5 23q3 8 6 24.5t6 24.5q11 43 10 51q3 8 19.5 64.5t30.5 87.5q1 11 4.5 23t9 27.5t8.5 24.5v9q1 10 6 14v12l6 10q9 36 15 45q6 34 18 64q9 25 24 86t27 92q4 25 8 31l25 84q5 20 8 26l15 58 l12 47v2q0 1 1 3t1 3v2z" />
<glyph unicode="z" horiz-adv-x="823" d="M203 426l47 74q36 51 99 151t93 144q-199 7 -360 10q0 2 -1 6t-1.5 5.5t-3 3.5t-6.5 3q1 26 -2.5 95t0.5 98l12 14q36 3 227 8q1 0 2 1t2 1q27 0 59.5 -1t73 -2.5t62.5 -2.5q26 -2 80 2q29 1 86 -0.5t78 -1.5q5 -34 10 -127q3 -22 0 -41q0 -29 -2 -43q-1 -16 -15.5 -39 t-17.5 -34q-4 0 -6 -5.5t-6 -5.5q-5 -14 -13 -28.5t-15 -24t-18.5 -25.5t-17.5 -24q-17 -24 -61 -94.5t-72 -104.5l-35 -47q-34 -46 -35 -47q-3 -5 -9.5 -16t-10.5 -17q-31 -39 -61 -94q233 4 313 0q61 0 78 -6q0 -20 3 -66.5t2 -81.5t-9 -63q-9 -4 -21 -5t-28.5 -0.5 t-24.5 -0.5q-17 -2 -55 2q-90 1 -272 -2t-265 -2q-10 10 -16 12q-7 52 -2 191q1 3 -2.5 6t-4.5 4q16 28 49 78t46 71q13 23 47 72zM403 700q-22 -32 -77 -122l-140 -211q-13 -19 -37.5 -61t-37.5 -62q-19 -24 -21 -31q-2 -8 -2.5 -27t-1.5 -24q0 -6 -1 -42.5t0 -60.5t5 -47 q64 -3 125 0h80q32 0 98.5 1t124 1t107.5 -2q79 -4 108 4q6 23 7 51.5t-1 69.5t-2 58q-191 12 -381 0q-1 7 -6 11t-6 7q-2 10 18 43q4 7 14 19t13 18q58 88 103 145q5 5 51 72q21 28 55.5 83.5t44.5 70.5q67 94 94 153q2 2 -1 4t-1 4q5 46 5.5 64.5t-3 65t-4.5 61.5 q-9 -1 -33 0.5t-28 -0.5q-11 -2 -42 -0.5t-44 0.5q-14 0 -40.5 -1t-48.5 -1t-42 2q-111 2 -123.5 3t-125.5 -4t-120 -5q-1 -27 0 -57t3 -67.5t3 -62.5q64 1 183.5 -2.5t168.5 -3.5q3 -4 11.5 -5.5t9.5 -6.5q1 -4 -3 -11.5t-5 -11.5q-9 -8 -22.5 -30t-22.5 -31q0 -5 -4 -10.5 t-5 -10.5z" />
<glyph unicode="{" horiz-adv-x="565" d="M176 565q-13 24 -37 45t-41 31t-53 29q-10 42 8 118l9 2q8 2 8 -2q11 9 32 24t33 24q23 23 31 57q2 5 8 21.5t8.5 27.5t3.5 23q2 25 -16 98q-3 16 -7 49t-7 49q0 8 -2.5 19.5t-3.5 15.5l-5 33q-1 11 -5 33t-5 34q0 10 1 21.5t2.5 25t2.5 21.5q7 58 35 121q15 43 23 57 q11 18 55 62q5 5 17 13.5t14 10.5l34 23q8 4 68 18q61 12 94 10q3 -1 7 -7t8 -7q5 -21 6.5 -46.5t1.5 -41.5t-2 -47t-2 -41q-6 -6 -13.5 -9.5t-17.5 -6t-16 -5.5q-6 -6 -9 -6q-34 -15 -45 -32q-10 -13 -19 -39.5t-11 -47.5q-1 -13 4 -79v-27l12 -66q5 -41 8 -49 q6 -22 10 -92l7 -78q1 -16 -13 -80q-4 -9 -20 -57q-4 -8 -9 -15.5t-12 -16.5t-10 -13q-4 -3 -21 -18t-28 -21q7 -9 43 -45q21 -21 33 -55q31 -75 33 -133q3 -66 -7 -146q-15 -120 -16 -155q0 -70 4 -91q5 -25 19.5 -55t31.5 -47q26 -26 47 -35q5 -3 31 -10q12 -65 0 -178 q-2 -4 -4.5 -6.5t-6 -4t-7 -2t-8.5 -0.5t-8.5 0.5t-9.5 2t-9 2t-9 2t-8 2.5q-94 11 -145 47q-8 4 -19.5 16.5t-17.5 16.5q-67 67 -82 125l-12 55q-8 25 -12 57v76q0 55 2 82l10 80q1 8 6 23t6 22q4 36 4 53q1 11 4 35.5t3 34t-3 28.5q-1 5 -4 12t-4 9q-1 1 -6 16zM66 770 q1 -14 -3.5 -47t0.5 -45q68 -37 89 -60q43 -39 57 -86q4 -16 0 -63q-3 -15 -4 -44.5t-4 -45.5l-17 -86q-10 -82 -8 -139q1 -9 0 -30t0 -30q2 -20 14 -55l11 -57q12 -48 63 -99l49 -41q5 -3 16.5 -10t20.5 -12q15 -8 56 -19l30 -8h19q4 -1 19 -4.5t24 -3.5q11 101 2 160 q-7 0 -15 4.5t-14 5.5q-73 58 -92 108q-17 43 -17 125q0 42 10.5 116t12.5 93q11 174 -47 265q-7 7 -20.5 22t-24.5 25.5t-23 17.5q7 9 40.5 36t43.5 50q10 17 19 53q14 37 16 56q2 20 1.5 29.5t-3.5 27.5t-4 27q0 37 -2 55q-9 53 -12 104q-1 5 -8.5 32.5t-8.5 41.5v27 q-4 20 -4 28q0 4 1 16t1 19v35q3 9 21 51q1 1 8 23q6 8 13.5 15t13 11.5t18 10.5t16.5 8t20.5 8.5t18.5 7.5q10 83 0 148q0 16 -4 16l-43 -4l-35 -8q-3 -1 -28 -6t-39 -11q-35 -18 -66 -49q-41 -41 -53 -61q-5 -20 -21.5 -55t-21.5 -54q-10 -58 -10 -100q0 -3 -1.5 -10.5 t-0.5 -10.5q0 -36 12 -102q2 -9 25 -145q13 -68 12 -82q0 -49 -27 -93l-6 -20q-19 -28 -61 -53q-4 -3 -10.5 -8t-11 -8t-11 -7t-12.5 -6z" />
<glyph unicode="|" horiz-adv-x="428" d="M127 -307q-3 3 -3 6.5t1.5 8.5t1.5 9t-2 13t-2 12q0 24 2 73t2 74q0 46 4 140q0 24 -2 69.5t-2 69.5v221q4 63 -4 96q3 13 2 47t2 52q0 6 4 10q-4 157 0 205q3 32 3.5 65.5t-0.5 79.5t-1 66q0 69 -4 213q-1 34 1.5 101.5t2.5 98.5q0 23 -2.5 67t-2 79t6.5 67q68 13 158 2 q4 -61 0 -256q0 -2 1 -12t0 -16.5t-5 -12.5q-6 -61 0 -124q3 -24 1 -68t1 -68q4 -50 4 -73q0 -8 -1.5 -34t-0.5 -40q0 -3 3 -9.5t3 -9.5q5 -3 1.5 -27.5t-3.5 -27.5q0 -9 1 -27.5t1 -27.5q0 -11 -2 -30t-2 -30q0 -9 -1 -26.5t-1 -26.5q0 -17 1 -36.5t2.5 -43.5t2.5 -37 q0 -5 -2 -15t-2 -15q1 -4 2 -8.5t1.5 -7t0.5 -3.5q1 -11 0 -34.5t0 -36.5v-72q-1 -13 1.5 -46t-1.5 -44q7 -89 4 -225q-1 -37 -1 -112t-1 -112q0 -8 -1 -25.5t-1 -25.5l-6 -106q-60 -16 -111 -9q-46 0 -55 15zM147 635q0 -13 2 -48t1 -55q0 -24 -7 -75q-3 -21 -3 -44 t1.5 -49t1.5 -38v-78q0 -12 1 -42t1 -46q0 -2 5 -60v-34q0 -20 -2.5 -62.5t-2.5 -64.5q-1 -38 -1 -119t-1 -117q79 -12 131 -4q6 86 11 422q1 50 -0.5 144t-1.5 128q0 14 1.5 41t1.5 49t-3 41q0 9 -5 23.5t-6 21.5q-1 18 0.5 53t1.5 46q1 29 4 85.5t3 84.5q0 53 -2 84 q-4 30 -4.5 90t-0.5 69q-1 13 -1 41t-1 43q-5 120 -4 142l4 61l7 12q3 14 3 30t-1.5 36t-1.5 31q2 41 2.5 52.5t-2.5 48t-3 44.5q-65 10 -129 -2q-6 -43 -1.5 -147t1.5 -148q-4 -101 -2 -151q6 -137 5 -152q0 -11 2 -34.5t2 -35.5q0 -37 -4.5 -107t-4.5 -106q0 -20 1 -53.5 t1 -50.5z" />
<glyph unicode="}" horiz-adv-x="561" d="M502 801q2 0 6 2.5t6 -2.5q7 -38 4 -119q-11 -10 -38 -25.5t-40 -29.5q-3 -3 -8.5 -13t-9.5 -14q-43 -62 -43 -129l8 -55q0 -4 -2 -11t-2 -10q1 -9 16 -78q3 -8 3.5 -24t3.5 -23q2 -8 7 -29t7.5 -37t1.5 -32q0 -7 -1 -19.5t-1 -19.5q0 -65 -4 -86q-8 -34 -23 -74 q-5 -8 -12 -21t-13 -22.5t-12 -17.5l-32 -41q-2 -2 -5.5 -4t-5 -4t-0.5 -6q-80 -76 -178 -84q-47 -4 -61 4q-23 95 -11 182q61 16 76 25q9 6 33 45q31 53 31 94q0 52 -8 96q-2 13 -5.5 60.5t-9.5 72.5q-1 8 -10.5 43.5t-9.5 53.5q-4 61 11 123.5t44 103.5t61 59 q-59 44 -88.5 96.5t-25.5 137.5q3 46 15.5 137t15.5 137q10 99 -17 158q-22 48 -59 80q-3 1 -6.5 0t-6.5 0q-7 5 -26 11t-27 11q-13 122 -6 176q94 27 219 -53q45 -27 76 -63q9 -13 21.5 -40t17.5 -36q3 -13 10 -34.5t10 -33.5q7 -19 11 -49q0 -11 -3.5 -34t-3.5 -36 q0 -4 2 -13t1 -15q0 -7 -1.5 -17.5t-1.5 -17.5l-10 -107q-2 -14 -6.5 -43t-7 -51t-2.5 -43q1 -42 17 -75t46 -72q6 -4 16 -12t11 -9q4 -4 17.5 -10t17.5 -14zM500 690q4 72 0 94q-55 30 -84 64q-38 38 -51 96q-9 46 2 131q15 107 16 131q0 29 2 45q2 14 2 47q0 10 1.5 29.5 t1.5 35.5t-3 30q-3 11 -10 31.5t-10 31.5q-6 32 -7 33l-8 10v6l-2 2q-2 0 -2 2q-6 18 -29 50q-50 43 -100 73q-89 44 -156 33v-29v-32.5t1 -26.5t3.5 -32t6.5 -27q4 0 10 -2.5t10 -2.5q23 -13 32 -19t23 -21t21 -33q14 -10 25 -35q7 -12 12 -31q3 -6 4 -13t1 -15t1 -13 q5 -67 -11 -177t-18 -136q0 -12 -2 -30t-2 -25q-8 -122 90 -199q31 -23 31 -29q1 -6 -6.5 -12.5t-19.5 -13.5t-15 -9q-22 -22 -37 -49q-13 -16 -16 -26q-4 -5 -8 -33q-28 -82 -21 -145q3 -18 11.5 -52t11.5 -51q4 -21 6.5 -56t5.5 -50q1 -15 4.5 -45t4.5 -44.5t0 -38 t-7 -46.5q-36 -64 -55 -82q-31 -32 -78 -37q-4 -94 10 -162q95 3 162 47q50 35 92 100l16 31q29 47 33 64q4 14 5.5 29.5t1.5 25.5t-0.5 29t-0.5 28q0 5 1 14t1 13q0 32 -10 84q-4 15 -9 42.5t-7 37.5q-10 45 -10 78q0 11 -4 39t-3 45q4 47 23 79q19 44 41 66q32 32 76 53z " />
<glyph unicode="~" horiz-adv-x="1239" d="M1061 717l31 -19q14 -8 24 -22q-3 -45 -26 -78q-2 -20 -19 -49q-6 -10 -14.5 -19t-22 -21.5t-20.5 -19.5q-20 -20 -45 -34q-105 -33 -152 -33q-2 0 -30.5 -1t-30.5 1q-6 0 -13 1t-15 2.5t-13 2.5q-7 1 -19.5 1t-19.5 1l-29 8l-42 14t-53 16t-48 9h-60q-96 -21 -125 -69 q-3 -3 -5.5 -11.5t-6.5 -11.5q-31 3 -93 11.5t-87 11.5q-3 8 -3 25.5t-1 21.5q1 3 7 19l7.5 20t7 18t8 18.5t8 16.5t8.5 17.5t8.5 15t10.5 15.5t11 13t12 13l16 14q69 59 162 67q64 7 152 -8q7 -1 20.5 -5t20.5 -5q83 -19 104 -25q129 -37 197 7q12 10 39 55l22 33 q11 -1 33.5 -8.5t28.5 -8.5q8 -4 27.5 -10t27.5 -10zM1040 539q15 15 24.5 35.5t19.5 49.5t18 46q-19 16 -48.5 29t-48 18.5t-57.5 15.5q-15 -19 -18 -22q-11 -45 -51 -66.5t-93 -19.5q-31 0 -61 6q-10 1 -30 7.5t-27 8.5l-62 15q-14 2 -42.5 8t-50.5 9.5t-44 4.5 q-59 5 -86 0l-16 -6q-70 -12 -125 -55q-38 -38 -49 -56l-21 -37q-17 -40 -20 -51q-1 -3 -6.5 -14t-7.5 -20t-1 -19q63 -8 158 -25q8 24 27 43q20 20 55 35.5t69 16.5q27 2 55 -1.5t46 -8.5t47 -14t43 -13q57 -14 108 -19q43 -3 84 0q19 0 56 11q82 17 114 45l19 24 q2 2 10.5 8t11.5 11z" />
<glyph unicode="&#xa1;" horiz-adv-x="493" d="M367 -330v-22q-3 -8 1.5 -29.5t-1.5 -26.5q-4 -6 -10.5 -7t-16 0.5t-14.5 0.5q-11 0 -13 -2q-8 0 -21 -0.5t-25.5 -0.5t-26.5 1q-9 0 -27.5 2t-26.5 2h-23t-26 4q-2 58 -2 82t2.5 82.5t3.5 81.5q0 37 1 78.5t2.5 92t2.5 81.5q0 28 4 167.5t3 211.5q-2 23 -2 66 q0 6 2.5 30.5t2 30t-2.5 31.5q35 12 93.5 15t96.5 -5q-1 -24 6 -66.5t8 -58.5q0 -14 -1 -40t-1 -38t-1 -35.5t-1 -36.5q-1 -24 1.5 -69t2.5 -66q0 -16 1.5 -69t0.5 -82q-4 -124 2 -201q5 -62 5 -205zM158 -223l-4 -172q18 0 52 -1.5t52.5 -2t45 0t48.5 3.5q-3 49 -4 137.5 t-4 136.5q-2 82 -2 246q0 44 -2 129t-2 129q2 41 2 123q0 39 -12 117q-100 11 -158 -9q2 -19 2 -26.5t-2.5 -25t-3.5 -23.5q-1 -28 2 -74.5t2 -69.5l-4 -172q-4 -47 -4 -124v-95q-4 -152 -4 -227zM131 803q0 20 -4 55.5t-4 52.5q0 55 10 113q54 16 166 12q6 0 17 -1 t15.5 -1.5t11 -2t11.5 -5.5q11 -86 11 -152q0 -14 -11 -71q-7 -3 -41 -8q-90 -10 -172 2q0 4 -5 5zM152 1012q-17 -62 -2 -199q75 -10 188 2q17 80 -2 199q-67 9 -184 -2z" />
<glyph unicode="&#xa2;" horiz-adv-x="907" d="M811 571q3 -1 4.5 -3.5t3 -6.5t2.5 -6q11 -78 -28 -182q0 -3 -7 -6q-21 -65 -98 -119q-98 -55 -141 -68q6 -59 2 -170q-3 -3 -5.5 -12.5t-4.5 -11.5q-23 2 -77.5 3.5t-86.5 4.5q5 161 4 190q-29 5 -76 25.5t-55 23.5q-14 9 -27 20t-28.5 25.5t-24.5 22.5q-5 11 -21 33 t-22 35q-3 13 -12.5 39t-12.5 41q-6 31 -6 100q-6 75 -6 76v133q-1 17 -3 57.5t-2 55t1 51.5q3 31 15.5 61t31.5 62.5t27 50.5q2 1 5 6l3 4q2 10 8.5 19.5t10 13t16.5 13.5t14 11q5 4 17 14.5t18 12.5q2 1 6.5 2t5.5 2q5 2 23 10.5t27 12.5t25 9t30 7q0 1 6 88q2 27 2 94 q4 3 5.5 12t4.5 13q40 8 115 4q24 0 28 -2q3 -2 5 -11t6 -10q2 -61 2 -184q59 -9 106 -41h10q62 -46 88 -76q2 -2 9.5 -10.5t9.5 -13.5q68 -122 53 -254q-2 -4 -8.5 -5.5t-9.5 3.5q-30 -16 -115 -11q-8 0 -26 3t-27 2q-7 0 -17 -1.5t-17 -1t-13 4.5q0 1 4 10q-8 4 -8 6 q9 86 -23 123q-31 23 -35 24h-8q-3 0 -9 3.5t-9 3.5q-37 11 -80 -2t-58 -39q-35 -52 -30 -211q0 -69 6 -168q0 -4 0.5 -18.5t1 -21l1.5 -19.5t2.5 -20.5t3 -18t4.5 -18.5t7 -15q13 -22 37 -25q27 -16 60.5 -21t68.5 7q8 3 15.5 8t15.5 11.5t12 8.5q0 3 -2.5 6t-1.5 5 q14 16 18 61.5t9 58.5q3 2 9.5 9t12.5 8q21 6 84 0q24 6 64.5 -0.5t58.5 -5.5q3 -10 -4 -15zM739 317q89 146 60 250q-122 13 -193 8q-4 -13 -5 -44t-5 -46q-2 -9 -7 -20t-13 -25.5t-9 -17.5q-8 -4 -24 -16.5t-27 -16.5q-21 -7 -84 -2q-8 6 -28.5 15t-22.5 10q-3 1 -5.5 -1 t-4.5 -1q-4 1 -5 8l-1 6q-3 4 -12 8.5t-11 7.5q-3 3 -7 10.5t-7 10.5q-8 26 -10.5 56.5t-3 69t-1.5 56.5q-1 7 -2.5 19t-2.5 21.5t-1 18.5v107q0 26 4 72q2 15 6 28.5t11 31.5t10 26q25 45 82 61q2 0 8 1t8 1q83 4 123 -31h10q20 -31 29 -72t0 -75q17 1 46.5 -1t43.5 -1 q10 0 35 -1t42.5 -0.5t33.5 3.5q8 123 -49 225q-10 18 -22.5 31.5t-37.5 35.5t-28 25q-3 1 -6.5 0t-4.5 0q-65 45 -116 45q-7 10 -15 13q4 125 -2 192q-53 7 -125 0q3 -34 -1.5 -101.5t-4.5 -92.5q-2 -2 -10 -7t-10 -10q0 4 -7 4q-83 -18 -167 -92q0 -7 -13 -24 q-13 -18 -31 -55.5t-26 -51.5q0 -5 -5.5 -16t-6.5 -17q-4 -14 -5 -33.5t-0.5 -32t2 -40t1.5 -35.5q2 -45 1.5 -142.5t2.5 -140.5q3 -83 28 -153q8 -8 22 -32t23 -34q20 -15 25 -20q37 -43 76 -57h12q8 -3 31 -17q50 -20 78 -16q-5 -7 -6.5 -16t-2 -23t-0.5 -19 q0 -12 -1.5 -58.5t-0.5 -74.5l131 -4q3 25 3 58.5t-1.5 73.5t-1.5 57q23 3 50 18q77 36 106 57q4 3 15 10.5t16 12.5q3 2 10.5 11t13.5 11z" />
<glyph unicode="&#xa3;" horiz-adv-x="1261" d="M1122 369l13 -9q19 -98 -29 -192q-15 -28 -37.5 -53.5t-41 -41t-50.5 -40.5q-3 -2 -15 -10.5t-17 -11.5t-15.5 -8.5t-20.5 -9t-22 -5.5q-27 -8 -70 -8q-15 0 -29.5 3t-32 8t-28.5 7q-3 1 -8 1t-8 1q-3 0 -7.5 2t-7.5 2q-49 12 -71 25q-12 6 -47.5 25.5t-57.5 27.5l-28 12 q-55 31 -95 31q-3 0 -8.5 -1.5t-9.5 -1.5t-8 3q-40 -13 -63 -42.5t-19 -74.5q-23 -18 -105 -18q-20 1 -57 5t-53 5q-20 16 -6 90q15 64 16 66q8 27 27.5 62.5t25.5 49.5q7 6 22 22.5t25 24.5q25 22 62 31q11 141 0 313q-69 4 -115 -4q-13 64 0 166q-6 6 -6 21q16 3 56.5 1 t64.5 1q-5 91 -3 204t25 193q21 47 35 68q4 7 15 16t16 16q4 5 10 15.5t10 15.5q43 43 68 58q99 41 221 32q9 0 37 -4q17 -10 31 -10q4 -1 12 0t12 0q5 0 11 -4.5t8 -5.5q3 -3 10 -4t10 -4q45 -30 103 -80q53 -56 90 -144q28 -116 22 -194q-2 -1 -5.5 -3.5t-5.5 -2.5t-7 2 q3 -10 0 -13q-51 -12 -115 -10t-119 16q-4 16 -3 55t-3 60q-3 11 -10 31t-10 31q-32 23 -41 28q-63 19 -123 -12q-42 -18 -45 -64q-1 -13 0.5 -38t1.5 -35v-86q0 -8 2.5 -39.5t2 -39t-2.5 -38.5q90 0 139 -2q6 0 17 1.5t19.5 1.5t14.5 -3q3 0 3 -1.5t3 -2.5l8 -1q7 -1 11 -5 q15 -89 -6 -172q-12 -9 -23 2q-23 -3 -84.5 -3.5t-91.5 -4.5q1 -42 -3 -144.5t-1 -167.5q27 -4 49.5 -15t52 -31t41.5 -27q3 -1 15.5 -8t16.5 -9l16 -8t17.5 -8t17 -6t19 -5t18 -2.5t20.5 -1.5t20 2q23 3 39 21t23 36.5t15.5 48.5t14.5 44q5 2 47 8h47q3 0 6.5 -2t6.5 -2 q12 -3 49 -6.5t59 -11.5zM1087 176q43 78 31 178q-14 2 -44 7.5t-48 8.5t-48 5.5t-44 -2.5q-2 -1 -6.5 -3.5t-6.5 -2.5t-6 2q1 -13 0.5 -17t-7 -15.5t-7.5 -14.5t-1 -9.5t-1 -9.5q0 -3 -2.5 -6t-3.5 -6l-4 -17q-3 -6 -6.5 -11t-9 -10.5t-7.5 -8.5q-18 -22 -26 -27 q-6 -1 -24.5 -4t-31.5 -2q-35 2 -100 31q-13 7 -41 24t-45 25q-8 9 -20 16.5t-22 11t-28 8.5t-28 9l-6 18q0 21 -1.5 60.5t-1.5 73t3 63.5l6 63q0 5 -2 19t-2.5 22.5t2.5 18.5q7 14 82 14q20 0 58 1.5t62 0.5q14 92 0 141q-12 0 -93 0.5t-118 4.5q-5 6 -5 12.5t2 18t3 18.5 v22q-6 129 -6 135q0 61 2 88q3 44 33 70q27 19 64 33q50 10 94 -8q7 -3 17.5 -10.5t17.5 -10.5q46 -46 43 -139q-5 -37 0 -49q92 -23 217 -2q3 11 3 26.5t-1.5 24t-5 31.5t-4.5 28q-13 65 -17 80q-5 12 -17 35t-16 35q-42 56 -102 106l-70 43q-12 -2 -17 -1.5t-20 6.5t-22 8 q-48 14 -145 2q-37 -2 -80 -21q-49 -18 -66 -35q-23 -18 -47 -57q-11 -7 -33 -39q-18 -21 -24 -47q-12 -46 -18 -101t-6.5 -89t0.5 -108.5t1 -102.5q-7 -11 -24.5 -14t-48.5 -2t-41 1q-7 -50 -7 -143q24 -3 43.5 -0.5t41.5 1.5t36 -9q8 -42 4 -99q0 -17 2.5 -58.5t1.5 -63.5 q-4 -75 -10 -115q-46 -9 -76 -43q-30 -30 -43 -51l-1 -8q-1 -9 -5 -13q-3 -7 -11 -19.5t-11 -19.5q-23 -59 -33 -162q108 -16 184 -2q0 54 30 79.5t89 47.5q12 -1 25 -3.5t23 -5t24.5 -7.5t21 -7.5t22.5 -9.5t20 -9l22 -11l20 -10q15 -7 40.5 -21.5t41.5 -21.5q15 -7 46 -14 t48 -15q5 -1 19.5 -4t22.5 -4l20 -2.5t22.5 -1.5t20.5 2q3 0 7 2t7 2h10q23 0 60 21l41 26l53 37q7 6 14.5 13.5t12 13t11.5 16t9 14t9.5 16.5t8.5 15z" />
<glyph unicode="&#xa4;" horiz-adv-x="1366" d="M1210 143q31 -28 32 -40q1 -11 -13 -19q-8 -20 -25 -37.5t-30 -26.5t-39 -24q-2 0 -6.5 2.5t-8.5 1.5q-31 34 -100 96q-3 3 -8 8.5t-9 9.5t-8 7l-26 22q-13 13 -45 54q-19 -11 -78 -29q-92 -27 -211.5 -17t-190.5 58q-22 -19 -55 -57t-45 -50q-18 -19 -52.5 -52 t-45.5 -44q-31 2 -62 33q-29 22 -43 51q-3 4 -4.5 8t-3.5 10t-4 11q27 36 57 68.5t81 81.5t65 63l-19 33q-35 209 -8 335q6 58 27 93q-6 8 -13.5 16t-12 12.5t-14.5 13t-13 11.5q-16 13 -32 28t-34 34t-28 30.5t-31.5 35.5t-28.5 32q3 8 -2 12q7 12 14.5 22.5t19 21t18 16 t22.5 17.5l20 15q1 0 6 2t6 -2l9 10q36 -32 101 -96t101 -96q41 36 144 51q89 10 151 8q78 -6 197 -53q18 14 51 51q9 8 49 53l49 41l47 45q57 -26 93 -77q18 -30 16 -37q0 -4 -2.5 -7t-7.5 -7t-6 -5l-17 -20q-27 -27 -33 -37q-18 -20 -65.5 -64t-69.5 -71q44 -114 35 -267 q-12 -148 -39 -210q7 -7 75 -76.5t103 -102.5zM1135 14q57 34 92 90q-41 36 -113.5 109.5t-103.5 101.5q37 87 41 250q3 78 -9 144l-2 2q-3 3 -4.5 9t-2 13.5t-1.5 9.5q-3 6 -4.5 13.5t-2 15t-1.5 10.5q0 1 -4.5 7.5t-3.5 11.5q0 3 4 7t11 10.5t9 8.5q11 14 24.5 27.5 t30 28.5t23.5 22l101 109q-33 53 -89 88q-11 -11 -41.5 -40t-48.5 -48l-104 -103q-116 57 -240 60q-19 0 -40.5 -3t-49 -7.5t-43.5 -6.5q-67 -10 -100 -30q-2 -2 -7 -6.5t-8.5 -6.5t-7.5 -2q-2 1 -4 3t-2.5 1.5t-5.5 -2.5l-192 189q-4 -3 -17 -12t-18.5 -13t-16 -12.5 t-16.5 -15t-13.5 -16t-13.5 -19.5q31 -39 99 -107q16 -19 52 -49.5t52 -50.5q0 -4 -1 -6.5t-0.5 -3.5t3.5 -4q-36 -92 -33 -238q1 -13 1 -36t1 -41.5t4 -35.5q6 -61 33 -114q-145 -137 -205 -213q22 -49 91 -90q18 19 52.5 52t45.5 44t29 33.5t34 38.5t33 28v5.5t4 4.5 q4 -2 23.5 -11.5t32.5 -14.5q50 -23 133 -33q108 -11 215 16q64 15 80 31q3 0 6 -4.5t8 0.5q26 -33 58.5 -65.5t77.5 -73t65 -60.5zM797 705l12 -25q12 -24 16 -90q10 -101 -22 -162l-8 -10q-3 -4 -5 -8l-2 -4q-3 -3 -8.5 -5.5t-14 -6.5t-13.5 -7q-14 -3 -25 -12 q-22 -8 -57 -4q-59 4 -82 24l-29 17q-10 15 -14.5 31t-6.5 47t-3 42q0 8 -2 32t-2 37t1.5 32t6.5 33q4 11 16.5 27t15.5 28q63 44 123 37q76 -3 103 -53zM797 461q16 64 10 125q-9 74 -25 104q-12 24 -27.5 33t-49.5 14q-50 6 -113 -22q-28 -36 -35 -56q-6 -14 -7.5 -36 t-0.5 -38.5t3.5 -41t2.5 -31.5q5 -75 20 -92q20 -29 99 -33q12 0 24 2.5t16.5 4t18 7.5t15.5 7q4 3 14.5 6t13.5 6q5 4 21 41z" />
<glyph unicode="&#xa5;" horiz-adv-x="1019" d="M936 494q14 -10 13.5 -44.5t2.5 -54.5q-4 -18 -8 -51.5t-6 -46.5q-36 4 -197 -2q-8 0 -28 1t-34.5 0.5t-29.5 -3.5q-1 -25 0.5 -137.5t-2.5 -143.5q-5 -5 -8 -14q-39 -12 -88 -11.5t-76.5 5t-85.5 16.5q9 68 6 148q-13 102 -8 135q-30 1 -87.5 3t-105 3t-90.5 0 q-3 1 -5 4.5t-5 3.5q-21 72 -10 135l4 33q2 2 6 6.5t6.5 8.5t3.5 8q64 4 277 4q0 11 -1 35.5t-0.5 42.5t3.5 36q-40 -1 -122 3t-118 4h-32q-3 1 -6.5 6t-6.5 6q-9 18 -10 43.5t2 52.5q1 14 0.5 25t0 22.5t3.5 18.5q11 11 6 20q45 5 209 0q-92 217 -248 608l17 17 q78 12 129 12q26 0 69.5 -7.5t59.5 -8.5q4 -4 4 -13l12 -4q22 -57 74.5 -209.5t87.5 -234.5q35 98 43 115q8 20 21.5 57.5t21.5 56.5q10 23 30 70.5t35 84.5t27 73q65 23 133 23t133 -19q-2 -19 -22 -66q-32 -60 -70 -151q-7 -27 -59.5 -176.5t-81.5 -217.5q34 -4 106 -5.5 t107 -4.5q12 -69 10 -100q0 -8 -4 -47.5t0 -49.5q-49 -5 -147.5 -3.5t-151.5 -0.5q-5 -4 -1.5 -50t3.5 -62q204 -14 289 -8zM922 315q19 93 6 160h-70q-35 -1 -107.5 3.5t-105.5 4.5q-3 0 -3 4t-3 5q-5 -5 -12 2q2 18 2 25t-2.5 22.5t-3.5 23.5q0 4 1 14t1 15q0 3 0.5 7.5 t0.5 7.5t0.5 6.5t1.5 5.5t2.5 4t4 1.5t6.5 -1.5q1 1 0.5 3t0 3.5t3.5 1.5q46 3 138.5 1.5t142.5 2.5q0 14 1.5 40t2 40.5t0 36.5t-3.5 43q-25 2 -101 4t-116 8q-4 9 -1.5 20t3.5 14.5t6.5 13t7.5 15.5q14 36 47 138q2 7 20.5 58t26.5 79q17 48 41 104q5 11 33.5 75.5 t46.5 96.5q-149 29 -231 -6q-7 -24 -37 -94q-54 -121 -66 -156q-4 -9 -10 -28.5t-10 -28.5q-3 -9 -11.5 -26.5t-11.5 -26.5l-28 -84q-5 -19 -15 -25q-2 0 -7.5 1.5t-10.5 0.5q-49 121 -84 232l-41 118l-45 115q-8 1 -33.5 6t-37.5 6.5t-32.5 3.5t-38.5 1q-51 -3 -108 -13 q20 -35 61 -151q11 -24 30.5 -75t31.5 -77q11 -25 31 -75t32 -74q31 -66 62 -154q-1 -3 -4 -7t-4 -7q-26 -1 -105.5 1.5t-101.5 -1.5q-3 -8 -4 -17.5t-1 -23t-1 -21.5q-9 -53 6 -100q19 5 111 0.5t114 -4.5q6 0 25.5 2t30.5 1t14 -7q1 -3 -3 -9.5t-4 -9.5q-4 -20 -1.5 -55 t-0.5 -57q-3 -3 -5 -9.5t-5 -9.5h-280q-12 -36 -11.5 -82t11.5 -82q50 3 141 -2t139 -2q1 -4 8 -7t9 -5q-1 -37 3 -97t5.5 -94t-4.5 -88q131 -31 217 -10v260q0 15 4 31q3 0 4 2.5t4 3.5q16 8 47 8h234z" />
<glyph unicode="&#xa6;" horiz-adv-x="425" d="M272 494q11 -3 17.5 -13.5t7.5 -27t1 -31t-1.5 -34t-1.5 -28.5l3 -45t3 -54.5t0 -47.5q0 -23 -1 -70.5t-1 -72.5q-1 -28 0 -87t-0.5 -104t-7.5 -84q-3 -22 1 -61t1 -56q-71 -6 -154 0q-4 9 -4 46q-4 94 -4 151q0 35 -4 105q-1 40 1.5 111.5t2.5 96.5q0 28 -2.5 92 t-1.5 112t8 91q24 3 68.5 5.5t68.5 5.5zM137 834q-4 3 -5 9t-5 7q-8 197 2 432q1 36 -2.5 124t0.5 124q0 8 1 32t0.5 42t-3.5 34q36 7 98 7q42 4 62 -11q-7 -21 -1.5 -135.5t5.5 -128.5q-1 -26 -3 -81.5t-3 -101t0 -85.5q1 -28 -0.5 -130.5t2.5 -133.5q-18 -8 -73 -5t-75 1z M283 -123q0 2 -0.5 43t0.5 43q0 19 3.5 159t-1.5 163q0 23 -4 77q-3 18 -0.5 56.5t-1.5 56.5q-112 -5 -134 -8q-8 -51 -3 -179t3 -179q0 -6 -1.5 -16.5t-0.5 -16.5v-35q0 -9 -4 -29q0 -11 4 -39q0 -19 4 -121.5t3 -158.5h129q-5 16 -0.5 92.5t4.5 91.5zM143 1493 q2 -49 2 -152q0 -23 -4.5 -239t2.5 -252l61 -2q62 -2 62 2q-1 42 -1 126t-1 126v119v56t4 71q3 42 -2.5 137.5t0.5 140.5q-36 2 -39.5 2.5t-44 -2t-41.5 -2.5q3 -21 3.5 -43t-0.5 -50t-1 -38z" />
<glyph unicode="&#xa7;" horiz-adv-x="880" d="M731 -74q-24 -71 -97 -123t-151 -57q-77 -3 -149 14q-46 12 -60 19q-12 6 -28 22q-3 3 -10 7.5t-11.5 8t-7.5 7.5q-4 4 -15 20t-24 19q-35 57 -41 92q-3 18 -5 54.5t-5 53.5q2 9 20 13l25 8h29q5 1 26 4.5t31 3.5q26 0 72 -12q3 -11 3 -32t3 -30q5 -20 41 -61 q71 -29 121 -6q29 13 41.5 51.5t1.5 81.5q-2 11 -6 20.5t-10.5 19.5t-10.5 15t-14 16t-13 15q-8 9 -25 23.5t-22 19.5q-6 -3 -13 1.5t-16.5 13.5t-13.5 12l-67 53q-31 25 -33 26q-3 2 -13.5 6.5t-13.5 8.5q-4 3 -10.5 11t-9.5 11q-62 52 -94 121q-2 6 -10.5 28.5t-12.5 35.5 q-4 12 -4 59q0 35 2 53q0 33 6 60q4 14 9 26t13.5 29.5t12.5 26.5q3 3 17.5 18.5t19.5 21t17 16.5t22 18t22 14q-41 32 -57 55q-26 32 -43 68q-30 58 -35 77q-29 105 8 220q12 21 37.5 55t36.5 51q5 3 22.5 18t30.5 21q60 34 154 37q34 4 79.5 -4.5t78.5 -22.5 q7 -3 20 -13.5t21 -14.5q27 -9 61 -48q33 -40 51.5 -102.5t12.5 -128.5q-39 -20 -140 -8q-8 0 -19 0.5t-16 0.5t-11.5 1t-9.5 3.5t-6 6.5t-5 10q-3 7 -5 27.5t-6 30.5l-16 28q-2 1 -15.5 8t-16 8.5t-16.5 7.5t-17.5 5.5t-18.5 2.5t-20 -1q-35 -7 -60 -30.5t-24 -59.5 q5 -49 16 -66l20 -24q46 -49 70 -72q22 -22 49 -43q38 -23 56 -39q14 -3 31 -18.5t22 -18.5q13 -24 42 -47.5t54 -48.5t35 -55q1 -2 6 -43q1 -5 5 -28t5.5 -33.5t3.5 -29.5t1.5 -35t-3.5 -32q-25 -134 -129 -221l21.5 -21.5t24 -25t18.5 -23.5q11 -12 21 -29t16 -29.5 t16.5 -36t15.5 -34.5q26 -69 2 -157q-3 -9 -7 -28.5t-7 -27.5zM569 -215q138 45 170 272q-2 7 -3 32.5t-9 33.5q-44 134 -131 199q2 5 1 6.5t-4.5 4.5t-4.5 5q8 10 23.5 24t21.5 21q8 8 22 25.5t19 23.5q10 13 28 64q20 58 21 69q2 28 1.5 42t-3.5 41.5t-4 41.5 q-2 7 -6.5 30.5t-7.5 33t-10.5 25t-18.5 26.5l-21 16l-18 17q-5 5 -19 16.5t-20 19.5q-10 7 -20.5 17.5t-22 23t-16.5 17.5q-19 4 -29 16q-8 7 -64 41l-11 13q-11 12 -19 18l-31 31q-7 9 -28 30.5t-29 34.5q-9 15 -13 49q-6 29 -4 41q2 21 29 58q3 3 10 6t10 6t10.5 7.5 t10.5 6.5q17 4 32 4t33.5 -2t32.5 -2q3 1 11.5 -5.5t11.5 -6.5q48 -12 59 -117q96 -15 170 -2q4 101 -36 172.5t-115 108.5q-4 1 -49.5 13t-71.5 13q-85 7 -187 -41q-90 -67 -114 -143q-12 -45 -15 -96q-1 -55 9 -91t34 -75q36 -70 56 -90q7 -7 24 -20.5t25 -22.5 q-3 -6 -7.5 -11.5t-8.5 -8t-11 -7t-10 -6.5l-14 -8q-104 -91 -91 -281q9 -50 27 -82q38 -96 141 -159q6 -3 15 -11.5t12 -11.5t8 -4t8 -4q65 -55 78 -64q4 1 12 -4.5t13 -5.5q7 -8 29.5 -29t33 -33t22.5 -34.5t15 -46.5q4 -52 -2 -76q-12 -43 -60 -62t-98 -6q-6 1 -15 6.5 t-17 4.5q-28 27 -41.5 54t-12.5 71q-72 21 -161 -9q-5 -14 -5.5 -26.5t2.5 -31.5t3 -26q7 -13 12 -37t12 -36l19 -25l10 -14q8 -8 25 -20.5t24 -18.5q6 -5 16 -16t17 -15q73 -21 106 -26h29q6 0 22.5 -2t24.5 -1q71 11 98 21zM440 727q23 1 41 -4.5t27 -12.5t29 -24 q23 -23 20 -78q-3 -52 -31 -80q-2 -1 -22.5 -11t-27.5 -12.5t-23.5 -7t-30 -3.5t-27.5 6q-1 1 -1.5 2.5t-2 3t-4.5 2.5q-4 3 -13.5 10t-15.5 11.5t-14 12t-14 15.5q-10 28 -17 53q-3 18 3.5 35t14.5 26.5t23 24.5q17 17 35 23t51 8zM512 535q16 11 23.5 56.5t-3.5 70.5 q-5 12 -23.5 27.5t-37.5 21.5q-23 3 -39 0q-3 0 -11.5 -0.5t-11.5 -1t-9.5 -1.5t-9.5 -2.5t-7.5 -4t-7.5 -5.5q-1 0 -17 -16q-1 -1 -6.5 -7t-6.5 -7.5t-4.5 -6.5t-4.5 -8t-2.5 -8.5t-1.5 -11.5q-1 -24 6.5 -43t14.5 -27.5t24 -25.5q39 -39 90 -21q40 17 45 21z" />
<glyph unicode="&#xa8;" horiz-adv-x="585" d="M575 1196q-85 -7 -217 4q-20 81 -8 219q2 2 4 3.5t3 2t2 2t1 3.5q120 11 181 6q21 0 39 -11q3 -22 4 -43.5t0 -49t-1.5 -41.5t-3.5 -49.5t-4 -45.5zM25 1198q-3 3 -9.5 4t-9.5 4q-11 93 4 213q12 6 28 9t26.5 3.5t32.5 1.5t30 1q55 4 96 -4q6 -15 8 -37.5t2 -34.5t-2 -43 t-2 -33q-1 -6 -1 -30.5t-3 -37.5q0 -1 2 -4t1.5 -5t-3.5 -7q-6 -8 -41 -8q-102 -4 -159 8zM369 1411q-12 -128 4 -192l63 -3t60.5 -2h62.5q1 19 3.5 71t2 67t-3.5 61q-29 7 -65.5 7.5t-58 -1.5t-68.5 -8zM31 1409q-10 -39 -11.5 -99t5.5 -96q92 -13 182 -2q-3 3 0 17 q13 119 2 184q-73 7 -178 -4z" />
<glyph unicode="&#xa9;" horiz-adv-x="1103" d="M1042 1030v-55q0 -102 -16 -160q-6 -28 -17 -54t-31 -63t-26 -49q-34 -39 -75 -67q-49 -45 -78 -60l-27 -10q-10 -8 -22 -14q-12 -5 -74 -25q-74 -24 -129 -24q-13 0 -41 4q-63 12 -76 16q-25 5 -35 10q-36 12 -59 27q-28 16 -53 35q-35 22 -50 37l-43 47q-34 40 -71 102 l-15 29q-13 22 -21 56t-10.5 53.5t-6.5 66.5q0 5 -2 28t-1 41q9 99 60 183q8 9 17 28.5t12 24.5q8 11 19 22.5t17 18t21.5 20t19.5 17.5q48 43 133 90l70 22q53 17 72 17q0 2 34 1l35 -1q30 2 93 -10q30 -6 90 -33q7 -3 18.5 -11.5t18.5 -11.5q7 -4 20 -9.5t18 -8.5 q15 -15 25 -21q26 -18 49 -51q3 -4 13.5 -13.5t13.5 -14.5q3 -3 4 -6.5t4 -6.5l29 -33q64 -77 73 -184zM1006 813q26 91 16 211q-2 72 -55 164q-15 13 -43 49q-32 37 -39 49q-6 4 -11.5 9.5t-11 12t-8.5 9.5q-4 3 -24 15.5t-25.5 16t-23.5 15t-25.5 15t-25 12t-28.5 12 t-28.5 9t-31.5 7.5t-32.5 4t-36.5 2h-57q-24 -1 -106 -26q-40 -13 -50 -19q-84 -43 -141 -100q-5 -5 -16 -14t-15 -13q-6 -8 -12 -18t-13.5 -23.5t-12.5 -21.5l-21 -31q-4 -9 -12 -29t-11 -28q-17 -48 -18 -64q-6 -42 -2 -143q3 -50 20 -96q34 -87 93 -152q63 -75 131 -117 q9 -5 82 -38q51 -23 108 -23q12 -1 24.5 -1t21.5 0.5t22.5 2.5t20 3t21.5 5t19 5t21.5 6t19.5 6q42 12 94 39q14 7 25.5 15.5t27 21t25.5 20.5l37 31q30 21 35 30q7 9 20 39q28 48 52 121zM786 1274l31.5 -24t26 -24t26.5 -32q86 -126 86 -240q0 -35 -10 -80q-9 -41 -24 -69 l-31 -64q-30 -38 -37 -55q-12 -12 -16 -20q-9 -4 -33 -23q-52 -42 -109 -59q-67 -17 -86 -21q-14 -3 -45.5 -5.5t-48.5 -6.5h-10q-55 3 -117 31q-43 22 -67 39q-3 3 -7.5 10t-7.5 10t-11.5 10t-12.5 11l-13 12q-3 9 -8 14l-16 14q-3 3 -6.5 8.5t-6.5 8.5q-5 8 -15.5 22 t-19 27t-12.5 27q-7 16 -20 75q-4 13 -4 38.5v31.5l-4 16q-2 19 10 66q3 12 7 34t7 34q41 110 142 186q49 39 129 63q27 9 75 9q104 4 146 -21q63 -15 112 -53zM938 997q-2 21 -20 74q-11 28 -36.5 73t-27.5 48q-6 3 -10.5 7.5t-8.5 11t-8 10.5l-34 26q-7 4 -18.5 13.5 t-18.5 13.5q-18 9 -54.5 24.5t-42.5 18.5q-64 25 -178 8q-94 -31 -151.5 -70.5t-110.5 -124.5q-1 -13 -10.5 -31.5t-11.5 -27.5q-5 -19 -11 -55.5t-10 -50.5q2 -14 6.5 -65.5t12.5 -74.5q9 -23 23.5 -47t26 -39t33 -41.5t31.5 -38.5q19 -6 27 -26q7 -3 17.5 -11.5 t17.5 -11.5q41 -21 98 -35l39 -8q5 0 12.5 3t9.5 3q13 2 52.5 6t58.5 9q16 0 18 2q150 34 220 166l17 34t19 41q6 13 19 82q3 8 4 17t1 20t1 17q-3 3 -3.5 7.5t0.5 12t1 10.5zM692 1186q27 -21 46.5 -66.5t15.5 -85.5q-6 0 -24 -0.5t-29 -0.5t-25.5 1.5t-24 6t-14.5 12.5 q0 5 -0.5 13.5t-1 13.5t-1.5 11t-4.5 10t-8.5 7q-4 3 -12 3.5t-15.5 0t-15.5 0.5q-64 0 -76 -4q-12 -2 -20 -11t-11.5 -26t-5 -30.5t0 -38.5t2 -36t4 -36.5t3.5 -26.5l6 -41q0 -2 1 -15.5t2 -20t4.5 -15.5t9.5 -12q13 -8 80 -8q28 0 36 2q17 17 21 43q1 2 1 12t3 14 q1 1 20 6q30 6 64 0q4 -2 12 -4.5t12 -4.5t7 -7q0 -103 -64 -143q-7 -5 -13 -7t-18.5 -4t-19.5 -4q-21 -8 -66 -8q-69 -10 -120 10q-8 4 -17 13q-18 4 -20 8q-3 1 -5.5 5t-4.5 7q-3 3 -8.5 6t-8.5 6q-16 28 -22 103q-3 16 -4.5 51t-4.5 51v53q-3 32 -2.5 64t9.5 55 q1 2 7.5 11.5t10.5 17.5l12 20q13 21 45 39l15 8q11 4 28 6t39 2t29 1q30 2 68.5 -5.5t56.5 -19.5q8 -4 16 -12zM649 1053q62 -4 88 -4q-9 67 -43 112q-25 23 -61.5 35t-71.5 8q-16 -1 -41 0t-37 0q-52 -8 -82 -55q-13 -13 -20 -31q-6 -14 -7.5 -32.5t0 -49t1.5 -39.5 q0 -37 6 -84q2 -17 3 -54.5t5 -62.5t14 -42q3 -5 17 -16t16 -13l17 -4q5 -2 12 -6t13.5 -6.5t13.5 -3.5q157 0 182 10q32 17 48 55t11 80q-53 14 -80 4q1 -12 -2 -22.5t-8.5 -22t-7.5 -16.5q-13 -13 -57 -17q-78 0 -97 17q-4 3 -7.5 11t-6.5 11q-1 19 -7 67t-7 74q0 4 1 12 t1 11l-6 27q-4 66 12 92q8 14 37 26q9 4 61 4q6 -1 20 -1t25 -1t17 -4q12 -4 18 -15.5t7.5 -21.5t2.5 -32z" />
<glyph unicode="&#xaa;" horiz-adv-x="743" d="M506 604q-4 7 -6.5 25.5t-5.5 23.5q-29 -17 -31 -20q-15 -2 -36.5 -15t-33.5 -16q-2 0 -57 -6q-4 0 -12 -4q-2 0 -8.5 2t-8.5 2q-22 -3 -39 0q-80 22 -88 25q-5 9 -28 20q-4 7 -16.5 14.5t-14.5 8.5l-6 14q-24 31 -39 61q0 11 -7.5 33t-7.5 33t5 41q8 45 18 61 q16 41 47.5 74t63.5 54.5t83 41t85 29.5t90 24q7 34 -3.5 66.5t-31.5 50.5q-88 23 -127 -4q-34 -24 -37 -78q0 -3 1 -9t1 -10.5t-2 -8.5q-2 -2 -12.5 -8.5t-14.5 -6.5q-1 0 -5 1t-7 1h-55q-1 0 -3.5 1t-4.5 1h-9q-66 5 -73 21q-3 31 3 60.5t17.5 62.5t15.5 53q20 46 74 84 q16 14 56 27q32 12 49 14q72 9 147.5 -11t132.5 -57q4 -4 4 -8q8 -1 15.5 -6t11.5 -9.5t11.5 -15t8.5 -12.5q3 -9 13.5 -29t13.5 -32q16 -53 16 -187q1 -45 1 -91.5t-0.5 -100.5t-0.5 -84q3 -86 -4 -187q-9 -12 -26 -18q-80 12 -123 4zM641 674q0 12 -1 30.5t-1 28.5 q-1 14 0 48.5t0 52.5q-1 31 0.5 87.5t1.5 75.5q0 17 0.5 56.5t0.5 60t-1.5 50t-5.5 50.5q-7 36 -25 86q-12 16 -14 27q-30 37 -115 76q-5 1 -26.5 6t-28.5 6.5t-26 5t-28 4.5t-26 2.5t-28.5 1.5t-26 -1.5t-27.5 -4.5q-10 -2 -21 -6.5t-23.5 -12t-16.5 -9.5q-2 -1 -7 -2 t-6 -2l-18 -15q-36 -25 -51 -63v-10q-6 -7 -15 -39q-20 -67 -18 -111q8 -1 28.5 -4t31 -4t27.5 -2t31.5 0t29.5 4q-3 35 8 61q27 49 67 62q34 7 95 4q11 -11 24.5 -22t21.5 -17.5t11 -11.5q10 -23 12 -57t-12 -54q-11 -2 -44.5 -10t-49.5 -10q-12 -6 -39 -15 q-63 -24 -105 -55q-7 -1 -16 -7t-16 -7q-6 -12 -21 -15q-4 -5 -14.5 -12t-14.5 -12t-10 -16.5t-8 -14.5q-36 -56 -41 -107q-6 -54 31 -122l16 -27q4 -4 8.5 -8t11 -8t9.5 -7q6 -3 16.5 -12t16.5 -12q1 -1 5.5 -2t6.5 -2q37 -14 53 -17q5 -1 15 -2.5t18 -2.5t14 -1 q55 0 90 13q32 11 56 24q5 3 18.5 15t19.5 14q3 1 11 1t12 1q2 -8 4 -25t4 -26q22 1 61.5 -3t55.5 -4q4 18 4 56zM467 981q4 -3 5.5 -15.5t4.5 -15.5q-1 -10 -1 -35.5t-1.5 -45t-5.5 -31.5q0 -15 -8 -39q-64 -49 -137 -43q-2 0 -5.5 2t-5.5 2q-4 1 -11.5 2.5l-12.5 2.5 t-11 3.5t-10 5.5l-5 10t-7 11q-1 6 -4.5 17t-3.5 19q1 18 13.5 46t14.5 36q24 19 91 36t90 30q4 4 10 2zM451 954q-15 -6 -45.5 -13t-45.5 -13q-6 -4 -11.5 -5.5t-10 -1.5t-6.5 -1q-7 -2 -20.5 -10.5t-20.5 -10.5q-1 -3 -9.5 -19.5t-12 -29.5t-1.5 -27q1 -7 4.5 -14t10 -16 t8.5 -13q48 -16 94 -6q42 12 57 31q13 13 16.5 72.5t-5.5 76.5h-2z" />
<glyph unicode="&#xab;" horiz-adv-x="1222" d="M612 45q0 -3 -2.5 -3.5t-5.5 0t-6 -0.5q-30 26 -108 88t-119 98q-32 30 -98 81t-93 75v6q-23 13 -41 31l-10 12q-7 16 -3 54t-3 51q0 65 18 65l25 23q3 3 10 12t12 12l25 19q17 17 68 57q28 24 92 76q29 22 88.5 74t93.5 77q6 8 20 18t17 13q12 2 14 -9q1 -8 -8 -9 q0 -3 3 -3.5t3 -3.5q4 -32 1.5 -113.5t-1.5 -107.5q-11 -9 -32 -24.5t-33 -24.5q-3 -1 -5.5 -5t-5.5 -5q-20 -15 -24 -19l-45 -41q-97 -78 -121 -102q15 -15 33 -27q40 -36 120.5 -103t120.5 -103q9 -83 0 -172q-1 -9 1.5 -33t-1.5 -33zM1090 731q-14 -11 -65 -48.5 t-76 -56.5t-65 -51.5t-71 -60.5q0 -5 3.5 -9.5t4.5 -6.5q125 -97 226 -183q4 -4 9.5 -10t9 -9.5t9.5 -8t12 -8.5q0 -17 3 -50t4 -49q0 -7 2 -18.5t2 -18.5q2 -27 -4 -96q-5 2 -7 1t-5 -4.5t-5 -4.5q-7 6 -27.5 25t-35.5 31.5t-33 23.5q-12 17 -27 22q-14 14 -29.5 27 t-37.5 30.5t-31 24.5q-20 19 -102 82q-24 23 -73.5 63.5t-72.5 63.5q4 18 -1.5 60t-4.5 72.5t19 37.5q6 8 15 16t20.5 17t17.5 14l12 13q3 3 9.5 6t9.5 6l92 74q14 14 41 36t39 33q28 23 81.5 67.5t81.5 67.5q3 5 11.5 12.5t11.5 12.5q2 0 9.5 -3t12.5 -3q17 -74 5 -240z M461 176l41 -35q16 -12 48 -39t48 -39q0 4 -1.5 21t-0.5 25q0 3 2 10t2 10q1 9 -0.5 28.5t-1.5 28.5v54q-1 4 0 14t0 14q-1 6 -33 31q-78 62 -104 88q-92 82 -103 90q-4 3 -12 9.5t-12.5 10.5t-9.5 10.5t-7 12.5q6 8 14.5 15.5t20 17t17.5 14.5q8 7 50.5 44.5t59 51.5t49 40 t60.5 45q-3 21 1 76t3 79v23.5t-4 27.5q2 0 2 2t-2 2l-23 -20q-3 -3 -11 -7t-11 -7l-8 -11l-23 -16q-16 -13 -46.5 -42t-47.5 -42q-16 -12 -44.5 -35.5t-43.5 -34.5q-107 -87 -129 -108q-6 -5 -17 -16t-21 -20t-20 -15q-2 -54 2 -148q14 -7 26.5 -18t27.5 -26t24 -23 q20 -17 72 -56t78 -61q8 -7 22.5 -22.5t22.5 -22.5zM1073 756q4 1 2.5 28t-0.5 35q0 8 1.5 28.5t1.5 30.5t-0.5 26t-2.5 28.5t-6 23.5q-7 -9 -25.5 -24.5t-25.5 -24.5q-9 -5 -24 -16.5t-17 -13.5q-5 -5 -16 -12.5t-15 -10.5q-27 -27 -41 -37q-6 -5 -53.5 -45.5t-75.5 -60.5 q0 -3 -3 -6.5t-3 -6.5q-19 -11 -39.5 -25.5t-33 -24.5t-35.5 -30t-33 -28q-4 -4 -11 -4q3 -88 11 -152q6 -5 15.5 -14t18.5 -16t19 -11q60 -52 193.5 -164t203.5 -174q2 99 -12 221q-19 13 -51.5 41.5t-40.5 34.5q-8 7 -125 101l-45 36q0 3 -4.5 14t-3.5 19q3 9 24 25 q24 21 52.5 43t62.5 47.5t53 40.5l58 49q21 21 26 29z" />
<glyph unicode="&#xac;" horiz-adv-x="1130" d="M1004 555q3 -59 3.5 -116t-0.5 -140.5t-1 -126.5q-4 0 -7 -8q-12 0 -47.5 1.5t-54.5 2t-47.5 0t-50.5 -3.5l-13 8q8 41 -4 107q-1 25 -3 66t-3 75.5t0 68.5q0 23 4 27h-63h-23h-84q-33 3 -69 0q-11 0 -33 2t-33 2q-5 0 -13.5 -1t-12.5 -1q-11 0 -32 2t-32 2 q-24 -1 -72.5 -3t-89.5 -3t-78 0q-2 4 -10 0q-2 0 -2 3t0.5 6.5t-2.5 6.5q0 4 -5.5 74t1.5 74q-3 7 -3 17t1.5 22t1.5 18q27 0 95 4.5t104 3.5q28 -4 41 -4q28 -1 80.5 3t74.5 4q10 0 37.5 -2t42.5 -1q16 0 43.5 -1t40.5 -1q138 0 176 -4q20 -1 76 3t61 -1q0 -137 5 -186z M989 178q5 72 0 90q4 8 4 17.5t-2 21t-2 17.5q0 18 1.5 53t1.5 65t-3 58q0 3 -2 9t-2 9q-4 21 -2.5 101.5t0.5 105.5q-32 -5 -43 2q-22 -7 -71 -7t-108 3.5t-73 3.5q-8 0 -24.5 1t-24.5 1q-141 4 -209 -2q-35 -2 -102 2q-24 1 -87 -3t-100 -1q-2 -47 -2.5 -56t2 -53t2.5 -51 q4 -16 4 -18v-15q28 -3 81 1t67 4h108q69 -5 198.5 -5t191.5 -4q3 -3 3 -6t-1.5 -7t-1.5 -7q-3 -58 5 -168t5 -162q80 9 186 0z" />
<glyph unicode="&#xad;" horiz-adv-x="788" d="M659 625q5 -28 6 -58.5t0 -78.5t-1 -56q-12 -10 -25 -14h-41l-41 4q-15 0 -44 -2t-44 -2q-38 3 -115 1t-112 1q-12 1 -37 3.5t-35 2.5t-35 -2q-3 1 -5 4.5t-5 3.5q1 32 0 86.5t0 81.5q1 3 6.5 4.5t5.5 5.5q31 0 369 17q21 4 78 0.5t75 -2.5zM643 440q4 18 2.5 83t-0.5 83 q-19 -6 -39 2q-6 -3 -14 -3.5t-19 0.5t-14 1q-21 1 -131 -4q-37 -2 -136 -6t-149 -8q6 -48 2 -144q28 0 105 -4.5t123 -1.5q45 1 135.5 1t134.5 1z" />
<glyph unicode="&#xae;" horiz-adv-x="1097" d="M1030 1014q18 -99 -31 -244q-30 -71 -90 -145q-30 -38 -73 -70q-12 -10 -27 -18t-37 -17t-31 -14q-104 -55 -247 -43q-1 0 -26 4t-40 4l-39 18q-115 46 -192 123q-30 30 -54 76q-31 51 -45 82q-2 9 -10 35.5t-11 38.5t-6.5 35.5t-4.5 46.5q0 9 -2.5 27t-2.5 26 q0 19 11 65q3 11 6 32t6 30q4 13 15.5 33.5t15.5 29.5q27 61 73 107q4 4 20.5 21t22.5 26l52 41q7 3 14 7.5t16 11.5t13 10q58 34 170 41.5t188 -9.5q43 -4 57 -18q0 -3 2 0t2 0q180 -95 199 -172q2 -7 3.5 -12t2 -8t3.5 -7.5l4 -6t6.5 -9t7.5 -10.5q38 -51 59 -168z M1004 1055q-6 25 -16.5 50t-26.5 55t-23 46q-42 102 -170 164q-20 18 -55 29t-57.5 13.5t-75.5 6.5q-70 5 -138 -7t-110 -36q-9 -3 -17 -14q-37 -19 -73 -55q-4 -1 -6 -5q-3 -4 -5 -6t-8.5 -7.5t-12 -11t-9.5 -11.5q-103 -127 -119 -246q-4 -28 -4 -43q0 -6 2.5 -18t3.5 -17 q1 -8 0 -27t0 -28q3 -12 7 -26.5t9.5 -31.5t8.5 -26q23 -77 69 -137q40 -54 70 -76l24 -17l23 -18q5 -1 11.5 -4t8.5 -4q10 -5 17 -12q9 -5 28 -13.5t25 -11.5q8 0 10 -2q12 -5 23.5 -9.5t16 -6.5l9 -4t7 -1.5t4.5 2.5q73 -18 172 -4l51 17q91 32 141 65q17 11 34 27.5 t26 26t30.5 36.5t26.5 33q26 36 45 84q9 27 20 78l5 57q8 19 8 56q2 35 -10 90zM201 750q-3 3 0 10q-3 3 -2 1q1 -5 -2 -5q-19 43 -23 65q-10 26 -22 101q-9 61 8 120q14 44 35 84l14 23q19 37 27 49l16 16q18 26 33 33q32 32 77 58q26 16 72 28q3 1 9.5 1t9.5 1 q31 11 71 15q23 0 33 -2q95 -11 152 -33q3 -2 29.5 -15.5t45.5 -26t19 -20.5q10 -8 27.5 -25.5l23.5 -23.5q44 -50 61 -112q24 -75 27 -140q0 -71 -6 -102l-6 -8q0 -18 -5 -32.5t-15.5 -33t-14.5 -26.5q-15 -15 -41 -46t-49 -53t-49 -37q-44 -24 -60 -30q-12 -4 -36 -11 t-35 -10q-71 -25 -150 -12q-8 1 -27 10.5t-24 11.5q-42 19 -49 23q-26 11 -49 29q-6 5 -25.5 17.5t-28.5 21.5q-52 44 -71 86zM922 852q13 83 -11 190.5t-75 161.5q-28 20 -39 39q-9 3 -17 14q-13 3 -20 13q-51 18 -66 33q-23 3 -39 10q-2 1 -9 1t-13 3q-3 0 -8 2.5l-7 3.5 h-22q-4 0 -25 4t-34 4q-10 1 -48 -4q-71 -11 -135 -49q-37 -19 -71 -53q-17 -17 -54 -70q1 -1 0 -2.5t-2.5 -4t-1.5 -5.5q-23 -28 -51 -111q2 -9 2 -12.5t-2.5 -11.5t-3.5 -13q-1 -7 1 -31.5t-3 -25.5q4 -42 14 -80.5t20 -63t31 -69.5l9 -8q23 -29 51 -49q67 -51 113 -70 q8 -5 34 -16q5 -2 16.5 -8t16.5 -7q55 -9 133 6q7 2 74 23q1 0 2.5 0.5t5 1.5t6.5 2q64 27 101 64q45 45 77 88l9 4q34 66 41 96zM741 1102q21 -61 1 -129t-70 -92q4 -18 11 -35.5t18 -40.5t14 -31q2 -6 10.5 -21.5t9.5 -23.5q5 -11 0 -45q-65 -9 -114 6q-15 33 -39.5 97 t-28.5 73q-32 0 -55 -2q4 -16 0 -84t-4 -94q-10 2 -52.5 2t-56.5 8q-5 53 -4 60q4 13 0.5 65.5t-2.5 71.5q2 35 -1.5 155.5t7.5 155.5q1 7 16 11.5t29 4.5q23 5 76 3.5t84 3.5q7 -3 19.5 -4.5t17.5 -4.5q21 -7 45 -22q4 -2 10.5 -6t8.5 -5.5t6.5 -4.5t7 -6t6 -7t6.5 -10 l14 -18q3 -4 5 -15t5 -16zM659 891q44 21 62 67q12 30 14 75t-14 75q-3 10 -7 18t-11 17.5t-9 13.5q-4 2 -14 8.5t-20.5 11t-20.5 5.5q-21 15 -55 18q-24 3 -67.5 -1t-61.5 -3q-41 4 -54 -4q-3 -3 1 -5t4 -5q-11 -42 -11 -105q4 -94 4 -155q0 -12 -1 -35t-1 -35 q8 -55 4 -152q14 1 38 0t38 0q0 15 1.5 73.5t0.5 82.5q0 19 4 23h35.5t50.5 -5q9 -30 32 -86t32 -83q77 -5 86 -5q-1 7 -5 18.5t-5 18.5q-15 27 -33.5 77.5t-24.5 64.5q8 3 8 12zM602 1112q34 -9 43 -33q7 -16 2 -53q-9 -40 -39 -61q-12 -4 -26.5 -5t-24 -0.5t-28.5 2 t-29 1.5q-3 3 -4 8t-4 6q-3 35 -3 70q0 6 -0.5 17.5t-0.5 19t1.5 17t4.5 15.5q80 4 108 -4zM618 995q1 2 4.5 11t5 12.5t4 11.5t3.5 13t1.5 11.5t-1 12t-4.5 10.5q-6 10 -25.5 17.5t-38.5 9.5q-40 0 -61 -8q3 -16 2 -52t2 -63q18 -7 55.5 -5t52.5 19z" />
<glyph unicode="&#xb0;" horiz-adv-x="636" d="M106 1067q-34 58 -40 96q-3 17 -3 113q42 101 84 143q27 27 41 33q44 19 97 23q58 6 112 -19q62 -25 82 -45q18 -16 37 -47l21 -29q6 -9 14 -31t10 -26q2 -7 6 -19.5t6 -22t2 -19.5q0 -14 -6.5 -39.5t-7.5 -40.5q-7 -9 -14.5 -31t-14.5 -31q-1 -3 -3 -5t-5.5 -4.5 t-5.5 -4.5q-16 -23 -57 -64q-6 0 -25 -14l-37 -14q-20 -8 -34 -17q-59 -11 -105 -2q-46 10 -88 45q-31 19 -53 47q-3 12 -13 25zM82 1280q-11 -49 -2.5 -102.5t29.5 -90.5q5 -8 10.5 -18.5t9.5 -17.5t10 -13l37 -26l39 -27q90 -44 188 4q52 21 91 66q4 5 15.5 16t14.5 19 l13 28q22 42 22 99q0 63 -53 137q-3 4 -7 12t-7 12q-3 5 -23 21l-29 18q-30 13 -37 17q-3 1 -8 5t-8 5q-36 14 -98 10q-85 -3 -129 -47q-30 -34 -47 -64q-3 -8 -15.5 -29t-15.5 -34zM281 1104l-39 20q-20 13 -33 37.5t-12 52.5q4 59 34 89q20 20 66 26t76 -10l16 -16l12 -21 l8 -12t9 -16t4 -15q2 -18 -2 -45t-10 -37q-1 -3 -6 -6.5t-7 -5.5l-30 -33q-8 0 -35.5 -6t-50.5 -2zM242 1288q-31 -39 -31 -80q0 -37 35 -63t76 -19q5 -5 22 -2q33 7 49 45q3 4 3.5 9t0 11t0.5 13q1 4 5.5 10.5t5.5 10.5q3 27 -17 55l-10 8q-4 1 -5 6l-1 4q-18 14 -41 17 q-50 3 -92 -25z" />
<glyph unicode="&#xb1;" horiz-adv-x="1093" d="M954 715q15 -78 15 -129q0 -40 -4 -45q-2 -3 -6 -6.5t-6.5 -5.5t-2.5 -5q-38 -4 -122.5 -0.5t-116.5 2.5q-36 0 -66 -6q-13 -94 2 -168q-4 -6 -8 -24q-108 -12 -162 4q-7 -2 -9.5 -2t-8.5 2.5t-8 3.5q-3 8 -7 8q6 154 5 170q0 3 3.5 4t4.5 4q-6 3 -12.5 3.5t-16 -0.5 t-14.5 -1q-154 11 -264 11q-3 1 -8 1t-9 1q-4 17 -2.5 73.5t0.5 73.5q0 2 -0.5 12t0 13.5t3 10t7.5 11.5q10 -5 22.5 -5.5t35 2.5t28.5 3q49 2 72.5 1.5t72.5 -3.5t77 -4q0 211 2 307q11 6 27.5 8t31 1.5t31.5 0.5q7 0 19.5 1t19.5 1h20.5t22.5 -4l7 -6q7 -6 13 -2 q5 -72 0 -305q76 6 256 -8q44 0 55 -4zM788 543h156q8 47 -4 157q-13 0 -132.5 5.5t-174.5 1.5q-1 3 -4 6t-4 6q3 147 0 301q-70 9 -158 0q2 -114 -2 -303l-10 -8q-14 0 -70 1.5t-81.5 2t-70 -0.5t-81.5 -5q-5 -40 0 -154q142 -2 315 -12q3 -6 3 -13t-1.5 -17.5t-1.5 -18.5 q-1 -16 -0.5 -46t-0.5 -53.5t-5 -40.5q78 -22 162 -6q-9 98 4 176q3 1 6.5 6t5.5 7q16 6 36 8t34.5 2t39.5 -1t39 -1zM557 188q41 -1 125 -4t127.5 -3.5t134.5 1.5q20 -27 21 -84t-13 -96q-3 -1 -4.5 -2.5t-3.5 -4.5t-4 -5h-6h2q0 -3 -4 -3t-10.5 1.5t-10.5 1.5h-77 q-20 0 -57 -1t-56 -1q-5 0 -15 1t-14 1q-62 -4 -90 -4h-160q-5 0 -23 -1.5t-28 -0.5q-28 1 -79.5 0.5t-93 0.5t-77.5 5q-11 20 -16 102q0 65 4 86q3 3 11.5 5t11.5 5q202 6 405 0zM938 6q15 61 12 103q0 43 -12 55q-3 3 -8.5 3.5t-11.5 0t-13 0.5q-27 1 -71 -0.5t-56 -1.5 q-24 0 -77.5 3t-79.5 3q-34 0 -109.5 1.5t-138.5 1.5t-111 -3q-35 -2 -117 2q-14 -48 7 -170q6 -3 12 -3.5t14 0.5t12 1q12 3 27 3t35 -1.5t31 -1.5h84q36 -4 199.5 0t201.5 4q88 -3 170 0z" />
<glyph unicode="&#xb2;" horiz-adv-x="663" d="M80 623q-7 7 -11 15.5t-5 20.5t-1 19.5t1.5 23.5t1.5 21q8 76 40 160q32 75 89 155q73 95 79 103q7 11 25 36.5t28 40t24 37t24.5 43t19.5 41.5q17 34 17 47q3 50 -25 72q-26 19 -60.5 13.5t-56.5 -27.5q-6 -5 -10 -19q-6 -13 -10 -42t-6 -35q0 -3 -1 -6.5t-1 -6.5v-10 q0 -3 -2 -8t-2 -8q-1 -2 -1 -5.5t-0.5 -5t-3.5 -2.5q-6 -6 -34 0l-117 4q-3 3 -6 9.5t-6 9.5q2 23 -1 92.5t7 81.5q3 5 7 18.5t7 18.5q4 8 17.5 22.5t17.5 20.5q36 41 92 63q36 13 98.5 14.5t100.5 -12.5l24 -12q8 -4 26 -11.5t29 -12.5t24.5 -14.5t21.5 -20.5 q59 -91 59 -201q2 -39 -29 -100q-9 -18 -27.5 -47.5t-23.5 -38.5l-18 -27l-17 -27q-4 -7 -14.5 -16.5t-15.5 -15.5q-17 -17 -46 -51t-42 -48q-61 -96 -84 -147q-4 -10 -9 -43q133 -10 263 0q25 0 32 -4q5 -14 6.5 -27.5t2 -33t0.5 -27.5q0 -39 -9 -80q-5 -1 -8 -10 q-106 6 -201 0q-40 -2 -143 3t-137 -3zM145 930q-81 -162 -63 -291q77 10 186 0q46 -3 145 0.5t140 -0.5q11 82 2 149q-107 -10 -227 0q-48 0 -68 7q-8 31 23 90q5 11 18 33q55 98 125 174q42 42 49 51q14 18 39 59q32 53 37 64q24 39 31 69q7 25 -2 70q0 24 -7 45 q-3 4 -4 12.5t-4 12.5l-20 45q-12 24 -29 41q-16 16 -29 24l-18 6q-22 13 -31 17q-3 2 -13 7.5t-15 8.5q-19 8 -60 8q-105 6 -178 -37q-5 -5 -14 -15.5t-16 -17.5t-11 -10q-40 -47 -47 -94q-3 -24 -1 -71t-1 -70q43 0 141 -4q5 18 8 50t8.5 55.5t20.5 39.5q36 36 86 33 q34 -3 56.5 -28.5t24.5 -56t-13 -58.5q-10 -28 -24.5 -55.5t-39 -66.5t-31.5 -52q-2 -2 -7.5 -10t-10.5 -11q-13 -21 -42 -55.5t-40 -50.5q-50 -73 -74 -117z" />
<glyph unicode="&#xb3;" horiz-adv-x="649" d="M573 1018q0 -164 -6 -197v-22l-18 -47q-8 -20 -21 -33q-30 -40 -88 -70q-6 -2 -23 -9.5t-30 -10.5q-65 -16 -111 -8q-37 5 -75.5 22.5t-61.5 40.5q-6 8 -18.5 19t-14.5 14q-5 10 -24 59q-19 50 -16 152q1 5 -1.5 23.5t1.5 23.5q96 18 161 6q6 -10 9 -23t4.5 -31t3.5 -28 q11 -66 30 -94q4 -1 14 -5.5t15 -6t16 -3t17 2.5q35 13 47 34q8 14 12 52q15 90 2 153q-41 29 -127 29l-12 80q0 7 -1 20.5t-1 20.5q0 29 6 35h2q4 0 4 2q23 -6 59 2t50 20q12 12 18 37q4 15 4 74q0 8 1 27t0.5 31t-5.5 24q-3 13 -18 28q-24 23 -59.5 18t-49.5 -30 q-2 -2 -2 -4l-1 -3q-1 -3 -1 -7l-10 -17l-10 -47q-3 -10 -3.5 -20.5t0.5 -25.5t1 -21q-25 -4 -72.5 -4.5t-54.5 -0.5q-7 3 -23 5t-24 6q-7 51 -5.5 105.5t19.5 103.5l10 12l27 39q28 35 69 59q13 3 38 13.5t42 11.5q1 1 33 0.5t33 -0.5q9 -1 26.5 -5t26.5 -5q19 -3 35.5 -10 t23.5 -11.5t29 -21.5q20 -12 47 -39q7 -7 13 -17.5t14 -27.5t12 -25l12 -31q14 -47 12.5 -105.5t-18.5 -105.5q-14 -39 -71 -92q8 -12 30.5 -36.5t34.5 -48.5t12 -56zM557 926q4 31 1.5 73.5t-17.5 67.5q-16 31 -43 61q-17 10 -33 31q6 12 18 12q5 5 19 17.5t22 21.5 q55 68 43 207q-10 14 -16 42.5t-12 41.5q-6 10 -11 23.5t-10.5 23t-15.5 17.5q-3 3 -33 20q-1 1 -13 11.5t-20 15.5q-19 11 -49 14l-22 6q-14 3 -30.5 4t-37.5 1t-33 1l-49 -20q-24 -7 -44.5 -23t-30 -26.5t-31.5 -38.5q-1 -3 -15 -27q-8 -19 -12 -65q-4 -86 0 -115 q47 -6 143 -2q-6 27 4 70l4 32q23 41 48 66q23 12 58 8.5t48 -20.5q1 -6 3.5 -10.5t6.5 -9t6 -7.5q13 -25 13 -96v-45q0 -35 -23 -76q-32 -32 -98 -35q-3 0 -10.5 1t-10.5 1q-3 -29 2 -66.5t5 -52.5q44 0 100 -18q12 0 14 -2q17 -10 21 -45q4 -21 0 -84q0 -77 -19 -119 q-6 -4 -16 -14t-18.5 -16t-18.5 -9q-25 -6 -52 4t-38 29q-33 56 -33 156q-58 10 -141 0q3 -21 1 -59.5t1 -57.5q2 -35 22 -80l15 -35q3 -6 7 -11t11.5 -11t12.5 -11q20 -20 30 -26q7 -4 23.5 -10.5t23.5 -10.5q36 -12 54 -14q77 -8 157 29q75 38 101 106l16 41 q3 14 3.5 31.5t-0.5 44.5t-1 37z" />
</font>
</defs>
</svg>
