<?xml version="1.0" standalone="no"?>
<!DOCTYPE svg PUBLIC "-//W3C//DTD SVG 1.1//EN" "http://www.w3.org/Graphics/SVG/1.1/DTD/svg11.dtd" >
<svg xmlns="http://www.w3.org/2000/svg">
<metadata></metadata>
<defs>
<font id="harmansans_inline" horiz-adv-x="1228" >
<font-face units-per-em="2048" ascent="1536" descent="-512" />
<missing-glyph horiz-adv-x="614" />
<glyph horiz-adv-x="0" />
<glyph horiz-adv-x="682" />
<glyph unicode=" "  horiz-adv-x="614" />
<glyph unicode="&#x09;" horiz-adv-x="614" />
<glyph unicode="&#xa0;" horiz-adv-x="614" />
<glyph unicode="!" horiz-adv-x="540" d="M389 592v-92q5 -106 -47 -125q-16 -4 -20 -4q-75 -3 -129 4l-17 4q-35 19 -35 53q-2 4 -2 19v73q0 71 -4 215v76q-1 20 -1 56t-1 66t-4 56q0 19 2 29v29q-2 14 -2 39v194q-9 77 1 106q10 31 38 44l16 4q3 0 9.5 1t9.5 1q131 4 182 -4q4 -2 12 -9q8 -3 11 -12 q18 -32 8 -72q2 -2 2 -16v-22q0 -27 -2 -41v-31q-10 -71 -6 -180q0 -11 -2 -13l-5 -65v-19q0 -12 3 -18q-3 -9 -3 -20v-62q-2 -4 -2 -22q-2 -4 -2 -19q0 -14 -2 -18q-1 -22 -4.5 -93t-3.5 -112zM256 252q44 0 82 -27l16 -12q19 -16 35 -45l4 -25q0 -3 1 -7t1 -7 q6 -29 -10 -61q-3 -3 -6 -9.5t-6 -9.5q-20 -34 -68 -49q-16 -4 -18 -4q-9 -4 -41 -4h-21l-18 6l-14 6l-31 25l-8 10q-16 26 -25 55q0 3 -1 9.5t-1 9.5q-1 41 22 77.5t62 53.5l20 6q6 2 25 2zM285 758q0 10 -0.5 29.5t-0.5 35t1 29.5v57q0 27 -2 41q-8 67 2 150v63 q3 72 0 140v28q0 20 -20.5 20t-20.5 -20v-14q9 -86 0 -176v-54q-6 -15 -1 -123t5 -143q0 -1 -1 -33t-1 -88v-43q1 -21 -1.5 -84t1.5 -84q0 -10 2 -14q0 -4 4 -24q5 -5 14 -5l15 5q6 6 6 14q-4 155 0 207q0 14 2 18q0 18 -4 68zM268 150h-16q-19 0 -23 -31v-4l7 -13h2 q-3 0 1 -2q2 -1 5 -2l2 -2q14 0 20 2q4 0 6 2q8 3 17 23l-2 4v4q0 2 -4 6q-5 5 -15 13z" />
<glyph unicode="&#x22;" horiz-adv-x="772" d="M344 1384q2 -2 2 -14q-2 -2 -2 -14l-4 -13q0 -12 -2 -16q0 -17 -4 -45q-6 -24 -11 -73t-6 -56l-4 -20q0 -5 -4 -21q-3 -24 -11 -69t-11 -68q0 -13 -2 -17q-12 -51 -52 -43q-16 -4 -22 -4q-66 -10 -92 37q-4 16 -4 19q-4 31 -8.5 83t-6.5 72l-4 41q0 3 -1 7.5t-1 7.5v14 l-8 74q0 4 -1 11t-1 11q-2 23 -2 66v14v14q1 28 20 44t45 16h21h72h18l55 -6q6 -2 13 -9q7 -2 10 -12q3 -3 6 -16q2 -2 2 -15zM217 1018v10l6 105v34v15q0 7 -1 20.5t-1 20.5q2 6 2 22q4 65 -6 107q-3 8 -10 8q-10 3 -17 -4q-2 -2 -8 -19v-80v-20q2 -14 2 -39v-12 q6 -14 2 -39v-56t4 -79q0 -3 5 -4t8 -4q8 -6 14 14zM684 1399q12 -17 -2 -56q0 -12 -2 -16q0 -17 -4 -45q-6 -24 -11 -73t-6 -56l-4 -20q0 -5 -4 -21q-3 -24 -11 -69t-11 -68q0 -13 -2 -17q-11 -47 -74 -47q-66 -10 -92 37q-4 16 -4 19q-4 31 -8.5 83t-6.5 72l-4 41 q0 3 -1 7.5t-1 7.5v14l-8 74q0 4 -1 11t-1 11q-2 23 -2 66v14v14q1 28 20 44t45 16h21h72h18l55 -6q6 -2 13 -9q7 -2 10 -12q3 -3 6 -16zM559 1018v10l6 105v34v15q0 7 -1 20.5t-1 20.5q2 6 2 22q3 37 0 76q-1 5 0 15.5t0 15.5q-3 8 -16 8q-10 3 -17 -4q-2 -2 -8 -19v-80 v-20q2 -14 2 -39v-12q6 -14 2 -39v-56t4 -79q0 -12 13 -8q10 4 14 14z" />
<glyph unicode="#" horiz-adv-x="1243" d="M1083 586q7 -30 4 -72q-2 -4 -2 -20q-1 -25 -4.5 -41t-16 -31t-34.5 -19q-3 0 -10 -1t-10 -1q-30 -2 -34 -2.5t-34.5 2t-32.5 2.5h-30l-27 -206l-8 -39l-2 -19q-3 -12 -3 -49.5t-9.5 -59.5t-36.5 -32q-14 -6 -30.5 -7.5t-40.5 -0.5t-36 0q-12 0 -14 2q-32 6 -35 31 q-3 8 -1.5 25t3 25t5.5 25t5 25l35 283l-227 4l-27 -213l-8 -39l-2 -19q-3 -14 -4 -50.5t-10 -58.5t-35 -32q-30 -10 -70 -10h-16q-34 -3 -52 17t-17 48t9 56q0 3 1 7t1 7l35 287h-55q-8 1 -31.5 -2t-38 0.5t-24.5 19.5q-11 15 -11 35q0 13 4 41q4 20 19 78l8 10 q14 14 70 14h86q19 126 30 223h-86q-35 -9 -61 11t-14 55l4 18q0 3 1 8.5t1 8.5v22q2 38 26 59t64 17h88l31 232l6 73q-3 16 4 43q6 24 6 35q6 12 13 17t23.5 7t20.5 3l39 4q37 3 74 -6l10 -9q9 -3 9 -12q3 -5 5 -10.5t2.5 -12.5t0.5 -11.5t-1 -13.5t-1.5 -12t-3 -14 t-2.5 -14l-3 -22q-5 -33 -8 -41l-2 -17l-16 -147l-8 -78q33 1 94.5 -0.5t81.5 -1.5h47q11 112 31 240l4 36q0 4 1 13t1 12q0 25 3.5 44.5t11.5 39.5t26.5 29.5t44.5 5.5q4 2 20 2q37 3 74 -6l10 -9q8 -3 8 -12q3 -5 5 -10.5t2.5 -12.5t0.5 -11.5t-1 -13.5t-1.5 -12t-3 -14 t-2.5 -14l-2 -22q-5 -33 -8 -41l-2 -17l-16 -147l-8 -80h124q28 5 41 -10t11 -37.5t-4 -44.5q0 -15 -2 -19v-8q4 -48 -20 -65.5t-69 -10.5h-112v-8q-3 -29 -12.5 -90t-12.5 -90l-6 -39h117q6 0 16.5 -0.5t16.5 -1t15 -3t17 -7.5zM1063 944q-8 6 -19.5 7.5t-31 0t-25.5 -1.5 h-20q-54 0 -93 -2l27 215q14 83 19 140l2 28q4 18 -14 20q-20 2 -26 -17q-1 -1 -1 -3l-2 -14q-4 -103 -21 -176l-6 -54l-4 -16l-17 -123h-12q-29 0 -88 1t-88 1h-113v-2h-77q3 37 6 65t5 43t3.5 24.5t2.5 13.5t1 6l8 63q14 83 19 140l2 28q4 18 -14 20q-20 2 -26 -17 q-1 -1 -1 -3l-2 -14q-4 -103 -21 -176l-6 -54q-3 -3 -20 -139h-29q-4 -2 -19 -2h-88q-11 0 -20 -1.5t-17 -7.5t-4 -17q3 -7 9.5 -9t17 -2t16.5 -2h19q18 2 57 2q4 0 11 1t10 1h33q-3 -39 -6 -69.5t-5 -46t-4 -26t-3 -15t-1 -6.5l-2 -17q-3 -63 -12 -125l-11 -78h-2v-2 q-13 0 -31 -1t-24 -1h-22q-5 -1 -41 0.5t-47 -2.5q-10 -4 -11 -4q-8 -6 -7 -17.5t11 -15.5q2 -2 13 -2q5 0 19 1.5t22 0.5h116l-10 -75h-2l-20 -162q0 -19 -7 -43l-4 -37q-1 -5 -5 -23.5t-4.5 -23.5t-2.5 -23.5t2 -23.5q2 -7 13.5 -9t17.5 5q9 15 14 57l2 16q0 10 1 20.5 t2.5 23t2.5 20.5l2 20q21 126 23 172l12 86h76q27 -1 72 0.5t61 1.5h37q9 0 135 -4l-16 -127q-4 -16 -4 -22l-4 -23q-23 -166 -25 -192l-2 -19q0 -2 0.5 -11t1.5 -13t5.5 -7t12.5 -1q3 1 6 2.5t5 3t4 4.5l3 4.5t2 5.5l1.5 6t1.5 6.5t1 6.5t0.5 7.5t0.5 6.5l4 31 q10 81 23 155q0 3 2 9.5t2 9.5l20 157h86q14 2 47 -2h17q19 4 26 11q9 8 9 10q4 10 -2 18t-17 8q-58 -3 -113 0h-49l17 123h-2l30 258h127q6 0 21 -1t24.5 -0.5t16.5 5.5q5 2 6.5 15.5t-2.5 15.5zM801 670l-2 -15q-4 -12 -4 -14l-15 -113h-121q-149 0 -223 -2h-35v2h-2 l11 76h2l37 307h75q12 0 34 -1t34 -1h16q13 0 41.5 1t44.5 1h19q5 -4 21.5 -2.5t21.5 0.5h71l-6 -49q0 -28 -8 -49q1 -3 1 -6.5t-0.5 -7.5t-0.5 -6q0 -3 -4 -15h2q-3 -18 -5 -53t-5 -53zM485 637l-4 -37h4q11 4 89 1t90 -3h45l32 229l-229 4q-2 -4 -2 -14 q-3 -30 -12.5 -90.5t-12.5 -89.5z" />
<glyph unicode="$" horiz-adv-x="1200" d="M1075 483q2 -6 2 -20q8 -27 8 -66q0 -4 -1 -11t-1 -11q-17 -101 -53 -174l-6 -15l-8 -14q-9 -20 -39 -59l-16 -19q-15 -18 -38 -34.5t-37.5 -24t-47.5 -23.5l-27 -10q-18 -8 -102 -22q0 -5 -1 -15.5t-1 -15.5v-19q-2 -18 1.5 -69t-6.5 -60q-12 -22 -27 -24.5t-41 3 t-46 1.5h-21q-23 -2 -53 8l-14 10q-10 8 -11.5 26t2 47.5t3.5 41.5v63q-6 1 -29 6.5t-31.5 7.5t-28 7.5t-31 10t-27 11.5t-28.5 15l-16 12q-36 23 -72 59l-14 15q-24 30 -43 65q-3 3 -5 8.5t-5 8.5l-8 16l-6 17q-23 43 -39 147q-2 2 -2 8v2v13q-18 80 28 96q12 6 21 6 q18 3 54 3t52 3q4 -2 19 -2q42 0 73 -8q5 -1 12 -4t9 -4l12 -13l8 -14q9 -15 9 -39q0 -3 1 -7t1 -7l4 -21q10 -43 32 -71q4 -6 11 -15t8 -10l12 -10l12 -8q1 0 3.5 -1t3.5 -1q-2 147 -2 337q-105 37 -152 68l-14 6l-13 6q-60 38 -108 92l-15 15q-14 14 -26 35q-3 4 -10 18 q-14 27 -20 55t-8 76t-3 57q0 4 1 11t1 10q3 49 25 102l10 33q10 30 28 60q9 20 39 59l17 18q15 18 38 34.5t37.5 24t47.5 23.5l26 11q22 9 107 22v55q-7 27 -4 43q0 4 1 11t1 10q7 19 18.5 27.5t30.5 13.5q3 0 9 1t9 1q17 0 35 0.5t26.5 1t23.5 -0.5t36 -5q6 -2 12 -8 q8 -2 11 -13q17 -31 8 -71q2 -2 2 -17v-49q106 -19 166 -55l16 -13q36 -23 72 -59l14 -14q35 -43 47 -74q15 -25 21 -39q17 -29 28 -84l4 -16l9 -64q2 -4 2 -20q-1 -31 -24.5 -50.5t-55.5 -19.5q-4 2 -19 2q-14 2 -79 2t-97 10q-14 14 -20 35q-6 13 -10 43l-5 19 q-10 30 -28 53q-4 6 -11 15t-8 10l-12 10l-10 6v-229q-4 -62 -4 -82q0 -13 -2 -15q68 -22 86 -30l18 -9q91 -34 125 -61l19 -16l32 -37l11 -13q65 -74 71 -174zM958 420v16q0 28 -4 37l-4 16q-46 98 -88 134l-16 12q-43 27 -55 31l-19 10l-59 24l-86 37v172q0 27 -2 41 q0 9 -1 94t-1 132q0 66 4 98v33q10 -1 84 -15q6 0 8 -2q1 0 4 -1t4 -1q19 -4 33 -12l14 -6q103 -54 125 -140l6 -18q9 -24 6 -51q0 -20 20.5 -20t20.5 20q3 33 -6 59l-6 19q-34 107 -135 159l-17 11q-22 12 -47 18l-16 4q-1 0 -1.5 0.5t-2 1t-4.5 0.5q-43 14 -90 17 q3 55 0 104v51q0 20 -20.5 20t-20.5 -20v-14q0 -7 1 -18.5t1 -18.5q3 -50 0 -102q-28 0 -82 -4q-1 0 -3 -1t-3 -1h-17q-27 -5 -63 -19l-21 -8q-44 -22 -82 -64l-12 -18l-10 -14l-12 -19q-68 -95 -33 -205q0 -3 1 -10t1 -10q19 -84 104 -152l17 -12q43 -31 88 -49l20 -8 l11 -4l45 -23l12 -6q6 -6 12 -8l27 -10q3 -61 0 -123v-33q-2 -6 -2 -21q0 -9 1 -127.5t1 -148.5v-27q0 -12 -2 -14v-90q-35 0 -66 8q-4 0 -10.5 1t-9.5 1q-1 0 -3 1t-3 1q-83 21 -140 78l-14 12q-65 74 -68 168q0 3 -1 7.5t-1 7.5q0 2 -4 14t-15 14.5t-19.5 -5t-4.5 -19.5 l4 -15q3 -111 72 -192l14 -15l15 -14q49 -53 162 -80h4l20 -4q12 0 34 -1t34 -1q0 -61 -2 -94v-72q6 -44 8 -51q4 -4 14 -4q21 0 21 18v45q-2 10 -2 35q-2 2 -2 10v7q-1 19 4 106q32 0 84 10l18 6l19 9q29 13 69 37l19 12q57 42 86 104l8 19q1 2 4 8.5t4 11.5l4 12l8 29 q8 31 8 72zM586 954v-26q2 -18 2 -58q2 -39 -2 -116l-6 2l-29 12q-33 18 -51 25l-8 4l-11 4q-42 16 -86 49l-16 12q-73 52 -84 121l-4 18q-22 115 37 201l10 12q26 34 63 56l17 10q40 21 82 29h4q4 2 18 2q30 3 64 0v-49q-2 -14 -2 -84q0 -48 1 -131t1 -93zM831 594 q75 -62 87 -160v-20q-3 -9 -3 -23q-5 -37 -10 -53l-4 -12q-1 -5 -4 -12t-4 -9q-19 -47 -64 -92l-16 -14l-10 -9q-6 -6 -12 -8l-41 -26l-15 -6l-24 -9q-37 -13 -82 -16l-4 35v94q0 4 1 13.5t1 13.5v411l84 -33l53 -26q11 -3 16 -8q19 -8 35 -21q9 -3 16 -10zM498 920v20 q0 6 2 8v215q-19 -8 -41 -30l-15 -15q-3 -4 -10 -18q-4 -4 -8 -15q-18 -29 -16.5 -66t24.5 -61l15 -16q15 -15 47 -35q2 2 2 13zM791 414v20l-5 17l-6 18q-6 6 -8 12q-17 21 -27 27q-7 7 -16 10l-18 10v-256q4 0 8 4l14 11q55 46 58 127z" />
<glyph unicode="%" horiz-adv-x="2023" d="M842 1049v-76q0 -27 -2 -41q-3 -87 -25 -162l-4 -12l-12 -25l-15 -24l-6 -13q-6 -6 -8 -12q-77 -77 -160 -115l-14 -6q-34 -7 -45 -8q-4 -2 -21 -2q-4 -2 -16 -2q-3 0 -9 -1t-9 -1q-64 -8 -154 18l-23 6q-106 56 -155 125l-8 17q-2 6 -10 23.5t-11 27.5q-8 22 -22 119 q-2 2 -2 12q0 3 -1 6t-1 6q-5 23 -5 80v17q-7 80 21 192l4 19l6 20q20 60 78 121l12 12q44 38 80 51l19 6q26 12 55 16t67.5 4.5t55.5 2.5h39q42 -8 88 -23l16 -6q17 -9 19 -10q80 -53 118 -113l13 -18q12 -23 24 -57l6 -19q0 -3 1 -6t1 -6t1 -6t1 -6q6 -24 7.5 -69t3.5 -62 h2zM1921 485v-75q0 -27 -2 -41q-3 -87 -25 -162q-1 -2 -2 -5l-1.5 -4.5t-0.5 -2.5l-12 -25l-14 -25l-6 -12q-8 -7 -9 -12q-78 -78 -159 -115l-15 -6q-34 -7 -45 -8q-4 -2 -20 -2q-4 -2 -17 -2q-3 0 -9 -1t-9 -1q-64 -8 -154 18l-22 6q-107 56 -156 125l-8 17q-2 6 -10 23.5 t-11 27.5q-8 22 -22 119q-2 2 -2 12q0 3 -1 6t-1 6q-4 18 -4 80v16q-8 84 20 193l4 18l6 21q20 60 78 121l13 12q45 38 79 51l19 6q26 12 55 16t67.5 4.5t55.5 2.5h39q42 -8 88 -23l16 -6q17 -9 19 -10q82 -54 119 -113l12 -18q12 -21 24 -58l7 -18q0 -3 1 -6t1 -6t1 -6.5 t1 -6.5q6 -24 7 -69t3 -62h2zM956 362q-2 -4 -4 -12l-4 -12l-24 -47l-13 -25l-92 -178l-6 -16l-18 -37q-8 -17 -19.5 -27.5t-30.5 -14t-30 -4.5t-37 0t-33 1q-12 0 -16 -2q-50 4 -58 30q-9 28 17 70l12 16l8 19q30 58 49 106q1 2 2 5t2 5t1 3l77 168l11 18l43 92l10 21 l61 127q0 1 13 22l10 15q14 40 50.5 110.5t41.5 81.5l6 10l6 13q36 63 47 90l95 188l12 21l16 36l6 13q12 19 25.5 54.5t29 61.5t42.5 41q10 7 18 7q4 2 21 2q-1 0 -2.5 1t-2.5 1q14 -3 64.5 2t76.5 -6t19 -50l-4 -18l-24 -51l-7 -17q-9 -20 -18 -32q-6 -9 -21 -43l-6 -13 q-43 -95 -53 -108l-6 -15q-2 -3 -16 -36l-7 -13l-41 -90l-8 -16q-10 -21 -47 -84t-51 -101l-10 -18l-43 -90q-14 -32 -27 -55q-7 -13 -27 -51t-30 -60l-15 -29q-9 -15 -24 -45.5t-17 -34.5zM1815 420q2 53 -9 141l-4 17q-11 57 -26 84l-11 18q-41 59 -108 86l-17 6 q-52 10 -86 10q-27 0 -41 -2q-20 0 -38 -6q-55 -9 -89 -41l-14 -14q-24 -24 -29 -33q-9 -9 -12 -18q-11 -18 -18.5 -37t-12 -43.5t-6 -38t-3.5 -45.5t-3 -41v-21l6 -102q2 -4 2 -21q14 -127 95 -180l16 -12l25 -14l12 -7q2 0 14 -4q12 -2 34 -7t35.5 -7.5t32.5 -2.5t35 5 q7 0 23 4q29 6 61 25q17 9 19 10q35 27 55 53l10 15q12 14 25 53q4 16 4 18q8 23 11.5 64.5t6.5 54.5q0 10 2 12q0 12 3 21zM735 983q3 59 -8 141l-4 17q-11 55 -27 84l-10 18q-41 59 -108 86l-17 6q-57 11 -86 11q-20 0 -41 -3q-21 0 -39 -6q-53 -9 -88 -41l-14 -14 q-24 -24 -29 -33q-9 -9 -12 -18q-11 -18 -18.5 -37t-12 -43.5t-6 -38t-3.5 -45.5t-3 -41v-20l6 -103q2 -4 2 -20q14 -129 94 -181l17 -12l24 -14l13 -6q2 0 14 -4q12 -2 34 -7t35.5 -8t32.5 -3t35 5q7 0 23 4q29 6 61 25q14 7 18 10q37 29 56 53l10 15q12 14 25 53 q4 16 4 18q8 23 11.5 64.5t6.5 54.5q0 11 2 13q0 14 2 20zM688 1077q-1 -8 0.5 -20t1.5 -17v-24q0 -25 -2 -39v-21q-1 -9 -3 -35t-3.5 -39t-6 -33.5t-12 -37t-18.5 -31.5l-8 -12q-13 -18 -37 -35l-16 -12q-65 -38 -131 -27q-15 0 -17 2q-2 0 -18 4q-28 3 -53 17 q-10 5 -15 10q-76 40 -92 168v18l-6 91v18q4 130 41 201l10 14l12 14l17 15q34 26 71 32l35 5q14 2 37 2q29 0 60 -7q3 0 8 -1t8 -1l16 -6q84 -35 107 -125q4 -16 4 -20q3 -9 8 -51q0 -13 2 -17zM1767 514q-1 -8 0.5 -20t1.5 -17v-24q0 -25 -2 -39v-21q-1 -9 -3 -35 t-3.5 -39t-6 -33.5t-12 -37t-18.5 -31.5l-8 -12q-13 -18 -37 -35l-16 -12q-65 -38 -131 -27q-14 0 -16 2q-3 0 -19 4q-28 3 -53 17q-8 4 -14 10q-78 41 -93 168v18l-6 90v19q4 129 41 200l10 15l13 14l16 14q35 28 72 33q28 4 35 4q14 2 36 2q33 0 60 -6q3 0 8 -1t8 -1 l17 -6q83 -35 106 -125q4 -16 4 -20q3 -8 8 -52q0 -12 2 -16zM571 891l7 20q0 7 2.5 30t2 28.5t-2.5 29.5q0 3 1 9.5t1 9.5v16q-2 4 -2 21q0 3 -1 9.5t-1 10.5q-12 67 -30 89l-7 7q-14 14 -29 17q-68 24 -113 -21q-6 -7 -10 -15l-7 -14t-5.5 -17.5t-3.5 -16t-3 -18.5t-3 -17 l-5 -37q0 -21 -2 -35v-14q0 -31 2 -37v-6q3 -3 3 -12q1 -7 3.5 -20t4.5 -21t5.5 -19t8.5 -20q12 -20 25 -33l8 -4t10 -4q9 -6 19 -6q28 -6 61 8q14 7 18 10q33 21 43 72zM1651 328l6 20q0 7 2.5 30t2 28.5t-2.5 29.5q0 3 1 9.5t1 9.5v16q-2 4 -2 21q0 3 -1 9.5t-1 10.5 q-12 67 -30 89l-7 7q-14 14 -29 17q-67 24 -112 -21q-4 -5 -7.5 -11t-6.5 -10.5t-5.5 -12.5t-3.5 -12t-3 -13t-2.5 -12.5t-2.5 -14t-2 -12.5l-4 -37q0 -21 -2 -35v-14q0 -31 2 -37v-6q2 -2 2 -12q1 -7 3.5 -20t4.5 -21t5.5 -19t8.5 -20q12 -20 25 -33l8 -4t10 -4q9 -6 19 -6 q28 -6 61 8q17 8 19 10q33 21 43 72zM920 487l2 5l2 5q2 5 6 9q1 2 9.5 21.5t14.5 27.5q0 6 4 10l58 117q4 8 13 28.5t15 30.5l82 168q5 8 9 22t6 19q54 116 76 150l32 63q50 88 66 140l16 28q12 21 -8 21q-10 0 -16 -6q-8 -3 -17 -15l-8 -14q-35 -86 -82 -176l-24 -54 q-48 -73 -66 -133l-16 -26q-8 -15 -37.5 -80.5t-52.5 -99.5l-9 -17q-26 -78 -69 -147q-4 -10 -8 -15q-10 -18 -37.5 -81t-49.5 -95l-8 -16l-12 -23q-4 -4 -8 -16l-4 -6l-58 -127l-41 -72l-16 -51q4 -4 14 -4q17 0 29 18l23 45q-2 8 14 35q-1 3 2.5 8.5t3.5 8.5q9 28 38 79 t34 62l6 16q6 13 8 19q13 22 34 61.5t30 56.5z" />
<glyph unicode="&#x26;" horiz-adv-x="1470" d="M1382 229q4 -11 5 -23t0 -31.5t-1 -24.5q0 -23 -2 -33q-1 -12 0 -21t-0.5 -20t-5.5 -21q-4 -8 -12 -16l-12 -14l-17 -11q-36 -16 -89.5 -18t-92.5 2q-12 0 -14 2q-23 0 -33 2h-21q-20 0 -38 6q-20 3 -37 10q-36 15 -70 35l-31 23q-11 -10 -28 -21l-17 -12 q-37 -24 -110 -43q-16 -4 -19 -4q-50 -12 -73 -12h-15q-26 2 -86.5 2t-104.5 4.5t-83 19.5l-27 10q-33 16 -47.5 23.5t-37.5 24t-38 34.5l-16 19l-6 10q-58 63 -82 166l-4 20l-6 29q-5 25 -5 29q0 7 -1 20.5t-1 20.5v12q-3 89 37 162l11 14q28 46 55.5 74.5t66.5 40.5 q-13 6 -30.5 20t-26.5 19l-10 8l-10 12l-13 13q-38 48 -47 73q-7 13 -8 19q-13 40 -23 92v31q-2 10 -2 32v15q3 105 54 196q2 2 10 19l12 16l13 14l12 15l14 16q38 41 78 66l16 8l35 16l27 11q13 5 27.5 9t25.5 6.5t28 4t25 2.5t28 1.5t25.5 0.5h28.5h27h20q74 2 185 -24 l18 -7q39 -18 53 -26l17 -13q33 -21 71 -59l15 -14q35 -43 47 -74q12 -19 20 -39q19 -32 29 -84l4 -16v-2q0 -7 2 -9q0 -16 2 -22q3 -22 0 -43q-7 -42 -45.5 -61.5t-83.5 -14.5h-37q-4 2 -18 2h-19q-41 -4 -67.5 21t-28.5 67l-4 19q-9 27 -29 53q-3 5 -18 25l-12 10l-13 8 q-73 36 -180 25l-20 -7q-34 -9 -58 -36l-14 -15q-3 -4 -10 -18q-4 -4 -8 -15q-11 -18 -13 -34q-2 -2 -2 -13q-6 -52 13 -100.5t61 -73.5l16 -10q23 -12 52 -18q3 0 7 -1t7 -1q6 -3 37 -7h12q15 -6 231 -2h33q11 4 49.5 2.5t49.5 -0.5h196q41 9 79 -4.5t30 -54.5v-20 q2 -23 2 -60q-2 -6 -2 -20q1 -21 -6.5 -35.5t-18.5 -21t-31 -9.5t-34 -2.5t-36.5 1.5t-31.5 1q-3 0 -7 -1t-7 -1h-13q-3 -6 -3.5 -13.5t0.5 -17.5t1 -14v-39q0 -116 6 -154l7 -20q1 -4 8 -18l10 -13l14 -12l23 -10q12 -6 24 -6q28 -5 76 -3.5t76 -3.5q31 -12 37 -16l12 -12 q1 -2 10 -19zM1278 117l18 4l13 8q6 6 6 14q-3 14 -17 19q-3 0 -6 1t-6 1q-94 -12 -186 0l-21 4q-15 4 -29.5 12.5t-32.5 20.5t-28 18q-3 2 -20 23q-27 31 -39 61l-2 2q7 13 20 53q1 6 1.5 11.5t1 14l1 17t0.5 24v30.5v41.5v52v66.5v81h187q6 1 21 0t24 1t16 10q12 15 -2 24 q-2 6 -26 5t-27 -1h-467h-23h-24.5t-22.5 0.5t-24.5 2t-22.5 4t-24 6.5q-7 3 -21.5 7t-21.5 7q-40 15 -78 39l-15 6l-14 8q-96 57 -119 174l-4 19q0 3 -1 8t-1 8v16q0 43 6 66q0 2 4 18q12 38 33 72q1 3 4 7t4 7q2 2 10 13t11.5 15t11.5 11.5t16 12.5l15 10l16 8q5 5 17 8 q86 39 196 27q4 0 11.5 -1t11.5 -1l20 -6q5 0 21 -4q109 -21 182 -107l10 -12l8 -10l13 -19q17 -31 20 -61q4 -20 4 -21q2 -4 2 -20q0 -20 20.5 -20t20.5 20q0 26 -10 59l-4 16q-11 32 -25 58l-12 18l-10 13l-10 12q-69 72 -172 108l-21 6l-45 9q-3 0 -7 1t-7 1t-9.5 1 t-9.5 1q-84 9 -178 -17l-18 -6l-19 -8l-18 -10q-42 -22 -76 -62l-12 -14l-13 -16q-2 -2 -10 -19l-16 -33q-4 -12 -4 -16q-5 -9 -9 -27t-6 -24q0 -3 -1 -7t-1 -7q-3 -40 0 -80l4 -17q4 -29 11 -49l6 -16q11 -45 47 -84l14 -13q23 -23 99 -73l16 -8l18 -9q22 -11 54 -18 q-53 -13 -72 -21l-18 -6q-48 -27 -54 -32l-16 -13q-47 -33 -74 -100l-6 -16q-28 -68 -18 -115q0 -13 2 -17q0 -14 2 -20q2 -31 14 -70l4 -14q7 -27 27 -55q3 -3 5 -8.5t5 -8.5q34 -45 92 -75l19 -11l14 -6q5 -5 14 -8q75 -24 137 -27h19q79 -3 176 45l16 9q52 27 99 77 q5 10 10 15q7 7 10 16l19 -26l18 -25q62 -62 131 -82l23 -6q41 -6 84 -6h100zM911 512v-47q2 -4 2 -21q0 -73 -14 -106l-8 -16l-8 -19q-44 -78 -135 -123l-19 -8q-71 -31 -133 -31q-4 -2 -18 -2q-66 0 -109 17l-16 6q-25 8 -47 24q-8 8 -17 11q-43 31 -63 65l-11 17 q-15 30 -22 51l-4 14l-6 27q0 3 -1 8t-1 8q-2 18 -2 57q2 4 2 19l4 16q3 7 6 23.5t6 23.5l6 17q18 45 64 84q9 3 16 10q30 24 66 35q5 3 16 5t18 5q58 12 205 12h51q115 0 172 2v-20q-3 -82 0 -164zM795 469v127h-150q-89 0 -115 -4t-36 -8l-35 -17l-15 -12q-32 -26 -41 -66 q-4 -12 -4 -16q-6 -18 -6 -37q0 -10 -2 -14q0 -17 2 -23q0 -10 2 -12q0 -8 15 -33q4 -12 8 -14q28 -47 65 -64l15 -6l20 -6q14 -2 37 -2h18q64 -4 99 12l14 7q63 32 82 86q2 2 8 20q16 44 19 82z" />
<glyph unicode="'" horiz-adv-x="428" d="M344 1384q2 -2 2 -14q-2 -2 -2 -14l-4 -13q0 -12 -2 -16q0 -17 -4 -45q-6 -24 -11 -73t-6 -56l-4 -20q0 -5 -4 -21q-3 -24 -11 -69t-11 -68q0 -13 -2 -17q-12 -51 -52 -43q-16 -4 -22 -4q-66 -10 -92 37q-4 16 -4 19q-4 31 -8.5 83t-6.5 72l-4 41q0 3 -1 7.5t-1 7.5v14 l-8 74q0 4 -1 11t-1 11q-2 23 -2 66v14v14q1 28 20 44t45 16h21h72h18l55 -6q6 -2 13 -9q7 -2 10 -12q3 -3 6 -16q2 -2 2 -15zM217 1018v10l6 105v34v15q0 7 -1 20.5t-1 20.5q2 6 2 22q4 65 -6 107q-3 8 -10 8q-10 3 -17 -4q-2 -2 -8 -19v-80v-20q2 -14 2 -39v-12 q6 -14 2 -39v-56t4 -79q0 -3 5 -4t8 -4q8 -6 14 14z" />
<glyph unicode="(" horiz-adv-x="667" d="M389 819v-192v-187q0 -17 1 -57.5t1 -60.5v-23q-1 -15 1.5 -58.5t-1.5 -58.5v-125q2 -17 2 -56t3.5 -70t15.5 -54l10 -12l14 -12l23 -11q12 -6 24 -6q11 -3 24 -4t28.5 -1t23.5 -1h19q33 -6 53 -20l12 -15q28 -100 -4 -166q-6 -8 -14 -14l-17 -12l-18 -9q-84 -11 -170 -2 h-21q-99 8 -196 91l-15 16l-24 31q-6 4 -10 16q-2 4 -9 12q-31 99 -39 176v201q0 23 -2 67t-2 68v62q2 35 2 108h-2v131v193q0 57 1 151.5t1 122.5q0 17 0.5 32t1 23.5t0.5 10.5v242v139q-2 52 17 135l6 20q11 32 25 52q3 9 10 16l24 31l15 16q96 82 196 90h21q46 7 108 4 q3 0 9.5 -1t9.5 -1q39 5 70.5 -18.5t35.5 -63.5q0 -4 1 -11t1 -11q4 -50 -8 -82q-3 -11 -8 -16q-16 -25 -43 -31q-2 0 -14 -4q-45 -7 -68 -4q-3 0 -9 -1t-9 -1q-16 0 -37 -9l-23 -10l-14 -12l-10 -12q-12 -23 -15.5 -54t-3.5 -70.5t-2 -56.5v-77q-3 -27 -3.5 -55t0.5 -67 t1 -55l-4 -198zM543 -307q9 0 12 8q9 17 0 28t-27 11q-11 -1 -34.5 -4t-40.5 -2.5t-35 6.5q-5 0 -21 4q-44 15 -72.5 47.5t-40 81t-15 87.5t-3.5 97q0 3 -1 9.5t-1 9.5q-3 61 0 125q0 61 1 179t1 179q0 25 2 73t2 73q0 36 -1 77t-2.5 91t-2.5 79q0 24 -1 68t-1 67 q0 131 2 197q0 126 2 189q0 85 21 135q20 44 51 69l14 11q79 34 201 34q7 0 14 7q1 2 3.5 6.5t2.5 7.5q0 20 -20 20q-6 2 -25 2q-21 -5 -61 -9t-72.5 -10.5t-58.5 -21.5q-3 -3 -8.5 -5t-8.5 -5q-42 -31 -63 -78q-31 -58 -31 -147q-2 -68 -2 -201q-2 -63 -2 -184 q0 -60 2 -179.5t2 -181.5q0 -61 -2 -183t-2 -185q3 -31 3.5 -63t-0.5 -77t-1 -63v-100q6 -139 19 -194q37 -152 170 -179q3 0 6 -1t6 -1q18 -4 36 -5t47.5 0t35.5 1z" />
<glyph unicode=")" horiz-adv-x="667" d="M125 -307q6 0 35.5 -1t47.5 0t36 5q3 0 6 1t6 1q28 6 51 16.5t40 23.5t30.5 32t23 36t16.5 42t10.5 43.5t7 46.5t4.5 45t2.5 45.5t2.5 42.5v100q0 18 -1 63t-0.5 77t3.5 63q0 63 -2 185t-2 183q0 62 2 181.5t2 179.5q0 121 -2 184q0 133 -2 201q0 91 -30 147 q-26 50 -64 78q-3 3 -8 5t-8 5q-26 15 -58.5 21.5t-73 10.5t-61.5 9q-18 0 -24 -2q-21 0 -21 -20q0 -3 2.5 -7.5t3.5 -6.5q7 -7 15 -7q121 0 200 -34l15 -11q31 -25 51 -69q20 -48 20 -135q2 -63 2 -189q3 -99 3 -197q0 -23 -1.5 -67t-1.5 -68q-1 -29 -2.5 -79t-2.5 -91 t-1 -77q0 -25 2 -73t2 -73q0 -61 1 -179t1 -179q3 -64 0 -125q0 -3 -1 -9.5t-1 -9.5q0 -58 -3.5 -97t-15 -87.5t-40 -81t-72.5 -47.5q-16 -4 -20 -4q-18 -6 -35 -6.5t-41.5 2.5t-34.5 4q-18 0 -26.5 -11t0.5 -28q3 -8 12 -8zM279 627v192l4 109l-4 198q0 148 -3 177v77 q-3 31 -1.5 60t-2.5 63.5t-16 57.5l-10 12l-15 12l-22 10q-21 9 -37 9q-3 0 -9 1t-9 1q-23 -3 -68 4q-12 4 -14 4q-27 6 -43 31q-7 7 -9 16q-12 32 -8 82q0 4 1 11t1 11q4 40 36 63.5t71 18.5q3 0 9 1t9 1q62 3 109 -4h20q101 -8 197 -90l14 -16l25 -31q9 -14 10 -16 q14 -20 25 -52l6 -20q18 -79 16 -135v-139v-242q0 -2 0.5 -10.5t1 -23.5t0.5 -32q0 -28 1 -122.5t1 -151.5v-193v-131h-2q0 -73 2 -108v-62q0 -24 -2 -68t-2 -67v-201q-8 -77 -39 -176q-6 -6 -8 -12q-3 -9 -10 -16l-25 -31l-14 -16q-97 -83 -197 -91h-20q-86 -9 -170 2 l-19 9l-16 12q-8 6 -14 14q-32 66 -4 166l12 15q20 14 53 20h19q8 1 23.5 1t28 1t23.5 4q13 0 25 6l22 11l15 12l10 12q12 23 16 57.5t2.5 63t1.5 59.5v125q-4 15 -1.5 58.5t1.5 58.5v23q0 20 1.5 60.5t1.5 57.5v187z" />
<glyph unicode="*" horiz-adv-x="970" d="M717 1044l-58 -30l-10 -6l10 -7q36 -18 54 -24l8 -6q15 -11 20 -13q4 -4 9 -4q6 -3 31 -14.5t36 -19.5q1 0 6 -5q18 -11 26.5 -17.5t20 -20t15.5 -27.5v-8q0 -3 -4 -19v-2l-27 -51q0 -3 -6 -6q0 -3 -2.5 -6.5t-3.5 -5.5l-8 -9q-47 -27 -101 13l-10 4l-25 14l-10 6l-24 17 l-101 57q0 -22 -1 -58.5t-1 -50.5q7 -65 4.5 -104t-20.5 -57l-6 -6q-6 -6 -15 -9h-8q-2 -1 -5 -2l-4.5 -1.5t-2.5 -0.5q-7 0 -20.5 -1t-20.5 -1h-17q-2 2 -14 2l-12 4q-27 10 -34.5 36.5t-2.5 56.5q-2 2 -2 8v30q0 27 2 41v17q0 18 -1 49t-1 43l-49 -29q-6 -2 -18.5 -6.5 t-18.5 -7.5q0 -2 -2 -2l-6 -4q-2 -2 -4 -2t-2 -2q-16 -6 -48 -29q-3 -1 -10 -8q-38 -23 -57 -25h-14q-21 9 -37 37l-6 10q-2 9 -13 29.5t-12 34.5q0 3 -1 7t-1 7v17q2 9 12 17.5t19.5 13.5t28 13.5t26.5 12.5l10 6l60 33q4 4 6 4l37 20q2 1 5 4t5.5 4.5t5.5 2.5l-55 32l-9 7 l-8 6q-1 3 -2 4t-3.5 2.5t-4.5 3.5q-11 4 -28.5 15.5t-28.5 15.5q-3 1 -6 3q-4 1 -5 1l-6 4l-8 4q-29 7 -41 38.5t2 57.5l8 10l15 29l6 10l6 11l6 6q37 31 86 -4l10 -9q5 -3 18 -12t21 -12l9 -6l43 -27l10 -6q21 -15 51 -27v64q4 28 4 39v18q1 17 -1.5 49.5t-2.5 44.5 q0 3 1 6.5t1 6.5q0 24 19.5 36t44.5 7q10 0 12 -2q18 0 22 2h13q5 0 13.5 -1t12.5 -1q3 0 9.5 -3.5t9.5 -3.5q0 -2 2 -2l4 -4l8 -4q6 -6 8.5 -18.5t2 -23t-2.5 -31.5t-2 -29v-103q-2 -2 -2 -10q0 -5 -1 -15.5t-1 -15.5v-12q4 0 8 4q7 3 19.5 11.5t19.5 11.5l10 6l48 27 q53 36 82.5 52t54 16.5t41.5 -19.5q2 -4 2 -2q8 -14 15 -25t8.5 -12t5.5 -9.5t6 -14l10 -27.5q4 -4 0 -15q0 -8 -6 -14l-7 -8q-10 -14 -24 -24t-36.5 -21t-29.5 -15q-6 -2 -12 -8l-12 -6q-2 -2 -6 -2l-15 -8l-12 -6zM522 997l-8 7q-4 0 -8 4q3 6 10 6l10 6l41 27l11 6 q1 0 2 0.5t3.5 1.5t4.5 2l10 6l25 12l8 4q63 33 92 54l10 6q4 3 28 15t32 26q5 8 -1 15.5t-16 6.5q-11 -4 -21 -10t-22 -15t-20 -14l-11 -6l-71 -41l-17 -8l-8 -6l-10 -8l-23 -9l-12 -6q-14 -7 -18 -10l-11 -4q-8 -6 -26 -16.5t-21 -12.5q0 11 2 13v12q-3 17 -3 35t1.5 40 t1.5 35q2 2 2 11q-2 23 -2 57v35q10 51 -4 88q-9 13 -22 0q-8 -13 -8 -35.5t-2 -30.5v-65q0 -19 4 -55q-2 -2 -2 -11q-2 -27 -2 -82v-41q-6 2 -13 9q-6 2 -12 8q-4 0 -8 4q-15 13 -45.5 27.5t-40.5 21.5l-10 6l-11 6q-2 0 -6 4l-8 7l-12 4q-1 0 -4.5 1.5t-6.5 2.5l-8 6 l-33 18l-12 7q-31 18 -45 10q-22 -13 23 -45q2 -2 8 -4q13 -8 26 -11q12 -4 13 -4l30 -16q1 0 3.5 -1t3.5 -1l14 -10l12 -7q51 -36 94 -55l17 -12q4 0 8 -4l8 -6q2 0 6 -4l-8 -7l-10 -6q-4 0 -11 -4.5t-10 -5.5q-4 -4 -8 -4q-20 -13 -49 -27l-10 -6l-25 -10l-6 -4l-10 -6 q-5 -4 -51 -33l-11 -6q-7 -4 -29 -11.5t-32.5 -16t-7.5 -21.5q2 -8 8 -10.5t16 0t18.5 6.5t20.5 10t17 8l10 6q28 16 39 27l8 6l27 14q2 1 4.5 2t3.5 1.5t2 0.5q4 4 10 4l31 17l8 6q8 3 29.5 15.5t34.5 15.5q-1 -17 1.5 -45t2.5 -41v-11q2 -16 2 -51q-2 -2 -2 -10v-64 q0 -3 1 -6t1 -6q-4 -53 -2 -78q0 -7 10 -10q11 -4 18 -0.5t9 14.5q4 7 0.5 36t-3.5 36v37q0 6 -1 23t-1 26v16q-2 22 2 54v10q0 41 -6 82l9 -4q1 0 2 -0.5t3.5 -1.5t4.5 -2q1 0 4 -1t4 -1l12 -6l10 -7q32 -12 82 -43l11 -6q6 -6 12 -8l68 -39l10 -6q7 -2 17.5 -8.5t19.5 -13 t18.5 -11.5t16.5 -3.5t10 11.5q4 15 -7 24t-33 17.5t-30 14.5l-10 6q-6 3 -22 12t-29 14q-3 3 -10.5 7.5t-10.5 7.5q-19 6 -36 15.5t-44 26t-35 21.5q-4 4 -8 4z" />
<glyph unicode="+" horiz-adv-x="1085" d="M977 492v-21q2 -23 -8 -53l-11 -15q-8 -10 -26 -11.5t-47 2t-41 3.5h-182q0 -34 -1.5 -88t-1.5 -73q10 -86 1 -129t-48 -50q-3 0 -9 -1t-9 -1q-17 0 -35 -0.5t-26.5 -1t-23.5 0.5t-36 5q-5 1 -12 9q-7 2 -10 12q-18 33 -9 72q-2 2 -2 16v22q0 27 2 41v17q0 32 -0.5 66 t-1 56.5t-0.5 24.5q-112 0 -153 2q-86 -10 -128.5 -1t-49.5 48q0 3 -1.5 9.5t-1.5 9.5q0 17 -0.5 35t-0.5 26.5t1 23.5t5 36q2 6 8 12q2 7 12 10q32 18 72 8q2 2 16 2h23q27 0 41 -2h16q37 0 88.5 1t54.5 1v103q4 28 4 39v18q2 18 -1.5 69t6.5 60q10 22 26.5 24.5t42.5 -2.5 t45 -1h21q23 2 53 -8l14 -11q10 -8 11.5 -26t-2 -47t-3.5 -41v-179h111q28 -4 39 -4h18q18 -2 69 2t60 -6q22 -12 24.5 -27t-2.5 -41t-1 -46zM885 496q4 4 4 14q0 20 -19 20h-45q-10 -2 -34 -2q-2 -2 -17 -2q-27 -2 -38 -2t-36.5 2.5t-37.5 3.5h-17q-13 -3 -78 -8v94 q0 8 -1 28.5t-0.5 36t3.5 30.5v71q-6 46 -8 52q-4 4 -14 4q-21 0 -21 -19v-45q2 -10 2 -35q2 -2 2 -16q2 -27 2 -37.5t-2.5 -35t-3.5 -34.5v-22q5 -18 9 -72q-48 -3 -95 0q-9 0 -28.5 1t-28.5 1q-71 3 -139 0h-29q-20 0 -20 -20.5t20 -20.5h14q39 6 211 6q40 3 90 3h5 q3 -47 0 -97q0 -11 -1.5 -31t-1.5 -32q-3 -71 0 -139v-29q0 -20 20.5 -20t20.5 20v14q-5 36 -8 217v94h97q9 0 30.5 1t37.5 0.5t32 -3.5h72q40 5 51 9z" />
<glyph unicode="," horiz-adv-x="448" d="M362 127q3 -3 3 -8q2 -7 2 -9.5t-2 -9.5t-3 -10v-14q0 -24 -10 -62q-27 -74 -43 -110q-22 -45 -45 -74l-6 -8q-6 -7 -19 -24t-21.5 -26.5t-22.5 -19t-29 -12.5h-10q-29 8 -58 33l-6 8q-10 20 -2 33l4 12q4 5 15.5 18t15.5 21q4 4 6 10q7 7 12 21l7 12q13 31 22 43 q0 1 0.5 1.5t1 2t0.5 4.5q6 6 6 16q2 4 2 13l-14 4l-16 6l-31 27l-10 10q-16 22 -25 57q0 3 -1 10.5t-1 10.5q-2 43 22.5 81.5t65.5 55.5l21 6q8 2 26 2q45 0 86 -27l17 -14l8 -6q28 -28 32 -84zM182 119v-4q0 -16 11 -22t24 -1q4 0 4 2q2 0 8 2.5t7.5 2l7.5 -2.5 q5 -5 7.5 -12.5t3 -11.5t0 -15t-0.5 -12t-1 -3t-1 -3v-4l-4 -17v-4q-6 -25 -15 -47l-6 -10q-2 -5 -4 -15.5t-5 -19t-9 -14.5q0 -6 -4 -10l-4 -7q-3 -9 -8 -14q0 -3 -3 -6q-3 -7 -8 -14t-12 -16t-10 -13v-4q0 -2 2 -4l4 -4q1 0 2 1t2 1q5 7 17.5 20.5t17.5 20.5l4 4 q1 3 12 19.5t15 25.5q0 4 2 6l14 33q0 2 2 4q0 4 2 6q3 8 7 25.5t7 25.5q2 2 2 6t2 6v5q0 1 1 3t1 3v4q1 3 2 7t2 6.5t1 4.5v6q2 6 -2 25q0 3 -3 6q0 26 -24 47l-4 4q-18 11 -35 11q-1 0 -3 -1t-3 -1q-28 -9 -25 -31z" />
<glyph unicode="-" horiz-adv-x="1085" d="M283 614h16q32 0 66 0.5t56.5 1t24.5 0.5h199v-2h125q28 -4 39 -4h18q18 -2 69 2t60 -6q22 -12 24.5 -27t-2.5 -41t-1 -46v-21q2 -23 -8 -53l-11 -15q-8 -10 -26 -11.5t-47 2t-41 3.5h-15h-184v-2q-60 0 -189 1t-169 1q-86 -10 -128.5 -1t-49.5 48q0 3 -1.5 9.5t-1.5 9.5 q0 17 -0.5 35t-0.5 26.5t1 23.5t5 36q2 6 8 12q2 7 12 10q32 18 72 8q2 2 16 2h23q27 0 41 -2zM774 526q-15 -4 -66 0t-63 4q-96 -17 -262 -6q-71 3 -139 0h-29q-20 0 -20 -20.5t20 -20.5h14q74 9 301 9q12 0 15 -3h90q14 -1 63.5 0.5t63.5 -2.5h72q40 5 51 9q4 4 4 14 q0 20 -19 20h-45q-10 -2 -34 -2q-2 -2 -17 -2z" />
<glyph unicode="." horiz-adv-x="448" d="M219 258q45 0 86 -27l17 -14q23 -17 36 -47l4 -25q0 -3 1.5 -8t1.5 -8q5 -30 -11 -63q-3 -3 -6 -10.5t-6 -10.5q-25 -35 -72 -51q-16 -4 -18 -4q-11 -4 -43 -4h-23l-18 6l-16 6l-31 27l-10 10q-16 22 -25 57q0 3 -1 10.5t-1 10.5q-2 43 22.5 81.5t65.5 55.5l21 6 q8 2 26 2zM231 152h-16q-10 0 -16.5 -10.5t-8.5 -22.5v-4l7 -13h2q2 0 8 -6l2 -2q14 0 20 2q5 0 7 2q8 3 18 25l-2 4v4q0 3 -6 6z" />
<glyph unicode="/" horiz-adv-x="933" d="M410 362q-2 -4 -4 -12l-5 -12l-24 -47l-12 -25l-93 -178l-6 -16l-18 -37q-8 -17 -19.5 -27.5t-30.5 -14t-30 -4.5t-37 0t-33 1q-12 0 -16 -2q-49 4 -57 30q-9 29 16 70l12 16l8 19q34 66 50 106q4 12 4 13l78 168l10 18l43 92l10 21l61 127q0 1 13 22l10 15 q14 40 50.5 110.5t41.5 81.5l6 10l6 13q39 68 48 90l94 188l12 21l16 36l7 13q12 19 25 54.5t28.5 61.5t42.5 41q11 7 18 7q4 2 21 2q-1 0 -2 1t-2 1q16 -4 38 -1t45.5 3t42 -2t28.5 -15.5t5 -38.5l-4 -18l-24 -51l-6 -17q-8 -18 -19 -32q-4 -5 -20 -43l-7 -13 q-43 -95 -53 -108l-6 -15q-2 -3 -16 -36l-6 -13l-41 -90l-9 -16q-10 -21 -47 -84t-51 -101l-10 -18l-43 -90q-14 -32 -27 -55q-6 -13 -26.5 -51t-30.5 -60l-14 -29q-9 -15 -24 -45.5t-17 -34.5zM373 487l2 5q1 0 3 5t5 9q23 47 25 49q0 6 4 10l57 117q3 5 13 27t16 32 l82 168q4 8 8 21.5t6 19.5q54 116 76 150l32 63q50 88 66 140l16 28q12 21 -8 21q-10 0 -16 -6q-8 -3 -17 -15l-8 -14q-35 -86 -82 -176l-24 -54q-48 -73 -66 -133l-16 -26q-8 -15 -37.5 -80.5t-52.5 -99.5l-8 -17q-25 -75 -70 -147q-3 -10 -8 -15q-10 -19 -37 -82t-49 -94 l-9 -16l-12 -23q-4 -4 -8 -16l-4 -6l-57 -127l-41 -72l-17 -51q4 -4 15 -4q16 0 28 18l23 45q-2 8 14 35q-1 3 2.5 8.5t3.5 8.5q9 28 38 79t34 62l6 16q7 13 8 19q13 22 34 61.5t30 56.5z" />
<glyph unicode="0" horiz-adv-x="1163" d="M371 1419l26 11q57 20 162 24q36 0 59 2h31q7 -1 36.5 -7.5t41.5 -9.5t35 -9.5t40.5 -14.5t33.5 -18l16 -13q36 -23 72 -59l14 -14q35 -43 47 -74q15 -25 21 -39q12 -19 19.5 -43.5t10.5 -42t7 -47t6 -43.5l4 -39v-14l4 -41q5 -51 0 -201v-22q5 -150 0 -201 q-5 -69 -8 -84q-2 -8 -2 -27l-11 -63q0 -3 -1 -10.5t-1 -10.5t-1 -9t-1 -9q-56 -123 -94 -170l-14 -15q-36 -36 -72 -59l-16 -12q-14 -8 -30.5 -15.5t-28.5 -12t-33 -10.5t-30 -8t-34 -7.5t-31 -6.5h-31q-14 2 -43 2q-116 0 -178 25l-26 10q-33 16 -47.5 23.5t-37.5 24 t-38 34.5l-17 19q-28 36 -38 59q-28 55 -39 92q-22 63 -33 162q-6 33 -10 98v19q-5 147 -7 162v18q-3 81 5 151q0 3 1 9.5t1 9.5l4 55q0 3 1 9.5t1 9.5l4 39q11 98 33 161q11 40 39 93q10 23 38 59l17 18q15 18 38 34.5t37.5 24t47.5 23.5zM934 494v4q3 81 0 180v16 q0 12 1.5 69t1.5 105t-3 70l-2 31v10l-4 29v2q0 3 -1 8t-1 8q-8 113 -101 215l-14 14q-9 9 -45 37l-2 2l-16 9q-14 8 -32.5 14.5t-26 8.5t-35.5 8l-27 5h-62q-74 -4 -119 -20l-20 -8h-2q-74 -40 -148 -152v-2q-3 -4 -10 -18q-2 -1 -8 -21l-6 -20q-16 -57 -19 -103l-4 -28 v-13l-4 -41v-4q0 -1 -1 -4t-1 -6q0 -18 -1 -103.5t-1 -105.5v-14q1 -12 2 -46t2 -50v-68q5 -60 8 -72q14 -90 25 -121l12 -36q47 -103 121 -142l35 -16l18 -8h2l21 -6q37 -12 60.5 -14.5t58.5 0.5t57 3q16 4 21 4l12 5l18 4h2q68 23 125 77l17 17l24 33l2 2q55 112 64 194 q2 2 2 15zM895 694v-16q5 -140 0 -178v-4q0 -13 -4 -41v-15q-9 -71 -62 -180l-20 -29l-14 -12q-45 -45 -111 -69q-1 0 -3 -1t-6 -2t-7 -2q-3 0 -6.5 -1t-6.5 -1h-2q-16 -4 -18 -4l-19 -4h-2q-21 -6 -41 -6h-4h-10q-32 5 -82 18l-18 7l-19 8q-22 6 -30 14q-58 27 -105 123 l-10 33q-14 38 -25 112l-6 70v14q0 6 -1 23.5t-1 30.5q0 71 -2 96v14q0 19 1 103.5t1 101.5v6q2 2 2 8l2 39v2q0 2 2 4v9l2 26q18 92 19 96l6 17l6 18l8 19q62 99 131 135l19 6q50 15 106 18h53q72 -11 113 -32l12 -6q24 -18 41 -35l15 -13q79 -86 88 -190v-2l4 -18l2 -27 v-10l2 -31q3 -21 3 -69t-1.5 -104.5t-1.5 -68.5zM520 262l21 -6q2 -2 18 -2q52 3 109 27l12 8l12 10q1 1 8 10t11 15q28 34 39 112q10 20 10 58l4 22q-2 6 -2 27q0 42 2 96.5t2 83.5q0 10 -4 95t2 97l-4 23q0 37 -10 57q-12 80 -39 113q-4 6 -11 15t-8 10l-12 10l-12 8 q-47 21 -103 27q-6 -2 -24 -2l-21 -7q-33 -8 -57 -36l-14 -15q-6 -8 -11 -18q-13 -22 -16 -29q-12 -39 -14 -67q0 -3 -1 -9.5t-1 -9.5q-7 -40 -7 -65q-4 -62 -4 -82q0 -4 -1 -11t-1 -10q5 -11 1.5 -90t-3.5 -90q0 -4 1 -11.5t1 -11.5q0 -3 1 -9.5t1 -10.5q0 -20 4 -82 q0 -26 7 -66q0 -3 1 -9t1 -9q2 -29 14 -68q2 -4 16 -28q6 -13 11 -19l14 -14q26 -29 57 -37z" />
<glyph unicode="1" horiz-adv-x="659" d="M188 1434h19q11 0 39 4h71l2 2q131 4 183 -4q4 -2 12 -9q7 -2 10 -12q18 -32 8 -72q3 -3 3 -16v-22q0 -20 -3 -41v-17q0 -32 1 -66t1.5 -56.5t0.5 -24.5v-180q-5 -78 -5 -82t-1 -11t-1 -10q4 -11 1 -90t-3 -90v-440q-4 -28 -4 -39v-19q-2 -18 2 -69t-6 -60 q-12 -22 -37.5 -24t-61.5 3t-57 1h-20q-46 -3 -78 8l-14 10q-10 8 -11.5 26t2 47.5t3.5 41.5v14q0 100 -1 288.5t-1 203.5v94q-1 30 4 178q0 3 1 9.5t1 9.5v20q0 6 2 8q-2 6 -2 17v39l-2 151h-74q-12 0 -39 -3.5t-43 -2t-24 11.5l-11 15l-3 14q-4 14 -5 24v13q-1 11 1 56 t-3 56q0 4 -1 12t-1 11q-2 27 3 42.5t22 25.5q9 10 55.5 6t64.5 -2zM213 1274q1 0 4.5 0.5t12.5 1t23 1t42 1t65 0.5v-191q-4 -33 0 -133v-26q11 -175 2 -377q-2 -6 -2 -21q2 -27 2 -77v-17q0 -12 -2 -14v-90q-1 -14 0.5 -63.5t-2.5 -63.5v-72q5 -41 9 -51q4 -4 14 -4 q20 0 20 18v45q-2 10 -2 35q-2 2 -2 17q-3 27 2.5 88t-0.5 88v20q0 67 2 100v420q0 27 -2 41q-8 67 2 150v14h2l-2 205h-243q-20 0 -20 -20.5t20 -20.5q19 0 55 -4z" />
<glyph unicode="2" horiz-adv-x="1179" d="M1022 281l18 -7q25 -16 25 -45v-20q-5 -36 -4 -43q0 -108 -8 -146l-11 -14q-13 -13 -49 -10q-32 -10 -92 -6h-24q-32 1 -91 3t-107.5 3t-92.5 0h-90q-42 0 -60 2h-94q-25 2 -31 2.5t-31 -2t-32 -2.5q-5 0 -15.5 -1t-15.5 -1q-72 -11 -97.5 41t-6.5 121q0 5 1 15t1 15 l4 31q23 136 92 225l18 25l13 14q23 27 54 54t53.5 43.5t63 45.5t58.5 42l25 18q38 25 71 55l25 19q46 36 67 57l21 19q32 25 57 61l17 23q26 42 32 75q4 26 2 31q0 36 -14 61q-1 4 -4.5 9t-3.5 6q-7 14 -10 18l-15 15q-24 28 -57 36l-20 7q-108 11 -181 -25l-12 -8l-12 -10 q-32 -32 -49 -89l-15 -49q-28 -47 -102 -47h-31q-13 2 -39 5t-42.5 5.5t-36 12.5t-31.5 28q-15 24 -4 66l4 27q19 107 104 217l23 24l24 23l25 18q47 35 106 56l23 8q16 6 51 10q20 4 27 4q61 9 110 2h27q117 0 174 -24l27 -11q32 -16 47 -24t37.5 -24t37.5 -34l17 -18 q30 -39 39 -59l14 -29q3 -5 7 -15.5t7 -15.5l13 -31l8 -32q39 -129 -17 -277l-12 -26q-27 -59 -78 -119l-22 -25q-40 -53 -107 -106l-24 -19q-8 -8 -43 -33q-3 -3 -11.5 -8.5t-11.5 -7.5l-20 -16q-3 -2 -8 -5.5t-8.5 -6t-6.5 -5.5q-18 -12 -75.5 -47t-92 -63t-59.5 -64 l-19 -26h377q9 0 59 -2.5t59.5 -2t59.5 2.5h21zM938 115q20 0 20 20.5t-20 20.5q-112 0 -336 2t-336 2q0 132 131 256q62 49 66 51l24 16q24 17 98 72.5t120 83.5l47 39l20 20q83 79 125 160l14 29q10 17 13 28q3 6 5 12.5t3 11.5t2 7l6 29l4 29q6 78 -20 150t-84 120 q-15 12 -27 16q-37 22 -89 33t-81 13t-94 3q-7 0 -18 -1t-15 -1q-78 -12 -145.5 -56.5t-108.5 -111.5q-15 -30 -22 -51q-11 -33 -11 -53t20.5 -20t20.5 20q0 23 15 57l16 31q71 104 219 143q9 0 27.5 1t27.5 1q107 0 168 -20q15 -4 29 -12l31 -17q59 -41 85 -114t15 -148 l-6 -33q-7 -21 -10 -26q-8 -23 -10 -27l-15 -27q-47 -74 -106 -133l-25 -22q-21 -21 -43.5 -38.5t-60.5 -43t-49 -33.5q-13 -10 -38.5 -31t-45.5 -36t-41 -27q-3 -2 -11.5 -7.5t-11.5 -8.5q-36 -25 -65 -54q-67 -67 -101 -129q-42 -82 -39 -168v-4q0 -20 21 -20 q116 0 346 -2t346 -2z" />
<glyph unicode="3" horiz-adv-x="1179" d="M1069 518q6 -26 6 -106q0 -3 1 -8.5t1 -8.5q0 -4 -1 -10.5t-1 -9.5q-3 -38 -10 -58l-4 -20q-24 -103 -82 -166l-6 -10l-17 -19q-15 -18 -37.5 -34t-37.5 -24t-47 -24l-27 -10q-39 -15 -83.5 -19.5t-105 -4.5t-86.5 -2h-30q-7 1 -36.5 7.5t-41.5 9.5t-35 9.5t-40.5 14.5 t-33.5 18l-16 12q-33 21 -72 60l-14 14q-35 44 -47 74q-15 25 -21 39q-17 29 -28 84l-4 16l-9 64q-2 4 -2 20q3 38 37 59l15 7q33 4 93 2.5t93 1.5q12 0 16 -2q42 -13 45 -58l5 -18q0 -3 1 -7.5t1 -7.5l4 -18q10 -30 28 -53q4 -8 9 -13q54 -68 159 -57h19q23 0 37 2l20 6 l14 6q38 17 66 64q5 5 8 14q14 23 14 33q2 2 2 12q3 9 3 23q-3 6 -3 14q0 19 -6 37q0 4 -4 16q-9 40 -41 66l-14 12q-21 13 -68 25h-18q-9 4 -39 4q-2 -2 -14 -2q-27 6 -54.5 2.5t-54 5t-35.5 33.5q-2 2 -2 18v17v69v43q0 7 4 19q3 8 11 12q16 14 41 16t45.5 -2.5t44.5 0.5 h12q31 4 37 7q3 0 7 1t7 1q27 6 51 18l17 10q42 25 60.5 73t12.5 101q0 11 -2 13q-3 18 -12 34q-1 4 -4.5 9t-3.5 6q-7 14 -10 18l-15 15q-24 28 -57 36l-20 7q-108 11 -181 -25l-12 -8l-12 -10q-1 -1 -8 -10t-11 -15q-18 -23 -28 -53l-4 -19q-4 -26 -11 -43q-1 -5 -4 -11.5 t-4 -8.5q-15 -21 -41 -21q-2 -2 -10 -2q-10 0 -12 -2h-95q-22 0 -43.5 -0.5t-43 8.5t-33.5 29l-7 12q-2 4 -2 17q0 16 2 20l9 64l4 16q11 55 28 84q6 14 21 39q12 31 47 74l14 14q36 36 72 59l16 13q11 7 54 26l18 7q111 26 184 24h21h27h28.5t25.5 -0.5t28 -1.5t25 -2.5 t28 -4t25.5 -6.5t27.5 -9l27 -11l34 -16l17 -8q70 -43 114 -115l7 -10l6 -10q18 -30 28 -60l11 -33q21 -50 24 -102q0 -3 1 -10t1 -11q-2 -16 -2 -51v-18q-12 -59 -22 -92q-1 -2 -9 -19q-9 -25 -47 -73l-12 -13l-10 -12l-12 -10q-13 -13 -52 -39q7 -4 23.5 -11.5t27.5 -14.5 t19 -17l12 -15q40 -46 54 -75l8 -17q6 -12 10 -32q4 -16 4 -17zM946 436v17q-2 40 -28 112q0 1 -2 4t-3 6l-12 17l-12 16l-8 10l-7 11l-14 12l-14 10q-16 16 -39 29l-14 8q-60 27 -107 35q31 7 53 18q2 1 19 9l33 18l12 6l31 23l10 8q72 58 90 123l6 16q20 85 14 131 q0 15 -2 19q-5 45 -28 98q-2 8 -9 14q-40 70 -108 109l-19 10q-37 16 -57 21l-16 4q-15 0 -19 2q-14 0 -20 2q-3 0 -6 1t-6 1q-96 10 -181 -17q-4 0 -16 -4q-50 -16 -96 -47l-15 -12q-89 -71 -110 -148l-4 -16q-11 -37 -11 -59q0 -20 20.5 -20t20.5 20q0 17 7 41q0 3 1 7 t1 7q2 11 5 22t10.5 22.5t11.5 18t15.5 19.5t15 16.5l18 18l16.5 16.5q8 4 14 10q9 9 16 11q19 14 50 24l16 6q113 29 162 27q14 0 18 -2q45 -4 72 -10l16 -4q40 -14 68 -31l14 -10q8 -5 16 -12.5t11.5 -11.5t11.5 -15t10 -13q1 -3 4.5 -7t4.5 -7q19 -31 32 -72q4 -16 4 -18 q13 -52 5 -98l-5 -19q-23 -118 -118 -174l-15 -8l-14 -6q-83 -50 -164 -64q-2 -2 -12 -2h-31q-3 0 -27 1t-26 -5q-14 -9 -2 -24q7 -8 16 -10t24 -1t21 0h15q4 0 13 -1t13 -1q15 0 19 -2q119 -11 174 -55q7 -7 16 -10l29 -27l12 -14l8 -15l8 -14l7 -14q3 -8 18 -64l4 -16 q0 -15 2 -19q0 -39 -2 -57q0 -3 -1 -8t-1 -8l-6 -27l-4 -14q-5 -15 -23 -51l-10 -17q-20 -34 -63 -65q-9 -3 -17 -11q-22 -16 -47 -24l-16 -6q-49 -19 -146 -15q-2 2 -12 2l-35 7q-1 0 -2.5 0.5t-5 1.5t-6.5 2q-27 7 -29 8l-12 4l-27 12l-12 6l-10 6q-85 54 -115 117 q-18 41 -33 86q-6 21 -26 15q-8 -2 -13.5 -10t-1.5 -15q29 -78 31 -82q10 -28 45 -72q27 -31 94 -75l17 -9q26 -16 69 -26q16 -4 19 -4q10 -4 30 -11q13 0 17 -2q109 -10 196 25q11 3 15 8l14 6l19 11q58 30 92 75q3 3 5 8.5t5 8.5q20 28 27 55l4 14q12 39 14 70q2 6 2 20 q2 4 2 17q2 4 2 16z" />
<glyph unicode="4" horiz-adv-x="1048" d="M983 209q-4 -28 -4 -39v-18q-2 -18 2 -69t-6 -60q-12 -22 -37 -24.5t-61.5 2.5t-57.5 1h-20q-46 -3 -78 8l-14 10q-10 8 -12 26t1.5 48t3.5 41v150h-219q-14 0 -16 -2q-69 -4 -107 -2h-96q-14 0 -39 1t-39 1q-4 2 -16 2q-3 0 -8 -1t-8 -1t-7.5 1t-7.5 1q-20 -2 -55 14 l-10 12l-9 29v16q-3 70 27 123l6 17q7 16 22.5 55.5t28.5 69t27 55.5q3 9 8 14l8 23q3 6 3 10l4 8l1 7q1 8 5 12l22 55l6 18q3 3 4.5 9.5t4.5 9.5l6 18q29 63 47 113l6 16q10 28 62 151.5t61 155.5q0 5 2 7l4 12l12 33q1 3 4.5 7t4.5 7q13 52 56 72.5t97 9.5q3 0 8 -1t8 -1 q19 -1 40.5 -1.5t40 -1t33 -10.5t18.5 -30q0 -11 -2 -13q-2 -8 -11 -22l-10 -21l-16 -47l-4 -12l-15 -37q-1 -1 -4 -10l-16 -41l-45 -133q-3 -3 -9 -21q-1 -4 -8 -18q-3 -15 -13 -41.5t-13 -36.5l-9 -20q-8 -17 -20 -49t-18 -46l-7 -16l-16 -47l-8 -16l-6 -17l-8 -16 l-21 -49l-25 -66q-1 -2 -2 -5l-1.5 -4.5t-0.5 -2.5q-3 -5 -7 -16.5t-7 -16.5q8 4 38 2.5t38 -0.5q14 0 16 2h8q115 0 170 -2q0 8 1 26.5t1 30.5v74q-7 27 -4 43q0 4 1 11t1 10q11 30 54 41q3 0 9 1t9 1q131 4 182 -4q6 -2 13 -9q7 -2 10 -12q18 -32 8 -72q2 -2 2 -16v-22 q0 -27 -2 -41v-80q0 -38 1.5 -104.5t1.5 -122t-3 -107.5zM815 561h2v-117h-237q-2 0 -10 -1t-19 -1q-8 0 -24.5 1t-24.5 1h-17q-19 0 -66 -1t-81 -0.5t-66 3.5h-16q4 30 28.5 79.5t28.5 58.5l6 18l11 35l6 16l26 68l7 12q15 33 32 86l7 17q4 14 12 35.5t8 23.5l6 18 q13 39 41 106.5t37 90.5q9 16 14 31q6 15 25.5 53t31 72t15.5 73q0 7 -14 7t-19 -7q-6 -10 -14 -31t-10 -26l-9 -20l-6 -17l-20 -49l-19 -47q-7 -13 -8 -19l-8 -14l-6 -14q-17 -30 -53 -127l-6 -17l-31 -86q-4 -12 -4 -16l-13 -33l-16 -51l-6 -14q-7 -16 -19.5 -46.5 t-19.5 -45.5l-6 -19q-6 -11 -10 -29l-7 -14q-21 -73 -73 -158q-4 -16 -4 -22q3 -13 10 -16q7 -7 12 -7h47q39 -1 117.5 2t120.5 3q8 0 98 -1.5t213 -1.5v-2h2v-139q0 -8 -1 -23t-1 -22v-72q6 -45 8 -51q4 -4 15 -4q20 0 20 19v45q-2 10 -2 34q-2 2 -2 17q-2 16 -2 57t1 87.5 t1 58.5v41q0 13 -1 48.5t-1 63.5v101v28q0 20 -20.5 20t-20.5 -20v-14q4 -78 4 -115z" />
<glyph unicode="5" horiz-adv-x="1181" d="M1073 561q6 -40 2 -149q0 -3 1 -7.5t1 -7.5q-2 -4 -2 -18q0 -15 -2 -17q0 -3 -1 -7t-1 -7l-6 -29l-4 -20q-4 -15 -23 -59l-8 -19q-29 -47 -33 -51q-3 -9 -10 -16q-16 -27 -45 -52l-18 -14q-3 -2 -22 -14.5t-30 -18.5l-16 -10q-28 -17 -57 -25q-1 -2 -21 -8 q-83 -27 -172 -24h-18q-18 -2 -56 -2h-30q-7 1 -36.5 7.5t-41.5 9.5t-35 9.5t-40.5 14.5t-33.5 18l-16 12q-33 21 -72 60l-14 14q-35 43 -47 74q-15 25 -21 39q-17 29 -28 84l-4 16l-9 64q-2 4 -2 20q3 38 37 59l15 7q33 4 93 2.5t93 1.5q12 0 16 -2q42 -13 45 -58l5 -18 q0 -3 1 -7t1 -7l4 -19q10 -30 28 -53q3 -6 9 -12q45 -58 137 -58h22q44 -2 87 19.5t69 58.5q5 5 8 14q44 78 16 181l-6 18l-10 20q-26 38 -67.5 60t-88.5 24q-3 0 -10 1.5t-10 1.5l-62 -2q-61 -2 -61 2h-102q-32 3 -60 0h-22q-75 3 -92 63q0 3 -1 9.5t-1 10.5q-3 18 -3 39.5 t1.5 48.5t1.5 41v19q-2 49 -2 145v15q2 4 2 22v15q-1 17 -1 37.5t0.5 46t0.5 40.5v43q2 4 2 21q0 16 -2 22q0 7 -1 27.5t-0.5 32.5t3 28.5t11 27t21.5 16.5l17 4q14 0 46 1.5t49.5 2t44 0t48.5 -3.5h408q28 -4 39 -4h18q18 -2 69 1.5t60 -6.5q17 -10 22 -25.5t3 -41.5 q0 -3 -1 -11t-1 -12q-5 -11 -3 -56t1 -56v-13l-5 -20q-3 -27 -24.5 -35.5t-46 -5t-47.5 -0.5q-3 0 -8.5 1t-8.5 1h-106q-66 0 -178.5 -1t-147.5 -1q0 -16 1 -35l1 -18v-33q-1 -12 -1 -59t-3 -74q0 -2 -1 -8t-0.5 -10t3.5 -7h21q3 0 10.5 -1t11.5 -1q3 0 9.5 -1t9.5 -1h67 q17 0 21 -2h45q4 -2 20 -2l19 -4q16 0 20 -2q3 0 10.5 -1t10.5 -1l20 -4q7 0 23 -4q17 -3 41 -13l18 -6q33 -18 50.5 -29t43 -31t41.5 -42l12 -17q20 -30 60 -135l4 -16l4 -14q0 -3 4 -19zM958 401v21q3 13 3 82q0 3 -1.5 9t-1.5 9q-5 34 -45 121q-1 2 -10 16q-30 50 -82 84 l-16 13q-2 2 -19 10q-20 15 -59 29l-22 6q-16 4 -17 4q-16 4 -18 4q-16 4 -21 4q-22 1 -66 4t-66.5 3.5t-67.5 -1.5h-21q-7 0 -20.5 -1t-20.5 -1l-16 4q-11 0 -17 6q-7 4 -7 17.5t3 34.5t2 32h2q0 84 2 127q0 4 1 12t1 11l9 156v67h161q15 0 19 2h80q159 0 204 -4h21 q38 0 61 2q3 0 31 4q10 5 8 17.5t-14 17.5q-28 4 -31 4h-61q-4 -2 -21 -2h-215q-18 2 -57 2h-21q-23 -2 -61 -2h-123q-18 0 -18 -16q-4 -4 -4 -11v-51q-3 -34 -5.5 -101.5t-5.5 -101.5v-20q-2 -35 -2 -102q-2 -2 -2 -9v-16q0 -14 -2 -16q1 -1 0.5 -7.5t-0.5 -7.5 q0 -12 -2 -14q-5 -20 -1 -45.5t24 -26.5q14 -2 37 -2h18l41 4h20q36 -3 106.5 -6t106.5 -6q3 0 9.5 -1t9.5 -1l20 -6l19 -6l39 -19l16 -10q7 -7 16 -10q50 -37 76 -72l13 -18q32 -40 38 -101q3 -9 3 -22q16 -108 -15 -166l-6 -16l-10 -19l-21 -35q-74 -81 -151 -102 q-3 -2 -27 -8l-29 -6q-41 -9 -92 -9q-6 -2 -22 -2q-105 13 -142 33l-16 8q-32 22 -57 58l-13 16q-41 53 -41 121q0 14 -8 22q-7 6 -18 4.5t-12 -8.5q-18 -70 36 -151l13 -17q21 -31 55 -61l16 -12q104 -51 199 -54q14 0 18 2h19q13 2 35 5t40.5 5.5t35.5 6.5l34 10 q100 46 154 113l20 30l11 21l8 18q29 48 26 90z" />
<glyph unicode="6" horiz-adv-x="1140" d="M1028 526q16 -59 0 -176l-4 -18q-11 -57 -25 -82l-6 -14l-8 -17q-5 -5 -8 -16q-29 -56 -53 -82l-15 -15q-38 -38 -71 -59l-17 -12q-36 -22 -71 -33q-15 -7 -39 -10q-22 -8 -48.5 -12t-43 -4.5t-50.5 0.5t-45 1q-7 0 -18.5 1.5t-18.5 1.5q-9 1 -25.5 3.5t-27 4.5t-25 5.5 t-26.5 8.5l-27 10q-33 16 -47.5 23.5t-37.5 24t-38 34.5l-16 19q-30 39 -39 59q-19 31 -28 59q-1 3 -2 7t-2 6.5t-1 3.5q-32 82 -39 143q0 15 -2 19q0 3 -1 9t-1 9v33q0 10 2 12v236l7 77v66q2 4 2 16q-6 59 8 158q0 12 2 16l6 45l4 15q5 29 19 69q13 44 38 93q9 20 39 59 l17 18q15 18 38 34.5t37.5 24t47.5 23.5l26 11q57 20 162 24q36 0 59 2h31q7 -1 36.5 -7.5t41.5 -9.5t35 -9.5t40.5 -14.5t33.5 -18l16 -12q33 -21 72 -60l14 -14q35 -43 47 -74q15 -25 21 -39q3 -5 7 -15.5t7 -15.5q1 -2 2 -5l1.5 -4.5t0.5 -2.5q8 -13 8 -33q3 -16 0 -32 q-1 -37 -32 -50t-70 -8h-111q-37 0 -66.5 19.5t-41.5 54.5l-11 14l-8 13l-12 10l-12 8q-47 21 -103 27q-6 -2 -24 -2l-21 -6q-31 -8 -57 -37l-15 -15q-3 -4 -10 -18q-13 -22 -16 -29l-4 -12q-4 -16 -4 -19l-6 -18l-5 -18q-4 -16 -4 -19q-4 -16 -4 -18q-3 -15 -4 -31 t-1 -35.5t-1 -30.5q44 25 59 31q3 0 15 4q2 0 14 4h17l34 5h19q108 4 166 -15q16 -4 20 -4q39 -12 90 -39l17 -12q31 -20 71 -60l15 -14q35 -44 47 -74q13 -22 20 -38q21 -35 31 -87q0 -3 1 -9t1 -9t1 -7t1 -7t1 -8.5t1 -8.5zM901 356l6 17q23 70 0 151l-6 19q0 2 -4 18 l-6 17q-27 71 -80 127l-14 14q-9 9 -45 37l-2 2l-17 8q-32 19 -121 37h-61q-42 -3 -90 -12l-29 -9l-41 -14l-14 -6q-80 -33 -123 -121q-5 38 0 150q3 9 0 18q0 40 2 63v13q0 3 1 8t1 8q0 13 2 17v14q4 9 4 26v21q2 4 2 18q6 55 21 95l6 16l6 18l8 19q62 99 131 135l19 6 q54 16 106 19h53q33 -5 43 -9l15 -4q6 0 22 -4q5 -4 23 -8q32 -16 61 -45l13 -12q9 -9 22 -32.5t25.5 -35.5t29.5 -8q10 3 12.5 10t-2 17t-9.5 18t-14 19t-11 14l-12 12q-60 60 -99 76q-8 5 -24 10l-27 6q-12 4 -14 4l-45 10h-62q-74 -4 -119 -20l-20 -8h-2 q-74 -40 -148 -152v-2q-3 -4 -10 -18q-2 -1 -8 -21q-21 -71 -31 -170q0 -3 -1 -8t-1 -8v-18l-4 -21q-8 -49 -4 -119v-18q-2 -4 -2 -19q-1 -6 0.5 -25.5t-2.5 -29.5v-18q0 -101 2 -152q0 -3 1 -9t1 -9q0 -15 2 -19v-18q0 -28 6 -55l4 -15l17 -72q0 -4 2 -6q0 -1 0.5 -2.5 l1.5 -4.5t2 -5q0 -1 0.5 -2.5l1.5 -4.5t2 -5q2 -2 2 -6q47 -103 121 -142l35 -16l18 -8h2l21 -6l22 -7l19 -6q101 -11 168 11l18 4h2q68 23 125 77l8 9l35 37l6 10q5 5 8 14q30 66 37 96zM866 520l6 -28q0 -3 1 -7.5t2 -11t2 -12.5v-35q0 -8 -5 -33q-12 -60 -47 -123 l-10 -12q-11 -17 -20 -27l-15 -12q-46 -46 -110 -69q-1 0 -3.5 -1t-6.5 -2t-7 -2q-7 -2 -35 -8.5t-41 -8.5t-34.5 -0.5t-38.5 9.5q-3 0 -6 1t-6 1l-29 8l-19 7l-18 8q-24 7 -31 14q-56 26 -104 123l-4 16q-14 34 -23 76l-4 15q0 3 -1 8t-1 8q-6 30 -6 59q-2 6 -2 21 q-2 47 26 102l9 17q52 83 110 104l13 6q47 19 71 23q15 6 35 6q28 4 37 4h53q70 -11 113 -33l12 -6q24 -18 41 -35l14 -12q56 -59 78 -139q4 -16 4 -19zM696 324q21 26 33.5 65.5t5.5 69.5q-11 78 -39 112q-3 5 -18 25l-12 10q-85 49 -160 27l-17 -6l-10 -6 q-39 -24 -63.5 -62.5t-24.5 -81.5q0 -3 -1 -8t-1 -8q0 -5 4 -33q0 -14 2 -18q0 -3 1 -8.5t1 -8.5l4 -12l7 -21q2 -4 16 -28q8 -17 10 -19l15 -14q29 -29 69.5 -39t81.5 2l18 4l35 15l13 8l12 10q15 20 18 25z" />
<glyph unicode="7" horiz-adv-x="1052" d="M989 1376v-16q3 -72 -26 -123l-7 -16q-8 -19 -22.5 -56.5t-27.5 -68t-27 -56.5q-3 -8 -9 -14l-8 -22q-2 -4 -2 -11l-4 -8q-1 -2 -1 -5.5t-1 -6.5t-4 -6l-23 -56l-6 -18q-3 -3 -4 -9.5t-4 -9.5l-6 -18q-29 -63 -47 -113l-6 -16q-3 -8 -32 -71.5t-38 -98.5q-7 -14 -8 -18 q-19 -48 -54.5 -141.5t-62.5 -164.5t-37 -90q0 -4 -2 -6q-1 -2 -2 -5l-1.5 -4.5t-0.5 -2.5l-6 -16q-2 -2 -6 -17q-1 -3 -4 -7t-4 -7q-13 -52 -56.5 -72.5t-97.5 -9.5q-3 0 -8 1t-8 1q-17 1 -39 1.5t-41.5 1t-34 10.5t-16.5 30q0 10 2 12q7 25 27 71t28 69q1 1 4 10 q37 108 61 166q27 70 35 96q36 84 74 188q2 1 8 21q1 4 8 18q3 15 13.5 41t13.5 37q1 5 4 12t4 9q8 18 21 50t18 44l6 16l17 47l8 17q3 13 6 16l8 16l21 50l6 16l18 49q1 2 2 5l1.5 4.5t0.5 2.5q3 5 7.5 16.5t7.5 16.5q-8 -4 -38 -2.5t-38 0.5q-15 0 -17 -2h-8 q-58 0 -166.5 1t-144.5 1h-14q-14 2 -39 -0.5t-45.5 -2t-34.5 10.5q-5 3 -12 13q-5 35 -5 38q-1 19 0 56.5t0 56.5v21q-2 4 -2 18v16q3 32 29 41l16 4q25 3 75 2.5t75 2.5h18h17q14 0 18 2q31 -3 63.5 -3.5t78 0.5t63.5 1h18h39q15 0 17 2q69 4 106 2h15h14h49h19 q13 0 38 -1t39 -1q4 -2 17 -2q3 0 8 1t8 1t7 -1t7 -1q19 2 56 -15l10 -12zM852 1270q4 16 4 22q-3 14 -10 17q-6 6 -12 6h-23h-12h-13q-41 1 -115 -1.5t-104 -2.5h-18q-21 0 -57 4l-21 -4q-62 0 -180 4h-21h-18h-19q-15 -3 -27.5 -0.5t-27 0.5t-24.5 -12q-8 -11 -3 -23 t17 -12q14 0 40.5 3.5t43.5 2.5h18h21q63 -2 182 -2q3 0 8 1t8 1h13q8 0 24.5 -1t24.5 -1h16q19 0 66 1t81 0.5t66 -3.5h17q-4 -30 -29 -78t-29 -59l-6 -19q-4 -22 -10 -35l-6 -16l-27 -68l-6 -12q-18 -41 -33 -86l-6 -16q-3 -10 -6.5 -20.5t-7.5 -22t-6 -17.5l-7 -18 q-13 -39 -41 -107.5t-36 -89.5l-6 -12q-9 -17 -9 -19l-57 -139q-4 -12 -8 -16l-4 -14l-8 -17q-8 -19 -23.5 -52.5t-27.5 -62.5t-19 -57l-6 -18q-3 -3 -5.5 -9.5t-5.5 -9.5t-5 -9.5t-5 -10.5q-15 -34 -6 -60q4 -8 16 -8t17 8q6 10 14 31.5t10 26.5l9 20q2 2 6 17 q8 21 34.5 83.5t39.5 98.5q1 2 4 8.5t4 11.5q1 2 4 9t4 12l6 18q9 27 27 71t24 60q7 13 8 19q1 3 4.5 7t4.5 7l6 14q17 30 53 127q2 2 6 17l31 86q4 12 4 16q2 2 6 17l6 16l17 51l6 14q7 16 19.5 47t19.5 46l6 18q6 11 10 29l6 14q20 70 74 158z" />
<glyph unicode="8" horiz-adv-x="1153" d="M637 -14h-29h-92v2q-89 4 -143 22l-27 10q-33 16 -47.5 23.5t-37.5 24t-38 34.5l-16 19l-6 10q-58 63 -82 166l-4 20q-1 4 -4.5 19t-4.5 24q0 3 -1 7.5t-1 7.5q-2 71 27 176l8 16l15 31l12 14q13 22 61 70l15 10l32 23l-12 10l-12 10q-28 20 -41 33l-12 12l-13 11l-10 14 l-12 14l-10 17q-45 74 -48 170v20q0 3 -1 9t-1 9q0 4 1 11t1 10q3 49 25 102l10 33q9 26 29 60l12 20q44 71 115 115l16 8l35 16l27 11q53 20 143 24h49h27h28.5t25.5 -0.5t28 -1.5t25 -2.5t28 -4t25.5 -6.5t27.5 -9l27 -11l35 -16l16 -8q30 -18 57 -45q15 -12 27 -27 q54 -70 70 -111l12 -36q10 -32 20 -76q0 -3 1.5 -8.5t1.5 -8.5q2 -4 2 -18q0 -3 1 -10t1 -11q-2 -16 -2 -51v-18l-11 -51l-4 -13q-20 -55 -57 -104l-10 -14q-39 -52 -93 -78q10 -7 32 -19t36.5 -23.5t24.5 -27.5l10 -14q36 -48 57 -109l4 -16q0 -3 1 -9.5t1 -9.5 q15 -105 -2 -170l-4 -20q-24 -103 -82 -166l-6 -10l-16 -19q-15 -18 -38 -34.5t-37.5 -24t-47.5 -23.5l-27 -10q-53 -18 -143 -22v-2zM233 453v-17q-6 -56 29 -151l6 -15q3 -8 17 -26q3 -3 5 -8.5t5 -8.5q34 -45 92 -75l19 -11l14 -6q5 -5 14 -8q60 -27 158 -27q26 0 53 6 q3 0 7 1.5t7 1.5q65 16 76 20l13 6q4 3 20 12t21.5 13t18.5 12.5t20.5 14.5t17 15.5t16.5 18.5l12 15q24 40 29 69l6 19l11 51v16q2 16 2 49q0 3 -1 8.5t-1 8.5q0 12 -2 16q-6 58 -37 109l-7 10q-3 4 -32 39q-3 6 -11 10l-14 14l-16 13l-10 6l-11 6l-14 8q-32 14 -35 14 l-16 7l-15 6q-3 0 -7 1t-7 1l-12 4q-13 0 -15 2q3 0 8.5 1t8.5 1l14 6l15 6q79 26 141 94l14 13q36 39 47 84l6 16q15 62 17 98v17l-6 35q0 8 -2.5 20t-3.5 16q-22 87 -80 142q-17 14 -31 22q-54 35 -102 52l-17 4q-14 0 -18 2q-79 11 -166 2q-6 -2 -21 -2q-4 -2 -18 -2 l-16 -4q-23 -6 -58 -21l-18 -10q-69 -40 -109 -109q-5 -5 -8 -14q-24 -56 -29 -98q-2 -4 -2 -19q-5 -35 11 -114l4 -17l6 -16q0 -1 4 -13l6 -16q38 -77 123 -129l16 -10l17 -8l16 -7l31 -12l18 -6q3 -1 6.5 -2t5.5 -1.5t3 -0.5q-16 -4 -21 -4q-16 -4 -18 -4q-2 -1 -50 -19 l-16 -8l-14 -8q-23 -13 -39 -29l-15 -10l-14 -12q-7 -12 -37 -51l-6 -13l-6 -14q-19 -63 -20 -82q-3 -6 -3 -16zM510 752h-16q-12 4 -15 4q-35 13 -47 20l-16 8l-15 13l-16 12q-27 22 -42 35.5t-33.5 37.5t-26.5 50q0 1 -0.5 2.5t-1.5 5t-2 6.5q-10 24 -13 43l-4 19 q-9 48 4 98q0 2 4 18q12 38 33 72q1 3 4 7t4 7q2 2 10 13t11.5 15t11.5 11.5t16 12.5l15 10q29 18 67 31q1 0 17 4q20 4 24 4q2 2 11 2q85 19 188 -4q3 0 6 -1t6 -1l20 -8t22 -10t20 -9l28 -16q72 -46 101 -152q1 -3 4 -15t4 -20q0 -1 0.5 -18.5t-0.5 -18.5v-16q0 -3 -1 -8 t-1 -8l-4 -19q-14 -73 -60 -125l-12 -14q-86 -70 -133 -86l-18 -6q-81 -30 -154 -6zM686 154q-18 -8 -45 -11q-3 0 -7 -1t-7 -1q-5 0 -14.5 -1t-14.5 -1q-79 -3 -131 17l-16 6q-27 9 -48 24q-8 8 -16 11q-43 31 -63 65l-11 17l-6 12q-50 76 -28 172l4 16q15 57 18 64l6 14 l17 29l12 14l29 27q9 3 16 10q17 12 43 27l16 6q10 7 33 14q3 0 5 1t5 1q84 23 181 0q4 0 7 -1l3 -1l22 -6q5 -1 12 -4t9 -4q3 -1 41 -23l14 -10q32 -21 45 -37q1 -3 2.5 -4.5t3 -2t2.5 -1.5q42 -47 52 -121q0 -3 1 -9t1 -9q4 -36 4 -52v-18q0 -23 -2 -37l-4 -16 q-7 -25 -21 -54q-7 -7 -10 -16q-59 -74 -144 -104q-4 -2 -16 -2zM657 1169q-61 9 -82 9t-79 -9q-34 -9 -58 -36l-14 -15q-3 -4 -10 -18q-4 -4 -8 -15q-11 -18 -13 -34q-2 -2 -2 -13q-6 -52 8 -90l7 -14q22 -66 88 -88q14 -7 18 -8l20 -4q34 -9 78 -3l17 5q54 12 92 53l12 16 q41 59 31 133q0 11 -2 13q-3 18 -12 34q-1 3 -4.5 8.5t-4.5 6.5q-7 14 -10 18l-14 15q-24 27 -58 36zM608 594h-30q-65 0 -103 -16q-10 -5 -18 -11l-15 -12q-32 -26 -41 -66q-4 -12 -4 -16q-6 -18 -6 -37q0 -10 -2 -14q0 -17 2 -23q0 -10 2 -12q0 -8 15 -33q4 -12 8 -14 q28 -47 65 -64l15 -6l20 -6q14 -2 37 -2h80q2 0 4 2l20 6l15 6q37 17 65 64q5 5 8 14l13 23q2 2 2 10q6 18 6 35q0 14 -2 18q0 26 -27 86l-8 11l-18 18l-15 12l-16 8l-14 7q-28 9 -58 12z" />
<glyph unicode="9" horiz-adv-x="1140" d="M113 909q-16 59 0 176l4 19q12 60 24 82l6 14l9 17q5 5 8 16q29 56 53 82l14 14q39 39 72 60l16 12q35 21 72 33q15 7 39 10q22 8 48 12t43.5 4t49.5 -1t45 -1q7 0 18.5 -1t18.5 -1q6 -1 31.5 -4.5t41.5 -7.5t32 -10l26 -11q33 -16 47.5 -23.5t37.5 -24t38 -34.5l17 -18 q30 -39 39 -59q18 -30 28 -60l4 -16q31 -82 39 -144q0 -14 2 -18q0 -3 1 -9t1 -9v-33q0 -10 -2 -12v-236l-6 -78v-65q-2 -4 -2 -17q6 -58 -8 -157q0 -13 -2 -17l-6 -45l-4 -14q-5 -31 -19 -70q-11 -37 -39 -92q-9 -20 -39 -59l-16 -19q-15 -18 -38 -34.5t-37.5 -24 t-47.5 -23.5l-27 -10q-60 -21 -161 -25q-37 0 -60 -2h-30q-6 1 -31 6.5t-34 7.5t-30 8t-33 10.5t-28.5 12t-30.5 15.5l-16 12q-36 23 -72 59l-14 15q-35 43 -47 74q-16 27 -21 38q-3 5 -7 15.5t-7 15.5q-1 2 -2 5l-1.5 4.5t-0.5 2.5q-8 13 -8 33q-3 17 0 33q1 37 32 49.5 t70 7.5h111q38 0 67 -19t41 -54l10 -15l9 -12l12 -10l12 -8q47 -21 103 -27q6 2 24 2l21 6q31 8 57 37l14 14q4 6 11 19q14 24 16 28l4 13q4 16 4 18l6 19l4 18q4 16 4 18q1 3 2 7.5t2 7t1 4.5q3 15 4 30.5t1 35t1 30.5q-32 -21 -60 -31q-2 0 -14 -4q-2 0 -14 -4h-17l-35 -4 h-18q-111 -4 -166 14l-20 5q-46 15 -91 38l-16 13q-36 23 -72 59l-14 15q-36 45 -47 73q-11 19 -20 39q-21 36 -31 86q0 3 -1 9.5t-1 9.5t-1 7t-1 7t-1 8t-1 8zM240 1079l-7 -16q-23 -71 0 -152l7 -18q0 -3 4 -19l6 -16q27 -71 80 -127l14 -14q9 -9 45 -37l2 -2l17 -8 q32 -19 120 -37h62q42 3 90 12l29 8l41 15l14 6q80 33 123 121q5 -38 0 -150q-3 -9 0 -18q0 -41 -2 -64v-12q0 -3 -1 -8t-1 -8q0 -13 -2 -17v-14q-3 -9 -3 -26t-1 -21q-3 -6 -3 -19q-7 -58 -20 -94l-6 -16l-6 -19l-8 -18q-62 -98 -132 -135l-18 -6q-54 -16 -106 -19h-54 q-36 5 -43 8l-14 4q-7 0 -23 4l-22 9q-34 17 -62 45l-12 12q-9 9 -22 32.5t-26 35.5t-30 8q-7 -2 -10.5 -6.5t-2.5 -10.5t3.5 -12t7.5 -13.5t9.5 -13.5t10 -12.5t7.5 -9.5l12 -12q60 -60 99 -76q7 -5 24 -10l27 -7q12 -4 14 -4l45 -10h62q69 4 118 21l21 8h2q74 40 147 151 v2q4 6 11 19q2 2 8 20q19 65 30 170q0 3 1.5 8.5t1.5 8.5v18l4 21q8 49 4 118v19q2 4 2 18q1 6 -0.5 26t2.5 30v18q0 101 -2 152q0 3 -1 9t-1 9q0 14 -2 18v19q0 28 -6 55l-5 14l-16 72q-2 2 -2 6l-4 13l-4 12q-2 2 -2 6q-46 101 -121 141l-35 17l-18 8h-2l-21 6l-22 6 l-19 6q-103 11 -168 -10l-18 -4h-2q-66 -23 -125 -78l-8 -8l-35 -37l-6 -10q-7 -6 -9 -14q-27 -60 -36 -97zM274 915l-6 29q0 3 -4 31v35q0 12 4 32q12 60 47 123l11 13q9 15 20 26l14 13q45 45 111 69l16 4q7 1 35.5 8t41 9t34.5 0.5t39 -9.5q3 0 6 -1t6 -1l29 -8l18 -6 l19 -8q22 -6 30 -14q58 -27 105 -123l4 -17q14 -34 23 -76l4 -14q0 -3 1 -8t1 -8q6 -30 6 -60q2 -6 2 -20q2 -46 -27 -103l-8 -16q-52 -82 -111 -104l-12 -6q-47 -19 -71 -23q-15 -6 -35 -6q-28 -4 -37 -4h-53q-70 11 -113 33l-12 6q-28 21 -41 34l-15 13q-59 62 -77 139 q-1 3 -2 7t-2 6.5t-1 4.5zM444 1112q-20 -25 -33 -66t-5 -69q4 -29 6.5 -42t10.5 -34.5t21 -36.5q3 -6 10 -14t9 -10l12 -11q84 -48 160 -26l16 6l11 6q40 24 64 62t24 81q0 3 1 8.5t1 8.5q0 5 -4 33q0 12 -3 18q0 3 -1 8t-1 8l-4 13l-6 20q-3 7 -16 29q-7 14 -10 18l-15 15 q-29 29 -69.5 39t-81.5 -2l-19 -5l-35 -14l-12 -8l-12 -10q-1 -1 -8 -10t-11 -15z" />
<glyph unicode=":" horiz-adv-x="448" d="M219 258q45 0 86 -27l17 -14q23 -17 36 -47l4 -25q0 -3 1.5 -8t1.5 -8q5 -30 -11 -63q-3 -3 -6 -10.5t-6 -10.5q-25 -35 -72 -51q-16 -4 -18 -4q-11 -4 -43 -4h-23l-18 6l-16 6l-31 27l-10 10q-16 22 -25 57q0 3 -1 10.5t-1 10.5q-2 43 22.5 81.5t65.5 55.5l21 6 q8 2 26 2zM231 152h-16q-10 0 -16.5 -10.5t-8.5 -22.5v-4l7 -13h2q2 0 8 -6l2 -2q14 0 20 2q5 0 7 2q8 3 18 25l-2 4v4q0 3 -6 6zM219 1026q45 0 86 -27l17 -14q23 -17 36 -47l4 -25q0 -3 1.5 -8t1.5 -8q5 -30 -11 -63q-3 -3 -6 -10.5t-6 -10.5q-25 -35 -72 -51 q-16 -4 -18 -4q-11 -4 -43 -4h-23l-18 6l-16 6l-31 27l-10 10q-16 22 -25 57q0 3 -1 10.5t-1 10.5q-2 43 22.5 81.5t65.5 55.5l21 6q8 2 26 2zM231 920h-16q-10 0 -16.5 -10.5t-8.5 -22.5v-4l7 -13h2q2 0 8 -6l2 -2q14 0 20 2q5 0 7 2q8 3 18 25l-2 4v4q0 3 -6 6z" />
<glyph unicode=";" horiz-adv-x="448" d="M219 1026q45 0 86 -27l17 -14q23 -17 36 -47l4 -25q0 -3 1.5 -8t1.5 -8q5 -30 -11 -63q-3 -3 -6 -10.5t-6 -10.5q-25 -35 -72 -51q-16 -4 -18 -4q-11 -4 -43 -4h-23l-18 6l-16 6l-31 27l-10 10q-16 22 -25 57q0 3 -1 10.5t-1 10.5q-2 43 22.5 81.5t65.5 55.5l21 6 q8 2 26 2zM231 920h-16q-10 0 -16.5 -10.5t-8.5 -22.5v-4l7 -13h2q2 0 8 -6l2 -2q14 0 20 2q5 0 7 2q8 3 18 25l-2 4v4q0 3 -6 6zM362 127q3 -3 3 -8q2 -7 2 -9.5t-2 -9.5t-3 -10v-14q0 -24 -10 -62q-27 -74 -43 -110q-22 -45 -45 -74l-6 -8q-6 -7 -19 -24t-21.5 -26.5 t-22.5 -19t-29 -12.5h-10q-29 8 -58 33l-6 8q-10 20 -2 33l4 12q4 5 15.5 18t15.5 21q4 4 6 10q7 7 12 21l7 12q13 31 22 43q0 1 0.5 1.5t1 2t0.5 4.5q6 6 6 16q2 4 2 13l-14 4l-16 6l-31 27l-10 10q-16 22 -25 57q0 3 -1 10.5t-1 10.5q-2 43 22.5 81.5t65.5 55.5l21 6 q8 2 26 2q45 0 86 -27l17 -14l8 -6q28 -28 32 -84zM236 98l8 6q11 15 5.5 26.5t-18.5 19.5q-25 11 -34 -11q-11 -18 -4 -30q6 -12 19.5 -14.5t23.5 3.5z" />
<glyph unicode="&#x3c;" horiz-adv-x="854" d="M770 160q0 -4 1 -8t1 -5q-3 -33 -31 -61l-8 -10l-43 -45l-10 -8q-3 -1 -5 -4.5t-5 -4.5q-32 -23 -72 13q-1 3 -4 5t-4 5q-32 32 -39 37l-10 8q-6 3 -15 12q-3 3 -14.5 12t-19.5 17l-23 18q-10 8 -30 26.5t-33 27.5q-5 3 -33 26q-15 11 -42 35t-42 35l-29 24q-10 6 -27 23 q-3 3 -9 7t-9 7l-18 13l-19 14q-22 22 -49 43l-10 8q-21 21 -29 45l-6 19q-7 37 13 64t59 58l16 17l12 10l39 31l15 14l14 14l16 15l21 18l8 6l10 9l27 22q3 1 5 4t5 4q8 7 25.5 19.5t25.5 19.5l8 8q3 1 11 9q14 10 37 30t32 27l6 6q23 13 33 23l15 12q11 8 30 25.5t21 19.5 l12 12q15 19 32.5 23t35.5 -7.5t30 -23t27 -29.5q6 -8 14 -14q39 -39 31 -80q0 -2 -4 -14q-6 -10 -19.5 -21t-32 -24t-28.5 -21l-10 -8l-19 -16q-5 -4 -19 -16t-22 -19q-3 -1 -6 -4t-6 -4q-24 -20 -69 -61t-70 -60l-14 -10l-15 -13l-71 -57q19 -17 65 -52t68 -57l16 -14 q19 -19 57 -50.5t47 -39.5l29 -27q5 -7 15 -14l14 -12q10 -10 21.5 -19t25.5 -18.5t22 -15.5q3 -1 4.5 -2.5t2.5 -3.5t2 -3q5 -3 9.5 -12.5t6.5 -11.5zM657 131l7 12q0 8 -7 15l-34 28l-2 2q-3 0 -5 2q-2 1 -5 4t-5.5 4.5t-5.5 2.5l-31 22q-20 16 -57.5 51t-58.5 52 q-7 2 -11 6l-26 24l-8 9q-19 19 -46 36q-8 7 -8 9l-8 6q-3 1 -4.5 2.5t-2 3t-1.5 2.5q-3 1 -5 4t-5 4q-10 14 -33.5 28.5t-39 29.5t-15.5 36q2 3 4 9q10 10 14 12l8 6q22 9 50.5 37.5t39.5 36.5l9 6q13 15 41 36t36 29q3 1 6.5 4.5t6.5 4.5l12 10q15 11 47 38.5t51 41.5 l56 47q22 22 34 39q0 3 -2.5 7.5t-3.5 6.5q-15 12 -28 4l-33 -31l-27 -22l-10 -12q-20 -20 -41 -35l-10 -8q-21 -11 -52.5 -41t-37.5 -35l-11 -8q-63 -57 -69 -64l-8 -6q-33 -20 -58 -45q-3 -1 -5 -3t-5 -3q-8 -8 -23.5 -20t-21.5 -17q-3 -5 -8 -8q-4 -4 -4 -8 q-16 -28 6 -50q11 -14 28 -24l9 -6l32 -23q1 -3 5 -5q3 -2 6 -5l10 -8q3 -3 8 -6.5t8 -6.5l6 -4q4 -4 9 -4q13 -15 42 -38.5t42 -39.5l8 -6l6 -6q51 -46 125 -106l26 -25q13 -13 19 -16q4 -4 6 -4l2 -2q24 -18 45 -27q9 0 12 8z" />
<glyph unicode="=" horiz-adv-x="1085" d="M283 836h16q32 0 66 0.5t56.5 1t24.5 0.5h199v-2h125q35 -5 39 -5h18q18 -2 69 2t60 -6q22 -12 24.5 -27t-2.5 -41t-1 -46v-21q2 -23 -8 -53l-11 -14q-8 -10 -25.5 -12t-47.5 1.5t-41 3.5h-15h-184v-2q-60 0 -189 1t-169 1q-86 -10 -128.5 -0.5t-49.5 48.5q0 3 -1.5 9 t-1.5 9q0 16 -0.5 34.5t-0.5 27t1 23.5t5 36q2 6 8 12q2 7 12 10q33 18 72 9q2 2 16 2h23q27 0 41 -2zM774 748q-15 -4 -66 0t-63 4q-100 -18 -262 -7q-71 3 -139 0h-29q-13 0 -18 -10t0 -20t18 -10h14q65 8 301 8q13 0 15 -2h90q14 -1 63.5 0.5t63.5 -2.5h72q44 6 51 8 q4 4 4 14q0 21 -19 21h-45q-10 -2 -34 -2q-2 -2 -17 -2zM283 412h16q32 0 66 0.5t56.5 1t24.5 0.5h199v-2h125q28 -4 39 -4h18q18 -2 69 1.5t60 -6.5q22 -12 24.5 -27t-2.5 -41t-1 -46v-21q2 -23 -8 -53l-11 -14q-8 -10 -26 -11.5t-47 2t-41 3.5h-15h-184v-2q-60 0 -189 1 t-169 1q-86 -10 -128.5 -1t-49.5 48q0 3 -1.5 9t-1.5 9q0 16 -0.5 34.5t-0.5 27t1 23.5t5 36q2 6 8 12q2 7 12 10q33 18 72 9q2 2 16 2h23q27 0 41 -2zM774 324q-15 -4 -66 0t-63 4q-96 -17 -262 -6q-71 3 -139 0h-29q-20 0 -20 -20.5t20 -20.5h14q65 8 301 8q13 0 15 -2h90 q14 -1 63.5 0.5t63.5 -2.5h72q44 6 51 8q4 4 4 14q0 21 -19 21h-45q-10 -2 -34 -2q-2 -2 -17 -2z" />
<glyph unicode="&#x3e;" horiz-adv-x="854" d="M190 143l7 -12q3 -8 12 -8q18 8 45 27l2 2q2 0 6 4q6 3 19 16l26 25q74 60 125 106l6 6l8 6q13 16 42 39.5t42 38.5q5 0 9 4l6 4q3 3 8 6.5t8 6.5l10 8q3 3 6 5q4 2 5 5l32 23l9 6q17 10 28 24q22 22 6 50q0 4 -4 8q-5 3 -8 8q-6 5 -21.5 17t-23.5 20q-3 1 -5 3t-5 3 q-25 25 -58 45l-8 6q-6 7 -69 64l-11 8q-6 5 -37.5 35t-52.5 41l-10 8q-28 20 -41 35l-10 12l-27 22l-33 31q-15 9 -28 -4q-1 -2 -3.5 -6.5t-2.5 -7.5q12 -17 34 -39l56 -47q19 -14 51 -41.5t47 -38.5l12 -10q3 -1 6.5 -4.5t6.5 -4.5q8 -8 36 -29t41 -36l9 -6 q11 -8 39.5 -36.5t50.5 -37.5l8 -6q4 -2 14 -12l4 -9q0 -22 -16.5 -36.5t-39.5 -28.5t-32 -29q-3 -1 -5 -4t-5 -4q-1 -1 -1.5 -2.5t-2 -3t-4.5 -2.5l-8 -6q0 -2 -8 -9q-27 -17 -46 -36l-8 -9l-26 -24q-4 -4 -11 -6q-21 -17 -58.5 -52t-57.5 -51l-31 -22q-8 -3 -16 -11 q-2 -2 -5 -2q-2 0 -2 -2l-34 -28q-7 -7 -7 -15zM84 160q2 2 6.5 11.5t9.5 12.5q1 1 2 3t2.5 3.5t4.5 2.5q3 3 29 21t40 32l15 12q8 6 14 14l29 27q10 8 47.5 39.5t56.5 50.5l16 14q22 22 68 57t65 52l-71 57l-15 13l-14 10q-25 20 -70 61t-69 60q-3 1 -6 4t-6 4 q-24 18 -41 35l-19 16l-10 8q-10 8 -28.5 21t-32 24t-19.5 21q-4 12 -4 14q-8 41 31 80q8 6 14 14q15 18 27 29.5t30 23t35.5 7.5t32.5 -23l12 -12q2 -2 21 -19.5t30 -25.5l15 -12q10 -10 33 -23l6 -6q9 -7 32 -27t37 -30q8 -8 11 -9l8 -8q8 -7 25.5 -19.5t25.5 -19.5 q3 -1 5 -4t5 -4l27 -22l10 -9l8 -6l21 -18l16 -15l14 -14l15 -14l39 -31l12 -10l16 -17q26 -20 40 -34t25.5 -38t6.5 -50l-6 -19q-8 -24 -29 -45l-10 -8q-27 -21 -49 -43l-19 -14l-18 -13q-3 -3 -9 -7t-9 -7q-17 -17 -27 -23l-29 -24q-15 -11 -41.5 -35t-42.5 -35 q-1 -1 -12.5 -10.5t-19.5 -15.5q-13 -9 -34 -28t-30 -26l-23 -18q-8 -8 -19.5 -17t-14.5 -12q-9 -9 -15 -12l-10 -8q-7 -5 -39 -37q-1 -3 -4 -5t-4 -5q-40 -36 -72 -13q-3 1 -5 4.5t-5 4.5l-10 8l-43 45l-8 10q-28 28 -31 61q0 1 1 5t1 8z" />
<glyph unicode="?" horiz-adv-x="1179" d="M1053 1169l8 -32q39 -129 -17 -277l-12 -26q-27 -59 -78 -119l-12 -13l-12 -14q-47 -53 -103 -80l-18 -6q-7 -5 -45 -24l-16 -7q-51 -18 -70 -26q-6 -6 -12 -8l-11 -9q-2 -2 -5.5 -4.5t-4.5 -5.5l-10 -10l-12 -25q-3 -10 -6 -34t-8.5 -43t-16.5 -29q-2 -1 -19 -10 q-44 -13 -145 -13q-16 0 -22 2q-3 0 -10.5 1t-10.5 1l-23 7q-4 1 -18 8q-8 3 -14 12q-6 6 -6 16q-11 107 24 191l8 14q4 6 12.5 19.5t13.5 20.5l12.5 17.5t15 18.5t16.5 16l16 13q59 50 125 75l17 9l18 6l19 8q101 39 145 121l8 16q9 20 12 47q0 3 1 7.5t1 7.5v16 q0 36 -14 61q-1 4 -4.5 9t-3.5 6q-7 14 -10 18l-15 15q-24 28 -57 36l-20 7q-108 11 -181 -25l-12 -8l-12 -10q-32 -32 -49 -89l-15 -49q-28 -47 -102 -47h-31q-13 2 -39 5t-42.5 5.5t-36 12.5t-31.5 28q-15 24 -4 66l4 27q19 107 104 217l23 24l24 23l25 18q47 35 106 56 l23 8q16 3 47 7t47 7q3 0 9 1t9 1q75 8 168 -2q4 0 11.5 -1t11.5 -1q49 -6 86 -20l27 -11q32 -16 47 -24t37.5 -24t37.5 -34l17 -18q30 -39 39 -59l14 -29q3 -5 7 -15.5t7 -15.5zM938 934l4 20q6 58 0 111q-2 4 -2 14q-4 27 -10 41l-6 23q0 3 -1 8t-1 8q-13 28 -48 72 q-19 24 -28 31q-58 69 -172 79q-21 7 -39 7q-60 7 -160 -19l-16 -4q-29 -8 -60 -27q-4 -1 -18 -8q-54 -30 -105 -88q-58 -71 -61 -149q0 -20 20.5 -20t20.5 20q3 66 66 137q29 36 57 53l10 6l12 6q8 3 20 9.5t22 10.5t20 7l16 4q61 21 123 21h41q132 -10 197 -97l22 -30 q4 -8 12 -19.5t9 -13.5l12 -37q0 -3 1 -7t1 -7q10 -63 4 -109q0 -6 -4 -22q-6 -74 -43 -129l-14 -19q-79 -95 -191 -129q-2 -1 -8.5 -4t-11.5 -4q-33 -13 -94 -51l-15 -11q-2 -2 -5.5 -4.5t-4.5 -5.5l-12 -10l-15 -12l-12 -17q-7 -7 -10 -16q-7 -14 -8 -18q0 -2 -3 -17.5 t-3.5 -22.5t-1 -19.5t3.5 -18.5t12 -8q13 -3 20 8.5t8 29t5 37t12 27.5q3 10 12 16q2 4 17 15l12 10l26 16l19 8l35 19l20 6q13 7 19 8q14 7 18 8q39 18 59 28.5t48.5 31.5t46.5 45l14 14q65 65 86 158zM444 252q44 0 82 -27l17 -12q19 -16 35 -45l4 -25q0 -3 1 -7t1 -7 q6 -28 -11 -61q-3 -3 -6 -9.5t-6 -9.5q-21 -34 -67 -49q-16 -4 -19 -4q-9 -4 -41 -4h-20l-19 6l-14 6l-31 25l-8 10q-16 26 -25 55q0 3 -1 9.5t-1 9.5q-1 41 22 77.5t62 53.5l21 6q6 2 24 2zM457 150h-17q-18 0 -22 -31v-4l6 -13h2q-3 0 1 -2q2 -1 5 -2l2 -2q15 0 21 2 q4 0 6 2q7 2 16 23l-2 4v4q0 2 -4 6q-4 5 -14 13z" />
<glyph unicode="@" horiz-adv-x="1650" d="M1565 641q8 -64 -2 -145q0 -3 -1 -9.5t-1 -9.5q-9 -67 -33 -133q-6 -18 -8 -20l-4 -13l-21 -30l-14 -15l-15 -18q-17 -24 -61 -51q1 0 2 0.5t3.5 1.5t4.5 2q-65 -47 -117 -49l-18 -5q-51 -7 -86 -4l-20 4q-117 25 -160 113l-8 16l-17 37q-9 6 -15 3.5t-18.5 -11.5 t-19.5 -10l-12 -6q-26 -13 -50 -19q-16 -4 -18 -4q-83 -13 -188 19l-29 12q-43 18 -82 57l-14 15q-13 17 -25 37l-6 12q-45 89 -18 192q0 5 4 21q22 93 94 153l14 11q6 7 17 10l16 8l33 14l16 7q116 26 193 -7l18 -8l19 -12q3 -2 32 -25l15 -12q3 -1 7.5 -7.5t6.5 -8.5l4 24 v19q0 14 2 18l6 12q11 8 23.5 11.5t28.5 3t24.5 -1.5t29 -5.5t25.5 -5.5q12 -4 15 -16q4 -12 4 -14v-45q0 -3 -1 -7.5t-1 -7.5q1 -18 -1.5 -52.5t-2.5 -47.5v-51q0 -13 2 -15v-12q0 -14 2 -20v-21q-2 -18 -2 -57q0 -3 1 -7t1 -7q-5 -46 29.5 -75t76.5 -9q59 27 72 129 q0 3 1 10t1 10q2 6 2 31q0 12 -2 16q4 36 4 57v19q0 66 -49 178l-8 14q-10 23 -39 56l-10 12l-15 16q-42 42 -65 58l-17 14q-34 24 -71 43q-5 1 -12 4t-9 4q-70 29 -145 35q-4 2 -21 2q-70 9 -143 -16l-21 -6l-22 -7l-21 -6q-12 -6 -35 -16.5t-37.5 -17.5t-34 -18t-34.5 -23 l-33 -29q-47 -47 -59 -66l-12 -16q-32 -63 -39 -90l-4.5 -9t-4.5 -12q-28 -67 -28 -168v-28q-2 -24 2 -60q0 -4 1 -10.5t1 -9.5q15 -96 61 -172l13 -19l12 -16q62 -74 145 -121l17 -10l16 -8l14 -6q4 -1 8 -2.5t9.5 -4.5t9.5 -4l19 -6l18 -8l18 -6q38 -15 78 -21q15 0 17 -2 q18 -3 68 -5.5t77 -10.5q5 -1 11.5 -4t8.5 -4q26 -33 21 -86.5t-31 -87.5q-8 -9 -16 -11l-14 -4q-8 -4 -26.5 -5t-19.5 -1h-20q-49 -2 -156 15l-18 4q-26 3 -52 10t-64 21t-50 18l-16 8q-7 3 -29 16q-8 6 -18 11q-70 27 -123 77l-17 15l-28 31l-15 12q-6 6 -10 14 q-7 6 -20 29l-11 16q-67 95 -90 174q-1 6 -8 19q-14 26 -20.5 58t-11 71.5t-9.5 60.5q0 3 -1 9.5t-1 9.5q-2 37 12 147l4 21q12 73 54 176l6 18q4 9 8.5 18l8 16t10 17t9.5 15t11 16t10.5 14.5t12 15.5t11 14.5t12 15.5t11.5 14l27 26l26 25q6 8 17 16q62 60 180 115 q5 5 16 8q18 9 50 21l16 4q3 0 7 1t7 1q16 4 17 4q29 5 98 22l20 5q11 0 15 2q26 6 86 0.5t86 -2.5q3 0 9 -1t9 -1q13 0 19 -3q3 0 6 -1t6 -1l29 -8q2 0 18 -4q13 -3 72 -22l35 -15q18 -6 57 -28l18 -13q9 -6 41.5 -27.5t46.5 -31.5t36 -30t36 -40l12 -14q7 -11 27 -37 t29 -41l12 -20q17 -29 20 -37q5 -6 11 -19q46 -76 61 -163q4 -20 4 -21l17 -65q2 -4 2 -21zM1464 559v23q3 27 0 55q0 4 -1 13t-1 14q-2 6 -2 24q-2 2 -2 12q0 3 -1 7.5t-1 7.5q-4 51 -20 80l-6 22q-6 27 -29 64l-6 12q-71 116 -121 162l-12 14l-19 16q-17 17 -63 45 q-2 0 -19 9l-16 6q-77 35 -90 39l-19 6l-88 16q-3 0 -8 1t-8 1l-14 4q-15 0 -19 2q-65 3 -108 -4l-21 -4q-31 0 -61 -6l-19 -6q-33 -4 -61 -16l-19 -9l-37 -18l-16 -10q-19 -6 -70 -37l-14 -10q-41 -27 -111 -93l-16 -14q-25 -22 -43 -49l-12 -18l-6 -11l-15 -22l-6 -13 q-7 -14 -8 -18q-7 -14 -8 -18l-15 -37q-34 -129 -32 -211q0 -3 1 -8.5t1 -8.5v-20q-2 -58 26 -172l4 -19q2 -10 5 -20t7.5 -21t8 -19t10 -20t9.5 -18t11.5 -19.5t11 -17.5t12 -19t11.5 -18l15 -14l33 -37l12 -12q64 -64 158 -115l18 -8l16 -6l19 -6q11 -3 45 -14t57.5 -16.5 t46.5 -8.5q1 0 21 -4q80 -14 104 -15q14 0 17 13q4 21 -11 24l-100 13l-18 4l-37 4q-16 4 -19 4l-57 16l-18 6l-39 13l-15 6l-16 8q-70 34 -141 102l-15 13l-39 43l-12 14q-53 80 -68 131l-6 19q-35 103 -32 208q-2 4 -2 23q-9 97 34 190l15 39l10 19l8 20l6 11l13 22 q2 2 10 19q7 7 19.5 22.5t19.5 22.5l14 14q51 51 107 86q7 7 16 10q29 19 80 45l41 21l16 6q8 3 25.5 7t25.5 7q16 4 19 4q31 8 59 8q20 5 21 5q44 7 73 4h15q119 -11 178 -35l16 -8q25 -9 72 -35l33 -17l16 -12q12 -7 31 -26l12 -11l12 -12q60 -60 113 -154l12 -18 q29 -54 43 -141q0 -3 1 -9.5t1 -9.5l4 -37q4 -71 -2 -108q0 -7 -1 -19t-1 -16q-1 -4 -3 -23t-3 -25.5t-4 -23.5t-5 -24.5t-6.5 -22t-9.5 -23t-12 -19t-16 -19.5q-14 -20 -33 -31q-39 -26 -81.5 -29t-86.5 25l-14 10q-6 2 -25 21q-7 2 -10 12q-7 7 -8 10q-33 55 -39 88 q-2 4 -2 19q-4 29 -4 62t2 73.5t2 62.5v56q0 4 1 10.5t1 9.5v33q0 12 -11.5 16t-19.5 -4q-6 -3 -6 -12v-64q0 -18 -2 -22v-23q0 -3 1 -10t1 -10q-3 3 -4 9t-4 7l-8 13l-10 12l-11 12q-56 64 -172 82q-14 0 -20 2q-46 0 -82 -8l-37 -14q-31 -11 -61 -41l-15 -17l-12 -18 q-20 -37 -27 -62l-4 -22q-3 -60 10 -107l7 -20l18 -31q4 -8 23 -26q70 -82 186 -72q9 0 37 4q52 8 102 39l15 12q15 14 43 45q3 3 5 8.5t5 8.5t3 9t3 9l4 -18q4 -20 4 -21q15 -58 51 -106l15 -17q30 -34 65 -49l19 -6l16 -6q45 -16 88 -4.5t80 43.5l16 14l25 29 q48 67 51 141l4 18zM995 643l11 -18q8 -17 8 -65.5t-8 -65.5l-13 -21q-11 -14 -14 -16l-8 -13l-15 -12l-12 -8q-36 -36 -74 -47q-19 -8 -43 -8q-56 -11 -110 9.5t-86 67.5l-19 33l-6 19q-13 50 -4 96q0 4 4 20q5 22 23 58l12 14q12 15 29 25l35 16q46 15 94 12q3 0 9 -1 t9 -1q87 -11 164 -75zM913 545q7 26 -10 65q-3 8 -8 13l-12 12q-5 5 -15 10q-24 17 -53 17q-14 0 -20 -3q-3 0 -19 -4q-47 -17 -64 -61.5t7 -87.5l8 -17l12 -14q4 -6 17 -10q34 -18 88 -4l16 6q41 21 51 65q0 3 1 6.5t1 6.5z" />
<glyph unicode="A" horiz-adv-x="1296" d="M1202 -4l-16 -4q-25 -2 -35.5 -2t-37 2.5t-38.5 3.5h-18q-22 0 -58 4q-4 0 -16 4q-30 17 -47 55l-6 19l-15 53l-6 19q-43 116 -47 129h-190q-30 -1 -178 4q-3 0 -9.5 1t-9.5 1h-20q-7 0 -9 2q-2 -2 -6 -2h-12l-6 -21q-7 -20 -19.5 -72t-25.5 -79q-4 -16 -4 -19 q-4 -16 -4 -18l-7 -21q-1 -5 -4 -11.5t-4 -8.5q-11 -22 -28 -29q-13 -6 -19 -8q-81 -14 -182 -4q-3 0 -7 1t-7 1l-27 6q-8 4 -14 10q-12 16 -7 54q1 3 2 7t2 6.5t1 4.5l12 29q5 31 22 71q8 33 21 74l6 16l31 105l6 20q7 15 31 95q0 2 4 18l37 109q6 18 8 20l18 57l6 21 q18 49 25 80l6 18l25 62l6 20q4 10 30 100l7 19q9 38 28 100q1 2 9 19q10 22 18.5 47t17 57.5t13.5 48.5l6 19q7 15 10 39l6 16q19 66 64 76q25 0 39 2q95 5 112 4h19q14 0 18 -2q5 0 21 -4q12 -12 26 -33q11 -14 21 -37l12 -35l31 -80l6 -18q13 -33 35 -98.5t34 -98.5 q1 -4 4.5 -11l4.5 -9q0 -1 8 -23t12 -36l6 -19l23 -72l12 -36q1 -2 4 -9t4 -12l13 -37q17 -57 34 -94l7 -20q17 -57 22 -80l4 -19q6 -21 27 -88l6 -18q22 -56 31 -92l4 -19q9 -48 28 -84l7 -22q1 -3 11 -32.5t15 -47.5l10 -29q0 -1 5 -16l6 -19q14 -24 11 -57.5t-32 -42.5z M1092 106l-5 15q-30 73 -53 168l-16 49q-8 37 -43 127l-8 27q-35 83 -56 170l-4 16q-31 74 -57 170l-6 20l-25 74q-23 74 -42 131.5t-27.5 84.5t-20.5 67l-6 18l-6 17q-13 74 -51 81q-11 4 -23 -2q-3 0 -12 0.5t-14 0.5t-11.5 -1.5t-11.5 -5.5l-6 -12q-3 -7 -6.5 -20.5 t-6.5 -20.5l-51 -152q2 -3 -2 -14l-59 -182l-25 -74l-6 -20q-26 -96 -57 -170l-4 -17q-21 -87 -56 -170l-8 -26q-35 -90 -43 -127l-16 -49q-23 -95 -53 -168l-5 -15q-4 -12 4.5 -20t19.5 -6t15 14l9 27q26 67 43 133l20 59q8 42 25 96l55 -2h49h31l55 4h47h31l45 -4l53 2h19 h88l61 2l58 -2h40q16 -49 23 -86l20 -59q17 -66 43 -133l9 -27q4 -12 15 -14t19.5 6t4.5 20zM938 457q6 -20 8 -21h-22l-74 2l-41 -2h-74l-73 -2l-68 4h-35h-31l-75 -4h-58l-55 2q0 1 0.5 2t1.5 3.5t2 4.5q13 30 14 39l54 160l77 240q21 76 66 212t63 201h29q26 7 29 -20 q13 -39 35 -119q4 -22 82 -264l77 -240l54 -159q1 -10 14 -39zM578 565q11 5 90 1.5t90 -3.5h20l-2 8l-6 23q-29 102 -55 158l-4 16q-13 29 -31.5 85t-28.5 81l-6 18q-7 21 -8 27q-5 -32 -16 -66q0 -1 -1 -3t-2 -6t-2 -7q0 -4 -4 -20q0 -3 -4 -15q-1 -3 -24 -76l-6 -18 q-13 -22 -19 -51q0 -3 -4 -19q-7 -23 -21.5 -65t-21.5 -66h45q4 0 11 -1t10 -1z" />
<glyph unicode="B" horiz-adv-x="1200" d="M1096 428q2 -4 2 -20v-19q-3 -74 -31 -141l-10 -19q-19 -48 -62 -94l-14 -14q-23 -23 -47 -41l-16 -12q-15 -12 -34 -21.5t-32.5 -15.5t-40 -12.5t-35.5 -8.5t-41 -7.5t-37 -6.5h-43q-54 -4 -82 -4h-65q-42 -2 -59.5 -2t-60.5 2.5t-60 3.5h-105q-84 -18 -96 92v23 q0 18 1.5 77.5t0.5 90.5v18v92v21q3 46 0 96q0 3 1 9t1 9v107q-2 4 -2 20q3 106 -6 209q2 4 2 14q0 3 1 7.5t1 7.5v16q0 3 1 10.5t1 10.5q0 16 2 22q-3 8 -4 18t-1 22t-1 18v20q-1 18 1.5 67.5t-1.5 67.5v21q-1 17 4 104v43q-3 40 12 74l9 16l14 13q25 8 50 10t63.5 0 t50.5 -2h20h98h21q75 9 149 0q3 0 8.5 -1t8.5 -1q14 1 29 -0.5t24.5 -3t27 -5t25.5 -4.5q3 0 10.5 -1t10.5 -1q29 -1 62.5 -12t53.5 -21.5t58 -31.5l20 -10l19 -15l16 -14q57 -60 82 -145l4 -21l4 -14q0 -4 2 -6q33 -126 -6 -205l-8 -21l-6 -12q-2 -2 -2 -6q0 -1 -21 -37 q-11 -14 -14 -16q-30 -41 -74 -78l-16 -13q-26 -15 -45 -22l-15 -6l13 -6q105 -45 153 -131l13 -17q6 -8 10 -20q25 -49 31 -94q2 -6 2 -21zM975 383q10 53 -6 84q0 3 -2.5 9t-3.5 7q-14 32 -23 47l-12 25q-1 2 -10 16q-20 28 -35 43q-2 2 -4 3.5t-3 2t-2 2t-2 3.5 q-14 12 -49 34l-28 15q-12 4 -26 7t-30.5 6t-25.5 5l-17 4q-5 3 -16 5.5t-16 5.5q8 1 59 14l18 6q91 41 156 117q2 6 8 12l8 16q43 75 43 146v14q3 30 -4 74q-1 2 -2 5l-1.5 4.5t-0.5 2.5l-14 43l-8 17q-10 23 -29 45l-10 12q-56 72 -166 100l-16 4q-45 11 -103 11h-18 q-15 0 -19 -2q-16 3 -32.5 4t-36.5 1t-31 1h-21q-17 -3 -35.5 -4t-41 -1t-35.5 -1q-4 -2 -19 -2h-18q-29 -3 -36.5 -32.5t-1.5 -62t-3 -59.5v-1065q-5 -11 0.5 -20t17.5 -9h64q14 0 16 2q96 -9 183 2h18q74 0 113 2q3 0 9.5 1t10.5 1q75 11 113 29q11 3 16 8l21 13 q83 51 122 149l7 14q3 7 8 50q0 3 1 7t1 7zM295 725v522q0 3 1 8.5t1 8.5q-1 7 1 17t1 17q0 4 1 6l1 3v4h16q13 0 35 -1.5t39 -1.5t33 3q2 2 12 2q3 0 6.5 1t6.5 1q21 3 55 -3t49 -5h16q4 2 17 2q65 0 86 -4q3 0 7 -1t7 -1l12 -5q3 0 7.5 -1t7.5 -1q3 -1 6.5 -2t5 -1.5 t2.5 -0.5q4 -2 24 -9.5l28 -10.5t23 -10.5t26 -15.5t20 -17l10 -10q2 -3 12 -16t15 -21l6 -17l6 -14q20 -41 23 -80q0 -12 2 -16q6 -84 -39 -158l-9 -14q-3 -3 -6 -9.5t-6 -9.5q-58 -71 -133 -108l-16 -6q-80 -25 -158 -25h-29q-92 3 -184 0h-47zM918 502l6 -15 q0 -1 0.5 -2.5t1.5 -5t2 -6.5q14 -62 2 -119l-6 -18q0 -10 -6 -19q-3 -2 -5 -8q-14 -27 -24.5 -43.5t-29 -36t-40.5 -32.5l-12 -9l-27 -14q-14 -7 -18 -8q-54 -16 -98 -19h-17q-62 -4 -84 -4h-16q-116 -11 -187 -2q-3 0 -8 -1t-8 -1h-49v545h35q14 0 18 2q21 0 57.5 -2 t66.5 -2t58 4h54q71 0 106 -10q3 0 15 -4q33 -9 59 -23q11 -3 16 -8l17 -8l14 -10q16 -8 39 -31l12 -10l31 -39q1 -3 4 -7.5t4 -7.5q6 -6 8 -12q1 -1 4.5 -6t4.5 -8zM414 979h-2q2 -4 2 -18q0 -3 -1 -8.5t-1 -8.5v-2h-2v-16q-2 -4 -2 -19q0 -16 2 -20v-37h47q12 0 32 -1 t31 -1h23q127 -4 178 10l18 8q32 16 41 43q2 3 8 19l7 22l4 17q3 26 -2 45q0 3 -1 7t-1 7v6l-4 19q-6 14 -21 39q-6 12 -12 18q-26 50 -140 63q-4 -2 -18 -2q-19 0 -51 1.5t-57 1.5t-48 -3h-14q-10 -2 -16 -8q-4 -7 -4.5 -17.5t1 -25.5t1.5 -22v-21q0 -11 1.5 -44t0.5 -52z M801 430v4l-6 41l-4 19l-9 16l-6 14q-30 40 -108 51q-13 0 -19 3h-88q-17 1 -75.5 -0.5t-75.5 2.5q3 -21 -1 -64t-1 -67q0 -13 2 -15v-74q1 -6 -0.5 -29t2.5 -26q0 -7 6 -10q26 -12 58 -15t75.5 -0.5t60.5 1.5q15 0 19 2q30 3 53 12l21 6q39 14 65 47q4 11 10 17l8 14l9 18z " />
<glyph unicode="C" horiz-adv-x="1208" d="M1094 494q19 -21 6 -88v-13l-10 -63q0 -3 -1.5 -10.5t-1.5 -10.5t-1 -9t-1 -9q-56 -123 -94 -170l-14 -15q-36 -36 -72 -59l-16 -12q-14 -8 -30.5 -15.5t-28.5 -12t-33 -10.5t-30 -8t-34 -7.5t-31 -6.5h-30q-25 2 -86.5 2t-105 5t-83.5 20l-26 10q-33 16 -47.5 23.5 t-37.5 24t-38 34.5l-17 19q-28 36 -38 59q-28 55 -39 92q-22 63 -33 162q-6 33 -10 98v19q-5 147 -7 162v18q-3 81 5 151q0 3 1 9.5t1 9.5l4 55q0 3 1 9.5t1 9.5l4 39q11 98 33 161q11 40 39 93q10 23 38 59l17 18q15 18 38 34.5t37.5 24t47.5 23.5l26 11q39 15 83.5 19.5 t105 4.5t86.5 2h30q7 -1 36.5 -7.5t41.5 -9.5t35 -9.5t40.5 -14.5t33.5 -18l16 -13q36 -23 72 -59l14 -14q35 -43 47 -74q15 -25 21 -39q17 -29 28 -84l5 -16q1 -4 5.5 -29.5t5 -35.5t-2 -28t-10.5 -32q-3 -3 -3 -10q-51 -28 -133 -11h-14h-41h-14q-4 0 -17 -0.5t-19 -0.5 t-14.5 2.5t-13.5 7.5q-6 6 -10 16t-5.5 17.5t-4.5 21.5t-4 20l-4 19q-9 27 -29 53q-4 6 -11 15t-8 10l-12 10l-12 8q-73 36 -180 25l-21 -7q-33 -8 -57 -36l-14 -15q-6 -8 -11 -18q-13 -22 -16 -29q-12 -39 -14 -67q0 -3 -1 -9.5t-1 -9.5q-7 -40 -7 -65q-4 -62 -4 -82 q0 -4 -1 -11t-1 -10q5 -11 1.5 -90t-3.5 -90q0 -4 1 -11.5t1 -11.5q0 -3 1 -9.5t1 -10.5q0 -20 4 -82q0 -26 7 -66q0 -3 1 -9t1 -9q2 -29 14 -68q2 -4 16 -28q6 -13 11 -19l14 -14q26 -29 57 -37l21 -6q107 -11 180 25l12 8l12 10q1 1 8 10t11 15q23 29 33 71l4 21q0 3 1 7 t1 7q0 26 8 39q8 20 20 27q28 14 67 15.5t71 -3.5t71 0q25 0 31 -2q18 -7 23 -12zM983 367q0 7 1 18t1 18q0 9 -6 15q-15 9 -29 0q-6 -6 -6 -17q0 -3 -1 -8t-1 -8v-16l-4 -19q0 -3 -1 -8t-1 -8q-48 -105 -107 -152q-3 -3 -7 -5t-7 -5q-77 -47 -162 -53h-12q-6 -2 -27 -2 q-3 0 -8 -1t-8 -1t-10 1t-10 1h-19q-92 9 -164 63q-3 1 -5 4t-5 4l-10 9l-13 10q-38 44 -59 102q0 1 -4 17l-4 14q-3 13 -6 16q-22 87 -25 172v19q-6 59 -2 178v20q0 101 -2 152q0 3 1 7t1 7q6 37 6 72l1 13q1 12 5 18q0 3 1 7t1 7t1.5 8t1.5 8q6 45 18 80q0 1 4 17 q43 92 100 121q5 5 17 8q37 16 51 20l16 4q31 6 86 6h17h18h17q123 0 188 -40q3 -1 7 -4.5t7 -4.5q76 -50 95 -125l4 -16q5 -36 10 -51q4 -12 15.5 -14.5t20 5t5.5 19.5q-3 9 -7 27.5t-7 27.5l-5 19q-19 80 -122 153q-6 5 -19 11q-3 3 -16 6q-17 6 -37 11t-31.5 6.5t-38 4.5 t-33.5 4q-14 0 -18 2h-55h-19q-40 0 -98 -10q-13 -3 -16 -6q-30 -9 -62 -25q-3 -3 -16 -6q-24 -14 -45.5 -39.5t-32.5 -44t-29 -53.5l-6 -18q-17 -49 -22 -86l-4 -17q0 -4 -1.5 -10.5t-1.5 -9.5q-6 -39 -10 -109q0 -14 -2 -18q0 -23 -1 -72t-1 -74v-18q0 -140 4 -182v-19 q13 -122 25 -170l6 -18l6 -19l6 -18q27 -80 74 -127l14 -12q3 -3 9.5 -7.5t9.5 -7.5q66 -49 153 -65q3 0 9.5 -1t9.5 -1q18 -2 53 -2h16q14 2 39 2q4 2 15 2q77 3 163 57q3 3 8.5 5t8.5 5t7 5.5t7 5.5q81 74 111 157q4 16 4 21q4 16 4 18q2 2 2 13z" />
<glyph unicode="D" horiz-adv-x="1220" d="M1114 727v-22q4 -133 0 -179q-5 -69 -8 -84q-2 -8 -2 -26l-10 -64q0 -3 -1 -10t-1 -10t-1 -9.5t-1 -9.5q-55 -120 -95 -170l-14 -14q-36 -36 -72 -59l-16 -13q-16 -10 -33 -18t-40.5 -14.5t-34.5 -9.5t-42 -9.5t-36 -7.5h-52q-54 -4 -82 -4h-20q-21 -4 -112 0t-113 4 h-105q-52 -11 -74 24t-22 91v22q0 72 -1 254t-1 240v18q1 24 -1.5 94.5t1.5 94.5v20q0 3 1 9t1 9t1 9.5t1 9.5l4 55v27.5t0.5 68.5t1 89.5t0.5 99v88.5v12q-3 40 12 74l9 16l14 13q29 10 67.5 11t69 -2t68.5 1h20q24 -1 65 2t64.5 3.5t65.5 -5.5q4 -2 16 -2h17q3 0 8 -1 t8 -1q32 1 88.5 -9.5t81.5 -11.5l20 -8q27 -9 71 -34.5t58 -32.5q4 -1 6 -5q3 -4 5 -6l12 -10l14 -14q35 -43 47 -74q15 -25 21 -39q12 -19 19.5 -43.5t10.5 -42t7 -47t6 -43.5l4 -39v-14l4 -41q5 -51 0 -201zM999 788q3 44 -2 74v49q-5 53 -8 66q-14 98 -33 158l-6 16 q-11 32 -37 61l-10 15q-33 33 -72 59l-16 8q-43 26 -88 31q-3 0 -8 1t-8 1q-13 3 -78 8l-21 4q-14 0 -18 2h-100q-35 2 -107 2q-78 -4 -111 -4q-4 0 -6 -2q-8 2 -15 -3t-7 -15v-268q0 -64 -2 -95q0 -14 -2 -20q0 -19 1 -57.5t1 -59.5q2 -2 2 -16v-19q-4 -34 0 -137 q2 -4 2 -18q-7 -48 -4 -113q0 -25 2 -39v-37q-2 -27 -2 -78v-20q-2 -14 -2 -37v-20q0 -45 4 -131q0 -9 2 -11q-5 -11 0.5 -19.5t17.5 -8.5q133 0 201 2q66 4 98 4h99q3 0 9 1t9 1q12 0 16 2q90 20 172 70l13 12l12 14l12 12q22 19 37.5 47.5t22.5 50.5t16 60q0 15 2 21 q8 63 8 135v20q4 135 2 203q0 3 1 9t1 9zM956 909v-14q1 -13 4 -51t3 -58v-18q1 -33 -4.5 -97.5t-4.5 -97.5v-14q0 -96 -8 -145q0 -3 -1 -8.5t-1 -8.5q-13 -82 -61 -135l-27 -26q-61 -43 -154 -70q-3 0 -6 -1t-6 -1q-15 -3 -30.5 -3.5t-37 0.5t-30.5 1q-1 0 -199 -6h-104 q-2 63 -2 180v18q0 12 1 37t1 37v53q-4 99 0 129v19q0 18 -1.5 52t-1.5 62t3 52v16q0 6 -2.5 39t-2 39t2.5 39v18q0 20 1 57t1 56v239q26 0 88.5 3t97.5 2q49 -3 98 -3h15q3 0 8 -1t8 -1h17l30 -4h15q116 -12 165 -55l15 -12l39 -43l10 -15q18 -31 23 -45l4 -16 q20 -69 30 -160q4 -28 4 -39zM819 565v21q-6 38 6 114l-2 19v20q-5 86 -4 103v20q0 37 2 53l-4 23q0 37 -10 57l-6 41l-4 19q-49 108 -125 106q-4 2 -21 2q-25 3 -81.5 5.5t-86.5 5.5v2h-6q-2 -2 -14 -2q-36 0 -43 -9q-4 -7 -4.5 -17.5t1 -25.5t1.5 -22v-180q-4 -62 -4 -82 q0 -4 -1 -11t-1 -10q4 -11 1 -90t-3 -90v-275q1 -8 0 -25t0.5 -26.5t7.5 -13.5q6 -5 14.5 -7.5t13.5 -3t19.5 0t17.5 0.5v2l138 6h22q46 -4 85 20t60 66l9 18q6 19 10 60q10 20 10 57l4 23q-2 6 -2 26z" />
<glyph unicode="E" horiz-adv-x="1099" d="M991 246l4 -21q-2 -18 -0.5 -96t-9.5 -98l-4 -13l-10 -14q-8 -10 -26 -11.5t-47.5 2t-41.5 3.5h-14q-59 0 -184.5 -1t-176.5 -1h-45q-21 -1 -94 0.5t-94 -2.5h-21q-58 -4 -92 14q-6 6 -8 12q-3 18 -3 30t2.5 36t2.5 37v14q0 100 -1 288.5t-1 203.5v94q-2 36 2 111v22 q1 25 1 70t1 81.5t4 69.5v15v168v73q-7 27 -4 43q0 4 1 11t1 10q11 30 53 41q3 0 9.5 1t9.5 1q125 4 170 -2h407q28 -4 39 -4h19q18 -2 69 2t60 -6q17 -10 21.5 -25.5t2.5 -42.5q0 -3 -1 -11t-1 -12q-5 -11 -3 -56t1 -56v-13q-1 -10 -5 -24l-3 -14l-10 -15q-8 -10 -26 -11.5 t-47.5 2t-41.5 3.5h-14q-75 0 -226 -1t-198 -1q0 -16 1 -35l1 -18v-180q-2 -10 -2 -29h364q28 -4 39 -4h43q20 -3 35 -0.5t33.5 1.5t32.5 -9q21 -15 18 -45v-15l-6 -67v-23q-2 -14 -2 -41v-20q3 -29 -10 -43.5t-34.5 -15t-45.5 -1t-43 -0.5h-25q-76 0 -220 -1t-185 -1v-18 v-185v-122h370q35 -5 39 -5h19q18 -2 69 2t60 -6q19 -9 22 -26zM864 121q12 5 10 19t-14 16q-33 4 -91 2.5t-91 1.5h-19q-84 4 -127 -2h-110q-12 0 -40 -2t-48.5 -1t-38.5 7v31v139q0 12 -2 16v98q3 28 1 83t1 83v111h78q34 1 97.5 -0.5t82.5 -1.5h149q11 0 46 -1.5t59 0 t49 7.5q7 1 8.5 12.5t-4.5 18.5q-6 6 -14 6q-15 0 -66 -1.5t-78 -0.5h-149q-121 0 -180 2h-78v330q0 14 2 18q0 70 -2 109v69h59q19 0 83 1.5t98 0.5h59q14 0 18 -2q25 4 91.5 0.5t91.5 -2.5q4 2 20 2q36 4 55 4q20 0 20 20.5t-20 20.5q-19 0 -55 -4h-18q-24 -4 -92.5 -1.5 t-92.5 1.5q-3 0 -9 1t-9 1h-62q-31 1 -89 -0.5t-76 -1.5h-84q-11 5 -20 -0.5t-9 -17.5v-70q4 -78 4 -108v-19q-8 -62 -4 -184v-43q0 -25 -2 -35v-18q-1 -27 0.5 -75.5t1.5 -64.5v-561q0 -11 10 -18q22 -4 89 -1.5t89 1.5h82q58 7 140 4q4 0 10.5 -1t9.5 -1q15 0 43.5 -2 t46 -3t43 0.5t47.5 6.5z" />
<glyph unicode="F" horiz-adv-x="1097" d="M412 606v-20q0 -26 -4 -80v-21q0 -21 4 -67v-23q3 -81 -4 -139q0 -4 -1 -10.5t-1 -9.5q0 -22 4 -62t4 -72.5t-8 -60.5q-2 -7 -9 -14q-25 -38 -82 -29h-12l-55 -4h-21q-58 -4 -92 14q-6 6 -8 12q-3 18 -3 30t2.5 36t2.5 37v14q0 100 -1 288.5t-1 203.5v94q-2 36 2 111v22 q1 25 1 70t1 81.5t4 69.5v15v125v43q2 4 2 20q0 17 -2 23q0 6 -1 27.5t0 32.5t3.5 27.5t11 27t21.5 16.5l16 4q3 0 9.5 1t9.5 1q125 4 170 -2h407q28 -4 39 -4h19q18 -2 69 2t60 -6q17 -10 21.5 -25.5t2.5 -42.5q0 -3 -1 -11t-1 -12q-5 -11 -3 -56t1 -56v-13q-1 -10 -5 -24 l-3 -14l-10 -15q-8 -10 -26 -11.5t-47.5 2t-41.5 3.5h-14q-75 0 -226 -1t-198 -1q0 -16 1 -35l1 -18v-180q-2 -10 -2 -29h364q28 -4 39 -4h43q20 -3 35 -0.5t33.5 1.5t32.5 -9q21 -15 18 -45v-15l-6 -67v-23q-2 -14 -2 -41v-20q3 -29 -10 -43.5t-34.5 -15t-45.5 -1t-43 -0.5 h-25q-51 0 -158.5 -1t-152.5 -1h-21h-73zM254 696l-2 -577q1 -12 10 -17t18.5 -1t12.5 16v26l2 189q0 12 -2 16v98q3 28 1 83t1 83v111h78q34 1 97.5 -0.5t82.5 -1.5h149q11 0 46 -1.5t59 0t49 7.5q7 1 8.5 12.5t-4.5 18.5q-6 6 -14 6q-15 0 -66 -1.5t-78 -0.5h-149 q-121 0 -180 2h-78v330q0 14 2 18q0 70 -2 109v69h59q19 0 83 1.5t98 0.5h59q14 0 18 -2q25 4 91.5 0.5t91.5 -2.5q4 2 20 2q36 4 55 4q20 0 20 20.5t-20 20.5q-19 0 -55 -4h-18q-24 -4 -92.5 -1.5t-92.5 1.5q-3 0 -9 1t-9 1h-62q-31 1 -89 -0.5t-76 -1.5h-84 q-11 5 -20 -0.5t-9 -17.5v-70q4 -78 4 -108v-19q-8 -62 -4 -184v-43q0 -25 -2 -35v-18q-1 -27 0.5 -75.5t1.5 -64.5z" />
<glyph unicode="G" horiz-adv-x="1214" d="M1106 629q0 -3 -1 -10.5t-1 -10.5q-5 -13 -2 -55t2 -55q-2 -2 -2 -17q0 -3 1 -8t1 -8v-21q0 -10 -4 -38v-13l-10 -63q0 -3 -1.5 -10.5t-1.5 -10.5q-8 -47 -53 -123l-10 -18q-23 -37 -33 -47l-14 -15q-36 -36 -72 -59l-16 -12q-14 -8 -30.5 -15.5t-28.5 -12t-33 -10.5 t-30 -8t-34 -7.5t-31 -6.5h-30q-25 2 -86.5 2t-105 5t-83.5 20l-26 10q-33 16 -47.5 23.5t-37.5 24t-38 34.5l-17 19q-28 36 -38 59q-28 55 -39 92q-22 63 -33 162q-6 33 -10 98v19q-5 147 -7 162v18q-3 81 5 151q0 3 1 9.5t1 9.5l4 55q0 3 1 9.5t1 9.5l4 39q11 98 33 161 q11 40 39 93q10 23 38 59l17 18q15 18 38 34.5t37.5 24t47.5 23.5l26 11q39 15 83.5 19.5t105 4.5t86.5 2h30q7 -1 36.5 -7.5t41.5 -9.5t35 -9.5t40.5 -14.5t33.5 -18l16 -13q36 -23 72 -59l14 -14q35 -43 47 -74q15 -25 21 -39q17 -29 28 -84l5 -16q9 -35 12 -68v-14 q-2 -31 -22.5 -46t-42 -16t-57 0t-48.5 0h-19q-3 0 -10 -1t-10 -1h-10h-19q-2 -2 -16 -2q-22 4 -29 11q-9 9 -12 22q-9 23 -12 53l-4 19q-9 27 -29 53q-4 6 -11 15t-8 10l-12 10l-12 8q-73 36 -180 25l-21 -7q-33 -8 -57 -36l-14 -15q-6 -8 -11 -18q-13 -22 -16 -29 q-12 -39 -14 -67q0 -3 -1 -9.5t-1 -9.5q-7 -40 -7 -65q-4 -62 -4 -82q0 -4 -1 -11t-1 -10q5 -11 1.5 -90t-3.5 -90q0 -4 1 -11.5t1 -11.5q0 -3 1 -9.5t1 -10.5q0 -20 4 -82q0 -26 7 -66q0 -3 1 -9t1 -9q2 -29 14 -68q2 -4 16 -28q6 -13 11 -19l14 -14q26 -29 57 -37l21 -6 q107 -11 180 25l12 8l12 10l9 12l10 13q12 14 20.5 30.5t13.5 38t7.5 35t5.5 41.5t4 37h-121h-20q-15 0 -19 2q-3 0 -8 1t-8 1l-16 6q-29 12 -29 27q-1 19 0 57.5t0 58.5q0 15 -2 19v20q-9 44 25.5 69t78.5 17q17 0 23 -2q84 0 125 -2q6 -2 20 -2q76 -5 101 0h20h14 q15 0 19 -2h41q2 0 14 -4q19 -14 23 -24q7 -16 10 -39q2 -4 2 -19q3 -30 -2 -61zM985 403q3 22 3.5 64t-0.5 99.5t-1 66.5q3 6 0 14q0 7 -8 15q-9 6 -29 6h-35q-13 0 -39 -1t-38 -1q-14 0 -40 -1t-38 -1h-21h-16q-4 2 -18 2q-11 4 -20 -6t-7 -21q0 -14 29 -14h14q12 0 14 -2 h17q12 0 36 1t37 1t36.5 1t35.5 1h41h8v-2v-17q1 -3 -0.5 -9.5t-1.5 -8.5v-19v-16v-16q9 -65 -2 -170l-4 -19q0 -3 -1 -8t-1 -8q-48 -105 -107 -152l-14 -10q-77 -47 -162 -53h-12q-6 -2 -27 -2q-3 0 -8 -1t-8 -1t-10 1t-10 1h-19q-92 9 -164 63l-20 17l-13 10 q-38 44 -59 102q0 1 -4 17l-4 14l-6 16q-22 87 -25 172v19q-6 59 -2 178v20q0 101 -2 152q0 3 1 7t1 7q6 37 6 72l1 13q1 12 5 18q0 3 1 7t1 7t1.5 8t1.5 8q6 45 18 80q0 1 4 17q43 92 100 121q5 5 17 8q37 16 51 20l16 4q31 6 86 6h52q123 0 188 -40q3 -1 7 -4.5t7 -4.5 q76 -50 95 -125l4 -16q5 -36 10 -51q4 -12 15.5 -14.5t20 5t5.5 19.5q-3 9 -7 27.5t-7 27.5l-5 19q-19 80 -122 153q-6 5 -19 11l-16 6q-17 6 -37 11t-31.5 6.5t-38 4.5t-33.5 4q-14 0 -18 2h-74q-40 0 -98 -10l-16 -6q-30 -9 -62 -25l-16 -6q-24 -14 -45.5 -39.5t-32.5 -44 t-29 -53.5l-6 -18q-17 -49 -22 -86l-4 -17q0 -4 -1.5 -10.5t-1.5 -9.5q-6 -39 -10 -109q0 -14 -2 -18q0 -23 -1 -72t-1 -74v-18q0 -140 4 -182v-19q13 -122 25 -170l18 -55q27 -80 74 -127l14 -12l19 -15q66 -49 153 -65q3 0 9.5 -1t9.5 -1q18 -2 53 -2h16q14 2 39 2 q4 2 15 2q77 3 163 57l17 10l14 11q81 74 111 157q4 16 4 21q4 16 4 18q2 2 2 13v18q2 4 2 18z" />
<glyph unicode="H" horiz-adv-x="1222" d="M1100 1327v-22q0 -27 -2 -41v-17q0 -32 0.5 -66t1 -56.5t0.5 -24.5v-180q-4 -62 -4 -82q0 -4 -1 -11t-1 -10q4 -11 1 -90t-3 -90v-440q-5 -35 -5 -39v-19q-2 -18 2 -69t-6 -60q-12 -22 -37 -24t-61 3t-57 1h-21q-46 -3 -78 8l-14 10q-10 8 -11.5 26t2 47.5t3.5 41.5v14 q0 70 -1 220.5t-1 197.5q-258 4 -381 4q-12 0 -14 2v-364q-4 -28 -4 -39v-19q-2 -18 1.5 -69t-6.5 -60q-12 -22 -37 -24t-61 3t-57 1h-21q-45 -3 -77 8l-15 10q-10 8 -11.5 26t2 47.5t3.5 41.5v14q0 100 -1 288.5t-1 203.5v94q-1 30 4 178q0 3 1 9.5t1 9.5v20q0 6 2 8v312 v73q-7 27 -4 43q0 4 1 11t1 10q11 30 53 41q3 0 9.5 1t9.5 1q131 4 182 -4q5 -2 12 -9q8 -3 11 -12q18 -32 8 -72q2 -2 2 -16v-22q0 -27 -2 -41v-17q0 -32 0.5 -66t1 -56.5t0.5 -24.5v-180q-4 -54 -4 -74h10q125 0 383 -4q0 12 1 30t1 29q0 3 1 9.5t1 9.5v20q0 6 2 8v312v73 q-7 27 -4 43q0 4 1 11t1 10q11 30 53 41q3 0 9.5 1t9.5 1q131 4 182 -4q5 -2 12 -9q8 -3 11 -12q18 -32 8 -72q2 -2 2 -16zM979 291v18q0 57 -4 74v207q0 24 1.5 68.5t1.5 80.5t-3 68v307q3 14 3.5 27.5t-0.5 32.5t-1 28q0 3 -1 7.5t-1 7.5v131q0 8 -6 14t-16 5t-15 -7 q-1 -2 -2 -5l-1.5 -4.5t-0.5 -2.5q-4 -114 -4 -172q0 -13 2 -15q0 -16 1 -42.5t1 -39.5v-276q-1 -8 1.5 -22t2.5 -24t-6 -16q-10 -13 -53 -8h-21q-49 0 -74 2h-86q-132 -4 -198 10h-21q-60 -3 -119 0h-34q-15 0 -21 -2q-3 0 -9 -1t-9 -1v168q0 27 -2 41q-8 67 2 150v63 q3 72 0 140v28q0 20 -20.5 20t-20.5 -20v-14q9 -86 0 -176v-54q-4 -33 0 -133v-26q6 -90 0 -180v-17q6 -63 2 -180q-2 -6 -2 -21q2 -27 2 -77v-17q0 -12 -2 -14v-90q-1 -14 0.5 -63.5t-2.5 -63.5v-72q6 -45 8 -51q4 -4 14 -4q21 0 21 18v45q-2 10 -2 35q-2 2 -2 17 q-3 27 2.5 88t-0.5 88v20q0 67 2 100v211q3 0 9 1t9 1t9.5 1.5t9.5 1.5h34q19 -3 119 -3q4 0 11 1.5t10 1.5q129 -14 174 -9q4 -2 18 -2h103q27 -3 55 0h16q8 -1 24 1.5t27 1.5t17 -9q7 -12 7 -27.5t-3 -34.5t-2 -30v-53q-2 -39 -2 -115v-16q0 -23 2 -37v-275 q0 -20 20.5 -20t20.5 20v25q3 29 2 84t2 82z" />
<glyph unicode="I" horiz-adv-x="542" d="M412 362v-151v-14q-4 -28 -4 -39v-19q-2 -18 1.5 -69t-6.5 -60q-12 -22 -37 -24t-61 3t-57 1h-21q-45 -3 -77 8q-3 3 -7.5 5t-7.5 5q-10 8 -11.5 26t2 47.5t3.5 41.5v14q0 100 -1 288.5t-1 203.5v18v58v18q-1 30 4 178q0 3 1 9.5t1 9.5v20q0 6 2 8v312v14v31v28 q-7 27 -4 43q0 4 1 11t1 10q11 30 53 41q3 0 9.5 1t9.5 1q131 4 182 -4q5 -2 12 -9q8 -3 11 -12q18 -32 8 -72q2 -2 2 -16v-22q0 -27 -2 -41v-17q0 -32 0.5 -66t1 -56.5t0.5 -24.5v-180q-4 -62 -4 -82q0 -4 -1 -11t-1 -10q4 -11 1 -90t-3 -90v-275zM287 489v252v168 q0 27 -2 41q-8 67 2 150v63q3 72 0 140v28q0 20 -20.5 20t-20.5 -20v-14q9 -86 0 -176v-54q-4 -33 0 -133v-26q6 -90 0 -180v-17q6 -63 2 -180q-2 -6 -2 -21q2 -27 2 -77v-17q0 -12 -2 -14v-90q-1 -14 0.5 -63.5t-2.5 -63.5v-72q6 -45 8 -51q4 -4 14 -4q21 0 21 18v45 q-2 10 -2 35q-2 2 -2 17q-3 27 2.5 88t-0.5 88v20q0 67 2 100z" />
<glyph unicode="J" horiz-adv-x="839" d="M717 1327v-22q0 -27 -2 -41v-17q0 -32 0.5 -66t1 -56.5t0.5 -24.5v-180q-4 -62 -4 -82q0 -4 -1 -11t-1 -10q5 -11 1.5 -90t-3.5 -90v-283q2 -52 -17 -135l-6 -20q-13 -34 -24 -52q-2 -7 -11 -16l-24 -31l-15 -16q-98 -84 -196 -92h-21q-46 -4 -63 -4q-6 -2 -27 -2 q-10 1 -46.5 4t-53.5 3.5t-47 -1.5q-4 0 -13.5 2t-13.5 2l-18 8l-17 10l-12 15q-8 8 -12 16q-4 10 -5.5 21t-0.5 19.5t0 20.5q-3 15 -3 33q0 64 5 80q9 17 10 19l12 12q6 4 37 16q30 6 103.5 3.5t101.5 2.5q10 0 24 7l23 10l14 12l10 12q12 23 15.5 50t3.5 62t2 52v246 q-1 30 4 178q0 3 1 9.5t1 9.5v20q0 6 2 8v281v14q1 19 -3 77t1 77q3 9 10 16q9 12 43 25q3 0 9.5 1t9.5 1q131 4 182 -4q5 -2 12 -9q8 -3 11 -12q18 -32 8 -72q2 -2 2 -16zM592 391v101q2 39 2 114v21q-4 46 -4 71v35q4 152 0 203q0 5 -1 16.5t-1 16.5q-2 4 -2 20 q0 73 6 141v201q0 20 -20.5 20t-20.5 -20v-211q-6 -68 -6 -137q2 -4 2 -18q0 -5 1 -14.5t1 -14.5t1 -14.5t1 -14.5q0 -100 -2 -149v-35q0 -32 4 -102v-19q0 -20 -1 -55t-1 -55v-21q0 -40 -2 -63q0 -3 -1 -7.5t-1 -7.5q0 -7 -1 -25.5t-1.5 -28.5t-2 -25t-4 -27.5t-6.5 -24.5 l-8 -18q-19 -45 -63 -69.5t-94 -22.5q-3 0 -10.5 -1t-10.5 -1q-59 4 -98 -3h-27q-3 0 -6 1.5t-6 1.5q-68 16 -74 -17q0 -27 53 -27h41q32 4 92 3.5t89 3.5l20 4l19 6q8 5 34 16l17 13q28 22 45 47q7 7 8 10q18 23 27 54t8.5 59t-0.5 59q4 4 4 10z" />
<glyph unicode="K" horiz-adv-x="1253" d="M723 739q-6 -6 -6 -10q-6 -15 0 -31q2 -6 8 -12l63 -88q2 -4 9 -12q0 -2 2 -4l6 -9q5 -9 49 -75l10 -15l90 -121l11 -14q54 -70 94 -131l14 -16q8 -13 25 -33.5t24 -30.5q0 -2 2 -4l6 -8l19 -27q24 -19 35 -51q6 -16 -5.5 -31t-29.5 -20q-21 -4 -84 0h-84q-3 0 -9 1t-9 1 q-39 -5 -75.5 7.5t-58.5 41.5q-2 2 -4.5 5.5t-5.5 4.5l-49 72l-10 16l-33 48l-10 14l-6 6q-16 20 -44.5 63.5t-43.5 63.5l-11 14l-69 97l-11 14q-40 49 -59 92l-12 14q-5 8 -15.5 21.5t-19 25.5t-14.5 23v-444q-4 -28 -4 -39v-19q-2 -18 1.5 -69t-6.5 -60q-12 -22 -37 -24 t-61 3t-57 1h-21q-45 -3 -77 8l-15 10q-10 8 -11.5 26t2 47.5t3.5 41.5v14q0 100 -1 288.5t-1 203.5v94q-1 30 4 178q0 3 1 9.5t1 9.5v20q0 6 2 8v312v73q-7 27 -4 43q0 4 1 11t1 10q11 30 53 41q3 0 9.5 1t9.5 1q131 4 182 -4q5 -2 12 -9q8 -3 11 -12q18 -32 8 -72 q2 -2 2 -16v-22q0 -27 -2 -41v-17q0 -32 0.5 -66t1 -56.5t0.5 -24.5v-180q-4 -62 -4 -82q0 -4 -1 -11t-1 -10v-29q3 3 7.5 10.5t6.5 10.5l8 12l281 404l10 14l33 47l10 17l41 59l8 10q42 60 88 72h215q4 0 13 1.5t13 1.5t10.5 -0.5t11.5 -2.5t10 -6q17 -17 8 -45 q0 -3 -2.5 -8l-3.5 -7l-8 -10l-13 -18l-26 -39q-11 -11 -13 -17q-7 -10 -24 -30t-25 -33l-14 -17l-10 -14l-9 -16l-32 -47l-13 -15l-34 -41l-11 -12q-13 -16 -34 -45.5t-27 -38.5l-10 -16l-52 -78q-3 -10 -10 -17q-8 -12 -44.5 -58.5t-49.5 -76.5zM588 698l-10 17 q-7 12 0 26t20.5 30t17.5 26q8 7 9 12q31 39 45 63l22 39q4 11 8 15q10 12 30 36.5t32 39t27 36t26 41.5l12 15l35 45l12 16l11 14q5 5 10 15q14 17 53 71.5t66 81.5q6 3 14 11l12 14q8 17 -9 27t-27 -7l-11 -12q-32 -27 -75.5 -89.5t-57.5 -78.5l-10 -12l-8 -10l-11 -13 q-22 -32 -34 -43l-13 -16q-16 -25 -35.5 -52t-45.5 -59.5t-39 -50.5l-7 -12q-25 -45 -32 -53l-9 -15l-8 -12q-7 -10 -23 -37.5t-29.5 -44t-31.5 -27.5q-29 -19 -102 -6h-21q-20 0 -57.5 1t-56.5 1v168q0 27 -2 41q-8 67 2 150v63q3 72 0 140v28q0 20 -20.5 20t-20.5 -20v-14 q9 -86 0 -176v-54q-4 -33 0 -133v-26q6 -90 0 -180v-17q6 -63 2 -180q-2 -6 -2 -21q2 -27 2 -77v-17q0 -12 -2 -14v-90q-1 -14 0.5 -63.5t-2.5 -63.5v-37q0 -8 -1 -27.5t-0.5 -33t5.5 -27.5q5 -7 14 -5t14 9q13 22 9 74v18q-2 2 -2 17q-3 27 2.5 88t-0.5 88v20q0 67 2 100 v211q19 0 80 -1.5t94 -0.5h20q18 0 54 4q7 3 10 -12l10 -14l20 -29l23 -37l25 -39l10 -14q3 -9 8 -14q18 -25 49.5 -80t52.5 -82l13 -16l35 -52l12 -16q91 -117 125 -166l10 -8l8 -10l10 -11q15 -40 41 -24q14 10 -2 37l-8 12q-3 6 -10.5 14.5t-9.5 10.5l-11 10 q-19 23 -56 74.5t-58 76.5l-49 74q-3 3 -5.5 8t-5.5 8q-21 30 -58 87.5t-54 82.5l-8 13l-25 39q-17 29 -23 37z" />
<glyph unicode="L" horiz-adv-x="868" d="M805 168v-18q4 -51 -2 -76v-13q0 -31 -16.5 -50t-45.5 -15h-16q-7 0 -18 1t-15 1q-18 0 -24 -2h-230q-21 -1 -94 0.5t-94 -2.5h-21q-58 -4 -92 14q-6 6 -8 12q-2 2 -2 15q-2 48 -2 68t2.5 68t3.5 67v14q0 90 -1 228.5t-1 148.5v94q-2 36 2 111v22q1 25 1 70t1 81.5 t4 69.5v15v168v73q-7 27 -4 43q0 4 1 11t1 10q11 30 53 41q3 0 9.5 1t9.5 1q13 0 36 1t36 1h16q6 2 22 2q23 0 33 -2q15 0 19 -2h14l12 -4q15 -9 22 -28t7.5 -33.5t-1 -43t-1.5 -37.5v-18q4 -42 4 -189v-18q0 -11 1 -34.5t1 -35.5v-20q-3 -28 -6 -79.5t-6 -78.5v-80 q2 -6 2 -20q-1 -24 1.5 -94.5t-1.5 -94.5q0 -3 -1 -9t-1 -9q0 -9 -1 -27.5t-1 -27.5v-178h346q28 4 38 -14.5t5 -45.5v-18q0 -25 2 -35zM696 131q10 1 10 11.5t-6 19.5q-3 6 -14 6q-18 2 -57 2q-3 0 -10 -1t-11 -1q-16 0 -49 -1t-49 -1h-217v196q4 52 0 209v244 q11 121 4 199q0 16 -2 22q0 9 -2.5 55.5t-2 55.5t2.5 55v154q0 14 -21 14q-18 0 -18 -14q0 -15 -2 -19v-129q0 -16 -2 -20v-41q0 -6 -1 -21.5t-0.5 -27.5t3.5 -23v-55q2 -4 2 -16q0 -103 -2 -158v-43q-4 -62 -4 -94v-19q4 -94 4 -139v-150q-2 -14 -2 -36q0 -3 -1 -10t-1 -11 q0 -81 4 -104v-97q0 -11 10 -18h113q18 -2 53 -2h12q13 1 59.5 -0.5t59.5 2.5h16q90 0 121 6z" />
<glyph unicode="M" horiz-adv-x="1503" d="M1374 137v-14q0 -12 3.5 -41.5t2 -47.5t-11.5 -26l-14 -10q-3 -1 -10 -2.5t-14.5 -3t-14.5 -2.5h-12l-158 -6l-17 4q-19 3 -28 22q-4 12 -4 15q-4 16 0 79v19q0 57 -4 74v440q0 49 -2 74v14q-1 17 4 113q-13 -20 -38 -70t-44 -76q-6 -6 -8 -12q-6 -6 -9 -14l-6 -15 q-3 -9 -8 -14l-12 -29l-6 -12q-46 -52 -62 -98l-6 -15q-8 -19 -26 -49.5t-23 -40.5q-5 -5 -8 -14q-8 -20 -25 -33l-16 -8q-3 -3 -5.5 -4t-6 -1t-5.5 -1q-68 -17 -92 24q-7 12 -20.5 36.5t-20.5 35.5q-10 10 -12 14q-4 2 -8 15q-12 33 -60 102l-10 14q-46 95 -76 134l-8 12 q-14 21 -33.5 61.5t-29.5 57.5q5 -95 4 -113v-27q-2 -2 -2 -12q3 -70 0 -141v-348q-4 -32 -4 -50v-12q-9 -27 -4.5 -55t-2.5 -56t-32 -38q-3 0 -7.5 -1t-7.5 -1q-11 0 -49 5.5t-57 0.5h-21q-45 -3 -77 8l-15 10q-10 8 -11.5 26t2 47.5t3.5 41.5v14q0 100 -1 288.5t-1 203.5 v112l6 179v20q0 1 1 3t1 3v2v312v55q0 9 -1.5 26.5t-2 28t3 24.5t12.5 23q2 4 17 15l22 6q3 0 9.5 1t9.5 1q9 0 27 1t26 1h18q70 4 101 -10q5 -2 12 -9l8 -10l6 -10l9 -17l10 -16q14 -25 42.5 -70t33.5 -53l8 -16l12 -23l6 -10l19 -29q3 -9 8 -14l47 -100l6 -17 q12 -36 29 -57q1 -1 20 -33l9 -16q6 -12 20 -44.5t26 -54.5t27 -40q0 -3 4 -15q0 -3 1 -9t1 -9l7 18l8 17q16 26 41 77.5t41 77.5l4 6q1 3 2.5 5.5t3 5.5t2.5 4q3 7 11 19.5t11 19.5l13 22q3 3 5 8.5t5 8.5q19 52 55 104q8 9 11 16q22 24 53 84q6 7 10 17q14 27 43 75.5 t39 67.5l8 10q8 7 12 9q31 14 101 10h18q8 0 26 -1t27 -1q3 0 9.5 -1t9.5 -1q42 -11 53 -41q0 -3 1 -10t1 -11q3 -16 -4 -43v-73v-312v-2q0 -4 2 -6v-20l6 -179v-112q0 -15 -1 -203.5t-1 -288.5zM1247 958q-8 67 2 150v63q2 35 2 105q-2 4 -2 18q-1 6 0.5 18t0.5 21.5 t-7 16.5q-12 11 -25.5 8t-25.5 -15l-10 -14q-2 -3 -25 -43q-23 -44 -43 -78l-8 -12q-6 -6 -8 -12l-94 -176q0 -2 -9 -19l-24 -53q-3 -4 -10 -18q-59 -82 -105 -177q-3 -4 -10 -18t-8 -18l-11 -19l-6 -12q-9 -17 -10 -19q-10 -22 -55 -98q-3 -3 -5.5 -8t-5.5 -8l-10 16 q-35 50 -69 117l-11 14q-2 6 -8 12l-6 13l-12 16l-66 119q-6 4 -10 16l-12 19l-6 14q-15 19 -33 61l-17 31l-92 176l-18 31l-10 16q-6 12 -29 50q-3 9 -10 16q-15 19 -17 25l-6 14q-19 38 -43 24q-7 -3 -10 -16q0 -150 -4 -192v-19v-27q-4 -33 0 -133v-26q6 -90 0 -180v-17 q6 -63 2 -180q-2 -6 -2 -21q2 -27 2 -77v-17q0 -12 -2 -14v-90q-1 -14 0.5 -63.5t-2.5 -63.5v-62v-10q3 -10 1.5 -21.5t1 -21.5t11.5 -12q16 -5 21.5 7t7.5 31v3v22q-2 10 -2 35q-2 2 -2 17q-3 27 2.5 88t-0.5 88v20q0 67 2 100v420q0 27 -2 41q-8 67 2 150v10v33v14 q-1 15 1 47t1 47q14 -14 24 -37l11 -14l20 -33l18 -32q20 -29 49.5 -90t49.5 -89l18 -32q4 -8 15 -30.5t16 -35.5l10 -18l12 -19q13 -20 36.5 -63.5t37.5 -65.5l12 -18l13 -21l14 -18l8 -17q14 -19 45 -75q1 -3 4.5 -7.5t4.5 -7.5q5 -5 11 -17.5t13 -19.5t17 -4q12 4 20 15 t15.5 30t11.5 25q3 4 10 18l43 74l10 17l8 16q0 1 21 37l12 18q45 96 96 162l9 16q5 5 9.5 16.5t6.5 14.5l16 39l8 19q15 24 40.5 74.5t41.5 74.5l9 12q4 7 23.5 37.5t27.5 48.5q22 45 24 47q4 -99 -2 -149v-53q-4 -33 0 -133v-27q6 -90 0 -180v-17q6 -63 2 -180 q-2 -6 -2 -20q2 -27 2 -78v-17q0 -12 -2 -14v-90q-1 -14 0.5 -63.5t-2.5 -63.5v-72q6 -45 8 -51q4 -4 15 -4q20 0 20 18v46q-2 10 -2 34q-2 2 -2 17q-3 27 2.5 88t-0.5 88v20q0 68 2 101v420q0 26 -2 40z" />
<glyph unicode="N" horiz-adv-x="1296" d="M1174 1327v-22q0 -20 -3 -41v-17q0 -32 0.5 -66t1.5 -56.5t1 -24.5v-180q-5 -77 -5 -82q0 -4 -1 -11t-1 -10q5 -11 1.5 -90t-3.5 -90v-275v-151v-14q-4 -28 -4 -39v-19v-10q-1 -15 1 -40.5t1.5 -44.5t-6.5 -34q-12 -22 -37.5 -24t-61.5 3t-57 1h-20h-12h-13 q-25 -4 -42 10t-33.5 44t-22.5 38q-1 2 -10 16q-61 106 -82 138l-10 16l-15 24l-8 13q0 9 -10 26q-22 22 -48.5 69.5t-39.5 64.5l-10 14l-9 14q-8 14 -27 50.5t-34 61.5t-33 48q-3 9 -8 14l-6 15q-3 9 -8 14q-2 6 -8 12q-19 26 -44 76t-38 70q5 -95 4 -113v-14 q-2 -25 -2 -74v-275v-151v-14q-4 -17 -4 -74v-19q0 -6 1.5 -24.5t2 -26.5t-1.5 -20.5t-7 -22.5q-12 -22 -37 -24t-61 3t-57 1h-21q-45 -3 -77 8l-15 10q-10 8 -11.5 26t2 47.5t3.5 41.5v14q0 100 -1 288.5t-1 203.5v18v58v18v18l6 179v20q0 1 1 3t1 3v2v312v14v22v9v28 q-7 27 -4 43q0 4 1 11t1 10q11 30 53 41q3 0 9.5 1t9.5 1q9 0 27 1t26 1h18q70 4 101 -10q5 -2 12 -9l8 -10l6 -10q6 -21 18 -41.5t31 -46.5t27 -39q3 -9 8 -14l11 -15l8 -16l39 -64l10 -14q8 -8 12 -16q7 -13 8 -19q8 -17 25.5 -46t24.5 -42q9 -14 10 -16l31 -64l10 -16 q15 -33 39 -64l12 -16q31 -36 76 -129l10 -16l8 -15l10 -14q35 -52 50 -86v51v17v61v20q0 109 4 140v18q0 3 1 9.5t1 9.5q-6 53 -6 106q0 14 2 18q0 80 6 160v19v37v14v31v28q-7 27 -4 43q0 4 1 11t1 10q11 30 53 41q3 0 9 1t9 1q132 4 183 -4q5 -2 12 -9q7 -2 10 -12 q18 -32 8 -72q3 -3 3 -16zM1044 946q-8 63 3 150v63q3 71 0 139v29q0 20 -20.5 20t-20.5 -20v-14q9 -86 0 -176v-54q-4 -33 0 -133v-26q6 -91 0 -181v-16q6 -63 2 -180q-2 -6 -2 -21q2 -27 2 -77v-17q0 -12 -2 -14v-90q-1 -14 0.5 -63.5t-2.5 -63.5v-49l-19 28l-12 17 q-16 23 -46.5 85t-56.5 93l-12 20q-8 14 -28.5 48t-30.5 53l-88 139l-62 113l-110 165q-3 8 -27 41q-28 40 -82 150l-37 63q-62 109 -84 140l-18 28q-5 9 -10 11q-11 9 -23 5t-12 -20v-14q9 -86 0 -176v-54q-4 -33 0 -133v-26q6 -90 0 -180v-17q6 -63 2 -180q-2 -6 -2 -21 q2 -27 2 -77v-17q0 -12 -2 -14v-90q-1 -14 0.5 -63.5t-2.5 -63.5v-72q6 -45 8 -51q4 -4 14 -4q21 0 21 18v45q-2 10 -2 35q-2 2 -2 17q-3 27 2.5 88t-0.5 88v20q0 67 2 100v252v168q0 27 -2 41q-8 67 2 150v63q2 35 2 103q42 -64 82 -142l32 -53q34 -69 74 -133l17 -27 q93 -135 116 -180l11 -16q12 -17 29 -52t28 -51q7 -11 24 -35.5t25 -39.5q4 -13 12 -23q40 -63 47 -76l11 -16l8 -16l55 -89q69 -118 74 -129q2 -6 10 -18l21 -35q1 -3 4 -6t4 -6l4 -6q1 -1 9 -12t12 -15.5t12 -11t16 -6t16 7.5q4 4 5 9t0 13t0 13v22q-3 15 -3 35 q-2 2 -2 16q-3 27 2.5 88.5t-0.5 88.5v20q0 51 3 100v252v168q0 20 -3 41z" />
<glyph unicode="O" horiz-adv-x="1216" d="M1110 727v-22q5 -150 0 -201q-5 -69 -8 -84q-2 -8 -2 -27l-10 -63q0 -3 -1.5 -10.5t-1.5 -10.5t-1 -9t-1 -9q-56 -123 -94 -170l-14 -15q-36 -36 -72 -59l-16 -12q-14 -8 -30.5 -15.5t-28.5 -12t-33 -10.5t-30 -8t-34 -7.5t-31 -6.5h-30q-25 2 -86.5 2t-105 5t-83.5 20 l-26 10q-33 16 -47.5 23.5t-37.5 24t-38 34.5l-17 19q-28 36 -38 59q-28 55 -39 92q-22 63 -33 162q-6 33 -10 98v19q-5 147 -7 162v18q-3 81 5 151q0 3 1 9.5t1 9.5l4 55q0 3 1 9.5t1 9.5l4 39q11 98 33 161q11 40 39 93q10 23 38 59l17 18q15 18 38 34.5t37.5 24 t47.5 23.5l26 11q39 15 83.5 19.5t105 4.5t86.5 2h30q7 -1 36.5 -7.5t41.5 -9.5t35 -9.5t40.5 -14.5t33.5 -18l16 -13q36 -23 72 -59l14 -14q35 -43 47 -74q15 -25 21 -39q12 -19 19.5 -43.5t10.5 -42t7 -47t6 -43.5l4 -39v-14l4 -41q5 -51 0 -201zM815 555v31q0 3 -1 7 t-1 7q-1 19 2.5 54.5t3.5 50.5v18q0 21 -4 57v17v49v16q0 37 2 53l-4 23q0 37 -10 57q-12 80 -39 113q-4 6 -11 15t-8 10l-12 10l-12 8q-73 36 -180 25l-21 -7q-33 -8 -57 -36l-14 -15q-6 -8 -11 -18q-13 -22 -16 -29q-12 -39 -14 -67q0 -3 -1 -9.5t-1 -9.5q-7 -40 -7 -65 q-4 -62 -4 -82q0 -4 -1 -11t-1 -10q5 -11 1.5 -90t-3.5 -90q0 -4 1 -11.5t1 -11.5q0 -3 1 -9.5t1 -10.5q0 -20 4 -82q0 -26 7 -66q0 -3 1 -9t1 -9q2 -29 14 -68q2 -4 16 -28q6 -13 11 -19l14 -14q26 -29 57 -37l21 -6q107 -11 180 25l12 8l12 10q1 1 8 10t11 15 q28 34 39 112q10 20 10 58l4 22q-2 6 -2 27v12zM987 494v4q3 81 0 180v16q0 12 1.5 69t1.5 105t-3 70l-2 31v10l-4 29v2q0 3 -1 8t-1 8q-9 114 -100 215l-15 14q-9 9 -45 37l-2 2l-16 9q-14 8 -32.5 14.5t-26 8.5t-34.5 8l-28 5h-80q-111 -4 -154 -20l-20 -8h-2 q-74 -40 -148 -152v-2q-3 -4 -10 -18q-2 -1 -8 -21l-6 -20q-16 -57 -19 -103l-4 -28v-13l-4 -41v-4q0 -1 -1 -4t-1 -6q0 -18 -1 -103.5t-1 -105.5v-14q1 -12 2 -46t2 -50v-68q5 -60 8 -72q14 -90 25 -121l12 -36q47 -103 121 -142l35 -16l18 -8h2l21 -6q71 -21 135 -21 q43 0 74 8q3 0 10 1t10 1q16 4 21 4l12 5l19 4h2q67 23 124 77l17 17l12 16l12 17l3 2q54 109 63 194q2 2 2 15zM948 694v-16q5 -140 0 -178v-4q0 -13 -4 -41v-15q-9 -74 -61 -180l-11 -14l-10 -15l-14 -12q-45 -45 -111 -69q-1 0 -3 -1t-6 -2t-7 -2q-3 0 -6 -1t-6 -1h-2 q-16 -4 -19 -4l-18 -4h-2q-30 -6 -66 -6q-58 0 -125 18l-18 7l-19 8q-22 6 -30 14q-58 27 -105 123l-10 33q-14 38 -25 112l-6 70v14q0 6 -1 23.5t-1 30.5q0 71 -2 96v14q0 19 1 103.5t1 101.5v6q2 2 2 8l2 39v2q0 2 2 4v9l2 26q18 92 19 96l6 17l6 18l8 19q62 99 131 135 l19 6q53 18 141 18h72q71 -11 112 -32l13 -6q24 -18 41 -35l14 -13q79 -86 88 -190v-2l4 -18l2 -27v-10l2 -31q3 -21 3 -69t-1.5 -104.5t-1.5 -68.5z" />
<glyph unicode="P" horiz-adv-x="1198" d="M1092 1081q2 -36 2.5 -44.5t-2 -43.5t-2.5 -45l-5 -18q-8 -66 -38 -127l-11 -19q-23 -45 -61 -75l-17 -15q-12 -12 -49 -35q-4 -3 -18 -10l-37 -24q-8 -3 -14 -9l-15 -8q-32 -14 -96 -21.5t-82 -11.5h-20q-95 -4 -156 3h-14q-31 0 -47 2q3 -25 0 -50v-16q4 -78 4 -115 q0 -16 -2 -20q-1 -8 -1 -24.5t-1 -24.5q0 -15 -2 -17v-20q0 -19 -1 -57t-1 -58v-16q0 -7 4 -57.5t-2 -57.5l-5 -16q-9 -27 -38 -33q-3 0 -8.5 -1t-8.5 -1q-27 3 -57 0q-15 0 -19 -2q-9 0 -34.5 -2t-40.5 -2t-34 6.5t-30 21.5l-6 17q-4 10 -1.5 39t1.5 37v20q0 16 1.5 68 t0.5 80v18v92v21q3 46 0 96q0 3 1 9t1 9v107q-2 4 -2 20q3 106 -6 209q2 4 2 14q0 3 1 7.5t1 7.5v16q0 3 1 10.5t1 10.5q0 16 2 22q-3 8 -4 18t-1 22t-1 18v20q-1 18 1.5 67.5t-1.5 67.5v21q-1 17 4 104v43q-3 40 12 74l9 16l14 13q25 8 50 10t63.5 0t50.5 -2h20h98h21 q75 9 149 0q3 0 8.5 -1t8.5 -1q14 1 29 -0.5t24.5 -3t27 -5t25.5 -4.5q3 0 10.5 -1t10.5 -1q29 -1 62.5 -12t53.5 -21.5t58 -31.5l20 -10l19 -15l16 -14l21 -25l10 -12l12 -16q14 -22 23 -48.5t17.5 -61.5t14.5 -52q0 -3 5 -23zM954 946q1 11 2.5 31.5t2 33.5t0 31t-4.5 33 l-6 23q-3 5 -5 15t-5 15l-6 17q0 8 -6 14l-6 17q-12 30 -39 61q-53 58 -146 72q-99 17 -233 14q-27 -2 -80 -2h-19q-8 0 -72 1t-71 -5q-6 -2 -12 -8q-4 -12 -4 -15q4 -18 2.5 -88.5t-0.5 -91.5v-27q-4 -33 0 -133v-26q6 -90 0 -180v-17q6 -63 2 -180q-2 -6 -2 -21 q2 -27 2 -77v-17q0 -12 -2 -14v-90q-1 -14 0.5 -63.5t-2.5 -63.5v-72q6 -45 8 -51q4 -4 14 -4q21 0 21 18v45q-2 10 -2 35q-2 2 -2 17q-3 27 2.5 88t-0.5 88v20q0 67 2 100v209q10 -2 32 -2q27 0 33 2q9 0 37 -4q33 -2 100 -2q66 0 101 2q78 0 155 15l21 6l39 16q4 3 18 10 q41 30 78 74l12 19q27 33 35 77l4 21q0 3 1 7t1 7zM899 1118l6 -18q21 -89 15 -133q0 -15 -2 -19l-5 -16l-4 -17l-8 -28l-6 -13q-7 -15 -25 -36l-12 -15q-28 -31 -45 -41q-4 -3 -18 -10q-1 -1 -37 -16l-21 -6q-53 -15 -147 -15q-145 -5 -193 0q-28 4 -39 4q-5 0 -15 -1 t-15 -1h-31q-3 0 -6 1t-4 1v170q0 27 -2 41q-8 67 2 150v63q0 11 1.5 39.5t0.5 46.5q0 13 -2 15v14q35 -2 104 2h64q131 4 194 -2q7 -1 27 -3t28.5 -3t26 -3.5t28 -5.5t24 -8t24.5 -12q45 -23 72 -76l8 -16zM795 950l4 17q3 26 -2 45q0 3 -1 7t-1 7v6l-4 19q-6 14 -21 39 q-6 12 -12 18q-26 50 -140 63q-4 -2 -18 -2q-19 0 -51 1.5t-57 1.5t-48 -3h-14q-10 -2 -16 -8q-4 -7 -4.5 -17.5t1 -25.5t1.5 -22v-21q0 -11 1.5 -44t0.5 -52h-2q2 -4 2 -18q0 -3 -1 -8.5t-1 -8.5v-2h-2v-16q-2 -4 -2 -19q0 -16 2 -20v-37h47q12 0 32 -1t31 -1h23 q127 -4 178 10l18 8q32 16 41 43q2 3 8 19z" />
<glyph unicode="Q" horiz-adv-x="1216" d="M1110 727v-22q5 -150 0 -201q-5 -69 -8 -84q-2 -8 -2 -27l-10 -63q0 -3 -1.5 -10.5t-1.5 -10.5t-1 -9t-1 -9q-56 -123 -94 -170l-14 -15q-36 -36 -72 -59l-8 -6q49 -65 86 -121l14 -16q8 -13 25.5 -33.5t24.5 -30.5q0 -2 2 -4l6 -8l18 -27q24 -19 35 -51q6 -16 -5.5 -31 t-29.5 -20q-21 -4 -84 0h-84q-3 0 -9 1t-9 1q-39 -5 -75 7.5t-58 41.5q-10 10 -11 10l-49 72l-10 16l-33 48l-10 14l-6 6l-43 61q-127 0 -195 25l-26 10q-33 16 -47.5 23.5t-37.5 24t-38 34.5l-17 19q-28 36 -38 59q-28 55 -39 92q-22 63 -33 162q-6 33 -10 98v19 q-5 147 -7 162v18q-3 81 5 151q0 3 1 9.5t1 9.5l4 55q0 3 1 9.5t1 9.5l4 39q11 98 33 161q11 40 39 93q10 23 38 59l17 18q15 18 38 34.5t37.5 24t47.5 23.5l26 11q39 15 83.5 19.5t105 4.5t86.5 2h30q7 -1 36.5 -7.5t41.5 -9.5t35 -9.5t40.5 -14.5t33.5 -18l16 -13 q36 -23 72 -59l14 -14q35 -43 47 -74q15 -25 21 -39q12 -19 19.5 -43.5t10.5 -42t7 -47t6 -43.5l4 -39v-14l4 -41q5 -51 0 -201zM987 494v4q3 81 0 180v16q0 12 1.5 69t1.5 105t-3 70l-2 31v10l-4 29v2q0 3 -1 8t-1 8q-9 114 -100 215l-15 14q-9 9 -45 37l-2 2l-16 9 q-14 8 -32.5 14.5t-26 8.5t-34.5 8l-28 5h-80q-111 -4 -154 -20l-20 -8h-2q-74 -40 -148 -152v-2q-3 -4 -10 -18q-2 -1 -8 -21l-6 -20q-16 -57 -19 -103l-4 -28v-13l-4 -41v-4q0 -1 -1 -4t-1 -6q0 -18 -1 -103.5t-1 -105.5v-14q1 -12 2 -46t2 -50v-68q5 -60 8 -72 q14 -90 25 -121l12 -36q47 -103 121 -142l35 -16l18 -8h2l21 -6q71 -21 135 -21q14 0 60 4q6 -6 92 -123.5t98 -136.5l10 -8l8 -10l11 -11q15 -40 41 -24q14 10 -2 37l-9 12q-3 6 -10.5 14.5t-9.5 10.5l-10 10q-18 21 -47.5 62.5t-42.5 58.5q-64 102 -78 118h4l12 5l19 4h2 q67 23 124 77l17 17l24 33l3 2q54 109 63 194q2 2 2 15zM946 967l2 -31q3 -21 3 -69t-1.5 -104.5t-1.5 -68.5v-16q5 -140 0 -178v-4q0 -13 -4 -41v-15q-9 -74 -61 -180l-21 -29l-14 -12q-45 -45 -111 -69q-1 0 -3 -1t-6 -2t-7 -2q-3 0 -6 -1t-6 -1h-2q-16 -4 -19 -4l-18 -4 h-2q-30 -6 -66 -6q-58 0 -125 18l-18 7l-19 8q-22 6 -30 14q-58 27 -105 123l-10 33q-14 38 -25 112l-6 70v14q0 6 -1 23.5t-1 30.5q0 71 -2 96v14q0 19 1 103.5t1 101.5v6q2 2 2 8l2 39v2q0 2 2 4v9l2 26q18 92 19 96l6 17l6 18l8 19q62 99 131 135l19 6q53 18 141 18h72 q71 -11 112 -32l13 -6q24 -18 41 -35l14 -13q79 -86 88 -190v-2l4 -18l2 -27v-10zM819 705v18q0 21 -4 57v82q0 37 2 53l-4 23q0 37 -10 57q-12 80 -39 113q-4 6 -11 15t-8 10l-12 10l-12 8q-73 36 -180 25l-21 -7q-33 -8 -57 -36l-14 -15q-6 -8 -11 -18q-13 -22 -16 -29 q-12 -39 -14 -67q0 -3 -1 -9.5t-1 -9.5q-7 -40 -7 -65q-4 -62 -4 -82q0 -4 -1 -11t-1 -10q5 -11 1.5 -90t-3.5 -90q0 -4 1 -11.5t1 -11.5q0 -3 1 -9.5t1 -10.5q0 -20 4 -82q0 -26 7 -66q0 -3 1 -9t1 -9q2 -29 14 -68q2 -4 16 -28q6 -13 11 -19l14 -14q26 -29 57 -37l21 -6 q107 -11 180 25l12 8l12 10q1 1 8 10t11 15q28 34 39 112q10 20 10 58l4 22q-2 6 -2 27v43q0 3 -1 7t-1 7q-1 19 2.5 54.5t3.5 50.5z" />
<glyph unicode="R" horiz-adv-x="1167" d="M954 946q1 11 2.5 31.5t2 33.5t0 31t-4.5 33l-6 23q-3 5 -5 15t-5 15l-6 17q0 8 -6 14l-6 17q-12 30 -39 61q-53 58 -146 72q-99 17 -233 14q-27 -2 -80 -2h-19q-8 0 -72 1t-71 -5q-6 -2 -12 -8q-4 -12 -4 -15q4 -18 2.5 -88.5t-0.5 -91.5v-27q-4 -33 0 -133v-26 q6 -90 0 -180v-17q6 -63 2 -180q-2 -6 -2 -21q2 -27 2 -77v-17q0 -12 -2 -14v-90q-1 -14 0.5 -63.5t-2.5 -63.5v-72q6 -45 8 -51q4 -4 14 -4q21 0 21 18v45q-2 10 -2 35q-2 2 -2 17q-3 27 2.5 88t-0.5 88v20q0 67 2 100v209q10 -2 32 -2q27 0 33 2q9 0 37 -4q31 -2 80 -2 l8 -10l60 -78l24 -39l14 -14q3 -7 9 -14q18 -25 49.5 -80t52.5 -82l12 -17l35 -51l12 -16q91 -117 125 -166l11 -8l8 -11l10 -10q15 -40 41 -24q14 10 -2 37l-8 12q-3 6 -11 13.5t-10 10.5l-10 11q-19 23 -56 74.5t-59 76.5l-49 74q-3 3 -5 8t-5 8l-117 170l-8 13l-25 38 q-4 4 -26 34.5t-31 39.5q49 0 72 2q78 0 155 15l21 6l39 16q4 3 18 10q41 30 78 74l12 19q27 33 35 77l4 21q0 3 1 7t1 7zM899 1118l6 -18q21 -89 15 -133q0 -15 -2 -19l-9 -33l-8 -28l-6 -13q-7 -15 -25 -36l-12 -15q-28 -31 -45 -41q-4 -3 -18 -10q-1 -1 -37 -16l-21 -6 q-53 -15 -147 -15q-145 -5 -193 0q-28 4 -39 4q-5 0 -15 -1t-15 -1h-31q-3 0 -6 1t-4 1v170q0 27 -2 41q-8 67 2 150v63q0 11 1.5 39.5t0.5 46.5q0 13 -2 15v14q35 -2 104 2h64q131 4 194 -2q7 -1 27 -3t28.5 -3t26 -3.5t28 -5.5t24 -8t24.5 -12q45 -23 72 -76l8 -16z M410 580v-2l2 2h-2zM1124 49q6 -17 -5 -31.5t-29 -19.5q-21 -4 -84 0h-84q-3 0 -9.5 1t-9.5 1q-39 -5 -75 7.5t-58 41.5q-2 2 -4.5 5.5t-5.5 4.5l-49 72l-11 16l-32 48l-11 14l-6 6q-15 20 -44 63t-44 64l-10 14l-70 97l-10 14q-40 49 -59 92l-2 2q0 -25 -2 -31v-16 q4 -78 4 -115q0 -16 -2 -20q-1 -8 -1 -24.5t-1 -24.5q0 -15 -2 -17v-20q0 -19 -1 -57t-1 -58v-16q0 -7 4 -57.5t-2 -57.5l-5 -16q-9 -27 -38 -33q-3 0 -8.5 -1t-8.5 -1q-27 3 -57 0q-15 0 -19 -2q-9 0 -34.5 -2t-40.5 -2t-34 6.5t-30 21.5l-6 17q-4 10 -1.5 39t1.5 37v20 q0 16 1.5 68t0.5 80v18v92v21q3 46 0 96q0 3 1 9t1 9v107q-2 4 -2 20q3 106 -6 209q2 4 2 14q0 3 1 7.5t1 7.5v16q0 3 1 10.5t1 10.5q0 16 2 22q-3 8 -4 18t-1 22t-1 18v20q-1 18 1.5 67.5t-1.5 67.5v21q-1 17 4 104v43q-3 40 12 74l9 16l14 13q25 8 50 10t63.5 0t50.5 -2 h20h98h21q75 9 149 0q3 0 8.5 -1t8.5 -1q14 1 29 -0.5t24.5 -3t27 -5t25.5 -4.5q3 0 10.5 -1t10.5 -1q29 -1 62.5 -12t53.5 -21.5t58 -31.5l20 -10l19 -15l16 -14l21 -25l10 -12l12 -16q14 -22 23 -48.5t17.5 -61.5t14.5 -52q0 -3 5 -23q2 -36 2.5 -44.5t-2 -43.5t-2.5 -45 l-5 -18q-8 -66 -38 -127l-11 -19q-23 -45 -61 -75l-17 -15q-12 -12 -49 -35q-4 -3 -18 -10l-37 -24q-8 -3 -14 -9l-15 -8q-47 -17 -88 -20q0 -2 2 -4l6 -9q6 -11 14 -23t19 -27.5t17 -24.5l10 -15l90 -120l10 -15q54 -70 94 -131l15 -16q8 -13 25 -33.5t24 -30.5q0 -2 2 -4 l6 -8l19 -27q23 -18 34 -51zM414 979h-2q2 -4 2 -18q0 -3 -1 -8.5t-1 -8.5v-2h-2v-16q-2 -4 -2 -19q0 -16 2 -20v-37h47q12 0 32 -1t31 -1h23q127 -4 178 10l18 8q32 16 41 43q2 3 8 19l7 22l4 17q3 26 -2 45q0 3 -1 7t-1 7v6l-4 19q-6 14 -21 39q-6 12 -12 18 q-26 50 -140 63q-4 -2 -18 -2q-19 0 -51 1.5t-57 1.5t-48 -3h-14q-10 -2 -16 -8q-4 -7 -4.5 -17.5t1 -25.5t1.5 -22v-21q0 -11 1.5 -44t0.5 -52z" />
<glyph unicode="S" horiz-adv-x="1200" d="M434 1100q-4 -4 -8 -15q-18 -29 -16.5 -66t24.5 -61l15 -16q49 -44 135 -72l16 -4q35 -17 104.5 -40t94.5 -33l18 -9q91 -34 125 -61l19 -16l32 -37l11 -13q65 -74 71 -174q2 -6 2 -20q8 -27 8 -66q0 -4 -1 -11t-1 -11q-17 -101 -53 -174l-6 -15l-8 -14q-9 -20 -39 -59 l-16 -19q-15 -18 -38 -34.5t-37.5 -24t-47.5 -23.5l-27 -10q-40 -15 -83.5 -20t-104.5 -5t-86 -2h-31q-6 1 -31 6.5t-34 7.5t-30 8t-33 10.5t-28.5 12t-30.5 15.5l-16 12q-36 23 -72 59l-14 15q-24 30 -43 65q-3 3 -5 8.5t-5 8.5l-8 16l-6 17q-23 43 -39 147q-2 2 -2 8v2v13 q-18 80 28 96q12 6 21 6q18 3 54 3t52 3q4 -2 19 -2q42 0 73 -8q5 -1 12 -4t9 -4l12 -13l8 -14q9 -15 9 -39q0 -3 1 -7t1 -7l4 -21q10 -43 32 -71q4 -6 11 -15t8 -10l12 -10l12 -8q73 -36 181 -25l20 6q12 2 31 14l14 11q55 46 58 127v20l-5 17l-6 18q-6 6 -8 12 q-17 21 -27 27q-7 7 -16 10q-89 53 -178 76l-21 6q-19 8 -60 23.5t-72.5 29.5t-57.5 31l-14 6l-13 6q-60 38 -108 92l-15 15q-14 14 -26 35q-3 4 -10 18q-14 27 -20 55t-8 76t-3 57q0 4 1 11t1 10q3 49 25 102l10 33q10 30 28 60q9 20 39 59l17 18q15 18 38 34.5t37.5 24 t47.5 23.5l26 11q39 15 83.5 19.5t105 4.5t86.5 2h30q7 -1 36.5 -7.5t41.5 -9.5t35 -9.5t40.5 -14.5t33.5 -18l16 -13q36 -23 72 -59l14 -14q35 -43 47 -74q15 -25 21 -39q17 -29 28 -84l4 -16l9 -64q2 -4 2 -20q-1 -31 -24.5 -50.5t-55.5 -19.5q-4 2 -19 2q-14 2 -79 2 t-97 10q-14 14 -20 35q-6 13 -10 43l-5 19q-10 30 -28 53q-4 6 -11 15t-8 10l-12 10l-12 8q-73 36 -180 25l-21 -7q-33 -8 -57 -36l-15 -15q-3 -4 -10 -18zM401 1270l17 10q48 22 86 29q4 2 18 2q72 7 189 -19l16 -4q19 -4 33 -12l14 -6q103 -54 125 -140l6 -18q9 -24 6 -51 q0 -20 20.5 -20t20.5 20q3 33 -6 59l-6 19q-34 107 -135 159l-17 11q-22 12 -47 18l-16 4q-81 28 -219 17q-6 -2 -23 -2q-27 -5 -63 -19l-21 -8q-44 -22 -82 -64l-12 -18l-10 -14l-12 -19q-68 -95 -33 -205q0 -3 1 -10t1 -10q19 -84 104 -152l17 -12q43 -31 88 -49l20 -8 q37 -16 56 -27l12 -6q6 -6 12 -8q145 -53 203 -84q11 -3 16 -8q19 -8 35 -21q9 -3 16 -10q75 -62 87 -160v-20q-3 -9 -3 -23q-5 -37 -10 -53l-4 -12q-1 -5 -4 -12t-4 -9q-19 -47 -64 -92l-16 -14l-10 -9q-6 -6 -12 -8l-41 -26l-15 -6q-113 -42 -215 -19q-4 0 -10.5 1t-9.5 1 q-92 23 -146 80l-14 12q-65 74 -68 168q0 3 -1 7.5t-1 7.5q0 2 -4 14t-15 14.5t-19.5 -5t-4.5 -19.5l4 -15q3 -111 72 -192l14 -15l15 -14q55 -55 166 -80l20 -4q47 -4 107 -2.5t104 16.5l19 9q29 13 69 37l19 12q57 42 86 104l8 19q1 2 4 8.5t4 11.5l4 12l8 29q8 31 8 72 v16q0 28 -4 37l-4 16q-46 98 -88 134l-16 12q-43 27 -55 31l-19 10q-30 14 -90 38t-90 38l-12 4l-15 6l-14 6q-33 18 -51 25l-19 8q-42 16 -86 49l-16 12q-73 52 -84 121l-4 18q-22 115 37 201l10 12q26 34 63 56z" />
<glyph unicode="T" horiz-adv-x="1040" d="M975 1292q0 -7 3.5 -45t-1.5 -45q0 -2 -4 -14q-17 -48 -86 -37h-17q-14 2 -43 2h-14h-65q-2 -2 -15 -2q-38 0 -63 2q1 -6 -0.5 -16t-1.5 -13v-12q0 -79 1 -188.5t1 -118.5v-94q2 -36 -2 -111v-22q-1 -25 -1 -70t-1 -82t-4 -70v-14v-168v-74q7 -27 4 -43q0 -4 -1 -10.5 t-1 -9.5q-11 -30 -54 -41q-3 0 -9 -1t-9 -1q-12 0 -36 -1t-36 -1h-16q-6 -2 -23 -2q-22 0 -32 2q-15 0 -19 2h-14l-13 4q-15 9 -22 27.5t-7.5 33.5t1.5 42.5t2 37.5v19q-4 42 -4 188v35q-3 20 3 56.5t7 45.5v21q-3 24 -3 52.5t1.5 63t1.5 52.5v20q-2 6 -2 21q3 25 0 49v158 q-4 77 4 131v22q0 59 -6 78h-6q-11 0 -15 2h-34q-17 0 -21 -2q-82 0 -133 2h-14q-7 0 -21.5 -1t-21.5 -1h-15l-16 8q-2 2 -10 19l-6 18q-4 18 -3 88t0 88q-3 10 0 17q3 37 27 47q15 6 37 0q37 5 143 0h41q25 0 39 2h17q53 0 84 2h16h33q6 -2 24 -2q30 3 64 0h22q18 -3 39 -3 t46.5 1.5t39.5 1.5h25h55q15 -1 45.5 2t54 1.5t41.5 -11.5q17 -11 20.5 -30t1 -47t-0.5 -42q-2 -4 -2 -19zM891 1288q5 7 3.5 17.5t-7.5 11.5l-17 4q-12 0 -16 2q-54 0 -156 -4h-18q-62 -3 -127 0q-14 0 -18 2h-19h-20q-17 0 -21 -2q-66 -4 -96 -4h-19q-29 0 -45 2 q-29 0 -43 2q-14 -4 -44.5 1t-53 2.5t-29.5 -22.5q0 -20 21 -20h20h56h41h39h18h106h19q21 0 35 -2q0 -17 2 -21q3 -74 -2 -120v-54q-4 -33 0 -133v-26q6 -91 0 -181v-16q6 -63 2 -180q-2 -6 -2 -21q2 -27 2 -77v-17q0 -12 -2 -14v-90q-1 -14 0.5 -63.5t-2.5 -63.5v-72 q6 -45 8 -51q4 -4 14 -4q21 0 21 18v45q-2 10 -2 35q-2 2 -2 16q-3 27 2.5 88.5t-0.5 88.5v20q0 67 2 100v420q0 27 -2 41q-8 67 2 150v63v105v16h14h18h17h80h16q21 0 88 1.5t103 0.5q5 -3 14 6z" />
<glyph unicode="U" d="M1122 705q5 -150 0 -201q-5 -69 -8 -84q-2 -8 -2 -27l-10 -63q0 -3 -1 -10.5t-1 -10.5t-1 -9t-1 -9q-56 -123 -94 -170l-15 -15q-38 -38 -71 -59l-17 -12q-14 -8 -30.5 -15.5t-28 -12t-33 -10.5t-29.5 -8t-34 -7.5t-31 -6.5h-31q-25 2 -86 2t-104.5 5t-83.5 20l-27 10 q-33 16 -47.5 23.5t-37.5 24t-38 34.5l-16 19q-30 39 -39 59q-28 55 -39 92q-22 63 -33 162q-9 75 -12 152l-6 204q0 16 -1 50t-1 51v24q-1 15 -1 31.5t0.5 36t0.5 29.5v20q0 18 -1.5 76.5t-0.5 89.5q-2 6 -2 22l4 17q-2 6 -2 31q0 16 -2 22q1 12 -1.5 50t1.5 50l4 17 q8 23 27 33t40.5 9t45.5 -1t42 4h99q10 0 18 -8q11 -11 16 -66v-24q-4 -42 -3.5 -57t3 -97t2.5 -164q0 -7 -2.5 -49.5t-2 -50.5t2.5 -51v-21q3 -30 -1.5 -99.5t1.5 -99.5q0 -16 2 -20q0 -4 1.5 -11.5t1.5 -11.5v-20q0 -20 4 -82q0 -35 8 -66v-18q4 -37 16 -68l4.5 -9 t6.5 -10.5t6 -8.5q9 -17 10 -19l14 -14q26 -29 57 -37l21 -6q107 -11 180 25l12 8l13 10q15 20 18 25q45 53 49 170l4 22v53v17q-1 37 3.5 100t5.5 80v22q-1 31 -8 98t-7 103v10q0 15 -1 42t-1 42q-2 6 -2 29q0 5 1 15.5t1 15.5v33q3 33 -3 104t-1 109q6 44 43 53q3 3 6.5 4 t9.5 1t9 1q50 4 88 4h22q10 -1 34.5 -2t39 -3t29.5 -11.5t18 -28.5q6 -27 6.5 -55t-3 -68t-3.5 -55q0 -13 -2 -15v-71q0 -40 2 -58q2 -6 2 -30q2 -55 2 -158q0 -19 -2 -33v-57q4 -70 4 -102zM961 848v-41q0 -73 -3 -143q0 -40 -2 -58q-2 -6 -2 -20l-2 -35v-19 q-3 -99 -22 -184q0 -3 -1 -8t-1 -8l-19 -49l-6 -15q-50 -95 -106 -112l-17 -6q-37 -15 -118 -27h-80q-29 0 -74 10q-80 24 -125 66q-23 23 -41 55q-22 39 -31 80q-16 64 -28 188q-3 33 -5.5 99t-5.5 100q-4 46 -4 70l-2 40q-2 31 -2 91v202v201q0 20 -20.5 20t-20.5 -20 v-184v-183q0 -134 6 -202q3 -33 5.5 -99.5t5.5 -99.5q14 -157 22 -192q27 -108 64 -160q45 -59 116 -94q34 -15 72 -21q41 -8 84 -8h49q13 0 17 2q58 0 131 29l16 6q82 35 135 143l6 17q2 6 6 17t7 17l4 19q0 3 1 6t1 6q11 50 24 186v19q2 18 2 55q0 3 1 8.5t1 8.5l2 98 q0 133 -2 201q0 36 -2 59v20q0 8 -1 26.5t-1 27.5v18q0 17 1 59t0.5 73t-3.5 61v51q0 20 -20.5 20t-20.5 -20v-62q4 0 2 -85l-2 -85q2 -4 2 -20q0 -8 1 -27.5t1 -31.5v-15q0 -3 1 -7t1 -7q0 -19 1.5 -56t1.5 -57v-14z" />
<glyph unicode="V" horiz-adv-x="1296" d="M1186 1444l16 -4q29 -9 32 -43t-11 -58l-6 -18q-5 -15 -5 -16q-3 -5 -5 -14.5t-5 -14.5q-5 -18 -15 -47.5t-11 -32.5l-7 -22q-19 -36 -28 -84l-4 -19q-9 -36 -31 -92l-6 -18q-20 -62 -27 -89l-4 -18q-5 -23 -22 -80l-7 -20q-16 -35 -34 -95l-7 -18l-6 -18q-1 -5 -4 -12 t-4 -9l-6 -18l-6 -19q-3 -11 -6.5 -22.5t-8.5 -25.5t-8 -23l-6 -19q-3 -10 -6.5 -20.5t-7.5 -21.5t-6 -17l-4.5 -9t-4.5 -12q-13 -33 -35 -98t-34 -98l-6 -19l-31 -80q-3 -5 -6 -16.5t-6 -17.5q-10 -23 -21 -37q-14 -21 -26 -33q-16 -4 -21 -4q-4 -2 -18 -2h-19 q-17 -1 -112 4q-14 2 -39 2q-45 10 -64 76l-6 16q-3 23 -10 39l-6 18q-5 16 -13.5 48.5t-17 58t-18.5 47.5l-9 18q-18 58 -28 101l-7 18q-3 10 -8.5 32t-10.5 38t-11 31l-6 20l-25 61l-6 19q-7 31 -25 80l-6 20q-13 40 -18 58q-2 2 -8 20q-7 19 -18.5 54.5t-18.5 54.5 q-4 16 -4 18q-23 77 -31 94l-6 21l-31 104l-6 17q-14 44 -21 73q-17 40 -22 72l-6 14l-6 15q0 2 -1 4.5t-2 6.5t-2 7q-5 37 7 53q8 8 14 11l27 6q3 0 7 1t7 1q101 10 182 -4q6 -2 19 -8q17 -7 28 -29q1 -2 4 -9t4 -12l7 -20q0 -3 4 -19q0 -2 4 -18q13 -27 25.5 -79.5 t19.5 -72.5l6 -20l27 -78l8 -22q0 -3 4 -19l6 -18q2 -2 6 -17q6 -9 6 -20q3 -6 7 -17t6 -16l4 -16q0 -3 1 -10.5t1 -10.5q8 -32 26.5 -90t24.5 -80q4 -16 4 -18q6 -29 19 -51l6 -19q23 -73 24 -76q4 -12 4 -14q4 -16 4 -20q1 -3 2 -7t2 -6.5t1 -3.5l16 -73q4 27 8 34l6 19 q10 25 28.5 81t31.5 85l4 16q26 56 55 158l6 22q3 7 6 20.5t6 20.5l5 15q12 31 28.5 93t28.5 93l4 18q24 89 55 162l6 19q3 8 7.5 26.5t7.5 26.5l6 18q18 40 47 56q12 4 16 4q36 4 58 4h18q12 1 38.5 3.5t37 2.5t35.5 -2zM1087 1315l5 14q4 12 -4.5 20t-19.5 6t-15 -14 l-9 -26q-26 -67 -43 -133l-20 -60q-9 -54 -43 -143q-13 -29 -14 -39l-54 -160l-77 -239q-77 -240 -82 -265q-20 -75 -35 -118q-3 -27 -29 -21h-14h-15q-18 65 -63 201t-66 213l-77 240l-54 159q-1 10 -14 39q-34 89 -43 144l-20 59q-17 66 -43 133l-9 27q-4 12 -15 13.5 t-19.5 -6.5t-4.5 -20l5 -14q30 -73 53 -168l16 -49q8 -37 43 -127l8 -27q35 -83 56 -170l4 -16q31 -74 57 -170l6 -20l25 -74l59 -182q4 -13 2 -15q28 -86 51 -151q3 -7 6.5 -20.5t6.5 -20.5l6 -13q5 -4 11.5 -5.5t11.5 -1.5t14 0.5t12 0.5q12 -6 23 -2q38 7 51 82l6 17 l6 18q17 54 90 283l25 73l6 21q26 96 57 170l4 16q21 87 56 170l8 27q35 90 43 127l16 49q23 95 53 168z" />
<glyph unicode="W" horiz-adv-x="1871" d="M1673 1438q12 -2 39.5 -0.5t45.5 1.5t34 -10.5t18 -33.5v-19q0 -2 -4 -18q-33 -100 -49 -164l-4 -12l-6 -27l-6 -18q-7 -41 -25 -99l-6 -20l-24 -98l-5 -21l-4 -14l-4 -21q-4 -16 -4 -18q-1 -6 -8 -19q-13 -30 -24.5 -92t-22.5 -90l-4 -18l-13 -41q-3 -11 -17.5 -57.5 t-23.5 -71.5v-11q-3 -8 -7 -26.5t-7 -26.5l-6 -18q0 -3 -4 -19l-6 -18q-5 -24 -16.5 -68.5t-14.5 -54.5l-6 -18q-13 -82 -31 -129l-10 -19q-7 -14 -10 -18q-23 -23 -57.5 -31t-66 -5t-67.5 -1q-3 0 -10 1t-10 1q-27 4 -37 10l-16 12q-27 20 -35 58l-6 16q-5 20 -5 21 l-43 139q0 3 -1 9t-1 9q-7 30 -23.5 90t-23.5 89l-6 16l-12 51l-6 21l-4 16l-4 16l-19 62l-18 74q0 2 -4 18q-6 25 -29 96q-13 -30 -24.5 -90.5t-18.5 -83.5l-4 -18l-13 -41q-5 -14 -18 -59t-22 -70v-11q-3 -8 -7.5 -26.5t-7.5 -26.5l-6 -18q0 -3 -4 -19l-6 -18 q-5 -24 -16.5 -68.5t-14.5 -54.5l-6 -18q-13 -82 -31 -129l-10 -19q-7 -14 -10 -18q-23 -23 -57.5 -31t-66 -5t-67.5 -1q-3 0 -10 1t-10 1q-27 4 -37 10l-16 12q-27 20 -35 58l-6 16q-4 16 -4 21l-44 139q0 3 -1 9t-1 9q-7 29 -23.5 89.5t-23.5 89.5l-6 16l-12 51l-6 21 l-4 16l-4 16l-19 62l-18 74q0 2 -4 18q-7 33 -25 91t-25 85l-4 21l-34 149l-7 23l-16 57l-6 18q-3 13 -8 36t-10 41.5t-11 35.5l-4 12q-1 3 -2 6.5t-1.5 5.5t-0.5 3l-6 18q-27 60 -10 94q6 10 16.5 14.5t26.5 5.5t22 3h17q20 1 108 -4q17 0 21 -2q69 -11 81 -68l7 -16l4 -19 l6 -22q16 -55 33 -133q0 -1 4 -21q7 -34 25.5 -99.5t25.5 -99.5l6 -20q3 -19 12 -41l7 -18q0 -5 4 -21l6 -20q4 -16 4 -19q11 -36 20 -84q7 -16 11 -41l6 -18q4 -16 4 -19q3 -13 6.5 -36t7.5 -42t10 -36q8 29 20.5 86t20.5 86l25 73q12 44 18 89l7 18l4 14q15 55 24 111 q4 16 4 18q24 79 29 101q4 16 4 18q12 52 37 125l6 21l6 18q18 108 74 119q6 2 24 2q8 0 65 -3t65 1l18 -4q53 -14 61 -66l7 -20q3 -7 5 -18.5t5 -18.5l6 -19l6 -20l23 -96q0 -1 4 -21q7 -34 25.5 -99.5t25.5 -99.5l6 -20q3 -19 12 -41l6 -18q0 -1 5 -21l6 -20q4 -16 4 -19 q11 -36 20 -84q7 -16 11 -41l6 -18q4 -16 4 -19q3 -13 6.5 -36t7.5 -42t10 -36q8 28 20.5 86t20.5 86l25 73q12 44 18 89l6 18l5 14q15 55 24 111q4 16 4 18q24 79 29 101q4 16 4 18q8 34 27 95.5t22 70.5l6 20q9 27 16 43.5t23.5 32.5t38.5 19h19q18 2 55 2q12 0 16 -2z M1655 1266q18 62 8 77q-15 17 -25 1t-16 -46l-6 -24q-1 -4 -2 -8.5t-1.5 -7t-0.5 -3.5q-2 -2 -2 -8l-17 -61q-7 -55 -37 -144q-9 -22 -12 -38l-43 -164l-37 -135q-32 -104 -63 -234l-4 -14q-14 -56 -27 -103l-4 -22l-27 -96l-4 -21q-3 -7 -7 -20.5t-7 -20.5l-4 -14 q0 -9 -4 -21q-3 -8 -15 -8q-4 0 -16 4q-4 4 -4 10q0 3 -4 19l-14 51l-5 21l-20 75q-6 14 -10 43q-19 82 -35 131q-3 8 -5.5 18t-5.5 23t-5 21l-54 194l-26 99q-2 2 -2 6l-5 18l-16 58l-24 100l-4.5 9t-4.5 11q-30 89 -37 144q-2 0 -2 2v8l-6 21l-6 12q-1 2 -2 5l-1.5 4.5 t-0.5 2.5q-3 8 -5.5 24.5t-5 27t-11.5 19t-23 9.5q-12 1 -21 -5t-14.5 -19.5t-7.5 -20.5t-6 -23q0 -6 -4 -18l-6 -18l-7 -21q-2 -2 -2 -8v-2q-7 -60 -36 -144q-11 -25 -13 -38l-43 -164l-37 -135q-32 -104 -63 -234l-4 -14q-14 -56 -27 -103l-4 -22l-27 -96l-4 -21 q-3 -7 -7 -20.5t-7 -20.5l-4 -14q0 -9 -4 -21q-3 -8 -15 -8q-4 0 -16 4q-4 4 -4 10q0 3 -4 19l-14 51l-5 21l-20 75q-6 13 -10 43q-19 82 -35 131q-3 8 -5.5 18t-5.5 23t-5 21l-54 194l-26 99q-2 2 -2 6l-4 18l-17 58l-24 100l-4.5 9t-4.5 11q-29 84 -36 144l-17 61 q0 6 -2 10l-6 23l-6 18q0 27 -17 46q-14 16 -24 -1q-3 -6 -3 -15.5t2 -18t6 -22.5t5 -21l12 -49l13 -54q1 -3 24 -94l10 -33q46 -158 48 -166l6 -34l61 -226l23 -69l8 -35q9 -30 23.5 -90t23.5 -90q0 -8 10 -35q6 -16 6 -35l4 -14q6 -24 9 -29l6 -20q2 -21 4.5 -34.5 t9.5 -31t21 -25.5t34 -4q11 -4 21 0q19 3 29 23q5 5 8 16q3 9 7 28.5t7 27.5l6 20l8 29l5 14v4q0 6 2 8q0 3 4 23q39 143 47 180q4 16 4 18q11 44 37 121l61 226q13 76 45 174l8 26q27 82 35 127l13 54l4 16l12 43q2 -18 10 -35l6 -24l13 -54q1 -3 24 -94l10 -33 q46 -158 48 -166l6 -34l61 -226l23 -69l8 -35q9 -29 23.5 -89.5t23.5 -90.5q0 -8 10 -35q6 -16 6 -35l4 -14q6 -24 9 -29l6 -20q2 -21 4.5 -34.5t9.5 -31t21 -25.5t34 -4q10 -4 21 0q19 3 29 23q5 5 8 16q3 9 7 28.5t7 27.5l6 20l8 29l4 14v4q0 5 3 8q0 3 4 23 q39 143 47 180q4 16 4 18q11 44 37 121l61 226q13 76 45 174l8 26q27 82 35 127l12 54q5 25 9 32q0 1 4 17z" />
<glyph unicode="X" horiz-adv-x="1134" d="M1069 47q4 -16 4 -18q-3 -19 -17.5 -26.5t-43 -8.5t-33.5 -2q-3 0 -9 -1t-9 -1q-70 0 -127 8q-17 0 -21 2q-16 3 -29 12t-24 23.5t-18 27.5t-17.5 33t-15.5 29l-7 12l-8 15q-17 22 -28 59q-4 4 -9 20q-11 32 -42 90.5t-42 90.5l-6 14l-4 16q-13 -35 -43 -92 q-7 -14 -8 -18l-10 -19q-43 -104 -47 -116l-9 -17l-47 -94l-6 -10q-13 -23 -39 -49l-16 -13q-8 -8 -19 -12q-2 -1 -5.5 -2.5t-6.5 -2.5t-6 -1q-12 -4 -22 -4q-14 0 -30 -1t-36 -2.5t-31 -2.5h-20q-29 0 -53 6q-2 1 -5.5 1t-6 1t-5.5 4q-17 4 -24.5 16t-5 28t7.5 30t12 26 l8 17q5 8 14 23t16 27t11 23l12 23l31 61l8 17q14 28 45.5 80.5t44.5 79.5l11 20l8 16q23 37 52.5 106.5t37.5 84.5q3 9 8 14l14 31l-6 12q-14 23 -26 48.5t-27 60.5t-22 51q-2 3 -7 16q-5 5 -10 19q-2 2 -2 8q1 1 -123 238q-1 3 -4 7t-4 7q-13 30 -48.5 89t-49.5 93l-4 12 q-4 25 6 37q12 12 18 15q9 6 21 6q19 1 59.5 4t60.5 3.5t60 -1.5h18q48 -12 66 -39l10 -14q18 -36 21 -45l8 -15q6 -10 17.5 -33t19.5 -36l10 -21q13 -32 43.5 -90t36.5 -70q0 -2 4 -14l14 -29q10 18 24.5 53t20.5 48l6 12q8 18 19 33l6 14l18 33q5 11 18.5 35.5t20.5 40.5 l6 12q6 9 23 42t33.5 51t40.5 22q16 4 22 4q25 -3 75 -2t75 -2q3 0 10 -1t10 -1h15q25 0 32 -7q28 -28 0 -79l-8 -19l-20 -32t-21 -37l-6 -13q-7 -16 -20 -39l-7 -14q-41 -91 -110 -213q-3 -9 -8 -14q-8 -13 -11 -23l-4 -8l-4 -8q-5 -16 -8 -19q-5 -15 -6 -16l-10 -21 l-9 -20q-26 -66 -57 -119l-6 -12v-2q0 -2 2 -4l10 -19q25 -77 76 -151l8 -17l27 -57l8 -18q5 -16 29 -58q7 -14 10 -18q19 -40 90 -166l8 -16l10 -21l5 -6l6 -12l6 -19q4 -12 10 -18l8 -19q2 -4 15 -23.5t18 -29.5zM881 115q3 4 -1 13t-11 21t-9 19q-1 2 -2 5l-1.5 4.5 t-0.5 2.5q-6 13 -8 19q-16 36 -29 51l-10 18l-43 92q-40 78 -47 93q-14 27 -45 86.5t-45 87.5l-13 24q-2 3 -8 13t-8.5 14t-6 12t-5 14t-0.5 13q1 26 26 66t31 59q5 5 8 16q20 43 60 111l12 24l16 29l9 14q11 21 32.5 70t36.5 74l6 14l23 47l12 21q3 8 9.5 19t11 18.5 t8.5 17.5t3.5 15t-3.5 11q-19 15 -32 -2t-25.5 -52.5t-22.5 -47.5l-6 -12q-19 -27 -33.5 -55.5t-35.5 -75.5t-27 -60l-9 -16l-10 -16q-5 -6 -12 -19.5t-8 -15.5l-76 -150q-2 0 -2 -2q0 -1 -1 -4t-1 -4l-13 -20q-3 -14 -10 -21q-2 -2 -2 -8q0 -2 -2 -2l-31 61l-75 150 q-2 3 -6 10.5t-7.5 14t-7.5 10.5q-39 62 -67 135q-15 23 -23 41q-26 47 -43 84l-12 22q-5 27 -24.5 46.5t-35.5 -1.5q-4 -7 0 -16t13 -20.5t12 -20.5q3 -3 5 -8t5 -8l10 -21l39 -80l23 -49q23 -53 61 -117l13 -24q37 -60 82 -160l6 -16l41 -74l-183 -359l-43 -92l-10 -18 q-25 -33 -37 -66l-6 -12l-4 -12q-13 -16 -16 -25q-6 -11 -4 -24t14 -13q30 3 33 31q7 7 10 16q1 3 4 7.5t4 7.5l6 16l8 17l47 88q0 2 1 4t2 5t2 5l8 14q7 11 18.5 34t18.5 34q1 2 4 8.5t4 11.5q72 149 141 279q69 -130 141 -279q1 -4 4.5 -11l4.5 -9q7 -11 18.5 -34 t18.5 -34l8 -14q4 -12 4 -14l41 -80l8 -17l6 -14l8 -16l6 -17q6 -20 25 -29t27 7z" />
<glyph unicode="Y" horiz-adv-x="1171" d="M1096 1432q29 -29 0 -80l-9 -19q-4 -7 -19 -31.5t-21 -37.5l-7 -13q-7 -16 -20 -39l-6 -14q-19 -44 -80 -150t-70 -124q-4 -10 -8 -15q-6 -10 -10 -22l-4 -8l-4 -9q-4 -13 -9 -18q-5 -15 -6 -16l-10 -21l-8 -20l-12 -31q-7 -6 -9 -14l-6 -17l-8 -14l-6 -19l-10 -18 q-10 -30 -33 -72l-4 -88q0 -3 -1 -9t-1 -9q0 -4 -1 -11t-1 -10v-8v-303v-74q7 -27 4 -43q0 -4 -1 -10.5t-1 -9.5q-11 -30 -53 -41q-3 0 -9.5 -1t-9.5 -1q-131 -4 -182 4q-6 2 -12 8q-8 3 -11 12q-18 32 -8 72q-2 2 -2 16v23q0 27 2 41v16q0 32 -0.5 64.5t-1 53t-0.5 22.5 v180q4 62 4 82q0 4 1 10.5t1 9.5v17q-8 20 -12 41l-6 12q-17 30 -21 39q-13 25 -49 104l-6 17l-70 141l-6 12q-13 22 -34.5 66.5t-30.5 60.5q-1 3 -4.5 7t-4.5 7q-14 34 -61 119.5t-61 118.5q0 1 -1 2.5t-2 4.5t-2 5q-3 24 7 37q12 12 18 15q9 6 21 6q19 1 59.5 4t60.5 3.5 t60 -1.5h18q48 -12 66 -39l10 -14q15 -30 20 -45l9 -15q1 -4 59 -119l10 -20q9 -24 39 -82l8 -16q18 -36 21 -45l3 -5q4 -6 5 -10q4 -12 13.5 -31t13.5 -30q12 22 18 47l6 14q6 22 16 43.5t25.5 49t22.5 42.5q1 3 4 6.5t4 6.5q2 2 2 6l25 41l47 84l6 12q7 9 23 41.5t32.5 51 t40.5 22.5q16 4 23 4q25 -3 74.5 -2t74.5 -2q3 0 10.5 -1t10.5 -1h14q27 0 33 -6zM944 1288q1 4 13.5 27.5t11.5 38.5q-1 4 -3 6.5t-5.5 3t-6.5 1t-7.5 0t-6.5 -0.5q-11 -3 -14 -12q-2 -3 -10.5 -17t-12.5 -22l-12 -19q-4 -9 -19 -41t-22 -46t-20 -37.5t-25 -41.5l-12 -18 q-33 -47 -86 -147l-9 -19q-17 -36 -43 -78l-8 -16q-8 -16 -53 -94q-3 -12 -8 -17q-2 -2 -4.5 -6t-4 -6t-4.5 -2q-8 2 -14 25l-6 16q-8 12 -27 51l-8 19l-29 49l-8 16l-8 17l-8 16l-51 98l-8 17l-9 16q-1 3 -4 8t-4 6q-3 4 -7 13.5t-7 13.5l-41 84l-41 88q-4 12 -8 16l-6 19 q-5 7 -11 22t-13 25.5t-17 17.5q-12 7 -24.5 -2.5t-6.5 -21.5q35 -75 57 -109l6 -14l13 -25q6 -18 22 -49.5t19 -38.5q17 -39 34 -67q3 -9 9 -15q16 -25 40 -77t39 -78l7 -13q1 -3 4 -5t4 -5q7 -14 10 -18q9 -19 28 -55t32.5 -65.5t19.5 -57.5q0 -3 1 -7.5t1 -7.5v-61 q0 -3 1 -9.5t1 -9.5v-20q2 -4 2 -21q2 -4 2 -20q0 -17 2 -21q-8 -100 4 -204q-2 -4 -2 -21q-1 -22 -2.5 -58.5t-2.5 -67t-1 -58.5q0 -20 20.5 -20t20.5 20q0 32 1 65.5t2.5 74t2.5 65.5q0 4 1 11.5t1 10.5q-6 36 -6 101.5t-2 91.5v20v19q-2 4 -2 20q-2 14 -2 39v18 q-3 50 18 93q3 3 5.5 9t5.5 9q14 24 20 31l8 16q13 21 41 82q3 3 5 7t5 7q8 18 24 48t22 44q6 13 8 19l45 72l6 14q5 5 8 14q7 8 10 15q62 98 99 163q6 7 10 17q3 3 5 8t5 8z" />
<glyph unicode="Z" horiz-adv-x="1103" d="M1024 250l4 -21q-2 -18 -0.5 -96t-9.5 -98l-4 -12l-10 -15q-10 -10 -33 -10h-17q0 -2 -101 -1l-101 1q-15 0 -21 -2h-18q-74 -4 -99 0q-4 0 -11 -1t-11 -1q-62 0 -123 6h-20q-92 -4 -123 0q-13 0 -17 -2h-35q-23 2 -81 -2q-2 -2 -17 -2q-7 1 -27 1t-36.5 1.5t-28.5 5.5 q-8 3 -12 10q-9 6 -9 17q-2 4 -2 18q3 29 31 79.5t35 72.5q0 4 4 8q2 2 2 4l39 78q8 17 18 34.5t24.5 40.5t21.5 35l10 17q1 4 8 18l8 19l90 182q7 14 8 18q12 21 33 74q1 5 4 12t4 9q14 30 42 87.5t42 86.5l11 18q17 33 49 88q1 3 4 7t4 7q15 24 33 70l12 29l6 12 q-61 0 -184 1t-170 1h-14q-12 0 -43 -3.5t-50.5 -2t-27.5 11.5l-11 15q-4 16 -4 18q-4 16 -4 20q-4 11 -1 84t3 84q0 3 1 9.5t1 9.5q2 9 9 16q8 9 21 13.5t22 5t27 -0.5t24 -1h20q16 0 72 4t72 0h428q3 0 8 1t8 1q6 -2 29 -2h6q20 -1 58 -1t57 -1q3 0 10 -1t10 -1h14 q26 0 33 -7q28 -28 0 -79l-8 -19l-20 -32t-21 -37l-6 -13q-4 -9 -21 -39l-6 -14q-41 -91 -110 -213q-2 -7 -9 -14q-5 -9 -10 -23l-4 -8l-4 -8q-5 -16 -8 -19l-27 -53l-8 -18q-3 -3 -5 -8.5t-5 -8.5q-1 -4 -8 -18q-16 -26 -31 -56.5t-33.5 -70.5t-28.5 -60q-3 -3 -5 -8t-5 -8 l-14 -25q-2 -6 -8 -12q-9 -17 -24.5 -48t-28.5 -56t-27 -47l-17 -37l-37 -74q-3 -3 -5 -8t-5 -8h312q14 0 20 -2q28 -3 86.5 0t87.5 0l16 -7q20 -10 23 -26zM881 111h32q20 0 20 20.5t-20 20.5h-34q-39 -1 -108.5 0.5t-92.5 1.5q-17 0 -21 -2h-59q-6 -2 -20 -2h-226h-20h-60 l21 36q5 5 8 17l12 22q3 4 5.5 12t5.5 11q89 161 104 192l6 17l8 16q1 2 4.5 9.5t4.5 11.5q23 52 59 114q3 12 8 17l8 18q25 59 97 180l6 15q20 47 90 180l12 18q27 50 60 94l10 21l8 12q3 11 8 15q0 1 2 4t6.5 11t8.5 15q6 6 11 14.5t11.5 21t11.5 20.5q1 2 4 6.5t4 6.5 t3.5 6t3 5.5t1.5 5t0.5 5.5t-1 4.5t-2 4.5t-4 4.5t-5.5 4.5q-7 4 -43 4q-12 0 -34 1t-29 1q-6 -2 -25 -2q-48 -4 -65 -2q-7 0 -20.5 1t-20.5 1q-17 0 -50 1t-50 1q-4 0 -11 1t-10 1q-38 -3 -96 -3t-74 -1h-20q-8 -2 -14.5 -3t-10.5 -0.5t-11 1t-14 0.5h-20q-14 0 -23.5 -0.5 t-24 -3t-20 -9t-0.5 -16.5q4 -10 12.5 -13t25 -1.5t22.5 0.5q12 0 41.5 2t66.5 2q29 3 73 2t71 2h18q34 -4 152 -4q14 2 39 2q8 0 24.5 -1t24.5 -1q2 -2 16 -2q32 0 55 2v-6q-17 -17 -32 -43q-1 -3 -4.5 -7t-4.5 -7l-6 -15q-13 -16 -16 -26q-2 -2 -10 -19q-21 -28 -58 -92 l-10 -18q-74 -150 -94 -193l-8 -16q-83 -152 -90 -168q0 -2 -9 -19l-16 -33l-43 -90q-7 -14 -8 -18l-12 -21q-1 -4 -4.5 -11l-4.5 -9q-16 -33 -52.5 -96.5t-51.5 -96.5l-8 -12l-13 -26l-10 -19q-2 -12 -12.5 -27.5t-19.5 -25.5t-13 -24t8 -23q8 -9 20.5 -13t23 -3t29 3.5 t28.5 2.5h22h223h19q25 2 76 2q6 2 22 2q21 0 89 -1.5t104 -0.5z" />
<glyph unicode="[" horiz-adv-x="667" d="M119 -387l-6 6l-4 16q-3 3 -3 11v8v12v51q0 52 -1 212t-1 241h2q-4 66 -4 100v62q2 35 2 108h-2v324q0 57 1 151.5t1 122.5q0 17 0.5 32t1 23.5t0.5 10.5v616v9v10q3 42 31 73q1 2 8 9q30 24 105 24h10h10h13h18h31h219q3 0 9 -1t9 -1q78 6 84 -82q0 -4 1 -11t1 -11 q4 -50 -8 -82q-3 -12 -8 -17q-15 -24 -43 -30q-2 0 -14 -4q-22 -6 -43 -4h-148v-299q-3 -27 -3.5 -55t0.5 -67t1 -55l-4 -198l4 -109v-379q0 -17 1 -57.5t1 -60.5v-23q-1 -15 1.5 -58.5t-1.5 -58.5v-346h150q27 2 51 -4q12 -4 14 -4q7 -2 11.5 -4t8 -6t5 -5.5t4.5 -7.5l4 -8 q5 -5 8 -16q12 -32 8 -82q0 -4 -1 -11.5t-1 -11.5q-5 -43 -27 -65.5t-59 -18.5q-3 0 -9 -1t-9 -1h-131q-38 0 -115.5 1t-107.5 1h-15h-10q-10 0 -12 2q-8 1 -21.5 9t-17.5 10zM225 27h-2v-140v-10v-10v-10q2 -17 -1 -66.5t5 -64.5q3 -8 6 -11q10 -14 15 -16l10 -4 q18 -8 43 -7t43 -1h8h10h11q116 -4 151 -2t47 14q2 2 2 12q0 3 -2.5 7t-3.5 6q-6 6 -14 6q-18 -2 -59 -2q-35 -2 -121 -2h-11q-5 0 -24 -1t-33 0t-24 5q-5 2 -13 10q-3 4 -4 9t-1 13t-1 13v10q0 9 -1 27.5t-1 27.5v8v25v8q-4 225 1 441.5t5 236.5q0 25 2 73t2 73q0 36 -1 77 t-2.5 91t-2.5 79q0 24 -1 68t-1 67q0 131 2 197q-2 43 -2 131v221v13q1 6 -0.5 21.5t1.5 23.5t13 12q6 3 12.5 3.5t15.5 -0.5t13 -1h15h221q8 0 14 6l3.5 7t2.5 8q0 20 -20 20q-17 10 -180 2q-8 0 -25 1t-26 1h-9q-42 8 -71 -18t-19 -68v-14v-13v-352q-2 -63 -2 -184 q0 -60 2 -179.5t2 -181.5q0 -61 -2 -183t-2 -185q3 -31 3.5 -63t-0.5 -77t-1 -63v-100q0 -31 2 -45z" />
<glyph unicode="\" horiz-adv-x="933" d="M559 492l2 -5q9 -17 30 -56.5t34 -61.5q1 -6 8 -19l6 -16q5 -11 34 -62t38 -79q0 -3 3.5 -8.5t2.5 -8.5q16 -27 14 -35l23 -45q12 -18 28 -18q11 0 15 4l-17 51l-41 72l-57 127l-4 6l-8 16l-13 23l-8 16q-22 31 -49 94t-37 82q-5 5 -8 15q-45 72 -70 147l-8 17 q-23 34 -52.5 99.5t-37.5 80.5l-16 26q-18 60 -66 133l-24 54q-47 90 -82 176l-9 14q-10 13 -16 15q-6 6 -16 6q-20 0 -8 -21l16 -28q17 -56 65 -140l33 -63q22 -34 76 -150q2 -6 6 -19.5t8 -21.5l82 -168q6 -10 16 -32t13 -27l57 -117q4 -4 4 -10q2 -2 25 -49q4 -12 8 -14z M524 362q-2 4 -17 34.5t-24 45.5l-14 29q-18 30 -57 111q-13 23 -27 55l-43 90l-10 18q-14 38 -51 100.5t-48 84.5l-8 16l-41 90l-6 13q-14 33 -16 36l-6 15q-12 17 -54 108l-6 13q-16 38 -20 43q-11 14 -19 32l-6 17l-24 51l-4 18q-5 25 5 38.5t28.5 15.5t42 2t45.5 -3 t38 1q-1 0 -2 -1t-2 -1q17 0 21 -2q7 0 18 -7q25 -14 40.5 -40t29.5 -62t26 -55l6 -13l17 -36l12 -21l94 -188q11 -27 47 -90l7 -13l6 -10q5 -11 41.5 -81.5t50.5 -110.5l10 -15q10 -18 12 -22l62 -127l10 -21l43 -92l10 -18l78 -168q0 -1 4 -13q19 -48 49 -106l9 -19 l12 -16q25 -41 16 -70q-8 -26 -57 -30q-4 2 -16 2q-7 0 -33 -1t-37 0t-30 4.5t-30.5 14t-19.5 27.5l-18 37l-6 16l-93 178l-12 25l-25 47l-4 12z" />
<glyph unicode="]" horiz-adv-x="667" d="M444 27h-2q2 14 2 45v100q0 18 -1 63t-0.5 77t3.5 63q0 63 -2 185t-2 183q0 62 2 181.5t2 179.5q0 121 -2 184v352v13v14q10 42 -19 68t-71 18h-8q-9 0 -26 -1t-25 -1q-163 8 -180 -2q-21 0 -21 -20q0 -3 2.5 -8l3.5 -7q6 -6 15 -6h221h14q4 0 13 1t15.5 0.5t12.5 -3.5 q10 -4 13.5 -11.5t2.5 -24t-1 -21.5v-13q0 -28 -1.5 -105t-1.5 -116v-131q3 -99 3 -197q0 -23 -1.5 -67t-1.5 -68q-1 -29 -2.5 -79t-2.5 -91t-1 -77q0 -25 2 -73t2 -73q0 -23 5.5 -238t1.5 -440v-8v-25v-8q0 -9 -1 -27.5t-1 -27.5v-10q-5 -32 -7 -35q-9 -9 -12 -10 q-10 -4 -24 -5t-34 0t-24 1h-10q-86 0 -121 2q-41 0 -59 2q-9 0 -15 -6q-1 -2 -3.5 -6t-2.5 -7q0 -10 2 -12q12 -12 47.5 -14t151.5 2h10h10h9q11 2 43 1t43 7l10 4q3 2 14 16q4 3 6 11q8 15 5 64.5t-1 66.5v10v10v10v140zM555 -381l-6 -6q-4 -2 -17.5 -10t-21.5 -9 q-2 -2 -12 -2h-11h-14q-30 0 -107.5 -1t-115.5 -1h-131q-3 0 -9.5 1t-9.5 1q-37 -4 -59 18.5t-27 65.5q0 4 -1 11.5t-1 11.5q-4 50 8 82q2 9 9 16q1 1 5 9t5.5 10t7.5 6t14 6q3 0 15 4q24 6 51 4h149v346q-4 15 -1.5 58.5t1.5 58.5v23q0 20 1.5 60.5t1.5 57.5v379l4 109 l-4 198q0 148 -3 177v299h-147q-21 -2 -43 4q-12 4 -14 4q-28 6 -43 30q-6 6 -9 17q-12 32 -8 82q0 4 1 11t1 11q6 88 84 82q3 0 9.5 1t9.5 1h219h31h18h12h11h10q25 0 37 -0.5t32.5 -6t34.5 -17.5q8 -7 8 -9q28 -31 31 -73v-10v-9v-616q0 -2 0.5 -10.5t1 -23.5t0.5 -32 q0 -28 1 -122.5t1 -151.5v-324h-2q0 -73 2 -108v-62q0 -34 -4 -100h2q0 -81 -1 -241t-1 -212v-51v-12v-8q0 -9 -2 -11z" />
<glyph unicode="^" horiz-adv-x="1091" d="M911 868l13 6q8 3 8 13q-8 18 -27 45q-2 0 -2 2l-4 6q-2 4 -16 18l-25 27q-60 74 -106 125l-7 6l-6 8q-16 13 -39 42t-38 42q0 4 -5 9l-4 6q-3 3 -6 8t-6 8l-8 10q-3 3 -5 6q-2 4 -5 5l-23 32l-6 8q-10 17 -25 29q-21 21 -49 6q-4 0 -8 -4q-3 -5 -8 -8q-5 -6 -17 -21.5 t-20 -23.5q-1 -3 -3 -5t-3 -5q-25 -25 -45 -58l-6 -8q-7 -6 -64 -69l-8 -11q-5 -6 -35 -37.5t-41 -52.5l-8 -10q-15 -21 -35 -41l-12 -10l-23 -27l-30 -33q-10 -17 4 -28q2 -1 6.5 -3.5t7.5 -2.5q17 12 39 34l47 56q14 19 41.5 51t38.5 47l10 12q1 3 4 6.5t4 6.5 q7 8 28.5 36t37.5 41l6 9q8 11 36.5 39.5t37.5 50.5l6 8q2 4 12 14l8 4q22 0 37 -16.5t29 -39.5t29 -32q1 -3 4 -5t4 -5q1 -1 2.5 -1.5t3 -2t2.5 -4.5l6 -8q3 -1 4.5 -2.5t2 -3.5t1.5 -3q13 -21 37 -45l8 -8l25 -26q3 -4 6 -11q17 -20 51.5 -58t50.5 -58l23 -31 q4 -13 10 -17q0 -2 2 -4q0 -2 2 -2l29 -35q6 -6 14 -6zM895 762q-3 2 -12.5 6.5t-12.5 9.5q-1 1 -2.5 1.5t-3 2t-2.5 4.5q-4 5 -21.5 30.5t-31.5 39.5l-12 14q-6 9 -15 15l-26 28q-10 11 -40.5 48.5t-49.5 56.5l-15 16q-22 22 -56.5 68t-51.5 65l-58 -71l-12 -15 q-3 -3 -5 -7t-5 -7q-19 -25 -60.5 -70t-60.5 -69q-1 -3 -4 -6.5t-4 -6.5q-5 -6 -17 -20.5t-18 -20.5l-16 -18l-9 -10q-8 -10 -20.5 -28.5t-23.5 -32t-21 -19.5q-12 -4 -14 -4q-41 -8 -80 31q-5 7 -15 14q-18 15 -29.5 27t-23 30t-7.5 35.5t23 32.5l13 12q2 2 19.5 21 t25.5 30l12 15q11 11 23 32l6 7q7 9 27 32t30 37q7 7 8 10l9 9q7 8 19 25.5t19 25.5q1 3 4.5 5t4.5 5q3 4 10 14t10 13l10 10l6 8l19 21q12 12 14 16l15 14l14 15l31 39l10 12l16 16q20 25 34 39.5t38.5 26t50.5 6.5l19 -6q24 -8 45 -29l8 -10q21 -27 43 -49l14 -19l12 -18 q3 -3 7.5 -9.5t7.5 -9.5q16 -16 22 -26l25 -29q12 -16 35 -42.5t35 -41.5q23 -28 26 -33q9 -13 27.5 -33.5t25.5 -29.5l19 -23q18 -25 29 -34q9 -9 12 -15l8 -10q5 -7 37 -39q3 -1 5 -4t5 -4q35 -40 12 -72q-1 -3 -4 -5t-4 -5l-8 -10l-45 -43l-10 -8q-28 -28 -62 -31 q-1 0 -5 1t-7 1z" />
<glyph unicode="_" horiz-adv-x="876" d="M174 -2h16q32 0 66.5 0.5t57 1t24.5 0.5l324 -2q28 -4 38 -4h19q18 -2 69 2t60 -6q22 -12 26 -22t-0.5 -23.5t0.5 -40.5q-1 -16 -5.5 -27.5t-13.5 -18t-16.5 -10.5t-22.5 -5.5t-24.5 -1.5t-28.5 0.5t-28 0.5h-14q-419 -3 -543 0q-62 -7 -102 -4t-58 19q-9 9 -12 32l-4 25 q-3 22 6 53q2 7 8 13q3 9 7 10q31 17 71 8q2 2 17 2h22q27 0 41 -2zM666 -63q-57 -6 -193 -3t-199 0q-71 3 -139 0h-29q-13 0 -18 -8.5t0 -17t18 -8.5h15q65 8 301 8q12 0 14 -2h90q14 -1 63.5 0.5t63.5 -2.5h72q45 6 51 8q4 4 4 8q0 21 -18 21h-45q-10 -2 -35 -2 q-2 -2 -16 -2z" />
<glyph unicode="`" horiz-adv-x="352" d="M350 1612q1 -13 -9.5 -22t-23.5 -11h-20q-10 -2 -33 -2h-53q-21 0 -41 14.5t-29 30.5l-8 10l-67 92l-9 11l-4 8l-8 10l-6 6l-4 8q-3 1 -5 5q-2 3 -5 6l-7 10l-6 10q-4 4 -4 10q-4 4 -4 9q-10 28 19 53q7 7 10 8q3 0 6 1t6 1q29 6 115 6q16 0 22 -2q21 0 43 -22l6 -9 q6 -11 25.5 -46.5t28.5 -55.5q6 -6 8 -12l8 -19l10 -16l25 -49l6 -10q10 -17 8 -33zM252 1630q7 7 4 10q-7 17 -28.5 50t-28.5 49q-5 3 -9 14q-3 1 -4.5 2.5t-2 3t-1.5 2.5l-6 11q-6 7 -14 26.5t-17 26.5q-8 7 -20 1.5t-8 -16.5q3 -13 18.5 -32.5t20.5 -30.5l6 -10 q0 -5 6 -8q28 -51 65 -97q5 -5 19 -2z" />
<glyph unicode="a" d="M1122 739q0 -32 -4 -102v-57q2 -14 2 -33q0 -103 -2 -158q0 -25 -2 -31q-2 -18 -2 -57v-72q2 -2 2 -14q0 -15 3.5 -55t3 -68t-6.5 -55q-4 -20 -18.5 -30t-29 -11.5t-39 -2t-34.5 -1.5h-22q-38 0 -88 4q-3 1 -9 1t-9.5 1t-6.5 4q-37 9 -43 53q-5 38 1 109t3 104v33 q0 5 -1 15.5t-1 15.5q0 22 2 28q0 16 1 43t1 43v15q-11 1 -29 2.5t-32.5 2.5t-28.5 1h-131q-34 0 -100.5 1t-100.5 1q0 -8 2 -10v-199q-2 -4 -2 -20q-4 -46 -4 -64v-33q-3 -23 0 -45v-24q-5 -55 -16 -66q-8 -8 -19 -8q-17 1 -35.5 0t-40 -3t-32.5 -3q-17 0 -23 -2 q-3 0 -29 0.5t-35.5 2t-25.5 9t-24 21.5q-11 19 -12.5 41.5t2 51.5t2.5 44q2 6 2 22q0 25 2 31v16q4 38 4 170q0 15 -2 19q-4 78 -2 117v24q0 17 1 51t1 50l6 204q3 77 12 152q11 99 33 162q11 37 39 92q9 20 39 59l16 19q15 18 38 34.5t37.5 24t47.5 23.5l27 10 q39 15 83 19.5t104.5 4.5t86.5 2h31q77 -8 133 -23t100 -52l10 -9q75 -75 119 -159l8 -23q14 -53 15 -67q0 -3 1 -10.5t1 -10.5l10 -63q0 -19 2 -27q3 -15 8 -84q5 -51 0 -201zM999 514q2 68 2 201l-4 98q0 3 -1 8t-1 8q0 20 -4 56v18q-2 18 -4.5 58.5t-6 70.5t-9.5 58 q0 3 -1 6t-1 6l-4 18q-3 6 -7 17.5t-6 17.5l-6 16q-55 112 -135 146l-16 6q-61 27 -131 27q-4 2 -17 2h-49q-63 0 -84 -4q-24 -6 -72 -25q-73 -36 -114 -94q-8 -11 -15 -25t-11.5 -24.5t-10 -28.5t-7.5 -26t-7.5 -29t-6.5 -27q-20 -82 -26 -192q-3 -33 -7.5 -99.5 t-7.5 -99.5q-6 -68 -6 -203v-182q0 -31 -3 -92t-3 -92q0 -20 20.5 -20t20.5 20q0 34 3 100t3 100v203q0 59 2 90h84q4 -2 19 -2q28 -3 60.5 -4t71.5 -1t60 -1h14q42 0 60 -2q24 0 50.5 -1t58.5 -2.5t51 -2.5h166v-15q0 -19 -1.5 -56t-1.5 -56q0 -3 -1 -7.5t-1 -7.5v-14 q0 -12 -1 -31.5t-1 -27.5q0 -17 -2 -21q0 -15 1 -52.5t0.5 -64.5t-3.5 -53v-61q0 -20 20.5 -20t20.5 20v51q4 44 4 192v19q0 9 1 27t1 26v21q2 23 2 59zM954 827q4 -36 4 -57q3 -71 3 -143h-154l-156 6q-27 2 -78 2h-18q-19 1 -54.5 1t-65 1t-54.5 4q-3 0 -7 1t-7 1 q-37 3 -72 0h-27q0 24 4 70q3 33 7.5 98.5t7.5 99.5q10 101 32 189q13 59 25 80q18 32 41 55q52 52 123 70q25 6 74 6h80q74 -11 118 -29l17 -6q34 -11 58.5 -39t47.5 -72l6 -14l19 -49q0 -3 1 -8.5t1 -8.5q14 -64 18 -184v-18l4 -35q0 -15 2 -21zM735 754l99 -6 q0 9 -1.5 26.5t-1.5 26.5q0 3 -1 10t-1 10q-3 55 0 107l-4 22q0 38 -10 58q-11 78 -39 112q-3 5 -18 25l-13 10l-12 8q-73 36 -180 25l-21 -6q-31 -8 -57 -37l-14 -15q-3 -4 -10 -18q-16 -27 -17 -29q-12 -39 -14 -67q0 -3 -1 -9.5t-1 -9.5q-6 -35 -6 -65q-5 -45 -9 -176 q33 0 99.5 -1t99.5 -1h133z" />
<glyph unicode="b" horiz-adv-x="1200" d="M1096 428q2 -4 2 -20v-19q-3 -74 -31 -141l-10 -19q-19 -48 -62 -94l-14 -14q-23 -23 -47 -41l-16 -12q-15 -12 -34 -21.5t-32.5 -15.5t-40 -12.5t-35.5 -8.5t-41 -7.5t-37 -6.5h-43q-54 -4 -82 -4h-65q-42 -2 -59.5 -2t-60.5 2.5t-60 3.5h-105q-84 -18 -96 92v23 q0 18 1.5 77.5t0.5 90.5v18v92v21q3 46 0 96q0 3 1 9t1 9v107q-2 4 -2 20q3 106 -6 209q2 4 2 14q0 3 1 7.5t1 7.5v16q0 3 1 10.5t1 10.5q0 16 2 22q-3 8 -4 18t-1 22t-1 18v20q-1 18 1.5 67.5t-1.5 67.5v21q-1 17 4 104v43q-3 40 12 74l9 16l14 13q25 8 50 10t63.5 0 t50.5 -2h20h98h21q75 9 149 0q3 0 8.5 -1t8.5 -1q14 1 29 -0.5t24.5 -3t27 -5t25.5 -4.5q3 0 10.5 -1t10.5 -1q29 -1 62.5 -12t53.5 -21.5t58 -31.5l20 -10l19 -15l16 -14q57 -60 82 -145l4 -21l4 -14q0 -4 2 -6q33 -126 -6 -205l-8 -21l-6 -12q-2 -2 -2 -6q0 -1 -21 -37 q-11 -14 -14 -16q-30 -41 -74 -78l-16 -13q-26 -15 -45 -22l-15 -6l13 -6q105 -45 153 -131l13 -17q6 -8 10 -20q25 -49 31 -94q2 -6 2 -21zM975 383q10 53 -6 84q0 3 -2.5 9t-3.5 7q-14 32 -23 47l-12 25q-1 2 -10 16q-20 28 -35 43q-2 2 -4 3.5t-3 2t-2 2t-2 3.5 q-14 12 -49 34l-28 15q-12 4 -26 7t-30.5 6t-25.5 5l-17 4q-5 3 -16 5.5t-16 5.5q8 1 59 14l18 6q91 41 156 117q2 6 8 12l8 16q43 75 43 146v14q3 30 -4 74q-1 2 -2 5l-1.5 4.5t-0.5 2.5l-14 43l-8 17q-10 23 -29 45l-10 12q-56 72 -166 100l-16 4q-45 11 -103 11h-18 q-15 0 -19 -2q-16 3 -32.5 4t-36.5 1t-31 1h-21q-17 -3 -35.5 -4t-41 -1t-35.5 -1q-4 -2 -19 -2h-18q-29 -3 -36.5 -32.5t-1.5 -62t-3 -59.5v-1065q-5 -11 0.5 -20t17.5 -9h64q14 0 16 2q96 -9 183 2h18q74 0 113 2q3 0 9.5 1t10.5 1q75 11 113 29q11 3 16 8l21 13 q83 51 122 149l7 14q3 7 8 50q0 3 1 7t1 7zM295 725v522q0 3 1 8.5t1 8.5q-1 7 1 17t1 17q0 4 1 6l1 3v4h16q13 0 35 -1.5t39 -1.5t33 3q2 2 12 2q3 0 6.5 1t6.5 1q21 3 55 -3t49 -5h16q4 2 17 2q65 0 86 -4q3 0 7 -1t7 -1l12 -5q3 0 7.5 -1t7.5 -1q3 -1 6.5 -2t5 -1.5 t2.5 -0.5q4 -2 24 -9.5l28 -10.5t23 -10.5t26 -15.5t20 -17l10 -10q2 -3 12 -16t15 -21l6 -17l6 -14q20 -41 23 -80q0 -12 2 -16q6 -84 -39 -158l-9 -14q-3 -3 -6 -9.5t-6 -9.5q-58 -71 -133 -108l-16 -6q-80 -25 -158 -25h-29q-92 3 -184 0h-47zM918 502l6 -15 q0 -1 0.5 -2.5t1.5 -5t2 -6.5q14 -62 2 -119l-6 -18q0 -10 -6 -19q-3 -2 -5 -8q-14 -27 -24.5 -43.5t-29 -36t-40.5 -32.5l-12 -9l-27 -14q-14 -7 -18 -8q-54 -16 -98 -19h-17q-62 -4 -84 -4h-16q-116 -11 -187 -2q-3 0 -8 -1t-8 -1h-49v545h35q14 0 18 2q21 0 57.5 -2 t66.5 -2t58 4h54q71 0 106 -10q3 0 15 -4q33 -9 59 -23q11 -3 16 -8l17 -8l14 -10q16 -8 39 -31l12 -10l31 -39q1 -3 4 -7.5t4 -7.5q6 -6 8 -12q1 -1 4.5 -6t4.5 -8zM414 979h-2q2 -4 2 -18q0 -3 -1 -8.5t-1 -8.5v-2h-2v-16q-2 -4 -2 -19q0 -16 2 -20v-37h47q12 0 32 -1 t31 -1h23q127 -4 178 10l18 8q32 16 41 43q2 3 8 19l7 22l4 17q3 26 -2 45q0 3 -1 7t-1 7v6l-4 19q-6 14 -21 39q-6 12 -12 18q-26 50 -140 63q-4 -2 -18 -2q-19 0 -51 1.5t-57 1.5t-48 -3h-14q-10 -2 -16 -8q-4 -7 -4.5 -17.5t1 -25.5t1.5 -22v-21q0 -11 1.5 -44t0.5 -52z M801 430v4l-6 41l-4 19l-9 16l-6 14q-30 40 -108 51q-13 0 -19 3h-88q-17 1 -75.5 -0.5t-75.5 2.5q3 -21 -1 -64t-1 -67q0 -13 2 -15v-74q1 -6 -0.5 -29t2.5 -26q0 -7 6 -10q26 -12 58 -15t75.5 -0.5t60.5 1.5q15 0 19 2q30 3 53 12l21 6q39 14 65 47q4 11 10 17l8 14l9 18z " />
<glyph unicode="c" horiz-adv-x="1208" d="M1094 494q19 -21 6 -88v-13l-10 -63q0 -3 -1.5 -10.5t-1.5 -10.5t-1 -9t-1 -9q-56 -123 -94 -170l-14 -15q-36 -36 -72 -59l-16 -12q-14 -8 -30.5 -15.5t-28.5 -12t-33 -10.5t-30 -8t-34 -7.5t-31 -6.5h-30q-25 2 -86.5 2t-105 5t-83.5 20l-26 10q-33 16 -47.5 23.5 t-37.5 24t-38 34.5l-17 19q-28 36 -38 59q-28 55 -39 92q-22 63 -33 162q-6 33 -10 98v19q-5 147 -7 162v18q-3 81 5 151q0 3 1 9.5t1 9.5l4 55q0 3 1 9.5t1 9.5l4 39q11 98 33 161q11 40 39 93q10 23 38 59l17 18q15 18 38 34.5t37.5 24t47.5 23.5l26 11q39 15 83.5 19.5 t105 4.5t86.5 2h30q7 -1 36.5 -7.5t41.5 -9.5t35 -9.5t40.5 -14.5t33.5 -18l16 -13q36 -23 72 -59l14 -14q35 -43 47 -74q15 -25 21 -39q17 -29 28 -84l5 -16q1 -4 5.5 -29.5t5 -35.5t-2 -28t-10.5 -32q-3 -3 -3 -10q-51 -28 -133 -11h-14h-41h-14q-4 0 -17 -0.5t-19 -0.5 t-14.5 2.5t-13.5 7.5q-6 6 -10 16t-5.5 17.5t-4.5 21.5t-4 20l-4 19q-9 27 -29 53q-4 6 -11 15t-8 10l-12 10l-12 8q-73 36 -180 25l-21 -7q-33 -8 -57 -36l-14 -15q-6 -8 -11 -18q-13 -22 -16 -29q-12 -39 -14 -67q0 -3 -1 -9.5t-1 -9.5q-7 -40 -7 -65q-4 -62 -4 -82 q0 -4 -1 -11t-1 -10q5 -11 1.5 -90t-3.5 -90q0 -4 1 -11.5t1 -11.5q0 -3 1 -9.5t1 -10.5q0 -20 4 -82q0 -26 7 -66q0 -3 1 -9t1 -9q2 -29 14 -68q2 -4 16 -28q6 -13 11 -19l14 -14q26 -29 57 -37l21 -6q107 -11 180 25l12 8l12 10q1 1 8 10t11 15q23 29 33 71l4 21q0 3 1 7 t1 7q0 26 8 39q8 20 20 27q28 14 67 15.5t71 -3.5t71 0q25 0 31 -2q18 -7 23 -12zM983 367q0 7 1 18t1 18q0 9 -6 15q-15 9 -29 0q-6 -6 -6 -17q0 -3 -1 -8t-1 -8v-16l-4 -19q0 -3 -1 -8t-1 -8q-48 -105 -107 -152q-3 -3 -7 -5t-7 -5q-77 -47 -162 -53h-12q-6 -2 -27 -2 q-3 0 -8 -1t-8 -1t-10 1t-10 1h-19q-92 9 -164 63q-3 1 -5 4t-5 4l-10 9l-13 10q-38 44 -59 102q0 1 -4 17l-4 14q-3 13 -6 16q-22 87 -25 172v19q-6 59 -2 178v20q0 101 -2 152q0 3 1 7t1 7q6 37 6 72l1 13q1 12 5 18q0 3 1 7t1 7t1.5 8t1.5 8q6 45 18 80q0 1 4 17 q43 92 100 121q5 5 17 8q37 16 51 20l16 4q31 6 86 6h17h18h17q123 0 188 -40q3 -1 7 -4.5t7 -4.5q76 -50 95 -125l4 -16q5 -36 10 -51q4 -12 15.5 -14.5t20 5t5.5 19.5q-3 9 -7 27.5t-7 27.5l-5 19q-19 80 -122 153q-6 5 -19 11q-3 3 -16 6q-17 6 -37 11t-31.5 6.5t-38 4.5 t-33.5 4q-14 0 -18 2h-55h-19q-40 0 -98 -10q-13 -3 -16 -6q-30 -9 -62 -25q-3 -3 -16 -6q-24 -14 -45.5 -39.5t-32.5 -44t-29 -53.5l-6 -18q-17 -49 -22 -86l-4 -17q0 -4 -1.5 -10.5t-1.5 -9.5q-6 -39 -10 -109q0 -14 -2 -18q0 -23 -1 -72t-1 -74v-18q0 -140 4 -182v-19 q13 -122 25 -170l6 -18l6 -19l6 -18q27 -80 74 -127l14 -12q3 -3 9.5 -7.5t9.5 -7.5q66 -49 153 -65q3 0 9.5 -1t9.5 -1q18 -2 53 -2h16q14 2 39 2q4 2 15 2q77 3 163 57q3 3 8.5 5t8.5 5t7 5.5t7 5.5q81 74 111 157q4 16 4 21q4 16 4 18q2 2 2 13z" />
<glyph unicode="d" horiz-adv-x="1220" d="M1114 727v-22q4 -133 0 -179q-5 -69 -8 -84q-2 -8 -2 -26l-10 -64q0 -3 -1 -10t-1 -10t-1 -9.5t-1 -9.5q-55 -120 -95 -170l-14 -14q-36 -36 -72 -59l-16 -13q-16 -10 -33 -18t-40.5 -14.5t-34.5 -9.5t-42 -9.5t-36 -7.5h-52q-54 -4 -82 -4h-20q-21 -4 -112 0t-113 4 h-105q-52 -11 -74 24t-22 91v22q0 72 -1 254t-1 240v18q1 24 -1.5 94.5t1.5 94.5v20q0 3 1 9t1 9t1 9.5t1 9.5l4 55v27.5t0.5 68.5t1 89.5t0.5 99v88.5v12q-3 40 12 74l9 16l14 13q29 10 67.5 11t69 -2t68.5 1h20q24 -1 65 2t64.5 3.5t65.5 -5.5q4 -2 16 -2h17q3 0 8 -1 t8 -1q32 1 88.5 -9.5t81.5 -11.5l20 -8q27 -9 71 -34.5t58 -32.5q4 -1 6 -5q3 -4 5 -6l12 -10l14 -14q35 -43 47 -74q15 -25 21 -39q12 -19 19.5 -43.5t10.5 -42t7 -47t6 -43.5l4 -39v-14l4 -41q5 -51 0 -201zM999 788q3 44 -2 74v49q-5 53 -8 66q-14 98 -33 158l-6 16 q-11 32 -37 61l-10 15q-33 33 -72 59l-16 8q-43 26 -88 31q-3 0 -8 1t-8 1q-13 3 -78 8l-21 4q-14 0 -18 2h-100q-35 2 -107 2q-78 -4 -111 -4q-4 0 -6 -2q-8 2 -15 -3t-7 -15v-268q0 -64 -2 -95q0 -14 -2 -20q0 -19 1 -57.5t1 -59.5q2 -2 2 -16v-19q-4 -34 0 -137 q2 -4 2 -18q-7 -48 -4 -113q0 -25 2 -39v-37q-2 -27 -2 -78v-20q-2 -14 -2 -37v-20q0 -45 4 -131q0 -9 2 -11q-5 -11 0.5 -19.5t17.5 -8.5q133 0 201 2q66 4 98 4h99q3 0 9 1t9 1q12 0 16 2q90 20 172 70l13 12l12 14l12 12q22 19 37.5 47.5t22.5 50.5t16 60q0 15 2 21 q8 63 8 135v20q4 135 2 203q0 3 1 9t1 9zM956 909v-14q1 -13 4 -51t3 -58v-18q1 -33 -4.5 -97.5t-4.5 -97.5v-14q0 -96 -8 -145q0 -3 -1 -8.5t-1 -8.5q-13 -82 -61 -135l-27 -26q-61 -43 -154 -70q-3 0 -6 -1t-6 -1q-15 -3 -30.5 -3.5t-37 0.5t-30.5 1q-1 0 -199 -6h-104 q-2 63 -2 180v18q0 12 1 37t1 37v53q-4 99 0 129v19q0 18 -1.5 52t-1.5 62t3 52v16q0 6 -2.5 39t-2 39t2.5 39v18q0 20 1 57t1 56v239q26 0 88.5 3t97.5 2q49 -3 98 -3h15q3 0 8 -1t8 -1h17l30 -4h15q116 -12 165 -55l15 -12l39 -43l10 -15q18 -31 23 -45l4 -16 q20 -69 30 -160q4 -28 4 -39zM819 565v21q-6 38 6 114l-2 19v20q-5 86 -4 103v20q0 37 2 53l-4 23q0 37 -10 57l-6 41l-4 19q-49 108 -125 106q-4 2 -21 2q-25 3 -81.5 5.5t-86.5 5.5v2h-6q-2 -2 -14 -2q-36 0 -43 -9q-4 -7 -4.5 -17.5t1 -25.5t1.5 -22v-180q-4 -62 -4 -82 q0 -4 -1 -11t-1 -10q4 -11 1 -90t-3 -90v-275q1 -8 0 -25t0.5 -26.5t7.5 -13.5q6 -5 14.5 -7.5t13.5 -3t19.5 0t17.5 0.5v2l138 6h22q46 -4 85 20t60 66l9 18q6 19 10 60q10 20 10 57l4 23q-2 6 -2 26z" />
<glyph unicode="e" horiz-adv-x="1099" d="M991 246l4 -21q-2 -18 -0.5 -96t-9.5 -98l-4 -13l-10 -14q-8 -10 -26 -11.5t-47.5 2t-41.5 3.5h-14q-59 0 -184.5 -1t-176.5 -1h-45q-21 -1 -94 0.5t-94 -2.5h-21q-58 -4 -92 14q-6 6 -8 12q-3 18 -3 30t2.5 36t2.5 37v14q0 100 -1 288.5t-1 203.5v94q-2 36 2 111v22 q1 25 1 70t1 81.5t4 69.5v15v168v73q-7 27 -4 43q0 4 1 11t1 10q11 30 53 41q3 0 9.5 1t9.5 1q125 4 170 -2h407q28 -4 39 -4h19q18 -2 69 2t60 -6q17 -10 21.5 -25.5t2.5 -42.5q0 -3 -1 -11t-1 -12q-5 -11 -3 -56t1 -56v-13q-1 -10 -5 -24l-3 -14l-10 -15q-8 -10 -26 -11.5 t-47.5 2t-41.5 3.5h-14q-75 0 -226 -1t-198 -1q0 -16 1 -35l1 -18v-180q-2 -10 -2 -29h364q28 -4 39 -4h43q20 -3 35 -0.5t33.5 1.5t32.5 -9q21 -15 18 -45v-15l-6 -67v-23q-2 -14 -2 -41v-20q3 -29 -10 -43.5t-34.5 -15t-45.5 -1t-43 -0.5h-25q-76 0 -220 -1t-185 -1v-18 v-185v-122h370q35 -5 39 -5h19q18 -2 69 2t60 -6q19 -9 22 -26zM864 121q12 5 10 19t-14 16q-33 4 -91 2.5t-91 1.5h-19q-84 4 -127 -2h-110q-12 0 -40 -2t-48.5 -1t-38.5 7v31v139q0 12 -2 16v98q3 28 1 83t1 83v111h78q34 1 97.5 -0.5t82.5 -1.5h149q11 0 46 -1.5t59 0 t49 7.5q7 1 8.5 12.5t-4.5 18.5q-6 6 -14 6q-15 0 -66 -1.5t-78 -0.5h-149q-121 0 -180 2h-78v330q0 14 2 18q0 70 -2 109v69h59q19 0 83 1.5t98 0.5h59q14 0 18 -2q25 4 91.5 0.5t91.5 -2.5q4 2 20 2q36 4 55 4q20 0 20 20.5t-20 20.5q-19 0 -55 -4h-18q-24 -4 -92.5 -1.5 t-92.5 1.5q-3 0 -9 1t-9 1h-62q-31 1 -89 -0.5t-76 -1.5h-84q-11 5 -20 -0.5t-9 -17.5v-70q4 -78 4 -108v-19q-8 -62 -4 -184v-43q0 -25 -2 -35v-18q-1 -27 0.5 -75.5t1.5 -64.5v-561q0 -11 10 -18q22 -4 89 -1.5t89 1.5h82q58 7 140 4q4 0 10.5 -1t9.5 -1q15 0 43.5 -2 t46 -3t43 0.5t47.5 6.5z" />
<glyph unicode="f" horiz-adv-x="1097" d="M412 606v-20q0 -26 -4 -80v-21q0 -21 4 -67v-23q3 -81 -4 -139q0 -4 -1 -10.5t-1 -9.5q0 -22 4 -62t4 -72.5t-8 -60.5q-2 -7 -9 -14q-25 -38 -82 -29h-12l-55 -4h-21q-58 -4 -92 14q-6 6 -8 12q-3 18 -3 30t2.5 36t2.5 37v14q0 100 -1 288.5t-1 203.5v94q-2 36 2 111v22 q1 25 1 70t1 81.5t4 69.5v15v125v43q2 4 2 20q0 17 -2 23q0 6 -1 27.5t0 32.5t3.5 27.5t11 27t21.5 16.5l16 4q3 0 9.5 1t9.5 1q125 4 170 -2h407q28 -4 39 -4h19q18 -2 69 2t60 -6q17 -10 21.5 -25.5t2.5 -42.5q0 -3 -1 -11t-1 -12q-5 -11 -3 -56t1 -56v-13q-1 -10 -5 -24 l-3 -14l-10 -15q-8 -10 -26 -11.5t-47.5 2t-41.5 3.5h-14q-75 0 -226 -1t-198 -1q0 -16 1 -35l1 -18v-180q-2 -10 -2 -29h364q28 -4 39 -4h43q20 -3 35 -0.5t33.5 1.5t32.5 -9q21 -15 18 -45v-15l-6 -67v-23q-2 -14 -2 -41v-20q3 -29 -10 -43.5t-34.5 -15t-45.5 -1t-43 -0.5 h-25q-51 0 -158.5 -1t-152.5 -1h-21h-73zM254 696l-2 -577q1 -12 10 -17t18.5 -1t12.5 16v26l2 189q0 12 -2 16v98q3 28 1 83t1 83v111h78q34 1 97.5 -0.5t82.5 -1.5h149q11 0 46 -1.5t59 0t49 7.5q7 1 8.5 12.5t-4.5 18.5q-6 6 -14 6q-15 0 -66 -1.5t-78 -0.5h-149 q-121 0 -180 2h-78v330q0 14 2 18q0 70 -2 109v69h59q19 0 83 1.5t98 0.5h59q14 0 18 -2q25 4 91.5 0.5t91.5 -2.5q4 2 20 2q36 4 55 4q20 0 20 20.5t-20 20.5q-19 0 -55 -4h-18q-24 -4 -92.5 -1.5t-92.5 1.5q-3 0 -9 1t-9 1h-62q-31 1 -89 -0.5t-76 -1.5h-84 q-11 5 -20 -0.5t-9 -17.5v-70q4 -78 4 -108v-19q-8 -62 -4 -184v-43q0 -25 -2 -35v-18q-1 -27 0.5 -75.5t1.5 -64.5z" />
<glyph unicode="g" horiz-adv-x="1214" d="M1106 629q0 -3 -1 -10.5t-1 -10.5q-5 -13 -2 -55t2 -55q-2 -2 -2 -17q0 -3 1 -8t1 -8v-21q0 -10 -4 -38v-13l-10 -63q0 -3 -1.5 -10.5t-1.5 -10.5q-8 -47 -53 -123l-10 -18q-23 -37 -33 -47l-14 -15q-36 -36 -72 -59l-16 -12q-14 -8 -30.5 -15.5t-28.5 -12t-33 -10.5 t-30 -8t-34 -7.5t-31 -6.5h-30q-25 2 -86.5 2t-105 5t-83.5 20l-26 10q-33 16 -47.5 23.5t-37.5 24t-38 34.5l-17 19q-28 36 -38 59q-28 55 -39 92q-22 63 -33 162q-6 33 -10 98v19q-5 147 -7 162v18q-3 81 5 151q0 3 1 9.5t1 9.5l4 55q0 3 1 9.5t1 9.5l4 39q11 98 33 161 q11 40 39 93q10 23 38 59l17 18q15 18 38 34.5t37.5 24t47.5 23.5l26 11q39 15 83.5 19.5t105 4.5t86.5 2h30q7 -1 36.5 -7.5t41.5 -9.5t35 -9.5t40.5 -14.5t33.5 -18l16 -13q36 -23 72 -59l14 -14q35 -43 47 -74q15 -25 21 -39q17 -29 28 -84l5 -16q9 -35 12 -68v-14 q-2 -31 -22.5 -46t-42 -16t-57 0t-48.5 0h-19q-3 0 -10 -1t-10 -1h-10h-19q-2 -2 -16 -2q-22 4 -29 11q-9 9 -12 22q-9 23 -12 53l-4 19q-9 27 -29 53q-4 6 -11 15t-8 10l-12 10l-12 8q-73 36 -180 25l-21 -7q-33 -8 -57 -36l-14 -15q-6 -8 -11 -18q-13 -22 -16 -29 q-12 -39 -14 -67q0 -3 -1 -9.5t-1 -9.5q-7 -40 -7 -65q-4 -62 -4 -82q0 -4 -1 -11t-1 -10q5 -11 1.5 -90t-3.5 -90q0 -4 1 -11.5t1 -11.5q0 -3 1 -9.5t1 -10.5q0 -20 4 -82q0 -26 7 -66q0 -3 1 -9t1 -9q2 -29 14 -68q2 -4 16 -28q6 -13 11 -19l14 -14q26 -29 57 -37l21 -6 q107 -11 180 25l12 8l12 10l9 12l10 13q12 14 20.5 30.5t13.5 38t7.5 35t5.5 41.5t4 37h-121h-20q-15 0 -19 2q-3 0 -8 1t-8 1l-16 6q-29 12 -29 27q-1 19 0 57.5t0 58.5q0 15 -2 19v20q-9 44 25.5 69t78.5 17q17 0 23 -2q84 0 125 -2q6 -2 20 -2q76 -5 101 0h20h14 q15 0 19 -2h41q2 0 14 -4q19 -14 23 -24q7 -16 10 -39q2 -4 2 -19q3 -30 -2 -61zM985 403q3 22 3.5 64t-0.5 99.5t-1 66.5q3 6 0 14q0 7 -8 15q-9 6 -29 6h-35q-13 0 -39 -1t-38 -1q-14 0 -40 -1t-38 -1h-21h-16q-4 2 -18 2q-11 4 -20 -6t-7 -21q0 -14 29 -14h14q12 0 14 -2 h17q12 0 36 1t37 1t36.5 1t35.5 1h41h8v-2v-17q1 -3 -0.5 -9.5t-1.5 -8.5v-19v-16v-16q9 -65 -2 -170l-4 -19q0 -3 -1 -8t-1 -8q-48 -105 -107 -152l-14 -10q-77 -47 -162 -53h-12q-6 -2 -27 -2q-3 0 -8 -1t-8 -1t-10 1t-10 1h-19q-92 9 -164 63l-20 17l-13 10 q-38 44 -59 102q0 1 -4 17l-4 14l-6 16q-22 87 -25 172v19q-6 59 -2 178v20q0 101 -2 152q0 3 1 7t1 7q6 37 6 72l1 13q1 12 5 18q0 3 1 7t1 7t1.5 8t1.5 8q6 45 18 80q0 1 4 17q43 92 100 121q5 5 17 8q37 16 51 20l16 4q31 6 86 6h52q123 0 188 -40q3 -1 7 -4.5t7 -4.5 q76 -50 95 -125l4 -16q5 -36 10 -51q4 -12 15.5 -14.5t20 5t5.5 19.5q-3 9 -7 27.5t-7 27.5l-5 19q-19 80 -122 153q-6 5 -19 11l-16 6q-17 6 -37 11t-31.5 6.5t-38 4.5t-33.5 4q-14 0 -18 2h-74q-40 0 -98 -10l-16 -6q-30 -9 -62 -25l-16 -6q-24 -14 -45.5 -39.5t-32.5 -44 t-29 -53.5l-6 -18q-17 -49 -22 -86l-4 -17q0 -4 -1.5 -10.5t-1.5 -9.5q-6 -39 -10 -109q0 -14 -2 -18q0 -23 -1 -72t-1 -74v-18q0 -140 4 -182v-19q13 -122 25 -170l18 -55q27 -80 74 -127l14 -12l19 -15q66 -49 153 -65q3 0 9.5 -1t9.5 -1q18 -2 53 -2h16q14 2 39 2 q4 2 15 2q77 3 163 57l17 10l14 11q81 74 111 157q4 16 4 21q4 16 4 18q2 2 2 13v18q2 4 2 18z" />
<glyph unicode="h" horiz-adv-x="1222" d="M1100 1327v-22q0 -27 -2 -41v-17q0 -32 0.5 -66t1 -56.5t0.5 -24.5v-180q-4 -62 -4 -82q0 -4 -1 -11t-1 -10q4 -11 1 -90t-3 -90v-440q-5 -35 -5 -39v-19q-2 -18 2 -69t-6 -60q-12 -22 -37 -24t-61 3t-57 1h-21q-46 -3 -78 8l-14 10q-10 8 -11.5 26t2 47.5t3.5 41.5v14 q0 70 -1 220.5t-1 197.5q-258 4 -381 4q-12 0 -14 2v-364q-4 -28 -4 -39v-19q-2 -18 1.5 -69t-6.5 -60q-12 -22 -37 -24t-61 3t-57 1h-21q-45 -3 -77 8l-15 10q-10 8 -11.5 26t2 47.5t3.5 41.5v14q0 100 -1 288.5t-1 203.5v94q-1 30 4 178q0 3 1 9.5t1 9.5v20q0 6 2 8v312 v73q-7 27 -4 43q0 4 1 11t1 10q11 30 53 41q3 0 9.5 1t9.5 1q131 4 182 -4q5 -2 12 -9q8 -3 11 -12q18 -32 8 -72q2 -2 2 -16v-22q0 -27 -2 -41v-17q0 -32 0.5 -66t1 -56.5t0.5 -24.5v-180q-4 -54 -4 -74h10q125 0 383 -4q0 12 1 30t1 29q0 3 1 9.5t1 9.5v20q0 6 2 8v312v73 q-7 27 -4 43q0 4 1 11t1 10q11 30 53 41q3 0 9.5 1t9.5 1q131 4 182 -4q5 -2 12 -9q8 -3 11 -12q18 -32 8 -72q2 -2 2 -16zM979 291v18q0 57 -4 74v207q0 24 1.5 68.5t1.5 80.5t-3 68v307q3 14 3.5 27.5t-0.5 32.5t-1 28q0 3 -1 7.5t-1 7.5v131q0 8 -6 14t-16 5t-15 -7 q-1 -2 -2 -5l-1.5 -4.5t-0.5 -2.5q-4 -114 -4 -172q0 -13 2 -15q0 -16 1 -42.5t1 -39.5v-276q-1 -8 1.5 -22t2.5 -24t-6 -16q-10 -13 -53 -8h-21q-49 0 -74 2h-86q-132 -4 -198 10h-21q-60 -3 -119 0h-34q-15 0 -21 -2q-3 0 -9 -1t-9 -1v168q0 27 -2 41q-8 67 2 150v63 q3 72 0 140v28q0 20 -20.5 20t-20.5 -20v-14q9 -86 0 -176v-54q-4 -33 0 -133v-26q6 -90 0 -180v-17q6 -63 2 -180q-2 -6 -2 -21q2 -27 2 -77v-17q0 -12 -2 -14v-90q-1 -14 0.5 -63.5t-2.5 -63.5v-72q6 -45 8 -51q4 -4 14 -4q21 0 21 18v45q-2 10 -2 35q-2 2 -2 17 q-3 27 2.5 88t-0.5 88v20q0 67 2 100v211q3 0 9 1t9 1t9.5 1.5t9.5 1.5h34q19 -3 119 -3q4 0 11 1.5t10 1.5q129 -14 174 -9q4 -2 18 -2h103q27 -3 55 0h16q8 -1 24 1.5t27 1.5t17 -9q7 -12 7 -27.5t-3 -34.5t-2 -30v-53q-2 -39 -2 -115v-16q0 -23 2 -37v-275 q0 -20 20.5 -20t20.5 20v25q3 29 2 84t2 82z" />
<glyph unicode="i" horiz-adv-x="542" d="M412 362v-151v-14q-4 -28 -4 -39v-19q-2 -18 1.5 -69t-6.5 -60q-12 -22 -37 -24t-61 3t-57 1h-21q-45 -3 -77 8q-3 3 -7.5 5t-7.5 5q-10 8 -11.5 26t2 47.5t3.5 41.5v14q0 100 -1 288.5t-1 203.5v18v58v18q-1 30 4 178q0 3 1 9.5t1 9.5v20q0 6 2 8v312v14v31v28 q-7 27 -4 43q0 4 1 11t1 10q11 30 53 41q3 0 9.5 1t9.5 1q131 4 182 -4q5 -2 12 -9q8 -3 11 -12q18 -32 8 -72q2 -2 2 -16v-22q0 -27 -2 -41v-17q0 -32 0.5 -66t1 -56.5t0.5 -24.5v-180q-4 -62 -4 -82q0 -4 -1 -11t-1 -10q4 -11 1 -90t-3 -90v-275zM287 489v252v168 q0 27 -2 41q-8 67 2 150v63q3 72 0 140v28q0 20 -20.5 20t-20.5 -20v-14q9 -86 0 -176v-54q-4 -33 0 -133v-26q6 -90 0 -180v-17q6 -63 2 -180q-2 -6 -2 -21q2 -27 2 -77v-17q0 -12 -2 -14v-90q-1 -14 0.5 -63.5t-2.5 -63.5v-72q6 -45 8 -51q4 -4 14 -4q21 0 21 18v45 q-2 10 -2 35q-2 2 -2 17q-3 27 2.5 88t-0.5 88v20q0 67 2 100z" />
<glyph unicode="j" horiz-adv-x="839" d="M717 1327v-22q0 -27 -2 -41v-17q0 -32 0.5 -66t1 -56.5t0.5 -24.5v-180q-4 -62 -4 -82q0 -4 -1 -11t-1 -10q5 -11 1.5 -90t-3.5 -90v-283q2 -52 -17 -135l-6 -20q-13 -34 -24 -52q-2 -7 -11 -16l-24 -31l-15 -16q-98 -84 -196 -92h-21q-46 -4 -63 -4q-6 -2 -27 -2 q-10 1 -46.5 4t-53.5 3.5t-47 -1.5q-4 0 -13.5 2t-13.5 2l-18 8l-17 10l-12 15q-8 8 -12 16q-4 10 -5.5 21t-0.5 19.5t0 20.5q-3 15 -3 33q0 64 5 80q9 17 10 19l12 12q6 4 37 16q30 6 103.5 3.5t101.5 2.5q10 0 24 7l23 10l14 12l10 12q12 23 15.5 50t3.5 62t2 52v246 q-1 30 4 178q0 3 1 9.5t1 9.5v20q0 6 2 8v281v14q1 19 -3 77t1 77q3 9 10 16q9 12 43 25q3 0 9.5 1t9.5 1q131 4 182 -4q5 -2 12 -9q8 -3 11 -12q18 -32 8 -72q2 -2 2 -16zM592 391v101q2 39 2 114v21q-4 46 -4 71v35q4 152 0 203q0 5 -1 16.5t-1 16.5q-2 4 -2 20 q0 73 6 141v201q0 20 -20.5 20t-20.5 -20v-211q-6 -68 -6 -137q2 -4 2 -18q0 -5 1 -14.5t1 -14.5t1 -14.5t1 -14.5q0 -100 -2 -149v-35q0 -32 4 -102v-19q0 -20 -1 -55t-1 -55v-21q0 -40 -2 -63q0 -3 -1 -7.5t-1 -7.5q0 -7 -1 -25.5t-1.5 -28.5t-2 -25t-4 -27.5t-6.5 -24.5 l-8 -18q-19 -45 -63 -69.5t-94 -22.5q-3 0 -10.5 -1t-10.5 -1q-59 4 -98 -3h-27q-3 0 -6 1.5t-6 1.5q-68 16 -74 -17q0 -27 53 -27h41q32 4 92 3.5t89 3.5l20 4l19 6q8 5 34 16l17 13q28 22 45 47q7 7 8 10q18 23 27 54t8.5 59t-0.5 59q4 4 4 10z" />
<glyph unicode="k" horiz-adv-x="1253" d="M723 739q-6 -6 -6 -10q-6 -15 0 -31q2 -6 8 -12l63 -88q2 -4 9 -12q0 -2 2 -4l6 -9q5 -9 49 -75l10 -15l90 -121l11 -14q54 -70 94 -131l14 -16q8 -13 25 -33.5t24 -30.5q0 -2 2 -4l6 -8l19 -27q24 -19 35 -51q6 -16 -5.5 -31t-29.5 -20q-21 -4 -84 0h-84q-3 0 -9 1t-9 1 q-39 -5 -75.5 7.5t-58.5 41.5q-2 2 -4.5 5.5t-5.5 4.5l-49 72l-10 16l-33 48l-10 14l-6 6q-16 20 -44.5 63.5t-43.5 63.5l-11 14l-69 97l-11 14q-40 49 -59 92l-12 14q-5 8 -15.5 21.5t-19 25.5t-14.5 23v-444q-4 -28 -4 -39v-19q-2 -18 1.5 -69t-6.5 -60q-12 -22 -37 -24 t-61 3t-57 1h-21q-45 -3 -77 8l-15 10q-10 8 -11.5 26t2 47.5t3.5 41.5v14q0 100 -1 288.5t-1 203.5v94q-1 30 4 178q0 3 1 9.5t1 9.5v20q0 6 2 8v312v73q-7 27 -4 43q0 4 1 11t1 10q11 30 53 41q3 0 9.5 1t9.5 1q131 4 182 -4q5 -2 12 -9q8 -3 11 -12q18 -32 8 -72 q2 -2 2 -16v-22q0 -27 -2 -41v-17q0 -32 0.5 -66t1 -56.5t0.5 -24.5v-180q-4 -62 -4 -82q0 -4 -1 -11t-1 -10v-29q3 3 7.5 10.5t6.5 10.5l8 12l281 404l10 14l33 47l10 17l41 59l8 10q42 60 88 72h215q4 0 13 1.5t13 1.5t10.5 -0.5t11.5 -2.5t10 -6q17 -17 8 -45 q0 -3 -2.5 -8l-3.5 -7l-8 -10l-13 -18l-26 -39q-11 -11 -13 -17q-7 -10 -24 -30t-25 -33l-14 -17l-10 -14l-9 -16l-32 -47l-13 -15l-34 -41l-11 -12q-13 -16 -34 -45.5t-27 -38.5l-10 -16l-52 -78q-3 -10 -10 -17q-8 -12 -44.5 -58.5t-49.5 -76.5zM588 698l-10 17 q-7 12 0 26t20.5 30t17.5 26q8 7 9 12q31 39 45 63l22 39q4 11 8 15q10 12 30 36.5t32 39t27 36t26 41.5l12 15l35 45l12 16l11 14q5 5 10 15q14 17 53 71.5t66 81.5q6 3 14 11l12 14q8 17 -9 27t-27 -7l-11 -12q-32 -27 -75.5 -89.5t-57.5 -78.5l-10 -12l-8 -10l-11 -13 q-22 -32 -34 -43l-13 -16q-16 -25 -35.5 -52t-45.5 -59.5t-39 -50.5l-7 -12q-25 -45 -32 -53l-9 -15l-8 -12q-7 -10 -23 -37.5t-29.5 -44t-31.5 -27.5q-29 -19 -102 -6h-21q-20 0 -57.5 1t-56.5 1v168q0 27 -2 41q-8 67 2 150v63q3 72 0 140v28q0 20 -20.5 20t-20.5 -20v-14 q9 -86 0 -176v-54q-4 -33 0 -133v-26q6 -90 0 -180v-17q6 -63 2 -180q-2 -6 -2 -21q2 -27 2 -77v-17q0 -12 -2 -14v-90q-1 -14 0.5 -63.5t-2.5 -63.5v-37q0 -8 -1 -27.5t-0.5 -33t5.5 -27.5q5 -7 14 -5t14 9q13 22 9 74v18q-2 2 -2 17q-3 27 2.5 88t-0.5 88v20q0 67 2 100 v211q19 0 80 -1.5t94 -0.5h20q18 0 54 4q7 3 10 -12l10 -14l20 -29l23 -37l25 -39l10 -14q3 -9 8 -14q18 -25 49.5 -80t52.5 -82l13 -16l35 -52l12 -16q91 -117 125 -166l10 -8l8 -10l10 -11q15 -40 41 -24q14 10 -2 37l-8 12q-3 6 -10.5 14.5t-9.5 10.5l-11 10 q-19 23 -56 74.5t-58 76.5l-49 74q-3 3 -5.5 8t-5.5 8q-21 30 -58 87.5t-54 82.5l-8 13l-25 39q-17 29 -23 37z" />
<glyph unicode="l" horiz-adv-x="868" d="M805 168v-18q4 -51 -2 -76v-13q0 -31 -16.5 -50t-45.5 -15h-16q-7 0 -18 1t-15 1q-18 0 -24 -2h-230q-21 -1 -94 0.5t-94 -2.5h-21q-58 -4 -92 14q-6 6 -8 12q-2 2 -2 15q-2 48 -2 68t2.5 68t3.5 67v14q0 90 -1 228.5t-1 148.5v94q-2 36 2 111v22q1 25 1 70t1 81.5 t4 69.5v15v168v73q-7 27 -4 43q0 4 1 11t1 10q11 30 53 41q3 0 9.5 1t9.5 1q13 0 36 1t36 1h16q6 2 22 2q23 0 33 -2q15 0 19 -2h14l12 -4q15 -9 22 -28t7.5 -33.5t-1 -43t-1.5 -37.5v-18q4 -42 4 -189v-18q0 -11 1 -34.5t1 -35.5v-20q-3 -28 -6 -79.5t-6 -78.5v-80 q2 -6 2 -20q-1 -24 1.5 -94.5t-1.5 -94.5q0 -3 -1 -9t-1 -9q0 -9 -1 -27.5t-1 -27.5v-178h346q28 4 38 -14.5t5 -45.5v-18q0 -25 2 -35zM696 131q10 1 10 11.5t-6 19.5q-3 6 -14 6q-18 2 -57 2q-3 0 -10 -1t-11 -1q-16 0 -49 -1t-49 -1h-217v196q4 52 0 209v244 q11 121 4 199q0 16 -2 22q0 9 -2.5 55.5t-2 55.5t2.5 55v154q0 14 -21 14q-18 0 -18 -14q0 -15 -2 -19v-129q0 -16 -2 -20v-41q0 -6 -1 -21.5t-0.5 -27.5t3.5 -23v-55q2 -4 2 -16q0 -103 -2 -158v-43q-4 -62 -4 -94v-19q4 -94 4 -139v-150q-2 -14 -2 -36q0 -3 -1 -10t-1 -11 q0 -81 4 -104v-97q0 -11 10 -18h113q18 -2 53 -2h12q13 1 59.5 -0.5t59.5 2.5h16q90 0 121 6z" />
<glyph unicode="m" horiz-adv-x="1503" d="M1374 137v-14q0 -12 3.5 -41.5t2 -47.5t-11.5 -26l-14 -10q-3 -1 -10 -2.5t-14.5 -3t-14.5 -2.5h-12l-158 -6l-17 4q-19 3 -28 22q-4 12 -4 15q-4 16 0 79v19q0 57 -4 74v440q0 49 -2 74v14q-1 17 4 113q-13 -20 -38 -70t-44 -76q-6 -6 -8 -12q-6 -6 -9 -14l-6 -15 q-3 -9 -8 -14l-12 -29l-6 -12q-46 -52 -62 -98l-6 -15q-8 -19 -26 -49.5t-23 -40.5q-5 -5 -8 -14q-8 -20 -25 -33l-16 -8q-3 -3 -5.5 -4t-6 -1t-5.5 -1q-68 -17 -92 24q-7 12 -20.5 36.5t-20.5 35.5q-10 10 -12 14q-4 2 -8 15q-12 33 -60 102l-10 14q-46 95 -76 134l-8 12 q-14 21 -33.5 61.5t-29.5 57.5q5 -95 4 -113v-27q-2 -2 -2 -12q3 -70 0 -141v-348q-4 -32 -4 -50v-12q-9 -27 -4.5 -55t-2.5 -56t-32 -38q-3 0 -7.5 -1t-7.5 -1q-11 0 -49 5.5t-57 0.5h-21q-45 -3 -77 8l-15 10q-10 8 -11.5 26t2 47.5t3.5 41.5v14q0 100 -1 288.5t-1 203.5 v112l6 179v20q0 1 1 3t1 3v2v312v55q0 9 -1.5 26.5t-2 28t3 24.5t12.5 23q2 4 17 15l22 6q3 0 9.5 1t9.5 1q9 0 27 1t26 1h18q70 4 101 -10q5 -2 12 -9l8 -10l6 -10l9 -17l10 -16q14 -25 42.5 -70t33.5 -53l8 -16l12 -23l6 -10l19 -29q3 -9 8 -14l47 -100l6 -17 q12 -36 29 -57q1 -1 20 -33l9 -16q6 -12 20 -44.5t26 -54.5t27 -40q0 -3 4 -15q0 -3 1 -9t1 -9l7 18l8 17q16 26 41 77.5t41 77.5l4 6q1 3 2.5 5.5t3 5.5t2.5 4q3 7 11 19.5t11 19.5l13 22q3 3 5 8.5t5 8.5q19 52 55 104q8 9 11 16q22 24 53 84q6 7 10 17q14 27 43 75.5 t39 67.5l8 10q8 7 12 9q31 14 101 10h18q8 0 26 -1t27 -1q3 0 9.5 -1t9.5 -1q42 -11 53 -41q0 -3 1 -10t1 -11q3 -16 -4 -43v-73v-312v-2q0 -4 2 -6v-20l6 -179v-112q0 -15 -1 -203.5t-1 -288.5zM1247 958q-8 67 2 150v63q2 35 2 105q-2 4 -2 18q-1 6 0.5 18t0.5 21.5 t-7 16.5q-12 11 -25.5 8t-25.5 -15l-10 -14q-2 -3 -25 -43q-23 -44 -43 -78l-8 -12q-6 -6 -8 -12l-94 -176q0 -2 -9 -19l-24 -53q-3 -4 -10 -18q-59 -82 -105 -177q-3 -4 -10 -18t-8 -18l-11 -19l-6 -12q-9 -17 -10 -19q-10 -22 -55 -98q-3 -3 -5.5 -8t-5.5 -8l-10 16 q-35 50 -69 117l-11 14q-2 6 -8 12l-6 13l-12 16l-66 119q-6 4 -10 16l-12 19l-6 14q-15 19 -33 61l-17 31l-92 176l-18 31l-10 16q-6 12 -29 50q-3 9 -10 16q-15 19 -17 25l-6 14q-19 38 -43 24q-7 -3 -10 -16q0 -150 -4 -192v-19v-27q-4 -33 0 -133v-26q6 -90 0 -180v-17 q6 -63 2 -180q-2 -6 -2 -21q2 -27 2 -77v-17q0 -12 -2 -14v-90q-1 -14 0.5 -63.5t-2.5 -63.5v-62v-10q3 -10 1.5 -21.5t1 -21.5t11.5 -12q16 -5 21.5 7t7.5 31v3v22q-2 10 -2 35q-2 2 -2 17q-3 27 2.5 88t-0.5 88v20q0 67 2 100v420q0 27 -2 41q-8 67 2 150v10v33v14 q-1 15 1 47t1 47q14 -14 24 -37l11 -14l20 -33l18 -32q20 -29 49.5 -90t49.5 -89l18 -32q4 -8 15 -30.5t16 -35.5l10 -18l12 -19q13 -20 36.5 -63.5t37.5 -65.5l12 -18l13 -21l14 -18l8 -17q14 -19 45 -75q1 -3 4.5 -7.5t4.5 -7.5q5 -5 11 -17.5t13 -19.5t17 -4q12 4 20 15 t15.5 30t11.5 25q3 4 10 18l43 74l10 17l8 16q0 1 21 37l12 18q45 96 96 162l9 16q5 5 9.5 16.5t6.5 14.5l16 39l8 19q15 24 40.5 74.5t41.5 74.5l9 12q4 7 23.5 37.5t27.5 48.5q22 45 24 47q4 -99 -2 -149v-53q-4 -33 0 -133v-27q6 -90 0 -180v-17q6 -63 2 -180 q-2 -6 -2 -20q2 -27 2 -78v-17q0 -12 -2 -14v-90q-1 -14 0.5 -63.5t-2.5 -63.5v-72q6 -45 8 -51q4 -4 15 -4q20 0 20 18v46q-2 10 -2 34q-2 2 -2 17q-3 27 2.5 88t-0.5 88v20q0 68 2 101v420q0 26 -2 40z" />
<glyph unicode="n" horiz-adv-x="1296" d="M1174 1327v-22q0 -20 -3 -41v-17q0 -32 0.5 -66t1.5 -56.5t1 -24.5v-180q-5 -77 -5 -82q0 -4 -1 -11t-1 -10q5 -11 1.5 -90t-3.5 -90v-275v-151v-14q-4 -28 -4 -39v-19v-10q-1 -15 1 -40.5t1.5 -44.5t-6.5 -34q-12 -22 -37.5 -24t-61.5 3t-57 1h-20h-12h-13 q-25 -4 -42 10t-33.5 44t-22.5 38q-1 2 -10 16q-61 106 -82 138l-10 16l-15 24l-8 13q0 9 -10 26q-22 22 -48.5 69.5t-39.5 64.5l-10 14l-9 14q-8 14 -27 50.5t-34 61.5t-33 48q-3 9 -8 14l-6 15q-3 9 -8 14q-2 6 -8 12q-19 26 -44 76t-38 70q5 -95 4 -113v-14 q-2 -25 -2 -74v-275v-151v-14q-4 -17 -4 -74v-19q0 -6 1.5 -24.5t2 -26.5t-1.5 -20.5t-7 -22.5q-12 -22 -37 -24t-61 3t-57 1h-21q-45 -3 -77 8l-15 10q-10 8 -11.5 26t2 47.5t3.5 41.5v14q0 100 -1 288.5t-1 203.5v18v58v18v18l6 179v20q0 1 1 3t1 3v2v312v14v22v9v28 q-7 27 -4 43q0 4 1 11t1 10q11 30 53 41q3 0 9.5 1t9.5 1q9 0 27 1t26 1h18q70 4 101 -10q5 -2 12 -9l8 -10l6 -10q6 -21 18 -41.5t31 -46.5t27 -39q3 -9 8 -14l11 -15l8 -16l39 -64l10 -14q8 -8 12 -16q7 -13 8 -19q8 -17 25.5 -46t24.5 -42q9 -14 10 -16l31 -64l10 -16 q15 -33 39 -64l12 -16q31 -36 76 -129l10 -16l8 -15l10 -14q35 -52 50 -86v51v17v61v20q0 109 4 140v18q0 3 1 9.5t1 9.5q-6 53 -6 106q0 14 2 18q0 80 6 160v19v37v14v31v28q-7 27 -4 43q0 4 1 11t1 10q11 30 53 41q3 0 9 1t9 1q132 4 183 -4q5 -2 12 -9q7 -2 10 -12 q18 -32 8 -72q3 -3 3 -16zM1044 946q-8 63 3 150v63q3 71 0 139v29q0 20 -20.5 20t-20.5 -20v-14q9 -86 0 -176v-54q-4 -33 0 -133v-26q6 -91 0 -181v-16q6 -63 2 -180q-2 -6 -2 -21q2 -27 2 -77v-17q0 -12 -2 -14v-90q-1 -14 0.5 -63.5t-2.5 -63.5v-49l-19 28l-12 17 q-16 23 -46.5 85t-56.5 93l-12 20q-8 14 -28.5 48t-30.5 53l-88 139l-62 113l-110 165q-3 8 -27 41q-28 40 -82 150l-37 63q-62 109 -84 140l-18 28q-5 9 -10 11q-11 9 -23 5t-12 -20v-14q9 -86 0 -176v-54q-4 -33 0 -133v-26q6 -90 0 -180v-17q6 -63 2 -180q-2 -6 -2 -21 q2 -27 2 -77v-17q0 -12 -2 -14v-90q-1 -14 0.5 -63.5t-2.5 -63.5v-72q6 -45 8 -51q4 -4 14 -4q21 0 21 18v45q-2 10 -2 35q-2 2 -2 17q-3 27 2.5 88t-0.5 88v20q0 67 2 100v252v168q0 27 -2 41q-8 67 2 150v63q2 35 2 103q42 -64 82 -142l32 -53q34 -69 74 -133l17 -27 q93 -135 116 -180l11 -16q12 -17 29 -52t28 -51q7 -11 24 -35.5t25 -39.5q4 -13 12 -23q40 -63 47 -76l11 -16l8 -16l55 -89q69 -118 74 -129q2 -6 10 -18l21 -35q1 -3 4 -6t4 -6l4 -6q1 -1 9 -12t12 -15.5t12 -11t16 -6t16 7.5q4 4 5 9t0 13t0 13v22q-3 15 -3 35 q-2 2 -2 16q-3 27 2.5 88.5t-0.5 88.5v20q0 51 3 100v252v168q0 20 -3 41z" />
<glyph unicode="o" horiz-adv-x="1216" d="M1110 727v-22q5 -150 0 -201q-5 -69 -8 -84q-2 -8 -2 -27l-10 -63q0 -3 -1.5 -10.5t-1.5 -10.5t-1 -9t-1 -9q-56 -123 -94 -170l-14 -15q-36 -36 -72 -59l-16 -12q-14 -8 -30.5 -15.5t-28.5 -12t-33 -10.5t-30 -8t-34 -7.5t-31 -6.5h-30q-25 2 -86.5 2t-105 5t-83.5 20 l-26 10q-33 16 -47.5 23.5t-37.5 24t-38 34.5l-17 19q-28 36 -38 59q-28 55 -39 92q-22 63 -33 162q-6 33 -10 98v19q-5 147 -7 162v18q-3 81 5 151q0 3 1 9.5t1 9.5l4 55q0 3 1 9.5t1 9.5l4 39q11 98 33 161q11 40 39 93q10 23 38 59l17 18q15 18 38 34.5t37.5 24 t47.5 23.5l26 11q39 15 83.5 19.5t105 4.5t86.5 2h30q7 -1 36.5 -7.5t41.5 -9.5t35 -9.5t40.5 -14.5t33.5 -18l16 -13q36 -23 72 -59l14 -14q35 -43 47 -74q15 -25 21 -39q12 -19 19.5 -43.5t10.5 -42t7 -47t6 -43.5l4 -39v-14l4 -41q5 -51 0 -201zM815 555v31q0 3 -1 7 t-1 7q-1 19 2.5 54.5t3.5 50.5v18q0 21 -4 57v17v49v16q0 37 2 53l-4 23q0 37 -10 57q-12 80 -39 113q-4 6 -11 15t-8 10l-12 10l-12 8q-73 36 -180 25l-21 -7q-33 -8 -57 -36l-14 -15q-6 -8 -11 -18q-13 -22 -16 -29q-12 -39 -14 -67q0 -3 -1 -9.5t-1 -9.5q-7 -40 -7 -65 q-4 -62 -4 -82q0 -4 -1 -11t-1 -10q5 -11 1.5 -90t-3.5 -90q0 -4 1 -11.5t1 -11.5q0 -3 1 -9.5t1 -10.5q0 -20 4 -82q0 -26 7 -66q0 -3 1 -9t1 -9q2 -29 14 -68q2 -4 16 -28q6 -13 11 -19l14 -14q26 -29 57 -37l21 -6q107 -11 180 25l12 8l12 10q1 1 8 10t11 15 q28 34 39 112q10 20 10 58l4 22q-2 6 -2 27v12zM987 494v4q3 81 0 180v16q0 12 1.5 69t1.5 105t-3 70l-2 31v10l-4 29v2q0 3 -1 8t-1 8q-9 114 -100 215l-15 14q-9 9 -45 37l-2 2l-16 9q-14 8 -32.5 14.5t-26 8.5t-34.5 8l-28 5h-80q-111 -4 -154 -20l-20 -8h-2 q-74 -40 -148 -152v-2q-3 -4 -10 -18q-2 -1 -8 -21l-6 -20q-16 -57 -19 -103l-4 -28v-13l-4 -41v-4q0 -1 -1 -4t-1 -6q0 -18 -1 -103.5t-1 -105.5v-14q1 -12 2 -46t2 -50v-68q5 -60 8 -72q14 -90 25 -121l12 -36q47 -103 121 -142l35 -16l18 -8h2l21 -6q71 -21 135 -21 q43 0 74 8q3 0 10 1t10 1q16 4 21 4l12 5l19 4h2q67 23 124 77l17 17l12 16l12 17l3 2q54 109 63 194q2 2 2 15zM948 694v-16q5 -140 0 -178v-4q0 -13 -4 -41v-15q-9 -74 -61 -180l-11 -14l-10 -15l-14 -12q-45 -45 -111 -69q-1 0 -3 -1t-6 -2t-7 -2q-3 0 -6 -1t-6 -1h-2 q-16 -4 -19 -4l-18 -4h-2q-30 -6 -66 -6q-58 0 -125 18l-18 7l-19 8q-22 6 -30 14q-58 27 -105 123l-10 33q-14 38 -25 112l-6 70v14q0 6 -1 23.5t-1 30.5q0 71 -2 96v14q0 19 1 103.5t1 101.5v6q2 2 2 8l2 39v2q0 2 2 4v9l2 26q18 92 19 96l6 17l6 18l8 19q62 99 131 135 l19 6q53 18 141 18h72q71 -11 112 -32l13 -6q24 -18 41 -35l14 -13q79 -86 88 -190v-2l4 -18l2 -27v-10l2 -31q3 -21 3 -69t-1.5 -104.5t-1.5 -68.5z" />
<glyph unicode="p" horiz-adv-x="1198" d="M1092 1081q2 -36 2.5 -44.5t-2 -43.5t-2.5 -45l-5 -18q-8 -66 -38 -127l-11 -19q-23 -45 -61 -75l-17 -15q-12 -12 -49 -35q-4 -3 -18 -10l-37 -24q-8 -3 -14 -9l-15 -8q-32 -14 -96 -21.5t-82 -11.5h-20q-95 -4 -156 3h-14q-31 0 -47 2q3 -25 0 -50v-16q4 -78 4 -115 q0 -16 -2 -20q-1 -8 -1 -24.5t-1 -24.5q0 -15 -2 -17v-20q0 -19 -1 -57t-1 -58v-16q0 -7 4 -57.5t-2 -57.5l-5 -16q-9 -27 -38 -33q-3 0 -8.5 -1t-8.5 -1q-27 3 -57 0q-15 0 -19 -2q-9 0 -34.5 -2t-40.5 -2t-34 6.5t-30 21.5l-6 17q-4 10 -1.5 39t1.5 37v20q0 16 1.5 68 t0.5 80v18v92v21q3 46 0 96q0 3 1 9t1 9v107q-2 4 -2 20q3 106 -6 209q2 4 2 14q0 3 1 7.5t1 7.5v16q0 3 1 10.5t1 10.5q0 16 2 22q-3 8 -4 18t-1 22t-1 18v20q-1 18 1.5 67.5t-1.5 67.5v21q-1 17 4 104v43q-3 40 12 74l9 16l14 13q25 8 50 10t63.5 0t50.5 -2h20h98h21 q75 9 149 0q3 0 8.5 -1t8.5 -1q14 1 29 -0.5t24.5 -3t27 -5t25.5 -4.5q3 0 10.5 -1t10.5 -1q29 -1 62.5 -12t53.5 -21.5t58 -31.5l20 -10l19 -15l16 -14l21 -25l10 -12l12 -16q14 -22 23 -48.5t17.5 -61.5t14.5 -52q0 -3 5 -23zM954 946q1 11 2.5 31.5t2 33.5t0 31t-4.5 33 l-6 23q-3 5 -5 15t-5 15l-6 17q0 8 -6 14l-6 17q-12 30 -39 61q-53 58 -146 72q-99 17 -233 14q-27 -2 -80 -2h-19q-8 0 -72 1t-71 -5q-6 -2 -12 -8q-4 -12 -4 -15q4 -18 2.5 -88.5t-0.5 -91.5v-27q-4 -33 0 -133v-26q6 -90 0 -180v-17q6 -63 2 -180q-2 -6 -2 -21 q2 -27 2 -77v-17q0 -12 -2 -14v-90q-1 -14 0.5 -63.5t-2.5 -63.5v-72q6 -45 8 -51q4 -4 14 -4q21 0 21 18v45q-2 10 -2 35q-2 2 -2 17q-3 27 2.5 88t-0.5 88v20q0 67 2 100v209q10 -2 32 -2q27 0 33 2q9 0 37 -4q33 -2 100 -2q66 0 101 2q78 0 155 15l21 6l39 16q4 3 18 10 q41 30 78 74l12 19q27 33 35 77l4 21q0 3 1 7t1 7zM899 1118l6 -18q21 -89 15 -133q0 -15 -2 -19l-5 -16l-4 -17l-8 -28l-6 -13q-7 -15 -25 -36l-12 -15q-28 -31 -45 -41q-4 -3 -18 -10q-1 -1 -37 -16l-21 -6q-53 -15 -147 -15q-145 -5 -193 0q-28 4 -39 4q-5 0 -15 -1 t-15 -1h-31q-3 0 -6 1t-4 1v170q0 27 -2 41q-8 67 2 150v63q0 11 1.5 39.5t0.5 46.5q0 13 -2 15v14q35 -2 104 2h64q131 4 194 -2q7 -1 27 -3t28.5 -3t26 -3.5t28 -5.5t24 -8t24.5 -12q45 -23 72 -76l8 -16zM795 950l4 17q3 26 -2 45q0 3 -1 7t-1 7v6l-4 19q-6 14 -21 39 q-6 12 -12 18q-26 50 -140 63q-4 -2 -18 -2q-19 0 -51 1.5t-57 1.5t-48 -3h-14q-10 -2 -16 -8q-4 -7 -4.5 -17.5t1 -25.5t1.5 -22v-21q0 -11 1.5 -44t0.5 -52h-2q2 -4 2 -18q0 -3 -1 -8.5t-1 -8.5v-2h-2v-16q-2 -4 -2 -19q0 -16 2 -20v-37h47q12 0 32 -1t31 -1h23 q127 -4 178 10l18 8q32 16 41 43q2 3 8 19z" />
<glyph unicode="q" horiz-adv-x="1216" d="M946 967l2 -31q3 -21 3 -69t-1.5 -104.5t-1.5 -68.5v-16q5 -140 0 -178v-4q0 -13 -4 -41v-15q-9 -74 -61 -180l-21 -29l-14 -12q-45 -45 -111 -69q-1 0 -3 -1t-6 -2t-7 -2q-3 0 -6 -1t-6 -1h-2q-16 -4 -19 -4l-18 -4h-2q-30 -6 -66 -6q-58 0 -125 18l-18 7l-19 8 q-22 6 -30 14q-58 27 -105 123l-10 33q-14 38 -25 112l-6 70v14q0 6 -1 23.5t-1 30.5q0 71 -2 96v14q0 19 1 103.5t1 101.5v6q2 2 2 8l2 39v2q0 2 2 4v9l2 26q18 92 19 96l6 17l6 18l8 19q62 99 131 135l19 6q53 18 141 18h72q71 -11 112 -32l13 -6q24 -18 41 -35l14 -13 q79 -86 88 -190v-2l4 -18l2 -27v-10zM819 705v18q0 21 -4 57v82q0 37 2 53l-4 23q0 37 -10 57q-12 80 -39 113q-4 6 -11 15t-8 10l-12 10l-12 8q-73 36 -180 25l-21 -7q-33 -8 -57 -36l-14 -15q-6 -8 -11 -18q-13 -22 -16 -29q-12 -39 -14 -67q0 -3 -1 -9.5t-1 -9.5 q-7 -40 -7 -65q-4 -62 -4 -82q0 -4 -1 -11t-1 -10q5 -11 1.5 -90t-3.5 -90q0 -4 1 -11.5t1 -11.5q0 -3 1 -9.5t1 -10.5q0 -20 4 -82q0 -26 7 -66q0 -3 1 -9t1 -9q2 -29 14 -68q2 -4 16 -28q6 -13 11 -19l14 -14q26 -29 57 -37l21 -6q107 -11 180 25l12 8l12 10q1 1 8 10 t11 15q28 34 39 112q10 20 10 58l4 22q-2 6 -2 27v43q0 3 -1 7t-1 7q-1 19 2.5 54.5t3.5 50.5zM1110 727v-22q5 -150 0 -201q-5 -69 -8 -84q-2 -8 -2 -27l-10 -63q0 -3 -1.5 -10.5t-1.5 -10.5t-1 -9t-1 -9q-56 -123 -94 -170l-14 -15q-36 -36 -72 -59l-16 -12 q-15 -9 -30 -16t-35 -13t-31 -9t-37 -9t-33 -8q3 -31 12 -58q3 -13 8 -18q12 -28 43 -43q16 -4 23 -4h16q4 -2 17 -2q3 0 6 -1t6 -1h18q9 1 25.5 -5.5t22.5 -7.5l10 -6l10 -14l6 -17q19 -122 -47 -159q-12 -4 -16 -4q-96 -10 -170 0q-17 3 -35 10l-23 10l-14 8 q-74 43 -98 105l-6 18l-11 43q-6 44 -6 86q0 15 -2 19l-4 41q-65 3 -117 22l-26 10q-33 16 -47.5 23.5t-37.5 24t-38 34.5l-17 19q-28 36 -38 59q-28 55 -39 92q-22 63 -33 162q-6 33 -10 98v19q-5 147 -7 162v18q-3 81 5 151q0 3 1 9.5t1 9.5l4 55q0 3 1 9.5t1 9.5l4 39 q11 98 33 161q11 40 39 93q10 23 38 59l17 18q15 18 38 34.5t37.5 24t47.5 23.5l26 11q39 15 83.5 19.5t105 4.5t86.5 2h30q7 -1 36.5 -7.5t41.5 -9.5t35 -9.5t40.5 -14.5t33.5 -18l16 -13q36 -23 72 -59l14 -14q35 -43 47 -74q15 -25 21 -39q12 -19 19.5 -43.5t10.5 -42 t7 -47t6 -43.5l4 -39v-14l4 -41q5 -51 0 -201zM987 494v4q3 81 0 180v16q0 12 1.5 69t1.5 105t-3 70l-2 31v10l-4 29v2q0 3 -1 8t-1 8q-9 114 -100 215l-15 14q-9 9 -45 37l-2 2l-16 9q-14 8 -32.5 14.5t-26 8.5t-34.5 8l-28 5h-80q-111 -4 -154 -20l-20 -8h-2 q-74 -40 -148 -152v-2q-3 -4 -10 -18q-2 -1 -8 -21l-6 -20q-16 -57 -19 -103l-4 -28v-13l-4 -41v-4q0 -1 -1 -4t-1 -6q0 -18 -1 -103.5t-1 -105.5v-14q1 -12 2 -46t2 -50v-68q5 -60 8 -72q14 -90 25 -121l12 -36q47 -103 121 -142l35 -16l18 -8h2l21 -6q54 -18 121 -21 q0 -57 10 -135q11 -86 37 -135q12 -27 37 -49q23 -20 57 -29q46 -16 127 -12q20 0 20 20.5t-20 20.5q-62 -3 -111 8q-34 11 -45 20q-19 19 -32 45q-19 42 -31 121q-8 55 -8 125q39 5 47 8q3 0 10 1t10 1q16 4 21 4l12 5l19 4h2q67 23 124 77l17 17l24 33l3 2q54 109 63 194 q2 2 2 15z" />
<glyph unicode="r" horiz-adv-x="1193" d="M1130 141q3 -6 3 -16q0 -18 -3 -33q0 -1 -0.5 -3.5l-1.5 -7.5t-2 -9q-14 -43 -47 -62l-20 -8q-2 -1 -5 -2l-4.5 -1.5t-2.5 -0.5l-13 -4q-13 -3 -82 -8h-20q-91 3 -152 53l-14 10q-12 9 -21 21l-10 8q-54 57 -94 135q-7 14 -8 18q-7 13 -8 19l-17 33l-6 18l-37 86 q-1 2 -4 9t-4 12q-1 2 -4 8.5t-4 11.5q-5 5 -8 16q-35 77 -58 115l-6 16q-1 0 -3 1.5t-3 1.5h-14q-31 0 -47 2q3 -25 0 -50v-16q4 -78 4 -115q0 -16 -2 -20q-1 -8 -1 -24.5t-1 -24.5q0 -15 -2 -17v-20q0 -19 -1 -57t-1 -58v-16q0 -7 4 -57.5t-2 -57.5l-5 -16q-9 -27 -38 -33 q-3 0 -8.5 -1t-8.5 -1q-27 3 -57 0q-15 0 -19 -2q-9 0 -34.5 -2t-40.5 -2t-34 6.5t-30 21.5l-6 17q-4 10 -1.5 39t1.5 37v20q0 16 1.5 68t0.5 80v18v92v21q3 46 0 96q0 3 1 9t1 9v107q-2 4 -2 20q3 106 -6 209q2 4 2 14q0 3 1 7.5t1 7.5v16q0 3 1 10.5t1 10.5q0 16 2 22 q-3 8 -4 18t-1 22t-1 18v20q-1 18 1.5 67.5t-1.5 67.5v21q-1 17 4 104v43q-3 40 12 74l9 16l14 13q25 8 50 10t63.5 0t50.5 -2h20h98h21q75 9 149 0q3 0 8.5 -1t8.5 -1q14 1 29 -0.5t24.5 -3t27 -5t25.5 -4.5q3 0 10.5 -1t10.5 -1q29 -1 62.5 -12t53.5 -21.5t58 -31.5 l20 -10l19 -15l16 -14l21 -25l10 -12l12 -16q14 -22 23 -48.5t17.5 -61.5t14.5 -52q0 -3 5 -23q2 -36 2.5 -44.5t-2 -43.5t-2.5 -45l-5 -18q-8 -66 -38 -127l-11 -19q-23 -45 -61 -75l-17 -15q-12 -12 -49 -35q-4 -3 -18 -10l-37 -24q-8 -3 -14 -9l-15 -8q-9 -4 -63 -18 q49 -120 90 -189q1 -4 8 -18q17 -39 31 -55q4 -13 10 -17l12 -16l13 -14l16 -13q7 -7 16 -10q27 -11 56 -14q3 0 8 -1t8 -1q8 -2 24 -2.5t27.5 -3.5t18.5 -11l8 -8q22 -36 22 -76zM1032 111q21 0 21 20q0 21 -21 21q-3 0 -8 -1t-8 -1h-17q-50 -8 -95.5 10t-74.5 59l-14 14 l-12 19q-3 3 -5 8t-5 8q-7 13 -11 19q-12 19 -31.5 59.5t-31.5 59.5l-8 16q-18 43 -27 67q-6 13 -8 19q-47 129 -80 186q76 0 149 15l21 6l39 16q4 3 18 10q41 30 78 74l12 19q27 33 35 77l4 21q0 3 1 7t1 7q1 11 2.5 31.5t2 33.5t0 31t-4.5 33l-6 23q-3 5 -5 15t-5 15 l-6 17q0 8 -6 14l-6 17q-12 30 -39 61q-53 58 -146 72q-99 17 -233 14q-27 -2 -80 -2h-19q-8 0 -72 1t-71 -5q-6 -2 -12 -8q-4 -12 -4 -15q4 -18 2.5 -88.5t-0.5 -91.5v-27q-4 -33 0 -133v-26q6 -90 0 -180v-17q6 -63 2 -180q-2 -6 -2 -21q2 -27 2 -77v-17q0 -12 -2 -14v-90 q-1 -14 0.5 -63.5t-2.5 -63.5v-72q6 -45 8 -51q4 -4 14 -4q21 0 21 18v45q-2 10 -2 35q-2 2 -2 17q-3 27 2.5 88t-0.5 88v20q0 67 2 100v209q10 -2 32 -2q27 0 33 2q9 0 37 -4q33 -2 100 -2h62q0 -2 2 -4q11 -18 20.5 -36t18.5 -40t14 -34.5t15.5 -41.5t13.5 -38l6 -15 l31 -71q6 -13 8 -19q21 -34 74 -133q7 -14 10 -18q4 -7 12 -19.5t8 -13.5l15 -14q29 -48 83.5 -69.5t114.5 -16.5h19q3 0 8 1t8 1zM758 756l-21 -6q-53 -15 -147 -15q-145 -5 -193 0q-28 4 -39 4q-5 0 -15 -1t-15 -1h-31q-3 0 -6 1t-4 1v170q0 27 -2 41q-8 67 2 150v63 q0 11 1.5 39.5t0.5 46.5q0 13 -2 15v14q35 -2 104 2h64q131 4 194 -2q7 -1 27 -3t28.5 -3t26 -3.5t28 -5.5t24 -8t24.5 -12q45 -23 72 -76l8 -16l12 -33l6 -18q21 -89 15 -133q0 -15 -2 -19l-9 -33l-8 -28l-6 -13q-7 -15 -25 -36l-12 -15q-28 -31 -45 -41q-4 -3 -18 -10 q-1 -1 -37 -16zM520 848h23q127 -4 178 10l18 8q32 16 41 43q2 3 8 19l7 22l4 17q3 26 -2 45q0 3 -1 7t-1 7v6l-4 19q-6 14 -21 39q-6 12 -12 18q-26 50 -140 63q-4 -2 -18 -2q-19 0 -51 1.5t-57 1.5t-48 -3h-14q-10 -2 -16 -8q-4 -7 -4.5 -17.5t1 -25.5t1.5 -22v-21 q0 -11 1.5 -44t0.5 -52h-2q2 -4 2 -18q0 -3 -1 -8.5t-1 -8.5v-2h-2v-16q-2 -4 -2 -19q0 -16 2 -20v-37h47q12 0 32 -1t31 -1z" />
<glyph unicode="s" horiz-adv-x="1200" d="M434 1100q-4 -4 -8 -15q-18 -29 -16.5 -66t24.5 -61l15 -16q49 -44 135 -72l16 -4q35 -17 104.5 -40t94.5 -33l18 -9q91 -34 125 -61l19 -16l32 -37l11 -13q65 -74 71 -174q2 -6 2 -20q8 -27 8 -66q0 -4 -1 -11t-1 -11q-17 -101 -53 -174l-6 -15l-8 -14q-9 -20 -39 -59 l-16 -19q-15 -18 -38 -34.5t-37.5 -24t-47.5 -23.5l-27 -10q-40 -15 -83.5 -20t-104.5 -5t-86 -2h-31q-6 1 -31 6.5t-34 7.5t-30 8t-33 10.5t-28.5 12t-30.5 15.5l-16 12q-36 23 -72 59l-14 15q-24 30 -43 65q-3 3 -5 8.5t-5 8.5l-8 16l-6 17q-23 43 -39 147q-2 2 -2 8v2v13 q-18 80 28 96q12 6 21 6q18 3 54 3t52 3q4 -2 19 -2q42 0 73 -8q5 -1 12 -4t9 -4l12 -13l8 -14q9 -15 9 -39q0 -3 1 -7t1 -7l4 -21q10 -43 32 -71q4 -6 11 -15t8 -10l12 -10l12 -8q73 -36 181 -25l20 6q12 2 31 14l14 11q55 46 58 127v20l-5 17l-6 18q-6 6 -8 12 q-17 21 -27 27q-7 7 -16 10q-89 53 -178 76l-21 6q-19 8 -60 23.5t-72.5 29.5t-57.5 31l-14 6l-13 6q-60 38 -108 92l-15 15q-14 14 -26 35q-3 4 -10 18q-14 27 -20 55t-8 76t-3 57q0 4 1 11t1 10q3 49 25 102l10 33q10 30 28 60q9 20 39 59l17 18q15 18 38 34.5t37.5 24 t47.5 23.5l26 11q39 15 83.5 19.5t105 4.5t86.5 2h30q7 -1 36.5 -7.5t41.5 -9.5t35 -9.5t40.5 -14.5t33.5 -18l16 -13q36 -23 72 -59l14 -14q35 -43 47 -74q15 -25 21 -39q17 -29 28 -84l4 -16l9 -64q2 -4 2 -20q-1 -31 -24.5 -50.5t-55.5 -19.5q-4 2 -19 2q-14 2 -79 2 t-97 10q-14 14 -20 35q-6 13 -10 43l-5 19q-10 30 -28 53q-4 6 -11 15t-8 10l-12 10l-12 8q-73 36 -180 25l-21 -7q-33 -8 -57 -36l-15 -15q-3 -4 -10 -18zM401 1270l17 10q48 22 86 29q4 2 18 2q72 7 189 -19l16 -4q19 -4 33 -12l14 -6q103 -54 125 -140l6 -18q9 -24 6 -51 q0 -20 20.5 -20t20.5 20q3 33 -6 59l-6 19q-34 107 -135 159l-17 11q-22 12 -47 18l-16 4q-81 28 -219 17q-6 -2 -23 -2q-27 -5 -63 -19l-21 -8q-44 -22 -82 -64l-12 -18l-10 -14l-12 -19q-68 -95 -33 -205q0 -3 1 -10t1 -10q19 -84 104 -152l17 -12q43 -31 88 -49l20 -8 q37 -16 56 -27l12 -6q6 -6 12 -8q145 -53 203 -84q11 -3 16 -8q19 -8 35 -21q9 -3 16 -10q75 -62 87 -160v-20q-3 -9 -3 -23q-5 -37 -10 -53l-4 -12q-1 -5 -4 -12t-4 -9q-19 -47 -64 -92l-16 -14l-10 -9q-6 -6 -12 -8l-41 -26l-15 -6q-113 -42 -215 -19q-4 0 -10.5 1t-9.5 1 q-92 23 -146 80l-14 12q-65 74 -68 168q0 3 -1 7.5t-1 7.5q0 2 -4 14t-15 14.5t-19.5 -5t-4.5 -19.5l4 -15q3 -111 72 -192l14 -15l15 -14q55 -55 166 -80l20 -4q47 -4 107 -2.5t104 16.5l19 9q29 13 69 37l19 12q57 42 86 104l8 19q1 2 4 8.5t4 11.5l4 12l8 29q8 31 8 72 v16q0 28 -4 37l-4 16q-46 98 -88 134l-16 12q-43 27 -55 31l-19 10q-30 14 -90 38t-90 38l-12 4l-15 6l-14 6q-33 18 -51 25l-19 8q-42 16 -86 49l-16 12q-73 52 -84 121l-4 18q-22 115 37 201l10 12q26 34 63 56z" />
<glyph unicode="t" horiz-adv-x="1040" d="M975 1292q0 -7 3.5 -45t-1.5 -45q0 -2 -4 -14q-17 -48 -86 -37h-17q-14 2 -43 2h-14h-65q-2 -2 -15 -2q-38 0 -63 2q1 -6 -0.5 -16t-1.5 -13v-12q0 -79 1 -188.5t1 -118.5v-94q2 -36 -2 -111v-22q-1 -25 -1 -70t-1 -82t-4 -70v-14v-168v-74q7 -27 4 -43q0 -4 -1 -10.5 t-1 -9.5q-11 -30 -54 -41q-3 0 -9 -1t-9 -1q-12 0 -36 -1t-36 -1h-16q-6 -2 -23 -2q-22 0 -32 2q-15 0 -19 2h-14l-13 4q-15 9 -22 27.5t-7.5 33.5t1.5 42.5t2 37.5v19q-4 42 -4 188v35q-3 20 3 56.5t7 45.5v21q-3 24 -3 52.5t1.5 63t1.5 52.5v20q-2 6 -2 21q3 25 0 49v158 q-4 77 4 131v22q0 59 -6 78h-6q-11 0 -15 2h-34q-17 0 -21 -2q-82 0 -133 2h-14q-7 0 -21.5 -1t-21.5 -1h-15l-16 8q-2 2 -10 19l-6 18q-4 18 -3 88t0 88q-3 10 0 17q3 37 27 47q15 6 37 0q37 5 143 0h41q25 0 39 2h17q53 0 84 2h16h33q6 -2 24 -2q30 3 64 0h22q18 -3 39 -3 t46.5 1.5t39.5 1.5h25h55q15 -1 45.5 2t54 1.5t41.5 -11.5q17 -11 20.5 -30t1 -47t-0.5 -42q-2 -4 -2 -19zM891 1288q5 7 3.5 17.5t-7.5 11.5l-17 4q-12 0 -16 2q-54 0 -156 -4h-18q-62 -3 -127 0q-14 0 -18 2h-19h-20q-17 0 -21 -2q-66 -4 -96 -4h-19q-29 0 -45 2 q-29 0 -43 2q-14 -4 -44.5 1t-53 2.5t-29.5 -22.5q0 -20 21 -20h20h56h41h39h18h106h19q21 0 35 -2q0 -17 2 -21q3 -74 -2 -120v-54q-4 -33 0 -133v-26q6 -91 0 -181v-16q6 -63 2 -180q-2 -6 -2 -21q2 -27 2 -77v-17q0 -12 -2 -14v-90q-1 -14 0.5 -63.5t-2.5 -63.5v-72 q6 -45 8 -51q4 -4 14 -4q21 0 21 18v45q-2 10 -2 35q-2 2 -2 16q-3 27 2.5 88.5t-0.5 88.5v20q0 67 2 100v420q0 27 -2 41q-8 67 2 150v63v105v16h14h18h17h80h16q21 0 88 1.5t103 0.5q5 -3 14 6z" />
<glyph unicode="u" d="M1122 705q5 -150 0 -201q-5 -69 -8 -84q-2 -8 -2 -27l-10 -63q0 -3 -1 -10.5t-1 -10.5t-1 -9t-1 -9q-56 -123 -94 -170l-15 -15q-38 -38 -71 -59l-17 -12q-14 -8 -30.5 -15.5t-28 -12t-33 -10.5t-29.5 -8t-34 -7.5t-31 -6.5h-31q-25 2 -86 2t-104.5 5t-83.5 20l-27 10 q-33 16 -47.5 23.5t-37.5 24t-38 34.5l-16 19q-30 39 -39 59q-28 55 -39 92q-22 63 -33 162q-9 75 -12 152l-6 204q0 16 -1 50t-1 51v24q-1 15 -1 31.5t0.5 36t0.5 29.5v20q0 18 -1.5 76.5t-0.5 89.5q-2 6 -2 22l4 17q-2 6 -2 31q0 16 -2 22q1 12 -1.5 50t1.5 50l4 17 q8 23 27 33t40.5 9t45.5 -1t42 4h99q10 0 18 -8q11 -11 16 -66v-24q-4 -42 -3.5 -57t3 -97t2.5 -164q0 -7 -2.5 -49.5t-2 -50.5t2.5 -51v-21q3 -30 -1.5 -99.5t1.5 -99.5q0 -16 2 -20q0 -4 1.5 -11.5t1.5 -11.5v-20q0 -20 4 -82q0 -35 8 -66v-18q4 -37 16 -68l4.5 -9 t6.5 -10.5t6 -8.5q9 -17 10 -19l14 -14q26 -29 57 -37l21 -6q107 -11 180 25l12 8l13 10q15 20 18 25q45 53 49 170l4 22v53v17q-1 37 3.5 100t5.5 80v22q-1 31 -8 98t-7 103v10q0 15 -1 42t-1 42q-2 6 -2 29q0 5 1 15.5t1 15.5v33q3 33 -3 104t-1 109q6 44 43 53q3 3 6.5 4 t9.5 1t9 1q50 4 88 4h22q10 -1 34.5 -2t39 -3t29.5 -11.5t18 -28.5q6 -27 6.5 -55t-3 -68t-3.5 -55q0 -13 -2 -15v-71q0 -40 2 -58q2 -6 2 -30q2 -55 2 -158q0 -19 -2 -33v-57q4 -70 4 -102zM961 848v-41q0 -73 -3 -143q0 -40 -2 -58q-2 -6 -2 -20l-2 -35v-19 q-3 -99 -22 -184q0 -3 -1 -8t-1 -8l-19 -49l-6 -15q-50 -95 -106 -112l-17 -6q-37 -15 -118 -27h-80q-29 0 -74 10q-80 24 -125 66q-23 23 -41 55q-22 39 -31 80q-16 64 -28 188q-3 33 -5.5 99t-5.5 100q-4 46 -4 70l-2 40q-2 31 -2 91v202v201q0 20 -20.5 20t-20.5 -20 v-184v-183q0 -134 6 -202q3 -33 5.5 -99.5t5.5 -99.5q14 -157 22 -192q27 -108 64 -160q45 -59 116 -94q34 -15 72 -21q41 -8 84 -8h49q13 0 17 2q58 0 131 29l16 6q82 35 135 143l6 17q2 6 6 17t7 17l4 19q0 3 1 6t1 6q11 50 24 186v19q2 18 2 55q0 3 1 8.5t1 8.5l2 98 q0 133 -2 201q0 36 -2 59v20q0 8 -1 26.5t-1 27.5v18q0 17 1 59t0.5 73t-3.5 61v51q0 20 -20.5 20t-20.5 -20v-62q4 0 2 -85l-2 -85q2 -4 2 -20q0 -8 1 -27.5t1 -31.5v-15q0 -3 1 -7t1 -7q0 -19 1.5 -56t1.5 -57v-14z" />
<glyph unicode="v" horiz-adv-x="1296" d="M1186 1444l16 -4q29 -9 32 -43t-11 -58l-6 -18q-5 -15 -5 -16q-3 -5 -5 -14.5t-5 -14.5q-5 -18 -15 -47.5t-11 -32.5l-7 -22q-19 -36 -28 -84l-4 -19q-9 -36 -31 -92l-6 -18q-20 -62 -27 -89l-4 -18q-5 -23 -22 -80l-7 -20q-16 -35 -34 -95l-7 -18l-6 -18q-1 -5 -4 -12 t-4 -9l-6 -18l-6 -19q-3 -11 -6.5 -22.5t-8.5 -25.5t-8 -23l-6 -19q-3 -10 -6.5 -20.5t-7.5 -21.5t-6 -17l-4.5 -9t-4.5 -12q-13 -33 -35 -98t-34 -98l-6 -19l-31 -80q-3 -5 -6 -16.5t-6 -17.5q-10 -23 -21 -37q-14 -21 -26 -33q-16 -4 -21 -4q-4 -2 -18 -2h-19 q-17 -1 -112 4q-14 2 -39 2q-45 10 -64 76l-6 16q-3 23 -10 39l-6 18q-5 16 -13.5 48.5t-17 58t-18.5 47.5l-9 18q-18 58 -28 101l-7 18q-3 10 -8.5 32t-10.5 38t-11 31l-6 20l-25 61l-6 19q-7 31 -25 80l-6 20q-13 40 -18 58q-2 2 -8 20q-7 19 -18.5 54.5t-18.5 54.5 q-4 16 -4 18q-23 77 -31 94l-6 21l-31 104l-6 17q-14 44 -21 73q-17 40 -22 72l-6 14l-6 15q0 2 -1 4.5t-2 6.5t-2 7q-5 37 7 53q8 8 14 11l27 6q3 0 7 1t7 1q101 10 182 -4q6 -2 19 -8q17 -7 28 -29q1 -2 4 -9t4 -12l7 -20q0 -3 4 -19q0 -2 4 -18q13 -27 25.5 -79.5 t19.5 -72.5l6 -20l27 -78l8 -22q0 -3 4 -19l6 -18q2 -2 6 -17q6 -9 6 -20q3 -6 7 -17t6 -16l4 -16q0 -3 1 -10.5t1 -10.5q8 -32 26.5 -90t24.5 -80q4 -16 4 -18q6 -29 19 -51l6 -19q23 -73 24 -76q4 -12 4 -14q4 -16 4 -20q1 -3 2 -7t2 -6.5t1 -3.5l16 -73q4 27 8 34l6 19 q10 25 28.5 81t31.5 85l4 16q26 56 55 158l6 22q3 7 6 20.5t6 20.5l5 15q12 31 28.5 93t28.5 93l4 18q24 89 55 162l6 19q3 8 7.5 26.5t7.5 26.5l6 18q18 40 47 56q12 4 16 4q36 4 58 4h18q12 1 38.5 3.5t37 2.5t35.5 -2zM1087 1315l5 14q4 12 -4.5 20t-19.5 6t-15 -14 l-9 -26q-26 -67 -43 -133l-20 -60q-9 -54 -43 -143q-13 -29 -14 -39l-54 -160l-77 -239q-77 -240 -82 -265q-20 -75 -35 -118q-3 -27 -29 -21h-14h-15q-18 65 -63 201t-66 213l-77 240l-54 159q-1 10 -14 39q-34 89 -43 144l-20 59q-17 66 -43 133l-9 27q-4 12 -15 13.5 t-19.5 -6.5t-4.5 -20l5 -14q30 -73 53 -168l16 -49q8 -37 43 -127l8 -27q35 -83 56 -170l4 -16q31 -74 57 -170l6 -20l25 -74l59 -182q4 -13 2 -15q28 -86 51 -151q3 -7 6.5 -20.5t6.5 -20.5l6 -13q5 -4 11.5 -5.5t11.5 -1.5t14 0.5t12 0.5q12 -6 23 -2q38 7 51 82l6 17 l6 18q17 54 90 283l25 73l6 21q26 96 57 170l4 16q21 87 56 170l8 27q35 90 43 127l16 49q23 95 53 168z" />
<glyph unicode="w" horiz-adv-x="1871" d="M1673 1438q12 -2 39.5 -0.5t45.5 1.5t34 -10.5t18 -33.5v-19q0 -2 -4 -18q-33 -100 -49 -164l-4 -12l-6 -27l-6 -18q-7 -41 -25 -99l-6 -20l-24 -98l-5 -21l-4 -14l-4 -21q-4 -16 -4 -18q-1 -6 -8 -19q-13 -30 -24.5 -92t-22.5 -90l-4 -18l-13 -41q-3 -11 -17.5 -57.5 t-23.5 -71.5v-11q-3 -8 -7 -26.5t-7 -26.5l-6 -18q0 -3 -4 -19l-6 -18q-5 -24 -16.5 -68.5t-14.5 -54.5l-6 -18q-13 -82 -31 -129l-10 -19q-7 -14 -10 -18q-23 -23 -57.5 -31t-66 -5t-67.5 -1q-3 0 -10 1t-10 1q-27 4 -37 10l-16 12q-27 20 -35 58l-6 16q-5 20 -5 21 l-43 139q0 3 -1 9t-1 9q-7 30 -23.5 90t-23.5 89l-6 16l-12 51l-6 21l-4 16l-4 16l-19 62l-18 74q0 2 -4 18q-6 25 -29 96q-13 -30 -24.5 -90.5t-18.5 -83.5l-4 -18l-13 -41q-5 -14 -18 -59t-22 -70v-11q-3 -8 -7.5 -26.5t-7.5 -26.5l-6 -18q0 -3 -4 -19l-6 -18 q-5 -24 -16.5 -68.5t-14.5 -54.5l-6 -18q-13 -82 -31 -129l-10 -19q-7 -14 -10 -18q-23 -23 -57.5 -31t-66 -5t-67.5 -1q-3 0 -10 1t-10 1q-27 4 -37 10l-16 12q-27 20 -35 58l-6 16q-4 16 -4 21l-44 139q0 3 -1 9t-1 9q-7 29 -23.5 89.5t-23.5 89.5l-6 16l-12 51l-6 21 l-4 16l-4 16l-19 62l-18 74q0 2 -4 18q-7 33 -25 91t-25 85l-4 21l-34 149l-7 23l-16 57l-6 18q-3 13 -8 36t-10 41.5t-11 35.5l-4 12q-1 3 -2 6.5t-1.5 5.5t-0.5 3l-6 18q-27 60 -10 94q6 10 16.5 14.5t26.5 5.5t22 3h17q20 1 108 -4q17 0 21 -2q69 -11 81 -68l7 -16l4 -19 l6 -22q16 -55 33 -133q0 -1 4 -21q7 -34 25.5 -99.5t25.5 -99.5l6 -20q3 -19 12 -41l7 -18q0 -5 4 -21l6 -20q4 -16 4 -19q11 -36 20 -84q7 -16 11 -41l6 -18q4 -16 4 -19q3 -13 6.5 -36t7.5 -42t10 -36q8 29 20.5 86t20.5 86l25 73q12 44 18 89l7 18l4 14q15 55 24 111 q4 16 4 18q24 79 29 101q4 16 4 18q12 52 37 125l6 21l6 18q18 108 74 119q6 2 24 2q8 0 65 -3t65 1l18 -4q53 -14 61 -66l7 -20q3 -7 5 -18.5t5 -18.5l6 -19l6 -20l23 -96q0 -1 4 -21q7 -34 25.5 -99.5t25.5 -99.5l6 -20q3 -19 12 -41l6 -18q0 -1 5 -21l6 -20q4 -16 4 -19 q11 -36 20 -84q7 -16 11 -41l6 -18q4 -16 4 -19q3 -13 6.5 -36t7.5 -42t10 -36q8 28 20.5 86t20.5 86l25 73q12 44 18 89l6 18l5 14q15 55 24 111q4 16 4 18q24 79 29 101q4 16 4 18q8 34 27 95.5t22 70.5l6 20q9 27 16 43.5t23.5 32.5t38.5 19h19q18 2 55 2q12 0 16 -2z M1655 1266q18 62 8 77q-15 17 -25 1t-16 -46l-6 -24q-1 -4 -2 -8.5t-1.5 -7t-0.5 -3.5q-2 -2 -2 -8l-17 -61q-7 -55 -37 -144q-9 -22 -12 -38l-43 -164l-37 -135q-32 -104 -63 -234l-4 -14q-14 -56 -27 -103l-4 -22l-27 -96l-4 -21q-3 -7 -7 -20.5t-7 -20.5l-4 -14 q0 -9 -4 -21q-3 -8 -15 -8q-4 0 -16 4q-4 4 -4 10q0 3 -4 19l-14 51l-5 21l-20 75q-6 14 -10 43q-19 82 -35 131q-3 8 -5.5 18t-5.5 23t-5 21l-54 194l-26 99q-2 2 -2 6l-5 18l-16 58l-24 100l-4.5 9t-4.5 11q-30 89 -37 144q-2 0 -2 2v8l-6 21l-6 12q-1 2 -2 5l-1.5 4.5 t-0.5 2.5q-3 8 -5.5 24.5t-5 27t-11.5 19t-23 9.5q-12 1 -21 -5t-14.5 -19.5t-7.5 -20.5t-6 -23q0 -6 -4 -18l-6 -18l-7 -21q-2 -2 -2 -8v-2q-7 -60 -36 -144q-11 -25 -13 -38l-43 -164l-37 -135q-32 -104 -63 -234l-4 -14q-14 -56 -27 -103l-4 -22l-27 -96l-4 -21 q-3 -7 -7 -20.5t-7 -20.5l-4 -14q0 -9 -4 -21q-3 -8 -15 -8q-4 0 -16 4q-4 4 -4 10q0 3 -4 19l-14 51l-5 21l-20 75q-6 13 -10 43q-19 82 -35 131q-3 8 -5.5 18t-5.5 23t-5 21l-54 194l-26 99q-2 2 -2 6l-4 18l-17 58l-24 100l-4.5 9t-4.5 11q-29 84 -36 144l-17 61 q0 6 -2 10l-6 23l-6 18q0 27 -17 46q-14 16 -24 -1q-3 -6 -3 -15.5t2 -18t6 -22.5t5 -21l12 -49l13 -54q1 -3 24 -94l10 -33q46 -158 48 -166l6 -34l61 -226l23 -69l8 -35q9 -30 23.5 -90t23.5 -90q0 -8 10 -35q6 -16 6 -35l4 -14q6 -24 9 -29l6 -20q2 -21 4.5 -34.5 t9.5 -31t21 -25.5t34 -4q11 -4 21 0q19 3 29 23q5 5 8 16q3 9 7 28.5t7 27.5l6 20l8 29l5 14v4q0 6 2 8q0 3 4 23q39 143 47 180q4 16 4 18q11 44 37 121l61 226q13 76 45 174l8 26q27 82 35 127l13 54l4 16l12 43q2 -18 10 -35l6 -24l13 -54q1 -3 24 -94l10 -33 q46 -158 48 -166l6 -34l61 -226l23 -69l8 -35q9 -29 23.5 -89.5t23.5 -90.5q0 -8 10 -35q6 -16 6 -35l4 -14q6 -24 9 -29l6 -20q2 -21 4.5 -34.5t9.5 -31t21 -25.5t34 -4q10 -4 21 0q19 3 29 23q5 5 8 16q3 9 7 28.5t7 27.5l6 20l8 29l4 14v4q0 5 3 8q0 3 4 23 q39 143 47 180q4 16 4 18q11 44 37 121l61 226q13 76 45 174l8 26q27 82 35 127l12 54q5 25 9 32q0 1 4 17z" />
<glyph unicode="x" horiz-adv-x="1134" d="M1069 47q4 -16 4 -18q-3 -19 -17.5 -26.5t-43 -8.5t-33.5 -2q-3 0 -9 -1t-9 -1q-70 0 -127 8q-17 0 -21 2q-16 3 -29 12t-24 23.5t-18 27.5t-17.5 33t-15.5 29l-7 12l-8 15q-17 22 -28 59q-4 4 -9 20q-11 32 -42 90.5t-42 90.5l-6 14l-4 16q-13 -35 -43 -92 q-7 -14 -8 -18l-10 -19q-43 -104 -47 -116l-9 -17l-47 -94l-6 -10q-13 -23 -39 -49l-16 -13q-8 -8 -19 -12q-2 -1 -5.5 -2.5t-6.5 -2.5t-6 -1q-12 -4 -22 -4q-14 0 -30 -1t-36 -2.5t-31 -2.5h-20q-29 0 -53 6q-2 1 -5.5 1t-6 1t-5.5 4q-17 4 -24.5 16t-5 28t7.5 30t12 26 l8 17q5 8 14 23t16 27t11 23l12 23l31 61l8 17q14 28 45.5 80.5t44.5 79.5l11 20l8 16q23 37 52.5 106.5t37.5 84.5q3 9 8 14l14 31l-6 12q-14 23 -26 48.5t-27 60.5t-22 51q-2 3 -7 16q-5 5 -10 19q-2 2 -2 8q1 1 -123 238q-1 3 -4 7t-4 7q-13 30 -48.5 89t-49.5 93l-4 12 q-4 25 6 37q12 12 18 15q9 6 21 6q19 1 59.5 4t60.5 3.5t60 -1.5h18q48 -12 66 -39l10 -14q18 -36 21 -45l8 -15q6 -10 17.5 -33t19.5 -36l10 -21q13 -32 43.5 -90t36.5 -70q0 -2 4 -14l14 -29q10 18 24.5 53t20.5 48l6 12q8 18 19 33l6 14l18 33q5 11 18.5 35.5t20.5 40.5 l6 12q6 9 23 42t33.5 51t40.5 22q16 4 22 4q25 -3 75 -2t75 -2q3 0 10 -1t10 -1h15q25 0 32 -7q28 -28 0 -79l-8 -19l-20 -32t-21 -37l-6 -13q-7 -16 -20 -39l-7 -14q-41 -91 -110 -213q-3 -9 -8 -14q-8 -13 -11 -23l-4 -8l-4 -8q-5 -16 -8 -19q-5 -15 -6 -16l-10 -21 l-9 -20q-26 -66 -57 -119l-6 -12v-2q0 -2 2 -4l10 -19q25 -77 76 -151l8 -17l27 -57l8 -18q5 -16 29 -58q7 -14 10 -18q19 -40 90 -166l8 -16l10 -21l5 -6l6 -12l6 -19q4 -12 10 -18l8 -19q2 -4 15 -23.5t18 -29.5zM881 115q3 4 -1 13t-11 21t-9 19q-1 2 -2 5l-1.5 4.5 t-0.5 2.5q-6 13 -8 19q-16 36 -29 51l-10 18l-43 92q-40 78 -47 93q-14 27 -45 86.5t-45 87.5l-13 24q-2 3 -8 13t-8.5 14t-6 12t-5 14t-0.5 13q1 26 26 66t31 59q5 5 8 16q20 43 60 111l12 24l16 29l9 14q11 21 32.5 70t36.5 74l6 14l23 47l12 21q3 8 9.5 19t11 18.5 t8.5 17.5t3.5 15t-3.5 11q-19 15 -32 -2t-25.5 -52.5t-22.5 -47.5l-6 -12q-19 -27 -33.5 -55.5t-35.5 -75.5t-27 -60l-9 -16l-10 -16q-5 -6 -12 -19.5t-8 -15.5l-76 -150q-2 0 -2 -2q0 -1 -1 -4t-1 -4l-13 -20q-3 -14 -10 -21q-2 -2 -2 -8q0 -2 -2 -2l-31 61l-75 150 q-2 3 -6 10.5t-7.5 14t-7.5 10.5q-39 62 -67 135q-15 23 -23 41q-26 47 -43 84l-12 22q-5 27 -24.5 46.5t-35.5 -1.5q-4 -7 0 -16t13 -20.5t12 -20.5q3 -3 5 -8t5 -8l10 -21l39 -80l23 -49q23 -53 61 -117l13 -24q37 -60 82 -160l6 -16l41 -74l-183 -359l-43 -92l-10 -18 q-25 -33 -37 -66l-6 -12l-4 -12q-13 -16 -16 -25q-6 -11 -4 -24t14 -13q30 3 33 31q7 7 10 16q1 3 4 7.5t4 7.5l6 16l8 17l47 88q0 2 1 4t2 5t2 5l8 14q7 11 18.5 34t18.5 34q1 2 4 8.5t4 11.5q72 149 141 279q69 -130 141 -279q1 -4 4.5 -11l4.5 -9q7 -11 18.5 -34 t18.5 -34l8 -14q4 -12 4 -14l41 -80l8 -17l6 -14l8 -16l6 -17q6 -20 25 -29t27 7z" />
<glyph unicode="y" horiz-adv-x="1220" d="M1114 1196q5 -150 0 -201q-5 -69 -8 -84q-2 -8 -2 -26v-2q0 -1 -1 -4.5t-1 -4.5q0 -2 -4 -22q0 -14 -2 -18q0 -5 -4 -21q-5 -24 -27 -74l-8 -18q-25 -54 -51 -90l-13 -17q-62 -80 -155 -114l-19 -6q-35 -15 -80 -21v-301v-12q-2 -21 -1.5 -48.5t2 -52t-11 -43.5 t-40.5 -22q-3 0 -9 -1t-9 -1q-132 -4 -183 4q-6 2 -12 8q-7 2 -10 12q-18 32 -8 72q-2 2 -2 16v23q0 27 2 41v16q0 32 -0.5 64.5t-1 53t-0.5 22.5v153q-7 2 -26 8t-28 9l-26 10q-33 16 -47.5 23.5t-37.5 24t-38 34.5l-16 18q-29 38 -39 60q-28 55 -39 92q-22 63 -33 162 q-9 76 -12 151l-7 166v18v76q0 3 -1 7t-1 7v5q0 20 1 31t8 25.5t22 20.5q2 2 15 2q20 5 22 5q3 0 10.5 1t10.5 1t9 1t9 1q37 8 86 5t80 -26q7 -7 8 -10l6 -16q0 -3 1 -10t1 -11q4 -12 1.5 -50t-1.5 -50q0 -3 -1 -10t-1 -11q-4 -65 2 -98q0 -17 2 -21q0 -4 1 -11t1 -11v-21 q0 -19 4 -81q0 -32 9 -66v-18q4 -37 16 -68q3 -7 16 -29q5 -10 11 -18l14 -14q26 -29 57 -37l21 -6q109 -11 180 24l12 8l13 11q2 2 4.5 5.5t4.5 6t4.5 6t4.5 6.5q45 53 49 170l4 23v53v16q-1 21 4 127q2 4 2 19q2 14 2 39v18q0 9 -2 39.5t-1.5 47t9 38t27.5 33.5q3 0 9.5 1 t9.5 1q4 2 18 2h21q21 -3 44 -3.5t55 0.5t44 1l18 -6l19 -13q23 -16 10 -71v-17v-16v-19q4 -70 4 -102zM995 1221v4q0 6 2 10q-2 4 -2 16q0 7 2 20.5t3 24.5t0.5 22t-7 15.5t-18.5 1.5q-20 -6 -23 -35t2 -51v-18v-19v-18l-4 -20v-19q0 -39 -2 -57q-2 -6 -2 -21l-2 -35v-18 q-3 -99 -22 -184q0 -3 -1 -8.5t-1 -8.5l-19 -49l-6 -14q-24 -44 -48.5 -73t-58.5 -40l-16 -6q-36 -15 -119 -27h-80q-23 0 -73 11q-82 24 -125 65q-23 24 -41 55q-22 39 -31 80q-18 69 -29 189q-6 58 -6 119q0 3 -1 9.5t-1 10.5v49q-2 4 -2 17q0 8 0.5 28t0.5 30.5t-2.5 26 t-8.5 27.5q-4 7 -13.5 7.5t-13.5 -5.5q-10 -19 -11.5 -40t3 -52t4.5 -43q0 -3 1 -8t1 -8v-43q0 -4 1 -12t1 -11q0 -21 4 -67q14 -151 23 -193q28 -110 63 -160q44 -58 117 -94q31 -13 72 -20q41 -9 80 -9q-1 -57 1.5 -162.5t2.5 -150.5q-1 -22 -2.5 -58.5t-2.5 -67t-1 -58.5 q0 -20 20.5 -20t20.5 20q0 32 1 65.5t2.5 74t2.5 65.5q0 47 -3.5 144t-4.5 148h16q12 0 16 2q59 0 131 29l17 6q81 35 135 144l6 16q3 6 6 18t6 17l5 18q0 3 1 6.5t1 6.5q11 50 24 186v18q2 18 2 56q0 3 1 8t1 8v31v18q2 2 2 15v14v14q0 13 2 17z" />
<glyph unicode="z" horiz-adv-x="1103" d="M1024 250l4 -21q-2 -18 -0.5 -96t-9.5 -98l-4 -12l-10 -15q-10 -10 -33 -10h-17q0 -2 -101 -1l-101 1q-15 0 -21 -2h-18q-74 -4 -99 0q-4 0 -11 -1t-11 -1q-62 0 -123 6h-20q-92 -4 -123 0q-13 0 -17 -2h-35q-23 2 -81 -2q-2 -2 -17 -2q-7 1 -27 1t-36.5 1.5t-28.5 5.5 q-8 3 -12 10q-9 6 -9 17q-2 4 -2 18q3 29 31 79.5t35 72.5q0 4 4 8q2 2 2 4l39 78q8 17 18 34.5t24.5 40.5t21.5 35l10 17q1 4 8 18l8 19l90 182q7 14 8 18q12 21 33 74q1 5 4 12t4 9q14 30 42 87.5t42 86.5l11 18q17 33 49 88q1 3 4 7t4 7q15 24 33 70l12 29l6 12 q-61 0 -187 1t-173 1h-15q-12 0 -43 -3.5t-50 -2t-27 11.5l-11 15q-4 16 -4 18q-4 16 -4 20q-4 11 -1 84t3 84q0 3 1 9.5t1 9.5q3 11 8 16q8 9 21 13.5t22.5 5t27.5 -0.5t24 -1h20q18 0 61.5 4t61.5 0h455q3 0 8 1t8 1q6 -2 29 -2h6q20 -1 58 -1t57 -1q3 0 10 -1t10 -1h14 q26 0 33 -7q28 -28 0 -79l-8 -19l-20 -32t-21 -37l-6 -13q-4 -9 -21 -39l-6 -14q-41 -91 -110 -213q-2 -7 -9 -14q-5 -9 -10 -23l-4 -8l-4 -8q-5 -16 -8 -19l-27 -53l-8 -18q-3 -3 -5 -8.5t-5 -8.5q-1 -4 -8 -18q-16 -26 -31 -56.5t-33.5 -70.5t-28.5 -60q-3 -3 -5 -8t-5 -8 l-14 -25q-2 -6 -8 -12q-9 -17 -24.5 -48t-28.5 -56t-27 -47l-17 -37l-37 -74q-3 -3 -5 -8t-5 -8h312q14 0 20 -2q28 -3 86.5 0t87.5 0l16 -7q20 -10 23 -26zM881 111h32q20 0 20 20.5t-20 20.5h-34q-39 -1 -108.5 0.5t-92.5 1.5q-17 0 -21 -2h-59q-6 -2 -20 -2h-226h-20h-60 l21 36q5 5 8 17l12 22q3 4 5.5 12t5.5 11q89 161 104 192l6 17l8 16q1 2 4.5 9.5t4.5 11.5q23 52 59 114q3 12 8 17l8 18q25 59 97 180l6 15q20 47 90 180l12 18q27 50 60 94l10 21l8 12q3 11 8 15q0 1 2 4t6.5 11t8.5 15q6 6 11 14.5t11.5 21t11.5 20.5q1 2 4 6.5t4 6.5 t3.5 6t3 5.5t1.5 5t0.5 5.5t-1 4.5t-2 4.5t-4 4.5t-5.5 4.5q-7 4 -43 4q-12 0 -34 1t-29 1q-6 -2 -25 -2q-48 -4 -65 -2q-7 0 -20.5 1t-20.5 1q-17 0 -50 1t-50 1q-4 0 -11 1t-10 1q-38 -3 -98.5 -3t-77.5 -1h-21q-10 -3 -16.5 -3.5t-16 0.5t-16.5 1h-20q-14 0 -23.5 -0.5 t-24 -3t-20 -9t-0.5 -16.5q4 -10 12.5 -13t25 -1.5t22.5 0.5q12 0 31.5 2t56.5 2q29 3 86 2t84 2h18q34 -4 152 -4q14 2 39 2q8 0 24.5 -1t24.5 -1q2 -2 16 -2q32 0 55 2v-6q-17 -17 -32 -43q-1 -3 -4.5 -7t-4.5 -7l-6 -15q-13 -16 -16 -26q-2 -2 -10 -19q-21 -28 -58 -92 l-10 -18q-74 -150 -94 -193l-8 -16q-83 -152 -90 -168q0 -2 -9 -19l-16 -33l-43 -90q-7 -14 -8 -18l-12 -21q-1 -4 -4.5 -11l-4.5 -9q-16 -33 -52.5 -96.5t-51.5 -96.5l-8 -12l-13 -26l-10 -19q-2 -12 -12.5 -27.5t-19.5 -25.5t-13 -24t8 -23q8 -9 20.5 -13t23 -3t29 3.5 t28.5 2.5h22h223h19q25 2 76 2q6 2 22 2q21 0 89 -1.5t104 -0.5z" />
<glyph unicode="{" horiz-adv-x="821" d="M784 -190q11 -11 13 -15q28 -100 -4 -166q-5 -7 -15 -14l-16 -12l-19 -9q-84 -11 -170 -2h-20q-100 8 -197 91l-14 16l-25 31q-6 4 -10 16q-2 6 -8 12q-31 99 -39 176v19v182q0 23 -2 67t-2 68v41v21q5 130 0 174v18q-3 31 -12 54l-6 16q-20 23 -52 37l-20 6 q-70 9 -93 25q-25 17 -28 49l-4 18q0 36 2 59q0 1 4 21q10 39 43 47q6 1 27 4t29 4.5t22 6t25 10.5l12 10q18 12 33 33q3 3 6 16q11 29 12 91.5t2 72.5q0 71 1 116t1 126v139q-2 56 16 135l7 20q11 34 24 52q3 9 10 16l25 31l14 16q96 82 197 90h20q47 7 109 4q3 0 9 -1 t9 -1q39 5 71 -18.5t36 -63.5q0 -4 1 -11t1 -11q4 -50 -8 -82q-3 -11 -8 -16q-16 -25 -43 -31q-3 0 -15 -4q-44 -7 -67 -4q-3 0 -9.5 -1t-9.5 -1q-16 0 -37 -9l-22 -10l-15 -12l-10 -12q-12 -23 -16 -57.5t-2.5 -63.5t-1.5 -60v-77q-3 -27 -3.5 -55t0.5 -67t1 -55v-61v-66 v-38q0 -3 -1 -7.5t-1 -7.5q0 -12 -2 -14q0 -13 -2 -17q-6 -58 -39 -96q-3 -3 -6.5 -8t-6.5 -8q-24 -24 -43 -35q-3 -3 -8 -5t-8 -5q-18 -11 -33 -13q4 -2 20.5 -7.5t24.5 -10.5q3 -1 6.5 -4t6.5 -4l16 -17q37 -35 53 -81.5t23 -112.5v-21v-20v-10q0 -16 1 -63t1 -72v-23 q-1 -15 1.5 -58.5t-1.5 -58.5v-24v-101q3 -31 1.5 -59.5t2.5 -63t16 -57.5l10 -12l15 -12l22 -11q12 -6 25 -6q11 -3 24 -4t28.5 -1t23.5 -1h18q33 -6 53 -20zM696 -307q10 0 13 8q9 17 0 28t-27 11q-10 -1 -34.5 -4t-41.5 -2.5t-35 6.5q-4 0 -20 4q-68 23 -107 96 q0 3 -1 7.5t-1 7.5q-2 4 -2 18q-20 90 -20 184q0 3 -1 9.5t-1 9.5q-3 61 0 125q0 134 -2 200q-1 11 -1 31t-1 36.5t-4 31.5q-4 56 -9 78l-4 14q-19 100 -125 166q9 3 52 30q3 3 7 5.5t7 5.5q48 42 68 98q10 39 10 92q3 49 0 98q0 131 2 197q0 126 2 189q0 87 20 135 q19 43 52 69q5 1 14 11q79 34 201 34q7 0 14 7q1 2 3.5 6.5t2.5 7.5q0 20 -20 20q-6 2 -25 2q-21 -5 -61.5 -9t-73 -10.5t-58.5 -21.5q-3 -3 -8 -5t-8 -5q-42 -31 -63 -78q-31 -58 -31 -147q-2 -68 -2 -201q-2 -63 -2 -184q4 -125 -6 -184q-11 -57 -68 -97q-8 -8 -14 -10 q-3 -3 -8.5 -6t-8.5 -6q-21 -15 -55 -21q-16 -4 -18 -4q-10 -3 -20 -1t-21 -0.5t-15 -12.5q-4 -6 0.5 -14.5t10.5 -8.5q5 -1 59 -6l18 -4q15 -4 17 -6q73 -19 110 -135l4 -17q7 -28 11 -98q4 -66 4 -98q3 -31 3.5 -63t-0.5 -77t-1 -63v-82v-18q1 -15 4 -64t7 -79.5t11 -61.5 q0 -3 1 -10.5t1 -10.5l7 -20q24 -48 65.5 -82.5t91.5 -44.5q3 0 6.5 -1t6.5 -1q14 -3 30 -4t28 -1t31 0.5t29 0.5z" />
<glyph unicode="|" horiz-adv-x="436" d="M326 154v-152v-14q-4 -28 -4 -39v-19q-2 -18 1.5 -69t-6.5 -60q-12 -22 -27 -24.5t-41 3t-46 1.5h-21q-23 -2 -53 8q-3 3 -7 5t-7 5q-10 8 -11.5 26t2 47.5t3.5 41.5v14q0 100 -1.5 392t-1.5 309v18v58v18q-1 15 5 178q0 3 1 9.5t1 9.5v20q0 6 2 8v486v14v31v28 q-7 27 -4 43q0 4 1 11t1 10q7 19 18.5 27.5t30.5 13.5q3 0 9 1t9 1q17 0 35 0.5t26.5 1t23.5 -0.5t36 -5q6 -2 12 -8q7 -2 11 -13q17 -31 8 -71q2 -2 2 -17v-22q0 -27 -2 -41v-17q0 -32 0.5 -66t1 -56.5t0.5 -24.5v-354q-4 -62 -4 -82q0 -4 -1 -11t-1 -10q4 -11 1 -90 t-3 -90v-483zM242 281v460v168q0 27 -2 41q-4 38 -3.5 162t5.5 162v63q3 72 0 140v28q0 20 -20.5 20t-20.5 -20v-14q9 -86 0 -176v-53q-3 -20 -3 -84t1.5 -139.5t1.5 -84.5v-26q6 -90 0 -180v-17q6 -63 2 -180q-2 -6 -2 -21q0 -14 1 -143t1 -143v-17q0 -12 -2 -14v-90 q-1 -14 0.5 -63.5t-2.5 -63.5v-72q6 -44 8 -51q4 -4 14 -4q21 0 21 18v45q-2 10 -2 35q-2 2 -2 17q-3 27 2.5 88t-0.5 88v20q0 68 2 101z" />
<glyph unicode="}" horiz-adv-x="821" d="M125 -307q6 0 35.5 -1t47.5 0t36 5q3 0 6 1t6 1q50 10 92 44.5t66 82.5l6 20q0 3 1 10.5t1 10.5q7 31 11 61.5t7 79.5t4 64v18v82q0 18 -1 63t-0.5 77t3.5 63q0 15 5 98q5 76 10 98l4 17q37 116 110 135q2 2 17 6l18 4q56 5 60 6q6 0 10 8.5t0 14.5q-6 14 -24.5 13.5 t-30.5 0.5q-3 0 -19 4q-34 6 -55 21q-3 3 -8 6t-8 6q-7 3 -15 10q-56 39 -67 97q-11 64 -7 184q0 121 -2 184q0 133 -2 201q0 91 -30 147q-26 50 -64 78q-3 3 -8 5t-8 5q-26 15 -58.5 21.5t-73 10.5t-61.5 9q-18 0 -24 -2q-21 0 -21 -20q0 -3 2.5 -7.5t3.5 -6.5q7 -7 15 -7 q121 0 200 -34q9 -9 15 -11q31 -25 51 -69q20 -48 20 -135q2 -63 2 -189q3 -99 3 -197q-3 -49 0 -98q0 -53 10 -92q21 -58 67 -98q3 -3 7.5 -5.5t7.5 -5.5q45 -28 51 -30q-106 -66 -125 -166l-4 -14q-3 -15 -8 -78q-3 -15 -4 -31.5t-1 -36.5t-1 -31q-3 -99 -3 -200 q3 -64 0 -125q0 -3 -1 -9.5t-1 -9.5q0 -94 -20 -184q0 -14 -2 -18q0 -3 -1 -7.5t-1 -7.5q-39 -73 -107 -96q-16 -4 -20 -4q-18 -6 -35 -6.5t-41.5 2.5t-34.5 4q-18 0 -26.5 -11t0.5 -28q3 -8 12 -8zM37 -190q20 14 53 20h19q8 1 23.5 1t28 1t23.5 4q13 0 25 6l22 11l15 12 l10 12q12 23 16 57.5t2.5 63t1.5 59.5v101v24q-4 15 -1.5 58.5t1.5 58.5v23q0 25 1.5 72t1.5 63v10v20v21q7 67 22.5 113.5t52.5 80.5l17 17q3 1 6 4t6 4q8 5 24.5 10.5t20.5 7.5q-15 2 -33 13q-3 3 -8 5t-8 5q-19 11 -43 35q-3 3 -6 8t-6 8q-33 38 -39 96q-2 4 -2 17 q-2 2 -2 14q0 3 -1 7.5t-1 7.5v38v66v61q0 148 -3 177v77q-3 31 -1.5 60t-2.5 63.5t-16 57.5l-10 12l-15 12l-22 10q-21 9 -37 9q-3 0 -9 1t-9 1q-23 -3 -68 4q-12 4 -14 4q-27 6 -43 31q-7 7 -9 16q-12 32 -8 82q0 4 1 11t1 11q4 40 36 63.5t71 18.5q3 0 9 1t9 1 q62 3 109 -4h20q101 -8 197 -90l14 -16l25 -31q9 -14 10 -16q14 -20 25 -52l6 -20q18 -79 16 -135v-139q0 -81 1 -126t1 -116q1 -9 2.5 -72t12.5 -92q3 -13 6 -16q16 -22 32 -33l13 -10q11 -6 25 -10.5t21.5 -6t29 -4.5t26.5 -4q33 -8 43 -47q4 -20 4 -21q2 -23 2 -59 l-4 -18q-1 -15 -6.5 -26.5t-17.5 -19.5t-19 -12.5t-27 -8t-24.5 -4t-26.5 -3.5l-20 -6q-30 -14 -51 -37l-6 -16q-10 -27 -13 -54v-18q-5 -44 0 -174v-21v-41q0 -24 -2 -68t-2 -67v-182v-19q-8 -77 -39 -176q-6 -6 -8 -12q-3 -9 -10 -16l-25 -31l-14 -16q-97 -83 -197 -91 h-20q-86 -9 -170 2l-19 9l-16 12q-8 6 -14 14q-32 66 -4 166q3 6 12 15z" />
<glyph unicode="~" horiz-adv-x="1265" d="M1182 588q0 -17 2 -21q-3 -11 -4 -30t-4 -31q0 -3 -1 -9.5t-1 -9.5q-17 -60 -56 -118l-14 -13q-43 -48 -129 -92q-15 -4 -19 -2l-16 -4q-119 -14 -192 4l-23 6q-7 3 -21.5 7.5t-21.5 7.5l-18 8q-3 3 -7.5 5t-7.5 5l-16 12q-3 3 -7.5 5.5t-7.5 5.5l-14 14l-12 14l-14 15 q-4 6 -8.5 11t-11 10.5t-9.5 8.5q-11 11 -14 17q-12 11 -36.5 50t-48.5 55.5t-57 0.5q-8 -6 -14 -14q-6 -6 -10 -14q-4 -16 -0.5 -32.5t11 -35.5t9.5 -29q2 -4 2 -20q10 -24 -3 -47.5t-38 -34.5q-3 -3 -8 -5t-8 -5q-1 0 -17 -4q-7 -2 -31 -9.5t-36.5 -11t-34.5 -6t-35 1.5 t-26.5 15.5t-20.5 31.5q-8 8 -10 14l-19 50l-6 18q-27 83 -6 168v14q2 17 12 39q3 9 25 53q9 9 12 19q77 99 209 129q16 4 23 4q4 1 11 1t11 1h19q14 0 20 -2q4 2 21 2q25 -2 80 -14q8 -6 18 -11q68 -30 115 -77l16 -17q6 -6 12 -18l17 -15q64 -104 123 -100q4 1 18 8 q17 13 22 35.5t-2 42.5q-5 5 -8 14q-4 15 -6 17q-5 28 8 50t43 26q15 4 17 6q2 0 33 8q3 1 8 1t8 1q2 0 18 4q3 0 10 1t11 1q72 17 98 11q31 -7 39 -37q1 -2 10 -19q13 -30 17 -102q0 -1 4 -17q0 -4 -1 -11t-1 -11zM1059 582q0 18 2 22v14l-4 15v14q-1 4 -5 12.5t-5 12.5 l-7 10q-2 0 -6.5 0.5t-6.5 0.5t-5.5 -1.5t-5.5 -5.5q-3 -15 2.5 -40t5.5 -34l-4 -22q0 -3 -4 -19l-4 -16q-4 -15 -6 -17q-14 -43 -56 -79l-30 -17q-32 -19 -78 -16q-25 0 -31 2q-1 1 -23 8q-23 8 -45.5 24.5t-34.5 29t-34.5 38.5t-30.5 35q-4 2 -16 14l-41 45l-13 13 q-75 75 -180 75h-18l-19 -4q-20 -2 -57 -14l-18 -12q-10 -10 -21 -13q-2 -4 -14 -16l-8 -10l-11 -13q-3 -2 -14 -16q-30 -58 -18 -129l4 -20q0 -3 4 -19l6 -18q3 -5 8.5 -19.5t10.5 -25.5t12 -20.5t15.5 -8.5t18.5 14q5 13 3 19.5t-11 21.5t-12 23l-6 12q-19 33 -21 62 q0 4 1 10.5t1 9.5q0 22 13 61q4 11 12 19l12 14q24 24 56 37q16 4 20 4l18 6l21 4q92 9 170 -63l12 -10q18 -21 39 -39q9 -9 12 -15q81 -107 164 -143q16 -4 23 -4q73 -24 166 27q13 8 26 24q39 36 56 96q4 20 4 25q3 4 4 8t1 9t1 8z" />
<glyph unicode="&#xa1;" horiz-adv-x="540" d="M252 1286h16l15 12q4 4 4 7v4l2 4q-8 19 -17 22q-2 2 -6 2q-6 2 -20 2q-2 0 -2 -2q-4 -4 -6 -4h-2l-7 -12v-4q4 -31 23 -31zM285 678q4 50 4 67q-2 4 -2 19q-4 52 0 207q0 8 -6 14q-12 4 -15 4q-10 0 -14 -4q-4 -20 -4 -24q-2 -4 -2 -15q-4 -21 -1.5 -84t1.5 -84v-43 q0 -56 1 -88t1 -33q0 -35 -5 -143t1 -123v-53q9 -90 0 -176v-15q0 -20 20.5 -20t20.5 20v29q3 68 0 139v64q-10 83 -2 149q2 14 2 41v58v94zM256 1184q-19 0 -25 2l-20 6q-39 17 -62 53.5t-22 77.5q0 3 1 9t1 9q9 31 25 56l8 10l31 25l14 6l18 6h21q32 0 41 -4q2 0 18 -4 q47 -15 68 -50q3 -3 6 -9t6 -9q16 -32 10 -61q0 -3 -1 -7.5t-1 -7.5l-4 -24q-16 -29 -35 -45l-16 -13q-36 -26 -82 -26zM389 936v-92q0 -41 3.5 -112t4.5 -93q2 -4 2 -18q0 -15 2 -19q0 -18 2 -22v-62q0 -11 3 -20q-3 -6 -3 -19v-18l5 -66q2 -2 2 -12q-4 -109 6 -180v-31 q2 -14 2 -41v-22q0 -15 -2 -17q10 -40 -8 -72q-3 -9 -11 -12q-6 -6 -12 -8q-51 -8 -182 -4q-3 0 -9.5 1t-9.5 1l-16 4q-20 7 -31 22.5t-12.5 39t-0.5 40.5t4 41q1 5 1 7v194q0 25 2 39v29q-2 10 -2 28q3 26 4 56t1 66.5t1 56.5v75q4 144 4 215v74q0 15 2 19q0 34 35 53l17 4 q54 7 129 4q4 0 20 -4q52 -19 47 -125z" />
<glyph unicode="&#xa2;" horiz-adv-x="1202" d="M1098 567v-12q2 -25 -11 -90q-2 -2 -2 -10q-4 -28 -4 -31l-6 -25q-5 -16 -10 -24q0 -4 -4 -8q-1 -5 -4 -12t-4 -9l-6 -12q-27 -52 -60 -94l-14 -15q-36 -36 -72 -59l-16 -12q-13 -8 -28.5 -15t-26.5 -11.5t-30 -10t-26.5 -7.5t-30.5 -7.5t-28 -6.5v-55v-8q0 -34 -15 -49 q-6 -6 -23.5 -7.5t-23.5 -3.5h-12h-18h-9h-24h-8q-36 -2 -62 14t-22 50v14v47q-55 3 -105 23l-26 10q-33 16 -47.5 23.5t-37.5 24t-38 34.5l-17 18q-29 38 -39 60q-26 50 -38 92q-22 63 -33 162l-6 49q0 10 -2 12v10q0 3 -1.5 6.5t-1.5 6.5q-4 23 -4 61.5v48.5q0 11 2 13v12 l7 65q0 3 1 9.5t1 9.5l4 39q11 99 33 162q12 42 38 92q9 20 39 59l17 19q5 6 10.5 12t13 11.5t12 9.5t14.5 9.5t13 8t15 8.5l14 7l16 8t15 7l26 11q21 9 109 22q0 42 2 60v10q-7 28 8 44.5t45 16.5h12q50 3 80 -2h13q19 -3 36 -10l9 -6q13 -10 16 -29q0 -3 -1 -6t-1 -6v-10 v-62q9 -2 32.5 -7.5t35.5 -9t31 -9.5t34.5 -13t30.5 -16l16 -12q33 -21 72 -60l14 -14q35 -43 47 -74q15 -25 21 -39q18 -31 24 -63l1 -3q1 -3 1 -7t1 -12.5t1 -12.5l4 -12q11 -41 -14 -72l-6 -6q-97 -5 -117 -4h-12q-19 0 -23 -2h-14q-34 -3 -61 4q-3 0 -5.5 1t-5.5 1 q-3 3 -8 5t-8 5q-8 3 -18 19l-15 34l-8 19l-12 16q-4 6 -11 15t-8 10l-12 10l-6 4v-108q-4 -62 -4 -82q0 -4 -1 -11t-1 -10q5 -11 1.5 -90t-3.5 -90v-240l2 2l12 9l12 10q2 2 9 10t10 14q24 34 31 62q0 3 1 5t1 5l1 3q1 3 1 7t1 7t1 4q4 51 32 53h13q50 6 94 6q10 0 12 -2 q3 0 5 1t5 1q39 0 50 -4q3 0 6 1t6 1q17 1 31.5 1.5t27 -6t19.5 -20.5zM973 459q4 29 -2 35q-11 8 -20.5 1t-14.5 -22q0 -1 -1 -4t-1 -4l-4 -12l-8 -25l-7 -10q-36 -74 -90 -117l-14 -10q-31 -20 -51 -27l-12 -6q-33 -16 -107 -20h-14q0 56 2 249t2 422q0 27 -2 41 q0 1 -1 11.5t-1 25.5v21v69v49q0 8 1 29t1 33l59 -6q2 -2 10 -2q75 -15 109 -39l8 -4q4 -4 6 -4q43 -27 68 -66l6 -10q11 -11 19 -40.5t20 -41.5t20 2q10 18 -2 51q-2 2 -2 8l-6 13q-4 16 -10 22l-6 10q-32 48 -90 90l-9 7q-48 31 -122 41q-2 2 -13 2q-14 4 -65 8v10v10v41 v13q5 30 2 73q-2 2 -2 10q0 5 -4 9l-7 4q-2 1 -16 -4q-1 -3 -3 -5.5t-3 -5.5q-3 -9 -1 -28.5t-1 -28.5v-12q0 -8 -1 -27t-1 -31v-12v-14h-39q-3 0 -6 -1t-6 -1q-12 0 -32.5 -7t-31.5 -8q-2 -2 -8 -2h-4l-16 -6q-35 -10 -62 -24l-16 -6q-24 -14 -45.5 -40t-32 -44t-29.5 -54 l-6 -18q-17 -49 -22 -86l-5 -16q0 -4 -1 -11t-1 -10q-6 -39 -10 -109q0 -10 -2 -34t-2 -41q0 -19 4 -51v-19q13 -122 25 -170l18 -55q27 -80 74 -127l14 -12l19 -15q26 -18 67 -41q1 0 2 -0.5t3.5 -1.5t4.5 -2q22 -8 64 -14t57 -10h13h12q-2 -8 -2 -27v-55v-11 q0 -6 -1 -21.5t-0.5 -23t5.5 -10.5q22 -15 28.5 5.5t2.5 49.5v13q2 25 2 69v13h12q13 2 36.5 3t41.5 4t33 11l12 6q18 6 65 35l17 10l14 10q61 52 94 119l6 13q4 11 11 30q2 2 2 11q2 2 2 10zM590 530q0 -1 0.5 -27.5t1 -95.5t0.5 -171q-9 -2 -35 2h-12q-8 3 -29 5.5 t-31 6.5q-3 0 -5 1t-5 1q-65 29 -84 47l-20 16l-13 11q-38 44 -59 102l-4 16l-4 15l-6 16q-22 87 -25 172v19q0 54 4 198l1 12q1 13 5 19q0 3 1 7t1 7t1 8.5t1 8.5q5 40 19 80l4 16q43 92 100 121q5 5 17 8l43 16q2 2 8 4q11 2 36 9t43 10t36 0h12q0 -31 -2 -47v-27 q1 -22 -0.5 -59t-1.5 -51v-27q0 -8 1 -25.5t1 -25.5q6 -90 0 -180v-17q6 -63 2 -180q-2 -6 -2 -21zM502 920v20q0 6 2 8q-2 10 -2 31v68q-28 -13 -43 -33l-15 -15q-3 -4 -10 -18q-13 -22 -16 -29q-13 -44 -15 -67q0 -3 -1 -9.5t-1 -9.5q-6 -34 -6 -65q-6 -82 0 -170 q0 -31 6 -66q0 -3 1 -9t1 -9q2 -25 15 -68q2 -4 16 -28q9 -17 10 -19l15 -14q12 -17 37 -31v336q-1 30 4 178q0 3 1 9.5t1 9.5z" />
</font>
</defs>
</svg>
