<?xml version="1.0" encoding="utf-8"?>
<!-- Generator: Adobe Illustrator 16.0.4, SVG Export Plug-In . SVG Version: 6.00 Build 0)  -->
<!DOCTYPE svg PUBLIC "-//W3C//DTD SVG 1.1//EN" "http://www.w3.org/Graphics/SVG/1.1/DTD/svg11.dtd">
<svg version="1.1" id="Layer_1" xmlns="http://www.w3.org/2000/svg" xmlns:xlink="http://www.w3.org/1999/xlink" x="0px" y="0px"
	 width="64px" height="64px" viewBox="0 0 64 64" enable-background="new 0 0 64 64" xml:space="preserve">
<title>arrow-book</title>
<desc>Created with Sketch.</desc>
<path fill="#7F7F7F" d="M52.165,29.13H11.926c-0.708,0-1.376,0.345-1.792,0.919c-0.412,0.581-0.341,1.325-0.3,1.995l-0.03,25.942
	c0.304,0.893,1.144,1.5,2.085,1.5h40.255c0.948,0,1.793-0.607,2.09-1.508l0.018-25.938c0-1.063,0.111-1.41-0.297-1.991
	C53.538,29.471,52.878,29.13,52.165,29.13z M50.5,55.076H13.479l-0.02-21.536H50.5V55.076z"/>
<path fill="#7F7F7F" d="M32.034,3.518c-8.775,0-15.95,7.136-15.95,15.911c0.001,0.359,0.024,9.696,0.024,9.696h4.376
	c0,0,0.014-9.382,0.014-9.696c0-6.341,5.195-11.501,11.536-11.501C32.034,7.423,32.034,4.202,32.034,3.518z"/>
<path fill="#7F7F7F" d="M32.034,3.518c8.774,0,15.914,7.136,15.914,15.911c0,0.359-0.023,9.696-0.023,9.696h-4.376
	c0,0-0.015-9.382-0.015-9.696c0-6.341-5.16-11.501-11.5-11.501C32.034,7.423,32.034,4.202,32.034,3.518z"/>
</svg>
